<?xml version="1.0" encoding="utf-8"?>
<!-- Generator: Adobe Illustrator 24.0.0, SVG Export Plug-In . SVG Version: 6.00 Build 0)  -->
<svg version="1.1" id="Layer_1" xmlns="http://www.w3.org/2000/svg" xmlns:xlink="http://www.w3.org/1999/xlink" x="0px" y="0px"
	 viewBox="0 0 521.068 111.373" style="enable-background:new 0 0 521.068 111.373;" xml:space="preserve">
<style type="text/css">
	.st0{clip-path:url(#SVGID_2_);}
	.st1{clip-path:url(#SVGID_4_);fill:#FFBCFA;}
	.st2{clip-path:url(#SVGID_4_);fill:#FFAAFF;}
	.st3{clip-path:url(#SVGID_4_);fill:#F186FF;}
</style>
<g>
	<path d="M103.075,70.934l1.512-1.728c1.152-1.08,1.729-0.576,2.448,0.216c1.224,1.368,3.816,3.816,6.985,3.816
		c4.32,0,8.785-3.168,8.785-10.801V28.307c0-0.721,0.576-1.368,1.368-1.368h2.808c0.792,0,1.368,0.647,1.368,1.368v33.986
		c0,10.009-6.048,15.77-14.473,15.77c-6.265,0-9.721-3.816-10.945-5.328C102.57,72.158,102.643,71.438,103.075,70.934z"/>
	<path d="M140.875,28.307c0-0.721,0.648-1.368,1.368-1.368h2.808c0.792,0,1.368,0.647,1.368,1.368v21.025h29.234V28.307
		c0-0.721,0.576-1.368,1.368-1.368h2.808c0.72,0,1.368,0.647,1.368,1.368v47.668c0,0.72-0.648,1.368-1.368,1.368h-2.808
		c-0.792,0-1.368-0.648-1.368-1.368V54.156h-29.234v21.818c0,0.72-0.576,1.368-1.368,1.368h-2.808c-0.72,0-1.368-0.648-1.368-1.368
		V28.307z"/>
	<path d="M195.883,28.666c0-0.936,0.72-1.728,1.728-1.728h2.088c0.936,0,1.728,0.792,1.728,1.728v20.378l22.466-21.386
		c0.288-0.36,0.936-0.72,1.368-0.72h3.528c1.296,0,2.016,1.439,0.864,2.52L206.9,50.7l23.834,24.41
		c0.504,0.504,0.36,2.232-1.224,2.232h-3.672c-0.504,0-1.152-0.288-1.296-0.504l-23.114-24.122v22.897
		c0,0.937-0.792,1.729-1.728,1.729h-2.088c-1.008,0-1.728-0.792-1.728-1.729V28.666z"/>
	<path d="M260.577,28.307c0-0.721,0.576-1.368,1.368-1.368h28.37c0.792,0,1.368,0.647,1.368,1.368v2.088
		c0,0.72-0.576,1.368-1.368,1.368h-24.194v19.729h20.666c0.72,0,1.368,0.648,1.368,1.368v2.088c0,0.721-0.648,1.368-1.368,1.368
		h-20.666v19.658c0,0.72-0.648,1.368-1.368,1.368h-2.808c-0.792,0-1.368-0.648-1.368-1.368V28.307z"/>
	<path d="M309.105,47.82c7.993,0,14.329,6.912,14.329,15.049c0,8.281-6.336,15.193-14.329,15.193s-14.329-6.912-14.329-15.193
		C294.776,54.732,301.112,47.82,309.105,47.82z M309.105,73.382c5.256,0,9.361-4.68,9.361-10.513c0-5.688-4.104-10.297-9.361-10.297
		s-9.361,4.608-9.361,10.297C299.744,68.702,303.849,73.382,309.105,73.382z"/>
	<path d="M331.567,49.908c0-0.72,0.648-1.368,1.368-1.368h1.368c0.576,0,1.08,0.36,1.224,1.008l0.576,2.089
		c0,0,2.664-3.816,8.641-3.816c2.16,0,5.762,0.359,5.041,2.376l-0.864,2.448c-0.36,0.936-1.008,0.936-1.728,0.647
		c-0.648-0.287-1.729-0.575-2.809-0.575c-5.473,0-7.849,4.032-7.849,4.032v19.226c0,0.72-0.648,1.368-1.368,1.368h-2.232
		c-0.72,0-1.368-0.648-1.368-1.368V49.908z"/>
	<path d="M367.426,47.82c7.561,0,13.033,5.616,13.033,13.177c0,0.504-0.072,1.44-0.145,1.944c-0.072,0.72-0.648,1.224-1.296,1.224
		h-20.737c0.287,4.825,4.536,9.361,9.648,9.361c3.024,0,5.473-1.152,7.129-2.16c1.008-0.576,1.439-0.937,2.016-0.145
		c0.432,0.576,0.793,1.08,1.225,1.656c0.504,0.648,0.792,1.08-0.289,1.872c-1.728,1.368-5.615,3.312-10.584,3.312
		c-8.713,0-14.113-6.841-14.113-15.121C353.312,54.805,358.713,47.82,367.426,47.82z M375.49,60.133
		c-0.216-4.176-3.672-7.921-8.064-7.921c-4.824,0-8.568,3.457-9.073,7.921H375.49z"/>
	<path d="M400.977,47.82c4.32,0,7.705,1.728,10.297,5.04c0.504,0.648,0.359,1.512-0.288,2.017l-1.368,1.151
		c-1.08,1.009-1.439,0.288-2.088-0.288c-1.44-1.655-3.816-3.023-6.625-3.023c-5.4,0-9.576,4.464-9.576,10.225
		s4.104,10.369,9.504,10.369c4.32,0,5.977-2.16,7.633-3.745c0.864-0.863,1.368-0.72,2.16-0.144l0.793,0.576
		c0.719,0.504,0.936,1.296,0.504,2.016c-2.16,3.457-6.121,6.049-11.018,6.049c-7.992,0-14.762-6.408-14.762-15.049
		C386.143,54.517,393.128,47.82,400.977,47.82z"/>
	<path d="M429.488,59.053c3.096,0,6.12,0.937,6.12,0.937c0.071-5.329-0.576-7.777-4.681-7.777c-3.961,0-7.345,1.08-8.641,1.585
		c-0.721,0.288-1.152-0.072-1.368-0.721l-0.576-1.8c-0.288-0.864,0.144-1.296,0.792-1.584c0.432-0.216,4.608-1.872,10.009-1.872
		c7.345,0,9.146,3.744,9.146,12.169v15.985c0,0.72-0.648,1.368-1.369,1.368h-1.367c-0.793,0-1.008-0.433-1.225-1.08l-0.576-1.944
		c-1.512,1.512-4.465,3.744-8.929,3.744c-5.04,0-8.856-3.672-8.856-9.433C417.967,63.157,422.07,59.053,429.488,59.053z
		 M427.615,73.742c3.601,0,6.697-2.232,7.921-4.032v-5.688c-0.864-0.504-2.88-1.152-6.048-1.152c-4.033,0-6.913,2.017-6.913,5.761
		C422.575,71.51,424.52,73.742,427.615,73.742z"/>
	<path d="M448.566,73.311c0.289-0.433,0.793-1.44,1.009-1.801c0.36-0.576,1.151-0.72,1.944-0.216c0,0,3.096,2.521,6.769,2.521
		c2.952,0,4.68-1.513,4.68-3.456c0-2.521-2.16-3.673-6.336-5.761c-3.816-1.872-8.209-4.393-8.209-9.289
		c0-3.024,2.448-7.488,9.145-7.488c3.745,0,6.625,1.296,7.993,2.231c0.647,0.433,0.864,1.44,0.432,2.232l-0.576,1.152
		c-0.432,0.792-1.439,1.008-2.088,0.648c0,0-3.097-1.729-5.761-1.729c-3.239,0-4.104,1.656-4.104,2.88
		c0,2.377,2.377,3.457,5.329,4.896c4.968,2.376,9.433,4.608,9.433,9.793c0,4.177-4.032,8.137-9.937,8.137
		c-4.825,0-7.776-2.016-9.361-3.24C448.566,74.534,448.352,73.814,448.566,73.311z"/>
	<path d="M477.798,52.86h-3.672c-0.792,0-1.368-0.648-1.368-1.368v-1.584c0-0.792,0.576-1.368,1.368-1.368h3.672v-7.993
		c0-0.72,0.648-1.367,1.368-1.367l2.305-0.145c0.72,0,1.296,0.648,1.296,1.368v8.137h8.353c0.792,0,1.368,0.576,1.368,1.368v1.584
		c0,0.72-0.576,1.368-1.368,1.368h-8.353v16.85c0,2.88,0.72,3.456,2.376,3.456c1.801,0,4.32-1.08,5.257-1.584
		c1.08-0.576,1.368-0.144,1.728,0.432l1.08,1.801c0.505,0.864,0.288,1.296-0.504,1.8c-1.008,0.648-4.896,2.448-8.28,2.448
		c-5.761,0-6.625-3.456-6.625-7.921V52.86z"/>
	<path d="M498.822,73.311c0.287-0.433,0.792-1.44,1.008-1.801c0.359-0.576,1.152-0.72,1.944-0.216c0,0,3.096,2.521,6.769,2.521
		c2.952,0,4.68-1.513,4.68-3.456c0-2.521-2.16-3.673-6.336-5.761c-3.816-1.872-8.209-4.393-8.209-9.289
		c0-3.024,2.448-7.488,9.145-7.488c3.744,0,6.625,1.296,7.993,2.231c0.647,0.433,0.864,1.44,0.432,2.232l-0.576,1.152
		c-0.432,0.792-1.439,1.008-2.088,0.648c0,0-3.097-1.729-5.761-1.729c-3.24,0-4.104,1.656-4.104,2.88
		c0,2.377,2.377,3.457,5.329,4.896c4.968,2.376,9.433,4.608,9.433,9.793c0,4.177-4.032,8.137-9.937,8.137
		c-4.825,0-7.777-2.016-9.361-3.24C498.822,74.534,498.605,73.814,498.822,73.311z"/>
</g>
<g>
	<g>
		<defs>
			<rect id="SVGID_1_" y="17.687" width="76" height="76"/>
		</defs>
		<clipPath id="SVGID_2_">
			<use xlink:href="#SVGID_1_"  style="overflow:visible;"/>
		</clipPath>
		<g class="st0">
			<defs>
				<rect id="SVGID_3_" y="17.687" width="76" height="76"/>
			</defs>
			<clipPath id="SVGID_4_">
				<use xlink:href="#SVGID_3_"  style="overflow:visible;"/>
			</clipPath>
			<path class="st1" d="M1.761,75.028l2.814-0.73c1.001-0.138,1.297,0.313,1.415,1.041c0.187,1.228,0.706,3.256,2.503,4.412
				c2.257,1.452,5.779,1.243,8.388-2.811l14.021-21.79c0.296-0.461,0.932-0.638,1.439-0.312l3.041,1.956
				c0.507,0.326,0.608,0.978,0.312,1.439L21.702,79.977c-4.12,6.403-10.546,7.48-15.935,4.012c-4.008-2.579-4.678-6.397-4.838-7.868
				C0.935,75.604,1.277,75.173,1.761,75.028"/>
			<path class="st2" d="M30.224,26.397c-0.137-0.456,0.149-0.99,0.606-1.128l3.01-0.906c0.502-0.151,0.99,0.15,1.128,0.606
				l3.831,12.726l16.694-5.026l-3.831-12.726c-0.137-0.456,0.104-0.977,0.606-1.128l3.01-0.906c0.456-0.137,0.99,0.15,1.127,0.606
				l9.09,30.196c0.137,0.456-0.15,0.99-0.606,1.127l-3.01,0.906c-0.502,0.151-0.99-0.15-1.127-0.606l-3.968-13.182L40.09,41.982
				l3.968,13.182c0.137,0.456-0.104,0.976-0.606,1.127l-3.01,0.906c-0.456,0.137-0.99-0.149-1.127-0.606L30.224,26.397z"/>
			<path class="st3" d="M47.849,52.361c0.121-0.702,0.764-1.202,1.519-1.072l3.131,0.541c0.702,0.121,1.193,0.818,1.072,1.519
				l-1.859,13.476l17.211-11.601c0.263-0.233,0.687-0.437,1.119-0.363l4.049,0.7c0.972,0.168,1.316,1.395,0.42,2.074L56.169,70.81
				l13.375,21.045c0.339,0.614-0.146,1.81-1.279,1.614l-4.318-0.746c-0.54-0.093-0.826-0.365-0.907-0.546L50.179,73.446
				L47.49,88.545c-0.121,0.702-0.818,1.193-1.52,1.072l-3.131-0.541c-0.756-0.131-1.193-0.818-1.072-1.519L47.849,52.361z"/>
		</g>
	</g>
</g>
</svg>
