<?xml version="1.0" encoding="utf-8"?>
<!-- Generator: Adobe Illustrator 24.0.1, SVG Export Plug-In . SVG Version: 6.00 Build 0)  -->
<svg version="1.1" id="Layer_1" xmlns="http://www.w3.org/2000/svg" xmlns:xlink="http://www.w3.org/1999/xlink" x="0px" y="0px"
	 viewBox="0 0 840.9 513.92" enable-background="new 0 0 840.9 513.92" xml:space="preserve">
<a xlink:href="https://projects.jhkforecastsetc.com/democratic_primary/vermont" >
	<path fill="#002E66" d="M665.3,46L665.3,46c-4.6,0-8.3-3.7-8.3-8.3l0,0c0-4.6,3.7-8.3,8.3-8.3l0,0c4.6,0,8.3,3.7,8.3,8.3l0,0
		C673.6,42.2,669.9,46,665.3,46z"/>
</a>
<a xlink:href="https://projects.jhkforecastsetc.com/democratic_primary/washington.html" >
	<path fill="#00FF90" d="M194.1,124L194.1,124c-10.8,0-19.5-8.7-19.5-19.5l0,0c0-10.8,8.7-19.5,19.5-19.5l0,0
		c10.8,0,19.5,8.7,19.5,19.5l0,0C213.6,115.2,204.8,124,194.1,124z"/>
</a>
<a xlink:href="https://projects.jhkforecastsetc.com/democratic_primary/alabama" >
	<path fill="#00FF90" d="M497.1,349L497.1,349c-8.3,0-15-6.7-15-15l0,0c0-8.3,6.7-15,15-15l0,0c8.3,0,15,6.7,15,15l0,0
		C512.1,342.2,505.4,349,497.1,349z"/>
</a>
<a xlink:href="https://projects.jhkforecastsetc.com/democratic_primary/alaska" >
	<path fill="#00FF90" d="M109.9,79.9L109.9,79.9c-4.3,0-7.8-3.5-7.8-7.8l0,0c0-4.3,3.5-7.8,7.8-7.8l0,0c4.3,0,7.8,3.5,7.8,7.8l0,0
		C117.7,76.5,114.2,79.9,109.9,79.9z"/>
</a>
<a xlink:href="https://projects.jhkforecastsetc.com/democratic_primary/arizona" >
	<path fill="#00FF90" d="M234.4,305.8L234.4,305.8c-9.4,0-17-7.6-17-17l0,0c0-9.4,7.6-17,17-17l0,0c9.4,0,17,7.6,17,17l0,0
		C251.4,298.2,243.8,305.8,234.4,305.8z"/>
</a>
<a xlink:href="https://projects.jhkforecastsetc.com/democratic_primary/arkansas" >
	<path fill="#00FF90" d="M412.8,319L412.8,319c-6.4,0-11.6-5.2-11.6-11.6l0,0c0-6.4,5.2-11.6,11.6-11.6l0,0
		c6.4,0,11.6,5.2,11.6,11.6l0,0C424.4,313.8,419.2,319,412.8,319z"/>
</a>
<a xlink:href="https://projects.jhkforecastsetc.com/democratic_primary/california.html" >
	<path fill="#00FF90" d="M160.1,285.6L160.1,285.6c-23.4,0-42.4-19-42.4-42.4l0,0c0-23.4,19-42.4,42.4-42.4l0,0
		c23.4,0,42.4,19,42.4,42.4l0,0C202.5,266.7,183.5,285.6,160.1,285.6z"/>
</a>
<a xlink:href="https://projects.jhkforecastsetc.com/democratic_primary/connecticut" >
	<path fill="#00FF90" d="M697.4,141L697.4,141c-8,0-14.5-6.5-14.5-14.5l0,0c0-8,6.5-14.5,14.5-14.5l0,0c8,0,14.5,6.5,14.5,14.5l0,0
		C712,134.5,705.4,141,697.4,141z"/>
</a>
<a>
	<path fill="#00FF90" d="M641,192.9L641,192.9c-4.7,0-8.5-3.8-8.5-8.5l0,0c0-4.7,3.8-8.5,8.5-8.5l0,0c4.7,0,8.5,3.8,8.5,8.5l0,0
		C649.5,189.1,645.7,192.9,641,192.9z"/>
</a>
<a xlink:href="https://projects.jhkforecastsetc.com/democratic_primary/dc" >
	<path fill="#00FF90" d="M619.8,203.7L619.8,203.7c-4.7,0-8.5-3.8-8.5-8.5l0,0c0-4.7,3.8-8.5,8.5-8.5l0,0c4.7,0,8.5,3.8,8.5,8.5l0,0
		C628.3,199.9,624.5,203.7,619.8,203.7z"/>
</a>
<a xlink:href="https://projects.jhkforecastsetc.com/democratic_primary/florida" >
	<path fill="#00FF90" d="M566.8,412.1L566.8,412.1c-16.8,0-30.3-13.6-30.3-30.3l0,0c0-16.8,13.6-30.3,30.3-30.3l0,0
		c16.8,0,30.3,13.6,30.3,30.3l0,0C597.2,398.6,583.6,412.1,566.8,412.1z"/>
</a>
<a xlink:href="https://projects.jhkforecastsetc.com/democratic_primary/georgia" >
	<path fill="#00FF90" d="M532.8,311.5L532.8,311.5c-11.7,0-21.2-9.5-21.2-21.2l0,0c0-11.7,9.5-21.2,21.2-21.2l0,0
		c11.7,0,21.2,9.5,21.2,21.2l0,0C554,302,544.5,311.5,532.8,311.5z"/>
</a>
<path fill="#00FF90" d="M184.4,407L184.4,407c-5.4,0-9.8-4.4-9.8-9.8l0,0c0-5.4,4.4-9.8,9.8-9.8l0,0c5.4,0,9.8,4.4,9.8,9.8l0,0
	C194.2,402.6,189.8,407,184.4,407z"/>
<a xlink:href="https://projects.jhkforecastsetc.com/democratic_primary/idaho" >
	<path fill="#00FF90" d="M244.7,167.2L244.7,167.2c-5.2,0-9.4-4.2-9.4-9.4l0,0c0-5.2,4.2-9.4,9.4-9.4l0,0c5.2,0,9.4,4.2,9.4,9.4l0,0
		C254.1,163,249.9,167.2,244.7,167.2z"/>
</a>
<a xlink:href="https://projects.jhkforecastsetc.com/democratic_primary/illinois" >
	<path fill="#00FF90" d="M443.9,232.1L443.9,232.1c-14.2,0-25.8-11.5-25.8-25.8l0,0c0-14.2,11.5-25.8,25.8-25.8l0,0
		c14.2,0,25.8,11.5,25.8,25.8l0,0C469.7,220.6,458.1,232.1,443.9,232.1z"/>
</a>
<a xlink:href="https://projects.jhkforecastsetc.com/democratic_primary/indiana" >
	<path fill="#00FF90" d="M497.3,226.5L497.3,226.5c-9.6,0-17.5-7.8-17.5-17.4l0,0c0-9.6,7.8-17.4,17.5-17.4l0,0
		c9.6,0,17.4,7.8,17.4,17.4l0,0C514.8,218.7,507,226.5,497.3,226.5z"/>
</a>
<a xlink:href="https://projects.jhkforecastsetc.com/democratic_primary/iowa.html" >
	<path fill="#36AEFF" d="M393.5,201.6L393.5,201.6c-7.3,0-13.3-5.9-13.3-13.3l0,0c0-7.3,6-13.3,13.3-13.3l0,0
		c7.3,0,13.3,5.9,13.3,13.3l0,0C406.8,195.7,400.8,201.6,393.5,201.6z"/>
</a>
<a xlink:href="https://projects.jhkforecastsetc.com/democratic_primary/kansas" >
	<path fill="#00FF90" d="M364,263.3L364,263.3c-6.5,0-11.8-5.3-11.8-11.8l0,0c0-6.5,5.3-11.8,11.8-11.8l0,0
		c6.5,0,11.8,5.3,11.8,11.8l0,0C375.9,258,370.6,263.3,364,263.3z"/>
</a>
<a xlink:href="https://projects.jhkforecastsetc.com/democratic_primary/kentucky" >
	<path fill="#00FF90" d="M489.7,261.3L489.7,261.3c-7.8,0-14.1-6.3-14.1-14.1l0,0c0-7.8,6.3-14.1,14.1-14.1l0,0
		c7.8,0,14.1,6.3,14.1,14.1l0,0C503.8,255,497.5,261.3,489.7,261.3z"/>
</a>
<a xlink:href="https://projects.jhkforecastsetc.com/democratic_primary/louisiana" >
	<path fill="#00FF90" d="M419,371.2L419,371.2c-8.1,0-14.8-6.6-14.8-14.8l0,0c0-8.1,6.6-14.8,14.8-14.8l0,0
		c8.1,0,14.8,6.6,14.8,14.8l0,0C433.8,364.6,427.2,371.2,419,371.2z"/>
</a>
<a xlink:href="https://projects.jhkforecastsetc.com/democratic_primary/" >
	<path fill="#00FF90" d="M707.9,27.5L707.9,27.5c-5.6,0-10.2-4.6-10.2-10.2l0,0c0-5.6,4.6-10.2,10.2-10.2l0,0
		c5.6,0,10.2,4.6,10.2,10.2l0,0C718.1,22.9,713.5,27.5,707.9,27.5z"/>
</a>
<path fill="#00FF90" d="M589.5,205L589.5,205c-10.2,0-18.5-8.3-18.5-18.5l0,0c0-10.2,8.3-18.5,18.5-18.5l0,0
	c10.2,0,18.5,8.3,18.5,18.5l0,0C608,196.7,599.7,205,589.5,205z"/>
<a xlink:href="https://projects.jhkforecastsetc.com/democratic_primary/massachusetts" >
	<path fill="#B722FF" d="M673.3,105.9L673.3,105.9c-10.9,0-19.7-8.8-19.7-19.7l0,0c0-10.9,8.8-19.7,19.7-19.7l0,0
		c10.9,0,19.7,8.8,19.7,19.7l0,0C693,97.1,684.2,105.9,673.3,105.9z"/>
</a>
<a xlink:href="https://projects.jhkforecastsetc.com/democratic_primary/michigan" >
	<path fill="#00FF90" d="M503.3,162L503.3,162c-12.9,0-23.3-10.4-23.3-23.3l0,0c0-12.8,10.4-23.3,23.3-23.3l0,0
		c12.9,0,23.3,10.4,23.3,23.3l0,0C526.5,151.6,516.1,162,503.3,162z"/>
</a>
<a xlink:href="https://projects.jhkforecastsetc.com/democratic_primary/minnesota" >
	<path fill="#00FF90" d="M388.9,143.7L388.9,143.7c-10,0-18.1-8.1-18.1-18.1l0,0c0-10,8.1-18.1,18.1-18.1l0,0
		c10,0,18.1,8.1,18.1,18.1l0,0C407,135.6,398.9,143.7,388.9,143.7z"/>
</a>
<a xlink:href="https://projects.jhkforecastsetc.com/democratic_primary/mississippi" >
	<path fill="#00FF90" d="M456.4,337.9L456.4,337.9c-6.9,0-12.5-5.6-12.5-12.5l0,0c0-6.9,5.6-12.5,12.5-12.5l0,0
		c6.9,0,12.5,5.6,12.5,12.5l0,0C468.8,332.3,463.3,337.9,456.4,337.9z"/>
</a>
<a xlink:href="https://projects.jhkforecastsetc.com/democratic_primary/missouri" >
	<path fill="#00FF90" d="M412.4,269.8L412.4,269.8c-9.4,0-17-7.6-17-17l0,0c0-9.4,7.6-17,17-17l0,0c9.4,0,17,7.6,17,17l0,0
		C429.4,262.1,421.8,269.8,412.4,269.8z"/>
</a>
<a xlink:href="https://projects.jhkforecastsetc.com/democratic_primary/montana" >
	<path fill="#00FF90" d="M293.8,119.8L293.8,119.8c-4.6,0-8.3-3.7-8.3-8.3l0,0c0-4.6,3.7-8.3,8.3-8.3l0,0c4.6,0,8.3,3.7,8.3,8.3l0,0
		C302.1,116.1,298.4,119.8,293.8,119.8z"/>
</a>
<a xlink:href="https://projects.jhkforecastsetc.com/democratic_primary/nebraska" >
	<path fill="#00FF90" d="M343,208.8L343,208.8c-5.7,0-10.4-4.6-10.4-10.4l0,0c0-5.7,4.6-10.4,10.4-10.4l0,0
		c5.7,0,10.4,4.6,10.4,10.4l0,0C353.4,204.1,348.8,208.8,343,208.8z"/>
</a>
<a xlink:href="https://projects.jhkforecastsetc.com/democratic_primary/nevada.html" >
	<path fill="#00FF90" d="M223.6,231.8L223.6,231.8c-6.9,0-12.5-5.6-12.5-12.5l0,0c0-6.9,5.6-12.5,12.5-12.5l0,0
		c6.9,0,12.5,5.6,12.5,12.5l0,0C236,226.2,230.4,231.8,223.6,231.8z"/>
</a>
<a xlink:href="https://projects.jhkforecastsetc.com/democratic_primary/new_hampshire.html" >
	<path fill="#002E66" d="M691.9,55.1L691.9,55.1c-5.6,0-10.2-4.6-10.2-10.2l0,0c0-5.6,4.6-10.2,10.2-10.2l0,0
		c5.6,0,10.2,4.6,10.2,10.2l0,0C702.1,50.6,697.5,55.1,691.9,55.1z"/>
</a>
<a xlink:href="https://projects.jhkforecastsetc.com/democratic_primary/new_jersey" >
	<path fill="#00FF90" d="M651.4,164.1L651.4,164.1c-11.8,0-21.4-9.6-21.4-21.4l0,0c0-11.8,9.6-21.4,21.4-21.4l0,0
		c11.8,0,21.4,9.6,21.4,21.4l0,0C672.8,154.5,663.2,164.1,651.4,164.1z"/>
</a>
<a xlink:href="https://projects.jhkforecastsetc.com/democratic_primary/new_mexico" >
	<path fill="#00FF90" d="M298.6,315.7L298.6,315.7c-6.2,0-11.2-5-11.2-11.2l0,0c0-6.2,5-11.2,11.2-11.2l0,0c6.2,0,11.2,5,11.2,11.2
		l0,0C309.8,310.7,304.8,315.7,298.6,315.7z"/>
</a>
<a xlink:href="https://projects.jhkforecastsetc.com/democratic_primary/new_york" >
	<path fill="#00FF90" d="M619.5,107.6L619.5,107.6c-17.2,0-31.2-13.9-31.2-31.2l0,0c0-17.2,14-31.2,31.2-31.2l0,0
		c17.2,0,31.2,14,31.2,31.2l0,0C650.6,93.7,636.7,107.6,619.5,107.6z"/>
</a>
<a xlink:href="https://projects.jhkforecastsetc.com/democratic_primary/north_carolina" >
	<path fill="#00FF90" d="M583.2,302L583.2,302c-12,0-21.8-9.8-21.8-21.8l0,0c0-12,9.8-21.8,21.8-21.8l0,0c12,0,21.8,9.8,21.8,21.8
		l0,0C605,292.2,595.3,302,583.2,302z"/>
</a>
<a xlink:href="https://projects.jhkforecastsetc.com/democratic_primary/north_dakota" >
	<path fill="#00FF90" d="M344.35,125.29L344.35,125.29c-4.55,0-8.35-3.69-8.35-8.35l0,0c0-4.55,3.69-8.35,8.35-8.35l0,0
		c4.55,0,8.35,3.69,8.35,8.35l0,0C352.59,121.61,348.91,125.29,344.35,125.29z"/>
</a>
<a xlink:href="https://projects.jhkforecastsetc.com/democratic_primary/ohio" >
	<path fill="#00FF90" d="M542.6,217.1L542.6,217.1c-13.4,0-24.3-10.9-24.3-24.3l0,0c0-13.4,10.9-24.3,24.3-24.3l0,0
		c13.4,0,24.3,10.9,24.3,24.3l0,0C566.9,206.2,556,217.1,542.6,217.1z"/>
</a>
<a xlink:href="https://projects.jhkforecastsetc.com/democratic_primary/oklahoma" >
	<path fill="#00FF90" d="M354.3,308.4L354.3,308.4c-7,0-12.7-5.7-12.7-12.7l0,0c0-7,5.7-12.7,12.7-12.7l0,0c7,0,12.7,5.7,12.7,12.7
		l0,0C367,302.8,361.3,308.4,354.3,308.4z"/>
</a>
<a xlink:href="https://projects.jhkforecastsetc.com/democratic_primary/oregon.html" >
	<path fill="#00FF90" d="M181.1,175.9L181.1,175.9c-8.3,0-15-6.7-15-15l0,0c0-8.3,6.7-15,15-15l0,0c8.3,0,15,6.7,15,15l0,0
		C196,169.1,189.3,175.9,181.1,175.9z"/>
</a>
<a xlink:href="https://projects.jhkforecastsetc.com/democratic_primary/pennsylvania" >
	<path fill="#00FF90" d="M582.3,159.9L582.3,159.9c-14.2,0-25.8-11.5-25.8-25.8l0,0c0-14.2,11.5-25.8,25.8-25.8l0,0
		c14.2,0,25.8,11.5,25.8,25.8l0,0C608.1,148.4,596.6,159.9,582.3,159.9z"/>
</a>
<a xlink:href="https://projects.jhkforecastsetc.com/democratic_primary/florida" >
	<path fill="#00FF90" d="M656.2,498.4L656.2,498.4c-8.2,0-14.8-6.6-14.8-14.8l0,0c0-8.1,6.6-14.8,14.8-14.8l0,0
		c8.2,0,14.8,6.6,14.8,14.8l0,0C671,491.8,664.4,498.4,656.2,498.4z"/>
</a>
<a xlink:href="https://projects.jhkforecastsetc.com/democratic_primary/rhode_island" >
	<path fill="#00FF90" d="M731,99.6L731,99.6c-5.3,0-9.6-4.3-9.6-9.6l0,0c0-5.3,4.3-9.6,9.6-9.6l0,0c5.3,0,9.6,4.3,9.6,9.6l0,0
		C740.6,95.3,736.3,99.6,731,99.6z"/>
</a>
<a xlink:href="https://projects.jhkforecastsetc.com/democratic_primary/south_carolina.html" >
	<path fill="#00FF90" d="M582.2,340.8L582.2,340.8c-8.4,0-15.2-6.8-15.2-15.2l0,0c0-8.4,6.8-15.2,15.2-15.2l0,0
		c8.4,0,15.2,6.8,15.2,15.2l0,0C597.3,334,590.6,340.8,582.2,340.8z"/>
</a>
<a xlink:href="https://projects.jhkforecastsetc.com/democratic_primary/south_dakota" >
	<path fill="#00FF90" d="M352.4,170.5L352.4,170.5c-4.2,0-7.7-3.4-7.7-7.7l0,0c0-4.2,3.4-7.7,7.7-7.7l0,0c4.2,0,7.7,3.4,7.7,7.7l0,0
		C360.1,167,356.7,170.5,352.4,170.5z"/>
</a>
<a xlink:href="https://projects.jhkforecastsetc.com/democratic_primary/tennessee" >
	<path fill="#00FF90" d="M467.6,299.3L467.6,299.3c-9.2,0-16.6-7.4-16.6-16.6l0,0c0-9.2,7.4-16.6,16.6-16.6l0,0
		c9.2,0,16.6,7.4,16.6,16.6l0,0C484.2,291.9,476.7,299.3,467.6,299.3z"/>
</a>
<a xlink:href="https://projects.jhkforecastsetc.com/democratic_primary/texas" >
	<path fill="#00FF90" d="M355.9,404.8L355.9,404.8c-17.3,0-31.4-14-31.4-31.4l0,0c0-17.3,14-31.4,31.4-31.4l0,0
		c17.3,0,31.4,14,31.4,31.4l0,0C387.2,390.8,373.2,404.8,355.9,404.8z"/>
</a>
<a xlink:href="https://projects.jhkforecastsetc.com/democratic_primary/utah" >
	<path fill="#00FF90" d="M269.7,234.9L269.7,234.9c-6.2,0-11.2-5-11.2-11.2l0,0c0-6.2,5-11.2,11.2-11.2l0,0c6.2,0,11.2,5,11.2,11.2
		l0,0C280.9,229.9,275.9,234.9,269.7,234.9z"/>
</a>
<a xlink:href="https://projects.jhkforecastsetc.com/democratic_primary/virginia" >
	<path fill="#00FF90" d="M591.6,251.2L591.6,251.2c-11.4,0-20.6-9.2-20.6-20.6l0,0c0-11.4,9.2-20.6,20.6-20.6l0,0
		c11.4,0,20.6,9.2,20.6,20.6l0,0C612.2,242,602.9,251.2,591.6,251.2z"/>
</a>
<a xlink:href="https://projects.jhkforecastsetc.com/democratic_primary/west_virginia" >
	<path fill="#00FF90" d="M535.1,254L535.1,254c-5.6,0-10.2-4.6-10.2-10.2l0,0c0-5.6,4.6-10.2,10.2-10.2l0,0
		c5.6,0,10.2,4.6,10.2,10.2l0,0C545.2,249.4,540.7,254,535.1,254z"/>
</a>
<a xlink:href="https://projects.jhkforecastsetc.com/democratic_primary/wisconsin" >
	<path fill="#00FF90" d="M442.4,165.8L442.4,165.8c-10.1,0-18.3-8.2-18.3-18.3l0,0c0-10.1,8.2-18.3,18.3-18.3l0,0
		c10.1,0,18.3,8.2,18.3,18.3l0,0C460.7,157.6,452.5,165.8,442.4,165.8z"/>
</a>
<a xlink:href="https://projects.jhkforecastsetc.com/democratic_primary/colorado" >
	<path fill="#002E66" d="M313,264L313,264c-9.4,0-17-7.6-17-17l0,0c0-9.4,7.6-17,17-17l0,0c9.4,0,17,7.6,17,17l0,0
		C330,256.4,322.4,264,313,264z"/>
</a>
<a xlink:href="https://projects.jhkforecastsetc.com/democratic_primary/wyoming" >
	<path fill="#B722FF" d="M300.06,181.9L300.06,181.9c-4.5,0-8.24-3.73-8.24-8.24l0,0c0-4.5,3.73-8.24,8.24-8.24l0,0
		c4.5,0,8.24,3.73,8.24,8.24l0,0C308.3,178.17,304.57,181.9,300.06,181.9z"/>
</a>
<rect x="759.6" y="178.2" fill="#00FF90" width="0.9" height="0.9"/>
<g>
	<path d="M495.4,335.2c0.5,0,1,0.1,1,0.1c0-0.7-0.2-0.9-0.7-0.9s-1.2,0.1-1.5,0.2c-0.2,0-0.3-0.1-0.3-0.2l-0.1-0.7
		c0-0.2,0.1-0.3,0.2-0.3s1-0.3,1.8-0.3c1.7,0,2.1,0.9,2.1,2.3v2.9c0,0.1-0.1,0.3-0.2,0.3h-0.5c-0.1,0-0.2,0-0.2-0.2l-0.2-0.4
		c-0.3,0.3-0.8,0.7-1.6,0.7c-1.1,0-1.8-0.7-1.8-1.8C493.2,336,494,335.2,495.4,335.2z M495.4,337.6c0.4,0,0.8-0.4,0.9-0.5v-0.7
		c0,0-0.4-0.2-0.8-0.2c-0.5,0-0.9,0.3-0.9,0.7C494.7,337.3,495,337.6,495.4,337.6z"/>
	<path d="M499.3,329.4c0-0.1,0.1-0.3,0.2-0.3h1.1c0.1,0,0.3,0.1,0.3,0.2v8.9c0,0.1-0.1,0.3-0.2,0.3h-1.1c-0.1,0-0.3-0.1-0.3-0.2
		V329.4z"/>
</g>
<g>
	<path d="M106.2,73.4c0.5,0,1,0.2,1,0.2c0-0.7-0.2-0.9-0.7-0.9s-1.2,0.1-1.5,0.2c-0.2,0.1-0.3-0.1-0.3-0.2l-0.1-0.7
		c0-0.2,0.1-0.3,0.2-0.3s1-0.3,1.8-0.3c1.7,0,2.1,0.9,2.1,2.3v2.9c0,0.1-0.1,0.3-0.2,0.3H108c-0.1,0-0.2,0-0.2-0.2l-0.2-0.4
		c-0.3,0.3-0.8,0.7-1.6,0.7c-1.1,0-1.8-0.7-1.8-1.8C104,74.2,104.8,73.4,106.2,73.4z M106.2,75.8c0.4,0,0.8-0.4,0.9-0.5v-0.7
		c0,0-0.4-0.2-0.8-0.2c-0.5,0-0.9,0.3-0.9,0.7C105.5,75.5,105.8,75.8,106.2,75.8z"/>
	<path d="M110.1,67.6c0-0.1,0.1-0.3,0.2-0.3h1.2c0.1,0,0.2,0.1,0.3,0.2v5.8l1.8-1.9c0.1-0.1,0.2-0.2,0.3-0.2h1.2
		c0.2,0,0.3,0.2,0.2,0.4l-2,2.1l2.4,2.6c0.1,0.2,0.1,0.4-0.2,0.4H114c-0.1,0-0.2-0.1-0.2-0.1l-2.1-2.4v2.3c0,0.1-0.1,0.3-0.2,0.3
		h-1.2c-0.1,0-0.3-0.1-0.3-0.2L110.1,67.6z"/>
</g>
<g>
	<path d="M231.6,288c0.5,0,1,0.1,1,0.1c0-0.7-0.2-0.9-0.7-0.9s-1.2,0.1-1.5,0.2c-0.2,0.1-0.3-0.1-0.3-0.2l-0.1-0.7
		c0-0.2,0.1-0.3,0.2-0.3c0.1,0,1-0.3,1.8-0.3c1.7,0,2.1,0.9,2.1,2.3v2.9c0,0.1-0.1,0.3-0.2,0.3h-0.5c-0.1,0-0.2,0-0.2-0.2l-0.2-0.4
		c-0.3,0.3-0.8,0.7-1.6,0.7c-1.1,0-1.8-0.7-1.8-1.8C229.4,288.8,230.2,288.1,231.6,288z M231.6,290.5c0.4,0,0.8-0.4,0.9-0.5v-0.7
		c0,0-0.4-0.2-0.8-0.2c-0.5,0-0.9,0.3-0.9,0.7C230.9,290.2,231.2,290.5,231.6,290.5z"/>
	<path d="M235.1,291l1.9-3.5l0,0h-1.5c-0.1,0-0.2-0.1-0.2-0.2v-0.9c0-0.1,0.1-0.3,0.2-0.3h3.6c0.2,0,0.3,0.2,0.2,0.4l-1.9,3.6l0,0
		h1.5c0.1,0,0.3,0.1,0.3,0.2v0.9c0,0.1-0.1,0.3-0.2,0.3h-3.4c-0.1,0-0.3-0.1-0.3-0.2L235.1,291L235.1,291z"/>
</g>
<g>
	<path d="M410,306.6c0.5,0,1,0.1,1,0.1c0-0.7-0.2-0.9-0.7-0.9s-1.2,0.1-1.5,0.2c-0.2,0.1-0.3-0.1-0.3-0.2l-0.1-0.7
		c0-0.2,0.1-0.3,0.2-0.3s1-0.3,1.8-0.3c1.7,0,2.1,0.9,2.1,2.3v2.9c0,0.1-0.1,0.3-0.2,0.3h-0.5c-0.1,0-0.2,0-0.2-0.2l-0.2-0.4
		c-0.3,0.3-0.8,0.7-1.6,0.7c-1.1,0-1.8-0.7-1.8-1.8C407.8,307.4,408.6,306.6,410,306.6z M410,309c0.4,0,0.8-0.4,0.9-0.5v-0.7
		c0,0-0.4-0.2-0.8-0.2c-0.5,0-0.9,0.3-0.9,0.7C409.3,308.7,409.6,309,410,309z"/>
	<path d="M414,304.9c0-0.1,0.1-0.3,0.2-0.3h0.5c0.1,0,0.2,0.1,0.2,0.2l0.2,0.5c0.2-0.3,0.7-0.8,1.5-0.8c0.6,0,1.2,0.2,1,0.5
		l-0.5,0.9c-0.1,0.1-0.2,0.2-0.3,0.1c0,0-0.2-0.1-0.4-0.1c-0.5,0-0.9,0.4-1,0.5v3.3c0,0.2-0.1,0.3-0.3,0.3h-1
		c-0.1,0-0.3-0.1-0.3-0.2L414,304.9z"/>
</g>
<g>
	<path d="M157.8,240.4c0.8,0,1.5,0.3,2,0.9c0.1,0.1,0.1,0.3-0.1,0.4l-0.6,0.6c-0.1,0.1-0.2,0-0.3,0c-0.2-0.2-0.6-0.4-0.9-0.4
		c-0.7,0-1.3,0.6-1.3,1.4c0,0.8,0.6,1.4,1.3,1.4c0.6,0,0.8-0.3,1.1-0.5c0.1-0.1,0.2-0.1,0.3,0l0.6,0.5c0.1,0.1,0.2,0.2,0.1,0.4
		c-0.5,0.7-1.2,1.1-2.1,1.1c-1.5,0-2.9-1.2-2.9-2.8C154.9,241.7,156.2,240.4,157.8,240.4z"/>
	<path d="M162.8,242.5c0.5,0,1,0.1,1,0.1c0-0.7-0.2-0.9-0.7-0.9s-1.2,0.1-1.5,0.2c-0.2,0.1-0.3-0.1-0.3-0.2l-0.1-0.7
		c0-0.2,0.1-0.3,0.2-0.3c0.1,0,1-0.3,1.8-0.3c1.7,0,2.1,0.9,2.1,2.3v2.9c0,0.1-0.1,0.3-0.2,0.3h-0.5c-0.1,0-0.2,0-0.2-0.2l-0.2-0.4
		c-0.3,0.3-0.8,0.7-1.6,0.7c-1.1,0-1.8-0.7-1.8-1.8C160.7,243.3,161.4,242.5,162.8,242.5z M162.9,244.9c0.4,0,0.8-0.4,0.9-0.5v-0.7
		c0,0-0.4-0.2-0.8-0.2c-0.5,0-0.9,0.3-0.9,0.7C162.2,244.6,162.4,244.9,162.9,244.9z"/>
</g>
<g>
	<path fill="#FFFFFF" d="M310.2,244.1c0.8,0,1.5,0.3,2,0.9c0.1,0.1,0.1,0.3-0.1,0.4l-0.6,0.6c-0.1,0.1-0.2,0-0.3,0
		c-0.2-0.2-0.5-0.4-0.9-0.4c-0.7,0-1.3,0.6-1.3,1.4c0,0.8,0.6,1.4,1.3,1.4c0.6,0,0.8-0.3,1.1-0.5c0.1-0.1,0.2-0.1,0.3,0l0.6,0.5
		c0.1,0.1,0.2,0.2,0.1,0.4c-0.5,0.7-1.2,1.1-2.1,1.1c-1.5,0-2.9-1.2-2.9-2.8C307.4,245.4,308.7,244.1,310.2,244.1z"/>
	<path fill="#FFFFFF" d="M315.9,244.1c1.5,0,2.8,1.3,2.8,2.8c0,1.6-1.2,2.9-2.8,2.9c-1.5,0-2.8-1.3-2.8-2.8
		C313.1,245.4,314.4,244.1,315.9,244.1z M315.9,248.3c0.7,0,1.3-0.6,1.3-1.4c0-0.8-0.6-1.4-1.3-1.4c-0.7,0-1.3,0.6-1.3,1.4
		S315.2,248.3,315.9,248.3z"/>
</g>
<g>
	<path d="M564.3,382.6h-0.5c-0.2,0-0.2-0.1-0.3-0.2v-0.9c0-0.1,0.1-0.3,0.2-0.3h0.5v-1.5c0-1.8,1.2-2.7,2.6-2.7
		c1.2,0,1.9,0.8,1.9,0.8l0.2-0.4c0.1-0.1,0.2-0.2,0.3-0.2h0.4c0.1,0,0.2,0.1,0.3,0.2v8.9c0,0.1-0.1,0.3-0.2,0.3h-1.1
		c-0.1,0-0.3-0.1-0.3-0.2v-7.1c-0.1-0.1-0.6-0.7-1.3-0.6c-0.6,0-1.1,0.4-1.1,1.2v1.5h1.1c0.1,0,0.3,0.1,0.3,0.2v0.9
		c0,0.1-0.1,0.3-0.2,0.3H566v3.7c0,0.1-0.1,0.3-0.2,0.3h-1.2c-0.1,0-0.2-0.1-0.2-0.2L564.3,382.6z"/>
</g>
<g>
	<path d="M528.3,289c0,0-0.4-0.5-0.4-1.3c0-1.2,1-2.4,2.3-2.4h2.5c0.2,0,0.3,0.1,0.3,0.2v0.5c0,0.1,0,0.2-0.1,0.2l-0.8,0.2
		c0,0,0.5,0.4,0.5,1.4c0,1.1-0.9,2.1-2.3,2.1c-0.5,0-0.9-0.1-1.1-0.1c-0.2,0-0.5,0.2-0.5,0.5s0.2,0.5,0.5,0.5h1.7
		c1.2,0,2.2,0.7,2.2,1.9c0,1.2-1,2.3-2.9,2.3c-2,0-2.8-1-2.8-1.8s0.7-1.2,0.8-1.3l0,0c-0.2-0.1-1-0.4-1-1.4
		C527.3,289.5,528.3,289,528.3,289z M530.2,293.8c0.8,0,1.2-0.3,1.2-0.9c0-0.2-0.2-0.7-1-0.6c-0.3,0-0.6,0-0.9,0.1
		c-0.2,0-0.6,0.2-0.6,0.7C529.1,293.5,529.5,293.8,530.2,293.8z M530.3,288.8c0.5,0,0.9-0.4,0.9-1s-0.4-1-0.9-1s-0.9,0.4-0.9,1
		S529.7,288.8,530.3,288.8z"/>
	<path d="M535.8,287.5c0.5,0,1,0.1,1,0.1c0-0.7-0.2-0.9-0.7-0.9s-1.2,0.1-1.5,0.2c-0.2,0.1-0.3-0.1-0.3-0.2l-0.1-0.7
		c0-0.2,0.1-0.3,0.2-0.3c0.1,0,1-0.3,1.8-0.3c1.7,0,2.1,0.9,2.1,2.3v2.9c0,0.1-0.1,0.3-0.2,0.3h-0.5c-0.1,0-0.2,0-0.2-0.2l-0.2-0.4
		c-0.3,0.3-0.8,0.7-1.6,0.7c-1.1,0-1.8-0.7-1.8-1.8C533.7,288.3,534.5,287.5,535.8,287.5z M535.9,289.9c0.4,0,0.8-0.4,0.9-0.5v-0.7
		c0,0-0.4-0.2-0.8-0.2c-0.5,0-0.9,0.3-0.9,0.7C535.2,289.6,535.5,289.9,535.9,289.9z"/>
</g>
<g>
	<path d="M240.4,154.3c0-0.5,0.4-0.9,0.9-0.9s0.9,0.4,0.9,0.9s-0.4,0.9-0.9,0.9C240.9,155.2,240.4,154.8,240.4,154.3z M240.6,157.4
		c0-0.1,0.1-0.3,0.2-0.3h1.1c0.1,0,0.3,0.1,0.3,0.2v4.9c0,0.1-0.1,0.3-0.2,0.3h-1.1c-0.1,0-0.3-0.1-0.3-0.2V157.4z"/>
	<path d="M246.1,157c0.5,0,1,0.1,1.2,0.2v-3.9c0-0.1,0.1-0.3,0.2-0.3h1.1c0.1,0,0.3,0.1,0.3,0.2l0.1,8.9c0,0.1-0.1,0.3-0.2,0.3h-0.5
		c-0.1,0-0.2-0.1-0.3-0.2l-0.1-0.4c0,0-0.6,0.8-1.8,0.8c-1.5,0-2.6-1.3-2.6-2.8C243.4,158.3,244.5,157,246.1,157z M246.2,161.2
		c0.7,0,1-0.6,1.1-0.9v-1.6c0,0-0.4-0.3-1.1-0.3c-0.8,0-1.3,0.6-1.3,1.4C245,160.6,245.5,161.2,246.2,161.2z"/>
</g>
<g>
	<path d="M441.4,202.8c0-0.5,0.4-0.9,0.9-0.9s0.9,0.4,1,0.9c0,0.5-0.4,0.9-0.9,0.9C441.8,203.8,441.4,203.4,441.4,202.8z
		 M441.5,205.9c0-0.1,0.1-0.3,0.2-0.3h1.1c0.1,0,0.2,0.1,0.3,0.2v4.9c0,0.1-0.1,0.3-0.2,0.3h-1.1c-0.1,0-0.2-0.1-0.3-0.2V205.9z"/>
	<path d="M444.7,201.9c0-0.1,0.1-0.3,0.2-0.3h1.1c0.1,0,0.3,0.1,0.3,0.2v8.9c0,0.1-0.1,0.3-0.2,0.3H445c-0.1,0-0.2-0.1-0.3-0.2
		V201.9z"/>
</g>
<g>
	<path d="M492.9,205.4c0-0.5,0.4-0.9,0.9-0.9s0.9,0.4,1,0.9c0,0.5-0.4,0.9-0.9,0.9C493.3,206.3,492.9,205.9,492.9,205.4z M493,208.5
		c0-0.1,0.1-0.3,0.2-0.3h1.1c0.1,0,0.2,0.1,0.3,0.2v4.9c0,0.1-0.1,0.3-0.2,0.3h-1.1c-0.1,0-0.3-0.1-0.3-0.2V208.5z"/>
	<path d="M496.3,208.5c0-0.1,0.1-0.3,0.2-0.3h0.5c0.1,0,0.2,0.1,0.2,0.2l0.2,0.5c0.2-0.2,0.9-0.8,1.9-0.8c1.7,0,2.4,1.3,2.4,2.7v2.6
		c0,0.1-0.1,0.3-0.2,0.3h-1.1c-0.1,0-0.3-0.1-0.3-0.2v-2.7c0-0.7-0.4-1.1-1-1.1c-0.7,0-1.1,0.5-1.3,0.9v3c0,0.2-0.1,0.2-0.3,0.3h-1
		c-0.1,0-0.3-0.1-0.3-0.2L496.3,208.5z"/>
</g>
<g>
	<path d="M389.7,183.3c0-0.5,0.4-0.9,0.9-0.9s0.9,0.4,1,0.9c0,0.5-0.4,0.9-0.9,0.9C390.1,184.2,389.7,183.8,389.7,183.3z
		 M389.8,186.4c0-0.1,0.1-0.3,0.2-0.3h1.1c0.1,0,0.3,0.1,0.3,0.2v4.9c0,0.1-0.1,0.3-0.2,0.3h-1.1c-0.1,0-0.2-0.1-0.3-0.2V186.4z"/>
	<path d="M394.8,188.1c0.5,0,1,0.1,1,0.1c0-0.7-0.2-0.9-0.7-0.9s-1.2,0.1-1.5,0.2c-0.2,0.1-0.3-0.1-0.3-0.2l-0.1-0.7
		c0-0.2,0.1-0.3,0.2-0.3s1-0.3,1.8-0.3c1.7,0,2.1,0.9,2.1,2.3v2.9c0,0.1-0.1,0.3-0.2,0.3h-0.5c-0.1,0-0.2,0-0.2-0.2l-0.2-0.4
		c-0.3,0.3-0.8,0.7-1.6,0.7c-1.1,0-1.8-0.7-1.8-1.8C392.7,188.8,393.4,188.1,394.8,188.1z M394.9,190.4c0.4,0,0.8-0.4,0.9-0.5v-0.7
		c0,0-0.4-0.2-0.8-0.2c-0.5,0-0.9,0.3-0.9,0.7C394.1,190.2,394.4,190.4,394.9,190.4z"/>
</g>
<g>
	<path d="M358.9,247c0-0.1,0.1-0.2,0.2-0.3h1.1c0.1,0,0.3,0.1,0.3,0.2v5.8l1.9-1.9c0.1-0.1,0.2-0.2,0.3-0.2h1.2
		c0.2,0,0.3,0.2,0.2,0.4l-2,2.1l2.4,2.6c0.1,0.1,0.1,0.4-0.2,0.4h-1.5c-0.1,0-0.2,0-0.2-0.1l-2.1-2.4v2.3c0,0.1-0.1,0.3-0.2,0.3
		h-1.1c-0.1,0-0.2-0.1-0.3-0.2L358.9,247z"/>
	<path d="M365.2,255.5l0.4-0.7c0-0.1,0.2-0.2,0.3-0.1c0,0,0.6,0.3,1.2,0.3c0.3,0,0.5-0.1,0.5-0.3s-0.2-0.4-0.9-0.7
		c-1-0.4-1.5-0.9-1.5-1.8c0-0.8,0.6-1.6,2-1.6c0.8,0,1.4,0.2,1.7,0.4c0.1,0.1,0.2,0.2,0.1,0.4l-0.3,0.7c-0.1,0.1-0.2,0.1-0.3,0.1
		c0,0-0.6-0.3-1.1-0.3c-0.3,0-0.5,0.1-0.5,0.3s0.2,0.3,0.7,0.5c1,0.4,1.8,0.8,1.8,1.9c0,0.9-0.8,1.6-2.1,1.6c-0.9,0-1.5-0.3-1.8-0.5
		C365.2,255.7,365.1,255.6,365.2,255.5z"/>
</g>
<g>
	<path d="M483.7,240.8c0-0.1,0.1-0.3,0.2-0.3h1.1c0.1,0,0.3,0.1,0.3,0.2v5.8l1.9-1.9c0.1-0.1,0.2-0.2,0.3-0.2h1.2
		c0.2,0,0.3,0.2,0.2,0.4l-2,2.1l2.4,2.6c0.1,0.1,0.1,0.4-0.2,0.4h-1.5c-0.1,0-0.2-0.1-0.2-0.1l-2.1-2.4v2.3c0,0.1-0.1,0.3-0.2,0.3
		H484c-0.1,0-0.2-0.1-0.3-0.2L483.7,240.8z"/>
	<path d="M489.6,244.9c-0.1-0.2,0-0.4,0.2-0.4h1.2c0.1,0,0.2,0.1,0.2,0.1l1.4,3l0,0l1.3-3.1c0.1-0.1,0.2-0.1,0.3-0.1h1.1
		c0.2,0,0.3,0.2,0.2,0.4l-4.1,8.9c0,0.1-0.1,0.2-0.2,0.2H490c-0.2,0-0.3-0.2-0.2-0.4l1.9-4.1L489.6,244.9z"/>
</g>
<g>
	<path d="M415.3,352c0-0.1,0.1-0.3,0.2-0.3h1.1c0.1,0,0.3,0.1,0.3,0.2v8.9c0,0.1-0.1,0.3-0.2,0.3h-1.1c-0.1,0-0.3-0.1-0.3-0.2V352z"
		/>
	<path d="M420.4,357.7c0.5,0,1,0.1,1,0.1c0-0.7-0.2-0.9-0.7-0.9s-1.2,0.1-1.5,0.2c-0.2,0.1-0.3-0.1-0.3-0.2l-0.1-0.7
		c0-0.2,0.1-0.3,0.2-0.3s1-0.3,1.8-0.3c1.7,0,2.1,0.9,2.1,2.3v2.9c0,0.1-0.1,0.3-0.2,0.3h-0.5c-0.1,0-0.2,0-0.2-0.2l-0.2-0.4
		c-0.3,0.3-0.8,0.7-1.6,0.7c-1.1,0-1.8-0.7-1.8-1.8C418.2,358.5,419,357.7,420.4,357.7z M420.4,360.1c0.4,0,0.8-0.4,0.9-0.5v-0.7
		c0,0-0.4-0.2-0.8-0.2c-0.5,0-0.9,0.3-0.9,0.7C419.7,359.8,420,360.1,420.4,360.1z"/>
</g>
<g>
	<path d="M700.2,14.9c0-0.1,0.1-0.3,0.2-0.3h0.5c0.1,0,0.2,0.1,0.2,0.1l0.2,0.5c0.2-0.3,0.8-0.8,1.8-0.8c0.8,0,1.3,0.3,1.8,0.8
		c0.2-0.2,0.9-0.8,1.9-0.8c1.7,0,2.4,1.3,2.4,2.7v2.6c0,0.1-0.1,0.3-0.2,0.3h-1.1c-0.1,0-0.2-0.1-0.3-0.2v-2.7c0-0.7-0.3-1.1-1-1.1
		c-0.8,0-1.1,0.6-1.1,0.6s0,0.3,0,0.5v2.7c0,0.1-0.1,0.3-0.2,0.3h-1c-0.2,0-0.2-0.1-0.3-0.2v-2.7c0-0.7-0.3-1.1-1-1.1
		s-1,0.5-1.1,0.9v3c0,0.1-0.1,0.3-0.2,0.3h-1.1c-0.1,0-0.2-0.1-0.3-0.2L700.2,14.9z"/>
	<path d="M713,14.5c1.4,0,2.5,1,2.5,2.5c0,0.1,0,0.3,0,0.4s-0.1,0.2-0.2,0.2h-3.5c0,0.5,0.5,1.2,1.3,1.2c0.4,0,0.8-0.2,1-0.3
		c0.1-0.1,0.2-0.1,0.3,0l0.5,0.6c0.1,0.1,0.1,0.2,0,0.4c-0.4,0.4-1.1,0.8-2,0.8c-1.6,0-2.8-1.3-2.8-2.8
		C710.3,15.8,711.4,14.5,713,14.5z M714,16.6c0-0.5-0.5-0.9-1-0.9s-1,0.4-1,0.9H714z"/>
</g>
<g>
	<path d="M497.2,138.2c0-0.1,0.1-0.3,0.2-0.3h0.5c0.1,0,0.2,0.1,0.2,0.1l0.2,0.5c0.2-0.3,0.8-0.8,1.8-0.8c0.8,0,1.3,0.3,1.8,0.8
		c0.2-0.2,0.9-0.8,1.9-0.8c1.7,0,2.4,1.3,2.4,2.7v2.6c0,0.1-0.1,0.3-0.2,0.3h-1.1c-0.1,0-0.2-0.1-0.3-0.2v-2.7c0-0.7-0.3-1.1-1-1.1
		c-0.8,0-1.1,0.6-1.1,0.6s0,0.3,0,0.5v2.7c0,0.1-0.1,0.3-0.2,0.3h-1c-0.1,0-0.2-0.1-0.3-0.2v-2.7c0-0.7-0.3-1.1-1-1.1
		s-1,0.5-1.1,0.9v3c0,0.1-0.1,0.3-0.2,0.3h-1.1c-0.1,0-0.2-0.1-0.3-0.2L497.2,138.2z"/>
	<path d="M507.5,135.1c0-0.5,0.4-0.9,0.9-0.9s0.9,0.4,1,0.9s-0.4,0.9-0.9,0.9C507.9,136,507.5,135.6,507.5,135.1z M507.6,138.1
		c0-0.1,0.1-0.3,0.2-0.3h1.1c0.1,0,0.2,0.1,0.3,0.2v4.9c0,0.1-0.1,0.3-0.2,0.3h-1.1c-0.1,0-0.2-0.1-0.3-0.2V138.1z"/>
</g>
<g>
	<path d="M380.9,123.3c0-0.2,0.1-0.3,0.2-0.3h0.5c0.1,0,0.2,0.1,0.2,0.2l0.2,0.5c0.2-0.3,0.8-0.8,1.8-0.8c0.8,0,1.3,0.3,1.8,0.8
		c0.2-0.2,0.9-0.8,1.9-0.8c1.7,0,2.4,1.3,2.4,2.7v2.6c0,0.1-0.1,0.3-0.2,0.3h-1.1c-0.1,0-0.2-0.1-0.3-0.2v-2.7c0-0.7-0.3-1.1-1-1.1
		c-0.8,0-1.1,0.6-1.1,0.6s0,0.3,0,0.5v2.7c0,0.1-0.1,0.3-0.2,0.3h-1c-0.1,0-0.2-0.1-0.3-0.2v-2.7c0-0.7-0.3-1.2-1-1.1
		c-0.7,0-1,0.5-1.1,0.9v3c0,0.1-0.1,0.3-0.2,0.3h-1.1c-0.1,0-0.2-0.1-0.3-0.2L380.9,123.3z"/>
	<path d="M391.4,123.3c0-0.2,0.1-0.3,0.2-0.3h0.5c0.1,0,0.2,0.1,0.2,0.2l0.2,0.5c0.2-0.2,0.9-0.8,1.9-0.8c1.7,0,2.4,1.3,2.4,2.7v2.6
		c0,0.1-0.1,0.3-0.2,0.3h-1.1c-0.1,0-0.2-0.1-0.3-0.2v-2.7c0-0.7-0.4-1.1-1-1.1c-0.7,0-1.1,0.5-1.3,0.9v3c0,0.2-0.1,0.3-0.3,0.3h-1
		c-0.1,0-0.2-0.1-0.3-0.2L391.4,123.3z"/>
</g>
<g>
	<path d="M449.2,323c0-0.1,0.1-0.3,0.2-0.3h0.5c0.1,0,0.2,0.1,0.2,0.1l0.2,0.5c0.2-0.3,0.8-0.8,1.8-0.8c0.8,0,1.3,0.3,1.8,0.8
		c0.2-0.2,0.9-0.8,1.9-0.8c1.7,0,2.4,1.3,2.4,2.7v2.6c0,0.1-0.1,0.3-0.2,0.3h-1.1c-0.1,0-0.2-0.1-0.3-0.2v-2.7c0-0.7-0.3-1.1-1-1.1
		c-0.8,0-1.1,0.6-1.1,0.6s0,0.3,0,0.5v2.7c0,0.1-0.1,0.3-0.2,0.3h-1c-0.1,0-0.2-0.1-0.3-0.2v-2.7c0-0.7-0.3-1.1-1-1.1
		s-1,0.5-1.1,0.9v3c0,0.1-0.1,0.3-0.2,0.3h-1.1c-0.1,0-0.2-0.1-0.3-0.2L449.2,323z"/>
	<path d="M459.5,327.5l0.4-0.7c0-0.1,0.2-0.2,0.3-0.1c0,0,0.6,0.3,1.2,0.3c0.3,0,0.5-0.1,0.5-0.3c0-0.2-0.2-0.4-0.9-0.7
		c-1-0.4-1.5-1-1.5-1.8s0.6-1.6,2-1.6c0.8,0,1.4,0.2,1.7,0.4c0.1,0.1,0.2,0.2,0.1,0.4l-0.3,0.7c-0.1,0.1-0.2,0.1-0.3,0.1
		c0,0-0.6-0.3-1.1-0.3c-0.3,0-0.5,0.1-0.5,0.3c0,0.2,0.2,0.3,0.7,0.5c1,0.4,1.8,0.8,1.8,1.9c0,0.9-0.8,1.6-2.1,1.6
		c-0.9,0-1.5-0.3-1.8-0.5C459.5,327.7,459.4,327.6,459.5,327.5z"/>
</g>
<g>
	<path d="M404.5,250.4c0-0.1,0.1-0.3,0.2-0.3h0.5c0.1,0,0.2,0.1,0.2,0.1l0.2,0.5c0.2-0.3,0.8-0.8,1.8-0.8c0.8,0,1.3,0.3,1.8,0.8
		c0.2-0.2,0.9-0.8,1.9-0.8c1.7,0,2.4,1.3,2.4,2.7v2.6c0,0.1-0.1,0.3-0.2,0.3h-1.1c-0.1,0-0.2-0.1-0.3-0.2v-2.7c0-0.7-0.3-1.1-1-1.1
		c-0.8,0-1.1,0.6-1.1,0.6s0,0.3,0,0.5v2.7c0,0.1-0.1,0.3-0.2,0.3h-1c-0.1,0-0.2-0.1-0.3-0.2v-2.7c0-0.7-0.3-1.1-1-1.1
		s-1,0.5-1.1,0.9v3c0,0.1-0.1,0.3-0.2,0.3h-1.1c-0.1,0-0.2-0.1-0.3-0.2L404.5,250.4z"/>
	<path d="M417.4,249.9c1.5,0,2.8,1.3,2.8,2.8c0,1.6-1.2,2.9-2.8,2.9c-1.5,0-2.8-1.3-2.8-2.8C414.6,251.2,415.9,249.9,417.4,249.9z
		 M417.4,254.1c0.7,0,1.3-0.6,1.3-1.4c0-0.8-0.6-1.4-1.3-1.4c-0.7,0-1.3,0.6-1.3,1.4S416.7,254.1,417.4,254.1z"/>
</g>
<g>
	<path d="M286.8,110c0-0.2,0.1-0.3,0.2-0.3h0.5c0.1,0,0.2,0.1,0.2,0.2l0.2,0.5c0.2-0.3,0.8-0.8,1.8-0.8c0.8,0,1.3,0.3,1.8,0.8
		c0.2-0.2,0.9-0.8,1.9-0.8c1.7,0,2.4,1.3,2.4,2.7v2.6c0,0.1-0.1,0.3-0.2,0.3h-1.1c-0.1,0-0.3-0.1-0.3-0.2v-2.7c0-0.7-0.3-1.1-1-1.1
		c-0.8,0-1.1,0.6-1.1,0.6s0,0.3,0,0.5v2.7c0,0.1-0.1,0.3-0.2,0.3h-1c-0.1,0-0.3-0.1-0.3-0.2v-2.7c0-0.7-0.3-1.1-1-1.1
		s-1,0.5-1.1,0.9v3c0,0.1-0.1,0.3-0.2,0.3h-1.1c-0.1,0-0.3-0.1-0.3-0.2L286.8,110z"/>
	<path d="M297.5,111.1H297c-0.1,0-0.2-0.1-0.2-0.2V110c0-0.2,0.1-0.3,0.2-0.3h0.5v-1.5c0-0.1,0.1-0.3,0.2-0.3h1.1
		c0.1,0,0.2,0.1,0.2,0.2v1.5h1.2c0.1,0,0.3,0.1,0.3,0.2v0.9c0,0.1-0.1,0.3-0.2,0.3h-1.2v2.2c0,0.4,0.2,0.4,0.4,0.4
		c0.2,0,0.5-0.1,0.7-0.2c0.1-0.1,0.2,0,0.3,0.2l0.3,0.8c0.1,0.1,0,0.3-0.1,0.3s-0.9,0.3-1.6,0.4c-1,0-1.5-0.6-1.5-1.7L297.5,111.1z"
		/>
</g>
<g>
	<path d="M337.1,196c0-0.1,0.1-0.3,0.2-0.3h0.5c0.1,0,0.2,0.1,0.2,0.2l0.2,0.5c0.2-0.2,0.9-0.8,1.9-0.8c1.7,0,2.4,1.3,2.4,2.7v2.6
		c0,0.1-0.1,0.3-0.2,0.3h-1.1c-0.1,0-0.3-0.1-0.3-0.2v-2.7c0-0.7-0.4-1.1-1-1.1c-0.7,0-1.1,0.5-1.3,0.9v3c0,0.2-0.1,0.2-0.3,0.3h-1
		c-0.1,0-0.3-0.1-0.3-0.2L337.1,196z"/>
	<path d="M346.5,195.6c1.4,0,2.5,1,2.5,2.5c0,0.1,0,0.3,0,0.4c0,0.1-0.1,0.2-0.2,0.2h-3.5c0,0.6,0.5,1.2,1.3,1.2
		c0.4,0,0.8-0.2,1-0.3c0.1-0.1,0.2-0.1,0.4,0l0.5,0.6c0.1,0.1,0.1,0.2,0,0.4c-0.4,0.4-1.1,0.8-2,0.8c-1.6,0-2.8-1.3-2.8-2.8
		C343.7,196.9,344.9,195.6,346.5,195.6z M347.4,197.7c0-0.5-0.5-0.9-1-0.9s-1,0.4-1,0.9H347.4z"/>
</g>
<g>
	<path d="M217.7,216.9c0-0.1,0.1-0.3,0.2-0.3h0.5c0.1,0,0.2,0.1,0.2,0.2l0.2,0.5c0.2-0.2,0.9-0.8,1.9-0.8c1.7,0,2.4,1.3,2.4,2.7v2.6
		c0,0.1-0.1,0.3-0.2,0.3h-1.1c-0.1,0-0.3-0.1-0.3-0.2v-2.7c0-0.7-0.4-1.1-1-1.1c-0.7,0-1.1,0.5-1.3,0.9v3c0,0.2-0.1,0.3-0.3,0.3h-1
		c-0.1,0-0.3-0.1-0.3-0.2v-5.2H217.7z"/>
	<path d="M224,217c-0.1-0.2,0-0.3,0.2-0.3h1.2c0.1,0,0.2,0.1,0.2,0.1l1.1,2.5l0,0l1.1-2.5c0.1-0.1,0.2-0.1,0.3-0.1h1.1
		c0.2,0,0.3,0.1,0.2,0.3l-2.4,5c0,0.1-0.1,0.1-0.2,0.1h-0.1c-0.1,0-0.2-0.1-0.2-0.1L224,217z"/>
</g>
<g>
	<path d="M290.6,302.1c0-0.1,0.1-0.3,0.2-0.3h0.5c0.1,0,0.2,0.1,0.2,0.2l0.2,0.5c0.2-0.2,0.9-0.8,1.9-0.8c1.7,0,2.4,1.3,2.4,2.7v2.6
		c0,0.1-0.1,0.3-0.2,0.3h-1.1c-0.1,0-0.3-0.1-0.3-0.2v-2.7c0-0.7-0.4-1.1-1-1.1c-0.7,0-1.1,0.5-1.3,0.9v3c0,0.2-0.1,0.2-0.3,0.3h-1
		c-0.1,0-0.3-0.1-0.3-0.2L290.6,302.1z"/>
	<path d="M297.6,302.1c0-0.1,0.1-0.3,0.2-0.3h0.5c0.1,0,0.2,0.1,0.2,0.1l0.2,0.5c0.2-0.3,0.8-0.8,1.8-0.8c0.8,0,1.3,0.3,1.8,0.8
		c0.2-0.2,0.9-0.8,1.9-0.8c1.7,0,2.4,1.3,2.4,2.7v2.6c0,0.1-0.1,0.3-0.2,0.3h-1.1c-0.1,0-0.3-0.1-0.3-0.2v-2.7c0-0.7-0.3-1.1-1-1.1
		c-0.8,0-1.1,0.6-1.1,0.6s0,0.3,0,0.5v2.7c0,0.1-0.1,0.3-0.2,0.3h-1c-0.1,0-0.3-0.1-0.3-0.2v-2.7c0-0.7-0.3-1.1-1-1.1
		s-1,0.5-1.1,0.9v3c0,0.1-0.1,0.3-0.2,0.3H298c-0.1,0-0.3-0.1-0.3-0.2L297.6,302.1z"/>
</g>
<g>
	<path d="M613.3,72.1c0-0.2,0.1-0.3,0.2-0.3h0.5c0.1,0,0.2,0.1,0.2,0.2l0.2,0.5c0.2-0.2,0.9-0.8,1.9-0.8c1.7,0,2.4,1.3,2.4,2.7V77
		c0,0.1-0.1,0.3-0.2,0.3h-1.1c-0.2,0-0.2-0.1-0.3-0.2v-2.7c0-0.7-0.4-1.1-1-1.1c-0.7,0-1.1,0.5-1.3,0.9v3c0,0.2-0.1,0.2-0.3,0.3h-1
		c-0.1,0-0.2-0.1-0.3-0.2L613.3,72.1z"/>
	<path d="M619.6,72.2c-0.1-0.2,0-0.3,0.2-0.3h1.2c0.1,0,0.2,0.1,0.2,0.2l1.4,3l0,0l1.3-3.1c0.1-0.1,0.2-0.2,0.3-0.2h1.1
		c0.2,0,0.3,0.2,0.2,0.3l-4.1,8.9c0,0.1-0.1,0.2-0.2,0.2H620c-0.2,0-0.3-0.2-0.2-0.4l1.9-4.1L619.6,72.2z"/>
</g>
<g>
	<path d="M577.4,277.8c0-0.1,0.1-0.3,0.2-0.3h0.5c0.1,0,0.2,0.1,0.2,0.2l0.2,0.5c0.2-0.2,0.9-0.8,1.9-0.8c1.7,0,2.4,1.3,2.4,2.7v2.6
		c0,0.1-0.1,0.3-0.2,0.3h-1.1c-0.2,0-0.2-0.1-0.3-0.2v-2.7c0-0.7-0.4-1.1-1-1.1c-0.7,0-1.1,0.5-1.3,0.9v3c0,0.2-0.1,0.2-0.3,0.3h-1
		c-0.1,0-0.2-0.1-0.3-0.2L577.4,277.8z"/>
	<path d="M586.8,277.3c0.8,0,1.5,0.3,2,0.9c0.1,0.1,0.1,0.3-0.1,0.4l-0.6,0.6c-0.1,0.1-0.2,0-0.3,0c-0.2-0.2-0.5-0.4-0.9-0.4
		c-0.7,0-1.3,0.6-1.3,1.4s0.6,1.4,1.3,1.4c0.6,0,0.8-0.3,1.1-0.5c0.1-0.1,0.2-0.1,0.3,0l0.6,0.5c0.1,0.1,0.2,0.2,0.1,0.4
		c-0.5,0.7-1.2,1.1-2.1,1.1c-1.5,0-2.9-1.2-2.9-2.8C584,278.6,585.3,277.4,586.8,277.3z"/>
</g>
<g>
	<path d="M337.74,115.9c0-0.2,0.1-0.3,0.2-0.3h0.5c0.1,0,0.2,0.1,0.2,0.2l0.2,0.5c0.2-0.2,0.9-0.8,1.9-0.8c1.7,0,2.4,1.3,2.4,2.7
		v2.6c0,0.1-0.1,0.3-0.2,0.3h-1.1c-0.1,0-0.3-0.1-0.3-0.2v-2.7c0-0.7-0.4-1.1-1-1.1c-0.7,0-1.1,0.5-1.3,0.9v3c0,0.2-0.1,0.2-0.3,0.3
		h-1c-0.1,0-0.3-0.1-0.3-0.2L337.74,115.9z"/>
	<path d="M346.94,115.4c0.5,0,1,0.2,1.2,0.2v-3.9c0-0.1,0.1-0.3,0.2-0.3h1.1c0.1,0,0.2,0.1,0.3,0.2v8.9c0,0.1-0.1,0.3-0.2,0.3h-0.5
		c-0.1,0-0.2-0.1-0.3-0.2l-0.1-0.4c0,0-0.6,0.8-1.8,0.8c-1.5,0-2.6-1.3-2.6-2.8C344.34,116.7,345.34,115.5,346.94,115.4z
		 M347.14,119.7c0.7,0,1-0.6,1.1-0.9v-1.6c0,0-0.4-0.3-1-0.3c-0.8,0-1.3,0.6-1.3,1.4C345.94,119,346.44,119.7,347.14,119.7z"/>
</g>
<g>
	<path d="M539.3,191.9c1.5,0,2.8,1.3,2.8,2.8c0,1.6-1.2,2.9-2.8,2.9c-1.5,0-2.8-1.3-2.8-2.8C536.5,193.2,537.7,191.9,539.3,191.9z
		 M539.3,196.1c0.7,0,1.3-0.6,1.3-1.4c0-0.8-0.6-1.4-1.3-1.4s-1.3,0.6-1.3,1.4S538.5,196.1,539.3,196.1z"/>
	<path d="M543.2,188.2c0-0.1,0.1-0.3,0.2-0.3h1.2c0.1,0,0.3,0.1,0.3,0.2v4.1c0.3-0.2,0.8-0.4,1.4-0.4c1.7,0,2.4,1.3,2.4,2.7v2.6
		c0,0.1-0.1,0.3-0.2,0.3h-1.1c-0.2,0-0.2-0.1-0.3-0.2v-2.6c0-0.7-0.4-1.2-1.1-1.2c-0.6,0-1,0.4-1.2,1v2.9c0,0.1-0.1,0.2-0.3,0.3
		h-1.1c-0.1,0-0.2-0.1-0.3-0.2L543.2,188.2z"/>
</g>
<g>
	<path d="M350.9,294.9c1.5,0,2.8,1.3,2.8,2.8s-1.2,2.9-2.8,2.9c-1.5,0-2.8-1.3-2.8-2.8C348.1,296.2,349.4,294.9,350.9,294.9z
		 M350.9,299.1c0.7,0,1.3-0.6,1.3-1.4s-0.6-1.4-1.3-1.4c-0.7,0-1.3,0.6-1.3,1.4S350.2,299.1,350.9,299.1z"/>
	<path d="M354.8,291.2c0-0.1,0.1-0.3,0.2-0.3h1.1c0.1,0,0.3,0.1,0.3,0.2v5.8l1.9-1.9c0.1-0.1,0.2-0.2,0.3-0.2h1.2
		c0.2,0,0.3,0.2,0.2,0.4l-2,2.1l2.4,2.6c0.1,0.1,0.1,0.4-0.2,0.4h-1.5c-0.1,0-0.2,0-0.2-0.1l-2.1-2.4v2.3c0,0.1-0.1,0.3-0.2,0.3
		h-1.1c-0.1,0-0.2-0.1-0.3-0.2L354.8,291.2z"/>
</g>
<g>
	<path d="M578.6,138.7c0,0.2-0.1,0.2-0.3,0.3h-1.1c-0.1,0-0.2-0.1-0.3-0.2v-8.9c0-0.1,0.1-0.3,0.2-0.3h0.5c0.1,0,0.2,0.1,0.2,0.2
		l0.2,0.4c0.2-0.3,0.9-0.8,1.7-0.8c1.5,0,2.6,1.3,2.6,2.8c0,1.6-1.2,2.8-2.7,2.8c-0.5,0-1-0.2-1.2-0.3L578.6,138.7z M579.5,133.6
		c0.8,0,1.3-0.6,1.3-1.4c0-0.8-0.5-1.4-1.3-1.4c-0.7,0-1,0.5-1.1,0.8v1.6C578.5,133.2,578.8,133.6,579.5,133.6z"/>
	<path d="M585.4,131.4c0.5,0,1,0.1,1,0.1c0-0.7-0.2-0.9-0.7-0.9s-1.2,0.1-1.5,0.2c-0.2,0.1-0.3-0.1-0.3-0.2l-0.1-0.7
		c0-0.2,0.1-0.3,0.2-0.3c0.1,0,1-0.3,1.8-0.3c1.7,0,2.1,0.9,2.1,2.3v2.9c0,0.1-0.1,0.3-0.2,0.3h-0.5c-0.1,0-0.2,0-0.2-0.2l-0.2-0.4
		c-0.3,0.3-0.8,0.7-1.6,0.7c-1.1,0-1.8-0.7-1.8-1.8C583.2,132.2,584,131.4,585.4,131.4z M585.4,133.8c0.4,0,0.8-0.4,0.9-0.5v-0.7
		c0,0-0.4-0.2-0.8-0.2c-0.5,0-0.9,0.3-0.9,0.7C584.7,133.5,585,133.8,585.4,133.8z"/>
</g>
<g>
	<path d="M577.3,327.6l0.4-0.7c0-0.1,0.2-0.2,0.3-0.1c0,0,0.6,0.3,1.2,0.3c0.3,0,0.5-0.1,0.5-0.3c0-0.2-0.2-0.4-0.9-0.7
		c-1-0.4-1.5-1-1.5-1.8s0.6-1.6,2-1.6c0.8,0,1.4,0.2,1.7,0.4c0.1,0.1,0.2,0.2,0.1,0.4l-0.3,0.7c-0.1,0.1-0.2,0.1-0.3,0.1
		c0,0-0.6-0.3-1.1-0.3c-0.3,0-0.5,0.1-0.5,0.3c0,0.2,0.2,0.3,0.7,0.5c1,0.4,1.8,0.8,1.8,1.9c0,0.9-0.8,1.6-2.1,1.6
		c-0.9,0-1.5-0.3-1.8-0.5C577.3,327.9,577.3,327.8,577.3,327.6z"/>
	<path d="M585,322.7c0.8,0,1.5,0.3,2,0.9c0.1,0.1,0.1,0.3-0.1,0.4l-0.6,0.6c-0.1,0.1-0.2,0-0.3,0c-0.2-0.2-0.5-0.4-0.9-0.4
		c-0.7,0-1.3,0.6-1.3,1.4s0.6,1.4,1.3,1.4c0.6,0,0.8-0.3,1.1-0.5c0.1-0.1,0.2-0.1,0.3,0l0.6,0.5c0.1,0.1,0.2,0.2,0.1,0.4
		c-0.5,0.7-1.2,1.1-2.1,1.1c-1.5,0-2.9-1.2-2.9-2.8C582.1,324,583.5,322.7,585,322.7z"/>
</g>
<g>
	<path d="M347.3,166.8l0.4-0.7c0-0.1,0.2-0.2,0.3-0.1c0,0,0.6,0.3,1.2,0.3c0.3,0,0.5-0.1,0.5-0.3s-0.2-0.4-0.9-0.7
		c-1-0.4-1.5-0.9-1.5-1.8c0-0.8,0.6-1.6,2-1.6c0.8,0,1.4,0.2,1.7,0.4c0.1,0.1,0.2,0.2,0.1,0.4l-0.3,0.7c-0.1,0.1-0.2,0.1-0.3,0.1
		c0,0-0.6-0.3-1.1-0.3c-0.3,0-0.5,0.1-0.5,0.3s0.2,0.3,0.7,0.5c1,0.4,1.8,0.8,1.8,1.9c0,0.9-0.8,1.6-2.1,1.6c-0.9,0-1.5-0.3-1.8-0.5
		C347.3,167,347.3,166.9,347.3,166.8z"/>
	<path d="M354.8,161.9c0.5,0,1,0.1,1.2,0.2v-3.9c0-0.1,0.1-0.3,0.2-0.3h1.1c0.1,0,0.2,0.1,0.3,0.2v8.9c0,0.1-0.1,0.3-0.2,0.3h-0.5
		c-0.1,0-0.2-0.1-0.3-0.2l-0.1-0.4c0,0-0.6,0.8-1.8,0.8c-1.5,0-2.6-1.3-2.6-2.8S353.1,161.9,354.8,161.9z M354.9,166.1
		c0.7,0,1-0.6,1.1-0.9v-1.6c0,0-0.4-0.3-1-0.3c-0.8,0-1.3,0.6-1.3,1.4C353.7,165.5,354.2,166.1,354.9,166.1z"/>
</g>
<g>
	<path d="M463,282.2h-0.5c-0.1,0-0.2-0.1-0.2-0.2v-0.9c0-0.1,0.1-0.3,0.2-0.3h0.5v-1.5c0-0.1,0.1-0.3,0.2-0.3h1.1
		c0.1,0,0.2,0.1,0.2,0.2v1.5h1.2c0.1,0,0.2,0.1,0.3,0.2v0.9c0,0.1-0.1,0.3-0.2,0.3h-1.2v2.2c0,0.4,0.2,0.4,0.4,0.4
		c0.2,0,0.5-0.1,0.7-0.1s0.2,0,0.3,0.1l0.3,0.8c0.1,0.1,0,0.3-0.1,0.3s-0.9,0.4-1.6,0.4c-1,0-1.5-0.6-1.5-1.7L463,282.2z"/>
	<path d="M467.3,281c0-0.1,0.1-0.3,0.2-0.3h0.5c0.1,0,0.2,0.1,0.2,0.2l0.2,0.5c0.2-0.2,0.9-0.8,1.9-0.8c1.7,0,2.4,1.3,2.4,2.7v2.6
		c0,0.1-0.1,0.3-0.2,0.3h-1.1c-0.1,0-0.3-0.1-0.3-0.2v-2.7c0-0.7-0.4-1.1-1-1.1c-0.7,0-1.1,0.5-1.3,0.9v3c0,0.2-0.1,0.3-0.3,0.3h-1
		c-0.1,0-0.3-0.1-0.3-0.2L467.3,281z"/>
</g>
<g>
	<path d="M350.6,372.9H350c-0.2,0-0.3-0.2-0.3-0.3v-1.2c0-0.2,0.1-0.3,0.3-0.3h0.6v-1.9c0-0.2,0.1-0.3,0.3-0.3h1.4
		c0.2,0,0.3,0.2,0.3,0.3v1.9h1.5c0.2,0,0.3,0.1,0.3,0.3v1.2c0,0.2-0.1,0.3-0.3,0.3h-1.5v2.8c0,0.5,0.2,0.5,0.5,0.5s0.6-0.1,0.8-0.2
		s0.3,0,0.4,0.2l0.3,1.1c0.1,0.2,0,0.4-0.2,0.4c-0.1,0-1.2,0.5-2,0.5c-1.3,0-1.8-0.8-1.9-2.2L350.6,372.9L350.6,372.9z"/>
	<path d="M355.4,377.5l2.1-3l-2.1-2.9c-0.2-0.2,0-0.5,0.2-0.5h1.4c0.2,0,0.4,0,0.5,0.2l1.1,1.6l0,0l1.1-1.6c0.1-0.2,0.3-0.2,0.5-0.2
		h1.5c0.3,0,0.4,0.3,0.2,0.5l-2.1,2.9l2.1,3c0.1,0.2,0.1,0.5-0.2,0.5h-1.5c-0.2,0-0.4-0.1-0.5-0.3l-1.2-1.7l0,0l-1.3,1.9
		c0,0.1-0.2,0.1-0.3,0.1h-1.6C355.3,378,355.2,377.7,355.4,377.5z"/>
</g>
<g>
	<path d="M264.5,222.1c0-0.1,0.1-0.3,0.2-0.3h1.1c0.1,0,0.3,0.1,0.3,0.2v2.6c0,0.7,0.4,1.2,1,1.1c0.6,0,1-0.5,1.1-1v-2.8
		c0-0.2,0.1-0.3,0.3-0.3h1c0.1,0,0.3,0.1,0.3,0.2v4.9c0,0.1-0.1,0.3-0.2,0.3H269c-0.1,0-0.2-0.1-0.3-0.2l-0.2-0.4
		c-0.2,0.2-0.7,0.8-1.8,0.8c-1.7,0-2.3-1.3-2.3-2.6L264.5,222.1z"/>
	<path d="M271.7,223.2h-0.5c-0.1,0-0.2-0.1-0.2-0.2v-0.9c0-0.1,0.1-0.3,0.2-0.3h0.5v-1.5c0-0.1,0.1-0.3,0.2-0.3h1.1
		c0.1,0,0.2,0.1,0.2,0.2v1.5h1.2c0.1,0,0.3,0.1,0.3,0.2v0.9c0,0.1-0.1,0.3-0.2,0.3h-1.2v2.2c0,0.4,0.2,0.4,0.4,0.4
		c0.2,0,0.5-0.1,0.7-0.1c0.1-0.1,0.2,0,0.3,0.1l0.3,0.8c0.1,0.1,0,0.3-0.1,0.3s-0.9,0.4-1.6,0.4c-1,0-1.5-0.6-1.5-1.7L271.7,223.2z"
		/>
</g>
<g>
	<path fill="#FFFFFF" d="M660.4,36.1c-0.1-0.2,0-0.3,0.2-0.3h1.2c0.1,0,0.2,0.1,0.2,0.2l1.1,2.5l0,0l1.2-2.5
		c0.1-0.1,0.2-0.2,0.3-0.2h1c0.2,0,0.3,0.2,0.2,0.3l-2.4,5.1c0,0.1-0.1,0.1-0.2,0.1h-0.1c-0.1,0-0.2-0.1-0.2-0.1L660.4,36.1z"/>
	<path fill="#FFFFFF" d="M667,37.2h-0.5c-0.1,0-0.2-0.1-0.2-0.2v-0.9c0-0.2,0.1-0.3,0.2-0.3h0.5v-1.5c0-0.1,0.1-0.3,0.2-0.3h1.1
		c0.1,0,0.2,0.1,0.2,0.2v1.5h1.2c0.2,0,0.2,0.1,0.3,0.2v0.9c0,0.1-0.1,0.3-0.2,0.3h-1.2v2.2c0,0.4,0.2,0.4,0.4,0.4s0.5-0.1,0.7-0.2
		c0.1,0,0.2,0,0.3,0.2l0.3,0.8c0,0.1,0,0.3-0.2,0.3c-0.1,0-0.9,0.3-1.6,0.4c-1,0-1.5-0.6-1.5-1.7V37.2z"/>
</g>
<g>
	<path d="M586.3,228.3c-0.1-0.2,0-0.3,0.2-0.3h1.2c0.1,0,0.2,0.1,0.2,0.1l1.1,2.5l0,0l1.2-2.5c0.1-0.1,0.2-0.1,0.3-0.1h1
		c0.2,0,0.3,0.1,0.2,0.3l-2.4,5.1c0,0.1-0.1,0.1-0.2,0.1H589c-0.1,0-0.2-0.1-0.2-0.1L586.3,228.3z"/>
	<path d="M594.4,229.9c0.5,0,1,0.1,1,0.1c0-0.7-0.2-0.9-0.7-0.9s-1.2,0.1-1.5,0.2c-0.2,0.1-0.3-0.1-0.3-0.2l-0.1-0.7
		c0-0.2,0.1-0.3,0.2-0.3c0.1,0,1-0.3,1.8-0.3c1.7,0,2.1,0.9,2.1,2.3v2.9c0,0.1-0.1,0.3-0.2,0.3h-0.5c-0.1,0-0.2,0-0.2-0.2l-0.2-0.4
		c-0.3,0.3-0.8,0.7-1.6,0.7c-1.1,0-1.8-0.7-1.8-1.8C592.3,230.7,593,229.9,594.4,229.9z M594.5,232.3c0.4,0,0.8-0.4,0.9-0.5v-0.7
		c0,0-0.4-0.2-0.8-0.2c-0.5,0-0.9,0.3-0.9,0.7C593.8,232,594,232.3,594.5,232.3z"/>
</g>
<g>
	<path d="M187.5,102.1c-0.1-0.2,0-0.3,0.2-0.3h1c0.1,0,0.2,0.1,0.2,0.2l0.8,2.4l0,0l1.4-2.6c0-0.1,0.1-0.1,0.2-0.1h0.1
		c0.1,0,0.2,0.1,0.2,0.1l1.4,2.6l0,0l0.8-2.4c0.1-0.2,0.2-0.2,0.3-0.2h0.9c0.2,0,0.3,0.1,0.2,0.3l-1.7,5.1c0,0.1-0.1,0.2-0.2,0.2
		h-0.1c-0.1,0-0.2-0.1-0.2-0.1l-1.7-3.1l0,0l-1.7,3.2c0,0.1-0.1,0.1-0.2,0.1h-0.1c-0.1,0-0.2-0.1-0.2-0.2L187.5,102.1z"/>
	<path d="M198.1,103.7c0.5,0,1,0.2,1,0.2c0-0.7-0.2-0.9-0.7-0.9s-1.2,0.1-1.5,0.2c-0.2,0.1-0.3-0.1-0.3-0.2l-0.1-0.7
		c0-0.2,0.1-0.3,0.2-0.3c0.1,0,1-0.3,1.8-0.3c1.7,0,2.1,0.9,2.1,2.3v2.9c0,0.1-0.1,0.3-0.2,0.3h-0.5c-0.1,0-0.2,0-0.2-0.2l-0.2-0.4
		c-0.3,0.3-0.8,0.7-1.6,0.7c-1.1,0-1.8-0.7-1.8-1.8C196,104.5,196.8,103.8,198.1,103.7z M198.2,106.1c0.4,0,0.8-0.4,0.9-0.5v-0.7
		c0,0-0.4-0.2-0.8-0.2c-0.5,0-0.9,0.3-0.9,0.7C197.5,105.8,197.8,106.1,198.2,106.1z"/>
</g>
<g>
	<path d="M528.3,241.5c-0.1-0.2,0-0.3,0.2-0.3h1c0.1,0,0.2,0.1,0.2,0.2l0.8,2.4l0,0l1.4-2.6c0-0.1,0.1-0.1,0.2-0.1h0.1
		c0.1,0,0.2,0.1,0.2,0.1l1.4,2.6l0,0l0.8-2.4c0-0.1,0.2-0.2,0.3-0.2h0.9c0.2,0,0.3,0.1,0.2,0.3l-1.7,5.1c0,0.1-0.1,0.1-0.2,0.1l0,0
		c-0.1,0-0.2-0.1-0.2-0.1l-1.7-3.1l0,0l-1.7,3.1c0,0.1-0.1,0.1-0.2,0.1h-0.1c-0.1,0-0.2-0.1-0.2-0.1L528.3,241.5z"/>
	<path d="M536.4,241.4c-0.1-0.2,0-0.3,0.2-0.3h1.2c0.1,0,0.2,0.1,0.2,0.1l1.1,2.5l0,0l1.2-2.5c0.1-0.1,0.2-0.1,0.3-0.1h1
		c0.2,0,0.3,0.1,0.2,0.3l-2.4,5.1c0,0.1-0.1,0.1-0.2,0.1h-0.1c-0.1,0-0.2-0.1-0.2-0.1L536.4,241.4z"/>
</g>
<g>
	<path d="M437.1,147.1c-0.1-0.2,0-0.3,0.2-0.3h1c0.1,0,0.2,0.1,0.2,0.2l0.9,2.4l0,0l1.3-2.6c0-0.1,0.1-0.1,0.2-0.1h0.1
		c0.1,0,0.2,0.1,0.2,0.1l1.4,2.6l0,0l0.8-2.4c0-0.1,0.2-0.2,0.3-0.2h0.9c0.2,0,0.3,0.1,0.2,0.3l-1.6,5.1c0,0.1-0.1,0.1-0.2,0.2l0,0
		c-0.1,0-0.2-0.1-0.2-0.1l-1.8-3.1l0,0l-1.6,3.2c0,0.1-0.1,0.1-0.2,0.1h-0.1c-0.1,0-0.2-0.1-0.2-0.1L437.1,147.1z"/>
	<path d="M445.8,143.8c0-0.5,0.4-0.9,0.9-0.9s1,0.4,1,0.9s-0.4,0.9-0.9,0.9C446.2,144.7,445.8,144.3,445.8,143.8z M446,146.9
		c0-0.1,0.1-0.3,0.2-0.3h1.1c0.1,0,0.3,0.1,0.3,0.2l0.1,4.9c0,0.1-0.1,0.3-0.2,0.3h-1.1c-0.1,0-0.3-0.1-0.3-0.2L446,146.9z"/>
</g>
<g>
	<path d="M293.66,170.91c-0.1-0.2,0-0.3,0.2-0.3h0.9c0.1,0,0.2,0.1,0.2,0.1l0.7,2.2l0,0l1.2-2.3c0-0.1,0.1-0.1,0.2-0.1h0.1
		c0.1,0,0.2,0.1,0.2,0.1l1.2,2.3l0,0l0.7-2.2c0-0.1,0.1-0.1,0.3-0.1h0.8c0.2,0,0.3,0.1,0.2,0.3l-1.3,4.5c0,0.1-0.1,0.1-0.2,0.1l0,0
		c-0.1,0-0.2-0.1-0.2-0.1l-1.5-2.8l0,0l-1.5,2.8c0,0.1-0.1,0.1-0.2,0.1h-0.1c-0.1,0-0.2-0.1-0.2-0.1L293.66,170.91z"/>
	<path d="M301.06,170.91c-0.1-0.2,0-0.3,0.2-0.3h1.1c0.1,0,0.2,0.1,0.2,0.1l1.2,2.7l0,0l1.2-2.8c0.1-0.1,0.1-0.1,0.3-0.1h1
		c0.2,0,0.3,0.1,0.2,0.3l-3.7,8.1c0,0.1-0.1,0.1-0.2,0.1h-1c-0.2,0-0.3-0.2-0.2-0.3l1.7-3.7L301.06,170.91z"/>
</g>
<g>
	<path fill="#FFFFFF" d="M685.7,44.5c0-0.2,0.1-0.3,0.2-0.3h0.5c0.1,0,0.2,0.1,0.2,0.2l0.2,0.5c0.2-0.2,0.9-0.8,1.9-0.8
		c1.7,0,2.4,1.3,2.4,2.7v2.6c0,0.1-0.1,0.3-0.2,0.3h-1.1c-0.2,0-0.2-0.1-0.3-0.2v-2.7c0-0.7-0.4-1.1-1-1.1c-0.7,0-1.1,0.5-1.3,0.9v3
		c0,0.2-0.1,0.3-0.3,0.3h-1c-0.1,0-0.2-0.1-0.3-0.2L685.7,44.5z"/>
	<path fill="#FFFFFF" d="M692.6,40.5c0-0.1,0.1-0.3,0.2-0.3h1.2c0.1,0,0.3,0.1,0.3,0.2v4.1c0.3-0.2,0.8-0.5,1.4-0.5
		c1.7,0,2.4,1.3,2.4,2.7v2.6c0,0.1-0.1,0.3-0.2,0.3h-1.1c-0.2,0-0.2-0.1-0.3-0.2v-2.6c0-0.7-0.4-1.2-1.1-1.2c-0.6,0-1,0.4-1.2,1v2.9
		c0,0.2-0.1,0.3-0.3,0.3h-1.1c-0.1,0-0.2-0.1-0.3-0.2L692.6,40.5z"/>
</g>
<g>
	<path d="M665.9,83.8c0-0.2,0.1-0.3,0.2-0.3h0.5c0.1,0,0.2,0.1,0.2,0.2l0.2,0.5c0.2-0.3,0.8-0.8,1.8-0.8c0.8,0,1.3,0.3,1.8,0.8
		c0.2-0.2,0.9-0.8,1.9-0.8c1.7,0,2.4,1.3,2.4,2.7v2.6c0,0.1-0.1,0.3-0.2,0.3h-1.1c-0.2,0-0.2-0.1-0.3-0.2v-2.7c0-0.7-0.3-1.1-1-1.1
		c-0.8,0-1.1,0.6-1.1,0.6s0,0.3,0,0.5v2.7c0,0.1-0.1,0.3-0.2,0.3h-1c-0.2,0-0.2-0.1-0.3-0.2v-2.7c0-0.7-0.3-1.2-1-1.1
		c-0.7,0-1,0.5-1.1,0.9v3c0,0.1-0.1,0.3-0.2,0.3h-1.1c-0.1,0-0.2-0.1-0.3-0.2L665.9,83.8z"/>
	<path d="M678.2,85.4c0.5,0,1,0.2,1,0.2c0-0.7-0.2-0.9-0.7-0.9s-1.2,0.1-1.5,0.2c-0.2,0.1-0.3-0.1-0.3-0.2l-0.1-0.7
		c0-0.2,0.1-0.3,0.2-0.3c0.1,0,1-0.3,1.8-0.3c1.7,0,2.1,0.9,2.1,2.3v2.9c0,0.1-0.1,0.3-0.2,0.3H680c-0.1,0-0.2,0-0.2-0.2l-0.2-0.4
		c-0.3,0.3-0.8,0.7-1.6,0.7c-1.1,0-1.8-0.7-1.8-1.8C676,86.2,676.8,85.4,678.2,85.4z M678.2,87.8c0.4,0,0.8-0.4,0.9-0.5v-0.7
		c0,0-0.4-0.2-0.8-0.2c-0.5,0-0.9,0.3-0.9,0.7C677.5,87.5,677.8,87.8,678.2,87.8z"/>
</g>
<g>
	<path d="M695.4,124.4c0.8,0,1.5,0.3,2,0.9c0.1,0.1,0.1,0.3-0.1,0.4l-0.6,0.6c-0.1,0.1-0.2,0-0.3,0c-0.2-0.2-0.5-0.4-0.9-0.4
		c-0.7,0-1.3,0.6-1.3,1.4s0.6,1.4,1.3,1.4c0.6,0,0.8-0.3,1.1-0.5c0.1-0.1,0.2-0.1,0.3,0l0.6,0.5c0.1,0.1,0.2,0.2,0.1,0.4
		c-0.5,0.7-1.2,1.1-2.1,1.1c-1.5,0-2.9-1.2-2.9-2.8C692.5,125.7,693.9,124.4,695.4,124.4z"/>
	<path d="M699,126h-0.5c-0.1,0-0.2-0.1-0.2-0.2v-0.9c0-0.2,0.1-0.3,0.2-0.3h0.5v-1.5c0-0.1,0.1-0.3,0.2-0.3h1.1
		c0.1,0,0.2,0.1,0.2,0.2v1.5h1.2c0.2,0,0.2,0.1,0.3,0.2v0.9c0,0.1-0.1,0.3-0.2,0.3h-1.2v2.2c0,0.4,0.2,0.4,0.4,0.4s0.5-0.1,0.7-0.1
		c0.2-0.1,0.2,0,0.3,0.1l0.3,0.8c0.1,0.1,0,0.3-0.2,0.3c-0.1,0-0.9,0.4-1.6,0.4c-1,0-1.5-0.6-1.5-1.7V126z"/>
</g>
<g>
	<path d="M647,140.1c0-0.1,0.1-0.3,0.2-0.3h0.5c0.1,0,0.2,0.1,0.2,0.2l0.2,0.5c0.2-0.2,0.9-0.8,1.9-0.8c1.7,0,2.4,1.3,2.4,2.7v2.6
		c0,0.1-0.1,0.3-0.2,0.3h-1.1c-0.2,0-0.3-0.1-0.3-0.2v-2.7c0-0.7-0.4-1.1-1-1.1c-0.7,0-1.1,0.5-1.3,0.9v3c0,0.2-0.1,0.2-0.3,0.3h-1
		c-0.1,0-0.3-0.1-0.3-0.2L647,140.1z"/>
	<path d="M654,140.1c0-0.1,0.1-0.3,0.2-0.3h1.1c0.1,0,0.3,0.1,0.3,0.2v6.6c0,1.8-1.1,2.7-2.5,2.7c-0.7,0-1.4-0.3-1.6-0.5
		c-0.1-0.1-0.1-0.2-0.1-0.3l0.4-0.9c0-0.1,0.2-0.1,0.3-0.1c0.2,0.1,0.5,0.3,0.8,0.3c0.6,0,0.9-0.4,0.9-1.2L654,140.1z M653.9,137
		c0-0.5,0.4-0.9,0.9-0.9s0.9,0.4,1,0.9s-0.4,0.9-0.9,0.9C654.3,137.9,653.9,137.5,653.9,137z"/>
</g>
<g>
	<path d="M178.6,158.1c1.5,0,2.8,1.3,2.8,2.8c0,1.6-1.2,2.9-2.8,2.9c-1.5,0-2.8-1.3-2.8-2.8C175.8,159.4,177,158.1,178.6,158.1z
		 M178.6,162.3c0.7,0,1.3-0.6,1.3-1.4c0-0.8-0.6-1.4-1.3-1.4s-1.3,0.6-1.3,1.4S177.9,162.3,178.6,162.3z"/>
	<path d="M182.5,158.4c0-0.1,0.1-0.3,0.2-0.3h0.5c0.1,0,0.2,0.1,0.2,0.2l0.2,0.5c0.2-0.3,0.7-0.8,1.5-0.8c0.6,0,1.2,0.2,1,0.5
		l-0.5,0.9c-0.1,0.1-0.2,0.2-0.3,0.1c0,0-0.2-0.1-0.4-0.1c-0.5,0-0.9,0.4-0.9,0.6v3.3c0,0.2-0.1,0.3-0.3,0.3h-1
		c-0.1,0-0.3-0.1-0.3-0.2L182.5,158.4z"/>
</g>
<g>
	<path d="M727.6,89.4c0-0.2,0.1-0.3,0.3-0.3h0.5c0.1,0,0.2,0.1,0.3,0.2l0.2,0.6c0.2-0.3,0.8-0.9,1.7-0.9c0.7,0,1.3,0.2,1.1,0.6
		l-0.5,0.9c-0.1,0.1-0.2,0.2-0.3,0.1c0,0-0.3-0.1-0.4-0.1c-0.6,0-0.9,0.4-1,0.6v3.6c0,0.2-0.1,0.3-0.3,0.3h-1.1
		c-0.2,0-0.3-0.1-0.3-0.3L727.6,89.4L727.6,89.4z"/>
	<path d="M732.5,86c0-0.6,0.4-1,1-1s1,0.5,1,1c0,0.6-0.5,1-1,1C732.9,87,732.5,86.6,732.5,86z M732.6,89.4c0-0.2,0.1-0.3,0.3-0.3
		h1.2c0.2,0,0.3,0.1,0.3,0.3v5.3c0,0.2-0.1,0.3-0.3,0.3h-1.2c-0.1,0-0.3-0.1-0.3-0.3V89.4z"/>
</g>
<g>
	<path d="M180,392.8c0-0.1,0.1-0.3,0.2-0.3h1.1c0.1,0,0.3,0.1,0.3,0.2v4.1c0.3-0.2,0.8-0.5,1.4-0.5c1.7,0,2.4,1.3,2.4,2.7v2.6
		c0,0.1-0.1,0.3-0.2,0.3h-1.1c-0.1,0-0.3-0.1-0.3-0.2v-2.6c0-0.7-0.4-1.2-1.1-1.2c-0.6,0-1,0.4-1.2,1v2.9c0,0.1-0.1,0.3-0.3,0.3
		h-1.1c-0.1,0-0.3-0.1-0.3-0.2L180,392.8z"/>
	<path d="M186.9,393.7c0-0.5,0.4-0.9,0.9-0.9s0.9,0.4,0.9,0.9s-0.4,0.9-0.9,0.9C187.3,394.6,186.9,394.2,186.9,393.7z M187.1,396.8
		c0-0.1,0.1-0.3,0.2-0.3h1.1c0.1,0,0.3,0.1,0.3,0.2v4.9c0,0.1-0.1,0.3-0.2,0.3h-1.1c-0.1,0-0.2-0.1-0.3-0.2V396.8z"/>
</g>
<g>
	<path d="M582.3,186.1c0-0.1,0.1-0.2,0.2-0.2h0.5c0.1,0,0.2,0.1,0.2,0.1l0.2,0.5c0.2-0.2,0.8-0.7,1.7-0.7c0.7,0,1.2,0.3,1.6,0.8
		c0.2-0.2,0.9-0.8,1.8-0.8c1.6,0,2.2,1.2,2.2,2.5v2.4c0,0.1-0.1,0.2-0.2,0.2h-1c-0.1,0-0.2-0.1-0.2-0.2v-2.4c0-0.6-0.3-1.1-0.9-1.1
		c-0.7,0-1,0.5-1,0.5s0,0.2,0,0.5v2.5c0,0.1-0.1,0.2-0.2,0.2H586c-0.1,0-0.2-0.1-0.2-0.2v-2.4c0-0.6-0.3-1.1-0.9-1.1
		c-0.6,0-0.9,0.4-1,0.8v2.7c0,0.1-0.1,0.2-0.2,0.2h-1c-0.1,0-0.2-0.1-0.2-0.2L582.3,186.1L582.3,186.1z"/>
	<path d="M594.1,185.7c0.5,0,0.9,0.1,1.1,0.2v-3.6c0-0.1,0.1-0.2,0.2-0.2h1c0.1,0,0.2,0.1,0.2,0.2v8.2c0,0.1-0.1,0.2-0.2,0.2H596
		c-0.1,0-0.2-0.1-0.2-0.2l-0.1-0.4c0,0-0.6,0.7-1.6,0.7c-1.3,0-2.4-1.2-2.4-2.6C591.6,186.9,592.6,185.7,594.1,185.7z M594.2,189.6
		c0.7,0,1-0.5,1-0.8v-1.4c0,0-0.3-0.3-1-0.3s-1.2,0.6-1.2,1.3C593,189,593.5,189.6,594.2,189.6z"/>
</g>
<g>
	<path d="M637.9,183.6c0.5,0,0.9,0.1,1.1,0.2v-3.6c0-0.1,0.1-0.2,0.2-0.2h1.1c0.1,0,0.2,0.1,0.2,0.2v8.2c0,0.1-0.1,0.2-0.2,0.2h-0.5
		c-0.1,0-0.2-0.1-0.2-0.2l-0.1-0.4c0,0-0.6,0.8-1.6,0.8c-1.4,0-2.4-1.2-2.4-2.6C635.5,184.8,636.5,183.6,637.9,183.6z M638,187.5
		c0.7,0,1-0.5,1-0.8v-1.4c0,0-0.3-0.3-1-0.3s-1.2,0.6-1.2,1.3C636.9,186.9,637.4,187.5,638,187.5z"/>
	<path d="M644.2,183.6c1.3,0,2.3,1,2.3,2.3c0,0.1,0,0.2,0,0.3s-0.1,0.2-0.2,0.2h-3.2c0,0.5,0.5,1.1,1.2,1.1c0.4,0,0.8-0.1,1-0.3
		c0.1-0.1,0.2-0.1,0.3,0l0.5,0.6c0.1,0.1,0.1,0.2,0,0.3c-0.4,0.4-1,0.7-1.9,0.7c-1.5,0-2.6-1.2-2.6-2.6
		C641.7,184.8,642.8,183.6,644.2,183.6z M645.1,185.6c0-0.5-0.4-0.9-0.9-0.9s-0.9,0.4-1,0.9H645.1z"/>
</g>
<g>
	<path d="M616.8,194.4c0.5,0,0.9,0.1,1.1,0.2v-3.7c0-0.1,0.1-0.2,0.2-0.2h1.1c0.1,0,0.2,0.1,0.2,0.2v8.4c0,0.1-0.1,0.2-0.2,0.2h-0.5
		c-0.1,0-0.2-0.1-0.2-0.2l-0.1-0.4c0,0-0.6,0.8-1.7,0.8c-1.4,0-2.5-1.2-2.5-2.7C614.3,195.6,615.3,194.4,616.8,194.4z M616.9,198.4
		c0.7,0,1-0.5,1.1-0.8v-1.5c0,0-0.4-0.3-1-0.3c-0.7,0-1.2,0.6-1.2,1.3C615.7,197.8,616.2,198.4,616.9,198.4z"/>
	<path d="M623.3,194.4c0.8,0,1.4,0.3,1.9,0.9c0.1,0.1,0.1,0.3-0.1,0.4l-0.6,0.6c-0.1,0.1-0.2,0-0.3,0c-0.2-0.2-0.5-0.4-0.9-0.4
		c-0.7,0-1.2,0.6-1.2,1.3s0.5,1.3,1.2,1.3c0.5,0,0.8-0.3,1-0.5c0.1-0.1,0.2-0.1,0.3,0l0.5,0.5c0.1,0.1,0.2,0.2,0.1,0.4
		c-0.4,0.7-1.1,1.1-2,1.1c-1.4,0-2.7-1.1-2.7-2.7C620.6,195.6,621.9,194.4,623.3,194.4z"/>
</g>
<g>
	<path d="M652.9,487.8c0,0.1-0.1,0.2-0.3,0.2h-1c-0.1,0-0.2-0.1-0.2-0.2v-8.2c0-0.1,0.1-0.2,0.2-0.2h0.5c0.1,0,0.2,0,0.2,0.1
		l0.2,0.4c0.2-0.2,0.8-0.7,1.6-0.7c1.4,0,2.4,1.2,2.4,2.6c0,1.5-1.1,2.6-2.5,2.6c-0.5,0-0.9-0.2-1.1-0.3L652.9,487.8L652.9,487.8z
		 M653.8,483.1c0.7,0,1.2-0.6,1.2-1.3s-0.5-1.3-1.2-1.3c-0.6,0-1,0.5-1,0.8v1.5C652.8,482.8,653.2,483.1,653.8,483.1z"/>
	<path d="M657.6,479.6c0-0.1,0.1-0.2,0.2-0.2h0.5c0.1,0,0.2,0.1,0.2,0.2l0.2,0.5c0.2-0.2,0.6-0.8,1.4-0.8c0.6,0,1.1,0.2,1,0.5
		l-0.5,0.8c-0.1,0.1-0.2,0.2-0.3,0.1c0,0-0.2-0.1-0.4-0.1c-0.5,0-0.8,0.3-0.9,0.5v3c0,0.2-0.1,0.2-0.3,0.2h-1
		c-0.1,0-0.2-0.1-0.2-0.2L657.6,479.6L657.6,479.6z"/>
</g>
<g enable-background="new    ">
	<path d="M162.1,13.6c0-0.3,0.3-0.6,0.6-0.6h7.8c6.4,0,11.6,5.2,11.6,11.5c0,6.4-5.2,11.6-11.6,11.6h-7.8c-0.3,0-0.6-0.3-0.6-0.6
		V13.6z M170.1,32c4.3,0,7.4-3.2,7.4-7.5s-3.1-7.5-7.4-7.5h-3.8v15H170.1z"/>
	<path d="M190.6,22.5c3.4,0,6.2,2.6,6.2,6.1c0,0.2,0,0.7-0.1,0.9c0,0.3-0.3,0.6-0.6,0.6h-8.4c0.1,1.4,1.2,2.9,3.2,2.9
		c1,0,2-0.4,2.6-0.8c0.3-0.2,0.6-0.3,0.9,0l1.4,1.5c0.2,0.2,0.3,0.6,0,0.9c-1.1,1-2.8,1.8-4.9,1.8c-4,0-6.8-3.1-6.8-6.9
		C183.9,25.7,186.7,22.5,190.6,22.5z M192.9,27.8c-0.1-1.2-1.1-2.2-2.4-2.2c-1.3,0-2.4,1-2.6,2.2H192.9z"/>
	<path d="M199.6,23.5c0-0.4,0.3-0.6,0.6-0.6h1.2c0.3,0,0.5,0.2,0.6,0.4l0.5,1.2c0.6-0.6,2.1-2,4.4-2c1.9,0,3.2,0.7,4.3,2
		c0.6-0.6,2.3-2,4.6-2c4.2,0,5.8,3.1,5.8,6.6v6.3c0,0.3-0.3,0.6-0.6,0.6h-2.7c-0.4,0-0.6-0.3-0.6-0.6v-6.5c0-1.7-0.8-2.8-2.5-2.8
		c-1.9,0-2.8,1.4-2.8,1.4s0,0.7,0,1.2v6.7c0,0.3-0.3,0.6-0.6,0.6h-2.5c-0.4,0-0.6-0.3-0.6-0.6v-6.5c0-1.7-0.8-2.8-2.4-2.8
		c-1.6,0-2.4,1.2-2.8,2.1v7.2c0,0.3-0.3,0.6-0.6,0.6h-2.7c-0.3,0-0.6-0.3-0.6-0.6L199.6,23.5L199.6,23.5z"/>
	<path d="M231,22.5c3.7,0,6.8,3.2,6.8,6.9c0,3.8-3,7-6.8,7s-6.8-3.2-6.8-7C224.2,25.7,227.3,22.5,231,22.5z M231,32.8
		c1.8,0,3.2-1.5,3.2-3.4s-1.4-3.3-3.2-3.3s-3.2,1.5-3.2,3.3C227.8,31.3,229.2,32.8,231,32.8z"/>
	<path d="M246.7,22.5c2,0,3.6,0.8,4.9,2.3c0.2,0.3,0.2,0.7-0.2,0.9l-1.5,1.5c-0.3,0.3-0.6,0.1-0.8-0.1c-0.5-0.6-1.4-1-2.3-1
		c-1.8,0-3.2,1.5-3.2,3.4s1.4,3.4,3.2,3.4c1.4,0,2-0.7,2.6-1.2c0.2-0.2,0.6-0.3,0.8-0.1l1.4,1.2c0.3,0.3,0.5,0.6,0.2,0.9
		c-1.1,1.8-2.9,2.8-5.2,2.8c-3.7,0-7-3-7-6.9C239.6,25.6,243,22.5,246.7,22.5z"/>
	<path d="M254.7,23.5c0-0.4,0.3-0.6,0.6-0.6h1.2c0.3,0,0.5,0.2,0.6,0.4l0.5,1.3c0.5-0.7,1.7-2,3.7-2c1.5,0,2.9,0.5,2.5,1.3l-1.2,2.1
		c-0.2,0.3-0.5,0.4-0.8,0.3c-0.1,0-0.6-0.2-1-0.2c-1.3,0-2.1,0.9-2.3,1.4v8c0,0.5-0.3,0.6-0.8,0.6h-2.5c-0.3,0-0.6-0.3-0.6-0.6
		L254.7,23.5L254.7,23.5z"/>
	<path d="M270.3,27.7c1.3,0,2.4,0.4,2.4,0.4c0-1.7-0.5-2.3-1.7-2.3s-2.9,0.3-3.7,0.5c-0.5,0.1-0.7-0.2-0.8-0.6l-0.3-1.7
		c-0.1-0.5,0.2-0.7,0.5-0.8c0.3-0.1,2.4-0.6,4.5-0.6c4.1,0,5.1,2.1,5.1,5.7v7.2c0,0.3-0.3,0.6-0.6,0.6h-1.2c-0.2,0-0.4-0.1-0.6-0.5
		l-0.4-0.9c-0.8,0.7-2,1.7-4,1.7c-2.6,0-4.5-1.7-4.5-4.5C265,29.5,266.9,27.7,270.3,27.7z M270.3,33.6c1,0,2.1-0.9,2.3-1.3v-1.8
		c0,0-0.9-0.4-1.9-0.4c-1.3,0-2.1,0.7-2.1,1.8C268.6,32.8,269.3,33.6,270.3,33.6z"/>
	<path d="M280.7,26.3h-1.1c-0.3,0-0.6-0.3-0.6-0.6v-2.2c0-0.4,0.3-0.6,0.6-0.6h1.1v-3.7c0-0.3,0.3-0.6,0.6-0.6h2.7
		c0.3,0,0.6,0.3,0.6,0.6v3.7h2.9c0.4,0,0.6,0.3,0.6,0.6v2.2c0,0.3-0.3,0.6-0.6,0.6h-2.9v5.3c0,0.9,0.5,1.1,1,1.1
		c0.6,0,1.2-0.2,1.6-0.4c0.4-0.1,0.6,0,0.7,0.4l0.7,2.1c0.1,0.3,0,0.7-0.4,0.8c-0.2,0.1-2.3,0.9-3.9,0.9c-2.5,0-3.7-1.6-3.7-4.2
		L280.7,26.3L280.7,26.3z"/>
	<path d="M291.1,15.9c0-1.2,1-2.3,2.2-2.3c1.3,0,2.3,1,2.3,2.3s-1,2.3-2.3,2.3C292.1,18.2,291.1,17.2,291.1,15.9z M291.4,23.5
		c0-0.4,0.3-0.6,0.6-0.6h2.7c0.3,0,0.6,0.3,0.6,0.6v11.9c0,0.3-0.3,0.6-0.6,0.6H292c-0.3,0-0.6-0.3-0.6-0.6V23.5z"/>
	<path d="M305.4,22.5c2,0,3.6,0.8,4.9,2.3c0.2,0.3,0.2,0.7-0.2,0.9l-1.5,1.5c-0.3,0.3-0.6,0.1-0.8-0.1c-0.5-0.6-1.4-1-2.3-1
		c-1.8,0-3.2,1.5-3.2,3.4s1.4,3.4,3.2,3.4c1.4,0,2-0.7,2.6-1.2c0.2-0.2,0.6-0.3,0.8-0.1l1.4,1.2c0.3,0.3,0.5,0.6,0.2,0.9
		c-1.1,1.8-2.9,2.8-5.2,2.8c-3.7,0-7-3-7-6.9C298.3,25.6,301.7,22.5,305.4,22.5z"/>
	<path d="M321.7,13.6c0-0.3,0.3-0.6,0.6-0.6h7.8c4,0,7.4,3.3,7.4,7.3c0,4.1-3.3,7.4-7.4,7.4H326v7.7c0,0.3-0.3,0.6-0.6,0.6h-3
		c-0.4,0-0.6-0.3-0.6-0.6V13.6H321.7z M329.8,23.7c1.9,0,3.4-1.5,3.4-3.4c0-1.8-1.5-3.2-3.4-3.2H326v6.6H329.8L329.8,23.7z"/>
	<path d="M339.3,23.5c0-0.4,0.3-0.6,0.6-0.6h1.2c0.3,0,0.5,0.2,0.6,0.4l0.5,1.3c0.5-0.7,1.7-2,3.7-2c1.5,0,2.9,0.5,2.5,1.3l-1.2,2.1
		c-0.2,0.3-0.5,0.4-0.8,0.3c-0.1,0-0.6-0.2-1-0.2c-1.3,0-2.1,0.9-2.3,1.4v8c0,0.5-0.3,0.6-0.8,0.6h-2.5c-0.3,0-0.6-0.3-0.6-0.6
		L339.3,23.5L339.3,23.5z"/>
	<path d="M350.2,15.9c0-1.2,1-2.3,2.2-2.3c1.3,0,2.3,1,2.3,2.3s-1,2.3-2.3,2.3C351.2,18.2,350.2,17.2,350.2,15.9z M350.5,23.5
		c0-0.4,0.3-0.6,0.6-0.6h2.7c0.3,0,0.6,0.3,0.6,0.6v11.9c0,0.3-0.3,0.6-0.6,0.6h-2.7c-0.3,0-0.6-0.3-0.6-0.6V23.5z"/>
	<path d="M358.5,23.5c0-0.4,0.3-0.6,0.6-0.6h1.2c0.3,0,0.5,0.2,0.6,0.4l0.5,1.2c0.6-0.6,2.1-2,4.4-2c1.9,0,3.2,0.7,4.3,2
		c0.6-0.6,2.3-2,4.6-2c4.2,0,5.8,3.1,5.8,6.6v6.3c0,0.3-0.3,0.6-0.6,0.6h-2.7c-0.4,0-0.6-0.3-0.6-0.6v-6.5c0-1.7-0.8-2.8-2.5-2.8
		c-1.9,0-2.8,1.4-2.8,1.4s0,0.7,0,1.2v6.7c0,0.3-0.3,0.6-0.6,0.6h-2.5c-0.4,0-0.6-0.3-0.6-0.6v-6.5c0-1.7-0.8-2.8-2.4-2.8
		s-2.4,1.2-2.8,2.1v7.2c0,0.3-0.3,0.6-0.6,0.6h-2.7c-0.3,0-0.6-0.3-0.6-0.6L358.5,23.5L358.5,23.5z"/>
	<path d="M388.5,27.7c1.3,0,2.4,0.4,2.4,0.4c0-1.7-0.5-2.3-1.7-2.3s-2.9,0.3-3.7,0.5c-0.5,0.1-0.7-0.2-0.8-0.6l-0.3-1.7
		c-0.1-0.5,0.2-0.7,0.5-0.8c0.3-0.1,2.4-0.6,4.5-0.6c4.1,0,5.1,2.1,5.1,5.7v7.2c0,0.3-0.3,0.6-0.6,0.6h-1.2c-0.2,0-0.4-0.1-0.6-0.5
		l-0.4-0.9c-0.8,0.7-2,1.7-4,1.7c-2.6,0-4.5-1.7-4.5-4.5C383.2,29.5,385.1,27.7,388.5,27.7z M388.5,33.6c1,0,2.1-0.9,2.3-1.3v-1.8
		c0,0-0.9-0.4-1.9-0.4c-1.3,0-2.1,0.7-2.1,1.8C386.8,32.8,387.5,33.6,388.5,33.6z"/>
	<path d="M398.2,23.5c0-0.4,0.3-0.6,0.6-0.6h1.2c0.3,0,0.5,0.2,0.6,0.4l0.5,1.3c0.5-0.7,1.7-2,3.7-2c1.5,0,2.9,0.5,2.5,1.3l-1.2,2.1
		c-0.2,0.3-0.5,0.4-0.8,0.3c-0.1,0-0.6-0.2-1-0.2c-1.3,0-2.1,0.9-2.3,1.4v8c0,0.5-0.3,0.6-0.8,0.6h-2.5c-0.3,0-0.6-0.3-0.6-0.6
		L398.2,23.5L398.2,23.5z"/>
	<path d="M408.3,23.7c-0.2-0.4,0.1-0.9,0.6-0.9h3c0.3,0,0.5,0.2,0.6,0.4l3.3,7.4l0,0l3.3-7.5c0.2-0.3,0.4-0.4,0.8-0.4h2.6
		c0.5,0,0.8,0.4,0.6,0.9L413,45.5c-0.1,0.2-0.3,0.4-0.6,0.4h-2.8c-0.5,0-0.8-0.4-0.6-0.9l4.7-9.9L408.3,23.7z"/>
	<path d="M433.6,13.6c0-0.3,0.3-0.6,0.6-0.6h13.4c0.4,0,0.6,0.3,0.6,0.6v2.7c0,0.3-0.3,0.6-0.6,0.6h-9.8v6.2h8.1
		c0.3,0,0.6,0.3,0.6,0.6v2.7c0,0.3-0.3,0.6-0.6,0.6h-8.1v8.3c0,0.3-0.3,0.6-0.6,0.6h-3c-0.4,0-0.6-0.3-0.6-0.6V13.6L433.6,13.6z"/>
	<path d="M455.8,22.5c3.7,0,6.8,3.2,6.8,6.9c0,3.8-3,7-6.8,7s-6.8-3.2-6.8-7C449,25.7,452,22.5,455.8,22.5z M455.8,32.8
		c1.8,0,3.2-1.5,3.2-3.4s-1.4-3.3-3.2-3.3c-1.8,0-3.2,1.5-3.2,3.3C452.6,31.3,454,32.8,455.8,32.8z"/>
	<path d="M465.5,23.5c0-0.4,0.3-0.6,0.6-0.6h1.2c0.3,0,0.5,0.2,0.6,0.4l0.5,1.3c0.5-0.7,1.7-2,3.7-2c1.5,0,2.9,0.5,2.5,1.3l-1.2,2.1
		c-0.2,0.3-0.5,0.4-0.8,0.3c-0.1,0-0.6-0.2-1-0.2c-1.3,0-2.1,0.9-2.3,1.4v8c0,0.5-0.3,0.6-0.8,0.6H466c-0.3,0-0.6-0.3-0.6-0.6
		L465.5,23.5L465.5,23.5z"/>
	<path d="M482.3,22.5c3.4,0,6.2,2.6,6.2,6.1c0,0.2,0,0.7-0.1,0.9c0,0.3-0.3,0.6-0.6,0.6h-8.4c0.1,1.4,1.2,2.9,3.2,2.9
		c1,0,2-0.4,2.6-0.8c0.3-0.2,0.6-0.3,0.9,0l1.4,1.5c0.2,0.2,0.3,0.6,0,0.9c-1.1,1-2.8,1.8-4.9,1.8c-4,0-6.8-3.1-6.8-6.9
		C475.6,25.7,478.4,22.5,482.3,22.5z M484.6,27.8c-0.1-1.2-1.1-2.2-2.4-2.2s-2.4,1-2.6,2.2H484.6z"/>
	<path d="M497.2,22.5c2,0,3.6,0.8,4.9,2.3c0.2,0.3,0.2,0.7-0.2,0.9l-1.5,1.5c-0.3,0.3-0.6,0.1-0.8-0.1c-0.5-0.6-1.4-1-2.3-1
		c-1.8,0-3.2,1.5-3.2,3.4s1.4,3.4,3.2,3.4c1.4,0,2-0.7,2.6-1.2c0.2-0.2,0.6-0.3,0.8-0.1l1.4,1.2c0.3,0.3,0.5,0.6,0.2,0.9
		c-1.1,1.8-2.9,2.8-5.2,2.8c-3.7,0-7-3-7-6.9C490.2,25.6,493.6,22.5,497.2,22.5z"/>
	<path d="M509.6,27.7c1.3,0,2.4,0.4,2.4,0.4c0-1.7-0.5-2.3-1.7-2.3s-2.9,0.3-3.7,0.5c-0.5,0.1-0.7-0.2-0.8-0.6l-0.3-1.7
		c-0.1-0.5,0.2-0.7,0.5-0.8c0.3-0.1,2.4-0.6,4.5-0.6c4.1,0,5.1,2.1,5.1,5.7v7.2c0,0.3-0.3,0.6-0.6,0.6h-1.2c-0.2,0-0.4-0.1-0.6-0.5
		l-0.4-0.9c-0.8,0.7-2,1.7-4,1.7c-2.6,0-4.5-1.7-4.5-4.5C504.3,29.5,506.2,27.7,509.6,27.7z M509.7,33.6c1,0,2.1-0.9,2.3-1.3v-1.8
		c0,0-0.9-0.4-1.9-0.4c-1.3,0-2.1,0.7-2.1,1.8C508,32.8,508.7,33.6,509.7,33.6z"/>
	<path d="M518.7,34.5l0.9-1.8c0.1-0.3,0.5-0.4,0.8-0.2c0,0,1.5,0.8,3,0.8c0.7,0,1.1-0.3,1.1-0.8c0-0.6-0.5-1-2.2-1.6
		c-2.5-1-3.7-2.3-3.7-4.4s1.5-3.9,4.8-3.9c2,0,3.4,0.6,4,1c0.3,0.2,0.5,0.6,0.3,0.9l-0.8,1.7c-0.2,0.3-0.5,0.3-0.8,0.2
		c0,0-1.5-0.7-2.7-0.7c-0.8,0-1.1,0.3-1.1,0.8c0,0.6,0.6,0.8,1.8,1.3c2.5,1,4.5,2.1,4.5,4.7c0,2.2-1.9,4-5.2,4
		c-2.2,0-3.7-0.7-4.4-1.2C518.7,35,518.5,34.7,518.7,34.5z"/>
	<path d="M532.1,26.3H531c-0.3,0-0.6-0.3-0.6-0.6v-2.2c0-0.4,0.3-0.6,0.6-0.6h1.1v-3.7c0-0.3,0.3-0.6,0.6-0.6h2.7
		c0.3,0,0.6,0.3,0.6,0.6v3.7h2.9c0.4,0,0.6,0.3,0.6,0.6v2.2c0,0.3-0.3,0.6-0.6,0.6H536v5.3c0,0.9,0.5,1.1,1,1.1
		c0.6,0,1.2-0.2,1.6-0.4c0.4-0.1,0.6,0,0.7,0.4l0.7,2.1c0.1,0.3,0,0.7-0.4,0.8c-0.2,0.1-2.3,0.9-3.9,0.9c-2.5,0-3.7-1.6-3.7-4.2
		L532.1,26.3L532.1,26.3z"/>
</g>
<g enable-background="new    ">
	<path d="M239.8,52.6c1.3,0,2.3,0.5,3.1,1.5c0.1,0.2,0.1,0.4-0.1,0.6l-1,0.9c-0.2,0.2-0.4,0.1-0.5-0.1c-0.3-0.4-0.9-0.7-1.4-0.7
		c-1.1,0-2.1,1-2.1,2.1c0,1.2,0.9,2.1,2,2.1c0.9,0,1.3-0.4,1.7-0.8c0.1-0.2,0.4-0.2,0.5-0.1l0.9,0.8c0.2,0.2,0.3,0.4,0.1,0.6
		c-0.7,1.1-1.8,1.8-3.3,1.8c-2.4,0-4.4-1.9-4.4-4.4C235.3,54.6,237.4,52.6,239.8,52.6z"/>
	<path d="M244.9,47c0-0.2,0.2-0.4,0.4-0.4h1.8c0.2,0,0.4,0.2,0.4,0.4v13.9c0,0.2-0.2,0.4-0.4,0.4h-1.8c-0.2,0-0.4-0.2-0.4-0.4V47z"
		/>
	<path d="M249.8,48.4c0-0.8,0.6-1.5,1.4-1.5c0.8,0,1.5,0.7,1.5,1.5s-0.6,1.5-1.5,1.5C250.4,49.9,249.8,49.2,249.8,48.4z M250,53.2
		c0-0.2,0.2-0.4,0.4-0.4h1.7c0.2,0,0.4,0.2,0.4,0.4v7.6c0,0.2-0.2,0.4-0.4,0.4h-1.7c-0.2,0-0.4-0.2-0.4-0.4V53.2z"/>
	<path d="M258.9,52.6c1.3,0,2.3,0.5,3.1,1.5c0.1,0.2,0.1,0.4-0.1,0.6l-1,0.9c-0.2,0.2-0.4,0.1-0.5-0.1c-0.3-0.4-0.9-0.7-1.5-0.7
		c-1.1,0-2.1,1-2.1,2.1c0,1.2,0.9,2.1,2,2.1c0.9,0,1.3-0.4,1.7-0.8c0.1-0.2,0.4-0.2,0.5-0.1l0.9,0.8c0.2,0.2,0.3,0.4,0.1,0.6
		c-0.7,1.1-1.8,1.8-3.3,1.8c-2.4,0-4.4-1.9-4.4-4.4C254.4,54.6,256.5,52.6,258.9,52.6z"/>
	<path d="M264,47c0-0.2,0.2-0.4,0.4-0.4h1.8c0.2,0,0.4,0.2,0.4,0.4v9l2.9-2.9c0.1-0.1,0.3-0.2,0.5-0.2h1.9c0.4,0,0.5,0.4,0.3,0.6
		l-3.1,3.2l3.7,4c0.2,0.2,0.1,0.6-0.3,0.6h-2.3c-0.1,0-0.3-0.1-0.4-0.2l-3.3-3.8v3.5c0,0.2-0.2,0.4-0.4,0.4h-1.8
		c-0.2,0-0.4-0.2-0.4-0.4L264,47L264,47z"/>
	<path d="M282.8,52.6c1.3,0,2.3,0.5,3.1,1.5c0.1,0.2,0.1,0.4-0.1,0.6l-1,0.9c-0.2,0.2-0.4,0.1-0.5-0.1c-0.3-0.4-0.9-0.7-1.5-0.7
		c-1.1,0-2.1,1-2.1,2.1c0,1.2,0.9,2.1,2,2.1c0.9,0,1.3-0.4,1.7-0.8c0.1-0.2,0.4-0.2,0.5-0.1l0.9,0.8c0.2,0.2,0.3,0.4,0.1,0.6
		c-0.7,1.1-1.8,1.8-3.3,1.8c-2.4,0-4.5-1.9-4.5-4.4C278.3,54.6,280.4,52.6,282.8,52.6z"/>
	<path d="M287.7,48.4c0-0.8,0.6-1.5,1.4-1.5s1.5,0.7,1.5,1.5s-0.6,1.5-1.5,1.5C288.3,49.9,287.7,49.2,287.7,48.4z M287.9,53.2
		c0-0.2,0.2-0.4,0.4-0.4h1.7c0.2,0,0.4,0.2,0.4,0.4v7.6c0,0.2-0.2,0.4-0.4,0.4h-1.7c-0.2,0-0.4-0.2-0.4-0.4V53.2z"/>
	<path d="M292.9,53.2c0-0.2,0.2-0.4,0.4-0.4h0.8c0.2,0,0.3,0.1,0.4,0.3l0.3,0.8c0.3-0.4,1.1-1.3,2.4-1.3c1,0,1.9,0.3,1.6,0.8
		l-0.8,1.4c-0.1,0.2-0.3,0.3-0.5,0.2c-0.1,0-0.4-0.1-0.6-0.1c-0.8,0-1.3,0.6-1.5,0.9v5.1c0,0.3-0.2,0.4-0.5,0.4h-1.6
		c-0.2,0-0.4-0.2-0.4-0.4L292.9,53.2L292.9,53.2z"/>
	<path d="M303.8,52.6c1.3,0,2.3,0.5,3.1,1.5c0.1,0.2,0.1,0.4-0.1,0.6l-1,0.9c-0.2,0.2-0.4,0.1-0.5-0.1c-0.3-0.4-0.9-0.7-1.5-0.7
		c-1.1,0-2.1,1-2.1,2.1c0,1.2,0.9,2.1,2,2.1c0.9,0,1.3-0.4,1.7-0.8c0.1-0.2,0.4-0.2,0.5-0.1l0.9,0.8c0.2,0.2,0.3,0.4,0.1,0.6
		c-0.7,1.1-1.8,1.8-3.3,1.8c-2.4,0-4.5-1.9-4.5-4.4C299.4,54.6,301.5,52.6,303.8,52.6z"/>
	<path d="M309,47c0-0.2,0.2-0.4,0.4-0.4h1.8c0.2,0,0.4,0.2,0.4,0.4v13.9c0,0.2-0.2,0.4-0.4,0.4h-1.8c-0.2,0-0.4-0.2-0.4-0.4V47z"/>
	<path d="M317.7,52.6c2.2,0,3.9,1.6,3.9,3.9c0,0.2,0,0.4,0,0.6c0,0.2-0.2,0.4-0.4,0.4h-5.4c0.1,0.9,0.8,1.8,2,1.8
		c0.6,0,1.3-0.2,1.6-0.5c0.2-0.1,0.4-0.2,0.5,0l0.9,1c0.1,0.2,0.2,0.4,0,0.5c-0.7,0.7-1.8,1.2-3.1,1.2c-2.5,0-4.3-2-4.3-4.4
		C313.4,54.7,315.2,52.6,317.7,52.6z M319.2,56c-0.1-0.8-0.7-1.4-1.5-1.4s-1.5,0.6-1.6,1.4H319.2z"/>
	<path d="M328.5,55h-0.7c-0.2,0-0.4-0.2-0.4-0.4v-1.4c0-0.2,0.2-0.4,0.4-0.4h0.7v-2.3c0-2.8,1.7-4.2,3.9-4.2c1.1,0,2.1,0.5,2.5,0.8
		c0.1,0.1,0.2,0.3,0.1,0.5l-0.7,1.3c-0.1,0.2-0.3,0.2-0.5,0.1c-0.3-0.2-0.8-0.4-1.2-0.4c-0.9,0-1.4,0.7-1.4,1.9v2.3h2.1
		c0.2,0,0.4,0.2,0.4,0.4v1.4c0,0.2-0.2,0.4-0.4,0.4h-2.1v5.8c0,0.2-0.2,0.4-0.4,0.4H329c-0.2,0-0.4-0.2-0.4-0.4L328.5,55L328.5,55z"
		/>
	<path d="M338.9,52.6c2.4,0,4.3,2,4.3,4.4s-1.9,4.4-4.3,4.4s-4.3-2-4.3-4.4C334.6,54.7,336.5,52.6,338.9,52.6z M338.9,59.2
		c1.1,0,2-1,2-2.2s-0.9-2.1-2-2.1s-2,0.9-2,2.1C336.9,58.2,337.8,59.2,338.9,59.2z"/>
	<path d="M345.1,53.2c0-0.2,0.2-0.4,0.4-0.4h0.8c0.2,0,0.3,0.1,0.4,0.3l0.3,0.8c0.3-0.4,1.1-1.3,2.4-1.3c1,0,1.9,0.3,1.6,0.8
		l-0.8,1.4c-0.1,0.2-0.3,0.3-0.5,0.2c-0.1,0-0.4-0.1-0.6-0.1c-0.8,0-1.3,0.6-1.5,0.9v5.1c0,0.3-0.2,0.4-0.5,0.4h-1.6
		c-0.2,0-0.4-0.2-0.4-0.4L345.1,53.2L345.1,53.2z"/>
	<path d="M356.4,60.2l0.6-1.1c0.1-0.2,0.3-0.2,0.5-0.2c0,0,0.9,0.5,1.9,0.5c0.4,0,0.7-0.2,0.7-0.5c0-0.4-0.3-0.6-1.4-1
		c-1.6-0.6-2.4-1.5-2.4-2.8s0.9-2.5,3.1-2.5c1.2,0,2.1,0.4,2.6,0.7c0.2,0.1,0.3,0.4,0.2,0.6l-0.5,1.1c-0.1,0.2-0.3,0.2-0.5,0.2
		c0,0-0.9-0.4-1.7-0.4c-0.5,0-0.7,0.2-0.7,0.5c0,0.4,0.4,0.5,1.1,0.8c1.6,0.6,2.8,1.3,2.8,3c0,1.4-1.2,2.6-3.3,2.6
		c-1.4,0-2.4-0.4-2.8-0.8C356.4,60.6,356.3,60.4,356.4,60.2z"/>
	<path d="M365,55h-0.7c-0.2,0-0.4-0.2-0.4-0.4v-1.4c0-0.2,0.2-0.4,0.4-0.4h0.7v-2.3c0-0.2,0.2-0.4,0.4-0.4h1.7
		c0.2,0,0.4,0.2,0.4,0.4v2.3h1.9c0.2,0,0.4,0.2,0.4,0.4v1.4c0,0.2-0.2,0.4-0.4,0.4h-1.9v3.4c0,0.6,0.3,0.7,0.6,0.7
		c0.4,0,0.8-0.2,1-0.2s0.4,0,0.5,0.2l0.4,1.3c0.1,0.2,0,0.4-0.2,0.5c-0.1,0.1-1.5,0.5-2.5,0.5c-1.6,0-2.3-1-2.3-2.7V55z"/>
	<path d="M374.5,55.9c0.8,0,1.5,0.2,1.5,0.2c0-1.1-0.3-1.5-1.1-1.5s-1.9,0.2-2.4,0.3c-0.3,0.1-0.4-0.1-0.5-0.4l-0.2-1.1
		c-0.1-0.3,0.1-0.5,0.3-0.5c0.2-0.1,1.5-0.4,2.9-0.4c2.6,0,3.2,1.4,3.2,3.7v4.6c0,0.2-0.2,0.4-0.4,0.4H377c-0.1,0-0.2-0.1-0.4-0.3
		l-0.2-0.6c-0.5,0.4-1.3,1.1-2.6,1.1c-1.7,0-2.8-1.1-2.8-2.9C371.1,57.1,372.4,55.9,374.5,55.9z M374.6,59.7c0.7,0,1.3-0.6,1.5-0.8
		v-1.1c0,0-0.6-0.2-1.2-0.2c-0.8,0-1.4,0.5-1.4,1.1C373.5,59.2,373.9,59.7,374.6,59.7z"/>
	<path d="M381.2,55h-0.7c-0.2,0-0.4-0.2-0.4-0.4v-1.4c0-0.2,0.2-0.4,0.4-0.4h0.7v-2.3c0-0.2,0.2-0.4,0.4-0.4h1.7
		c0.2,0,0.4,0.2,0.4,0.4v2.3h1.9c0.2,0,0.4,0.2,0.4,0.4v1.4c0,0.2-0.2,0.4-0.4,0.4h-1.9v3.4c0,0.6,0.3,0.7,0.6,0.7
		c0.4,0,0.8-0.2,1-0.2s0.4,0,0.5,0.2l0.4,1.3c0.1,0.2,0,0.4-0.2,0.5c-0.1,0.1-1.5,0.5-2.5,0.5c-1.6,0-2.3-1-2.3-2.7V55z"/>
	<path d="M391.6,52.6c2.2,0,3.9,1.6,3.9,3.9c0,0.2,0,0.4,0,0.6c0,0.2-0.2,0.4-0.4,0.4h-5.4c0.1,0.9,0.8,1.8,2,1.8
		c0.6,0,1.3-0.2,1.6-0.5c0.2-0.1,0.4-0.2,0.5,0l0.9,1c0.1,0.2,0.2,0.4,0,0.5c-0.7,0.7-1.8,1.2-3.1,1.2c-2.5,0-4.3-2-4.3-4.4
		C387.4,54.7,389.1,52.6,391.6,52.6z M393.1,56c-0.1-0.8-0.7-1.4-1.5-1.4s-1.5,0.6-1.6,1.4H393.1z"/>
	<path d="M402.5,55h-0.7c-0.2,0-0.4-0.2-0.4-0.4v-1.4c0-0.2,0.2-0.4,0.4-0.4h0.7v-2.3c0-2.8,1.7-4.2,3.9-4.2c1.1,0,2.1,0.5,2.5,0.8
		c0.1,0.1,0.2,0.3,0.1,0.5l-0.7,1.3c-0.1,0.2-0.3,0.2-0.5,0.1c-0.3-0.2-0.8-0.4-1.2-0.4c-0.9,0-1.4,0.7-1.4,1.9v2.3h2.1
		c0.2,0,0.4,0.2,0.4,0.4v1.4c0,0.2-0.2,0.4-0.4,0.4h-2.1v5.8c0,0.2-0.2,0.4-0.4,0.4H403c-0.2,0-0.4-0.2-0.4-0.4L402.5,55L402.5,55z"
		/>
	<path d="M412.8,52.6c2.4,0,4.3,2,4.3,4.4s-1.9,4.4-4.3,4.4s-4.3-2-4.3-4.4C408.5,54.7,410.5,52.6,412.8,52.6z M412.8,59.2
		c1.1,0,2-1,2-2.2s-0.9-2.1-2-2.1s-2,0.9-2,2.1C410.8,58.2,411.7,59.2,412.8,59.2z"/>
	<path d="M419,53.2c0-0.2,0.2-0.4,0.4-0.4h0.8c0.2,0,0.3,0.1,0.4,0.3l0.3,0.8c0.3-0.4,1.1-1.3,2.4-1.3c1,0,1.9,0.3,1.6,0.8l-0.8,1.4
		c-0.1,0.2-0.3,0.3-0.5,0.2c-0.1,0-0.4-0.1-0.6-0.1c-0.8,0-1.3,0.6-1.5,0.9v5.1c0,0.3-0.2,0.4-0.5,0.4h-1.6c-0.2,0-0.4-0.2-0.4-0.4
		L419,53.2L419,53.2z"/>
	<path d="M429.8,52.6c2.2,0,3.9,1.6,3.9,3.9c0,0.2,0,0.4,0,0.6c0,0.2-0.2,0.4-0.4,0.4h-5.4c0.1,0.9,0.8,1.8,2,1.8
		c0.6,0,1.3-0.2,1.6-0.5c0.2-0.1,0.4-0.2,0.5,0l0.9,1c0.1,0.2,0.2,0.4,0,0.5c-0.7,0.7-1.8,1.2-3.1,1.2c-2.5,0-4.3-2-4.3-4.4
		C425.5,54.7,427.3,52.6,429.8,52.6z M431.2,56c-0.1-0.8-0.7-1.4-1.5-1.4s-1.5,0.6-1.6,1.4H431.2z"/>
	<path d="M439.3,52.6c1.3,0,2.3,0.5,3.1,1.5c0.1,0.2,0.1,0.4-0.1,0.6l-1,0.9c-0.2,0.2-0.4,0.1-0.5-0.1c-0.3-0.4-0.9-0.7-1.5-0.7
		c-1.1,0-2.1,1-2.1,2.1c0,1.2,0.9,2.1,2,2.1c0.9,0,1.3-0.4,1.7-0.8c0.1-0.2,0.4-0.2,0.5-0.1l0.9,0.8c0.2,0.2,0.3,0.4,0.1,0.6
		c-0.7,1.1-1.8,1.8-3.3,1.8c-2.4,0-4.5-1.9-4.5-4.4C434.8,54.6,436.9,52.6,439.3,52.6z"/>
	<path d="M447.1,55.9c0.8,0,1.5,0.2,1.5,0.2c0-1.1-0.3-1.5-1.1-1.5c-0.8,0-1.9,0.2-2.4,0.3c-0.3,0.1-0.4-0.1-0.5-0.4l-0.2-1.1
		c-0.1-0.3,0.1-0.5,0.3-0.5c0.2-0.1,1.5-0.4,2.9-0.4c2.6,0,3.2,1.4,3.2,3.7v4.6c0,0.2-0.2,0.4-0.4,0.4h-0.8c-0.1,0-0.2-0.1-0.4-0.3
		l-0.2-0.6c-0.5,0.4-1.3,1.1-2.6,1.1c-1.7,0-2.8-1.1-2.8-2.9C443.8,57.1,445,55.9,447.1,55.9z M447.2,59.7c0.7,0,1.3-0.6,1.5-0.8
		v-1.1c0,0-0.6-0.2-1.2-0.2c-0.8,0-1.4,0.5-1.4,1.1C446.1,59.2,446.5,59.7,447.2,59.7z"/>
	<path d="M452.9,60.2l0.6-1.1c0.1-0.2,0.3-0.2,0.5-0.2c0,0,0.9,0.5,1.9,0.5c0.4,0,0.7-0.2,0.7-0.5c0-0.4-0.3-0.6-1.4-1
		c-1.6-0.6-2.4-1.5-2.4-2.8s1-2.5,3.1-2.5c1.2,0,2.1,0.4,2.6,0.7c0.2,0.1,0.3,0.4,0.2,0.6l-0.5,1.1c-0.1,0.2-0.3,0.2-0.5,0.2
		c0,0-0.9-0.4-1.7-0.4c-0.5,0-0.7,0.2-0.7,0.5c0,0.4,0.4,0.5,1.1,0.8c1.6,0.6,2.8,1.3,2.8,3c0,1.4-1.2,2.6-3.3,2.6
		c-1.4,0-2.4-0.4-2.8-0.8C452.9,60.6,452.8,60.4,452.9,60.2z"/>
	<path d="M461.5,55h-0.7c-0.2,0-0.4-0.2-0.4-0.4v-1.4c0-0.2,0.2-0.4,0.4-0.4h0.7v-2.3c0-0.2,0.2-0.4,0.4-0.4h1.7
		c0.2,0,0.4,0.2,0.4,0.4v2.3h1.9c0.2,0,0.4,0.2,0.4,0.4v1.4c0,0.2-0.2,0.4-0.4,0.4H464v3.4c0,0.6,0.3,0.7,0.6,0.7
		c0.4,0,0.8-0.2,1-0.2c0.2-0.1,0.4,0,0.5,0.2l0.4,1.3c0.1,0.2,0,0.4-0.2,0.5c-0.1,0.1-1.5,0.5-2.5,0.5c-1.6,0-2.3-1-2.3-2.7V55z"/>
</g>
<g id="DjLiZo.tif">
	<g>
		<path fill="#DEB8F9" d="M725.4,373.5c0,6.2-5.1,11.1-11.3,11.1c-6.1,0-11-5.1-11-11.3c0-6.2,5.1-11.1,11.3-11.1
			C720.4,362.2,725.4,367.3,725.4,373.5z"/>
		<path fill="#75F99A" d="M714.2,192.5c-6.2,0-11.2-5-11.2-11.2s5-11.3,11.2-11.2c6.2,0,11.1,5.1,11.1,11.2
			C725.4,187.5,720.4,192.5,714.2,192.5z"/>
		<path fill="#59ADF8" d="M725.4,277.4c0,6.2-5,11.2-11.2,11.2s-11.2-5.1-11.2-11.3c0-6.1,5.1-11.1,11.3-11.1
			C720.4,266.2,725.4,271.2,725.4,277.4z"/>
		<path fill="#751A7C" d="M714.2,426.2c6.2,0,11.2,5,11.2,11.1c0,6.2-5,11.3-11.2,11.3s-11.2-5-11.2-11.2
			C703,431.3,708,426.3,714.2,426.2z"/>
		<path fill="#A73DF5" d="M714.2,416.6c-6.2,0-11.2-5-11.2-11.2s5-11.3,11.3-11.2c6.2,0,11.1,5.1,11.1,11.2
			C725.4,411.6,720.3,416.6,714.2,416.6z"/>
		<path fill="#4FAC5B" d="M714.2,224.5c-6.2,0-11.2-5-11.2-11.2s5-11.3,11.3-11.2c6.2,0,11.1,5.1,11.1,11.2
			C725.4,219.5,720.4,224.5,714.2,224.5z"/>
		<path fill="#2A6344" d="M725.4,245.3c0,6.2-5,11.2-11.1,11.2c-6.2,0-11.3-5-11.3-11.2s5-11.2,11.2-11.2S725.4,239.1,725.4,245.3z"
			/>
		<path fill="#2E79F6" d="M725.4,309.4c0,6.2-5,11.2-11.2,11.2s-11.2-5-11.2-11.3c0-6.2,5-11.1,11.2-11.1S725.4,303.2,725.4,309.4z"
			/>
		<path fill="#0D2F63" d="M725.4,341.4c0,6.2-5,11.2-11.2,11.2s-11.2-5-11.2-11.3c0-6.1,5.1-11.1,11.2-11.1
			C720.4,330.2,725.4,335.2,725.4,341.4z"/>
		<path fill="#A73DF5" d="M749,406c0.7-2.5,1.3-5.1,1.9-7.6c0.2-0.8,0.5-1,1.3-1s1.2,0.2,0.9,1.1c-1.1,4-2.2,7.9-3.3,11.9
			c-0.1,0.4-0.2,0.8-0.7,0.8s-0.6-0.4-0.8-0.8c-1-2.8-2-5.7-3.1-8.9c-0.8,2.4-1.6,4.5-2.3,6.6c-0.3,0.8-0.5,1.5-0.8,2.3
			c-0.1,0.4-0.2,0.8-0.8,0.8c-0.5,0-0.6-0.5-0.7-0.9c-0.8-2.9-1.6-5.7-2.4-8.6c-0.3-1-0.6-2-0.8-3.1c-0.1-0.5-0.5-1.1,0.4-1.2
			c0.6-0.1,1.4-0.3,1.7,0.7c0.5,2.1,1.1,4.3,1.7,6.4c0.1,0.5,0.2,0.9,0.5,1.7c0.9-2.5,1.6-4.8,2.5-7c0.3-0.7,0.2-2,1.2-2
			c1.1,0,1,1.3,1.2,2.1c0.8,2.2,1.6,4.4,2.4,6.6C748.9,406,748.9,406,749,406z"/>
		<path fill="#75F99A" d="M738.4,180.1c0-1.9,0-3.7,0-5.6c0-1,0.3-1.2,1.2-1.2c1.3,0.1,2.6,0,3.9,0c1.6,0.1,2.8,0.8,3.5,2.3
			c0.6,1.4,0.2,2.7-0.8,3.8c-0.5,0.5-0.5,0.7,0.1,1.1c1.4,1,1.7,2.4,1.2,3.9c-0.5,1.6-1.8,2.4-3.4,2.5c-1.5,0.1-3.1,0-4.7,0
			c-0.7,0-0.9-0.3-0.9-1C738.4,184,738.4,182,738.4,180.1z"/>
		<path fill="#59ADF8" d="M738.4,276.2c0-1.9,0-3.7,0-5.6c0-1,0.3-1.3,1.3-1.3c1.2,0.1,2.4,0,3.6,0c1.6,0.1,2.9,0.6,3.6,2.1
			c0.7,1.5,0.3,2.9-0.8,4c-0.4,0.4-0.4,0.7,0.1,1c1.5,0.9,1.7,2.4,1.3,3.9c-0.5,1.6-1.8,2.4-3.4,2.6c-1.6,0.1-3.2,0-4.8,0
			c-0.8,0-0.8-0.5-0.8-1C738.4,280,738.4,278.1,738.4,276.2z"/>
		<path fill="#4FAC5B" d="M738.4,212.1c0-1.9,0-3.7,0-5.6c0-0.9,0.2-1.3,1.2-1.2c1.3,0.1,2.7,0,4,0.1c1.5,0.1,2.8,0.7,3.4,2.2
			s0.2,2.8-0.9,3.9c-0.4,0.4-0.5,0.6,0,1c1.5,0.9,1.8,2.3,1.3,3.8c-0.5,1.6-1.7,2.5-3.3,2.6s-3.3,0-4.9,0.1c-0.7,0-0.8-0.4-0.8-0.9
			C738.4,216,738.4,214.1,738.4,212.1z"/>
		<path fill="#2A6344" d="M745.5,244c2,1.5,2.5,2.6,1.9,4.3c-0.5,1.6-2,2.6-4.2,2.6c-1.2,0-2.5,0-3.7,0c-0.8,0-1.1-0.2-1.1-1
			c0-3.9,0-7.7,0-11.6c0-0.7,0.2-1,1-1c1.2,0.1,2.5,0,3.7,0c1.7,0.1,3.2,0.6,3.8,2.3C747.5,241.2,747.1,242.4,745.5,244z"/>
		<path fill="#59ADF8" d="M781.1,274.9c0.6,0,1.2,0,1.9,0c0.3,0,0.6,0.1,0.7,0.5c0.1,0.3,0,0.7-0.3,0.8c-0.7,0.2-0.5,0.6-0.4,1.1
			c0.8,2.6-0.7,4.4-3.5,4.4c-0.6,0-1.8-0.7-1.8,0.5s1.1,0.6,1.8,0.7s1.4,0,2.1,0.1c1.2,0.2,2.1,0.8,2.4,2c0.3,1.2-0.2,2.3-1.2,3
			c-1.4,1.1-4.4,1.1-5.8,0c-1-0.7-1.3-1.9-0.6-3.1c0.2-0.4,0.5-0.6,0-1.1c-1-1-0.8-2-0.1-3.1c0.2-0.3,0.5-0.5,0.5-1
			C776.4,275.9,777.2,274.9,781.1,274.9z"/>
		<path fill="#59ADF8" d="M802.9,274.9c0.6,0,1.2,0,1.7,0c0.3,0,0.7,0,0.7,0.4c0,0.3,0.1,0.7-0.2,0.8c-0.7,0.2-0.5,0.6-0.4,1.1
			c0.8,2.6-0.7,4.4-3.4,4.4c-0.3,0-0.7,0-1.1-0.1c-0.5-0.1-0.9,0.1-1,0.6c0,0.5,0.4,0.7,0.9,0.7c0.9,0,1.8,0,2.7,0
			c1.5,0.1,2.6,0.9,2.8,2.2c0.2,1.2-0.5,2.7-1.8,3.2c-1.6,0.7-3.2,0.7-4.8,0c-1.4-0.6-1.8-2.1-1-3.5c0.2-0.4,0.4-0.5,0-1
			c-1-1.1-0.9-2.1,0-3.3c0.2-0.3,0.4-0.5,0.3-0.9c-0.6-3.5,0.5-4.8,4.1-4.8C802.7,274.9,802.8,274.9,802.9,274.9z"/>
		<path fill="#4FAC5B" d="M815.8,210.9c0.5,0,1.1,0,1.6,0c0.3,0,0.8-0.1,0.8,0.4c0,0.3,0.1,0.8-0.3,0.9c-0.7,0.2-0.4,0.6-0.3,1
			c0.8,2.6-0.8,4.5-3.6,4.4c-0.7,0-1.8-0.6-1.8,0.6c0,1,1.1,0.6,1.7,0.7c0.7,0.1,1.4,0,2.1,0.1c1.2,0.2,2.2,0.7,2.5,2
			s-0.2,2.4-1.3,3.1c-1.4,1-4.2,1-5.6,0.1c-1.1-0.7-1.4-2.1-0.7-3.3c0.3-0.5,0.3-0.6-0.1-1c-0.9-0.9-0.8-2.1-0.1-3.1
			c0.2-0.3,0.6-0.5,0.4-1.1c-0.7-3.2,0.6-4.7,3.8-4.8C815.3,210.9,815.5,210.9,815.8,210.9z"/>
		<path fill="#751A7C" d="M769.5,435c0.5,0,1.1,0,1.6,0c0.3,0,0.8-0.1,0.9,0.4c0.1,0.4,0.1,0.9-0.4,1c-0.6,0.1-0.4,0.5-0.3,0.9
			c0.9,2.7-0.6,4.7-3.5,4.5c-0.3,0-0.7-0.1-1-0.1c-0.5,0-0.8,0.3-0.8,0.8c0,0.4,0.3,0.7,0.7,0.7c0.9,0,1.8,0,2.7,0
			c1.8,0.1,2.9,0.8,3.1,2.1c0.2,1.6-0.6,3-2.4,3.5c-1.4,0.4-2.9,0.4-4.3-0.3c-1.4-0.7-1.7-2.1-0.9-3.4c0.3-0.4,0.4-0.6,0-1
			c-1-1-0.9-2-0.1-3.1c0.2-0.3,0.6-0.5,0.5-1.1c-0.7-3.4,0.5-4.8,4-4.8C769.2,435,769.3,435,769.5,435z"/>
		<path fill="#2E79F6" d="M740.6,306.7c1.5-1.5,3-2.9,4.4-4.3c0.3-0.3,0.5-0.6,0.9-0.8c0.7-0.4,1.6-0.5,2.1,0
			c0.6,0.6-0.3,1.1-0.7,1.5c-1.3,1.4-2.7,2.8-4,4.1c-0.5,0.5-0.5,0.9,0,1.4c1.4,1.5,2.8,3.1,4.2,4.6c0.4,0.5,1.5,1.1,0.7,1.7
			c-0.6,0.5-1.8,0.5-2.5-0.4c-1.4-1.6-2.8-3.2-4.2-4.8c-0.2-0.2-0.3-0.5-0.8-0.6c0,1.6,0,3.1,0,4.6c0,0.9-0.1,1.3-1.2,1.3
			c-1,0-1.1-0.5-1.1-1.2c0-3.7,0-7.5,0-11.2c0-0.8,0.1-1.2,1.1-1.2s1.2,0.5,1.1,1.3C740.5,304,740.6,305.3,740.6,306.7z"/>
		<path fill="#DEB8F9" d="M741.8,379.3c-1.3-0.2-2.6-0.5-3.8-1.3c-0.7-0.5-0.6-1-0.2-1.5c0.4-0.6,0.8-0.7,1.4-0.3
			c0.9,0.7,1.8,1.1,3,1c0.8-0.1,1.4-0.4,1.6-1.2c0.2-0.8-0.1-1.4-0.7-1.9c-0.6-0.4-1.3-0.8-2-1.1c-1.4-0.6-2.9-1.3-3.4-3
			c-0.7-2.9,1-4.7,3.8-4.9c1.2-0.1,2.4,0.3,3.4,0.9c0.5,0.2,0.9,0.6,0.5,1.3c-0.3,0.6-0.7,1-1.5,0.6c-0.7-0.4-1.4-0.6-2.3-0.7
			c-0.9,0-1.6,0.3-1.9,1.1c-0.3,0.9,0.2,1.6,0.9,2c1.3,0.8,2.8,1.2,4,2.1c1.8,1.4,2,4.2,0.2,5.7C744,378.9,743,379.1,741.8,379.3z"
			/>
		<path fill="#0E2F63" d="M746.2,343.5c0,1.5-1,2.9-2.6,3.4c-2,0.6-3.8,0.2-5.6-0.9c-0.7-0.5-0.6-0.9-0.2-1.5
			c0.4-0.7,0.8-0.6,1.4-0.2c0.8,0.6,1.7,1.1,2.8,1c0.8-0.1,1.5-0.4,1.7-1.2c0.3-0.8-0.1-1.5-0.8-2c-1-0.6-2.1-1.1-3.2-1.7
			c-1.1-0.6-2-1.4-2.2-2.7c-0.5-2.6,1.1-4.4,3.9-4.5c1.2,0,2.3,0.2,3.3,0.8c0.5,0.3,1,0.6,0.5,1.3c-0.4,0.6-0.7,1-1.5,0.5
			s-1.7-0.9-2.8-0.7c-0.7,0.1-1.2,0.5-1.4,1.2s0.1,1.2,0.6,1.7c0.8,0.7,1.8,1,2.8,1.5C744.8,340.4,746.2,341.4,746.2,343.5z"/>
		<path fill="#4FAC5B" d="M771.9,214.9c0-1,0-2,0-2.9s0.6-1.2,1.2-0.8c0.6,0.6,0.9,0.1,1.3,0c1.2-0.5,2.5-0.6,3.5,0.3
			c0.5,0.4,0.8,0.2,1.2,0c2.7-1.5,4.9-0.4,5.3,2.6c0.2,1.3,0,2.7,0.1,4c0,0.8-0.5,0.8-1.1,0.8c-0.7,0-1-0.2-1-0.9c0-1.1,0-2.2,0-3.3
			c0-1-0.2-1.9-1.5-1.9c-1.2,0-1.8,0.6-1.8,1.9c0,1.1,0,2.1,0,3.2c0,0.7-0.2,1-1,1s-1-0.4-0.9-1.1c0-1.1,0-2.2,0-3.3
			c-0.1-1-0.4-1.9-1.7-1.8c-1.1,0.1-1.8,0.7-1.7,2c0.1,1,0,2.1,0,3.1c0,0.8-0.2,1.1-1,1.1s-1-0.4-0.9-1.1
			C772,216.9,771.9,215.9,771.9,214.9z"/>
		<path fill="#75F99B" d="M760.8,180.1c0,1.9,0,3.8,0,5.7c0,0.7-0.2,1.3-0.9,1c-0.8-0.4-1.3-0.2-2,0.1c-1.4,0.5-2.7,0.1-3.6-1
			c-1.2-1.4-1.5-3-0.8-4.7c0.6-1.4,1.6-2.2,3.1-2.3c0.7-0.1,1.8,0.2,1.9-0.1c0.3-0.6,0.1-1.4,0.2-2.2c0-0.7,0-1.4,0-2.1
			c0-0.8,0.2-1.2,1.1-1.2c0.9,0,1,0.4,1,1.1C760.8,176.3,760.8,178.2,760.8,180.1z"/>
		<path fill="#2F79F6" d="M765.1,307.2c1.9-0.5,3.6-0.4,4.8,1.3c1,1.5,1.1,3,0.4,4.6c-0.9,1.8-2.7,2.5-4.6,1.7
			c-0.5-0.2-0.9-0.5-1.5,0c-0.5,0.4-1.1,0.1-1.1-0.7c0-4,0-8,0-12c0-0.8,0.5-0.8,1.1-0.8s1,0.1,1,0.9
			C765.1,303.9,765.1,305.5,765.1,307.2z"/>
		<path fill="#4FAD5B" d="M788.8,211.1c2.6-0.4,4,0,4.9,1.6s0.9,3.6-0.2,5c-0.9,1.2-2.2,1.6-3.7,1.3c-0.7-0.2-1.4-0.9-2.2-0.1
			c-0.4,0.3-0.9-0.1-0.9-0.8c0-4,0-8,0-12c0-0.8,0.5-0.8,1.1-0.8s1,0.1,1,0.9C788.7,207.8,788.8,209.4,788.8,211.1z"/>
		<path fill="#0D2F63" d="M772.8,340.3c0,2,0,3.9,0,5.9c0,1.1-0.7,1-1.3,0.6c-0.4-0.3-0.5-0.2-0.9-0.1c-1.8,0.8-3.2,0.6-4.4-0.6
			c-1.1-1.2-1.4-3.4-0.7-4.9s2.2-2.5,3.9-2.1c1.3,0.3,1.4-0.3,1.3-1.3c-0.1-1.1,0-2.3,0-3.5c0-0.7,0.2-0.9,0.9-0.9s1.1,0.1,1,1
			C772.8,336.3,772.8,338.3,772.8,340.3z"/>
		<path fill="#2F79F6" d="M792.3,307.5c0.8-0.2,1.4-0.5,2.1-0.5c1.9,0,3,0.9,3.3,2.8c0.2,1.5,0.1,2.9,0.2,4.4c0,0.7-0.3,0.9-1,0.9
			s-1.1-0.2-1.1-1c0-1.1,0-2.2,0-3.3c0-1-0.4-1.9-1.6-1.9c-1.2,0-1.9,0.7-1.9,1.9c0,1.1,0,2.2,0,3.3c0,0.7-0.3,0.9-1,0.9
			s-1.1-0.1-1.1-0.9c0-4,0-7.9,0-11.9c0-0.9,0.5-0.9,1.1-0.9c0.7,0,0.9,0.3,0.9,1C792.2,304,792.3,305.7,792.3,307.5z"/>
		<path fill="#751B7C" d="M742.1,434.4c1.1-1.5,2.1-2.8,3-4.2c0.6-1,1.4-0.9,2.2-0.7c0.8,0.1,0.4,0.7,0.1,1.1
			c-1.1,1.6-2.2,3.2-3.4,4.8c-0.6,0.8-0.9,1.6-0.8,2.6c0.1,1.4,0,2.8,0,4.1c0,0.9-0.4,1-1.1,1c-0.8,0-1.1-0.2-1-1
			c0.9-4.4-1.2-7.8-3.8-11c-0.3-0.4-1.2-1.1-0.5-1.5c0.6-0.4,1.6-0.5,2.2,0.4C740,431.5,741,432.8,742.1,434.4z"/>
		<path fill="#2A6344" d="M769.9,245.7c0.7-0.6,1.3-1.1,1.9-1.7c0.3-0.2,0.5-0.6,0.8-0.7c0.7-0.3,1.6-0.6,2.1,0
			c0.4,0.5-0.5,0.9-0.9,1.3c-2.1,1.9-2.1,1.9-0.1,4c0.2,0.2,0.5,0.4,0.7,0.7c0.3,0.5,1.2,0.7,0.9,1.5c-0.1,0.4-2,0.2-2.4-0.3
			c-1-0.9-1.9-1.9-3.1-3c0,1,0,1.8,0,2.6c0,0.7-0.2,0.9-0.9,0.9c-0.6,0-1,0-1-0.8c0-4,0-8,0-12c0-0.8,0.5-0.8,1-0.8
			c0.6,0,0.9,0.1,0.9,0.8c0,2,0,4.1,0,6.1C769.7,244.7,769.6,245.1,769.9,245.7z"/>
		<path fill="#DEB8F9" d="M766.4,376.2c0.7-1.5,1.3-2.8,1.8-4.1c0.2-0.5,0.5-0.9,1.2-0.9c1.3,0,1.4,0.2,0.9,1.3
			c-1.7,3.7-3.4,7.4-5.1,11.1c-0.2,0.3-0.3,0.7-0.5,0.9c-0.5,0.5-1.1,0.4-1.6,0.2c-0.6-0.3-0.2-0.8,0-1.2c0.6-1.4,1.2-2.8,1.9-4.1
			c0.3-0.6,0.3-1.1,0-1.7c-0.8-1.7-1.6-3.3-2.4-5c-0.2-0.4-0.9-1-0.2-1.3c0.6-0.3,1.6-0.5,2.1,0.5
			C765,373.3,765.6,374.6,766.4,376.2z"/>
		<path fill="#DEB8F9" d="M758.6,375.5c-0.6,0-1.2,0-1.9,0c-0.9-0.1-0.9,0.4-0.5,0.9c0.7,0.9,1.6,1.3,2.7,0.7
			c0.8-0.5,1.5-0.5,1.8,0.5c0.3,0.9-0.6,1.1-1.2,1.3c-2.2,0.8-4.2,0.1-5.2-1.7c-1-1.9-0.6-4.1,1.1-5.5c1.1-0.9,2.5-1,3.8-0.5
			c1.4,0.5,2,1.6,2.2,3.1c0.1,0.9-0.3,1.3-1.2,1.2C759.6,375.5,759.1,375.5,758.6,375.5z"/>
		<path fill="#75F99B" d="M764.6,183.4c0.8,1.8,1.7,2.2,3.2,1.5c0.8-0.3,1.2-0.3,1.6,0.5c0.4,0.9-0.4,1-0.9,1.3
			c-2.3,1.1-4.8,0.2-5.6-1.9c-1-2.4,0-5,2.3-5.7c2.3-0.8,4.6,0.6,4.9,3c0.1,0.9-0.1,1.4-1.2,1.4
			C767.5,183.4,766.1,183.4,764.6,183.4z"/>
		<path fill="#DEB8F9" d="M775.3,371c1.9,0,3.3,1.2,3.6,3.1c0.1,0.9-0.1,1.6-1.2,1.5c-1.1-0.1-2.2,0-3.3,0c-0.3,0-0.8-0.2-0.9,0.3
			c-0.1,0.3,0.2,0.7,0.5,0.9c0.9,0.7,1.8,0.8,2.8,0.2c0.8-0.5,1.1-0.1,1.4,0.6c0.2,0.4,0.1,0.6-0.3,0.9c-1.3,1-3.5,1.1-4.9,0.1
			s-2.1-3.2-1.5-5C772.1,372,773.5,371,775.3,371z"/>
		<path fill="#59ADF8" d="M792.9,274.9c2.1,0,3.7,1.6,3.6,3.6c0,0.7-0.3,1-0.9,1c-1.3,0-2.6,0-3.8,0c-0.7,0-0.8,0.2-0.5,0.8
			c0.5,1,1.7,1.4,2.9,0.8c0.8-0.4,1.4-0.4,1.7,0.5s-0.5,1-1,1.2c-1.7,0.7-3.3,0.6-4.7-0.7c-1.1-1-1.5-3.2-0.9-4.7
			C790,275.8,791.3,274.9,792.9,274.9z"/>
		<path fill="#4FAD5B" d="M799.5,210.9c2,0,3.5,1.4,3.6,3.5c0,0.7-0.2,1.1-1,1.1c-1.2-0.1-2.5,0-3.7,0c-0.2,0-0.6-0.1-0.7,0.2
			c-0.2,0.3,0.1,0.6,0.3,0.8c0.6,0.7,1.4,1.1,2.4,0.7c0.3-0.1,0.6-0.2,0.8-0.4c0.6-0.3,0.9,0.1,1.2,0.6c0.4,0.5,0,0.8-0.4,1.1
			c-1.3,0.9-3.5,0.9-4.8,0c-1.5-1.1-2.1-3.1-1.5-4.9C796.3,211.9,797.7,210.9,799.5,210.9z"/>
		<path fill="#A83DF5" d="M778.8,407.6c-0.6,0-1.2,0-1.7,0c-0.3,0-0.7-0.2-0.8,0.3c-0.1,0.3,0.2,0.6,0.3,0.8c0.8,0.8,1.7,1,2.6,0.5
			c0.8-0.4,1.4-0.4,1.7,0.5s-0.5,1-1,1.2c-1.7,0.7-3.6,0.3-4.7-0.8c-1.2-1.2-1.4-3.4-0.6-5c0.7-1.4,2.2-2.2,3.9-2
			c1,0.1,1.8,0.5,2.4,1.3c0.7,0.9,1,1.9,0.6,2.9c-0.3,0.8-1.3,0.2-2,0.4C779.3,407.6,779,407.6,778.8,407.6z"/>
		<path fill="#0E2F63" d="M776.6,343.5c0.7,1.8,1.7,2.3,3.1,1.6c0.8-0.4,1.4-0.4,1.7,0.5c0.4,0.9-0.5,1-1,1.2c-1.8,0.8-3.9,0.4-5-1
			c-1.1-1.5-1.2-3.7-0.1-5.2c1-1.4,2.9-1.9,4.5-1.3c0.8,0.3,1.4,0.9,1.8,1.6c0.9,1.9,0.5,2.6-1.5,2.6
			C779,343.5,777.9,343.5,776.6,343.5z"/>
		<path fill="#2A6344" d="M778,247.5c0.6,1.7,1.6,2.1,3.1,1.5c0.4-0.1,0.7-0.5,1.1-0.3c0.7,0.2,0.8,1.1,0.3,1.6
			c-1.3,1.1-3.8,1-5.2-0.1c-1.5-1.2-1.8-3.8-0.8-5.5c1-1.6,3-2.2,4.8-1.5c0.8,0.3,1.4,0.9,1.8,1.7c0.9,1.9,0.4,2.6-1.6,2.6
			c-1.1,0-2.1,0-3.2,0C778.3,247.5,778.2,247.5,778,247.5z"/>
		<path fill="#4FAD5B" d="M766.2,210.9c2.3,0,4,1.8,4,4.1c0,2.2-1.8,4.1-3.9,4.1c-2.3,0-4.1-1.9-4-4.2
			C762.2,212.7,764,210.9,766.2,210.9z"/>
		<path fill="#4FAD5B" d="M757.2,210.9c2.2,0,4,1.9,3.9,4.2c0,2.2-1.9,4.1-4,4.1c-2.3-0.1-4.1-2-4-4.3
			C753.2,212.6,755,210.9,757.2,210.9z"/>
		<path fill="#2E79F6" d="M753.4,311c0-2.3,1.7-4,3.9-4.1c2.2,0,4,1.8,4.1,4.1c0,2.2-1.8,4.2-4,4.2
			C755.1,315.1,753.4,313.3,753.4,311z"/>
		<path fill="#75F99B" d="M771.8,183c0-1,0-2.1,0-3.1c0-0.9,0.6-1.2,1.2-0.7c0.6,0.5,0.9,0.2,1.4,0c2.7-1.1,4.8,0.1,4.9,3
			c0,1.2,0,2.5,0,3.7c0,0.8-0.3,1-1,1s-0.9-0.3-0.9-1c0-1.1,0.1-2.1,0-3.2c-0.1-1-0.3-2-1.6-2c-1.2,0-1.8,0.7-1.8,2.1
			c0,1,0,2.1,0,3.1c0,0.7-0.3,1-1,1s-1.1-0.2-1-1C771.8,184.9,771.8,184,771.8,183z"/>
		<path fill="#2A6344" d="M758.1,246.9c0-2.2,1.8-4,3.9-4c2.3,0,3.9,1.8,3.9,4.1c0,2.2-1.8,4.1-3.9,4.1
			C759.8,251.1,758,249.3,758.1,246.9z"/>
		<path fill="#2A6344" d="M756.8,247.1c0,2.2-1.8,4.1-3.9,4.1c-2.3,0-4-1.8-4-4.2c0-2.2,1.8-4,3.9-4
			C755.2,243,756.9,244.7,756.8,247.1z"/>
		<path fill="#2F79F6" d="M805.8,311.7c0,0.9,0,1.7,0,2.5c0,0.9-0.6,1-1.1,0.7s-0.8-0.3-1.2-0.1c-1.1,0.5-2.3,0.5-3.2-0.3
			s-1-1.8-0.7-2.8c0.4-1.2,1.5-1.6,2.6-1.7c0.3,0,0.5,0,0.8,0c0.3-0.1,0.9,0.5,1-0.2c0.1-0.6-0.3-1-1-1c-0.6,0-1.2,0-1.7,0.2
			c-0.7,0.2-1,0-1.1-0.7c-0.2-0.7,0.2-0.9,0.7-1c1-0.3,2-0.3,3-0.2c1,0.1,1.6,0.8,1.8,1.8C805.9,309.8,805.8,310.9,805.8,311.7z"/>
		<path fill="#A83DF5" d="M783.4,407.1c0-1,0-2,0-3.1c0-0.8,0.7-1,1-0.7c0.6,0.6,1.1,0.2,1.6,0c2.4-1,4.3,0.1,4.8,2.7
			c0.2,1.4,0.1,2.8,0.1,4.2c0,0.7-0.4,0.8-1,0.8s-1.1-0.1-1.1-0.8c0-1.1,0-2.3,0-3.5c0-1-0.3-1.9-1.5-1.9s-2,0.7-2,2
			c0,1.1,0,2.1,0,3.2c0,0.8-0.2,1-1,1s-1-0.4-0.9-1.1C783.5,409,783.4,408,783.4,407.1z"/>
		<path fill="#751B7C" d="M752.8,439.8c0,1,0,1.8,0,2.5s-0.6,1-1,0.7c-0.7-0.5-1.1-0.2-1.7,0c-1.7,0.6-3.3-0.1-3.7-1.6
			c-0.4-1.7,0.5-3,2.4-3.3c0.4-0.1,0.8,0,1.2-0.1c0.3,0,0.8,0.4,0.9-0.1c0.1-0.5-0.2-1-0.8-1.1c-0.7-0.2-1.3,0-2,0.2
			c-0.6,0.1-0.9,0.1-1.1-0.6c-0.1-0.6,0-0.9,0.6-1.1c1-0.3,2-0.4,3-0.2s1.7,0.7,1.9,1.8C752.9,437.9,752.8,439,752.8,439.8z"/>
		<path fill="#2F79F6" d="M779.5,311.2c0,1,0,2,0,2.9s-0.6,1.2-1,0.8c-0.6-0.5-1-0.2-1.5,0c-2.4,1-4.3-0.1-4.6-2.6
			c-0.2-1.4-0.1-2.8-0.1-4.2c0-0.8,0.5-0.8,1-0.8c0.6,0,1,0.2,1,0.9c0,1.1,0,2.3,0,3.5c0,1,0.4,1.8,1.5,1.8c1,0,1.7-0.8,1.8-1.9
			c0-1.1,0-2.1,0-3.2c0-0.7,0.1-1.1,0.9-1.1c0.9,0,1,0.4,1,1.1C779.5,309.2,779.5,310.2,779.5,311.2z"/>
		<path fill="#0E3063" d="M753.8,343.9c0,0.8,0,1.6,0,2.4c0,0.7-0.6,1-0.9,0.7c-0.7-0.6-1.1-0.2-1.7,0c-1.6,0.6-3.2-0.1-3.6-1.5
			c-0.5-1.8,0.4-3.1,2.3-3.4c0.4-0.1,0.8,0,1.2-0.1c0.3,0,0.8,0.4,0.9-0.2c0.1-0.5-0.2-1-0.8-1.1c-0.7-0.1-1.4,0-2.1,0.2
			c-0.6,0.1-0.8-0.1-0.9-0.6c-0.2-0.5,0-0.9,0.5-1c1.1-0.3,2.2-0.4,3.3-0.2c1,0.2,1.7,0.8,1.8,1.9
			C753.8,341.9,753.8,342.9,753.8,343.9L753.8,343.9z"/>
		<path fill="#A83EF5" d="M759.7,408.2c0,0.4,0,0.9,0,1.3c0,1.5,0,1.5-1.5,1.1c-0.4-0.1-0.6,0.2-1,0.3c-1.1,0.4-2.1,0.4-3-0.3
			c-0.9-0.7-1-1.7-0.8-2.7c0.2-1.3,1.6-2,3.3-2c0.3,0,1,0.5,1.1-0.2c0-0.7-0.5-1.1-1.2-1c-0.5,0-1.1,0.1-1.6,0.2
			c-0.7,0.2-0.9-0.2-1-0.7c-0.1-0.6,0.2-0.8,0.7-0.9c1-0.3,2-0.4,3-0.2c1.1,0.1,1.8,0.8,1.9,1.9C759.6,406,759.7,407.1,759.7,408.2
			L759.7,408.2z"/>
		<path fill="#0E2F63" d="M756,343.1c0-1,0-2,0-3.1c0-0.9,0.7-1.1,1.1-0.7c0.7,0.6,1.1,0.2,1.6,0c2.6-1,4.7,0.3,4.8,3.1
			c0.1,1.2,0,2.5,0,3.7c0,0.7-0.2,0.9-0.9,0.9s-1.1-0.2-1-1c0-1.1,0-2.1,0-3.2c0-1-0.2-2-1.6-2c-1.2,0-2,0.8-2,2.1
			c0,1.1,0,2.1,0,3.2c0,0.7-0.3,0.9-1,0.9c-0.6,0-1-0.1-1-0.9C756.1,345.1,756,344.1,756,343.1z"/>
		<path fill="#751B7C" d="M755,439.1c0-1,0-2,0-2.9c0-1,0.7-1.2,1.2-0.8c0.6,0.5,0.9,0.2,1.3,0c2.7-1.2,4.8,0.1,5,3
			c0,1.2,0,2.4,0,3.6c0,0.7-0.2,1-1,1s-1-0.3-1-1c0-1,0-2,0-3.1c0-1.5-0.6-2.1-1.7-2.1c-1.2,0-1.9,0.8-2,2.1c0,1.1,0,2.1,0,3.2
			c0,0.6-0.3,0.9-0.9,0.8c-0.6,0-1.1,0-1.1-0.8V442C755,441.1,755,440.1,755,439.1z"/>
		<path fill="#59ADF8" d="M756.5,279c0,1,0,2,0,3.1c0,0.9-0.7,1.1-1.2,0.7s-0.8-0.2-1.3,0c-2.7,1.1-4.6-0.1-4.7-3c0-1.2,0-2.4,0-3.6
			c0-0.7,0.2-1,1-1s1,0.3,1,1c0,1.1,0,2.2,0,3.3c0.1,0.9,0.4,1.9,1.5,1.8s1.8-0.7,1.8-1.9c0-1.1,0-2.1,0-3.2c0-0.7,0.2-1,1-1
			s1,0.4,1,1.1C756.5,277.1,756.5,278.1,756.5,279z"/>
		<path fill="#5AAEF8" d="M759.3,279.1c-0.1-1,0.4-2.1-1-2.6c-0.3-0.1-0.4-1.1,0.2-1.3c0.8-0.2,0.8-0.7,0.8-1.3c0-0.8,0-1.4,1.1-1.4
			c1,0,1,0.6,1,1.3c-0.1,1,0.2,1.4,1.2,1.3c0.6-0.1,1.2,0,1.1,0.9c0,0.8-0.5,0.9-1.1,0.8c-1.2-0.2-1.3,0.4-1.3,1.4
			c0,0.5,0,1.1,0,1.6c-0.1,1.2,0.2,1.7,1.5,1.2c0.7-0.3,0.8,0.3,1,0.7c0.2,0.5,0,0.8-0.5,1c-2.2,1.1-3.8,0.2-4-2.2
			C759.3,280,759.3,279.5,759.3,279.1z"/>
		<path fill="#5AAEF8" d="M767,272.6c1-0.1,1,0.6,1,1.2c-0.1,1,0.2,1.5,1.3,1.4c0.7-0.1,1,0.2,1,0.9c0,0.7-0.4,0.9-0.9,0.8
			c-1.2-0.2-1.4,0.5-1.3,1.5c0,0.4,0,0.8,0,1.2c0,1.1-0.2,2.2,1.6,1.5c0.5-0.2,0.7,0.4,0.8,0.8s0.1,0.7-0.4,1
			c-2.2,1.2-4,0.2-4.1-2.3c0-0.8,0-1.6,0-2.4c0-0.5,0.1-1-0.7-1.3c-0.7-0.2-0.6-1.3-0.1-1.5c1.1-0.3,0.8-1,0.8-1.7
			C765.9,272.8,766.2,272.5,767,272.6z"/>
		<path fill="#2F79F6" d="M781.3,310.9c0.1-1.5,0.8-2.8,2.3-3.5c1.3-0.7,2.7-0.7,3.9,0.2c0.5,0.3,1.1,0.7,0.7,1.5
			c-0.4,0.7-1,0.7-1.7,0.2c-0.9-0.8-1.8-0.4-2.6,0.4c-0.7,0.8-0.7,2.3,0.1,3s1.7,1,2.6,0.3c0.6-0.5,1.1-0.8,1.7-0.1
			c0.7,0.8-0.2,1.2-0.6,1.6c-1.3,1-2.7,1-4.1,0.3C782.1,314,781.4,312.7,781.3,310.9z"/>
		<path fill="#DEB9F9" d="M750.5,379.3c-1.4,0-2.1-0.8-2.2-2c0-0.8,0-1.7,0-2.5s0.2-1.6-1-2c-0.5-0.2-0.7-1.1,0-1.3
			c1-0.3,1-0.9,0.9-1.6c0-0.7,0.1-1.2,1-1.2c0.8,0,1,0.5,0.9,1.1c-0.1,1.1,0.2,1.7,1.4,1.6c0.6-0.1,1,0.1,1,0.9c0,0.7-0.5,0.8-1,0.7
			c-1.2-0.2-1.6,0.4-1.4,1.5c0.1,0.5,0,1,0,1.5c-0.1,1,0.3,1.6,1.4,1.2c0.8-0.3,0.9,0.2,1.2,0.7c0.3,0.6-0.2,0.9-0.7,1.1
			C751.5,379,750.9,379.2,750.5,379.3z"/>
		<path fill="#0E3063" d="M792.5,347.2c-0.6-0.1-1.3-0.1-2-0.5c-0.5-0.2-0.8-0.5-0.5-1.1c0.2-0.5,0.5-0.8,1.1-0.5
			c0.7,0.3,1.8,0.8,2.1,0c0.4-1-0.9-1-1.5-1.5c-0.3-0.2-0.6-0.3-0.9-0.5c-0.9-0.6-1.2-1.4-0.9-2.4c0.2-1,1-1.5,1.9-1.6
			c0.8-0.1,1.7,0,2.5,0.3c0.5,0.2,0.9,0.5,0.6,1.1c-0.2,0.5-0.5,0.9-1.2,0.6c-0.6-0.2-1.6-0.8-1.8,0.1c-0.2,0.7,0.8,0.8,1.4,1.1
			c0.2,0.1,0.3,0.1,0.5,0.2c1.4,0.8,2,1.6,1.7,2.8C795.2,346.4,794,347.2,792.5,347.2z"/>
		<path fill="#51AE5D" d="M749.4,212.1c0-1.9,0-3.8,0-5.7c0-0.8,0.2-1.1,1.1-1.1c0.8,0,1,0.3,1,1c0,3.9,0,7.7,0,11.6
			c0,0.7-0.2,1-1,1s-1.1-0.3-1.1-1.1C749.4,215.9,749.4,214,749.4,212.1z"/>
		<path fill="#327BF6" d="M749.6,308.1c0-1.9,0-3.8,0-5.7c0-0.7,0.2-1,1-1s1,0.3,1,1c0,3.9,0,7.8,0,11.7c0,0.8-0.3,1-1,1
			s-0.9-0.2-0.9-0.9C749.6,312.1,749.6,310.1,749.6,308.1z"/>
		<path fill="#DEB9F9" d="M780.5,374.9c0-0.9,0-1.9,0-2.8s0.4-1.3,1.2-0.7c0.4,0.3,0.6,0.3,1,0c0.5-0.4,1.2-0.4,1.8-0.4
			s1.3-0.1,1.2,0.8c-0.1,0.6-0.3,1.2-1.3,1.1c-1.5-0.1-1.8,0.3-1.8,1.8c0,1.1,0,2.1,0,3.2c0,0.7-0.2,1.1-1,1.1s-1.2-0.3-1.1-1.1
			C780.6,376.9,780.5,375.9,780.5,374.9z"/>
		<path fill="#307AF6" d="M808,311.1c0-1,0-2,0-3.1c0-0.8,0.6-1.1,1.1-0.8c0.6,0.5,1,0.3,1.4,0c0.6-0.3,1.2-0.3,1.8-0.2
			c0.5,0,1,0.1,0.9,0.7s-0.2,1.1-1,1.2c-2.2,0.2-2.2,0.2-2.2,2.4c0,0.8,0,1.7,0,2.5s-0.2,1.1-1,1.1c-0.9,0-1.1-0.4-1-1.1
			C808.1,312.9,808,312,808,311.1z"/>
		<path fill="#113265" d="M783.8,343c0-1,0-2,0-2.9s0.6-1.2,1.2-0.8c0.5,0.4,0.7,0.3,1.2,0c0.6-0.4,1.3-0.4,1.9-0.3
			c0.5,0.1,1.1,0.1,0.9,0.8c-0.1,0.5-0.2,1.1-1.1,1.1c-2,0-2.2,0.2-2.2,2.2c0,1,0,2,0,2.9c0,0.7-0.3,0.9-1,0.9s-1.1-0.2-1.1-1
			C783.9,345,783.8,344,783.8,343z"/>
		<path fill="#2D6547" d="M785.2,247.1c0-1,0-2,0-3.1c0-0.8,0.5-1.1,1.1-0.8c0.6,0.4,0.9,0.3,1.4,0s1.1-0.3,1.7-0.3
			c0.5,0.1,1.1,0,1,0.7c-0.1,0.6-0.2,1.2-1.1,1.2c-2,0-2.1,0.2-2.1,2.1c0,0.8,0,1.7,0,2.5c0,0.7,0.2,1.4-1,1.4c-1.3,0-1-0.8-1-1.5
			C785.2,248.6,785.2,247.9,785.2,247.1z"/>
		<path fill="#A83EF5" d="M768.3,407c0-1,0-2,0-2.9s0.6-1.1,1.1-0.8c0.6,0.5,1,0.2,1.5,0c0.5-0.3,1.1-0.3,1.7-0.2
			c0.5,0,1.1,0.1,1,0.8c-0.1,0.5-0.2,1.1-1,1.2c-2.2,0.2-2.3,0.3-2.3,2.5c0,0.9,0,1.8,0,2.6c0,0.6-0.1,1-0.9,1c-0.7,0-1.1-0.2-1.1-1
			C768.3,409.1,768.3,408,768.3,407z"/>
		<path fill="#A83EF5" d="M761.9,407c0-1,0-2,0-2.9c0-0.8,0.5-1.2,1-0.8c0.7,0.5,1.1,0.2,1.6-0.1c0.5-0.2,1.1-0.3,1.7-0.2
			c0.4,0,1,0.1,0.9,0.7c-0.1,0.5-0.2,1.1-1,1.2c-2.3,0.2-2.3,0.3-2.3,2.6c0,0.8,0,1.6,0,2.4c0,0.7-0.1,1.2-1,1.1c-0.9,0-1-0.5-1-1.2
			C761.9,408.9,761.9,408,761.9,407z"/>
		<path fill="#4FAD5B" d="M804.8,215c0-1,0-2,0-3.1c0-0.6,0.4-1.1,0.8-0.8c0.8,0.5,1.4,0.1,2.1-0.1c0.4-0.2,1-0.1,1.4-0.1
			c0.5,0,1,0.1,0.9,0.7c-0.1,0.5-0.2,1.1-1,1.2c-2.2,0.1-2.3,0.3-2.3,2.4c0,0.9,0,1.8,0,2.7c0,0.7-0.2,1-1,1s-1-0.3-1-1
			C804.8,216.9,804.8,216,804.8,215z"/>
		<path fill="#76F99C" d="M749.4,183c0-1,0-1.9,0-2.9c0-0.8,0.3-1.1,1-1.1s1.1,0.3,1.1,1c0,2,0,4,0,6c0,0.8-0.4,0.9-1.1,0.9
			c-0.8,0-1-0.3-1-1C749.4,184.9,749.4,183.9,749.4,183z"/>
		<path fill="#5CAFF8" d="M774.1,279c0,1,0,2,0,3c0,0.7-0.3,0.9-1,0.9s-1.1-0.1-1.1-0.9c0-2,0-4,0-6c0-0.8,0.5-0.9,1.1-0.9
			c0.7,0,1,0.2,1,0.9C774.1,277,774.1,278,774.1,279z"/>
		<path fill="#59ADF8" d="M785.3,279c0-1,0-2,0-2.9c0-0.7,0.3-0.9,1-0.9c0.6,0,1,0.1,1,0.9c0,2,0,4.1,0,6.1c0,0.8-0.4,0.8-1,0.8
			s-0.9-0.1-0.9-0.8C785.3,281.1,785.3,280,785.3,279z"/>
		<path fill="#5CAFF8" d="M786.2,272.1c-0.8,0-1.1-0.4-1.1-1.1c0-0.8,0.4-1.2,1.1-1.2c0.7,0,1.3,0.5,1.2,1.2
			C787.4,271.7,786.9,272.1,786.2,272.1z"/>
		<path fill="#79F99D" d="M751.5,174.8c0,0.9-0.4,1.2-1.2,1.2s-1.2-0.5-1.2-1.1c0-0.8,0.5-1.2,1.3-1.2
			C751.1,173.7,751.6,174.1,751.5,174.8z"/>
		<path fill="#5AAEF8" d="M773.1,272.1c-0.8,0-1.1-0.4-1.1-1.1c0-0.8,0.4-1.2,1.2-1.2c0.7,0,1.2,0.5,1.2,1.2
			C774.3,271.7,773.9,272.1,773.1,272.1z"/>
		<path fill="#FDFEFD" d="M740.5,183.1c0-1.1-0.4-2.3,1.4-2.1c2.2,0.2,3.2,0.7,3.2,2c0,1.4-0.9,2-3,2
			C740.5,185,740.5,185,740.5,183.1z"/>
		<path fill="#FDFEFD" d="M740.5,177.2c0.1-0.9-0.5-2.1,1.3-2c2,0.1,2.9,0.6,3,1.9c0,1.4-1,1.9-3,2.1
			C740.1,179.3,740.6,178.1,740.5,177.2z"/>
		<path fill="#FDFEFE" d="M740.5,278.7c0-0.7-0.3-1.8,1.5-1.6c2,0.2,3.2,0.8,3.2,2c0,1.3-1.1,2-3.2,2
			C740.5,281.1,740.5,281.1,740.5,278.7z"/>
		<path fill="#FDFDFE" d="M740.6,272.9c0-0.5-0.5-1.8,1.4-1.7c2,0.2,2.9,0.6,2.9,2c0,1.3-0.9,1.9-2.8,2
			C740.2,275.4,740.5,274.3,740.6,272.9z"/>
		<path fill="#FDFEFD" d="M740.5,215c0-1-0.4-2.1,1.5-2c2.2,0.2,3.3,0.8,3.2,2.1c0,1.3-1.1,1.9-3.2,1.9
			C740.2,217,740.5,217.2,740.5,215z"/>
		<path fill="#FDFDFD" d="M741.9,211.1c-1.5,0.5-1.3-0.6-1.3-1.6c0-2.5,0.2-2.6,2.6-2.2c1.1,0.2,1.7,0.8,1.7,1.9
			c0,1.2-0.7,1.8-1.8,1.9C742.7,211.2,742.3,211.1,741.9,211.1z"/>
		<path fill="#FDFDFD" d="M742,245.1c2.2,0,3.3,0.7,3.3,2s-1,2-3,2s-1.7,0.2-1.8-1.8c0-0.2,0-0.4,0-0.5
			C740.2,245.4,740.7,244.7,742,245.1z"/>
		<path fill="#FCFDFC" d="M740.5,241.2c0-1-0.4-2.2,1.4-2c2,0.2,2.9,0.6,2.9,1.9c0,1.4-0.9,2.1-2.9,2
			C740.3,243.2,740.5,243.5,740.5,241.2z"/>
		<path fill="#FDFDFE" d="M781.4,278.5c-0.1,0.9-0.5,1.5-1.5,1.5s-1.5-0.6-1.5-1.6s0.5-1.6,1.6-1.5
			C780.9,276.9,781.3,277.5,781.4,278.5z"/>
		<path fill="#FBFDFE" d="M780.1,284.8c0.6,0,1.5-0.2,1.7,0.9c0.1,0.7-1,1.5-2.1,1.4c-0.8-0.1-1.8-0.3-1.8-1.3
			C778,284.8,779.1,284.8,780.1,284.8z"/>
		<path fill="#FAFCFE" d="M803.2,278.4c-0.2,0.9-0.5,1.6-1.6,1.6c-1,0-1.5-0.7-1.5-1.5c0-0.9,0.4-1.6,1.5-1.7
			C802.7,276.8,803,277.5,803.2,278.4z"/>
		<path fill="#FAFCFE" d="M801.9,284.8c0.7,0,1.6-0.1,1.8,1c0.1,0.7-1.1,1.5-2.1,1.4c-0.8-0.1-1.8-0.2-1.8-1.2
			C799.8,284.7,800.9,284.8,801.9,284.8z"/>
		<path fill="#FAFCFA" d="M814.5,212.8c1,0.1,1.5,0.7,1.4,1.7c0,0.9-0.5,1.6-1.5,1.6s-1.6-0.7-1.6-1.6
			C812.9,213.5,813.4,212.8,814.5,212.8z"/>
		<path fill="#FAFCFA" d="M814.3,223.1c-0.7-0.2-1.7-0.2-1.7-1.2c0-1.1,0.9-1.2,1.7-1.1c0.1,0,0.2,0,0.3,0c0.8,0,1.7-0.1,1.9,1
			C816.6,222.4,815.4,223.2,814.3,223.1z"/>
		<path fill="#FDFCFD" d="M768.2,440.1c-1-0.1-1.5-0.6-1.5-1.6s0.5-1.6,1.5-1.6s1.5,0.6,1.5,1.6S769.2,440.1,768.2,440.1z"/>
		<path fill="#FBFAFC" d="M768.4,444.8c0.7,0.1,1.6-0.2,1.8,1c0.1,0.8-1,1.5-2.1,1.4c-0.8-0.1-1.7-0.2-1.7-1.2
			C766.4,444.7,767.5,444.9,768.4,444.8z"/>
		<path fill="#FDFEFD" d="M758.7,182.5c0,2-0.5,2.7-1.6,2.7c-1,0-1.9-0.9-1.9-2.1c0-1.4,0.9-2.3,2.2-2.3
			C759,180.7,758.8,181.9,758.7,182.5z"/>
		<path fill="#FDFDFE" d="M766.5,308.8c1.3,0,2.2,1,2.2,2.3c0,1.1-0.9,2.2-1.9,2.2s-1.7-0.7-1.7-1.9
			C765,309.1,765.2,308.9,766.5,308.8z"/>
		<path fill="#FDFEFD" d="M792.3,215.1c0,1.2-0.8,2.2-1.8,2.2c-1.1,0.1-1.7-0.8-1.7-2.4c0-1-0.2-2.1,1.4-2.1
			C791.4,212.8,792.3,213.7,792.3,215.1z"/>
		<path fill="#FBFCFC" d="M770.9,342.8c0,1.7-0.6,2.6-1.8,2.5c-1.1,0-1.9-1.1-1.9-2.3c0-1.3,0.9-2.2,2.2-2.2
			S770.9,341.1,770.9,342.8z"/>
		<path fill="#FCF9FE" d="M757.6,374.3c-0.5-0.3-1.4,0.4-1.4-0.4c-0.1-0.8,0.8-1.1,1.5-1.1s1.5,0.4,1.4,1
			C759.1,374.7,758.1,374,757.6,374.3z"/>
		<path fill="#F5FEF7" d="M766.4,182.1c-0.5-0.3-1.4,0.4-1.5-0.5c-0.1-0.7,0.8-1.1,1.5-1.1c0.8,0,1.6,0.4,1.5,1.2
			C767.8,182.5,766.9,181.9,766.4,182.1z"/>
		<path fill="#FCF9FE" d="M775.3,374.3c-0.6-0.3-1.5,0.3-1.5-0.5s0.8-1.1,1.5-1.1s1.5,0.4,1.4,1.1
			C776.6,374.8,775.6,373.8,775.3,374.3z"/>
		<path fill="#F4F9FE" d="M792.8,278.2c-0.5-0.3-1.4,0.3-1.5-0.4c-0.1-0.8,0.8-1.1,1.5-1.2c0.8,0,1.6,0.4,1.5,1.1
			C794.2,278.6,793.3,277.9,792.8,278.2z"/>
		<path fill="#F3F9F3" d="M799.4,214.1c-0.5-0.3-1.5,0.4-1.6-0.4c-0.1-0.8,0.8-1.2,1.6-1.2s1.6,0.5,1.5,1.2
			C800.8,214.5,799.9,213.9,799.4,214.1z"/>
		<path fill="#F9F3FE" d="M776.3,405.8c0.3-0.7,0.9-1.2,1.7-1.2s1.3,0.5,1.5,1.2c0,0.1,0,0.2-0.1,0.2c-0.1,0.1-3,0.1-3.1,0
			C776.4,406,776.4,406,776.3,405.8z"/>
		<path fill="#F1F3F6" d="M778.4,342.3c-0.5-0.4-1.5,0.3-1.5-0.5c0-0.7,0.8-1.1,1.6-1.1s1.6,0.4,1.5,1.1
			C779.9,342.7,778.9,341.8,778.4,342.3z"/>
		<path fill="#F2F6F4" d="M779.8,246.2c-0.6-0.3-1.5,0.3-1.6-0.4c-0.1-0.8,0.8-1.2,1.6-1.2c0.7,0,1.5,0.4,1.5,1.1
			C781.2,246.7,780.2,245.7,779.8,246.2z"/>
		<path fill="#FDFDFD" d="M768.2,215c0,1.1-1,2.2-2,2.3c-1.1,0-2.1-1.1-2.1-2.3s1-2.2,2.1-2.2S768.2,213.9,768.2,215z"/>
		<path fill="#FDFDFD" d="M759.2,215c0,1.1-1,2.2-2,2.2c-1.1,0-2.1-1.1-2.1-2.3s1-2.2,2.1-2.1C758.2,212.8,759.2,213.9,759.2,215z"
			/>
		<path fill="#FCFDFE" d="M759.3,311c0,1.3-1,2.4-2,2.3c-1,0-2-1.2-2-2.3c0-1.1,1-2.2,2-2.2C758.4,308.8,759.3,309.8,759.3,311z"/>
		<path fill="#FCFDFC" d="M762,244.8c1.1,0,2,1,2,2.2s-1,2.2-2,2.3c-1.1,0-2.1-1.1-2-2.3C760,245.7,760.9,244.8,762,244.8z"/>
		<path fill="#FCFDFC" d="M752.9,249.3c-1.1,0-2-1.1-2-2.4c0-1.2,1-2.1,2.1-2.1c1.1,0.1,2,1.1,1.9,2.3
			C754.9,248.3,753.9,249.3,752.9,249.3z"/>
		<path fill="#F6F9FE" d="M802.8,311.3c0.5,0.2,1.3,0,1.2,1s-0.8,1.3-1.7,1.4c-0.6,0-1-0.4-1-1.1
			C801.4,311.5,802.1,311.5,802.8,311.3z"/>
		<path fill="#F9F6FA" d="M749.8,439.4c0.5,0.2,1.2,0,1.2,0.9c0,1-0.8,1.3-1.6,1.4c-0.7,0.1-1.1-0.3-1.1-1
			C748.3,439.6,749,439.5,749.8,439.4z"/>
		<path fill="#F4F5F7" d="M750.8,343.3c0.5,0.2,1.2,0,1.2,0.8c0,1-0.7,1.4-1.5,1.5c-0.7,0.1-1.2-0.3-1.2-1.1
			C749.3,343.6,750,343.4,750.8,343.3z"/>
		<path fill="#FAF6FE" d="M757.8,408.7c-0.1,0.6-0.8,0.9-1.6,1c-0.7,0-1.1-0.4-1-1.1c0-1,0.8-1.2,1.5-1.2
			C757.2,407.4,757.9,407.4,757.8,408.7z"/>
	</g>
</g>
</svg>
