<?xml version="1.0" encoding="utf-8"?>
<!-- Generator: Adobe Illustrator 24.0.1, SVG Export Plug-In . SVG Version: 6.00 Build 0)  -->
<svg version="1.1" id="Layer_1" xmlns="http://www.w3.org/2000/svg" xmlns:xlink="http://www.w3.org/1999/xlink" x="0px" y="0px"
	 viewBox="0 0 840.87 545.38" style="enable-background:new 0 0 840.87 545.38;" xml:space="preserve">
<style type="text/css">
	.st0{fill:#00FF90;}
	.st1{fill:#002E66;}
	.st2{font-family:'BrandonGrotesque-Bold';}
	.st3{font-size:23.8148px;}
	.st4{fill:#00B050;}
	.st5{fill:#006541;}
	.st6{fill:#36AEFF;}
	.st7{fill:#0077FF;}
	.st8{fill:#E7B5FF;}
	.st9{fill:#B722FF;}
	.st10{fill:#800080;}
</style>
<path class="st0" d="M490.36,438.14L490.36,438.14c-10.36,0-18.77-8.4-18.77-18.77l0,0c0-10.36,8.4-18.77,18.77-18.77l0,0
	c10.36,0,18.77,8.4,18.77,18.77l0,0C509.13,429.74,500.72,438.14,490.36,438.14z"/>
<path class="st0" d="M59.4,506.87L59.4,506.87c-5.38,0-9.74-4.36-9.74-9.73l0,0c0-5.38,4.36-9.73,9.74-9.73l0,0
	c5.38,0,9.73,4.36,9.73,9.73l0,0C69.14,502.51,64.78,506.87,59.4,506.87z"/>
<path class="st0" d="M161.16,384.09L161.16,384.09c-11.79,0-21.35-9.55-21.35-21.35l0,0c0-11.79,9.55-21.35,21.35-21.35l0,0
	c11.79,0,21.35,9.55,21.35,21.35l0,0C182.5,374.54,172.94,384.09,161.16,384.09z"/>
<path class="st0" d="M384.73,400.58L384.73,400.58c-8.05,0-14.57-6.53-14.57-14.57l0,0c0-8.05,6.53-14.57,14.57-14.57l0,0
	c8.05,0,14.57,6.53,14.57,14.57l0,0C399.31,394.05,392.78,400.58,384.73,400.58z"/>
<path class="st0" d="M68.09,358.82L68.09,358.82c-29.33,0-53.1-23.78-53.1-53.1l0,0c0-29.33,23.78-53.1,53.1-53.1l0,0
	c29.33,0,53.1,23.78,53.1,53.1l0,0C121.18,335.04,97.41,358.82,68.09,358.82z"/>
<path class="st0" d="M741.34,177.58L741.34,177.58c-10.06,0-18.22-8.16-18.22-18.22l0,0c0-10.06,8.16-18.22,18.22-18.22l0,0
	c10.06,0,18.22,8.16,18.22,18.22l0,0C759.57,169.42,751.41,177.58,741.34,177.58z"/>
<path class="st0" d="M670.69,242.66L670.69,242.66c-5.9,0-10.67-4.78-10.67-10.67l0,0c0-5.9,4.78-10.67,10.67-10.67l0,0
	c5.9,0,10.67,4.78,10.67,10.67l0,0C681.36,237.89,676.59,242.66,670.69,242.66z"/>
<path class="st0" d="M644.14,256.2L644.14,256.2c-5.9,0-10.67-4.78-10.67-10.67l0,0c0-5.9,4.78-10.67,10.67-10.67l0,0
	c5.9,0,10.67,4.78,10.67,10.67l0,0C654.81,251.42,650.04,256.2,644.14,256.2z"/>
<path class="st0" d="M577.72,517.33L577.72,517.33c-20.99,0-38.01-17.02-38.01-38.01l0,0c0-20.99,17.02-38.01,38.01-38.01l0,0
	c20.99,0,38.01,17.02,38.01,38.01l0,0C615.72,500.32,598.71,517.33,577.72,517.33z"/>
<path class="st0" d="M535.08,391.17L535.08,391.17c-14.66,0-26.55-11.89-26.55-26.55l0,0c0-14.67,11.88-26.55,26.55-26.55l0,0
	c14.66,0,26.55,11.89,26.55,26.55l0,0C561.63,379.28,549.75,391.17,535.08,391.17z"/>
<path class="st0" d="M200.32,535.98L200.32,535.98c-6.75,0-12.24-5.47-12.24-12.24l0,0c0-6.75,5.47-12.24,12.24-12.24l0,0
	c6.75,0,12.24,5.47,12.24,12.24l0,0C212.55,530.5,207.07,535.98,200.32,535.98z"/>
<path class="st0" d="M174.1,210.45L174.1,210.45c-6.47,0-11.72-5.25-11.72-11.72l0,0c0-6.47,5.25-11.72,11.72-11.72l0,0
	c6.47,0,11.72,5.25,11.72,11.72l0,0C185.82,205.2,180.57,210.45,174.1,210.45z"/>
<path class="st0" d="M431.34,287.47L431.34,287.47c-17.83,0-32.28-14.45-32.28-32.28l0,0c0-17.83,14.45-32.28,32.28-32.28l0,0
	c17.83,0,32.28,14.45,32.28,32.28l0,0C463.61,273.02,449.16,287.47,431.34,287.47z"/>
<path class="st0" d="M490.64,284.73L490.64,284.73c-12.07,0-21.87-9.79-21.87-21.87l0,0c0-12.07,9.79-21.87,21.87-21.87l0,0
	c12.07,0,21.87,9.79,21.87,21.87l0,0C512.51,274.95,502.72,284.73,490.64,284.73z"/>
<path class="st0" d="M360.5,253.58L360.5,253.58c-9.2,0-16.66-7.46-16.66-16.66l0,0c0-9.2,7.45-16.66,16.66-16.66l0,0
	c9.2,0,16.66,7.46,16.66,16.66l0,0C377.15,246.12,369.7,253.58,360.5,253.58z"/>
<path class="st0" d="M323.64,330.85L323.64,330.85c-8.2,0-14.84-6.64-14.84-14.84l0,0c0-8.2,6.64-14.84,14.84-14.84l0,0
	c8.2,0,14.84,6.64,14.84,14.84l0,0C338.48,324.2,331.84,330.85,323.64,330.85z"/>
<path class="st0" d="M481.1,328.38L481.1,328.38c-9.77,0-17.7-7.92-17.7-17.7l0,0c0-9.77,7.92-17.7,17.7-17.7l0,0
	c9.77,0,17.7,7.92,17.7,17.7l0,0C498.8,320.45,490.87,328.38,481.1,328.38z"/>
<path class="st0" d="M392.57,466.06L392.57,466.06c-10.21,0-18.48-8.27-18.48-18.48l0,0c0-10.21,8.27-18.48,18.48-18.48l0,0
	c10.21,0,18.48,8.27,18.48,18.48l0,0C411.05,457.78,402.77,466.06,392.57,466.06z"/>
<path class="st0" d="M754.47,35.34L754.47,35.34c-7.05,0-12.76-5.71-12.76-12.76l0,0c0-7.05,5.71-12.76,12.76-12.76l0,0
	c7.05,0,12.76,5.71,12.76,12.76l0,0C767.23,29.63,761.51,35.34,754.47,35.34z"/>
<path class="st0" d="M606.14,257.76L606.14,257.76c-12.79,0-23.17-10.37-23.17-23.16l0,0c0-12.79,10.37-23.17,23.17-23.17l0,0
	c12.79,0,23.16,10.37,23.16,23.17l0,0C629.31,247.39,618.94,257.76,606.14,257.76z"/>
<path class="st0" d="M711.13,133.59L711.13,133.59c-13.66,0-24.73-11.07-24.73-24.73l0,0c0-13.66,11.07-24.73,24.73-24.73l0,0
	c13.66,0,24.73,11.07,24.73,24.73l0,0C735.86,122.51,724.78,133.59,711.13,133.59z"/>
<path class="st0" d="M500.11,198.13L500.11,198.13c-16.1,0-29.15-13.05-29.15-29.15l0,0c0-16.1,13.05-29.15,29.15-29.15l0,0
	c16.1,0,29.15,13.05,29.15,29.15l0,0C529.26,185.07,516.21,198.13,500.11,198.13z"/>
<path class="st0" d="M354.84,181.02L354.84,181.02c-12.51,0-22.65-10.14-22.65-22.65l0,0c0-12.51,10.14-22.65,22.65-22.65l0,0
	c12.51,0,22.65,10.14,22.65,22.65l0,0C377.49,170.88,367.35,181.02,354.84,181.02z"/>
<path class="st0" d="M439.33,424.28L439.33,424.28c-8.62,0-15.62-6.99-15.62-15.62l0,0c0-8.62,6.99-15.62,15.62-15.62l0,0
	c8.62,0,15.62,6.99,15.62,15.62l0,0C454.95,417.29,447.96,424.28,439.33,424.28z"/>
<path class="st0" d="M384.17,338.94L384.17,338.94c-11.79,0-21.35-9.55-21.35-21.35l0,0c0-11.79,9.55-21.35,21.35-21.35l0,0
	c11.79,0,21.35,9.55,21.35,21.35l0,0C405.52,329.38,395.96,338.94,384.17,338.94z"/>
<path class="st0" d="M234.57,160.45L234.57,160.45c-5.75,0-10.41-4.66-10.41-10.41l0,0c0-5.75,4.66-10.41,10.41-10.41l0,0
	c5.75,0,10.41,4.66,10.41,10.41l0,0C244.98,155.79,240.32,160.45,234.57,160.45z"/>
<path class="st0" d="M304.37,272.17L304.37,272.17c-7.19,0-13.02-5.83-13.02-13.02l0,0c0-7.19,5.83-13.01,13.02-13.01l0,0
	c7.19,0,13.02,5.82,13.02,13.01l0,0C317.39,266.35,311.55,272.17,304.37,272.17z"/>
<path class="st0" d="M147.61,291.35L147.61,291.35c-8.62,0-15.62-6.99-15.62-15.62l0,0c0-8.62,6.99-15.62,15.62-15.62l0,0
	c8.62,0,15.62,6.99,15.62,15.62l0,0C163.23,284.35,156.24,291.35,147.61,291.35z"/>
<path class="st0" d="M734.49,70.01L734.49,70.01c-7.05,0-12.76-5.71-12.76-12.76l0,0c0-7.05,5.71-12.76,12.76-12.76l0,0
	c7.05,0,12.76,5.71,12.76,12.76l0,0C747.24,64.3,741.53,70.01,734.49,70.01z"/>
<path class="st0" d="M683.69,206.54L683.69,206.54c-14.81,0-26.81-12-26.81-26.81l0,0c0-14.81,12-26.81,26.81-26.81l0,0
	c14.81,0,26.81,12,26.81,26.81l0,0C710.5,194.53,698.5,206.54,683.69,206.54z"/>
<path class="st0" d="M241.62,396.5L241.62,396.5c-7.76,0-14.06-6.29-14.06-14.05l0,0c0-7.76,6.29-14.05,14.05-14.05l0,0
	c7.76,0,14.05,6.29,14.05,14.05l0,0C255.68,390.21,249.39,396.5,241.62,396.5z"/>
<path class="st0" d="M637.45,135.79L637.45,135.79c-21.56,0-39.04-17.48-39.04-39.04l0,0c0-21.56,17.48-39.04,39.04-39.04l0,0
	c21.56,0,39.04,17.48,39.04,39.04l0,0C676.49,118.3,659.02,135.79,637.45,135.79z"/>
<path class="st0" d="M598.27,379.3L598.27,379.3c-15.09,0-27.33-12.24-27.33-27.33l0,0c0-15.09,12.24-27.33,27.33-27.33l0,0
	c15.09,0,27.33,12.24,27.33,27.33l0,0C625.6,367.06,613.37,379.3,598.27,379.3z"/>
<path class="st0" d="M299.73,156.3L299.73,156.3c-5.32,0-9.63-4.31-9.63-9.63l0,0c0-5.32,4.31-9.63,9.63-9.63l0,0
	c5.32,0,9.63,4.31,9.63,9.63l0,0C309.36,151.98,305.05,156.3,299.73,156.3z"/>
<path class="st0" d="M547.4,272.92L547.4,272.92c-16.82,0-30.45-13.63-30.45-30.45l0,0c0-16.82,13.63-30.45,30.45-30.45l0,0
	c16.82,0,30.45,13.63,30.45,30.45l0,0C577.86,259.29,564.22,272.92,547.4,272.92z"/>
<path class="st0" d="M311.48,387.38L311.48,387.38c-8.77,0-15.88-7.11-15.88-15.88l0,0c0-8.77,7.11-15.88,15.88-15.88l0,0
	c8.77,0,15.88,7.11,15.88,15.88l0,0C327.36,380.28,320.26,387.38,311.48,387.38z"/>
<path class="st0" d="M94.34,221.25L94.34,221.25c-10.35,0-18.74-8.39-18.74-18.74l0,0c0-10.35,8.39-18.74,18.74-18.74l0,0
	c10.35,0,18.74,8.39,18.74,18.74l0,0C113.09,212.86,104.69,221.25,94.34,221.25z"/>
<path class="st0" d="M610.99,205.92L610.99,205.92c-17.83,0-32.28-14.45-32.28-32.28l0,0c0-17.83,14.45-32.28,32.28-32.28l0,0
	c17.83,0,32.28,14.45,32.28,32.28l0,0C643.26,191.47,628.81,205.92,610.99,205.92z"/>
<path class="st0" d="M704.01,533.15L704.01,533.15c-10.21,0-18.48-8.27-18.48-18.48l0,0c0-10.21,8.27-18.48,18.48-18.48l0,0
	c10.21,0,18.48,8.27,18.48,18.48l0,0C722.49,524.88,714.22,533.15,704.01,533.15z"/>
<g>
	<g>
		<path d="M490.77,446.45c0.67,0,1.23,0.18,1.23,0.18c0.01-0.86-0.26-1.16-0.88-1.16s-1.5,0.14-1.89,0.26
			c-0.23,0.07-0.36-0.08-0.39-0.3l-0.16-0.88c-0.05-0.25,0.08-0.37,0.23-0.42c0.14-0.05,1.21-0.32,2.29-0.33
			c2.11-0.01,2.6,1.08,2.61,2.92l0.02,3.66c0,0.17-0.15,0.32-0.32,0.32h-0.6c-0.12,0-0.2-0.05-0.29-0.23l-0.21-0.45
			c-0.39,0.36-1.01,0.86-2.05,0.87c-1.35,0.01-2.28-0.86-2.29-2.3C488.07,447.39,489.05,446.46,490.77,446.45z M490.81,449.45
			c0.54,0,1.06-0.46,1.16-0.66l-0.01-0.93c0,0-0.45-0.2-0.95-0.2c-0.66,0-1.09,0.38-1.09,0.92
			C489.94,449.09,490.29,449.46,490.81,449.45z"/>
		<path d="M495.72,439.2c0-0.17,0.15-0.32,0.32-0.32l1.42-0.01c0.17,0,0.32,0.15,0.32,0.32l0.06,11.17c0,0.17-0.15,0.32-0.32,0.32
			l-1.42,0.01c-0.17,0-0.32-0.15-0.32-0.32L495.72,439.2z"/>
	</g>
	<g>
		<path d="M73.92,484.65c0.67,0,1.23,0.18,1.23,0.18c0.01-0.86-0.26-1.16-0.88-1.16s-1.5,0.14-1.89,0.26
			c-0.24,0.07-0.36-0.08-0.39-0.3l-0.16-0.88c-0.05-0.25,0.08-0.37,0.24-0.42c0.14-0.05,1.21-0.32,2.29-0.33
			c2.11-0.01,2.6,1.08,2.61,2.92l0.02,3.66c0,0.17-0.15,0.32-0.32,0.32h-0.61c-0.12,0-0.2-0.05-0.29-0.23l-0.21-0.45
			c-0.38,0.36-1.01,0.86-2.05,0.87c-1.35,0.01-2.28-0.86-2.29-2.3C71.24,485.59,72.21,484.66,73.92,484.65z M73.98,487.65
			c0.54,0,1.06-0.46,1.16-0.66l-0.01-0.93c0,0-0.45-0.2-0.95-0.2c-0.66,0-1.1,0.38-1.09,0.92C73.1,487.29,73.45,487.65,73.98,487.65
			z"/>
		<path d="M78.89,477.4c0-0.17,0.15-0.32,0.32-0.32l1.43-0.01c0.17,0,0.32,0.15,0.32,0.32L81,484.7l2.32-2.37
			c0.12-0.1,0.24-0.2,0.42-0.21l1.53-0.01c0.29,0,0.39,0.3,0.22,0.49l-2.5,2.58l3.02,3.21c0.17,0.18,0.07,0.47-0.21,0.47l-1.82,0.01
			c-0.1,0-0.24-0.07-0.29-0.14l-2.68-3.02l0.01,2.85c0,0.17-0.15,0.32-0.32,0.32l-1.43,0.01c-0.17,0-0.32-0.15-0.32-0.32
			L78.89,477.4z"/>
	</g>
	<g>
		<path d="M180.02,342.07c0.68,0,1.23,0.18,1.23,0.18c0.01-0.86-0.26-1.16-0.88-1.16c-0.62,0-1.5,0.14-1.89,0.26
			c-0.24,0.07-0.36-0.08-0.39-0.3l-0.16-0.88c-0.05-0.25,0.09-0.37,0.24-0.42c0.14-0.05,1.21-0.32,2.29-0.33
			c2.11-0.01,2.6,1.08,2.61,2.92l0.02,3.66c0,0.17-0.15,0.32-0.32,0.32h-0.61c-0.12,0-0.2-0.05-0.29-0.23l-0.21-0.45
			c-0.38,0.36-1.01,0.86-2.05,0.87c-1.35,0.01-2.28-0.86-2.29-2.3C177.32,343.02,178.3,342.08,180.02,342.07z M180.07,345.08
			c0.54,0,1.06-0.46,1.16-0.66l-0.01-0.93c0,0-0.45-0.2-0.95-0.2c-0.66,0-1.1,0.38-1.09,0.92
			C179.19,344.71,179.54,345.08,180.07,345.08z"/>
		<path d="M184.52,345.83l2.37-4.44v-0.03l-1.92,0.01c-0.17,0-0.3-0.15-0.3-0.32l-0.01-1.16c0-0.19,0.14-0.32,0.3-0.32l4.46-0.02
			c0.25,0,0.42,0.23,0.29,0.45l-2.42,4.47v0.05l1.82-0.01c0.19,0,0.32,0.14,0.32,0.32l0.01,1.15c0,0.17-0.14,0.32-0.32,0.32
			l-4.27,0.02c-0.17,0-0.32-0.15-0.32-0.32L184.52,345.83L184.52,345.83z"/>
	</g>
	<g>
		<path d="M392.66,366.91c0.67,0,1.23,0.18,1.23,0.18c0.01-0.86-0.26-1.16-0.88-1.16s-1.5,0.14-1.89,0.26
			c-0.23,0.07-0.36-0.08-0.39-0.3l-0.16-0.88c-0.05-0.25,0.08-0.37,0.23-0.42c0.14-0.05,1.21-0.32,2.29-0.33
			c2.11-0.01,2.6,1.08,2.61,2.92l0.02,3.66c0,0.17-0.15,0.32-0.32,0.32h-0.6c-0.12,0-0.2-0.05-0.29-0.23l-0.21-0.45
			c-0.39,0.36-1.01,0.86-2.05,0.87c-1.35,0.01-2.28-0.86-2.29-2.3C389.97,367.85,390.94,366.91,392.66,366.91z M392.71,369.91
			c0.54,0,1.06-0.46,1.16-0.66l-0.01-0.93c0,0-0.45-0.2-0.95-0.2c-0.66,0-1.1,0.38-1.09,0.92
			C391.84,369.54,392.19,369.91,392.71,369.91z"/>
		<path d="M397.65,364.72c0-0.19,0.15-0.32,0.32-0.32h0.64c0.15,0,0.25,0.08,0.3,0.22l0.24,0.66c0.23-0.34,0.86-1.05,1.9-1.05
			c0.79-0.01,1.5,0.25,1.3,0.67l-0.62,1.1c-0.08,0.15-0.25,0.22-0.39,0.16c-0.05-0.02-0.3-0.1-0.49-0.1c-0.68,0-1.08,0.46-1.2,0.7
			l0.02,4.08c0,0.23-0.15,0.32-0.38,0.32l-1.3,0.01c-0.17,0-0.32-0.15-0.32-0.32L397.65,364.72z"/>
	</g>
	<g>
		<path d="M41.74,242.32c1.05-0.01,1.86,0.41,2.5,1.18c0.12,0.15,0.08,0.35-0.08,0.47l-0.77,0.75c-0.15,0.14-0.31,0.05-0.42-0.05
			c-0.27-0.3-0.69-0.54-1.17-0.53c-0.91,0.01-1.65,0.79-1.64,1.73c0.01,0.96,0.73,1.71,1.64,1.71c0.73-0.01,1.05-0.36,1.34-0.65
			c0.12-0.12,0.28-0.16,0.42-0.05l0.73,0.62c0.17,0.14,0.24,0.3,0.12,0.47c-0.57,0.9-1.46,1.42-2.66,1.43
			c-1.91,0.01-3.58-1.5-3.6-3.53C38.15,243.89,39.85,242.33,41.74,242.32z"/>
		<path d="M48.08,244.94c0.67,0,1.23,0.18,1.23,0.18c0.01-0.86-0.26-1.16-0.88-1.16c-0.62,0-1.5,0.14-1.89,0.26
			c-0.24,0.07-0.36-0.09-0.39-0.3l-0.16-0.88c-0.05-0.25,0.08-0.37,0.24-0.42c0.14-0.05,1.21-0.32,2.29-0.33
			c2.11-0.01,2.6,1.08,2.61,2.92l0.02,3.66c0,0.17-0.15,0.32-0.32,0.32h-0.61c-0.12,0-0.2-0.05-0.28-0.24l-0.2-0.45
			c-0.39,0.36-1.01,0.86-2.05,0.87c-1.35,0.01-2.28-0.86-2.29-2.3C45.39,245.88,46.36,244.95,48.08,244.94z M48.13,247.94
			c0.54,0,1.06-0.46,1.16-0.66l-0.01-0.93c0,0-0.45-0.2-0.95-0.2c-0.66,0-1.1,0.38-1.09,0.92C47.25,247.57,47.6,247.94,48.13,247.94
			z"/>
	</g>
	<g>
		<path d="M282.24,288.6c1.05-0.01,1.86,0.41,2.5,1.18c0.12,0.15,0.08,0.35-0.08,0.47l-0.77,0.75c-0.15,0.14-0.3,0.05-0.42-0.05
			c-0.27-0.3-0.7-0.54-1.17-0.53c-0.91,0.01-1.65,0.79-1.64,1.73c0.01,0.96,0.73,1.71,1.64,1.71c0.73-0.01,1.05-0.36,1.34-0.65
			c0.12-0.12,0.29-0.16,0.42-0.05l0.73,0.62c0.17,0.14,0.24,0.3,0.12,0.47c-0.57,0.9-1.46,1.42-2.66,1.43
			c-1.91,0.01-3.58-1.5-3.6-3.53C278.66,290.16,280.36,288.6,282.24,288.6z"/>
		<path d="M289.3,288.56c1.91-0.01,3.47,1.6,3.48,3.51c0.01,1.94-1.53,3.57-3.44,3.58c-1.9,0.01-3.47-1.6-3.48-3.54
			C285.85,290.2,287.4,288.57,289.3,288.56z M289.33,293.83c0.9-0.01,1.62-0.79,1.61-1.75c-0.01-0.94-0.73-1.7-1.63-1.7
			c-0.91,0.01-1.62,0.77-1.61,1.71C287.71,293.05,288.42,293.83,289.33,293.83z"/>
	</g>
	<g>
		<path d="M612.58,458.47h-0.6c-0.19,0-0.32-0.14-0.32-0.3l-0.01-1.11c0-0.19,0.14-0.34,0.32-0.34h0.6l-0.01-1.84
			c-0.01-2.2,1.5-3.4,3.31-3.41c1.47-0.01,2.42,0.93,2.42,0.93l0.18-0.47c0.08-0.19,0.18-0.3,0.4-0.3h0.54
			c0.17,0,0.32,0.15,0.32,0.32l0.06,11.17c0,0.17-0.15,0.32-0.32,0.32l-1.41,0.01c-0.17,0-0.32-0.15-0.32-0.32l-0.05-8.91
			c-0.08-0.12-0.71-0.83-1.62-0.82c-0.71,0-1.41,0.45-1.41,1.49l0.01,1.83l1.41-0.01c0.17,0,0.32,0.14,0.32,0.32l0.01,1.11
			c0,0.17-0.15,0.32-0.32,0.32l-1.41,0.01l0.03,4.68c0,0.17-0.15,0.32-0.32,0.32l-1.47,0.01c-0.17,0-0.3-0.15-0.3-0.32
			L612.58,458.47z"/>
	</g>
	<g>
		<path d="M535.7,398.5c0,0-0.51-0.57-0.51-1.58c-0.01-1.57,1.25-2.94,2.92-2.95l3.07-0.01c0.19,0,0.32,0.14,0.32,0.32v0.56
			c0,0.12-0.07,0.25-0.18,0.29l-0.94,0.31c0,0,0.68,0.52,0.68,1.71c0.01,1.33-1.1,2.66-2.87,2.66c-0.64,0-1.08-0.13-1.35-0.13
			c-0.23,0-0.62,0.24-0.62,0.64c0,0.36,0.3,0.57,0.67,0.57l2.16-0.01c1.53-0.01,2.79,0.86,2.8,2.35c0.01,1.55-1.23,2.88-3.68,2.88
			c-2.5,0.01-3.45-1.21-3.46-2.29c-0.01-1.01,0.84-1.51,1.01-1.61v-0.05c-0.28-0.08-1.27-0.53-1.27-1.77
			C534.44,399.08,535.7,398.5,535.7,398.5z M538.14,404.43c0.94-0.01,1.56-0.43,1.56-1.07c0-0.3-0.24-0.83-1.23-0.82
			c-0.37,0-0.74,0.02-1.1,0.07c-0.2,0.07-0.73,0.3-0.72,0.83C536.66,404.03,537.23,404.43,538.14,404.43z M538.18,398.2
			c0.69,0,1.16-0.51,1.16-1.22c0-0.71-0.48-1.21-1.17-1.21c-0.67,0-1.17,0.51-1.17,1.22C536.99,397.7,537.51,398.2,538.18,398.2z"/>
		<path d="M545.14,396.57c0.67,0,1.23,0.18,1.23,0.18c0.01-0.86-0.26-1.16-0.88-1.16s-1.5,0.14-1.89,0.26
			c-0.23,0.07-0.36-0.08-0.39-0.3l-0.16-0.88c-0.05-0.25,0.08-0.37,0.23-0.42c0.14-0.05,1.21-0.32,2.29-0.33
			c2.11-0.01,2.6,1.08,2.61,2.92l0.02,3.66c0,0.17-0.15,0.32-0.32,0.32h-0.6c-0.12,0-0.2-0.05-0.28-0.23l-0.21-0.45
			c-0.39,0.36-1.01,0.86-2.05,0.87c-1.35,0.01-2.28-0.86-2.29-2.3C542.44,397.52,543.42,396.59,545.14,396.57z M545.19,399.58
			c0.54,0,1.06-0.46,1.16-0.66l-0.01-0.93c0,0-0.45-0.2-0.95-0.2c-0.66,0-1.09,0.38-1.09,0.92
			C544.31,399.21,544.66,399.58,545.19,399.58z"/>
	</g>
	<g>
		<path d="M160.44,175.03c0-0.64,0.5-1.17,1.14-1.17c0.66,0,1.18,0.52,1.19,1.16c0.01,0.64-0.52,1.17-1.18,1.17
			C160.94,176.19,160.44,175.67,160.44,175.03z M160.61,178.91c0-0.19,0.15-0.32,0.32-0.32l1.4-0.01c0.17,0,0.32,0.14,0.32,0.32
			l0.03,6.1c0,0.17-0.15,0.32-0.32,0.32l-1.4,0.01c-0.17,0-0.32-0.15-0.32-0.32L160.61,178.91z"/>
		<path d="M167.5,178.38c0.68,0,1.2,0.18,1.5,0.3l-0.03-4.88c0-0.17,0.15-0.32,0.32-0.32l1.43-0.01c0.17,0,0.32,0.15,0.32,0.32
			l0.06,11.17c0,0.17-0.15,0.32-0.32,0.32h-0.66c-0.15,0-0.27-0.14-0.32-0.32l-0.17-0.52c0,0-0.79,1.01-2.21,1.03
			c-1.84,0.01-3.25-1.58-3.26-3.53C164.17,179.97,165.5,178.39,167.5,178.38z M167.68,183.64c0.9-0.01,1.29-0.7,1.41-1.1l-0.01-1.96
			c0,0-0.47-0.38-1.32-0.38c-0.94,0.01-1.63,0.79-1.63,1.73C166.15,182.88,166.79,183.65,167.68,183.64z"/>
	</g>
	<g>
		<path d="M449.52,215.41c0-0.64,0.5-1.17,1.14-1.17c0.66,0,1.18,0.52,1.19,1.16c0,0.64-0.52,1.17-1.17,1.17
			C450.03,216.57,449.52,216.05,449.52,215.41z M449.69,219.28c0-0.19,0.15-0.32,0.32-0.32l1.4-0.01c0.17,0,0.32,0.14,0.32,0.32
			l0.03,6.1c0,0.17-0.15,0.32-0.32,0.32l-1.4,0.01c-0.17,0-0.32-0.15-0.32-0.32L449.69,219.28z"/>
		<path d="M453.73,214.21c0-0.17,0.15-0.32,0.32-0.32l1.42-0.01c0.17,0,0.32,0.15,0.32,0.32l0.06,11.17c0,0.17-0.15,0.32-0.32,0.32
			l-1.42,0.01c-0.17,0-0.32-0.15-0.32-0.32L453.73,214.21z"/>
	</g>
	<g>
		<path d="M487.16,229.15c0-0.64,0.5-1.17,1.14-1.17c0.66,0,1.18,0.52,1.19,1.16c0,0.64-0.52,1.17-1.17,1.17
			C487.67,230.31,487.16,229.79,487.16,229.15z M487.33,233.03c0-0.19,0.15-0.32,0.32-0.32l1.4-0.01c0.17,0,0.32,0.14,0.32,0.32
			l0.03,6.1c0,0.17-0.15,0.32-0.32,0.32l-1.4,0.01c-0.17,0-0.32-0.15-0.32-0.32L487.33,233.03z"/>
		<path d="M491.4,233.01c0-0.19,0.15-0.32,0.32-0.32h0.64c0.15,0,0.23,0.09,0.29,0.2l0.24,0.62c0.25-0.27,1.07-1,2.38-1.01
			c2.14-0.01,3.01,1.58,3.02,3.34l0.01,3.24c0,0.17-0.15,0.32-0.32,0.32l-1.38,0.01c-0.19,0-0.32-0.15-0.32-0.32l-0.02-3.34
			c-0.01-0.88-0.46-1.43-1.27-1.43c-0.88,0.01-1.42,0.62-1.58,1.07l0.02,3.71c0,0.24-0.1,0.32-0.42,0.32l-1.25,0.01
			c-0.17,0-0.32-0.15-0.32-0.32L491.4,233.01z"/>
	</g>
	<g>
		<path d="M352.09,207.3c0-0.64,0.5-1.17,1.14-1.17c0.66,0,1.18,0.52,1.19,1.16c0,0.64-0.52,1.17-1.17,1.17
			C352.6,208.46,352.09,207.94,352.09,207.3z M352.26,211.17c0-0.19,0.15-0.32,0.32-0.32l1.4-0.01c0.17,0,0.32,0.14,0.32,0.32
			l0.03,6.1c0,0.17-0.15,0.32-0.32,0.32l-1.4,0.01c-0.17,0-0.32-0.15-0.32-0.32L352.26,211.17z"/>
		<path d="M358.55,213.3c0.68,0,1.23,0.18,1.23,0.18c0.01-0.86-0.26-1.16-0.88-1.16c-0.62,0-1.5,0.14-1.89,0.26
			c-0.23,0.07-0.36-0.09-0.39-0.3l-0.16-0.88c-0.05-0.25,0.08-0.37,0.23-0.42c0.14-0.05,1.21-0.32,2.29-0.33
			c2.11-0.01,2.6,1.08,2.61,2.92l0.02,3.66c0,0.17-0.15,0.32-0.32,0.32h-0.6c-0.12,0-0.2-0.05-0.29-0.24l-0.21-0.45
			c-0.39,0.36-1.01,0.86-2.05,0.87c-1.35,0.01-2.28-0.86-2.29-2.3C355.85,214.24,356.83,213.31,358.55,213.3z M358.59,216.3
			c0.54,0,1.06-0.46,1.16-0.66l-0.01-0.93c0,0-0.45-0.2-0.95-0.2c-0.66,0-1.09,0.38-1.09,0.92
			C357.72,215.94,358.07,216.31,358.59,216.3z"/>
	</g>
	<g>
		<path d="M330.7,289.55c0-0.17,0.15-0.32,0.32-0.32l1.43-0.01c0.17,0,0.32,0.15,0.32,0.32l0.04,7.31l2.32-2.38
			c0.12-0.1,0.23-0.2,0.42-0.2l1.53-0.01c0.29,0,0.39,0.3,0.22,0.49l-2.5,2.58l3.02,3.21c0.17,0.18,0.07,0.47-0.21,0.47l-1.83,0.01
			c-0.1,0-0.23-0.07-0.29-0.14l-2.68-3.03l0.01,2.85c0,0.17-0.15,0.32-0.32,0.32l-1.43,0.01c-0.17,0-0.32-0.15-0.32-0.32
			L330.7,289.55z"/>
		<path d="M338.64,300.18l0.45-0.92c0.07-0.17,0.23-0.2,0.39-0.12c0,0,0.76,0.4,1.54,0.4c0.34,0,0.57-0.14,0.57-0.42
			c0-0.3-0.24-0.49-1.14-0.84c-1.3-0.5-1.92-1.19-1.92-2.22c-0.01-1.03,0.75-1.99,2.47-2c0.99-0.01,1.72,0.28,2.08,0.51
			c0.15,0.1,0.24,0.29,0.16,0.45l-0.42,0.86c-0.08,0.15-0.27,0.17-0.4,0.12c0,0-0.76-0.35-1.4-0.35c-0.4,0-0.57,0.17-0.57,0.39
			c0,0.3,0.3,0.4,0.93,0.66c1.3,0.5,2.29,1.05,2.29,2.37c0.01,1.11-0.97,2.06-2.67,2.07c-1.12,0.01-1.89-0.35-2.25-0.61
			C338.64,300.46,338.56,300.32,338.64,300.18z"/>
	</g>
	<g>
		<path d="M486.41,330.46c0-0.17,0.15-0.32,0.32-0.32l1.43-0.01c0.17,0,0.32,0.15,0.32,0.32l0.04,7.31l2.32-2.37
			c0.12-0.1,0.23-0.2,0.42-0.2l1.53-0.01c0.29,0,0.39,0.3,0.22,0.49l-2.5,2.58l3.02,3.21c0.17,0.18,0.07,0.47-0.21,0.47l-1.83,0.01
			c-0.1,0-0.23-0.07-0.29-0.14l-2.68-3.03l0.01,2.85c0,0.17-0.15,0.32-0.32,0.32l-1.43,0.01c-0.17,0-0.32-0.15-0.32-0.32
			L486.41,330.46z"/>
		<path d="M493.81,335.6c-0.1-0.22,0.03-0.44,0.29-0.44l1.52-0.01c0.15,0,0.24,0.08,0.29,0.18l1.72,3.81h0.02l1.67-3.82
			c0.08-0.17,0.2-0.19,0.4-0.19l1.35-0.01c0.27,0,0.41,0.21,0.29,0.43l-5.11,11.2c-0.05,0.1-0.15,0.2-0.29,0.2l-1.45,0.01
			c-0.25,0-0.4-0.21-0.29-0.45l2.37-5.09L493.81,335.6z"/>
	</g>
	<g>
		<path d="M373.29,414.86c0-0.17,0.15-0.32,0.32-0.32l1.42-0.01c0.17,0,0.32,0.15,0.32,0.32l0.06,11.17c0,0.17-0.15,0.32-0.32,0.32
			l-1.42,0.01c-0.17,0-0.32-0.15-0.32-0.32L373.29,414.86z"/>
		<path d="M379.61,422.04c0.67,0,1.23,0.18,1.23,0.18c0.01-0.86-0.26-1.16-0.88-1.16c-0.62,0-1.5,0.14-1.89,0.26
			c-0.23,0.07-0.36-0.08-0.39-0.3l-0.16-0.88c-0.05-0.25,0.08-0.37,0.23-0.42c0.14-0.05,1.21-0.32,2.29-0.33
			c2.11-0.01,2.6,1.08,2.61,2.92l0.02,3.66c0,0.17-0.15,0.32-0.32,0.32h-0.6c-0.12,0-0.2-0.05-0.29-0.23l-0.21-0.45
			c-0.38,0.36-1.01,0.86-2.05,0.87c-1.35,0.01-2.28-0.86-2.29-2.3C376.93,422.99,377.89,422.06,379.61,422.04z M379.67,425.05
			c0.54,0,1.06-0.46,1.16-0.66l-0.01-0.93c0,0-0.45-0.2-0.95-0.2c-0.66,0-1.1,0.38-1.09,0.92
			C378.79,424.68,379.15,425.05,379.67,425.05z"/>
	</g>
	<g>
		<path d="M769.83,19.1c0-0.19,0.15-0.32,0.32-0.32h0.62c0.15,0,0.25,0.08,0.28,0.18l0.24,0.64c0.28-0.32,1.06-1,2.25-1.01
			c0.96-0.01,1.64,0.36,2.2,1.03c0.28-0.31,1.16-1.05,2.37-1.06c2.16-0.01,2.96,1.58,2.97,3.36l0.01,3.22
			c0,0.17-0.14,0.32-0.32,0.32l-1.36,0.01c-0.18,0-0.32-0.15-0.32-0.32l-0.02-3.34c-0.01-0.88-0.43-1.43-1.27-1.43
			c-0.98,0.01-1.41,0.71-1.41,0.71s0.02,0.34,0.02,0.64l0.02,3.42c0,0.17-0.15,0.32-0.32,0.32l-1.27,0.01
			c-0.19,0-0.32-0.15-0.32-0.32l-0.02-3.34c-0.01-0.88-0.4-1.43-1.25-1.43c-0.84,0.01-1.25,0.62-1.41,1.07l0.02,3.71
			c0,0.17-0.15,0.32-0.32,0.32l-1.36,0.01c-0.17,0-0.32-0.15-0.32-0.32L769.83,19.1z"/>
		<path d="M785.91,18.52c1.74-0.01,3.16,1.3,3.17,3.12c0,0.12-0.01,0.34-0.03,0.45c-0.01,0.17-0.17,0.28-0.32,0.28l-4.32,0.02
			c0.05,0.69,0.65,1.47,1.63,1.46c0.53,0,1.01-0.21,1.31-0.43c0.17-0.1,0.32-0.14,0.44,0l0.7,0.79c0.12,0.12,0.15,0.31-0.01,0.44
			c-0.55,0.53-1.41,0.93-2.51,0.94c-2.03,0.01-3.47-1.58-3.47-3.53C782.47,20.18,783.9,18.54,785.91,18.52z M787.1,21.22
			c-0.05-0.62-0.6-1.14-1.23-1.14c-0.67,0-1.23,0.51-1.31,1.16L787.1,21.22z"/>
	</g>
	<g>
		<path d="M506.52,132.92c0-0.19,0.15-0.32,0.32-0.32h0.62c0.15,0,0.25,0.09,0.29,0.18l0.24,0.64c0.29-0.32,1.06-1,2.25-1.01
			c0.96-0.01,1.64,0.36,2.2,1.03c0.28-0.3,1.16-1.05,2.38-1.06c2.16-0.01,2.96,1.58,2.97,3.36l0.01,3.22c0,0.17-0.14,0.32-0.32,0.32
			l-1.36,0.01c-0.18,0-0.32-0.15-0.32-0.32l-0.02-3.34c-0.01-0.88-0.43-1.43-1.27-1.43c-0.98,0.01-1.42,0.71-1.42,0.71
			s0.02,0.34,0.02,0.64l0.02,3.42c0,0.17-0.15,0.32-0.32,0.32l-1.27,0.01c-0.19,0-0.32-0.15-0.32-0.32l-0.02-3.34
			c-0.01-0.88-0.4-1.43-1.25-1.43c-0.85,0.01-1.25,0.62-1.41,1.07l0.02,3.71c0,0.17-0.15,0.32-0.32,0.32l-1.36,0.01
			c-0.17,0-0.32-0.15-0.32-0.32L506.52,132.92z"/>
		<path d="M519.49,128.97c-0.01-0.64,0.5-1.17,1.14-1.17c0.66,0,1.18,0.52,1.19,1.16c0.01,0.64-0.52,1.17-1.17,1.17
			C520,130.14,519.49,129.62,519.49,128.97z M519.66,132.85c0-0.19,0.15-0.32,0.32-0.32l1.4-0.01c0.17,0,0.32,0.14,0.32,0.32
			l0.03,6.1c0,0.17-0.15,0.32-0.32,0.32l-1.4,0.01c-0.17,0-0.32-0.15-0.32-0.32L519.66,132.85z"/>
	</g>
	<g>
		<path d="M365.12,125.77c0-0.19,0.15-0.32,0.32-0.32h0.62c0.15,0,0.25,0.08,0.29,0.18l0.24,0.64c0.29-0.32,1.06-1,2.25-1.01
			c0.96-0.01,1.64,0.36,2.2,1.03c0.29-0.31,1.16-1.05,2.37-1.06c2.16-0.01,2.96,1.58,2.97,3.36l0.01,3.22
			c0,0.17-0.14,0.32-0.32,0.32l-1.36,0.01c-0.19,0-0.32-0.15-0.32-0.32l-0.02-3.34c-0.01-0.88-0.43-1.43-1.27-1.43
			c-0.98,0.01-1.42,0.71-1.42,0.71s0.02,0.34,0.02,0.64l0.02,3.42c0,0.17-0.15,0.32-0.32,0.32l-1.27,0.01
			c-0.19,0-0.32-0.15-0.32-0.32l-0.02-3.34c-0.01-0.88-0.4-1.44-1.25-1.43c-0.85,0.01-1.25,0.62-1.41,1.07l0.02,3.71
			c0,0.17-0.15,0.32-0.32,0.32l-1.36,0.01c-0.17,0-0.32-0.15-0.32-0.32L365.12,125.77z"/>
		<path d="M378.26,125.71c0-0.19,0.15-0.32,0.32-0.32h0.64c0.15,0,0.23,0.08,0.29,0.2l0.24,0.62c0.25-0.27,1.07-1,2.38-1.01
			c2.14-0.01,3.01,1.58,3.02,3.34l0.01,3.24c0,0.17-0.15,0.32-0.32,0.32l-1.38,0.01c-0.19,0-0.32-0.15-0.32-0.32l-0.02-3.34
			c-0.01-0.88-0.46-1.43-1.27-1.43c-0.88,0.01-1.42,0.62-1.58,1.07l0.02,3.71c0,0.24-0.1,0.32-0.42,0.32l-1.25,0.01
			c-0.17,0-0.32-0.15-0.32-0.32L378.26,125.71z"/>
	</g>
	<g>
		<path d="M452.81,390.07c0-0.19,0.15-0.32,0.32-0.32h0.62c0.15,0,0.25,0.08,0.29,0.18l0.24,0.64c0.29-0.32,1.06-1,2.25-1.01
			c0.96-0.01,1.64,0.36,2.2,1.03c0.29-0.3,1.16-1.05,2.37-1.06c2.16-0.01,2.96,1.58,2.97,3.36l0.01,3.22c0,0.17-0.14,0.32-0.32,0.32
			l-1.36,0.01c-0.19,0-0.32-0.15-0.32-0.32l-0.02-3.34c-0.01-0.88-0.43-1.43-1.27-1.43c-0.98,0.01-1.42,0.71-1.42,0.71
			s0.02,0.34,0.02,0.64l0.02,3.42c0,0.17-0.15,0.32-0.32,0.32l-1.27,0.01c-0.19,0-0.32-0.15-0.32-0.32l-0.02-3.34
			c-0.01-0.88-0.4-1.43-1.25-1.43c-0.85,0.01-1.25,0.62-1.41,1.07l0.02,3.71c0,0.17-0.15,0.32-0.32,0.32l-1.36,0.01
			c-0.17,0-0.32-0.15-0.32-0.32L452.81,390.07z"/>
		<path d="M465.61,395.63l0.45-0.92c0.07-0.17,0.23-0.2,0.39-0.12c0,0,0.76,0.4,1.54,0.4c0.34,0,0.57-0.14,0.57-0.42
			c0-0.3-0.24-0.49-1.14-0.84c-1.3-0.5-1.92-1.19-1.92-2.21c-0.01-1.03,0.75-1.99,2.47-2c0.99-0.01,1.72,0.28,2.08,0.51
			c0.15,0.1,0.24,0.29,0.16,0.45l-0.42,0.86c-0.08,0.15-0.27,0.17-0.4,0.12c0,0-0.76-0.35-1.4-0.34c-0.4,0-0.57,0.17-0.57,0.39
			c0,0.3,0.3,0.4,0.93,0.66c1.3,0.5,2.29,1.05,2.29,2.37c0.01,1.11-0.97,2.07-2.67,2.07c-1.12,0.01-1.89-0.35-2.25-0.61
			C465.61,395.89,465.54,395.76,465.61,395.63z"/>
	</g>
	<g>
		<path d="M385.85,285.47c0-0.19,0.15-0.32,0.32-0.32h0.62c0.15,0,0.25,0.08,0.29,0.18l0.24,0.64c0.29-0.32,1.06-1,2.25-1.01
			c0.96-0.01,1.64,0.36,2.2,1.03c0.29-0.3,1.16-1.05,2.37-1.06c2.16-0.01,2.96,1.58,2.97,3.36l0.02,3.22c0,0.17-0.14,0.32-0.32,0.32
			l-1.36,0.01c-0.18,0-0.32-0.15-0.32-0.32l-0.02-3.34c-0.01-0.88-0.43-1.43-1.27-1.43c-0.98,0.01-1.42,0.71-1.42,0.71
			s0.02,0.34,0.02,0.64l0.02,3.42c0,0.17-0.15,0.32-0.32,0.32l-1.27,0.01c-0.19,0-0.32-0.15-0.32-0.32l-0.02-3.34
			c-0.01-0.88-0.4-1.43-1.25-1.43c-0.85,0.01-1.25,0.62-1.41,1.07l0.02,3.71c0,0.17-0.15,0.32-0.32,0.32l-1.36,0.01
			c-0.17,0-0.32-0.15-0.32-0.32L385.85,285.47z"/>
		<path d="M401.93,284.9c1.91-0.01,3.47,1.6,3.48,3.51c0.01,1.94-1.53,3.57-3.44,3.58c-1.91,0.01-3.47-1.6-3.48-3.54
			C398.48,286.53,400.02,284.9,401.93,284.9z M401.96,290.16c0.9-0.01,1.62-0.79,1.61-1.75c-0.01-0.94-0.73-1.7-1.63-1.7
			c-0.91,0.01-1.62,0.77-1.61,1.71C400.33,289.39,401.05,290.16,401.96,290.16z"/>
	</g>
	<g>
		<path d="M227.84,129.34c0-0.19,0.15-0.32,0.32-0.32h0.62c0.15,0,0.25,0.08,0.29,0.18l0.24,0.64c0.29-0.32,1.06-1,2.25-1.01
			c0.96-0.01,1.64,0.36,2.2,1.03c0.29-0.3,1.16-1.05,2.37-1.06c2.16-0.01,2.96,1.58,2.97,3.36l0.01,3.22c0,0.17-0.14,0.32-0.32,0.32
			l-1.36,0.01c-0.19,0-0.32-0.15-0.32-0.32l-0.02-3.34c-0.01-0.88-0.43-1.43-1.27-1.43c-0.98,0.01-1.41,0.71-1.41,0.71
			s0.02,0.34,0.02,0.64l0.02,3.42c0,0.17-0.15,0.32-0.32,0.32l-1.27,0.01c-0.19,0-0.32-0.15-0.32-0.32l-0.02-3.34
			c-0.01-0.88-0.4-1.43-1.25-1.43c-0.84,0.01-1.25,0.62-1.41,1.07l0.02,3.71c0,0.17-0.15,0.32-0.32,0.32l-1.36,0.01
			c-0.17,0-0.32-0.15-0.32-0.32L227.84,129.34z"/>
		<path d="M241.34,130.72h-0.57c-0.17,0-0.3-0.15-0.3-0.32l-0.01-1.13c0-0.19,0.14-0.32,0.3-0.32h0.57l-0.01-1.87
			c0-0.17,0.15-0.32,0.32-0.32l1.38-0.03c0.17,0,0.3,0.15,0.3,0.32l0.01,1.89l1.49-0.01c0.19,0,0.32,0.14,0.32,0.32l0.01,1.13
			c0,0.17-0.14,0.32-0.32,0.32l-1.49,0.01l0.01,2.7c0,0.47,0.25,0.54,0.53,0.54c0.29,0,0.64-0.12,0.82-0.19
			c0.19-0.07,0.32,0.01,0.37,0.18l0.35,1.06c0.07,0.17-0.01,0.34-0.18,0.41c-0.09,0.05-1.18,0.44-2.01,0.45
			c-1.3,0.01-1.88-0.8-1.88-2.17L241.34,130.72z"/>
	</g>
	<g>
		<path d="M282.88,236.9c0-0.19,0.15-0.32,0.32-0.32h0.64c0.15,0,0.23,0.09,0.29,0.2l0.24,0.62c0.25-0.27,1.07-1,2.38-1.01
			c2.14-0.01,3.01,1.58,3.02,3.34l0.02,3.24c0,0.17-0.15,0.32-0.32,0.32l-1.38,0.01c-0.19,0-0.32-0.15-0.32-0.32l-0.02-3.34
			c-0.01-0.88-0.46-1.43-1.27-1.43c-0.88,0.01-1.42,0.62-1.58,1.07l0.02,3.71c0,0.24-0.1,0.32-0.42,0.32l-1.25,0.01
			c-0.17,0-0.32-0.15-0.32-0.32L282.88,236.9z"/>
		<path d="M294.57,236.35c1.74-0.01,3.16,1.3,3.17,3.12c0,0.12-0.01,0.34-0.03,0.45c-0.01,0.17-0.17,0.29-0.32,0.29l-4.32,0.02
			c0.05,0.69,0.65,1.47,1.63,1.46c0.53,0,1.01-0.21,1.31-0.43c0.17-0.1,0.32-0.14,0.44,0l0.7,0.79c0.12,0.12,0.16,0.3-0.01,0.44
			c-0.55,0.53-1.41,0.93-2.51,0.94c-2.03,0.01-3.47-1.58-3.48-3.53C291.14,238.01,292.56,236.37,294.57,236.35z M295.77,239.05
			c-0.05-0.62-0.6-1.14-1.24-1.14c-0.67,0-1.23,0.51-1.31,1.16L295.77,239.05z"/>
	</g>
	<g>
		<path d="M131.39,248.77c0-0.19,0.15-0.32,0.32-0.32h0.64c0.15,0,0.24,0.09,0.29,0.2l0.24,0.62c0.25-0.27,1.07-1,2.37-1.01
			c2.14-0.01,3.01,1.58,3.02,3.34l0.01,3.24c0,0.17-0.15,0.32-0.32,0.32l-1.38,0.01c-0.19,0-0.32-0.15-0.32-0.32l-0.02-3.34
			c-0.01-0.88-0.46-1.43-1.27-1.43c-0.88,0.01-1.42,0.62-1.58,1.07l0.02,3.71c0,0.24-0.1,0.32-0.42,0.32l-1.25,0.01
			c-0.17,0-0.32-0.15-0.32-0.32L131.39,248.77z"/>
		<path d="M139.26,248.81c-0.1-0.22-0.02-0.4,0.24-0.41l1.47-0.01c0.17,0,0.25,0.09,0.3,0.18l1.38,3.13c0.02,0,0.03,0,0.03,0
			l1.43-3.14c0.09-0.17,0.22-0.19,0.4-0.19l1.32-0.01c0.25,0,0.36,0.18,0.24,0.4l-3.05,6.36c-0.05,0.09-0.14,0.17-0.29,0.17h-0.09
			c-0.15,0-0.24-0.09-0.29-0.17L139.26,248.81z"/>
	</g>
	<g>
		<path d="M213.39,360.78c0-0.19,0.15-0.32,0.32-0.32h0.64c0.15,0,0.24,0.08,0.29,0.2l0.24,0.62c0.25-0.27,1.07-1,2.37-1.01
			c2.14-0.01,3.01,1.58,3.02,3.34l0.01,3.24c0,0.17-0.15,0.32-0.32,0.32l-1.38,0.01c-0.19,0-0.32-0.15-0.32-0.32l-0.02-3.34
			c-0.01-0.88-0.46-1.43-1.27-1.43c-0.88,0.01-1.41,0.62-1.58,1.07l0.02,3.71c0,0.23-0.1,0.32-0.42,0.32l-1.25,0.01
			c-0.17,0-0.32-0.15-0.32-0.32L213.39,360.78z"/>
		<path d="M222.14,360.74c0-0.19,0.15-0.32,0.32-0.32h0.62c0.15,0,0.25,0.08,0.29,0.18l0.24,0.64c0.29-0.32,1.06-1,2.25-1.01
			c0.96-0.01,1.64,0.36,2.2,1.03c0.29-0.3,1.16-1.05,2.37-1.06c2.16-0.01,2.96,1.58,2.97,3.36l0.01,3.22c0,0.17-0.14,0.32-0.32,0.32
			l-1.36,0.01c-0.19,0-0.32-0.15-0.32-0.32l-0.02-3.34c-0.01-0.88-0.43-1.43-1.27-1.43c-0.98,0.01-1.41,0.71-1.41,0.71
			s0.02,0.34,0.02,0.64l0.02,3.42c0,0.17-0.15,0.32-0.32,0.32l-1.27,0.01c-0.19,0-0.32-0.15-0.32-0.32l-0.02-3.34
			c-0.01-0.88-0.4-1.43-1.25-1.43c-0.84,0.01-1.25,0.62-1.41,1.07l0.02,3.71c0,0.17-0.15,0.32-0.32,0.32l-1.36,0.01
			c-0.17,0-0.32-0.15-0.32-0.32L222.14,360.74z"/>
	</g>
	<g>
		<path d="M635.97,44.94c0-0.19,0.15-0.32,0.32-0.32h0.64c0.15,0,0.23,0.08,0.29,0.2l0.24,0.62c0.25-0.27,1.07-1,2.38-1.01
			c2.14-0.01,3.01,1.58,3.02,3.34l0.01,3.24c0,0.17-0.15,0.32-0.32,0.32l-1.38,0.01c-0.19,0-0.32-0.15-0.32-0.32l-0.02-3.34
			c-0.01-0.88-0.46-1.43-1.27-1.43c-0.88,0.01-1.41,0.62-1.58,1.07l0.02,3.71c0,0.24-0.1,0.32-0.42,0.32l-1.25,0.01
			c-0.17,0-0.32-0.15-0.32-0.32L635.97,44.94z"/>
		<path d="M643.84,45.02c-0.1-0.22,0.03-0.44,0.29-0.44l1.52-0.01c0.15,0,0.23,0.08,0.28,0.18l1.72,3.81h0.02l1.67-3.82
			c0.08-0.17,0.2-0.19,0.4-0.19l1.35-0.01c0.27,0,0.41,0.22,0.29,0.44l-5.1,11.2c-0.05,0.1-0.15,0.2-0.28,0.2l-1.45,0.01
			c-0.25,0-0.41-0.22-0.28-0.45l2.37-5.09L643.84,45.02z"/>
	</g>
	<g>
		<path d="M628.47,358.35c0-0.19,0.15-0.32,0.32-0.32h0.64c0.15,0,0.23,0.08,0.28,0.2l0.24,0.62c0.25-0.27,1.07-1,2.38-1.01
			c2.14-0.01,3.01,1.58,3.02,3.34l0.01,3.24c0,0.17-0.15,0.32-0.32,0.32l-1.38,0.01c-0.19,0-0.32-0.15-0.32-0.32l-0.02-3.34
			c-0.01-0.88-0.46-1.43-1.27-1.43c-0.88,0.01-1.41,0.62-1.58,1.07l0.02,3.71c0,0.23-0.1,0.32-0.42,0.32l-1.25,0.01
			c-0.17,0-0.32-0.15-0.32-0.32L628.47,358.35z"/>
		<path d="M640.3,357.8c1.04-0.01,1.86,0.41,2.5,1.18c0.12,0.15,0.08,0.35-0.08,0.47l-0.77,0.75c-0.15,0.14-0.3,0.05-0.42-0.05
			c-0.27-0.3-0.7-0.54-1.17-0.53c-0.91,0.01-1.65,0.79-1.64,1.73c0.01,0.96,0.73,1.71,1.64,1.71c0.73-0.01,1.04-0.36,1.34-0.65
			c0.12-0.12,0.29-0.16,0.42-0.05l0.73,0.62c0.17,0.14,0.24,0.3,0.12,0.47c-0.57,0.9-1.46,1.42-2.66,1.43
			c-1.91,0.01-3.59-1.5-3.59-3.53C636.71,359.37,638.4,357.81,640.3,357.8z"/>
	</g>
	<g>
		<path d="M296.81,128.94c0-0.19,0.15-0.32,0.32-0.32h0.64c0.15,0,0.23,0.09,0.29,0.2l0.24,0.62c0.25-0.27,1.07-1,2.37-1.01
			c2.14-0.01,3.01,1.58,3.02,3.34l0.01,3.24c0,0.17-0.15,0.32-0.32,0.32l-1.38,0.01c-0.19,0-0.32-0.15-0.32-0.32l-0.02-3.34
			c-0.01-0.88-0.46-1.43-1.27-1.43c-0.88,0.01-1.42,0.62-1.58,1.07l0.02,3.71c0,0.24-0.1,0.32-0.42,0.32l-1.25,0.01
			c-0.17,0-0.32-0.15-0.32-0.32L296.81,128.94z"/>
		<path d="M308.4,128.4c0.67,0,1.2,0.18,1.5,0.3l-0.03-4.88c0-0.17,0.15-0.32,0.32-0.32l1.43-0.01c0.17,0,0.32,0.15,0.32,0.32
			l0.06,11.17c0,0.17-0.15,0.32-0.32,0.32h-0.66c-0.15,0-0.27-0.14-0.32-0.32l-0.17-0.52c0,0-0.79,1.01-2.2,1.03
			c-1.84,0.01-3.25-1.58-3.26-3.53C305.07,129.98,306.39,128.41,308.4,128.4z M308.58,133.66c0.9-0.01,1.3-0.7,1.41-1.1l-0.01-1.96
			c0,0-0.47-0.38-1.32-0.38c-0.95,0.01-1.63,0.79-1.63,1.73C307.04,132.89,307.68,133.66,308.58,133.66z"/>
	</g>
	<g>
		<path d="M539.02,203.91c1.91-0.01,3.47,1.6,3.47,3.51c0.01,1.94-1.53,3.57-3.44,3.58c-1.91,0.01-3.47-1.6-3.47-3.54
			C535.57,205.55,537.12,203.92,539.02,203.91z M539.05,209.17c0.9-0.01,1.62-0.79,1.61-1.75c-0.01-0.94-0.73-1.7-1.63-1.7
			c-0.91,0.01-1.62,0.77-1.61,1.71C537.42,208.41,538.14,209.18,539.05,209.17z"/>
		<path d="M543.96,199.31c0-0.17,0.15-0.32,0.32-0.32l1.43-0.01c0.17,0,0.32,0.15,0.32,0.32l0.03,5.13
			c0.34-0.25,0.99-0.57,1.79-0.57c2.14-0.01,3.03,1.64,3.04,3.34l0.01,3.24c0,0.17-0.15,0.32-0.32,0.32l-1.36,0.01
			c-0.19,0-0.32-0.15-0.32-0.32l-0.01-3.25c-0.01-0.93-0.53-1.51-1.34-1.51c-0.77,0.01-1.3,0.51-1.46,1.21l0.02,3.58
			c0,0.19-0.1,0.32-0.35,0.32l-1.4,0.01c-0.17,0-0.32-0.15-0.32-0.32L543.96,199.31z"/>
	</g>
	<g>
		<path d="M318.59,348.04c1.91-0.01,3.47,1.6,3.48,3.51c0.01,1.94-1.53,3.57-3.44,3.58c-1.91,0.01-3.47-1.6-3.48-3.54
			C315.13,349.69,316.68,348.06,318.59,348.04z M318.61,353.31c0.9-0.01,1.62-0.79,1.61-1.75c-0.01-0.94-0.73-1.7-1.63-1.7
			c-0.91,0.01-1.62,0.77-1.61,1.71C316.99,352.54,317.7,353.31,318.61,353.31z"/>
		<path d="M323.52,343.45c0-0.17,0.15-0.32,0.32-0.32l1.43-0.01c0.17,0,0.32,0.15,0.32,0.32l0.04,7.31l2.32-2.37
			c0.12-0.1,0.23-0.2,0.42-0.2l1.53-0.01c0.29,0,0.39,0.3,0.22,0.49l-2.5,2.58l3.02,3.21c0.17,0.18,0.07,0.47-0.21,0.47l-1.83,0.01
			c-0.1,0-0.23-0.07-0.29-0.14l-2.68-3.03l0.01,2.85c0,0.17-0.15,0.32-0.32,0.32l-1.43,0.01c-0.17,0-0.32-0.15-0.32-0.32
			L323.52,343.45z"/>
	</g>
	<g>
		<path d="M579.18,148.62c0,0.2-0.1,0.32-0.4,0.32l-1.35,0.01c-0.17,0-0.32-0.15-0.32-0.32l-0.06-11.17c0-0.19,0.15-0.32,0.32-0.32
			h0.66c0.12,0,0.23,0.07,0.29,0.2l0.22,0.56c0.25-0.34,1.07-0.93,2.17-0.94c1.86-0.01,3.27,1.58,3.27,3.53
			c0.01,1.99-1.5,3.55-3.33,3.56c-0.66,0-1.27-0.23-1.5-0.36L579.18,148.62z M580.38,142.22c0.95-0.01,1.63-0.79,1.63-1.73
			c-0.01-0.94-0.65-1.71-1.58-1.71c-0.86,0.01-1.28,0.68-1.38,1.04l0.01,2.03C579.06,141.83,579.54,142.22,580.38,142.22z"/>
		<path d="M587.71,139.57c0.67,0,1.23,0.18,1.23,0.18c0.01-0.86-0.26-1.16-0.88-1.16s-1.5,0.14-1.89,0.26
			c-0.23,0.07-0.36-0.09-0.39-0.3l-0.16-0.88c-0.05-0.25,0.08-0.37,0.23-0.42c0.14-0.05,1.21-0.32,2.29-0.33
			c2.11-0.01,2.6,1.08,2.61,2.92l0.02,3.66c0,0.17-0.15,0.32-0.32,0.32h-0.6c-0.12,0-0.2-0.05-0.29-0.24l-0.2-0.45
			c-0.39,0.36-1.01,0.86-2.05,0.87c-1.35,0.01-2.28-0.86-2.29-2.3C585.01,140.51,585.99,139.57,587.71,139.57z M587.76,142.57
			c0.54,0,1.06-0.46,1.16-0.66l-0.01-0.93c0,0-0.45-0.2-0.95-0.2c-0.66,0-1.1,0.38-1.09,0.92
			C586.88,142.2,587.23,142.57,587.76,142.57z"/>
	</g>
	<g>
		<path d="M617.43,418.24l0.45-0.92c0.07-0.17,0.23-0.2,0.39-0.12c0,0,0.76,0.4,1.54,0.4c0.34,0,0.57-0.14,0.57-0.42
			c0-0.3-0.24-0.49-1.14-0.84c-1.3-0.5-1.92-1.19-1.92-2.21c-0.01-1.03,0.75-1.99,2.47-2c0.99-0.01,1.72,0.28,2.08,0.51
			c0.15,0.1,0.24,0.29,0.16,0.45l-0.42,0.86c-0.09,0.15-0.27,0.17-0.4,0.12c0,0-0.76-0.35-1.4-0.34c-0.4,0-0.57,0.17-0.57,0.39
			c0,0.3,0.3,0.4,0.93,0.66c1.3,0.5,2.29,1.05,2.29,2.37c0.01,1.11-0.97,2.06-2.67,2.07c-1.12,0.01-1.89-0.35-2.25-0.61
			C617.43,418.51,617.35,418.38,617.43,418.24z"/>
		<path d="M626.98,412.08c1.05-0.01,1.86,0.41,2.5,1.18c0.12,0.15,0.09,0.35-0.08,0.47l-0.77,0.75c-0.15,0.14-0.3,0.05-0.42-0.05
			c-0.27-0.3-0.7-0.54-1.17-0.53c-0.91,0.01-1.65,0.79-1.64,1.73c0.01,0.96,0.73,1.71,1.64,1.71c0.73,0,1.05-0.36,1.34-0.65
			c0.12-0.12,0.28-0.16,0.42-0.05l0.73,0.62c0.17,0.14,0.23,0.3,0.12,0.47c-0.57,0.9-1.46,1.42-2.66,1.43
			c-1.91,0.01-3.59-1.5-3.6-3.53C623.39,413.65,625.09,412.09,626.98,412.08z"/>
	</g>
	<g>
		<path d="M315.7,193.29l0.45-0.92c0.07-0.17,0.23-0.2,0.39-0.12c0,0,0.76,0.4,1.54,0.4c0.34,0,0.57-0.14,0.57-0.42
			c0-0.3-0.24-0.49-1.14-0.84c-1.3-0.5-1.91-1.19-1.92-2.21c-0.01-1.03,0.75-1.99,2.47-2c0.99-0.01,1.72,0.28,2.08,0.51
			c0.15,0.1,0.24,0.29,0.16,0.45l-0.42,0.86c-0.08,0.15-0.27,0.17-0.4,0.12c0,0-0.76-0.35-1.4-0.34c-0.4,0-0.57,0.17-0.57,0.39
			c0,0.3,0.3,0.4,0.93,0.66c1.3,0.5,2.29,1.05,2.29,2.37c0.01,1.11-0.97,2.06-2.67,2.07c-1.12,0.01-1.89-0.35-2.25-0.61
			C315.7,193.56,315.63,193.42,315.7,193.29z"/>
		<path d="M325.02,187.13c0.67,0,1.2,0.18,1.5,0.3l-0.03-4.88c0-0.17,0.15-0.32,0.32-0.32l1.43-0.01c0.17,0,0.32,0.15,0.32,0.32
			l0.06,11.17c0,0.17-0.15,0.32-0.32,0.32h-0.66c-0.15,0-0.27-0.14-0.32-0.32l-0.17-0.52c0,0-0.79,1.01-2.21,1.03
			c-1.84,0.01-3.25-1.58-3.26-3.53C321.68,188.71,323.01,187.14,325.02,187.13z M325.2,192.4c0.9-0.01,1.3-0.7,1.41-1.1l-0.01-1.96
			c0,0-0.47-0.38-1.32-0.38c-0.95,0.01-1.63,0.79-1.63,1.73C323.66,191.63,324.3,192.4,325.2,192.4z"/>
	</g>
	<g>
		<path d="M438.24,324.9h-0.57c-0.17,0-0.3-0.15-0.3-0.32l-0.01-1.13c0-0.19,0.13-0.32,0.3-0.32h0.57l-0.01-1.87
			c0-0.17,0.15-0.32,0.32-0.32l1.38-0.03c0.17,0,0.3,0.15,0.3,0.32l0.01,1.89l1.49-0.01c0.19,0,0.32,0.14,0.32,0.32l0.01,1.13
			c0,0.17-0.14,0.32-0.32,0.32l-1.49,0.01l0.01,2.7c0,0.47,0.25,0.54,0.53,0.54c0.29,0,0.64-0.12,0.83-0.19
			c0.19-0.07,0.32,0.01,0.37,0.18l0.35,1.06c0.07,0.17-0.01,0.34-0.18,0.41c-0.08,0.05-1.18,0.44-2.01,0.45
			c-1.3,0.01-1.88-0.8-1.88-2.17L438.24,324.9z"/>
		<path d="M443.7,323.42c0-0.19,0.15-0.32,0.32-0.32h0.64c0.15,0,0.23,0.08,0.29,0.2l0.24,0.62c0.25-0.27,1.07-1,2.38-1.01
			c2.14-0.01,3.01,1.58,3.02,3.34l0.01,3.24c0,0.17-0.15,0.32-0.32,0.32l-1.38,0.01c-0.19,0-0.32-0.15-0.32-0.32l-0.02-3.34
			c-0.01-0.88-0.46-1.43-1.27-1.43c-0.88,0.01-1.42,0.62-1.58,1.07l0.02,3.71c0,0.23-0.1,0.32-0.42,0.32l-1.25,0.01
			c-0.17,0-0.32-0.15-0.32-0.32L443.7,323.42z"/>
	</g>
	<g>
		<path d="M275.48,429.6h-0.71c-0.21,0-0.38-0.2-0.38-0.41v-1.45c0-0.24,0.16-0.42,0.37-0.42h0.71l-0.01-2.41
			c0-0.22,0.19-0.42,0.4-0.42l1.7-0.03c0.21,0,0.38,0.2,0.38,0.41l0.01,2.43l1.83-0.01c0.23,0,0.4,0.17,0.4,0.41v1.45
			c0,0.22-0.16,0.42-0.4,0.42l-1.83,0.01l0.01,3.48c0,0.61,0.31,0.7,0.64,0.7c0.35,0,0.79-0.16,1.02-0.24
			c0.23-0.08,0.4,0.02,0.46,0.24l0.42,1.37c0.08,0.21-0.02,0.43-0.23,0.52c-0.1,0.07-1.45,0.57-2.47,0.57c-1.6,0-2.31-1.04-2.31-2.8
			L275.48,429.6L275.48,429.6z"/>
		<path d="M281.48,435.36l2.7-3.81l-2.62-3.62c-0.21-0.28-0.05-0.63,0.31-0.63h1.73c0.27,0,0.5,0.02,0.69,0.3l1.36,2.04h0.02
			l1.37-2.05c0.17-0.24,0.33-0.3,0.62-0.3l1.87-0.01c0.35,0,0.46,0.35,0.25,0.63l-2.62,3.61l2.64,3.82
			c0.19,0.28,0.08,0.63-0.25,0.63l-1.83,0.01c-0.27,0-0.43-0.13-0.58-0.34l-1.48-2.17h-0.02l-1.58,2.35
			c-0.07,0.08-0.23,0.17-0.33,0.17l-1.99,0.01C281.37,436,281.29,435.64,281.48,435.36z"/>
	</g>
	<g>
		<path d="M216.62,259.43c0-0.19,0.15-0.32,0.32-0.32l1.38-0.01c0.17,0,0.32,0.14,0.32,0.32l0.02,3.33c0.01,0.9,0.46,1.45,1.24,1.44
			c0.71-0.01,1.25-0.66,1.34-1.27l-0.02-3.51c0-0.25,0.1-0.32,0.37-0.32l1.28-0.01c0.17,0,0.32,0.14,0.32,0.32l0.03,6.11
			c0,0.17-0.15,0.32-0.32,0.32h-0.62c-0.17,0-0.27-0.12-0.32-0.25l-0.21-0.56c-0.3,0.27-0.92,0.98-2.25,0.99
			c-2.09,0.01-2.86-1.59-2.87-3.31L216.62,259.43z"/>
		<path d="M225.59,260.83h-0.57c-0.17,0-0.3-0.15-0.3-0.32l-0.01-1.13c0-0.19,0.14-0.32,0.3-0.32h0.57l-0.01-1.87
			c0-0.17,0.15-0.32,0.32-0.32l1.38-0.03c0.17,0,0.3,0.15,0.3,0.32l0.01,1.89l1.49-0.01c0.19,0,0.32,0.14,0.32,0.32l0.01,1.13
			c0,0.17-0.14,0.32-0.32,0.32l-1.49,0.01l0.01,2.7c0,0.47,0.25,0.54,0.53,0.54c0.29,0,0.64-0.12,0.82-0.19
			c0.19-0.07,0.32,0.01,0.37,0.18l0.35,1.06c0.07,0.17-0.01,0.34-0.18,0.41c-0.09,0.05-1.18,0.44-2.01,0.45
			c-1.3,0.01-1.88-0.8-1.88-2.17L225.59,260.83z"/>
	</g>
	<g>
		<path d="M687.16,29.52c-0.1-0.22-0.02-0.4,0.23-0.41l1.47-0.01c0.17,0,0.25,0.08,0.3,0.18l1.38,3.13c0.02,0,0.03,0,0.03,0
			l1.43-3.14c0.08-0.17,0.22-0.19,0.4-0.19l1.32-0.01c0.25,0,0.36,0.18,0.24,0.4l-3.05,6.36c-0.05,0.08-0.14,0.17-0.28,0.17h-0.09
			c-0.15,0-0.23-0.08-0.28-0.17L687.16,29.52z"/>
		<path d="M695.46,30.85h-0.57c-0.17,0-0.3-0.15-0.3-0.32l-0.01-1.13c0-0.19,0.13-0.32,0.3-0.32h0.57l-0.01-1.87
			c0-0.17,0.15-0.32,0.32-0.32l1.38-0.03c0.17,0,0.3,0.15,0.3,0.32l0.01,1.89l1.49-0.01c0.19,0,0.32,0.14,0.32,0.32l0.01,1.13
			c0,0.17-0.13,0.32-0.32,0.32l-1.49,0.01l0.01,2.7c0,0.47,0.26,0.54,0.53,0.54c0.28,0,0.64-0.12,0.83-0.19
			c0.18-0.06,0.32,0.01,0.37,0.18l0.34,1.06c0.07,0.17-0.01,0.34-0.18,0.41c-0.08,0.05-1.18,0.44-2.01,0.45
			c-1.3,0.01-1.88-0.8-1.88-2.17L695.46,30.85z"/>
	</g>
	<g>
		<path d="M639.62,286.97c-0.1-0.22-0.02-0.4,0.23-0.41l1.47-0.01c0.17,0,0.25,0.08,0.3,0.18l1.38,3.13c0.02,0,0.03,0,0.03,0
			l1.43-3.14c0.09-0.17,0.22-0.19,0.4-0.19l1.32-0.01c0.25,0,0.36,0.18,0.24,0.4l-3.05,6.36c-0.05,0.08-0.14,0.17-0.28,0.17h-0.08
			c-0.15,0-0.23-0.08-0.28-0.17L639.62,286.97z"/>
		<path d="M649.79,288.99c0.67,0,1.23,0.18,1.23,0.18c0.01-0.86-0.26-1.16-0.88-1.16s-1.5,0.14-1.89,0.26
			c-0.23,0.07-0.36-0.08-0.39-0.3l-0.16-0.88c-0.05-0.25,0.08-0.37,0.23-0.42c0.14-0.05,1.21-0.32,2.29-0.33
			c2.11-0.01,2.6,1.08,2.61,2.92l0.02,3.66c0,0.17-0.15,0.32-0.32,0.32h-0.6c-0.12,0-0.2-0.05-0.29-0.23l-0.2-0.45
			c-0.39,0.36-1.01,0.86-2.05,0.87c-1.35,0.01-2.28-0.86-2.29-2.3C647.09,289.94,648.07,289.01,649.79,288.99z M649.84,292
			c0.54,0,1.06-0.46,1.16-0.66l-0.01-0.93c0,0-0.45-0.2-0.95-0.2c-0.66,0-1.09,0.38-1.09,0.92C648.96,291.63,649.32,292,649.84,292z
			"/>
	</g>
	<g>
		<path d="M139.41,118.46c-0.1-0.22,0.05-0.39,0.29-0.39l1.21-0.01c0.1,0,0.27,0.08,0.3,0.2l1.03,3.01h0.02l1.71-3.25
			c0.03-0.07,0.12-0.15,0.27-0.15h0.14c0.15,0,0.22,0.07,0.27,0.15l1.72,3.23h0.02l1-3.03c0.07-0.19,0.2-0.2,0.39-0.2l1.1-0.01
			c0.24,0,0.39,0.17,0.3,0.39l-2.08,6.35c-0.03,0.1-0.14,0.19-0.3,0.19h-0.07c-0.14,0-0.22-0.07-0.27-0.15l-2.14-3.92h-0.02
			l-2.09,3.94c-0.05,0.08-0.14,0.15-0.27,0.16h-0.09c-0.15,0-0.25-0.08-0.29-0.18L139.41,118.46z"/>
		<path d="M152.73,120.48c0.68,0,1.23,0.18,1.23,0.18c0.01-0.86-0.26-1.16-0.88-1.16s-1.5,0.14-1.89,0.26
			c-0.24,0.07-0.36-0.08-0.39-0.3l-0.16-0.88c-0.05-0.25,0.09-0.37,0.24-0.42c0.14-0.05,1.21-0.32,2.29-0.33
			c2.11-0.01,2.6,1.08,2.61,2.92l0.02,3.66c0,0.17-0.15,0.32-0.32,0.32h-0.61c-0.12,0-0.2-0.05-0.29-0.24l-0.2-0.45
			c-0.38,0.36-1.01,0.86-2.05,0.87c-1.35,0.01-2.28-0.86-2.29-2.3C150.05,121.42,151.02,120.49,152.73,120.48z M152.79,123.49
			c0.54,0,1.06-0.46,1.16-0.66l-0.01-0.93c0,0-0.45-0.2-0.95-0.19c-0.66,0-1.1,0.38-1.09,0.92
			C151.91,123.12,152.27,123.49,152.79,123.49z"/>
	</g>
	<g>
		<path d="M548.67,315.7c-0.1-0.22,0.05-0.39,0.28-0.39l1.21-0.01c0.1,0,0.27,0.08,0.3,0.2l1.03,3.01h0.02l1.71-3.25
			c0.03-0.07,0.12-0.15,0.27-0.15h0.14c0.15,0,0.22,0.07,0.27,0.15l1.72,3.23h0.01l1-3.03c0.07-0.19,0.2-0.2,0.39-0.2l1.1-0.01
			c0.23,0,0.39,0.17,0.3,0.38l-2.08,6.35c-0.03,0.1-0.14,0.19-0.3,0.19h-0.07c-0.14,0-0.22-0.07-0.27-0.15l-2.15-3.92h-0.01
			l-2.09,3.94c-0.05,0.08-0.14,0.15-0.27,0.15h-0.08c-0.15,0-0.25-0.08-0.29-0.18L548.67,315.7z"/>
		<path d="M558.88,315.67c-0.1-0.22-0.02-0.4,0.23-0.41l1.47-0.01c0.17,0,0.25,0.08,0.3,0.18l1.38,3.13c0.02,0,0.03,0,0.03,0
			l1.43-3.14c0.08-0.17,0.22-0.19,0.4-0.19l1.32-0.01c0.25,0,0.36,0.18,0.24,0.4l-3.05,6.36c-0.05,0.08-0.14,0.17-0.28,0.17h-0.08
			c-0.15,0-0.23-0.08-0.28-0.17L558.88,315.67z"/>
	</g>
	<g>
		<path d="M413.1,155c-0.1-0.21,0.04-0.39,0.28-0.4l1.21-0.03c0.1,0,0.27,0.08,0.3,0.2l1.07,3h0.02l1.66-3.27
			c0.03-0.07,0.12-0.16,0.27-0.16h0.14c0.15,0,0.22,0.07,0.27,0.15l1.77,3.21h0.01l0.95-3.04c0.07-0.19,0.2-0.21,0.38-0.21l1.1-0.02
			c0.23-0.01,0.39,0.16,0.31,0.38l-1.99,6.38c-0.03,0.1-0.13,0.19-0.3,0.2h-0.07c-0.14,0-0.22-0.07-0.27-0.15l-2.2-3.89h-0.01
			l-2.03,3.98c-0.05,0.09-0.13,0.16-0.27,0.16h-0.08c-0.15,0-0.25-0.08-0.29-0.18L413.1,155z"/>
		<path d="M423.97,150.84c-0.01-0.64,0.48-1.18,1.12-1.19c0.66-0.01,1.19,0.5,1.2,1.14c0.01,0.64-0.5,1.18-1.16,1.19
			C424.5,152,423.99,151.48,423.97,150.84z M424.2,154.72c0-0.19,0.15-0.32,0.31-0.32l1.4-0.03c0.17,0,0.32,0.13,0.32,0.31l0.12,6.1
			c0,0.17-0.14,0.32-0.31,0.32l-1.4,0.03c-0.17,0-0.32-0.14-0.32-0.31L424.2,154.72z"/>
	</g>
	<g>
		<path d="M244.1,199.64c-0.1-0.22,0.05-0.39,0.29-0.39l1.21-0.01c0.1,0,0.27,0.09,0.3,0.2l1.03,3.01h0.02l1.7-3.25
			c0.03-0.07,0.12-0.15,0.27-0.16h0.14c0.15,0,0.22,0.07,0.27,0.15l1.72,3.23h0.02l1-3.03c0.07-0.19,0.2-0.2,0.39-0.2l1.1-0.01
			c0.24,0,0.39,0.17,0.3,0.39l-2.08,6.35c-0.03,0.1-0.14,0.19-0.3,0.19h-0.07c-0.14,0-0.22-0.07-0.27-0.15l-2.14-3.92h-0.02
			l-2.09,3.94c-0.05,0.09-0.14,0.15-0.27,0.15h-0.09c-0.15,0-0.25-0.09-0.29-0.18L244.1,199.64z"/>
		<path d="M254.33,199.64c-0.1-0.22,0.03-0.44,0.29-0.44l1.52-0.01c0.15,0,0.23,0.09,0.29,0.18l1.72,3.81h0.02l1.67-3.82
			c0.08-0.17,0.2-0.19,0.4-0.19l1.35-0.01c0.27,0,0.41,0.21,0.29,0.43l-5.11,11.2c-0.05,0.1-0.15,0.2-0.29,0.2l-1.45,0.01
			c-0.25,0-0.41-0.22-0.29-0.45l2.37-5.09L254.33,199.64z"/>
	</g>
	<g>
		<path d="M752.16,52.07c0-0.19,0.15-0.32,0.32-0.32h0.64c0.15,0,0.23,0.08,0.29,0.2l0.24,0.62c0.25-0.27,1.07-1,2.38-1.01
			c2.14-0.01,3.01,1.58,3.02,3.34l0.01,3.24c0,0.17-0.15,0.32-0.32,0.32l-1.38,0.01c-0.19,0-0.32-0.15-0.32-0.32l-0.02-3.34
			c-0.01-0.88-0.46-1.43-1.27-1.43c-0.88,0.01-1.41,0.62-1.58,1.07l0.02,3.71c0,0.24-0.1,0.32-0.42,0.32l-1.25,0.01
			c-0.17,0-0.32-0.15-0.32-0.32L752.16,52.07z"/>
		<path d="M760.89,46.97c0-0.17,0.15-0.32,0.32-0.32l1.43-0.01c0.17,0,0.32,0.15,0.32,0.32l0.03,5.13c0.34-0.25,0.99-0.56,1.79-0.56
			c2.14-0.01,3.03,1.64,3.04,3.34l0.01,3.24c0,0.17-0.15,0.32-0.32,0.32l-1.36,0.01c-0.19,0-0.32-0.15-0.32-0.32l-0.01-3.25
			c-0.01-0.93-0.53-1.51-1.34-1.51c-0.77,0.01-1.3,0.51-1.46,1.21l0.02,3.58c0,0.19-0.1,0.32-0.35,0.32l-1.4,0.01
			c-0.17,0-0.32-0.15-0.32-0.32L760.89,46.97z"/>
	</g>
	<g>
		<path d="M685.77,73.3c0-0.19,0.15-0.32,0.32-0.32h0.62c0.15,0,0.25,0.08,0.28,0.18l0.24,0.64c0.29-0.32,1.06-1,2.25-1.01
			c0.96-0.01,1.64,0.36,2.2,1.03c0.29-0.31,1.16-1.05,2.37-1.06c2.16-0.01,2.96,1.58,2.97,3.36l0.01,3.22
			c0,0.17-0.14,0.32-0.32,0.32l-1.36,0.01c-0.19,0-0.32-0.15-0.32-0.32l-0.02-3.34c-0.01-0.88-0.43-1.43-1.27-1.43
			c-0.98,0.01-1.41,0.71-1.41,0.71s0.02,0.34,0.02,0.64l0.02,3.42c0,0.17-0.15,0.32-0.32,0.32l-1.27,0.01
			c-0.19,0-0.32-0.15-0.32-0.32l-0.02-3.34c-0.01-0.88-0.4-1.43-1.25-1.43c-0.84,0.01-1.25,0.62-1.41,1.07l0.02,3.71
			c0,0.17-0.15,0.32-0.32,0.32l-1.36,0.01c-0.17,0-0.32-0.15-0.32-0.32L685.77,73.3z"/>
		<path d="M701.13,75.38c0.67,0,1.23,0.18,1.23,0.18c0.01-0.86-0.26-1.16-0.88-1.16c-0.62,0-1.5,0.14-1.89,0.26
			c-0.23,0.07-0.36-0.08-0.39-0.3l-0.16-0.88c-0.05-0.25,0.08-0.37,0.23-0.42c0.14-0.05,1.21-0.32,2.29-0.33
			c2.11-0.01,2.6,1.08,2.61,2.92l0.02,3.66c0,0.17-0.15,0.32-0.32,0.32h-0.6c-0.12,0-0.2-0.05-0.28-0.24l-0.2-0.45
			c-0.39,0.36-1.01,0.86-2.05,0.87c-1.35,0.01-2.29-0.86-2.29-2.3C698.44,76.32,699.41,75.39,701.13,75.38z M701.18,78.38
			c0.54,0,1.06-0.46,1.16-0.66l-0.01-0.93c0,0-0.45-0.2-0.95-0.19c-0.66,0-1.09,0.38-1.09,0.92
			C700.31,78.02,700.66,78.38,701.18,78.38z"/>
	</g>
	<g>
		<path d="M765.39,158.41c1.04-0.01,1.86,0.41,2.5,1.18c0.12,0.15,0.08,0.35-0.08,0.47l-0.77,0.75c-0.15,0.14-0.3,0.05-0.42-0.05
			c-0.27-0.3-0.7-0.54-1.17-0.53c-0.91,0.01-1.65,0.79-1.64,1.73c0.01,0.96,0.73,1.71,1.64,1.71c0.73-0.01,1.04-0.36,1.34-0.65
			c0.12-0.12,0.28-0.16,0.42-0.05l0.73,0.62c0.17,0.14,0.23,0.3,0.12,0.47c-0.57,0.9-1.46,1.42-2.66,1.43
			c-1.91,0.01-3.59-1.5-3.59-3.53C761.8,159.98,763.5,158.42,765.39,158.41z"/>
		<path d="M769.87,160.33h-0.57c-0.17,0-0.3-0.15-0.3-0.32l-0.01-1.13c0-0.19,0.13-0.32,0.3-0.32h0.57l-0.01-1.87
			c0-0.17,0.15-0.32,0.32-0.32l1.38-0.03c0.17,0,0.3,0.15,0.3,0.32l0.01,1.89l1.49-0.01c0.19,0,0.32,0.14,0.32,0.32l0.01,1.13
			c0,0.17-0.13,0.32-0.32,0.32l-1.49,0.01l0.01,2.7c0,0.47,0.26,0.54,0.53,0.54c0.28,0,0.64-0.12,0.83-0.19
			c0.18-0.07,0.32,0.01,0.37,0.18l0.34,1.06c0.07,0.17-0.01,0.34-0.18,0.41c-0.08,0.05-1.18,0.44-2.01,0.45
			c-1.3,0.01-1.88-0.8-1.88-2.17L769.87,160.33z"/>
	</g>
	<g>
		<path d="M707.38,196.24c0-0.19,0.15-0.32,0.32-0.32h0.64c0.15,0,0.23,0.09,0.29,0.2l0.24,0.62c0.25-0.27,1.07-1,2.37-1.01
			c2.14-0.01,3.01,1.58,3.02,3.34l0.01,3.24c0,0.17-0.15,0.32-0.32,0.32l-1.38,0.01c-0.19,0-0.32-0.15-0.32-0.32l-0.02-3.34
			c-0.01-0.88-0.46-1.43-1.27-1.43c-0.88,0.01-1.41,0.62-1.58,1.07l0.02,3.71c0,0.24-0.1,0.32-0.42,0.32l-1.25,0.01
			c-0.17,0-0.32-0.15-0.32-0.32L707.38,196.24z"/>
		<path d="M716.14,196.2c0-0.19,0.15-0.32,0.32-0.32l1.41-0.01c0.17,0,0.32,0.14,0.32,0.32l0.04,8.25c0.01,2.23-1.33,3.42-3.12,3.42
			c-0.9,0.01-1.71-0.38-1.99-0.65c-0.12-0.09-0.14-0.27-0.07-0.39l0.55-1.08c0.07-0.14,0.25-0.17,0.4-0.09
			c0.22,0.14,0.62,0.33,1,0.33c0.76-0.01,1.18-0.57,1.18-1.54L716.14,196.2z M715.98,192.32c0-0.64,0.5-1.17,1.14-1.17
			c0.66,0,1.18,0.52,1.19,1.16c0.01,0.64-0.52,1.17-1.17,1.17C716.5,193.48,715.98,192.96,715.98,192.32z"/>
	</g>
	<g>
		<path d="M117.76,186.49c1.91-0.01,3.47,1.6,3.47,3.51c0.01,1.94-1.53,3.57-3.44,3.58c-1.9,0.01-3.47-1.6-3.47-3.54
			C114.31,188.13,115.85,186.5,117.76,186.49z M117.79,191.75c0.9-0.01,1.62-0.79,1.61-1.75c-0.01-0.94-0.73-1.7-1.63-1.7
			c-0.91,0.01-1.62,0.77-1.61,1.71C116.16,190.99,116.87,191.76,117.79,191.75z"/>
		<path d="M122.72,186.95c0-0.19,0.15-0.32,0.32-0.32h0.64c0.15,0,0.25,0.09,0.31,0.22l0.24,0.66c0.24-0.34,0.86-1.05,1.9-1.06
			c0.79-0.01,1.5,0.25,1.3,0.67l-0.62,1.1c-0.08,0.15-0.25,0.22-0.39,0.16c-0.05-0.02-0.31-0.1-0.49-0.1c-0.68,0-1.08,0.46-1.19,0.7
			l0.02,4.09c0,0.24-0.15,0.32-0.39,0.32l-1.3,0.01c-0.17,0-0.32-0.15-0.32-0.32L122.72,186.95z"/>
	</g>
	<g>
		<path d="M779.15,112.93c0-0.2,0.17-0.35,0.35-0.35h0.7c0.17,0,0.27,0.09,0.33,0.24l0.26,0.71c0.26-0.37,0.93-1.14,2.08-1.14
			c0.86,0,1.64,0.27,1.41,0.73l-0.68,1.19c-0.09,0.16-0.27,0.24-0.42,0.16c-0.05-0.02-0.33-0.11-0.53-0.11
			c-0.73,0-1.17,0.49-1.3,0.75v4.45c0,0.26-0.16,0.35-0.42,0.35h-1.41c-0.18,0-0.35-0.16-0.35-0.35L779.15,112.93L779.15,112.93z"/>
		<path d="M785.25,108.7c0-0.7,0.55-1.27,1.25-1.27c0.71,0,1.29,0.57,1.29,1.27c0,0.7-0.57,1.27-1.29,1.27
			C785.81,109.96,785.25,109.4,785.25,108.7z M785.42,112.93c0-0.2,0.17-0.35,0.35-0.35h1.53c0.18,0,0.35,0.15,0.35,0.35v6.65
			c0,0.18-0.16,0.35-0.35,0.35h-1.53c-0.18,0-0.35-0.16-0.35-0.35V112.93z"/>
	</g>
	<g>
		<path d="M214.37,503.3c0-0.17,0.15-0.32,0.32-0.32l1.43-0.01c0.17,0,0.32,0.15,0.32,0.32l0.03,5.13c0.34-0.25,0.99-0.56,1.79-0.57
			c2.14-0.01,3.03,1.64,3.04,3.34l0.01,3.24c0,0.17-0.15,0.32-0.32,0.32l-1.36,0.01c-0.19,0-0.32-0.15-0.32-0.32l-0.01-3.25
			c-0.01-0.93-0.53-1.51-1.34-1.51c-0.78,0.01-1.3,0.51-1.46,1.21l0.02,3.58c0,0.19-0.1,0.32-0.35,0.32l-1.4,0.01
			c-0.17,0-0.32-0.15-0.32-0.32L214.37,503.3z"/>
		<path d="M223,504.44c0-0.64,0.5-1.17,1.14-1.17c0.66,0,1.18,0.52,1.19,1.16c0.01,0.64-0.52,1.17-1.18,1.17
			C223.51,505.6,223,505.08,223,504.44z M223.17,508.32c0-0.19,0.15-0.32,0.32-0.32l1.4-0.01c0.17,0,0.32,0.14,0.32,0.32l0.03,6.11
			c0,0.17-0.15,0.32-0.32,0.32l-1.4,0.01c-0.17,0-0.32-0.15-0.32-0.32L223.17,508.32z"/>
	</g>
	<g>
		<path d="M622.14,210.96c0-0.17,0.14-0.29,0.29-0.29H623c0.14,0,0.23,0.08,0.27,0.17l0.22,0.59c0.27-0.29,0.97-0.92,2.08-0.92
			c0.88,0,1.51,0.35,2.02,0.96c0.27-0.28,1.07-0.96,2.19-0.96c1.99,0,2.72,1.48,2.72,3.1v2.96c0,0.16-0.12,0.29-0.29,0.29h-1.26
			c-0.17,0-0.29-0.14-0.29-0.29v-3.07c0-0.81-0.39-1.32-1.16-1.32c-0.9,0-1.3,0.65-1.3,0.65s0.01,0.31,0.01,0.59v3.15
			c0,0.16-0.14,0.29-0.29,0.29h-1.16c-0.17,0-0.29-0.14-0.29-0.29v-3.07c0-0.81-0.36-1.32-1.15-1.32c-0.77,0-1.15,0.56-1.3,0.97
			v3.42c0,0.16-0.14,0.29-0.29,0.29h-1.26c-0.16,0-0.29-0.14-0.29-0.29L622.14,210.96L622.14,210.96z"/>
		<path d="M636.83,210.5c0.62,0,1.1,0.17,1.38,0.28v-4.48c0-0.16,0.14-0.29,0.29-0.29h1.32c0.16,0,0.29,0.14,0.29,0.29v10.27
			c0,0.16-0.14,0.29-0.29,0.29h-0.6c-0.14,0-0.25-0.12-0.29-0.29l-0.16-0.48c0,0-0.73,0.93-2.03,0.93c-1.69,0-2.98-1.48-2.98-3.26
			C633.76,211.95,634.99,210.5,636.83,210.5z M636.97,215.35c0.83,0,1.2-0.64,1.3-1.01v-1.8c0,0-0.43-0.36-1.21-0.36
			c-0.87,0-1.51,0.71-1.51,1.58C635.56,214.63,636.15,215.35,636.97,215.35z"/>
	</g>
	<g>
		<path d="M681.97,238.6c0.62,0,1.11,0.17,1.39,0.28v-4.51c0-0.16,0.14-0.3,0.3-0.3h1.33c0.16,0,0.3,0.14,0.3,0.3v10.34
			c0,0.16-0.14,0.3-0.3,0.3h-0.61c-0.14,0-0.25-0.12-0.3-0.3l-0.16-0.49c0,0-0.73,0.93-2.05,0.93c-1.7,0-3-1.48-3-3.28
			C678.88,240.05,680.11,238.6,681.97,238.6z M682.11,243.47c0.83,0,1.2-0.64,1.31-1.01v-1.81c0,0-0.43-0.36-1.22-0.36
			c-0.88,0-1.51,0.72-1.51,1.59C680.69,242.75,681.28,243.47,682.11,243.47z"/>
		<path d="M689.87,238.6c1.61,0,2.92,1.22,2.92,2.9c0,0.11-0.01,0.31-0.03,0.42c-0.01,0.16-0.16,0.27-0.3,0.27h-4
			c0.05,0.64,0.59,1.36,1.5,1.36c0.49,0,0.93-0.19,1.22-0.39c0.16-0.09,0.3-0.12,0.4,0l0.64,0.73c0.11,0.11,0.14,0.28-0.01,0.41
			c-0.51,0.49-1.31,0.86-2.33,0.86c-1.88,0-3.2-1.48-3.2-3.28C686.69,240.11,688.01,238.6,689.87,238.6z M690.97,241.1
			c-0.05-0.58-0.55-1.07-1.14-1.07c-0.62,0-1.14,0.47-1.22,1.07H690.97z"/>
	</g>
	<g>
		<path d="M651.32,258.32c0.64,0,1.14,0.18,1.42,0.29v-4.62c0-0.16,0.14-0.3,0.3-0.3h1.36c0.16,0,0.3,0.14,0.3,0.3v10.58
			c0,0.16-0.14,0.3-0.3,0.3h-0.62c-0.14,0-0.25-0.13-0.3-0.3l-0.16-0.49c0,0-0.75,0.96-2.09,0.96c-1.74,0-3.07-1.52-3.07-3.36
			C648.16,259.8,649.42,258.32,651.32,258.32z M651.46,263.3c0.84,0,1.23-0.66,1.34-1.04v-1.85c0,0-0.45-0.37-1.25-0.37
			c-0.9,0-1.55,0.73-1.55,1.63C650.01,262.57,650.62,263.3,651.46,263.3z"/>
		<path d="M659.54,258.32c0.99,0,1.76,0.4,2.36,1.14c0.11,0.14,0.08,0.34-0.08,0.45l-0.73,0.7c-0.14,0.13-0.28,0.05-0.4-0.05
			c-0.25-0.29-0.66-0.51-1.1-0.51c-0.86,0-1.57,0.73-1.57,1.63c0,0.91,0.69,1.63,1.55,1.63c0.69,0,0.99-0.34,1.28-0.6
			c0.11-0.11,0.27-0.14,0.4-0.05l0.69,0.59c0.16,0.13,0.22,0.29,0.11,0.45c-0.55,0.84-1.39,1.34-2.53,1.34
			c-1.81,0-3.39-1.43-3.39-3.36C656.13,259.79,657.74,258.32,659.54,258.32z"/>
	</g>
	<g>
		<path d="M732.06,511.25c0,0.19-0.1,0.3-0.38,0.3h-1.25c-0.16,0-0.3-0.14-0.3-0.3v-10.34c0-0.17,0.14-0.3,0.3-0.3h0.61
			c0.11,0,0.22,0.07,0.27,0.19l0.2,0.51c0.23-0.31,1-0.86,2.01-0.86c1.72,0,3.01,1.48,3.01,3.28c0,1.85-1.4,3.28-3.09,3.28
			c-0.61,0-1.17-0.22-1.39-0.35L732.06,511.25L732.06,511.25z M733.19,505.32c0.88,0,1.51-0.72,1.51-1.59s-0.59-1.59-1.46-1.59
			c-0.8,0-1.19,0.62-1.28,0.95v1.88C731.98,504.96,732.41,505.32,733.19,505.32z"/>
		<path d="M737.94,500.91c0-0.17,0.14-0.3,0.3-0.3h0.59c0.14,0,0.23,0.08,0.28,0.2l0.22,0.61c0.22-0.31,0.8-0.97,1.77-0.97
			c0.73,0,1.39,0.23,1.2,0.62l-0.58,1.01c-0.08,0.14-0.23,0.2-0.36,0.14c-0.05-0.01-0.28-0.09-0.46-0.09c-0.62,0-1,0.42-1.11,0.64
			v3.78c0,0.22-0.14,0.3-0.36,0.3h-1.2c-0.16,0-0.3-0.14-0.3-0.3V500.91L737.94,500.91z"/>
	</g>
</g>
<path class="st0" d="M763.61,127.62L763.61,127.62c-6.61,0-11.97-5.36-11.97-11.97l0,0c0-6.61,5.36-11.97,11.97-11.97l0,0
	c6.61,0,11.97,5.36,11.97,11.97l0,0C775.59,122.26,770.23,127.62,763.61,127.62z"/>
<path class="st0" d="M596.97,427.88L596.97,427.88c-10.49,0-19-8.51-19-19l0,0c0-10.49,8.51-19,19-19l0,0c10.49,0,19,8.51,19,19l0,0
	C615.96,419.37,607.46,427.88,596.97,427.88z"/>
<path class="st0" d="M309.1,214.53L309.1,214.53c-5.32,0-9.63-4.31-9.63-9.63l0,0c0-5.32,4.31-9.63,9.63-9.63l0,0
	c5.32,0,9.63,4.31,9.63,9.63l0,0C318.73,210.22,314.42,214.53,309.1,214.53z"/>
<path class="st0" d="M453.35,375.97L453.35,375.97c-11.5,0-20.82-9.33-20.82-20.82l0,0c0-11.5,9.33-20.82,20.82-20.82l0,0
	c11.5,0,20.82,9.33,20.82,20.82l0,0C474.17,366.64,464.85,375.97,453.35,375.97z"/>
<path class="st0" d="M313.42,508.17L313.42,508.17c-21.7,0-39.3-17.6-39.3-39.3l0,0c0-21.7,17.6-39.3,39.3-39.3l0,0
	c21.7,0,39.3,17.6,39.3,39.3l0,0C352.72,490.58,335.12,508.17,313.42,508.17z"/>
<path class="st0" d="M205.46,295.26L205.46,295.26c-7.76,0-14.05-6.29-14.05-14.05l0,0c0-7.76,6.29-14.05,14.05-14.05l0,0
	c7.76,0,14.05,6.29,14.05,14.05l0,0C219.52,288.97,213.22,295.26,205.46,295.26z"/>
<path class="st1" d="M701.15,58.51L701.15,58.51c-5.75,0-10.41-4.66-10.41-10.41l0,0c0-5.75,4.66-10.41,10.41-10.41l0,0
	c5.75,0,10.41,4.66,10.41,10.41l0,0C711.56,53.85,706.9,58.51,701.15,58.51z"/>
<path class="st0" d="M608.74,315.67L608.74,315.67c-14.23,0-25.77-11.53-25.77-25.77l0,0c0-14.23,11.53-25.77,25.77-25.77l0,0
	c14.23,0,25.77,11.53,25.77,25.77l0,0C634.51,304.14,622.97,315.67,608.74,315.67z"/>
<path class="st0" d="M110.64,156.28L110.64,156.28c-13.51,0-24.47-10.96-24.47-24.46l0,0c0-13.52,10.96-24.47,24.46-24.47l0,0
	c13.51,0,24.46,10.96,24.46,24.47l0,0C135.1,145.33,124.15,156.28,110.64,156.28z"/>
<path class="st0" d="M537.93,319.19L537.93,319.19c-7.05,0-12.76-5.71-12.76-12.76l0,0c0-7.05,5.71-12.76,12.76-12.76l0,0
	c7.05,0,12.76,5.71,12.76,12.76l0,0C550.68,313.48,544.97,319.19,537.93,319.19z"/>
<path class="st0" d="M421.8,208.67L421.8,208.67c-12.65,0-22.9-10.26-22.9-22.9l0,0c0-12.65,10.26-22.9,22.9-22.9l0,0
	c12.65,0,22.91,10.26,22.91,22.9l0,0C444.7,198.41,434.45,208.67,421.8,208.67z"/>
<path class="st0" d="M259.7,331.68L259.7,331.68c-11.79,0-21.35-9.55-21.35-21.35l0,0c0-11.79,9.55-21.35,21.35-21.35l0,0
	c11.79,0,21.35,9.55,21.35,21.35l0,0C281.04,322.13,271.48,331.68,259.7,331.68z"/>
<path class="st0" d="M244.41,228.79L244.41,228.79c-5.18,0-9.37-4.2-9.37-9.37l0,0c0-5.18,4.2-9.37,9.37-9.37l0,0
	c5.18,0,9.37,4.2,9.37,9.37l0,0C253.78,224.6,249.58,228.79,244.41,228.79z"/>
<rect x="819.23" y="224.19" class="st0" width="1.18" height="1.18"/>
<text transform="matrix(0.9356 0 0 1 741.3576 241.0997)"><tspan x="0" y="0" class="st0 st2 st3">Biden</tspan><tspan x="-23.81" y="28.58" class="st4 st2 st3">Bloomberg</tspan><tspan x="-6.02" y="57.16" class="st5 st2 st3">Booker</tspan><tspan x="-15.94" y="85.73" class="st6 st2 st3">Buttigieg</tspan><tspan x="-20.96" y="114.31" class="st7 st2 st3">Klobuchar</tspan><tspan x="-9.72" y="142.89" class="st1 st2 st3">Sanders</tspan><tspan x="-3.08" y="171.47" class="st8 st2 st3">Steyer</tspan><tspan x="-7.74" y="200.04" class="st9 st2 st3">Warren</tspan><tspan x="3.94" y="228.62" class="st10 st2 st3">Yang</tspan></text>
</svg>
