<?xml version="1.0" encoding="utf-8"?>
<!-- Generator: Adobe Illustrator 24.0.1, SVG Export Plug-In . SVG Version: 6.00 Build 0)  -->
<svg version="1.1" id="Layer_1" xmlns="http://www.w3.org/2000/svg" xmlns:xlink="http://www.w3.org/1999/xlink" x="0px" y="0px"
	 viewBox="0 0 776.49 551.3" enable-background="new 0 0 776.49 551.3" xml:space="preserve">
<a xlink:href="https://projects.jhkforecastsetc.com/democratic_primary/vermont" >
	<path fill="#00FF90" stroke="#000000" stroke-miterlimit="10" d="M623.2,100.09L623.2,100.09c-5.26,0-9.49-4.23-9.49-9.49l0,0
		c0-5.26,4.23-9.49,9.49-9.49l0,0c5.26,0,9.48,4.23,9.48,9.49l0,0C632.68,95.74,628.46,100.09,623.2,100.09z"/>
</a>
<a xlink:href="https://projects.jhkforecastsetc.com/democratic_primary/washington.html" >
	<path fill="#00FF90" stroke="#000000" stroke-miterlimit="10" d="M152,176.38L152,176.38c-10.51,0-18.97-8.47-18.97-18.98l0,0
		c0-10.51,8.47-18.97,18.97-18.97l0,0c10.51,0,18.98,8.47,18.98,18.97l0,0C170.98,167.81,162.41,176.38,152,176.38z"/>
</a>
<a xlink:href="https://projects.jhkforecastsetc.com/democratic_primary/alabama" >
	<path fill="#00FF90" stroke="#000000" stroke-miterlimit="10" d="M455,403.33L455,403.33c-9.09,0-16.43-7.34-16.43-16.43l0,0
		c0-9.09,7.34-16.43,16.43-16.43l0,0c9.09,0,16.43,7.34,16.43,16.43l0,0C471.43,395.88,464.09,403.33,455,403.33z"/>
</a>
<a xlink:href="https://projects.jhkforecastsetc.com/democratic_primary/alaska" >
	<path fill="#00FF90" stroke="#000000" stroke-miterlimit="10" d="M85.8,117.49L85.8,117.49c-5.23,0-9.49-4.26-9.49-9.49l0,0
		c0-5.23,4.26-9.49,9.49-9.49l0,0c5.23,0,9.49,4.26,9.49,9.49l0,0C95.28,113.35,91.03,117.49,85.8,117.49z"/>
</a>
<a xlink:href="https://projects.jhkforecastsetc.com/democratic_primary/arizona" >
	<path fill="#00FF90" stroke="#000000" stroke-miterlimit="10" d="M192.3,359.86L192.3,359.86c-10.04,0-18.16-8.12-18.16-18.17l0,0
		c0-10.04,8.12-18.17,18.16-18.17l0,0c10.04,0,18.17,8.12,18.17,18.17l0,0C210.46,351.74,202.34,359.86,192.3,359.86z"/>
</a>
<a xlink:href="https://projects.jhkforecastsetc.com/democratic_primary/arkansas" >
	<path fill="#00FF90" stroke="#000000" stroke-miterlimit="10" d="M370.7,373.71L370.7,373.71c-7.4,0-13.41-6.01-13.41-13.42l0,0
		c0-7.4,6.01-13.42,13.41-13.42l0,0c7.4,0,13.42,6.01,13.42,13.42l0,0C384.11,367.7,378.1,373.71,370.7,373.71z"/>
</a>
<a xlink:href="https://projects.jhkforecastsetc.com/democratic_primary/california.html" >
	<path fill="#00FF90" stroke="#000000" stroke-miterlimit="10" d="M118,336.72L118,336.72c-22.42,0-40.62-18.2-40.62-40.62l0,0
		c0-22.42,18.2-40.62,40.62-40.62l0,0c22.42,0,40.62,18.2,40.62,40.62l0,0C158.62,318.61,140.42,336.72,118,336.72z"/>
</a>
<a xlink:href="https://projects.jhkforecastsetc.com/democratic_primary/connecticut" >
	<path fill="#00FF90" stroke="#000000" stroke-miterlimit="10" d="M655.3,193.89L655.3,193.89c-7.99,0-14.49-6.5-14.49-14.49l0,0
		c0-7.99,6.5-14.49,14.49-14.49l0,0c7.99,0,14.49,6.5,14.49,14.49l0,0C669.89,187.39,663.29,193.89,655.3,193.89z"/>
</a>
<a>
	<path fill="#00FF90" stroke="#000000" stroke-miterlimit="10" d="M598.9,246.78L598.9,246.78c-5.24,0-9.49-4.24-9.49-9.49l0,0
		c0-5.24,4.24-9.49,9.49-9.49l0,0c5.24,0,9.48,4.24,9.48,9.49l0,0C608.39,242.54,604.14,246.78,598.9,246.78z"/>
</a>
<a xlink:href="https://projects.jhkforecastsetc.com/democratic_primary/dc" >
	<path fill="#00FF90" stroke="#000000" stroke-miterlimit="10" d="M577.7,257.58L577.7,257.58c-5.24,0-9.49-4.24-9.49-9.49l0,0
		c0-5.24,4.24-9.49,9.49-9.49l0,0c5.24,0,9.48,4.24,9.48,9.49l0,0C587.18,253.34,582.94,257.58,577.7,257.58z"/>
</a>
<a xlink:href="https://projects.jhkforecastsetc.com/democratic_primary/florida" >
	<path fill="#00FF90" stroke="#000000" stroke-miterlimit="10" d="M524.7,464.19L524.7,464.19c-16.35,0-29.49-13.24-29.49-29.49l0,0
		c0-16.35,13.24-29.49,29.49-29.49l0,0c16.35,0,29.49,13.24,29.49,29.49l0,0C554.29,451.05,541.05,464.19,524.7,464.19z"/>
</a>
<a xlink:href="https://projects.jhkforecastsetc.com/democratic_primary/georgia" >
	<path fill="#00FF90" stroke="#000000" stroke-miterlimit="10" d="M490.7,365.11L490.7,365.11c-12.09,0-21.91-9.82-21.91-21.91l0,0
		c0-12.09,9.82-21.91,21.91-21.91l0,0c12.09,0,21.91,9.82,21.91,21.91l0,0C512.61,355.29,502.79,365.11,490.7,365.11z"/>
</a>
<path fill="#00FF90" stroke="#000000" stroke-miterlimit="10" d="M129.5,437.95L129.5,437.95c-6.04,0-10.95-4.92-10.95-10.95l0,0
	c0-6.04,4.92-10.95,10.95-10.95l0,0c6.04,0,10.96,4.92,10.96,10.95l0,0C140.45,433.04,135.54,437.95,129.5,437.95z"/>
<a xlink:href="https://projects.jhkforecastsetc.com/democratic_primary/idaho" >
	<path fill="#00FF90" stroke="#000000" stroke-miterlimit="10" d="M202.6,221.65L202.6,221.65c-6.06,0-10.96-4.89-10.96-10.96l0,0
		c0-6.06,4.89-10.95,10.96-10.95l0,0c6.06,0,10.95,4.89,10.95,10.95l0,0C213.56,216.76,208.66,221.65,202.6,221.65z"/>
</a>
<a xlink:href="https://projects.jhkforecastsetc.com/democratic_primary/illinois" >
	<path fill="#00FF90" stroke="#000000" stroke-miterlimit="10" d="M401.8,283.7L401.8,283.7c-13.48,0-24.49-10.92-24.49-24.49l0,0
		c0-13.48,10.92-24.5,24.49-24.5l0,0c13.48,0,24.49,10.92,24.49,24.5l0,0C426.3,272.78,415.28,283.7,401.8,283.7z"/>
</a>
<a xlink:href="https://projects.jhkforecastsetc.com/democratic_primary/indiana" >
	<path fill="#00FF90" stroke="#000000" stroke-miterlimit="10" d="M455.2,280.11L455.2,280.11c-9.99,0-18.22-8.12-18.22-18.11l0,0
		c0-9.99,8.12-18.11,18.22-18.11l0,0c9.99,0,18.11,8.12,18.11,18.11l0,0C473.42,271.99,465.3,280.11,455.2,280.11z"/>
</a>
<a xlink:href="https://projects.jhkforecastsetc.com/democratic_primary/iowa.html" >
	<path fill="#36AEFF" stroke="#000000" stroke-miterlimit="10" d="M351.4,254.62L351.4,254.62c-7.36,0-13.41-5.95-13.41-13.42l0,0
		c0-7.36,6.05-13.42,13.41-13.42l0,0c7.36,0,13.42,5.95,13.42,13.42l0,0C364.82,248.66,358.76,254.62,351.4,254.62z"/>
</a>
<a xlink:href="https://projects.jhkforecastsetc.com/democratic_primary/kansas" >
	<path fill="#00FF90" stroke="#000000" stroke-miterlimit="10" d="M321.9,317.81L321.9,317.81c-7.39,0-13.41-6.03-13.41-13.41l0,0
		c0-7.39,6.03-13.41,13.41-13.41l0,0c7.39,0,13.41,6.03,13.41,13.41l0,0C335.43,311.79,329.4,317.81,321.9,317.81z"/>
</a>
<a xlink:href="https://projects.jhkforecastsetc.com/democratic_primary/kentucky" >
	<path fill="#00FF90" stroke="#000000" stroke-miterlimit="10" d="M447.6,315.59L447.6,315.59c-8.57,0-15.49-6.92-15.49-15.49l0,0
		c0-8.57,6.92-15.49,15.49-15.49l0,0c8.57,0,15.49,6.92,15.49,15.49l0,0C463.09,308.67,456.17,315.59,447.6,315.59z"/>
</a>
<a xlink:href="https://projects.jhkforecastsetc.com/democratic_primary/louisiana" >
	<path fill="#00FF90" stroke="#000000" stroke-miterlimit="10" d="M376.9,424.79L376.9,424.79c-8.48,0-15.49-6.91-15.49-15.49l0,0
		c0-8.48,6.91-15.49,15.49-15.49l0,0c8.48,0,15.49,6.91,15.49,15.49l0,0C392.39,417.88,385.48,424.79,376.9,424.79z"/>
</a>
<a xlink:href="https://projects.jhkforecastsetc.com/democratic_primary/" >
	<path fill="#00FF90" stroke="#000000" stroke-miterlimit="10" d="M665.8,77.94L665.8,77.94c-4.25,0-7.74-3.49-7.74-7.74l0,0
		c0-4.25,3.49-7.74,7.74-7.74l0,0c4.25,0,7.74,3.49,7.74,7.74l0,0C673.54,74.45,670.05,77.94,665.8,77.94z"/>
</a>
<path fill="#00FF90" stroke="#000000" stroke-miterlimit="10" d="M547.4,256.72L547.4,256.72c-9.55,0-17.32-7.77-17.32-17.32l0,0
	c0-9.55,7.77-17.32,17.32-17.32l0,0c9.55,0,17.32,7.77,17.32,17.32l0,0C564.72,248.95,556.95,256.72,547.4,256.72z"/>
<a xlink:href="https://projects.jhkforecastsetc.com/democratic_primary/massachusetts" >
	<path fill="#B722FF" stroke="#000000" stroke-miterlimit="10" d="M631.2,157.26L631.2,157.26c-10.05,0-18.17-8.11-18.17-18.16l0,0
		c0-10.05,8.11-18.16,18.17-18.16l0,0c10.05,0,18.16,8.11,18.16,18.16l0,0C649.36,149.15,641.25,157.26,631.2,157.26z"/>
</a>
<a xlink:href="https://projects.jhkforecastsetc.com/democratic_primary/michigan" >
	<path fill="#00FF90" stroke="#000000" stroke-miterlimit="10" d="M461.2,213.51L461.2,213.51c-12.13,0-21.91-9.78-21.91-21.91l0,0
		c0-12.04,9.78-21.91,21.91-21.91l0,0c12.13,0,21.91,9.78,21.91,21.91l0,0C483.02,203.73,473.24,213.51,461.2,213.51z"/>
</a>
<a xlink:href="https://projects.jhkforecastsetc.com/democratic_primary/minnesota" >
	<path fill="#00FF90" stroke="#000000" stroke-miterlimit="10" d="M346.8,195.82L346.8,195.82c-9.57,0-17.32-7.75-17.32-17.32l0,0
		c0-9.57,7.75-17.32,17.32-17.32l0,0c9.57,0,17.32,7.75,17.32,17.32l0,0C364.12,188.07,356.37,195.82,346.8,195.82z"/>
</a>
<a xlink:href="https://projects.jhkforecastsetc.com/democratic_primary/mississippi" >
	<path fill="#00FF90" stroke="#000000" stroke-miterlimit="10" d="M414.3,391.71L414.3,391.71c-7.41,0-13.41-6.01-13.41-13.42l0,0
		c0-7.41,6.01-13.42,13.41-13.42l0,0c7.41,0,13.42,6.01,13.42,13.42l0,0C427.61,385.71,421.71,391.71,414.3,391.71z"/>
</a>
<a xlink:href="https://projects.jhkforecastsetc.com/democratic_primary/missouri" >
	<path fill="#00FF90" stroke="#000000" stroke-miterlimit="10" d="M370.3,323.02L370.3,323.02c-9.58,0-17.32-7.74-17.32-17.32l0,0
		c0-9.58,7.74-17.32,17.32-17.32l0,0c9.58,0,17.32,7.74,17.32,17.32l0,0C387.62,315.18,379.88,323.02,370.3,323.02z"/>
</a>
<a xlink:href="https://projects.jhkforecastsetc.com/democratic_primary/montana" >
	<path fill="#00FF90" stroke="#000000" stroke-miterlimit="10" d="M251.7,173.89L251.7,173.89c-5.26,0-9.48-4.23-9.48-9.49l0,0
		c0-5.26,4.23-9.49,9.48-9.49l0,0c5.26,0,9.49,4.23,9.49,9.49l0,0C261.19,169.66,256.96,173.89,251.7,173.89z"/>
</a>
<a xlink:href="https://projects.jhkforecastsetc.com/democratic_primary/nebraska" >
	<path fill="#00FF90" stroke="#000000" stroke-miterlimit="10" d="M300.9,259.05L300.9,259.05c-4.24,0-7.74-3.43-7.74-7.75l0,0
		c0-4.24,3.43-7.74,7.74-7.74l0,0c4.24,0,7.74,3.43,7.74,7.74l0,0C308.64,255.54,305.22,259.05,300.9,259.05z"/>
</a>
<a xlink:href="https://projects.jhkforecastsetc.com/democratic_primary/nevada.html" >
	<path fill="#00FF90" stroke="#000000" stroke-miterlimit="10" d="M181.5,285.61L181.5,285.61c-7.41,0-13.41-6.01-13.41-13.41l0,0
		c0-7.41,6.01-13.42,13.41-13.42l0,0c7.41,0,13.42,6.01,13.42,13.42l0,0C194.81,279.61,188.8,285.61,181.5,285.61z"/>
</a>
<a xlink:href="https://projects.jhkforecastsetc.com/democratic_primary/new_hampshire.html" >
	<path fill="#00FF90" stroke="#000000" stroke-miterlimit="10" d="M649.8,108.75L649.8,108.75c-6.01,0-10.96-4.94-10.96-10.95l0,0
		c0-6.01,4.94-10.95,10.96-10.95l0,0c6.01,0,10.95,4.94,10.95,10.95l0,0C660.75,103.92,655.81,108.75,649.8,108.75z"/>
</a>
<a xlink:href="https://projects.jhkforecastsetc.com/democratic_primary/new_jersey" >
	<path fill="#00FF90" stroke="#000000" stroke-miterlimit="10" d="M609.3,216.1L609.3,216.1c-11.3,0-20.5-9.2-20.5-20.5l0,0
		c0-11.3,9.2-20.5,20.5-20.5l0,0c11.3,0,20.5,9.2,20.5,20.5l0,0C629.8,206.9,620.6,216.1,609.3,216.1z"/>
</a>
<a xlink:href="https://projects.jhkforecastsetc.com/democratic_primary/new_mexico" >
	<path fill="#00FF90" stroke="#000000" stroke-miterlimit="10" d="M256.5,369.64L256.5,369.64c-6.78,0-12.24-5.47-12.24-12.24l0,0
		c0-6.78,5.47-12.24,12.24-12.24l0,0c6.78,0,12.24,5.47,12.24,12.24l0,0C268.74,364.18,263.28,369.64,256.5,369.64z"/>
</a>
<a xlink:href="https://projects.jhkforecastsetc.com/democratic_primary/new_york" >
	<path fill="#00FF90" stroke="#000000" stroke-miterlimit="10" d="M577.4,158.8L577.4,158.8c-16.26,0-29.5-13.14-29.5-29.5l0,0
		c0-16.26,13.24-29.5,29.5-29.5l0,0c16.26,0,29.5,13.24,29.5,29.5l0,0C606.81,145.66,593.66,158.8,577.4,158.8z"/>
</a>
<a xlink:href="https://projects.jhkforecastsetc.com/democratic_primary/north_carolina" >
	<path fill="#00FF90" stroke="#000000" stroke-miterlimit="10" d="M541.1,354.32L541.1,354.32c-11.68,0-21.22-9.54-21.22-21.21l0,0
		c0-11.68,9.54-21.21,21.22-21.21l0,0c11.68,0,21.21,9.54,21.21,21.21l0,0C562.32,344.78,552.88,354.32,541.1,354.32z"/>
</a>
<a xlink:href="https://projects.jhkforecastsetc.com/democratic_primary/north_dakota" >
	<path fill="#00FF90" stroke="#000000" stroke-miterlimit="10" d="M302.3,179.27L302.3,179.27c-5.08,0-9.48-4.18-9.48-9.37l0,0
		c0-5.19,4.18-9.37,9.48-9.37l0,0c5.08,0,9.49,4.18,9.49,9.37l0,0C311.56,175.09,307.38,179.27,302.3,179.27z"/>
</a>
<a xlink:href="https://projects.jhkforecastsetc.com/democratic_primary/ohio" >
	<path fill="#00FF90" stroke="#000000" stroke-miterlimit="10" d="M500.5,268.94L500.5,268.94c-12.82,0-23.24-10.42-23.24-23.24l0,0
		c0-12.82,10.42-23.24,23.24-23.24l0,0c12.82,0,23.24,10.42,23.24,23.24l0,0C523.74,258.52,513.32,268.94,500.5,268.94z"/>
</a>
<a xlink:href="https://projects.jhkforecastsetc.com/democratic_primary/oklahoma" >
	<path fill="#00FF90" stroke="#000000" stroke-miterlimit="10" d="M312.2,363.09L312.2,363.09c-7.99,0-14.49-6.5-14.49-14.49l0,0
		c0-7.99,6.5-14.49,14.49-14.49l0,0c7.99,0,14.49,6.5,14.49,14.49l0,0C326.69,356.7,320.19,363.09,312.2,363.09z"/>
</a>
<a xlink:href="https://projects.jhkforecastsetc.com/democratic_primary/oregon.html" >
	<path fill="#00FF90" stroke="#000000" stroke-miterlimit="10" d="M139,228.29L139,228.29c-8.02,0-14.49-6.47-14.49-14.49l0,0
		c0-8.02,6.47-14.49,14.49-14.49l0,0c8.02,0,14.49,6.47,14.49,14.49l0,0C153.39,221.72,146.92,228.29,139,228.29z"/>
</a>
<a xlink:href="https://projects.jhkforecastsetc.com/democratic_primary/pennsylvania" >
	<path fill="#00FF90" stroke="#000000" stroke-miterlimit="10" d="M540.2,211.5L540.2,211.5c-13.48,0-24.49-10.92-24.49-24.5l0,0
		c0-13.48,10.92-24.5,24.49-24.5l0,0c13.48,0,24.49,10.92,24.49,24.5l0,0C564.7,200.58,553.78,211.5,540.2,211.5z"/>
</a>
<a xlink:href="https://projects.jhkforecastsetc.com/democratic_primary/rhode_island" >
	<path fill="#00FF90" stroke="#000000" stroke-miterlimit="10" d="M688.9,153.86L688.9,153.86c-6.05,0-10.96-4.91-10.96-10.96l0,0
		c0-6.05,4.91-10.96,10.96-10.96l0,0c6.05,0,10.95,4.91,10.95,10.96l0,0C699.85,148.95,694.95,153.86,688.9,153.86z"/>
</a>
<a xlink:href="https://projects.jhkforecastsetc.com/democratic_primary/south_carolina.html" >
	<path fill="#00FF90" stroke="#000000" stroke-miterlimit="10" d="M540.1,394.93L540.1,394.93c-9.08,0-16.43-7.35-16.43-16.43l0,0
		c0-9.08,7.35-16.43,16.43-16.43l0,0c9.08,0,16.43,7.35,16.43,16.43l0,0C556.42,387.58,549.18,394.93,540.1,394.93z"/>
</a>
<a xlink:href="https://projects.jhkforecastsetc.com/democratic_primary/south_dakota" >
	<path fill="#00FF90" stroke="#000000" stroke-miterlimit="10" d="M310.3,225.18L310.3,225.18c-5.17,0-9.48-4.19-9.48-9.48l0,0
		c0-5.17,4.19-9.48,9.48-9.48l0,0c5.17,0,9.49,4.19,9.49,9.48l0,0C319.79,220.87,315.6,225.18,310.3,225.18z"/>
</a>
<a xlink:href="https://projects.jhkforecastsetc.com/democratic_primary/tennessee" >
	<path fill="#00FF90" stroke="#000000" stroke-miterlimit="10" d="M425.5,353.76L425.5,353.76c-10.07,0-18.16-8.1-18.16-18.17l0,0
		c0-10.07,8.1-18.17,18.16-18.17l0,0c10.07,0,18.17,8.1,18.17,18.17l0,0C443.67,345.67,435.46,353.76,425.5,353.76z"/>
</a>
<a xlink:href="https://projects.jhkforecastsetc.com/democratic_primary/texas" >
	<path fill="#00FF90" stroke="#000000" stroke-miterlimit="10" d="M313.8,460.07L313.8,460.07c-18.6,0-33.76-15.05-33.76-33.77l0,0
		c0-18.6,15.05-33.76,33.76-33.76l0,0c18.6,0,33.77,15.05,33.77,33.76l0,0C347.46,445.01,332.4,460.07,313.8,460.07z"/>
</a>
<a xlink:href="https://projects.jhkforecastsetc.com/democratic_primary/utah" >
	<path fill="#00FF90" stroke="#000000" stroke-miterlimit="10" d="M227.6,290.01L227.6,290.01c-7.43,0-13.41-5.99-13.41-13.41l0,0
		c0-7.43,5.99-13.41,13.41-13.41l0,0c7.43,0,13.42,5.99,13.42,13.41l0,0C241.01,284.03,235.03,290.01,227.6,290.01z"/>
</a>
<a xlink:href="https://projects.jhkforecastsetc.com/democratic_primary/virginia" >
	<path fill="#00FF90" stroke="#000000" stroke-miterlimit="10" d="M549.5,303.25L549.5,303.25c-10.93,0-19.75-8.82-19.75-19.75l0,0
		c0-10.93,8.82-19.75,19.75-19.75l0,0c10.93,0,19.75,8.82,19.75,19.75l0,0C569.25,294.43,560.33,303.25,549.5,303.25z"/>
</a>
<a xlink:href="https://projects.jhkforecastsetc.com/democratic_primary/west_virginia" >
	<path fill="#00FF90" stroke="#000000" stroke-miterlimit="10" d="M493,308.94L493,308.94c-6.72,0-12.24-5.52-12.24-12.24l0,0
		c0-6.72,5.52-12.24,12.24-12.24l0,0c6.72,0,12.24,5.52,12.24,12.24l0,0C505.12,303.42,499.72,308.94,493,308.94z"/>
</a>
<a xlink:href="https://projects.jhkforecastsetc.com/democratic_primary/wisconsin" >
	<path fill="#00FF90" stroke="#000000" stroke-miterlimit="10" d="M400.3,217.72L400.3,217.72c-9.56,0-17.32-7.76-17.32-17.32l0,0
		c0-9.56,7.76-17.32,17.32-17.32l0,0c9.56,0,17.32,7.76,17.32,17.32l0,0C417.62,209.96,409.86,217.72,400.3,217.72z"/>
</a>
<a xlink:href="https://projects.jhkforecastsetc.com/democratic_primary/colorado" >
	<path fill="#00FF90" stroke="#000000" stroke-miterlimit="10" d="M270.9,316.33L270.9,316.33c-9.08,0-16.43-7.35-16.43-16.43l0,0
		c0-9.08,7.35-16.43,16.43-16.43l0,0c9.08,0,16.43,7.35,16.43,16.43l0,0C287.33,308.98,279.98,316.33,270.9,316.33z"/>
</a>
<a xlink:href="https://projects.jhkforecastsetc.com/democratic_primary/wyoming" >
	<path fill="#B722FF" stroke="#000000" stroke-miterlimit="10" d="M258,236.08L258,236.08c-5.21,0-9.48-4.28-9.48-9.48l0,0
		c0-5.21,4.28-9.48,9.48-9.48l0,0c5.21,0,9.49,4.28,9.49,9.48l0,0C267.48,231.81,263.21,236.08,258,236.08z"/>
</a>
<g>
	<path d="M453.3,388.1c0.5,0,1,0.1,1,0.1c0-0.7-0.2-0.9-0.7-0.9s-1.2,0.1-1.5,0.2c-0.2,0-0.3-0.1-0.3-0.2l-0.1-0.7
		c0-0.2,0.1-0.3,0.2-0.3s1-0.3,1.8-0.3c1.7,0,2.1,0.9,2.1,2.3v2.9c0,0.1-0.1,0.3-0.2,0.3h-0.5c-0.1,0-0.2,0-0.2-0.2l-0.2-0.4
		c-0.3,0.3-0.8,0.7-1.6,0.7c-1.1,0-1.8-0.7-1.8-1.8C451.1,388.9,451.9,388.1,453.3,388.1z M453.3,390.5c0.4,0,0.8-0.4,0.9-0.5v-0.7
		c0,0-0.4-0.2-0.8-0.2c-0.5,0-0.9,0.3-0.9,0.7C452.6,390.2,452.9,390.5,453.3,390.5z"/>
	<path d="M457.2,382.3c0-0.1,0.1-0.3,0.2-0.3h1.1c0.1,0,0.3,0.1,0.3,0.2v8.9c0,0.1-0.1,0.3-0.2,0.3h-1.1c-0.1,0-0.3-0.1-0.3-0.2
		V382.3z"/>
</g>
<g>
	<path d="M79.1,104.12c0.5,0,1,0.21,1,0.21c0-0.73-0.2-0.94-0.7-0.94s-1.2,0.1-1.5,0.21c-0.2,0.1-0.3-0.1-0.3-0.21l-0.1-0.73
		c0-0.21,0.1-0.31,0.2-0.31s1-0.31,1.8-0.31c1.7,0,2.1,0.94,2.1,2.41v3.04c0,0.1-0.1,0.31-0.2,0.31h-0.5c-0.1,0-0.2,0-0.2-0.21
		l-0.2-0.42c-0.3,0.31-0.8,0.73-1.6,0.73c-1.1,0-1.8-0.73-1.8-1.89C76.9,104.96,77.7,104.12,79.1,104.12z M79.1,106.64
		c0.4,0,0.8-0.42,0.9-0.52v-0.73c0,0-0.4-0.21-0.8-0.21c-0.5,0-0.9,0.31-0.9,0.73C78.4,106.33,78.7,106.64,79.1,106.64z"/>
	<path d="M83,98.04c0-0.1,0.1-0.31,0.2-0.31h1.2c0.1,0,0.2,0.1,0.3,0.21v6.09l1.8-1.99c0.1-0.1,0.2-0.21,0.3-0.21H88
		c0.2,0,0.3,0.21,0.2,0.42l-2,2.2l2.4,2.73c0.1,0.21,0.1,0.42-0.2,0.42h-1.5c-0.1,0-0.2-0.1-0.2-0.1l-2.1-2.52v2.41
		c0,0.1-0.1,0.31-0.2,0.31h-1.2c-0.1,0-0.3-0.1-0.3-0.21L83,98.04z"/>
</g>
<g>
	<path d="M189.5,340.9c0.5,0,1,0.1,1,0.1c0-0.7-0.2-0.9-0.7-0.9s-1.2,0.1-1.5,0.2c-0.2,0.1-0.3-0.1-0.3-0.2l-0.1-0.7
		c0-0.2,0.1-0.3,0.2-0.3s1-0.3,1.8-0.3c1.7,0,2.1,0.9,2.1,2.3v2.9c0,0.1-0.1,0.3-0.2,0.3h-0.5c-0.1,0-0.2,0-0.2-0.2l-0.2-0.4
		c-0.3,0.3-0.8,0.7-1.6,0.7c-1.1,0-1.8-0.7-1.8-1.8C187.3,341.7,188.1,341,189.5,340.9z M189.5,343.4c0.4,0,0.8-0.4,0.9-0.5v-0.7
		c0,0-0.4-0.2-0.8-0.2c-0.5,0-0.9,0.3-0.9,0.7C188.8,343.1,189.1,343.4,189.5,343.4z"/>
	<path d="M193,343.9l1.9-3.5l0,0h-1.5c-0.1,0-0.2-0.1-0.2-0.2v-0.9c0-0.1,0.1-0.3,0.2-0.3h3.6c0.2,0,0.3,0.2,0.2,0.4l-1.9,3.6l0,0
		h1.5c0.1,0,0.3,0.1,0.3,0.2v0.9c0,0.1-0.1,0.3-0.2,0.3h-3.4c-0.1,0-0.3-0.1-0.3-0.2L193,343.9L193,343.9z"/>
</g>
<g>
	<path d="M367.9,359.5c0.5,0,1,0.1,1,0.1c0-0.7-0.2-0.9-0.7-0.9s-1.2,0.1-1.5,0.2c-0.2,0.1-0.3-0.1-0.3-0.2l-0.1-0.7
		c0-0.2,0.1-0.3,0.2-0.3s1-0.3,1.8-0.3c1.7,0,2.1,0.9,2.1,2.3v2.9c0,0.1-0.1,0.3-0.2,0.3h-0.5c-0.1,0-0.2,0-0.2-0.2l-0.2-0.4
		c-0.3,0.3-0.8,0.7-1.6,0.7c-1.1,0-1.8-0.7-1.8-1.8C365.7,360.3,366.5,359.5,367.9,359.5z M367.9,361.9c0.4,0,0.8-0.4,0.9-0.5v-0.7
		c0,0-0.4-0.2-0.8-0.2c-0.5,0-0.9,0.3-0.9,0.7C367.2,361.6,367.5,361.9,367.9,361.9z"/>
	<path d="M371.9,357.8c0-0.1,0.1-0.3,0.2-0.3h0.5c0.1,0,0.2,0.1,0.2,0.2l0.2,0.5c0.2-0.3,0.7-0.8,1.5-0.8c0.6,0,1.2,0.2,1,0.5
		l-0.5,0.9c-0.1,0.1-0.2,0.2-0.3,0.1c0,0-0.2-0.1-0.4-0.1c-0.5,0-0.9,0.4-1,0.5v3.3c0,0.2-0.1,0.3-0.3,0.3h-1
		c-0.1,0-0.3-0.1-0.3-0.2L371.9,357.8z"/>
</g>
<g>
	<path d="M115.7,293.3c0.8,0,1.5,0.3,2,0.9c0.1,0.1,0.1,0.3-0.1,0.4l-0.6,0.6c-0.1,0.1-0.2,0-0.3,0c-0.2-0.2-0.6-0.4-0.9-0.4
		c-0.7,0-1.3,0.6-1.3,1.4c0,0.8,0.6,1.4,1.3,1.4c0.6,0,0.8-0.3,1.1-0.5c0.1-0.1,0.2-0.1,0.3,0l0.6,0.5c0.1,0.1,0.2,0.2,0.1,0.4
		c-0.5,0.7-1.2,1.1-2.1,1.1c-1.5,0-2.9-1.2-2.9-2.8C112.8,294.6,114.1,293.3,115.7,293.3z"/>
	<path d="M120.7,295.4c0.5,0,1,0.1,1,0.1c0-0.7-0.2-0.9-0.7-0.9s-1.2,0.1-1.5,0.2c-0.2,0.1-0.3-0.1-0.3-0.2l-0.1-0.7
		c0-0.2,0.1-0.3,0.2-0.3c0.1,0,1-0.3,1.8-0.3c1.7,0,2.1,0.9,2.1,2.3v2.9c0,0.1-0.1,0.3-0.2,0.3h-0.5c-0.1,0-0.2,0-0.2-0.2l-0.2-0.4
		c-0.3,0.3-0.8,0.7-1.6,0.7c-1.1,0-1.8-0.7-1.8-1.8C118.6,296.2,119.3,295.4,120.7,295.4z M120.8,297.8c0.4,0,0.8-0.4,0.9-0.5v-0.7
		c0,0-0.4-0.2-0.8-0.2c-0.5,0-0.9,0.3-0.9,0.7C120.1,297.5,120.3,297.8,120.8,297.8z"/>
</g>
<g>
	<path d="M268.1,297c0.8,0,1.5,0.3,2,0.9c0.1,0.1,0.1,0.3-0.1,0.4l-0.6,0.6c-0.1,0.1-0.2,0-0.3,0c-0.2-0.2-0.5-0.4-0.9-0.4
		c-0.7,0-1.3,0.6-1.3,1.4c0,0.8,0.6,1.4,1.3,1.4c0.6,0,0.8-0.3,1.1-0.5c0.1-0.1,0.2-0.1,0.3,0l0.6,0.5c0.1,0.1,0.2,0.2,0.1,0.4
		c-0.5,0.7-1.2,1.1-2.1,1.1c-1.5,0-2.9-1.2-2.9-2.8C265.3,298.3,266.6,297,268.1,297z"/>
	<path d="M273.8,297c1.5,0,2.8,1.3,2.8,2.8c0,1.6-1.2,2.9-2.8,2.9c-1.5,0-2.8-1.3-2.8-2.8C271,298.3,272.3,297,273.8,297z
		 M273.8,301.2c0.7,0,1.3-0.6,1.3-1.4c0-0.8-0.6-1.4-1.3-1.4c-0.7,0-1.3,0.6-1.3,1.4S273.1,301.2,273.8,301.2z"/>
</g>
<g>
	<path d="M522.2,435.5h-0.5c-0.2,0-0.2-0.1-0.3-0.2v-0.9c0-0.1,0.1-0.3,0.2-0.3h0.5v-1.5c0-1.8,1.2-2.7,2.6-2.7
		c1.2,0,1.9,0.8,1.9,0.8l0.2-0.4c0.1-0.1,0.2-0.2,0.3-0.2h0.4c0.1,0,0.2,0.1,0.3,0.2v8.9c0,0.1-0.1,0.3-0.2,0.3h-1.1
		c-0.1,0-0.3-0.1-0.3-0.2v-7.1c-0.1-0.1-0.6-0.7-1.3-0.6c-0.6,0-1.1,0.4-1.1,1.2v1.5h1.1c0.1,0,0.3,0.1,0.3,0.2v0.9
		c0,0.1-0.1,0.3-0.2,0.3h-1.1v3.7c0,0.1-0.1,0.3-0.2,0.3h-1.2c-0.1,0-0.2-0.1-0.2-0.2L522.2,435.5z"/>
</g>
<g>
	<path d="M486.2,341.9c0,0-0.4-0.5-0.4-1.3c0-1.2,1-2.4,2.3-2.4h2.5c0.2,0,0.3,0.1,0.3,0.2v0.5c0,0.1,0,0.2-0.1,0.2l-0.8,0.2
		c0,0,0.5,0.4,0.5,1.4c0,1.1-0.9,2.1-2.3,2.1c-0.5,0-0.9-0.1-1.1-0.1c-0.2,0-0.5,0.2-0.5,0.5s0.2,0.5,0.5,0.5h1.7
		c1.2,0,2.2,0.7,2.2,1.9c0,1.2-1,2.3-2.9,2.3c-2,0-2.8-1-2.8-1.8s0.7-1.2,0.8-1.3l0,0c-0.2-0.1-1-0.4-1-1.4
		C485.2,342.4,486.2,341.9,486.2,341.9z M488.1,346.7c0.8,0,1.2-0.3,1.2-0.9c0-0.2-0.2-0.7-1-0.6c-0.3,0-0.6,0-0.9,0.1
		c-0.2,0-0.6,0.2-0.6,0.7C487,346.4,487.4,346.7,488.1,346.7z M488.2,341.7c0.5,0,0.9-0.4,0.9-1s-0.4-1-0.9-1s-0.9,0.4-0.9,1
		S487.6,341.7,488.2,341.7z"/>
	<path d="M493.7,340.4c0.5,0,1,0.1,1,0.1c0-0.7-0.2-0.9-0.7-0.9s-1.2,0.1-1.5,0.2c-0.2,0.1-0.3-0.1-0.3-0.2l-0.1-0.7
		c0-0.2,0.1-0.3,0.2-0.3c0.1,0,1-0.3,1.8-0.3c1.7,0,2.1,0.9,2.1,2.3v2.9c0,0.1-0.1,0.3-0.2,0.3h-0.5c-0.1,0-0.2,0-0.2-0.2l-0.2-0.4
		c-0.3,0.3-0.8,0.7-1.6,0.7c-1.1,0-1.8-0.7-1.8-1.8C491.6,341.2,492.4,340.4,493.7,340.4z M493.8,342.8c0.4,0,0.8-0.4,0.9-0.5v-0.7
		c0,0-0.4-0.2-0.8-0.2c-0.5,0-0.9,0.3-0.9,0.7C493.1,342.5,493.4,342.8,493.8,342.8z"/>
</g>
<g>
	<path d="M198.3,207.2c0-0.5,0.4-0.9,0.9-0.9s0.9,0.4,0.9,0.9s-0.4,0.9-0.9,0.9C198.8,208.1,198.3,207.7,198.3,207.2z M198.5,210.3
		c0-0.1,0.1-0.3,0.2-0.3h1.1c0.1,0,0.3,0.1,0.3,0.2v4.9c0,0.1-0.1,0.3-0.2,0.3h-1.1c-0.1,0-0.3-0.1-0.3-0.2V210.3z"/>
	<path d="M204,209.9c0.5,0,1,0.1,1.2,0.2v-3.9c0-0.1,0.1-0.3,0.2-0.3h1.1c0.1,0,0.3,0.1,0.3,0.2l0.1,8.9c0,0.1-0.1,0.3-0.2,0.3h-0.5
		c-0.1,0-0.2-0.1-0.3-0.2l-0.1-0.4c0,0-0.6,0.8-1.8,0.8c-1.5,0-2.6-1.3-2.6-2.8C201.3,211.2,202.4,209.9,204,209.9z M204.1,214.1
		c0.7,0,1-0.6,1.1-0.9v-1.6c0,0-0.4-0.3-1.1-0.3c-0.8,0-1.3,0.6-1.3,1.4C202.9,213.5,203.4,214.1,204.1,214.1z"/>
</g>
<g>
	<path d="M399.3,255.7c0-0.5,0.4-0.9,0.9-0.9s0.9,0.4,1,0.9c0,0.5-0.4,0.9-0.9,0.9C399.7,256.7,399.3,256.3,399.3,255.7z
		 M399.4,258.8c0-0.1,0.1-0.3,0.2-0.3h1.1c0.1,0,0.2,0.1,0.3,0.2v4.9c0,0.1-0.1,0.3-0.2,0.3h-1.1c-0.1,0-0.2-0.1-0.3-0.2V258.8z"/>
	<path d="M402.6,254.8c0-0.1,0.1-0.3,0.2-0.3h1.1c0.1,0,0.3,0.1,0.3,0.2v8.9c0,0.1-0.1,0.3-0.2,0.3h-1.1c-0.1,0-0.2-0.1-0.3-0.2
		V254.8z"/>
</g>
<g>
	<path d="M450.8,258.3c0-0.5,0.4-0.9,0.9-0.9s0.9,0.4,1,0.9c0,0.5-0.4,0.9-0.9,0.9C451.2,259.2,450.8,258.8,450.8,258.3z
		 M450.9,261.4c0-0.1,0.1-0.3,0.2-0.3h1.1c0.1,0,0.2,0.1,0.3,0.2v4.9c0,0.1-0.1,0.3-0.2,0.3h-1.1c-0.1,0-0.3-0.1-0.3-0.2V261.4z"/>
	<path d="M454.2,261.4c0-0.1,0.1-0.3,0.2-0.3h0.5c0.1,0,0.2,0.1,0.2,0.2l0.2,0.5c0.2-0.2,0.9-0.8,1.9-0.8c1.7,0,2.4,1.3,2.4,2.7v2.6
		c0,0.1-0.1,0.3-0.2,0.3h-1.1c-0.1,0-0.3-0.1-0.3-0.2v-2.7c0-0.7-0.4-1.1-1-1.1c-0.7,0-1.1,0.5-1.3,0.9v3c0,0.2-0.1,0.2-0.3,0.3h-1
		c-0.1,0-0.3-0.1-0.3-0.2L454.2,261.4z"/>
</g>
<g>
	<path d="M347.6,236.2c0-0.5,0.4-0.9,0.9-0.9s0.9,0.4,1,0.9c0,0.5-0.4,0.9-0.9,0.9C348,237.1,347.6,236.7,347.6,236.2z M347.7,239.3
		c0-0.1,0.1-0.3,0.2-0.3h1.1c0.1,0,0.3,0.1,0.3,0.2v4.9c0,0.1-0.1,0.3-0.2,0.3H348c-0.1,0-0.2-0.1-0.3-0.2V239.3z"/>
	<path d="M352.7,241c0.5,0,1,0.1,1,0.1c0-0.7-0.2-0.9-0.7-0.9s-1.2,0.1-1.5,0.2c-0.2,0.1-0.3-0.1-0.3-0.2l-0.1-0.7
		c0-0.2,0.1-0.3,0.2-0.3s1-0.3,1.8-0.3c1.7,0,2.1,0.9,2.1,2.3v2.9c0,0.1-0.1,0.3-0.2,0.3h-0.5c-0.1,0-0.2,0-0.2-0.2l-0.2-0.4
		c-0.3,0.3-0.8,0.7-1.6,0.7c-1.1,0-1.8-0.7-1.8-1.8C350.6,241.7,351.3,241,352.7,241z M352.8,243.3c0.4,0,0.8-0.4,0.9-0.5v-0.7
		c0,0-0.4-0.2-0.8-0.2c-0.5,0-0.9,0.3-0.9,0.7C352,243.1,352.3,243.3,352.8,243.3z"/>
</g>
<g>
	<path d="M316.8,299.9c0-0.1,0.1-0.2,0.2-0.3h1.1c0.1,0,0.3,0.1,0.3,0.2v5.8l1.9-1.9c0.1-0.1,0.2-0.2,0.3-0.2h1.2
		c0.2,0,0.3,0.2,0.2,0.4l-2,2.1l2.4,2.6c0.1,0.1,0.1,0.4-0.2,0.4h-1.5c-0.1,0-0.2,0-0.2-0.1l-2.1-2.4v2.3c0,0.1-0.1,0.3-0.2,0.3
		h-1.1c-0.1,0-0.2-0.1-0.3-0.2L316.8,299.9z"/>
	<path d="M323.1,308.4l0.4-0.7c0-0.1,0.2-0.2,0.3-0.1c0,0,0.6,0.3,1.2,0.3c0.3,0,0.5-0.1,0.5-0.3c0-0.2-0.2-0.4-0.9-0.7
		c-1-0.4-1.5-0.9-1.5-1.8c0-0.8,0.6-1.6,2-1.6c0.8,0,1.4,0.2,1.7,0.4c0.1,0.1,0.2,0.2,0.1,0.4l-0.3,0.7c-0.1,0.1-0.2,0.1-0.3,0.1
		c0,0-0.6-0.3-1.1-0.3c-0.3,0-0.5,0.1-0.5,0.3c0,0.2,0.2,0.3,0.7,0.5c1,0.4,1.8,0.8,1.8,1.9c0,0.9-0.8,1.6-2.1,1.6
		c-0.9,0-1.5-0.3-1.8-0.5C323.1,308.6,323,308.5,323.1,308.4z"/>
</g>
<g>
	<path d="M441.6,293.7c0-0.1,0.1-0.3,0.2-0.3h1.1c0.1,0,0.3,0.1,0.3,0.2v5.8l1.9-1.9c0.1-0.1,0.2-0.2,0.3-0.2h1.2
		c0.2,0,0.3,0.2,0.2,0.4l-2,2.1l2.4,2.6c0.1,0.1,0.1,0.4-0.2,0.4h-1.5c-0.1,0-0.2-0.1-0.2-0.1l-2.1-2.4v2.3c0,0.1-0.1,0.3-0.2,0.3
		h-1.1c-0.1,0-0.2-0.1-0.3-0.2V293.7z"/>
	<path d="M447.5,297.8c-0.1-0.2,0-0.4,0.2-0.4h1.2c0.1,0,0.2,0.1,0.2,0.1l1.4,3l0,0l1.3-3.1c0.1-0.1,0.2-0.1,0.3-0.1h1.1
		c0.2,0,0.3,0.2,0.2,0.4l-4.1,8.9c0,0.1-0.1,0.2-0.2,0.2h-1.2c-0.2,0-0.3-0.2-0.2-0.4l1.9-4.1L447.5,297.8z"/>
</g>
<g>
	<path d="M373.2,404.9c0-0.1,0.1-0.3,0.2-0.3h1.1c0.1,0,0.3,0.1,0.3,0.2v8.9c0,0.1-0.1,0.3-0.2,0.3h-1.1c-0.1,0-0.3-0.1-0.3-0.2
		V404.9z"/>
	<path d="M378.3,410.6c0.5,0,1,0.1,1,0.1c0-0.7-0.2-0.9-0.7-0.9s-1.2,0.1-1.5,0.2c-0.2,0.1-0.3-0.1-0.3-0.2l-0.1-0.7
		c0-0.2,0.1-0.3,0.2-0.3s1-0.3,1.8-0.3c1.7,0,2.1,0.9,2.1,2.3v2.9c0,0.1-0.1,0.3-0.2,0.3h-0.5c-0.1,0-0.2,0-0.2-0.2l-0.2-0.4
		c-0.3,0.3-0.8,0.7-1.6,0.7c-1.1,0-1.8-0.7-1.8-1.8C376.1,411.4,376.9,410.6,378.3,410.6z M378.3,413c0.4,0,0.8-0.4,0.9-0.5v-0.7
		c0,0-0.4-0.2-0.8-0.2c-0.5,0-0.9,0.3-0.9,0.7C377.6,412.7,377.9,413,378.3,413z"/>
</g>
<g>
	<path d="M662.1,80.8c0-0.1,0.1-0.3,0.2-0.3h0.5c0.1,0,0.2,0.1,0.2,0.1l0.2,0.5c0.2-0.3,0.8-0.8,1.8-0.8c0.8,0,1.3,0.3,1.8,0.8
		c0.2-0.2,0.9-0.8,1.9-0.8c1.7,0,2.4,1.3,2.4,2.7v2.6c0,0.1-0.1,0.3-0.2,0.3h-1.1c-0.1,0-0.2-0.1-0.3-0.2V83c0-0.7-0.3-1.1-1-1.1
		c-0.8,0-1.1,0.6-1.1,0.6s0,0.3,0,0.5v2.7c0,0.1-0.1,0.3-0.2,0.3h-1c-0.2,0-0.2-0.1-0.3-0.2v-2.7c0-0.7-0.3-1.1-1-1.1
		s-1,0.5-1.1,0.9v3c0,0.1-0.1,0.3-0.2,0.3h-1.1c-0.1,0-0.2-0.1-0.3-0.2L662.1,80.8z"/>
	<path d="M674.9,80.4c1.4,0,2.5,1,2.5,2.5c0,0.1,0,0.3,0,0.4c0,0.1-0.1,0.2-0.2,0.2h-3.5c0,0.5,0.5,1.2,1.3,1.2c0.4,0,0.8-0.2,1-0.3
		c0.1-0.1,0.2-0.1,0.3,0l0.5,0.6c0.1,0.1,0.1,0.2,0,0.4c-0.4,0.4-1.1,0.8-2,0.8c-1.6,0-2.8-1.3-2.8-2.8
		C672.2,81.7,673.3,80.4,674.9,80.4z M675.9,82.5c0-0.5-0.5-0.9-1-0.9s-1,0.4-1,0.9H675.9z"/>
</g>
<g>
	<path d="M455.1,191.1c0-0.1,0.1-0.3,0.2-0.3h0.5c0.1,0,0.2,0.1,0.2,0.1l0.2,0.5c0.2-0.3,0.8-0.8,1.8-0.8c0.8,0,1.3,0.3,1.8,0.8
		c0.2-0.2,0.9-0.8,1.9-0.8c1.7,0,2.4,1.3,2.4,2.7v2.6c0,0.1-0.1,0.3-0.2,0.3h-1.1c-0.1,0-0.2-0.1-0.3-0.2v-2.7c0-0.7-0.3-1.1-1-1.1
		c-0.8,0-1.1,0.6-1.1,0.6s0,0.3,0,0.5v2.7c0,0.1-0.1,0.3-0.2,0.3h-1c-0.1,0-0.2-0.1-0.3-0.2v-2.7c0-0.7-0.3-1.1-1-1.1
		s-1,0.5-1.1,0.9v3c0,0.1-0.1,0.3-0.2,0.3h-1.1c-0.1,0-0.2-0.1-0.3-0.2L455.1,191.1z"/>
	<path d="M465.4,188c0-0.5,0.4-0.9,0.9-0.9s0.9,0.4,1,0.9s-0.4,0.9-0.9,0.9C465.8,188.9,465.4,188.5,465.4,188z M465.5,191
		c0-0.1,0.1-0.3,0.2-0.3h1.1c0.1,0,0.2,0.1,0.3,0.2v4.9c0,0.1-0.1,0.3-0.2,0.3h-1.1c-0.1,0-0.2-0.1-0.3-0.2V191z"/>
</g>
<g>
	<path d="M338.8,176.2c0-0.2,0.1-0.3,0.2-0.3h0.5c0.1,0,0.2,0.1,0.2,0.2l0.2,0.5c0.2-0.3,0.8-0.8,1.8-0.8c0.8,0,1.3,0.3,1.8,0.8
		c0.2-0.2,0.9-0.8,1.9-0.8c1.7,0,2.4,1.3,2.4,2.7v2.6c0,0.1-0.1,0.3-0.2,0.3h-1.1c-0.1,0-0.2-0.1-0.3-0.2v-2.7c0-0.7-0.3-1.1-1-1.1
		c-0.8,0-1.1,0.6-1.1,0.6s0,0.3,0,0.5v2.7c0,0.1-0.1,0.3-0.2,0.3h-1c-0.1,0-0.2-0.1-0.3-0.2v-2.7c0-0.7-0.3-1.2-1-1.1
		c-0.7,0-1,0.5-1.1,0.9v3c0,0.1-0.1,0.3-0.2,0.3h-1.1c-0.1,0-0.2-0.1-0.3-0.2L338.8,176.2z"/>
	<path d="M349.3,176.2c0-0.2,0.1-0.3,0.2-0.3h0.5c0.1,0,0.2,0.1,0.2,0.2l0.2,0.5c0.2-0.2,0.9-0.8,1.9-0.8c1.7,0,2.4,1.3,2.4,2.7v2.6
		c0,0.1-0.1,0.3-0.2,0.3h-1.1c-0.1,0-0.2-0.1-0.3-0.2v-2.7c0-0.7-0.4-1.1-1-1.1c-0.7,0-1.1,0.5-1.3,0.9v3c0,0.2-0.1,0.3-0.3,0.3h-1
		c-0.1,0-0.2-0.1-0.3-0.2L349.3,176.2z"/>
</g>
<g>
	<path d="M407.1,375.9c0-0.1,0.1-0.3,0.2-0.3h0.5c0.1,0,0.2,0.1,0.2,0.1l0.2,0.5c0.2-0.3,0.8-0.8,1.8-0.8c0.8,0,1.3,0.3,1.8,0.8
		c0.2-0.2,0.9-0.8,1.9-0.8c1.7,0,2.4,1.3,2.4,2.7v2.6c0,0.1-0.1,0.3-0.2,0.3h-1.1c-0.1,0-0.2-0.1-0.3-0.2v-2.7c0-0.7-0.3-1.1-1-1.1
		c-0.8,0-1.1,0.6-1.1,0.6s0,0.3,0,0.5v2.7c0,0.1-0.1,0.3-0.2,0.3h-1c-0.1,0-0.2-0.1-0.3-0.2v-2.7c0-0.7-0.3-1.1-1-1.1
		s-1,0.5-1.1,0.9v3c0,0.1-0.1,0.3-0.2,0.3h-1.1c-0.1,0-0.2-0.1-0.3-0.2L407.1,375.9z"/>
	<path d="M417.4,380.4l0.4-0.7c0-0.1,0.2-0.2,0.3-0.1c0,0,0.6,0.3,1.2,0.3c0.3,0,0.5-0.1,0.5-0.3c0-0.2-0.2-0.4-0.9-0.7
		c-1-0.4-1.5-1-1.5-1.8s0.6-1.6,2-1.6c0.8,0,1.4,0.2,1.7,0.4c0.1,0.1,0.2,0.2,0.1,0.4l-0.3,0.7c-0.1,0.1-0.2,0.1-0.3,0.1
		c0,0-0.6-0.3-1.1-0.3c-0.3,0-0.5,0.1-0.5,0.3c0,0.2,0.2,0.3,0.7,0.5c1,0.4,1.8,0.8,1.8,1.9c0,0.9-0.8,1.6-2.1,1.6
		c-0.9,0-1.5-0.3-1.8-0.5C417.4,380.6,417.3,380.5,417.4,380.4z"/>
</g>
<g>
	<path d="M362.4,303.3c0-0.1,0.1-0.3,0.2-0.3h0.5c0.1,0,0.2,0.1,0.2,0.1l0.2,0.5c0.2-0.3,0.8-0.8,1.8-0.8c0.8,0,1.3,0.3,1.8,0.8
		c0.2-0.2,0.9-0.8,1.9-0.8c1.7,0,2.4,1.3,2.4,2.7v2.6c0,0.1-0.1,0.3-0.2,0.3h-1.1c-0.1,0-0.2-0.1-0.3-0.2v-2.7c0-0.7-0.3-1.1-1-1.1
		c-0.8,0-1.1,0.6-1.1,0.6s0,0.3,0,0.5v2.7c0,0.1-0.1,0.3-0.2,0.3h-1c-0.1,0-0.2-0.1-0.3-0.2v-2.7c0-0.7-0.3-1.1-1-1.1
		s-1,0.5-1.1,0.9v3c0,0.1-0.1,0.3-0.2,0.3h-1.1c-0.1,0-0.2-0.1-0.3-0.2L362.4,303.3z"/>
	<path d="M375.3,302.8c1.5,0,2.8,1.3,2.8,2.8c0,1.6-1.2,2.9-2.8,2.9c-1.5,0-2.8-1.3-2.8-2.8C372.5,304.1,373.8,302.8,375.3,302.8z
		 M375.3,307c0.7,0,1.3-0.6,1.3-1.4s-0.6-1.4-1.3-1.4c-0.7,0-1.3,0.6-1.3,1.4S374.6,307,375.3,307z"/>
</g>
<g>
	<path d="M244.7,162.9c0-0.2,0.1-0.3,0.2-0.3h0.5c0.1,0,0.2,0.1,0.2,0.2l0.2,0.5c0.2-0.3,0.8-0.8,1.8-0.8c0.8,0,1.3,0.3,1.8,0.8
		c0.2-0.2,0.9-0.8,1.9-0.8c1.7,0,2.4,1.3,2.4,2.7v2.6c0,0.1-0.1,0.3-0.2,0.3h-1.1c-0.1,0-0.3-0.1-0.3-0.2v-2.7c0-0.7-0.3-1.1-1-1.1
		c-0.8,0-1.1,0.6-1.1,0.6s0,0.3,0,0.5v2.7c0,0.1-0.1,0.3-0.2,0.3h-1c-0.1,0-0.3-0.1-0.3-0.2v-2.7c0-0.7-0.3-1.1-1-1.1
		s-1,0.5-1.1,0.9v3c0,0.1-0.1,0.3-0.2,0.3h-1.1c-0.1,0-0.3-0.1-0.3-0.2L244.7,162.9z"/>
	<path d="M255.4,164h-0.5c-0.1,0-0.2-0.1-0.2-0.2v-0.9c0-0.2,0.1-0.3,0.2-0.3h0.5v-1.5c0-0.1,0.1-0.3,0.2-0.3h1.1
		c0.1,0,0.2,0.1,0.2,0.2v1.5h1.2c0.1,0,0.3,0.1,0.3,0.2v0.9c0,0.1-0.1,0.3-0.2,0.3H257v2.2c0,0.4,0.2,0.4,0.4,0.4
		c0.2,0,0.5-0.1,0.7-0.2c0.1-0.1,0.2,0,0.3,0.2l0.3,0.8c0.1,0.1,0,0.3-0.1,0.3s-0.9,0.3-1.6,0.4c-1,0-1.5-0.6-1.5-1.7L255.4,164z"/>
</g>
<g>
	<path d="M295,248.9c0-0.1,0.1-0.3,0.2-0.3h0.5c0.1,0,0.2,0.1,0.2,0.2l0.2,0.5c0.2-0.2,0.9-0.8,1.9-0.8c1.7,0,2.4,1.3,2.4,2.7v2.6
		c0,0.1-0.1,0.3-0.2,0.3h-1.1c-0.1,0-0.3-0.1-0.3-0.2v-2.7c0-0.7-0.4-1.1-1-1.1c-0.7,0-1.1,0.5-1.3,0.9v3c0,0.2-0.1,0.2-0.3,0.3h-1
		c-0.1,0-0.3-0.1-0.3-0.2L295,248.9z"/>
	<path d="M304.4,248.5c1.4,0,2.5,1,2.5,2.5c0,0.1,0,0.3,0,0.4c0,0.1-0.1,0.2-0.2,0.2h-3.5c0,0.6,0.5,1.2,1.3,1.2
		c0.4,0,0.8-0.2,1-0.3c0.1-0.1,0.2-0.1,0.4,0l0.5,0.6c0.1,0.1,0.1,0.2,0,0.4c-0.4,0.4-1.1,0.8-2,0.8c-1.6,0-2.8-1.3-2.8-2.8
		C301.6,249.8,302.8,248.5,304.4,248.5z M305.3,250.6c0-0.5-0.5-0.9-1-0.9s-1,0.4-1,0.9H305.3z"/>
</g>
<g>
	<path d="M175.6,269.8c0-0.1,0.1-0.3,0.2-0.3h0.5c0.1,0,0.2,0.1,0.2,0.2l0.2,0.5c0.2-0.2,0.9-0.8,1.9-0.8c1.7,0,2.4,1.3,2.4,2.7v2.6
		c0,0.1-0.1,0.3-0.2,0.3h-1.1c-0.1,0-0.3-0.1-0.3-0.2v-2.7c0-0.7-0.4-1.1-1-1.1c-0.7,0-1.1,0.5-1.3,0.9v3c0,0.2-0.1,0.3-0.3,0.3h-1
		c-0.1,0-0.3-0.1-0.3-0.2v-5.2H175.6z"/>
	<path d="M181.9,269.9c-0.1-0.2,0-0.3,0.2-0.3h1.2c0.1,0,0.2,0.1,0.2,0.1l1.1,2.5l0,0l1.1-2.5c0.1-0.1,0.2-0.1,0.3-0.1h1.1
		c0.2,0,0.3,0.1,0.2,0.3l-2.4,5c0,0.1-0.1,0.1-0.2,0.1h-0.1c-0.1,0-0.2-0.1-0.2-0.1L181.9,269.9z"/>
</g>
<g>
	<path d="M248.5,355c0-0.1,0.1-0.3,0.2-0.3h0.5c0.1,0,0.2,0.1,0.2,0.2l0.2,0.5c0.2-0.2,0.9-0.8,1.9-0.8c1.7,0,2.4,1.3,2.4,2.7v2.6
		c0,0.1-0.1,0.3-0.2,0.3h-1.1c-0.1,0-0.3-0.1-0.3-0.2v-2.7c0-0.7-0.4-1.1-1-1.1c-0.7,0-1.1,0.5-1.3,0.9v3c0,0.2-0.1,0.2-0.3,0.3h-1
		c-0.1,0-0.3-0.1-0.3-0.2L248.5,355z"/>
	<path d="M255.5,355c0-0.1,0.1-0.3,0.2-0.3h0.5c0.1,0,0.2,0.1,0.2,0.1l0.2,0.5c0.2-0.3,0.8-0.8,1.8-0.8c0.8,0,1.3,0.3,1.8,0.8
		c0.2-0.2,0.9-0.8,1.9-0.8c1.7,0,2.4,1.3,2.4,2.7v2.6c0,0.1-0.1,0.3-0.2,0.3h-1.1c-0.1,0-0.3-0.1-0.3-0.2v-2.7c0-0.7-0.3-1.1-1-1.1
		c-0.8,0-1.1,0.6-1.1,0.6s0,0.3,0,0.5v2.7c0,0.1-0.1,0.3-0.2,0.3h-1c-0.1,0-0.3-0.1-0.3-0.2v-2.7c0-0.7-0.3-1.1-1-1.1
		s-1,0.5-1.1,0.9v3c0,0.1-0.1,0.3-0.2,0.3h-1.1c-0.1,0-0.3-0.1-0.3-0.2L255.5,355z"/>
</g>
<g>
	<path d="M571.2,125c0-0.2,0.1-0.3,0.2-0.3h0.5c0.1,0,0.2,0.1,0.2,0.2l0.2,0.5c0.2-0.2,0.9-0.8,1.9-0.8c1.7,0,2.4,1.3,2.4,2.7v2.6
		c0,0.1-0.1,0.3-0.2,0.3h-1.1c-0.2,0-0.2-0.1-0.3-0.2v-2.7c0-0.7-0.4-1.1-1-1.1c-0.7,0-1.1,0.5-1.3,0.9v3c0,0.2-0.1,0.2-0.3,0.3h-1
		c-0.1,0-0.2-0.1-0.3-0.2L571.2,125z"/>
	<path d="M577.5,125.1c-0.1-0.2,0-0.3,0.2-0.3h1.2c0.1,0,0.2,0.1,0.2,0.2l1.4,3l0,0l1.3-3.1c0.1-0.1,0.2-0.2,0.3-0.2h1.1
		c0.2,0,0.3,0.2,0.2,0.3l-4.1,8.9c0,0.1-0.1,0.2-0.2,0.2h-1.2c-0.2,0-0.3-0.2-0.2-0.4l1.9-4.1L577.5,125.1z"/>
</g>
<g>
	<path d="M535.3,330.7c0-0.1,0.1-0.3,0.2-0.3h0.5c0.1,0,0.2,0.1,0.2,0.2l0.2,0.5c0.2-0.2,0.9-0.8,1.9-0.8c1.7,0,2.4,1.3,2.4,2.7v2.6
		c0,0.1-0.1,0.3-0.2,0.3h-1.1c-0.2,0-0.2-0.1-0.3-0.2V333c0-0.7-0.4-1.1-1-1.1c-0.7,0-1.1,0.5-1.3,0.9v3c0,0.2-0.1,0.2-0.3,0.3h-1
		c-0.1,0-0.2-0.1-0.3-0.2L535.3,330.7z"/>
	<path d="M544.7,330.2c0.8,0,1.5,0.3,2,0.9c0.1,0.1,0.1,0.3-0.1,0.4l-0.6,0.6c-0.1,0.1-0.2,0-0.3,0c-0.2-0.2-0.5-0.4-0.9-0.4
		c-0.7,0-1.3,0.6-1.3,1.4s0.6,1.4,1.3,1.4c0.6,0,0.8-0.3,1.1-0.5c0.1-0.1,0.2-0.1,0.3,0l0.6,0.5c0.1,0.1,0.2,0.2,0.1,0.4
		c-0.5,0.7-1.2,1.1-2.1,1.1c-1.5,0-2.9-1.2-2.9-2.8C541.9,331.5,543.2,330.3,544.7,330.2z"/>
</g>
<g>
	<path d="M295.6,168.8c0-0.2,0.1-0.3,0.2-0.3h0.5c0.1,0,0.2,0.1,0.2,0.2l0.2,0.5c0.2-0.2,0.9-0.8,1.9-0.8c1.7,0,2.4,1.3,2.4,2.7v2.6
		c0,0.1-0.1,0.3-0.2,0.3h-1.1c-0.1,0-0.3-0.1-0.3-0.2v-2.7c0-0.7-0.4-1.1-1-1.1c-0.7,0-1.1,0.5-1.3,0.9v3c0,0.2-0.1,0.2-0.3,0.3h-1
		c-0.1,0-0.3-0.1-0.3-0.2L295.6,168.8z"/>
	<path d="M304.8,168.3c0.5,0,1,0.2,1.2,0.2v-3.9c0-0.1,0.1-0.3,0.2-0.3h1.1c0.1,0,0.2,0.1,0.3,0.2v8.9c0,0.1-0.1,0.3-0.2,0.3h-0.5
		c-0.1,0-0.2-0.1-0.3-0.2l-0.1-0.4c0,0-0.6,0.8-1.8,0.8c-1.5,0-2.6-1.3-2.6-2.8C302.2,169.6,303.2,168.4,304.8,168.3z M305,172.6
		c0.7,0,1-0.6,1.1-0.9v-1.6c0,0-0.4-0.3-1-0.3c-0.8,0-1.3,0.6-1.3,1.4C303.8,171.9,304.3,172.6,305,172.6z"/>
</g>
<g>
	<path d="M497.2,244.8c1.5,0,2.8,1.3,2.8,2.8c0,1.6-1.2,2.9-2.8,2.9c-1.5,0-2.8-1.3-2.8-2.8C494.4,246.1,495.6,244.8,497.2,244.8z
		 M497.2,249c0.7,0,1.3-0.6,1.3-1.4c0-0.8-0.6-1.4-1.3-1.4s-1.3,0.6-1.3,1.4S496.4,249,497.2,249z"/>
	<path d="M501.1,241.1c0-0.1,0.1-0.3,0.2-0.3h1.2c0.1,0,0.3,0.1,0.3,0.2v4.1c0.3-0.2,0.8-0.4,1.4-0.4c1.7,0,2.4,1.3,2.4,2.7v2.6
		c0,0.1-0.1,0.3-0.2,0.3h-1.1c-0.2,0-0.2-0.1-0.3-0.2v-2.6c0-0.7-0.4-1.2-1.1-1.2c-0.6,0-1,0.4-1.2,1v2.9c0,0.1-0.1,0.2-0.3,0.3
		h-1.1c-0.1,0-0.2-0.1-0.3-0.2L501.1,241.1z"/>
</g>
<g>
	<path d="M308.8,347.8c1.5,0,2.8,1.3,2.8,2.8s-1.2,2.9-2.8,2.9c-1.5,0-2.8-1.3-2.8-2.8C306,349.1,307.3,347.8,308.8,347.8z
		 M308.8,352c0.7,0,1.3-0.6,1.3-1.4s-0.6-1.4-1.3-1.4c-0.7,0-1.3,0.6-1.3,1.4S308.1,352,308.8,352z"/>
	<path d="M312.7,344.1c0-0.1,0.1-0.3,0.2-0.3h1.1c0.1,0,0.3,0.1,0.3,0.2v5.8l1.9-1.9c0.1-0.1,0.2-0.2,0.3-0.2h1.2
		c0.2,0,0.3,0.2,0.2,0.4l-2,2.1l2.4,2.6c0.1,0.1,0.1,0.4-0.2,0.4h-1.5c-0.1,0-0.2,0-0.2-0.1l-2.1-2.4v2.3c0,0.1-0.1,0.3-0.2,0.3H313
		c-0.1,0-0.2-0.1-0.3-0.2L312.7,344.1z"/>
</g>
<g>
	<path d="M536.5,191.6c0,0.2-0.1,0.2-0.3,0.3h-1.1c-0.1,0-0.2-0.1-0.3-0.2v-8.9c0-0.1,0.1-0.3,0.2-0.3h0.5c0.1,0,0.2,0.1,0.2,0.2
		l0.2,0.4c0.2-0.3,0.9-0.8,1.7-0.8c1.5,0,2.6,1.3,2.6,2.8c0,1.6-1.2,2.8-2.7,2.8c-0.5,0-1-0.2-1.2-0.3L536.5,191.6z M537.4,186.5
		c0.8,0,1.3-0.6,1.3-1.4c0-0.8-0.5-1.4-1.3-1.4c-0.7,0-1,0.5-1.1,0.8v1.6C536.4,186.1,536.7,186.5,537.4,186.5z"/>
	<path d="M543.3,184.3c0.5,0,1,0.1,1,0.1c0-0.7-0.2-0.9-0.7-0.9s-1.2,0.1-1.5,0.2c-0.2,0.1-0.3-0.1-0.3-0.2l-0.1-0.7
		c0-0.2,0.1-0.3,0.2-0.3c0.1,0,1-0.3,1.8-0.3c1.7,0,2.1,0.9,2.1,2.3v2.9c0,0.1-0.1,0.3-0.2,0.3h-0.5c-0.1,0-0.2,0-0.2-0.2l-0.2-0.4
		c-0.3,0.3-0.8,0.7-1.6,0.7c-1.1,0-1.8-0.7-1.8-1.8C541.1,185.1,541.9,184.3,543.3,184.3z M543.3,186.7c0.4,0,0.8-0.4,0.9-0.5v-0.7
		c0,0-0.4-0.2-0.8-0.2c-0.5,0-0.9,0.3-0.9,0.7C542.6,186.4,542.9,186.7,543.3,186.7z"/>
</g>
<g>
	<path d="M535.2,380.5l0.4-0.7c0-0.1,0.2-0.2,0.3-0.1c0,0,0.6,0.3,1.2,0.3c0.3,0,0.5-0.1,0.5-0.3c0-0.2-0.2-0.4-0.9-0.7
		c-1-0.4-1.5-1-1.5-1.8s0.6-1.6,2-1.6c0.8,0,1.4,0.2,1.7,0.4c0.1,0.1,0.2,0.2,0.1,0.4l-0.3,0.7c-0.1,0.1-0.2,0.1-0.3,0.1
		c0,0-0.6-0.3-1.1-0.3c-0.3,0-0.5,0.1-0.5,0.3c0,0.2,0.2,0.3,0.7,0.5c1,0.4,1.8,0.8,1.8,1.9c0,0.9-0.8,1.6-2.1,1.6
		c-0.9,0-1.5-0.3-1.8-0.5C535.2,380.8,535.2,380.7,535.2,380.5z"/>
	<path d="M542.9,375.6c0.8,0,1.5,0.3,2,0.9c0.1,0.1,0.1,0.3-0.1,0.4l-0.6,0.6c-0.1,0.1-0.2,0-0.3,0c-0.2-0.2-0.5-0.4-0.9-0.4
		c-0.7,0-1.3,0.6-1.3,1.4s0.6,1.4,1.3,1.4c0.6,0,0.8-0.3,1.1-0.5c0.1-0.1,0.2-0.1,0.3,0l0.6,0.5c0.1,0.1,0.2,0.2,0.1,0.4
		c-0.5,0.7-1.2,1.1-2.1,1.1c-1.5,0-2.9-1.2-2.9-2.8C540,376.9,541.4,375.6,542.9,375.6z"/>
</g>
<g>
	<path d="M305.2,219.7l0.4-0.7c0-0.1,0.2-0.2,0.3-0.1c0,0,0.6,0.3,1.2,0.3c0.3,0,0.5-0.1,0.5-0.3s-0.2-0.4-0.9-0.7
		c-1-0.4-1.5-0.9-1.5-1.8c0-0.8,0.6-1.6,2-1.6c0.8,0,1.4,0.2,1.7,0.4c0.1,0.1,0.2,0.2,0.1,0.4l-0.3,0.7c-0.1,0.1-0.2,0.1-0.3,0.1
		c0,0-0.6-0.3-1.1-0.3c-0.3,0-0.5,0.1-0.5,0.3s0.2,0.3,0.7,0.5c1,0.4,1.8,0.8,1.8,1.9c0,0.9-0.8,1.6-2.1,1.6c-0.9,0-1.5-0.3-1.8-0.5
		C305.2,219.9,305.2,219.8,305.2,219.7z"/>
	<path d="M312.7,214.8c0.5,0,1,0.1,1.2,0.2v-3.9c0-0.1,0.1-0.3,0.2-0.3h1.1c0.1,0,0.2,0.1,0.3,0.2v8.9c0,0.1-0.1,0.3-0.2,0.3h-0.5
		c-0.1,0-0.2-0.1-0.3-0.2l-0.1-0.4c0,0-0.6,0.8-1.8,0.8c-1.5,0-2.6-1.3-2.6-2.8S311,214.8,312.7,214.8z M312.8,219
		c0.7,0,1-0.6,1.1-0.9v-1.6c0,0-0.4-0.3-1-0.3c-0.8,0-1.3,0.6-1.3,1.4C311.6,218.4,312.1,219,312.8,219z"/>
</g>
<g>
	<path d="M420.9,335.1h-0.5c-0.1,0-0.2-0.1-0.2-0.2V334c0-0.1,0.1-0.3,0.2-0.3h0.5v-1.5c0-0.1,0.1-0.3,0.2-0.3h1.1
		c0.1,0,0.2,0.1,0.2,0.2v1.5h1.2c0.1,0,0.2,0.1,0.3,0.2v0.9c0,0.1-0.1,0.3-0.2,0.3h-1.2v2.2c0,0.4,0.2,0.4,0.4,0.4
		c0.2,0,0.5-0.1,0.7-0.1s0.2,0,0.3,0.1l0.3,0.8c0.1,0.1,0,0.3-0.1,0.3s-0.9,0.4-1.6,0.4c-1,0-1.5-0.6-1.5-1.7L420.9,335.1z"/>
	<path d="M425.2,333.9c0-0.1,0.1-0.3,0.2-0.3h0.5c0.1,0,0.2,0.1,0.2,0.2l0.2,0.5c0.2-0.2,0.9-0.8,1.9-0.8c1.7,0,2.4,1.3,2.4,2.7v2.6
		c0,0.1-0.1,0.3-0.2,0.3h-1.1c-0.1,0-0.3-0.1-0.3-0.2v-2.7c0-0.7-0.4-1.1-1-1.1c-0.7,0-1.1,0.5-1.3,0.9v3c0,0.2-0.1,0.3-0.3,0.3h-1
		c-0.1,0-0.3-0.1-0.3-0.2L425.2,333.9z"/>
</g>
<g>
	<path d="M308.5,425.8h-0.6c-0.2,0-0.3-0.2-0.3-0.3v-1.2c0-0.2,0.1-0.3,0.3-0.3h0.6v-1.9c0-0.2,0.1-0.3,0.3-0.3h1.4
		c0.2,0,0.3,0.2,0.3,0.3v1.9h1.5c0.2,0,0.3,0.1,0.3,0.3v1.2c0,0.2-0.1,0.3-0.3,0.3h-1.5v2.8c0,0.5,0.2,0.5,0.5,0.5s0.6-0.1,0.8-0.2
		s0.3,0,0.4,0.2l0.3,1.1c0.1,0.2,0,0.4-0.2,0.4c-0.1,0-1.2,0.5-2,0.5c-1.3,0-1.8-0.8-1.9-2.2L308.5,425.8L308.5,425.8z"/>
	<path d="M313.3,430.4l2.1-3l-2.1-2.9c-0.2-0.2,0-0.5,0.2-0.5h1.4c0.2,0,0.4,0,0.5,0.2l1.1,1.6l0,0l1.1-1.6c0.1-0.2,0.3-0.2,0.5-0.2
		h1.5c0.3,0,0.4,0.3,0.2,0.5l-2.1,2.9l2.1,3c0.1,0.2,0.1,0.5-0.2,0.5h-1.5c-0.2,0-0.4-0.1-0.5-0.3l-1.2-1.7l0,0l-1.3,1.9
		c0,0.1-0.2,0.1-0.3,0.1h-1.6C313.2,430.9,313.1,430.6,313.3,430.4z"/>
</g>
<g>
	<path d="M222.4,275c0-0.1,0.1-0.3,0.2-0.3h1.1c0.1,0,0.3,0.1,0.3,0.2v2.6c0,0.7,0.4,1.2,1,1.1c0.6,0,1-0.5,1.1-1v-2.8
		c0-0.2,0.1-0.3,0.3-0.3h1c0.1,0,0.3,0.1,0.3,0.2v4.9c0,0.1-0.1,0.3-0.2,0.3h-0.6c-0.1,0-0.2-0.1-0.3-0.2l-0.2-0.4
		c-0.2,0.2-0.7,0.8-1.8,0.8c-1.7,0-2.3-1.3-2.3-2.6L222.4,275z"/>
	<path d="M229.6,276.1h-0.5c-0.1,0-0.2-0.1-0.2-0.2V275c0-0.1,0.1-0.3,0.2-0.3h0.5v-1.5c0-0.1,0.1-0.3,0.2-0.3h1.1
		c0.1,0,0.2,0.1,0.2,0.2v1.5h1.2c0.1,0,0.3,0.1,0.3,0.2v0.9c0,0.1-0.1,0.3-0.2,0.3h-1.2v2.2c0,0.4,0.2,0.4,0.4,0.4
		c0.2,0,0.5-0.1,0.7-0.1c0.1-0.1,0.2,0,0.3,0.1l0.3,0.8c0.1,0.1,0,0.3-0.1,0.3s-0.9,0.4-1.6,0.4c-1,0-1.5-0.6-1.5-1.7L229.6,276.1z"
		/>
</g>
<g>
	<path d="M618.3,89c-0.1-0.2,0-0.3,0.2-0.3h1.2c0.1,0,0.2,0.1,0.2,0.2l1.1,2.5l0,0l1.2-2.5c0.1-0.1,0.2-0.2,0.3-0.2h1
		c0.2,0,0.3,0.2,0.2,0.3l-2.4,5.1c0,0.1-0.1,0.1-0.2,0.1H621c-0.1,0-0.2-0.1-0.2-0.1L618.3,89z"/>
	<path d="M624.9,90.1h-0.5c-0.1,0-0.2-0.1-0.2-0.2V89c0-0.2,0.1-0.3,0.2-0.3h0.5v-1.5c0-0.1,0.1-0.3,0.2-0.3h1.1
		c0.1,0,0.2,0.1,0.2,0.2v1.5h1.2c0.2,0,0.2,0.1,0.3,0.2v0.9c0,0.1-0.1,0.3-0.2,0.3h-1.2v2.2c0,0.4,0.2,0.4,0.4,0.4s0.5-0.1,0.7-0.2
		c0.1,0,0.2,0,0.3,0.2l0.3,0.8c0,0.1,0,0.3-0.2,0.3c-0.1,0-0.9,0.3-1.6,0.4c-1,0-1.5-0.6-1.5-1.7V90.1z"/>
</g>
<g>
	<path d="M544.2,281.2c-0.1-0.2,0-0.3,0.2-0.3h1.2c0.1,0,0.2,0.1,0.2,0.1l1.1,2.5l0,0l1.2-2.5c0.1-0.1,0.2-0.1,0.3-0.1h1
		c0.2,0,0.3,0.1,0.2,0.3l-2.4,5.1c0,0.1-0.1,0.1-0.2,0.1h-0.1c-0.1,0-0.2-0.1-0.2-0.1L544.2,281.2z"/>
	<path d="M552.3,282.8c0.5,0,1,0.1,1,0.1c0-0.7-0.2-0.9-0.7-0.9s-1.2,0.1-1.5,0.2c-0.2,0.1-0.3-0.1-0.3-0.2l-0.1-0.7
		c0-0.2,0.1-0.3,0.2-0.3c0.1,0,1-0.3,1.8-0.3c1.7,0,2.1,0.9,2.1,2.3v2.9c0,0.1-0.1,0.3-0.2,0.3h-0.5c-0.1,0-0.2,0-0.2-0.2l-0.2-0.4
		c-0.3,0.3-0.8,0.7-1.6,0.7c-1.1,0-1.8-0.7-1.8-1.8C550.2,283.6,550.9,282.8,552.3,282.8z M552.4,285.2c0.4,0,0.8-0.4,0.9-0.5V284
		c0,0-0.4-0.2-0.8-0.2c-0.5,0-0.9,0.3-0.9,0.7C551.7,284.9,551.9,285.2,552.4,285.2z"/>
</g>
<g>
	<path d="M145.4,155c-0.1-0.2,0-0.3,0.2-0.3h1c0.1,0,0.2,0.1,0.2,0.2l0.8,2.4l0,0l1.4-2.6c0-0.1,0.1-0.1,0.2-0.1h0.1
		c0.1,0,0.2,0.1,0.2,0.1l1.4,2.6l0,0l0.8-2.4c0.1-0.2,0.2-0.2,0.3-0.2h0.9c0.2,0,0.3,0.1,0.2,0.3l-1.7,5.1c0,0.1-0.1,0.2-0.2,0.2
		h-0.1c-0.1,0-0.2-0.1-0.2-0.1l-1.7-3.1l0,0l-1.7,3.2c0,0.1-0.1,0.1-0.2,0.1h-0.1c-0.1,0-0.2-0.1-0.2-0.2L145.4,155z"/>
	<path d="M156,156.6c0.5,0,1,0.2,1,0.2c0-0.7-0.2-0.9-0.7-0.9s-1.2,0.1-1.5,0.2c-0.2,0.1-0.3-0.1-0.3-0.2l-0.1-0.7
		c0-0.2,0.1-0.3,0.2-0.3s1-0.3,1.8-0.3c1.7,0,2.1,0.9,2.1,2.3v2.9c0,0.1-0.1,0.3-0.2,0.3h-0.5c-0.1,0-0.2,0-0.2-0.2l-0.2-0.4
		c-0.3,0.3-0.8,0.7-1.6,0.7c-1.1,0-1.8-0.7-1.8-1.8C153.9,157.4,154.7,156.7,156,156.6z M156.1,159c0.4,0,0.8-0.4,0.9-0.5v-0.7
		c0,0-0.4-0.2-0.8-0.2c-0.5,0-0.9,0.3-0.9,0.7C155.4,158.7,155.7,159,156.1,159z"/>
</g>
<g>
	<path d="M486.2,294.4c-0.1-0.2,0-0.3,0.2-0.3h1c0.1,0,0.2,0.1,0.2,0.2l0.8,2.4l0,0l1.4-2.6c0-0.1,0.1-0.1,0.2-0.1h0.1
		c0.1,0,0.2,0.1,0.2,0.1l1.4,2.6l0,0l0.8-2.4c0-0.1,0.2-0.2,0.3-0.2h0.9c0.2,0,0.3,0.1,0.2,0.3l-1.7,5.1c0,0.1-0.1,0.1-0.2,0.1l0,0
		c-0.1,0-0.2-0.1-0.2-0.1l-1.7-3.1l0,0l-1.7,3.1c0,0.1-0.1,0.1-0.2,0.1h-0.1c-0.1,0-0.2-0.1-0.2-0.1L486.2,294.4z"/>
	<path d="M494.3,294.3c-0.1-0.2,0-0.3,0.2-0.3h1.2c0.1,0,0.2,0.1,0.2,0.1l1.1,2.5l0,0l1.2-2.5c0.1-0.1,0.2-0.1,0.3-0.1h1
		c0.2,0,0.3,0.1,0.2,0.3l-2.4,5.1c0,0.1-0.1,0.1-0.2,0.1H497c-0.1,0-0.2-0.1-0.2-0.1L494.3,294.3z"/>
</g>
<g>
	<path d="M395,200c-0.1-0.2,0-0.3,0.2-0.3h1c0.1,0,0.2,0.1,0.2,0.2l0.9,2.4l0,0l1.3-2.6c0-0.1,0.1-0.1,0.2-0.1h0.1
		c0.1,0,0.2,0.1,0.2,0.1l1.4,2.6l0,0l0.8-2.4c0-0.1,0.2-0.2,0.3-0.2h0.9c0.2,0,0.3,0.1,0.2,0.3l-1.6,5.1c0,0.1-0.1,0.1-0.2,0.2l0,0
		c-0.1,0-0.2-0.1-0.2-0.1l-1.8-3.1l0,0l-1.6,3.2c0,0.1-0.1,0.1-0.2,0.1H397c-0.1,0-0.2-0.1-0.2-0.1L395,200z"/>
	<path d="M403.7,196.7c0-0.5,0.4-0.9,0.9-0.9s1,0.4,1,0.9s-0.4,0.9-0.9,0.9C404.1,197.6,403.7,197.2,403.7,196.7z M403.9,199.8
		c0-0.1,0.1-0.3,0.2-0.3h1.1c0.1,0,0.3,0.1,0.3,0.2l0.1,4.9c0,0.1-0.1,0.3-0.2,0.3h-1.1c-0.1,0-0.3-0.1-0.3-0.2L403.9,199.8z"/>
</g>
<g>
	<path d="M251.6,223.8c-0.1-0.2,0-0.3,0.2-0.3h0.9c0.1,0,0.2,0.1,0.2,0.1l0.7,2.2l0,0l1.2-2.3c0-0.1,0.1-0.1,0.2-0.1h0.1
		c0.1,0,0.2,0.1,0.2,0.1l1.2,2.3l0,0l0.7-2.2c0-0.1,0.1-0.1,0.3-0.1h0.8c0.2,0,0.3,0.1,0.2,0.3l-1.3,4.5c0,0.1-0.1,0.1-0.2,0.1l0,0
		c-0.1,0-0.2-0.1-0.2-0.1l-1.5-2.8l0,0l-1.5,2.8c0,0.1-0.1,0.1-0.2,0.1h-0.1c-0.1,0-0.2-0.1-0.2-0.1L251.6,223.8z"/>
	<path d="M259,223.8c-0.1-0.2,0-0.3,0.2-0.3h1.1c0.1,0,0.2,0.1,0.2,0.1l1.2,2.7l0,0l1.2-2.8c0.1-0.1,0.1-0.1,0.3-0.1h1
		c0.2,0,0.3,0.1,0.2,0.3l-3.7,8.1c0,0.1-0.1,0.1-0.2,0.1h-1c-0.2,0-0.3-0.2-0.2-0.3l1.7-3.7L259,223.8z"/>
</g>
<g>
	<path d="M643.6,97.4c0-0.2,0.1-0.3,0.2-0.3h0.5c0.1,0,0.2,0.1,0.2,0.2l0.2,0.5c0.2-0.2,0.9-0.8,1.9-0.8c1.7,0,2.4,1.3,2.4,2.7v2.6
		c0,0.1-0.1,0.3-0.2,0.3h-1.1c-0.2,0-0.2-0.1-0.3-0.2v-2.7c0-0.7-0.4-1.1-1-1.1c-0.7,0-1.1,0.5-1.3,0.9v3c0,0.2-0.1,0.3-0.3,0.3h-1
		c-0.1,0-0.2-0.1-0.3-0.2L643.6,97.4z"/>
	<path d="M650.5,93.4c0-0.1,0.1-0.3,0.2-0.3h1.2c0.1,0,0.3,0.1,0.3,0.2v4.1c0.3-0.2,0.8-0.5,1.4-0.5c1.7,0,2.4,1.3,2.4,2.7v2.6
		c0,0.1-0.1,0.3-0.2,0.3h-1.1c-0.2,0-0.2-0.1-0.3-0.2v-2.6c0-0.7-0.4-1.2-1.1-1.2c-0.6,0-1,0.4-1.2,1v2.9c0,0.2-0.1,0.3-0.3,0.3
		h-1.1c-0.1,0-0.2-0.1-0.3-0.2L650.5,93.4z"/>
</g>
<g>
	<path d="M623.8,136.7c0-0.2,0.1-0.3,0.2-0.3h0.5c0.1,0,0.2,0.1,0.2,0.2l0.2,0.5c0.2-0.3,0.8-0.8,1.8-0.8c0.8,0,1.3,0.3,1.8,0.8
		c0.2-0.2,0.9-0.8,1.9-0.8c1.7,0,2.4,1.3,2.4,2.7v2.6c0,0.1-0.1,0.3-0.2,0.3h-1.1c-0.2,0-0.2-0.1-0.3-0.2V139c0-0.7-0.3-1.1-1-1.1
		c-0.8,0-1.1,0.6-1.1,0.6s0,0.3,0,0.5v2.7c0,0.1-0.1,0.3-0.2,0.3h-1c-0.2,0-0.2-0.1-0.3-0.2v-2.7c0-0.7-0.3-1.2-1-1.1
		c-0.7,0-1,0.5-1.1,0.9v3c0,0.1-0.1,0.3-0.2,0.3h-1.1c-0.1,0-0.2-0.1-0.3-0.2L623.8,136.7z"/>
	<path d="M636.1,138.3c0.5,0,1,0.2,1,0.2c0-0.7-0.2-0.9-0.7-0.9s-1.2,0.1-1.5,0.2c-0.2,0.1-0.3-0.1-0.3-0.2l-0.1-0.7
		c0-0.2,0.1-0.3,0.2-0.3c0.1,0,1-0.3,1.8-0.3c1.7,0,2.1,0.9,2.1,2.3v2.9c0,0.1-0.1,0.3-0.2,0.3h-0.5c-0.1,0-0.2,0-0.2-0.2l-0.2-0.4
		c-0.3,0.3-0.8,0.7-1.6,0.7c-1.1,0-1.8-0.7-1.8-1.8C633.9,139.1,634.7,138.3,636.1,138.3z M636.1,140.7c0.4,0,0.8-0.4,0.9-0.5v-0.7
		c0,0-0.4-0.2-0.8-0.2c-0.5,0-0.9,0.3-0.9,0.7C635.4,140.4,635.7,140.7,636.1,140.7z"/>
</g>
<g>
	<path d="M653.3,177.3c0.8,0,1.5,0.3,2,0.9c0.1,0.1,0.1,0.3-0.1,0.4l-0.6,0.6c-0.1,0.1-0.2,0-0.3,0c-0.2-0.2-0.5-0.4-0.9-0.4
		c-0.7,0-1.3,0.6-1.3,1.4s0.6,1.4,1.3,1.4c0.6,0,0.8-0.3,1.1-0.5c0.1-0.1,0.2-0.1,0.3,0l0.6,0.5c0.1,0.1,0.2,0.2,0.1,0.4
		c-0.5,0.7-1.2,1.1-2.1,1.1c-1.5,0-2.9-1.2-2.9-2.8C650.4,178.6,651.8,177.3,653.3,177.3z"/>
	<path d="M656.9,178.9h-0.5c-0.1,0-0.2-0.1-0.2-0.2v-0.9c0-0.2,0.1-0.3,0.2-0.3h0.5V176c0-0.1,0.1-0.3,0.2-0.3h1.1
		c0.1,0,0.2,0.1,0.2,0.2v1.5h1.2c0.2,0,0.2,0.1,0.3,0.2v0.9c0,0.1-0.1,0.3-0.2,0.3h-1.2v2.2c0,0.4,0.2,0.4,0.4,0.4s0.5-0.1,0.7-0.1
		c0.2-0.1,0.2,0,0.3,0.1l0.3,0.8c0.1,0.1,0,0.3-0.2,0.3c-0.1,0-0.9,0.4-1.6,0.4c-1,0-1.5-0.6-1.5-1.7V178.9z"/>
</g>
<g>
	<path d="M604.9,193c0-0.1,0.1-0.3,0.2-0.3h0.5c0.1,0,0.2,0.1,0.2,0.2l0.2,0.5c0.2-0.2,0.9-0.8,1.9-0.8c1.7,0,2.4,1.3,2.4,2.7v2.6
		c0,0.1-0.1,0.3-0.2,0.3H609c-0.2,0-0.3-0.1-0.3-0.2v-2.7c0-0.7-0.4-1.1-1-1.1c-0.7,0-1.1,0.5-1.3,0.9v3c0,0.2-0.1,0.2-0.3,0.3h-1
		c-0.1,0-0.3-0.1-0.3-0.2L604.9,193z"/>
	<path d="M611.9,193c0-0.1,0.1-0.3,0.2-0.3h1.1c0.1,0,0.3,0.1,0.3,0.2v6.6c0,1.8-1.1,2.7-2.5,2.7c-0.7,0-1.4-0.3-1.6-0.5
		c-0.1-0.1-0.1-0.2-0.1-0.3l0.4-0.9c0-0.1,0.2-0.1,0.3-0.1c0.2,0.1,0.5,0.3,0.8,0.3c0.6,0,0.9-0.4,0.9-1.2L611.9,193z M611.8,189.9
		c0-0.5,0.4-0.9,0.9-0.9s0.9,0.4,1,0.9s-0.4,0.9-0.9,0.9C612.2,190.8,611.8,190.4,611.8,189.9z"/>
</g>
<g>
	<path d="M136.5,211c1.5,0,2.8,1.3,2.8,2.8c0,1.6-1.2,2.9-2.8,2.9c-1.5,0-2.8-1.3-2.8-2.8C133.7,212.3,134.9,211,136.5,211z
		 M136.5,215.2c0.7,0,1.3-0.6,1.3-1.4c0-0.8-0.6-1.4-1.3-1.4c-0.7,0-1.3,0.6-1.3,1.4S135.8,215.2,136.5,215.2z"/>
	<path d="M140.4,211.3c0-0.1,0.1-0.3,0.2-0.3h0.5c0.1,0,0.2,0.1,0.2,0.2l0.2,0.5c0.2-0.3,0.7-0.8,1.5-0.8c0.6,0,1.2,0.2,1,0.5
		l-0.5,0.9c-0.1,0.1-0.2,0.2-0.3,0.1c0,0-0.2-0.1-0.4-0.1c-0.5,0-0.9,0.4-0.9,0.6v3.3c0,0.2-0.1,0.3-0.3,0.3h-1
		c-0.1,0-0.3-0.1-0.3-0.2L140.4,211.3z"/>
</g>
<g>
	<path d="M685.5,142.3c0-0.2,0.1-0.3,0.3-0.3h0.5c0.1,0,0.2,0.1,0.3,0.2l0.2,0.6c0.2-0.3,0.8-0.9,1.7-0.9c0.7,0,1.3,0.2,1.1,0.6
		l-0.5,0.9c-0.1,0.1-0.2,0.2-0.3,0.1c0,0-0.3-0.1-0.4-0.1c-0.6,0-0.9,0.4-1,0.6v3.6c0,0.2-0.1,0.3-0.3,0.3H686
		c-0.2,0-0.3-0.1-0.3-0.3L685.5,142.3L685.5,142.3z"/>
	<path d="M690.4,138.9c0-0.6,0.4-1,1-1s1,0.5,1,1c0,0.6-0.5,1-1,1C690.8,139.9,690.4,139.5,690.4,138.9z M690.5,142.3
		c0-0.2,0.1-0.3,0.3-0.3h1.2c0.2,0,0.3,0.1,0.3,0.3v5.3c0,0.2-0.1,0.3-0.3,0.3h-1.2c-0.1,0-0.3-0.1-0.3-0.3V142.3z"/>
</g>
<g>
	<path d="M125.1,422.6c0-0.1,0.1-0.3,0.2-0.3h1.1c0.1,0,0.3,0.1,0.3,0.2v4.1c0.3-0.2,0.8-0.5,1.4-0.5c1.7,0,2.4,1.3,2.4,2.7v2.6
		c0,0.1-0.1,0.3-0.2,0.3h-1.1c-0.1,0-0.3-0.1-0.3-0.2v-2.6c0-0.7-0.4-1.2-1.1-1.2c-0.6,0-1,0.4-1.2,1v2.9c0,0.1-0.1,0.3-0.3,0.3
		h-1.1c-0.1,0-0.3-0.1-0.3-0.2L125.1,422.6z"/>
	<path d="M132,423.5c0-0.5,0.4-0.9,0.9-0.9s0.9,0.4,0.9,0.9s-0.4,0.9-0.9,0.9S132,424,132,423.5z M132.2,426.6
		c0-0.1,0.1-0.3,0.2-0.3h1.1c0.1,0,0.3,0.1,0.3,0.2v4.9c0,0.1-0.1,0.3-0.2,0.3h-1.1c-0.1,0-0.2-0.1-0.3-0.2V426.6z"/>
</g>
<g>
	<path d="M540.2,239c0-0.1,0.1-0.2,0.2-0.2h0.5c0.1,0,0.2,0.1,0.2,0.1l0.2,0.5c0.2-0.2,0.8-0.7,1.7-0.7c0.7,0,1.2,0.3,1.6,0.8
		c0.2-0.2,0.9-0.8,1.8-0.8c1.6,0,2.2,1.2,2.2,2.5v2.4c0,0.1-0.1,0.2-0.2,0.2h-1c-0.1,0-0.2-0.1-0.2-0.2v-2.4c0-0.6-0.3-1.1-0.9-1.1
		c-0.7,0-1,0.5-1,0.5s0,0.2,0,0.5v2.5c0,0.1-0.1,0.2-0.2,0.2h-1.2c-0.1,0-0.2-0.1-0.2-0.2v-2.4c0-0.6-0.3-1.1-0.9-1.1
		c-0.6,0-0.9,0.4-1,0.8v2.7c0,0.1-0.1,0.2-0.2,0.2h-1c-0.1,0-0.2-0.1-0.2-0.2L540.2,239L540.2,239z"/>
	<path d="M552,238.6c0.5,0,0.9,0.1,1.1,0.2v-3.6c0-0.1,0.1-0.2,0.2-0.2h1c0.1,0,0.2,0.1,0.2,0.2v8.2c0,0.1-0.1,0.2-0.2,0.2h-0.4
		c-0.1,0-0.2-0.1-0.2-0.2l-0.1-0.4c0,0-0.6,0.7-1.6,0.7c-1.3,0-2.4-1.2-2.4-2.6C549.5,239.8,550.5,238.6,552,238.6z M552.1,242.5
		c0.7,0,1-0.5,1-0.8v-1.4c0,0-0.3-0.3-1-0.3s-1.2,0.6-1.2,1.3C550.9,241.9,551.4,242.5,552.1,242.5z"/>
</g>
<g>
	<path d="M595.8,236.5c0.5,0,0.9,0.1,1.1,0.2v-3.6c0-0.1,0.1-0.2,0.2-0.2h1.1c0.1,0,0.2,0.1,0.2,0.2v8.2c0,0.1-0.1,0.2-0.2,0.2h-0.5
		c-0.1,0-0.2-0.1-0.2-0.2l-0.1-0.4c0,0-0.6,0.8-1.6,0.8c-1.4,0-2.4-1.2-2.4-2.6C593.4,237.7,594.4,236.5,595.8,236.5z M595.9,240.4
		c0.7,0,1-0.5,1-0.8v-1.4c0,0-0.3-0.3-1-0.3s-1.2,0.6-1.2,1.3C594.8,239.8,595.3,240.4,595.9,240.4z"/>
	<path d="M602.1,236.5c1.3,0,2.3,1,2.3,2.3c0,0.1,0,0.2,0,0.3s-0.1,0.2-0.2,0.2H601c0,0.5,0.5,1.1,1.2,1.1c0.4,0,0.8-0.1,1-0.3
		c0.1-0.1,0.2-0.1,0.3,0l0.5,0.6c0.1,0.1,0.1,0.2,0,0.3c-0.4,0.4-1,0.7-1.9,0.7c-1.5,0-2.6-1.2-2.6-2.6
		C599.6,237.7,600.7,236.5,602.1,236.5z M603,238.5c0-0.5-0.4-0.9-0.9-0.9s-0.9,0.4-1,0.9H603z"/>
</g>
<g>
	<path d="M574.7,247.3c0.5,0,0.9,0.1,1.1,0.2v-3.7c0-0.1,0.1-0.2,0.2-0.2h1.1c0.1,0,0.2,0.1,0.2,0.2v8.4c0,0.1-0.1,0.2-0.2,0.2h-0.5
		c-0.1,0-0.2-0.1-0.2-0.2l-0.1-0.4c0,0-0.6,0.8-1.7,0.8c-1.4,0-2.5-1.2-2.5-2.7C572.2,248.5,573.2,247.3,574.7,247.3z M574.8,251.3
		c0.7,0,1-0.5,1.1-0.8V249c0,0-0.4-0.3-1-0.3c-0.7,0-1.2,0.6-1.2,1.3C573.6,250.7,574.1,251.3,574.8,251.3z"/>
	<path d="M581.2,247.3c0.8,0,1.4,0.3,1.9,0.9c0.1,0.1,0.1,0.3-0.1,0.4l-0.6,0.6c-0.1,0.1-0.2,0-0.3,0c-0.2-0.2-0.5-0.4-0.9-0.4
		c-0.7,0-1.2,0.6-1.2,1.3s0.5,1.3,1.2,1.3c0.5,0,0.8-0.3,1-0.5c0.1-0.1,0.2-0.1,0.3,0l0.5,0.5c0.1,0.1,0.2,0.2,0.1,0.4
		c-0.4,0.7-1.1,1.1-2,1.1c-1.4,0-2.7-1.1-2.7-2.7C578.5,248.5,579.8,247.3,581.2,247.3z"/>
</g>
<circle fill="#00FF90" stroke="#000000" stroke-miterlimit="10" cx="285.26" cy="251.2" r="5.47"/>
<circle fill="#00FF90" stroke="#000000" stroke-miterlimit="10" cx="300.52" cy="235.67" r="5.47"/>
<circle fill="#00FF90" stroke="#000000" stroke-miterlimit="10" cx="316.52" cy="250.67" r="5.47"/>
<circle fill="#00FF90" stroke="#000000" stroke-miterlimit="10" cx="649.6" cy="70.4" r="5.47"/>
<circle fill="#00FF90" stroke="#000000" stroke-miterlimit="10" cx="681.85" cy="69.87" r="5.47"/>
<g>
</g>
<g>
</g>
<g>
</g>
<g>
</g>
<g>
</g>
<g>
</g>
<g>
</g>
<g>
</g>
<g>
</g>
<g>
</g>
<g>
</g>
</svg>
