<?xml version="1.0" encoding="utf-8"?>
<!-- Generator: Adobe Illustrator 24.0.1, SVG Export Plug-In . SVG Version: 6.00 Build 0)  -->
<svg version="1.1" id="Layer_1" xmlns="http://www.w3.org/2000/svg" xmlns:xlink="http://www.w3.org/1999/xlink" x="0px" y="0px"
	 viewBox="0 0 776.5 551.3" style="enable-background:new 0 0 776.5 551.3;" xml:space="preserve">
<style type="text/css">
	.st0{font-family:'BrandonGrotesque-Bold';}
	.st1{font-size:75.5262px;}
	.st2{clip-path:url(#SVGID_2_);}
	.st3{clip-path:url(#SVGID_4_);fill:none;stroke:#000000;stroke-width:10;stroke-miterlimit:10;}
	.st4{clip-path:url(#SVGID_2_);fill:none;stroke:#000000;stroke-width:10;stroke-miterlimit:10;}
	.st5{clip-path:url(#SVGID_6_);fill:none;stroke:#000000;stroke-width:10;stroke-miterlimit:10;}
	.st6{clip-path:url(#SVGID_6_);}
	.st7{fill:#FF5E59;}
	.st8{font-family:'BrandonGrotesque-Medium';}
	.st9{font-size:57.231px;}
	.st10{fill:#0077FF;}
</style>
<text transform="matrix(1 0 0 1 25.1867 80.8477)"><tspan x="0" y="0" class="st0 st1">2020 Senate</tspan><tspan x="0" y="90.6" class="st0 st1">Forecast</tspan></text>
<g id="Artwork_1_1_">
	<g>
		<defs>
			<rect id="SVGID_1_" x="227.7" y="123.5" width="321" height="384"/>
		</defs>
		<clipPath id="SVGID_2_">
			<use xlink:href="#SVGID_1_"  style="overflow:visible;"/>
		</clipPath>
		<g class="st2">
			<defs>
				<rect id="SVGID_3_" x="227.7" y="123.5" width="321" height="384"/>
			</defs>
			<clipPath id="SVGID_4_">
				<use xlink:href="#SVGID_3_"  style="overflow:visible;"/>
			</clipPath>
			<line class="st3" x1="237.7" y1="424.5" x2="237.7" y2="507.5"/>
			<line class="st3" x1="539.2" y1="424.5" x2="539.2" y2="507.5"/>
			<line class="st3" x1="261.2" y1="445.5" x2="261.2" y2="507.5"/>
			<line class="st3" x1="282.2" y1="445.5" x2="282.2" y2="507.5"/>
			<line class="st3" x1="304.2" y1="445.5" x2="304.2" y2="507.5"/>
			<line class="st3" x1="325.2" y1="445.5" x2="325.2" y2="507.5"/>
			<line class="st3" x1="346.2" y1="445.5" x2="346.2" y2="507.5"/>
			<line class="st3" x1="367.2" y1="445.5" x2="367.2" y2="507.5"/>
			<line class="st3" x1="388.7" y1="445.5" x2="388.7" y2="507.5"/>
			<line class="st3" x1="410.7" y1="445.5" x2="410.7" y2="507.5"/>
			<line class="st3" x1="430.7" y1="445.5" x2="430.7" y2="507.5"/>
			<line class="st3" x1="452.7" y1="445.5" x2="452.7" y2="507.5"/>
			<line class="st3" x1="473.2" y1="445.5" x2="473.2" y2="507.5"/>
			<line class="st3" x1="494.2" y1="445.5" x2="494.2" y2="507.5"/>
			<line class="st3" x1="516.2" y1="445.5" x2="516.2" y2="507.5"/>
			<line class="st3" x1="227.7" y1="422.5" x2="548.7" y2="422.5"/>
		</g>
		<line class="st4" x1="251.7" y1="377.5" x2="525.7" y2="377.5"/>
		<line class="st4" x1="262.7" y1="351.5" x2="514.7" y2="351.5"/>
		<line class="st4" x1="262.7" y1="377.5" x2="262.7" y2="422.5"/>
		<line class="st4" x1="515.7" y1="376.5" x2="515.7" y2="421.5"/>
		<line class="st4" x1="276.1" y1="351.5" x2="276.1" y2="377.5"/>
		<line class="st4" x1="501.7" y1="350.5" x2="501.7" y2="376.5"/>
		<line class="st4" x1="357.7" y1="188.5" x2="419.7" y2="188.5"/>
		<line class="st4" x1="368.7" y1="231.5" x2="368.7" y2="188.5"/>
		<line class="st4" x1="388.7" y1="231.5" x2="388.7" y2="188.5"/>
		<line class="st4" x1="408.7" y1="231.5" x2="408.7" y2="188.5"/>
		<line class="st4" x1="344.7" y1="232.5" x2="432.7" y2="232.5"/>
		<line class="st4" x1="349.7" y1="258.5" x2="349.7" y2="231.5"/>
		<line class="st4" x1="427.7" y1="258.5" x2="427.7" y2="231.5"/>
		<g class="st2">
			<defs>
				<rect id="SVGID_5_" x="227.7" y="123.5" width="321" height="384"/>
			</defs>
			<clipPath id="SVGID_6_">
				<use xlink:href="#SVGID_5_"  style="overflow:visible;"/>
			</clipPath>
			<path class="st5" d="M288.7,350.5c0-56.6,43.4-100,100-100s100,43.4,100,100"/>
			<path class="st5" d="M309.7,352.5c0-55.8,35.1-101,78.5-101s78.5,45.2,78.5,101"/>
			<path class="st5" d="M334.7,354.5c0-55.8,24.2-101,54-101s54,45.2,54,101"/>
			<path class="st5" d="M359.7,351.5c0-55.8,13-95,29-95c16,0,29,39.2,29,95"/>
			<line class="st5" x1="388.7" y1="351.5" x2="388.7" y2="251.5"/>
			<path class="st5" d="M406.7,186.5c0-9.9-8.1-18-18-18c-9.9,0-18,8.1-18,18"/>
			<path class="st6" d="M396.3,169c0-3.1-3.5-4.7-3.5-4.7s-0.5-0.3-0.6-0.3c-0.2-0.2,1.9-7.5,2.5-11.3c0.3-1.6,0.9-1.1,1.6-1.1
				c0.6,0,0.6-0.9,0.3-3.5c0,0,0.3-0.9,0.2-1.3c0-0.5-0.7-0.9-0.9-0.9c0,0,0.6-1.3,0.6-1.9c0-2.1-1.6-3.4-2.2-6.2
				c-0.3-1.2-1.8-6.6-4.3-5.4c0,0-0.6-0.8-0.2-1.4c0,0,0.7-0.7,0.6-2c-0.1-1.3-1.8-2.3-1.8-2.3v-1.3c0,0,1.3-0.3,0.9-0.5
				c-0.3-0.2-0.4-0.4-0.4-0.4s1.1-0.4,0.8-0.6c-0.3-0.2-0.9-0.2-0.9-0.2s-0.8-0.7-1,0c0,0-1-0.4-1.3-0.3c-0.4,0-0.1,0.6-0.1,0.6
				s-1-0.4-1.1-0.2c0,0.2,1.1,1.3,1.1,1.3s-2.2,0.1-2.2,1.2c0,0,0.3,0.3,1.1-0.3c0,0-2.2,2.7-1.9,2.9c0.3,0.2,0.7,0,0.7,0
				s-1.1,1.6-0.6,2c0,0-0.7,2.5-0.3,2.7c0.3,0.2,0.7-0.3,0.9-0.6c0.7-0.7,1.1-0.2-0.2,1c-0.4,0.3-1.4,1.3-1.7,3.4
				c-0.3,2.1-0.5,2-0.8,2.4c-0.3,0.4-2.3,2.3-1.9,6.2c0.1,0.7,0.7,0.8,1.2,0.7l0.6,3l0.3,2.7c0,0-1.4,2.8-1.2,3c0.2,0.2,1,0.3,1,0.3
				s-0.3,2.1,0,2.1c0.2,0,1.1,0.3,1.1,0c0-0.2-0.1-3-0.1-3l2.3,9.3l-0.4,0.2c0,0-3.6,1.4-3.6,4.6c0,0,2,0,7.2,0
				C393.7,169,396.3,169,396.3,169"/>
			<line class="st6" x1="284.7" y1="420.5" x2="284.7" y2="395.5"/>
			<line class="st5" x1="284.7" y1="420.5" x2="284.7" y2="395.5"/>
			<line class="st6" x1="307.7" y1="420.5" x2="307.7" y2="395.5"/>
			<line class="st5" x1="307.7" y1="420.5" x2="307.7" y2="395.5"/>
			<line class="st6" x1="330.7" y1="420.5" x2="330.7" y2="395.5"/>
			<line class="st5" x1="330.7" y1="420.5" x2="330.7" y2="395.5"/>
			<line class="st6" x1="353.7" y1="420.5" x2="353.7" y2="395.5"/>
			<line class="st5" x1="353.7" y1="420.5" x2="353.7" y2="395.5"/>
			<line class="st6" x1="376.7" y1="420.5" x2="376.7" y2="395.5"/>
			<line class="st5" x1="376.7" y1="420.5" x2="376.7" y2="395.5"/>
			<line class="st6" x1="399.7" y1="420.5" x2="399.7" y2="395.5"/>
			<line class="st5" x1="399.7" y1="420.5" x2="399.7" y2="395.5"/>
			<line class="st6" x1="422.7" y1="420.5" x2="422.7" y2="395.5"/>
			<line class="st5" x1="422.7" y1="420.5" x2="422.7" y2="395.5"/>
			<line class="st6" x1="445.7" y1="420.5" x2="445.7" y2="395.5"/>
			<line class="st5" x1="445.7" y1="420.5" x2="445.7" y2="395.5"/>
			<line class="st6" x1="469.7" y1="420.5" x2="469.7" y2="395.5"/>
			<line class="st5" x1="469.7" y1="420.5" x2="469.7" y2="395.5"/>
			<line class="st6" x1="492.7" y1="420.5" x2="492.7" y2="395.5"/>
			<line class="st5" x1="492.7" y1="420.5" x2="492.7" y2="395.5"/>
		</g>
	</g>
</g>
<text transform="matrix(1 0 0 1 600.4027 333.8052)" class="st7 st8 st9">GOP</text>
<text transform="matrix(1 0 0 1 41.9196 333.8051)" class="st10 st8 st9">DEM</text>
</svg>
