<?xml version="1.0" encoding="utf-8"?>
<!-- Generator: Adobe Illustrator 24.1.0, SVG Export Plug-In . SVG Version: 6.00 Build 0)  -->
<svg version="1.1" id="Layer_1" xmlns="http://www.w3.org/2000/svg" xmlns:xlink="http://www.w3.org/1999/xlink" x="0px" y="0px"
	 viewBox="0 0 137.41 294.67" style="enable-background:new 0 0 137.41 294.67;" xml:space="preserve">
<style type="text/css">
	.st0{fill:#F6F6F6;}
	.st1{fill:#EF4852;}
	.st2{fill:#E69A24;}
	.st3{fill:#EF4851;}
	.st4{fill:#E2E2E2;}
	.st5{fill:#F4F6F6;}
	.st6{fill:#EA484F;}
	.st7{fill:#E94655;}
	.st8{fill:#EA494F;}
	.st9{fill:#E84558;}
	.st10{fill:#EC484C;}
	.st11{fill:#E84755;}
	.st12{fill:#EF4657;}
	.st13{fill:#FEF4F2;}
	.st14{fill:#E3DDE8;}
	.st15{fill:#D64851;}
	.st16{fill:#E54A50;}
	.st17{fill:#F04A4B;}
	.st18{fill:#F04B4C;}
	.st19{fill:#EE4A4A;}
	.st20{fill:#FCAF18;}
	.st21{fill:#EF4B4A;}
	.st22{fill:#F0494B;}
	.st23{fill:#EF4B46;}
	.st24{fill:#EF4758;}
	.st25{fill:#E5DEE5;}
	.st26{fill:#E6DEE4;}
	.st27{fill:#E1E4DC;}
	.st28{fill:#DDE6DA;}
	.st29{fill:#AECCE3;}
</style>
<g id="sdSbUT_1_">
	<g>
		<path class="st0" d="M20.7,144.23c-1.01-14.43-1.91-28.87-1.04-43.32c1.15-19.15,4.3-37.88,12.43-55.48
			c1.15-0.34,2.29-0.68,2.85,0.89c-0.35,3.49,2.14,3.01,4.26,3.01c14.24-0.01,28.49-0.05,42.73,0.02
			c7.27,0.04,14.57-0.57,21.77,0.89c1.04,0.01,1.96-0.51,2.96-0.72c5.7,12.51,8.27,25.84,9.79,39.35
			c2.44,21.75,1.69,43.47-1.73,65.09c-0.23,1.47-0.17,2.98-0.25,4.47c-0.84,1.35,0.05,2.6,0.22,3.89
			c-2.12,13.97-5.34,27.7-9.2,41.28c-0.36,1.28-0.82,2.55-2.11,3.25c-0.83-0.01-1.66-0.02-2.49-0.03c-2.59,1.28-5.34,1.57-8.2,1.56
			c-16.07-0.03-32.14-0.03-48.21,0c-2.86,0.01-5.61-0.28-8.2-1.56c-0.86-0.07-1.73-0.14-2.59-0.21c-1.54-1.2-2-2.96-2.53-4.71
			c-3.98-13.15-6.56-26.62-8.97-40.12C20.57,156.02,21.7,150.04,20.7,144.23z"/>
		<path class="st1" d="M34.57,45.87c-0.83-0.15-1.65-0.3-2.47-0.44c1.38-3.82,2.95-7.55,5.36-10.85c2.03,0.89,1.79,2.39,0.98,4.03
			c0.81-1.64,1.14-3.14-0.99-3.99c1.1-2.19,2.2-4.39,3.3-6.58c0.44-1.76,0.95-3.48,2.85-4.27c1.72-1.99,3.45-3.99,5.17-5.98
			c4.17-1.18,7.26-3.37,7.61-8.13c3.14-3.77,7.24-6.38,11.12-9.25c1.09-0.63,2.09-0.55,2.99,0.36c4.91,4.06,10.46,7.43,13.97,13
			c-0.47,2.57,3.15,3.3,2.67,5.89c-0.45,2,0.06,3.86,0.84,5.67c0.85,2.17,3.56,1.27,4.74,2.85c1.04,0.21,1.83-1.08,2.92-0.5
			l-0.01-0.01c0.57,2.93,3.02,4.42,4.87,6.37c2.7,3.17,4.09,6.93,4.95,10.93c-0.14,0.13-0.25,0.29-0.34,0.47
			c-1.53,2.12-3.86,1.73-5.95,1.74c-19.81,0.09-39.63,0.05-59.44,0.04C37.89,47.21,36.02,47.33,34.57,45.87z"/>
		<path class="st2" d="M51.67,274.1c-4.76-8.34-7.06-17.6-10.05-26.6c-0.24-9.81,1-19.42,3.98-28.78c2.62-2.21,5.49-1.64,8.39-0.76
			c2.21,2,0.97,4.4,0.51,6.52c-3.97,18.17-0.12,34.66,10.37,49.82c3.22,4.66,3.96,4.71,7.3,0.01c10.36-14.58,14.46-30.5,10.65-48.24
			c-0.56-2.6-1.94-5.46,0.31-8.06c2.92-0.97,5.79-1.49,8.44,0.72c3.03,8.98,3.9,18.28,4.14,27.67c-2.75,8.76-4.93,17.72-9.22,25.94
			c-4.62,6.84-8.97,13.84-14.52,20.04c-2.61,2.91-4.1,3.2-6.75,0.07C60.25,286.61,55.99,280.34,51.67,274.1z"/>
		<path class="st1" d="M23.37,161.59c2.87,15.13,6.42,30.11,10.3,45.01c-0.7,0.36-1.4,0.71-2.1,1.07c-2.44-0.36-4.41-2.56-7.19-1.75
			c-1.07,0.31-2.33,0.01-3.04,1.18c-0.53,1.69,1.73,2.61,1.19,4.29c-6.29,2.45-12.65,4.76-18.86,7.4c-4.23,1.79-4.1-0.08-3.08-3.13
			c2.04-2.25,0.26-4.62,0.21-6.94c0.69-9.84,1.53-19.67,1.98-29.51c0.17-3.69,2.54-5.4,4.88-7.39c1.03-2.73,3.43-3.49,5.93-4.11
			c1.09-0.53,2.39-0.71,3.05-1.92C18.26,163.39,19.82,160.89,23.37,161.59z"/>
		<path class="st3" d="M103.38,206.84c3.98-14.98,7.52-30.06,10.41-45.29c4.91,0.91,8.34,4.12,11.68,7.49
			c7.99,3.77,9.68,10.44,9.36,18.62c-0.21,5.34,0.98,10.73,1.54,16.1c1.27,1.54,0.67,3.22,0.34,4.87c-0.1,0.36-0.21,0.72-0.31,1.07
			c-0.69,1.01,0,2.35-0.79,3.33c-1.71,1.28-3.93,1.53-5.65,2.8c-1.17,0.38-2.34,0.58-3.48-0.12
			C118.63,213.13,110.87,210.35,103.38,206.84z"/>
		<path class="st4" d="M54.56,218.71c-2.99,0-5.97,0-8.96,0c0,0-0.06-0.29-0.06-0.29c-0.11-0.33-0.11-0.65,0.01-0.96
			c-0.7-0.13-0.53,0.69-0.95,0.87c-4.33,1.2-6.36-0.33-6.64-4.93c-0.13-2.19,0.01-4.7-1.69-6.59c21.54,0,43.08,0,64.61,0
			c-1.11,1.36-1.37,2.98-1.39,4.65c-0.08,5.25-2.11,8.32-7.95,7.26c-2.98-0.01-5.97-0.01-8.95-0.02c-0.94,1.1-2.25,1.41-3.58,1.47
			c-6.96,0.27-13.91,0.27-20.87,0C56.81,220.12,55.5,219.81,54.56,218.71z"/>
		<path class="st5" d="M34.57,45.87c21.7-0.06,43.4-0.11,65.11-0.19c1.81-0.01,3.63-0.16,5.44-0.25c0.44,1.11,0.88,2.22,1.32,3.33
			c-1.1,2.16-2.71,1.48-4.23,0.83c0.44,1.66,3.58-0.75,3.38,2.13c-23.32-2.02-46.68-0.71-70.02-0.79c-1,0-2,0.43-2.58-0.71
			C31.96,48.24,33.92,47.28,34.57,45.87z"/>
		<path class="st6" d="M56.37,9.66c3.58,1.48-0.08,3.15-0.05,4.71c0.05,2.97-4.74,1.9-5.13,5.02c-0.81-0.54-1.62-1.07-2.42-1.61
			c0-0.31,0.02-0.62,0.06-0.92c0.08-0.48,0.34-0.82,0.8-1C51.87,13.79,54.12,11.72,56.37,9.66z"/>
		<path class="st7" d="M87.57,25.74c-1.83-1.75-3.13-3.59-1-6c0.92,0.41,1.38,1.13,1.6,1.84c0.23-1.03-2-2.62,0.34-3.68
			c1.44,1.61,2.88,3.22,4.32,4.84c0.3,0.47,0.5,0.97,0.61,1.52c0.06,1.14-0.02,2.23-1.14,2.91C90.77,26.54,88.39,28.74,87.57,25.74z
			"/>
		<path class="st8" d="M19.6,206.68c3.88-3.27,9.21-2.82,11.98,1c-1.45,1.19-3.17,1.71-5,1.97c-2.37,0.23-3.56-2.43-5.86-2.38
			C20.28,207.2,19.91,207,19.6,206.68z"/>
		<path class="st9" d="M135.53,212.7c0.07-1.06-0.14-2.2,0.86-2.99c0.08,1.95,0.17,3.9,0.25,5.85c-0.44,1.35-0.64,2.87-2.36,3.3
			c-2.91-0.28-5.3-1.86-7.81-3.15c1.11-0.09,2.34,0.16,3.08-1.03C131.44,213.69,133.88,214.38,135.53,212.7z"/>
		<path class="st10" d="M88.51,17.91c-1.53,2.9,1.88,4.09,2.34,6.42c-3.35,0.1-3.2-2.81-4.29-4.58c0.13-2.28-4.4-2.93-2.11-5.98
			C85.26,15.69,87.95,15.75,88.51,17.91z"/>
		<path class="st1" d="M20.6,206.69c3.73-2.53,3.71,2.53,5.98,2.95c-0.83,0.78-1.82,1.15-2.96,1.11
			C22.72,209.32,19.31,209.76,20.6,206.69z"/>
		<path class="st11" d="M92.58,26.71c0.05-1.09,0.1-2.18,0.16-3.27c1.07-0.03,1.53,0.61,1.73,1.55c0.39,0.89,0.78,1.79,1.17,2.68
			c-1.02,1.02-2.04,2.04-3.05,3.06C91.87,29.39,91.79,28.05,92.58,26.71z"/>
		<path class="st12" d="M0.81,208.72c0.42,2.33,4.16,4.76-0.21,6.94C0.66,213.35,0.73,211.04,0.81,208.72z"/>
		<path class="st13" d="M105.57,51.72c-1.34-1.49-4.91-0.7-4.12-4.72c1.34,1.84,2.7,3.73,4.98,1.76c0.28,0.19,0.36,0.44,0.23,0.75
			C106.57,50.39,106.44,51.24,105.57,51.72z"/>
		<path class="st11" d="M98.22,30.85c0.52,1.27,1.04,2.54,1.56,3.81c-2.52-1.66-4.19-3.82-4.16-7
			C96.49,28.73,97.35,29.79,98.22,30.85z"/>
		<path class="st14" d="M44.6,218.34c0.02-1.17-1.33-2.62,0.63-3.39c0.41-0.16,1.24-0.19,1.36,0.02c0.85,1.46-0.59,2.33-1.05,3.46
			c0,0-0.48,0.07-0.48,0.07L44.6,218.34z"/>
		<path class="st15" d="M134.29,218.86c0.79-1.1,1.58-2.2,2.36-3.3c0.73,1.27,1.22,2.72,0.11,3.85
			C136.11,220.08,134.99,219.65,134.29,218.86z"/>
		<path class="st16" d="M20.6,206.69c-0.07,2.15,2.62,2.26,3.02,4.06c-0.36,0.22-0.72,0.43-1.09,0.65
			c-0.95-1.59-3.58-2.14-2.94-4.72C19.93,206.68,20.26,206.68,20.6,206.69z"/>
		<path class="st17" d="M37.45,34.62c1.15-0.11,3.01-1.22,2.44,1.37c-0.45,2.02-0.81,4.24-3.34,5.62c-0.77-2.64,3.5-4.55,0.91-7.04
			C37.45,34.57,37.45,34.62,37.45,34.62z"/>
		<path class="st18" d="M92.58,26.71c0,1.34,0,2.68,0,4.02c-1.16-1.63-2.01-3.32-4.69-3.1c-2.83,0.23-1.56-1.01-0.32-1.89
			C88.99,27.38,90.89,26.5,92.58,26.71z"/>
		<path class="st19" d="M45.62,23.5c1.89-0.44,3.06-0.23,3.52,1.42c0.14,0.5,0.21,1.25-0.34,1.16
			C47.48,25.89,46.31,25.27,45.62,23.5z"/>
		<path class="st20" d="M54.56,218.71c9.34,0,18.69-0.01,28.03-0.01c6.58,22.03,2.21,41.93-11.65,59.99
			c-1.68,2.19-3.31,2.07-4.78-0.01c-10.04-14.18-16.87-29.32-13.97-47.33C52.88,227.12,52.91,222.76,54.56,218.71z"/>
		<path class="st21" d="M115.57,169.69c0.2-1.71,1.25-2.83,2.84-2.23c1.76,0.66,0.59,2.09,0.16,3.21
			C117.34,171.03,115.85,172.2,115.57,169.69z"/>
		<path class="st22" d="M131.3,176.31c-2.67,0.62-3.71-0.06-4.14-2.16C128.99,173.92,129.99,174.89,131.3,176.31z"/>
		<path class="st23" d="M135.53,212.7c-1.03,3.56-4,1.28-5.97,1.99C131.28,213.2,133.34,212.75,135.53,212.7z"/>
		<path class="st24" d="M115.57,169.69c0.72,1.18,1.9,0.97,3,0.98c-0.94,1.22-2.16,1.34-3.33,0.55
			C114.63,170.81,115,170.11,115.57,169.69z"/>
		<path class="st25" d="M67.57,213.67c8.46,0,16.93,0,25.39,0c-0.01,0.34-0.02,0.68-0.03,1.01c-3.12,0-6.25,0-9.37,0
			c-5.33,0.78-10.66,0.79-15.98,0c-4.92,0-9.84,0-14.76,0c-0.01-0.34-0.02-0.67-0.03-1.01c2.26,0,4.53,0,6.79,0
			C62.25,212.21,64.91,212.21,67.57,213.67z"/>
		<path class="st26" d="M59.59,212.68c-0.93-0.05-1.87-0.09-2.8-0.14c0-0.19,0-0.37,0-0.56c5.85,0,11.7,0,17.56,0
			c0.01,0.23,0.03,0.47,0.04,0.7c-2.27,0-4.54,0-6.82,0C64.91,213.46,62.25,213.45,59.59,212.68z"/>
		<path class="st27" d="M67.58,214.67c5.33,0,10.66,0,15.98,0C78.24,216.3,72.91,216.29,67.58,214.67z"/>
		<path class="st28" d="M59.59,212.68c2.66,0,5.32,0,7.98,0c0.01,0.33,0.01,0.66,0,0.99c-2.66,0-5.32,0-7.99,0
			C59.58,213.34,59.59,213.01,59.59,212.68z"/>
		<path class="st13" d="M98.21,49.59c-20.76,0-41.52,0-62.28,0c0-0.17,0-0.33,0-0.5c20.83,0,41.66,0,62.48,0
			C98.35,49.25,98.28,49.42,98.21,49.59z"/>
		<path class="st29" d="M68.51,73.7c13.33-0.05,24.08,10.71,24.01,24.05c-0.06,12.97-10.88,23.78-23.86,23.83
			c-12.93,0.05-23.91-10.76-24.02-23.67C44.52,84.54,55.16,73.75,68.51,73.7z"/>
	</g>
</g>
</svg>
