<?xml version="1.0" encoding="utf-8"?>
<!-- Generator: Adobe Illustrator 24.0.1, SVG Export Plug-In . SVG Version: 6.00 Build 0)  -->
<svg version="1.1" id="Layer_1" xmlns="http://www.w3.org/2000/svg" xmlns:xlink="http://www.w3.org/1999/xlink" x="0px" y="0px"
	 viewBox="0 0 1836.42 576.43" style="enable-background:new 0 0 1836.42 576.43;" xml:space="preserve">
<style type="text/css">
	.st0{fill:#AAAAAA;stroke:#FFFFFF;stroke-width:0.7669;}
	.st1{enable-background:new    ;}
	.st2{fill:#00AEF7;}
	.st3{fill:#34BFFA;}
	.st4{fill:#42C4FA;}
	.st5{fill:#4DC7FA;}
	.st6{fill:#49C6FA;}
	.st7{fill:#9FE1FC;}
	.st8{fill:#A6E3FC;}
	.st9{fill:#84D8FB;}
	.st10{fill:#C5ECFD;}
	.st11{fill:#82D7FB;}
	.st12{fill:#C8EDFD;}
	.st13{fill:#FDFDFD;}
	.st14{fill:#00AFF8;}
	.st15{fill:#FEFEFE;}
</style>
<g>
	<g>
		<path d="M534,481.22c0-0.97,0.79-1.84,1.76-1.84h23.01c18.71,0,34.04,15.24,34.04,33.86c0,18.84-15.33,34.08-34.04,34.08h-23.01
			c-0.97,0-1.76-0.88-1.76-1.84V481.22z M557.58,535.46c12.6,0,21.83-9.53,21.83-22.22c0-12.6-9.22-22.14-21.83-22.14h-11.07v44.36
			H557.58z"/>
		<path d="M618.11,507.52c10.01,0,18.14,7.55,18.14,18.05c0,0.66-0.09,1.93-0.18,2.64c-0.09,0.97-0.97,1.67-1.84,1.67h-24.86
			c0.31,4,3.69,8.43,9.31,8.43c3.03,0,5.84-1.19,7.55-2.42c0.97-0.57,1.84-0.79,2.5,0l4,4.57c0.66,0.66,0.88,1.76-0.09,2.5
			c-3.21,3.03-8.17,5.36-14.45,5.36c-11.64,0-19.9-9.22-19.9-20.38C598.34,516.92,606.55,507.52,618.11,507.52z M624.91,523.03
			c-0.31-3.6-3.38-6.59-7.07-6.59c-3.86,0-7.07,2.9-7.55,6.59H624.91z"/>
		<path d="M644.41,510.34c0-1.05,0.88-1.84,1.84-1.84h3.6c0.88,0,1.45,0.48,1.67,1.05l1.36,3.69c1.67-1.84,6.1-5.71,13-5.71
			c5.53,0,9.4,2.15,12.6,6.02c1.67-1.76,6.68-6.02,13.7-6.02c12.43,0,17,9.22,17,19.41v18.53c0,0.97-0.79,1.84-1.84,1.84h-7.86
			c-1.05,0-1.84-0.88-1.84-1.84v-19.19c0-5.05-2.42-8.26-7.29-8.26c-5.62,0-8.17,4.08-8.17,4.08s0.09,1.93,0.09,3.69v19.68
			c0,0.97-0.88,1.84-1.84,1.84h-7.29c-1.05,0-1.84-0.88-1.84-1.84v-19.19c0-5.05-2.24-8.26-7.16-8.26c-4.83,0-7.2,3.47-8.17,6.1
			v21.34c0,0.97-0.88,1.84-1.84,1.84h-7.86c-0.97,0-1.84-0.88-1.84-1.84L644.41,510.34L644.41,510.34z"/>
		<path d="M736.86,507.52c10.98,0,19.9,9.31,19.9,20.29c0,11.16-8.92,20.47-19.9,20.47s-19.9-9.31-19.9-20.47
			C716.97,516.84,725.88,507.52,736.86,507.52z M736.86,537.79c5.14,0,9.31-4.48,9.31-10.01c0-5.45-4.17-9.79-9.31-9.79
			c-5.23,0-9.31,4.35-9.31,9.79C727.55,533.35,731.64,537.79,736.86,537.79z"/>
		<path d="M783.02,507.52c6.02,0,10.67,2.42,14.36,6.9c0.66,0.88,0.48,2.02-0.48,2.72l-4.48,4.26c-0.88,0.79-1.76,0.31-2.42-0.31
			c-1.54-1.76-4-3.12-6.68-3.12c-5.23,0-9.53,4.48-9.53,9.88c0,5.53,4.17,9.88,9.4,9.88c4.17,0,6.02-2.02,7.77-3.69
			c0.66-0.66,1.67-0.88,2.42-0.31l4.17,3.6c0.97,0.79,1.36,1.76,0.66,2.72c-3.29,5.14-8.43,8.17-15.33,8.17
			c-10.98,0-20.55-8.74-20.55-20.38C762.38,516.44,772.17,507.52,783.02,507.52z"/>
		<path d="M806.69,510.34c0-1.05,0.88-1.84,1.84-1.84h3.69c0.88,0,1.45,0.48,1.76,1.27l1.36,3.78c1.36-1.93,4.96-6.02,10.98-6.02
			c4.57,0,8.65,1.45,7.47,3.86l-3.6,6.32c-0.48,0.88-1.45,1.27-2.24,0.88c-0.31-0.09-1.76-0.57-2.81-0.57c-3.86,0-6.19,2.64-6.9,4
			v23.5c0,1.36-0.88,1.84-2.24,1.84h-7.47c-0.97,0-1.84-0.88-1.84-1.84L806.69,510.34L806.69,510.34z"/>
		<path d="M852.5,522.76c3.86,0,7.07,1.05,7.07,1.05c0.09-4.96-1.45-6.68-5.05-6.68c-3.6,0-8.65,0.79-10.85,1.45
			c-1.36,0.4-2.02-0.48-2.24-1.76l-0.88-5.05c-0.31-1.45,0.48-2.15,1.36-2.42c0.79-0.31,6.98-1.84,13.18-1.84
			c12.12,0,14.93,6.32,14.93,16.86v21.04c0,0.97-0.88,1.84-1.84,1.84h-3.51c-0.66,0-1.19-0.31-1.67-1.36l-1.19-2.64
			c-2.24,2.02-5.84,4.96-11.86,4.96c-7.77,0-13.09-5.05-13.09-13.31C836.95,528.08,842.58,522.76,852.5,522.76z M852.68,540.03
			c3.12,0,6.1-2.64,6.68-3.78v-5.31c0,0-2.64-1.19-5.45-1.19c-3.78,0-6.32,2.15-6.32,5.23
			C847.63,537.92,849.69,540.03,852.68,540.03z"/>
		<path d="M883.25,518.68h-3.29c-0.97,0-1.76-0.88-1.76-1.84v-6.5c0-1.05,0.79-1.84,1.76-1.84h3.29v-10.76
			c0-0.97,0.88-1.84,1.84-1.84l7.95-0.09c0.97,0,1.76,0.88,1.76,1.84v10.85h8.52c1.05,0,1.84,0.79,1.84,1.84v6.5
			c0,0.97-0.79,1.84-1.84,1.84h-8.52v15.55c0,2.72,1.45,3.12,3.03,3.12c1.67,0,3.69-0.66,4.74-1.05c1.05-0.4,1.84,0.09,2.15,1.05
			l1.93,6.1c0.4,0.97-0.09,1.93-1.05,2.33c-0.48,0.31-6.81,2.5-11.55,2.5c-7.47,0-10.76-4.66-10.76-12.52v-17.08H883.25z"/>
		<path d="M913.77,488.02c0-3.69,2.9-6.68,6.59-6.68c3.78,0,6.81,3.03,6.81,6.68c0,3.69-3.03,6.68-6.81,6.68
			C916.71,494.7,913.77,491.71,913.77,488.02z M914.65,510.34c0-1.05,0.88-1.84,1.84-1.84h8.04c0.97,0,1.84,0.79,1.84,1.84v35.14
			c0,0.97-0.88,1.84-1.84,1.84h-8.04c-0.97,0-1.84-0.88-1.84-1.84V510.34z"/>
		<path d="M955.71,507.52c6.02,0,10.67,2.42,14.36,6.9c0.66,0.88,0.48,2.02-0.48,2.72l-4.48,4.26c-0.88,0.79-1.76,0.31-2.42-0.31
			c-1.54-1.76-4-3.12-6.68-3.12c-5.23,0-9.53,4.48-9.53,9.88c0,5.53,4.17,9.88,9.4,9.88c4.17,0,6.02-2.02,7.77-3.69
			c0.66-0.66,1.67-0.88,2.42-0.31l4.17,3.6c0.97,0.79,1.36,1.76,0.66,2.72c-3.29,5.14-8.43,8.17-15.33,8.17
			c-10.98,0-20.55-8.74-20.55-20.38C935.03,516.44,944.82,507.52,955.71,507.52z"/>
		<path d="M1003.8,481.22c0-0.97,0.79-1.84,1.84-1.84h22.79c11.95,0,21.74,9.71,21.74,21.43c0,12.03-9.79,21.83-21.65,21.83h-12.12
			v22.79c0,0.97-0.88,1.84-1.84,1.84h-8.92c-1.05,0-1.84-0.88-1.84-1.84L1003.8,481.22L1003.8,481.22z M1027.7,510.82
			c5.45,0,10.01-4.35,10.01-10.1c0-5.36-4.57-9.4-10.01-9.4h-11.24v19.5H1027.7z"/>
		<path d="M1055.63,510.34c0-1.05,0.88-1.84,1.84-1.84h3.69c0.88,0,1.45,0.48,1.76,1.27l1.36,3.78c1.36-1.93,4.96-6.02,10.98-6.02
			c4.57,0,8.65,1.45,7.47,3.86l-3.6,6.32c-0.48,0.88-1.45,1.27-2.24,0.88c-0.31-0.09-1.76-0.57-2.81-0.57c-3.86,0-6.19,2.64-6.9,4
			v23.5c0,1.36-0.88,1.84-2.24,1.84h-7.47c-0.97,0-1.84-0.88-1.84-1.84V510.34L1055.63,510.34z"/>
		<path d="M1087.82,488.02c0-3.69,2.9-6.68,6.59-6.68c3.78,0,6.81,3.03,6.81,6.68c0,3.69-2.99,6.68-6.81,6.68
			C1090.72,494.7,1087.82,491.71,1087.82,488.02z M1088.7,510.34c0-1.05,0.88-1.84,1.84-1.84h8.04c0.97,0,1.84,0.79,1.84,1.84v35.14
			c0,0.97-0.88,1.84-1.84,1.84h-8.04c-0.97,0-1.84-0.88-1.84-1.84V510.34z"/>
		<path d="M1112.06,510.34c0-1.05,0.88-1.84,1.84-1.84h3.6c0.88,0,1.45,0.48,1.67,1.05l1.36,3.69c1.67-1.84,6.1-5.71,13-5.71
			c5.53,0,9.4,2.15,12.6,6.02c1.67-1.76,6.68-6.02,13.7-6.02c12.43,0,17,9.22,17,19.41v18.53c0,0.97-0.79,1.84-1.84,1.84h-7.86
			c-1.05,0-1.84-0.88-1.84-1.84v-19.19c0-5.05-2.42-8.26-7.29-8.26c-5.62,0-8.17,4.08-8.17,4.08s0.09,1.93,0.09,3.69v19.68
			c0,0.97-0.88,1.84-1.84,1.84h-7.29c-1.05,0-1.84-0.88-1.84-1.84v-19.19c0-5.05-2.24-8.26-7.16-8.26c-4.83,0-7.2,3.47-8.17,6.1
			v21.34c0,0.97-0.88,1.84-1.84,1.84h-7.86c-0.97,0-1.84-0.88-1.84-1.84L1112.06,510.34L1112.06,510.34z"/>
		<path d="M1200.34,522.76c3.86,0,7.07,1.05,7.07,1.05c0.09-4.96-1.45-6.68-5.05-6.68c-3.6,0-8.65,0.79-10.85,1.45
			c-1.36,0.4-2.02-0.48-2.24-1.76l-0.88-5.05c-0.31-1.45,0.48-2.15,1.36-2.42c0.79-0.31,6.98-1.84,13.18-1.84
			c12.12,0,14.93,6.32,14.93,16.86v21.04c0,0.97-0.88,1.84-1.84,1.84h-3.51c-0.66,0-1.19-0.31-1.67-1.36l-1.19-2.64
			c-2.24,2.02-5.84,4.96-11.86,4.96c-7.77,0-13.09-5.05-13.09-13.31C1184.84,528.08,1190.46,522.76,1200.34,522.76z M1200.56,540.03
			c3.12,0,6.1-2.64,6.68-3.78v-5.31c0,0-2.64-1.19-5.45-1.19c-3.78,0-6.32,2.15-6.32,5.23
			C1195.51,537.92,1197.53,540.03,1200.56,540.03z"/>
		<path d="M1229.06,510.34c0-1.05,0.88-1.84,1.84-1.84h3.69c0.88,0,1.45,0.48,1.76,1.27l1.36,3.78c1.36-1.93,4.96-6.02,10.98-6.02
			c4.57,0,8.65,1.45,7.47,3.86l-3.6,6.32c-0.48,0.88-1.45,1.27-2.24,0.88c-0.31-0.09-1.76-0.57-2.81-0.57c-3.86,0-6.19,2.64-6.9,4
			v23.5c0,1.36-0.88,1.84-2.24,1.84h-7.47c-0.97,0-1.84-0.88-1.84-1.84L1229.06,510.34L1229.06,510.34z"/>
		<path d="M1258.75,510.99c-0.57-1.27,0.18-2.5,1.67-2.5h8.74c0.88,0,1.36,0.48,1.67,1.05l9.79,21.92h0.09l9.71-21.92
			c0.48-0.97,1.14-1.05,2.33-1.05h7.77c1.54,0,2.33,1.27,1.67,2.5l-29.69,64.25c-0.31,0.57-0.88,1.19-1.67,1.19h-8.34
			c-1.45,0-2.33-1.27-1.67-2.64l13.79-29.21L1258.75,510.99z"/>
	</g>
	<g>
		<path id="WI" class="st0" d="M913.73,411.78l-0.31-13.88l-5.18-19.9l-2.85-26.92l-4.96-10.63l4.26-13.48l3.56-12.78l6.37-11.38
			l-2.85-14.89l-2.85-15.64l2.11-7.82l8.52-10.63l0.7-12.08l-3.56-5.67l2.85-11.38l-1.98-18.31l12.08-24.81l12.78-29.78l0.7-9.93
			l-1.41-4.26l-3.56,2.11l-18.45,27.63l-12.08,17.74l-8.52,7.82l-3.56,9.93l-8.56,3.56l-4.96,8.52l-6.37-1.41l-0.7-7.82l5.67-10.63
			l9.22-20.6l7.82-7.11l4.35-10.36l-11.24-8.34l-8.65-45.5l-15.59-5.89l-8.56-10.15l-53.23-11.95l-12.65-4.44l-36.01-9.53
			l-34.74-5.09l-16.56-22.53l-3.29,2.42l-5.27-0.7l-2.85-4.96l-5.84,1.32l-4.96,0.7l-7.82,4.26l-4.26-2.85l2.85-8.52l8.52-13.48
			l4.96-4.96l-8.52-6.37l-9.22,3.56l-12.78,8.52L623.64,26.7l-12.78,2.85l-12.78-2.11l-4.3-3.86l-9.31,12.47l-1.01,12.03V85.2
			l-5.01,7.03l-23.1,17.08l-10.06,26.04l2.02,1.01l11.02,9.05l3.03,14.05l-8.04,14.05v17.08l2.02,29.07l13.04,13.04h15.06
			l8.04,14.05l15.06,2.02l17.08,25.08l31.09,18.09l9.05,12.03l4,32.59l3.03,14.58l10.06,7.03l1.01,6.02l-9.05,15.06l1.01,14.05
			l11.02,17.08l11.02,5.01l13.04,2.02l5.89,6.06L913.73,411.78L913.73,411.78z"/>
		<g class="st1">
			<path d="M703.09,218.76c-0.26-0.97,0.26-1.67,1.27-1.67h6.46c0.57,0,1.14,0.48,1.27,0.97l7.33,28.02h0.26l11.16-28.9
				c0.13-0.44,0.48-0.79,1.19-0.79h1.27c0.7,0,1.05,0.35,1.19,0.79l11.24,28.9H746l7.16-28.02c0.13-0.48,0.7-0.97,1.27-0.97h6.46
				c0.97,0,1.54,0.7,1.27,1.67l-13.31,47.21c-0.13,0.57-0.7,0.97-1.27,0.97h-1.14c-0.61,0-1.05-0.35-1.19-0.79l-12.6-31.8h-0.22
				L720,266.15c-0.22,0.44-0.48,0.79-1.19,0.79h-1.14c-0.57,0-1.14-0.44-1.27-0.97L703.09,218.76z"/>
			<path d="M770.37,218.4c0-0.7,0.61-1.32,1.32-1.32h6.54c0.7,0,1.32,0.61,1.32,1.32v46.51c0,0.7-0.61,1.32-1.32,1.32h-6.54
				c-0.7,0-1.32-0.61-1.32-1.32V218.4z"/>
		</g>
		<g id="GKh5jb.tif">
			<g>
				<path class="st2" d="M828.39,362.11c0-0.44,0-0.88,0-1.32c0.09-0.4,0-0.79,0.04-1.14c0-0.18,0-0.35,0-0.57
					c0-1.41,0.04-2.81,0.18-4.22c0.22-2.33,0.61-4.61,1.05-6.85c0.53-2.5,1.19-4.96,2.02-7.38c0.57-1.71,1.23-3.43,1.98-5.14
					c0.61-1.41,1.27-2.77,1.98-4.13c0.92-1.76,1.93-3.51,2.99-5.18c0.97-1.49,2.02-2.99,3.12-4.39c0.97-1.27,2.02-2.5,3.07-3.73
					c0.97-1.05,1.89-2.11,2.94-3.12c1.89-1.84,3.82-3.56,5.93-5.18c2.24-1.76,4.61-3.34,7.07-4.79c2.24-1.32,4.52-2.46,6.85-3.51
					c1.71-0.75,3.43-1.41,5.23-2.02c2.81-0.97,5.67-1.71,8.56-2.24c2.02-0.4,4-0.66,6.06-0.88c1.1-0.09,2.2-0.13,3.29-0.18
					c1.54-0.04,3.12-0.04,4.66-0.04c1.27,0,2.59,0,3.86,0.09c1.93,0.13,3.86,0.4,5.8,0.75c2.28,0.4,4.57,0.92,6.81,1.54
					c2.55,0.75,5.09,1.62,7.55,2.68c1.76,0.75,3.47,1.58,5.18,2.46c1.49,0.75,2.9,1.63,4.3,2.5c1.76,1.1,3.43,2.28,5.09,3.56
					c1.19,0.92,2.33,1.89,3.47,2.9c1.05,0.97,2.15,1.93,3.12,2.94c2.5,2.55,4.79,5.27,6.85,8.17c1.54,2.2,2.94,4.44,4.22,6.76
					c2.02,3.69,3.65,7.6,4.88,11.59c1.01,3.21,1.76,6.5,2.24,9.84c0.31,1.98,0.48,3.91,0.53,5.93c0.04,1.8,0.09,3.65,0.04,5.45
					c-0.04,1.45,0,2.9-0.13,4.35c-0.18,1.93-0.44,3.86-0.79,5.75c-0.61,3.38-1.49,6.63-2.64,9.88c-0.7,1.98-1.49,3.95-2.37,5.84
					c-1.01,2.15-2.11,4.26-3.34,6.28c-1.27,2.15-2.68,4.22-4.22,6.15c-1.14,1.45-2.33,2.9-3.56,4.26c-0.7,0.79-1.41,1.58-2.2,2.28
					c-1.45,1.36-2.9,2.72-4.44,4c-1.84,1.49-3.73,2.94-5.75,4.26c-1.58,1.05-3.21,2.02-4.88,2.9c-3.21,1.71-6.5,3.21-9.97,4.35
					c-3.47,1.19-6.98,2.06-10.63,2.64c-1.45,0.22-2.9,0.44-4.35,0.57c-0.61,0.04-1.19,0.04-1.8,0.09c-0.61,0-1.27,0.04-1.89,0.04
					c-0.22,0-0.4,0-0.61,0c-0.35,0-0.7-0.04-1.05,0.04c-0.44,0-0.92,0-1.36,0c-0.4-0.09-0.83,0-1.23-0.04c-0.13,0-0.31,0-0.44,0
					s-0.31,0-0.44,0c-1.36,0-2.72-0.04-4.08-0.18c-1.71-0.18-3.43-0.4-5.09-0.7c-3.38-0.61-6.68-1.49-9.93-2.64
					c-1.93-0.66-3.82-1.45-5.67-2.28c-2.24-1.05-4.39-2.15-6.5-3.43c-2.33-1.41-4.61-2.99-6.76-4.7c-1.27-1.01-2.5-2.02-3.69-3.16
					c-0.83-0.75-1.67-1.49-2.42-2.33c-2.15-2.24-4.17-4.57-6.02-7.07c-1.67-2.28-3.16-4.61-4.57-7.07
					c-2.15-3.91-3.91-7.99-5.27-12.25c-0.92-2.94-1.62-5.93-2.11-9c-0.22-1.45-0.44-2.9-0.57-4.35c-0.04-0.57-0.04-1.19-0.09-1.76
					c0-0.57-0.04-1.19-0.04-1.76c0-0.13,0-0.26,0-0.4c0-0.18,0-0.35,0-0.53C828.39,362.9,828.48,362.5,828.39,362.11z"/>
				<path class="st3" d="M828.39,362.11c0.13,0.4,0.04,0.83,0.04,1.23c-0.04,0.04-0.04,0.04-0.04,0
					C828.39,362.94,828.39,362.5,828.39,362.11z"/>
				<path class="st4" d="M892.03,426.93c0.44,0,0.83-0.04,1.23,0.04c-0.4,0-0.83,0-1.23,0
					C891.99,426.98,891.99,426.93,892.03,426.93C891.99,426.93,891.99,426.93,892.03,426.93z"/>
				<path class="st5" d="M828.43,359.61c0,0.4,0.04,0.79-0.04,1.19c0-0.4,0-0.79,0-1.19C828.39,359.56,828.43,359.56,828.43,359.61z
					"/>
				<path class="st6" d="M894.62,426.98c0.35-0.13,0.7-0.04,1.05-0.04c0.04,0,0.04,0.04,0,0.04c0,0,0,0-0.04,0
					C895.32,426.98,894.97,426.98,894.62,426.98z"/>
				<path class="st7" d="M895.67,426.98v-0.04c0.22,0,0.44,0,0.66,0v0.04C896.11,426.98,895.89,426.98,895.67,426.98z"/>
				<path class="st8" d="M828.43,359.61h-0.04c0-0.18,0-0.4,0-0.57h0.04C828.43,359.21,828.43,359.43,828.43,359.61z"/>
				<path class="st9" d="M828.39,363.34h0.04c0,0.18,0,0.35,0,0.53c-0.04,0.04-0.04,0.04-0.04,0
					C828.39,363.69,828.39,363.51,828.39,363.34z"/>
				<path class="st10" d="M891.11,426.98v-0.04c0.13,0,0.31,0,0.44,0c0.04,0,0.04,0.04,0,0.04
					C891.41,426.98,891.24,426.98,891.11,426.98z"/>
				<path class="st11" d="M891.55,426.98v-0.04c0.13,0,0.31,0,0.44,0v0.04C891.85,426.98,891.72,426.98,891.55,426.98z"/>
				<path class="st12" d="M828.39,363.87h0.04c0,0.13,0,0.26,0,0.4h-0.04h-0.04C828.39,364.13,828.39,364,828.39,363.87z"/>
				<path class="st13" d="M845.12,361.58c0-26.92,21.78-48.66,48.71-48.66c26.83,0,48.71,21.83,48.62,48.84
					c-0.09,26.75-21.92,48.71-49.06,48.49C866.82,410.02,845.12,388.42,845.12,361.58z"/>
				<path class="st14" d="M871.74,361.58c0-8.74,0-17.48,0-26.22c0-0.31,0.04-0.4,0.4-0.4c8.26,0,16.51,0,24.77,0
					c4,0,7.82,0.83,11.42,2.59c6.94,3.43,11.59,8.83,13.97,16.16c0.92,2.85,1.27,5.8,1.14,8.78c-0.22,5.53-1.93,10.58-5.27,14.98
					c-3.95,5.27-9.22,8.65-15.64,10.1c-1.89,0.44-3.82,0.61-5.8,0.61c-8.21,0-16.38,0-24.59,0c-0.35,0-0.4-0.09-0.4-0.4
					C871.74,379.06,871.74,370.32,871.74,361.58z"/>
				<path class="st15" d="M886.93,361.58c0-4.44,0-8.87,0-13.31c0-0.31,0.09-0.4,0.4-0.4c2.46,0,4.96,0,7.42,0
					c3.29,0.04,6.24,1.14,8.74,3.29c2.37,2.02,3.86,4.57,4.48,7.64c0.79,4.13-0.09,7.91-2.68,11.2c-2.02,2.55-4.66,4.17-7.82,4.88
					c-0.83,0.18-1.67,0.31-2.5,0.31c-2.55,0-5.05,0-7.6,0c-0.35,0-0.4-0.09-0.4-0.4C886.93,370.41,886.93,366.02,886.93,361.58z"/>
			</g>
		</g>
		<g>
			<path d="M1012.89,179.05c0-0.66,0.53-1.23,1.23-1.23h18.49c7.77,0,14.1,6.19,14.1,13.92c0,5.93-3.95,10.8-9.57,13.04l8.87,16.43
				c0.44,0.83,0,1.89-1.1,1.89h-6.81c-0.57,0-0.92-0.31-1.05-0.57l-8.61-17.13h-7.16v16.47c0,0.66-0.57,1.23-1.23,1.23h-5.93
				c-0.7,0-1.23-0.57-1.23-1.23V179.05z M1031.87,198.42c3.43,0,6.41-2.99,6.41-6.59c0-3.43-2.99-6.28-6.41-6.28h-10.54v12.87
				H1031.87z"/>
			<path d="M1060.81,206.72c2.59,0,4.7,0.7,4.7,0.7c0.04-3.29-0.97-4.48-3.38-4.48c-2.42,0-5.75,0.53-7.25,0.97
				c-0.92,0.26-1.36-0.31-1.49-1.19l-0.57-3.38c-0.18-0.97,0.31-1.41,0.92-1.62c0.53-0.18,4.66-1.23,8.78-1.23
				c8.08,0,9.97,4.22,9.97,11.24v14.05c0,0.66-0.57,1.23-1.23,1.23h-2.33c-0.44,0-0.79-0.18-1.1-0.92l-0.79-1.76
				c-1.49,1.36-3.86,3.29-7.91,3.29c-5.18,0-8.74-3.38-8.74-8.87C1050.45,210.28,1054.22,206.72,1060.81,206.72z M1060.94,218.23
				c2.06,0,4.08-1.76,4.48-2.5v-3.56c0,0-1.76-0.79-3.6-0.79c-2.5,0-4.22,1.41-4.22,3.47
				C1057.56,216.82,1058.92,218.23,1060.94,218.23z"/>
			<path d="M1091.73,196.58c4,0,7.11,1.62,9.57,4.61c0.44,0.57,0.31,1.36-0.31,1.8l-2.99,2.85c-0.57,0.53-1.19,0.18-1.62-0.18
				c-1.05-1.19-2.64-2.06-4.48-2.06c-3.47,0-6.32,2.99-6.32,6.59c0,3.69,2.77,6.59,6.28,6.59c2.77,0,4-1.36,5.18-2.46
				c0.44-0.44,1.1-0.57,1.62-0.18l2.77,2.37c0.66,0.53,0.92,1.19,0.44,1.8c-2.2,3.43-5.62,5.45-10.23,5.45
				c-7.29,0-13.7-5.84-13.7-13.57C1077.94,202.51,1084.48,196.58,1091.73,196.58z"/>
			<path d="M1118.74,196.58c6.68,0,12.08,5.05,12.08,12.03c0,0.44-0.04,1.27-0.13,1.76c-0.04,0.66-0.66,1.1-1.23,1.1h-16.56
				c0.18,2.64,2.46,5.62,6.19,5.62c2.02,0,3.86-0.79,5.05-1.63c0.66-0.4,1.23-0.53,1.67,0l2.64,3.03c0.44,0.44,0.57,1.19-0.04,1.67
				c-2.15,2.02-5.45,3.56-9.62,3.56c-7.77,0-13.26-6.15-13.26-13.57C1105.56,202.86,1111.05,196.58,1118.74,196.58z M1123.26,206.9
				c-0.18-2.37-2.28-4.39-4.74-4.39c-2.59,0-4.7,1.93-5.05,4.39H1123.26z"/>
			<path d="M1151.9,204h-2.2c-0.66,0-1.14-0.57-1.14-1.23v-4.35c0-0.7,0.53-1.23,1.14-1.23h2.2v-7.16c0-0.66,0.57-1.23,1.23-1.23
				l5.31-0.04c0.66,0,1.19,0.57,1.19,1.23v7.25h5.71c0.7,0,1.23,0.53,1.23,1.23v4.35c0,0.66-0.53,1.23-1.23,1.23h-5.71v10.36
				c0,1.8,0.97,2.06,2.02,2.06c1.1,0,2.46-0.44,3.16-0.7s1.23,0.04,1.41,0.7l1.27,4.08c0.26,0.66-0.04,1.27-0.7,1.54
				c-0.31,0.18-4.52,1.67-7.69,1.67c-4.96,0-7.16-3.12-7.16-8.34V204H1151.9z"/>
			<path d="M1184.14,196.58c7.29,0,13.26,6.19,13.26,13.53c0,7.42-5.93,13.66-13.26,13.66c-7.29,0-13.26-6.19-13.26-13.66
				C1170.87,202.77,1176.8,196.58,1184.14,196.58z M1184.14,216.74c3.43,0,6.19-2.99,6.19-6.68c0-3.6-2.77-6.54-6.19-6.54
				c-3.51,0-6.19,2.9-6.19,6.54C1177.9,213.75,1180.62,216.74,1184.14,216.74z"/>
			<path d="M1017.59,255.74c0.04-0.53,0.44-0.97,1.14-0.97h1.05c0.53,0,0.92,0.26,1.1,0.66l14.23,30.52c0.13,0,0.13,0,0.18,0
				l14.23-30.52c0.18-0.4,0.53-0.66,1.1-0.66h1.05c0.7,0,1.1,0.44,1.19,0.97l7.64,43.48c0.18,0.92-0.31,1.49-1.19,1.49h-5.89
				c-0.57,0-1.1-0.53-1.23-0.97l-3.82-24.51c-0.04,0-0.18,0-0.18,0l-11.33,25.43c-0.13,0.4-0.53,0.7-1.1,0.7h-1.19
				c-0.57,0-0.92-0.31-1.1-0.7l-11.46-25.43c0,0-0.13,0-0.18,0l-3.73,24.51c-0.04,0.44-0.57,0.97-1.19,0.97h-5.84
				c-0.83,0-1.36-0.57-1.23-1.49L1017.59,255.74z"/>
			<path d="M1066.04,261.18c0-2.46,1.93-4.48,4.39-4.48c2.5,0,4.52,2.02,4.52,4.48s-2.02,4.48-4.52,4.48
				C1067.97,265.62,1066.04,263.64,1066.04,261.18z M1066.61,276.03c0-0.7,0.57-1.23,1.23-1.23h5.36c0.66,0,1.23,0.53,1.23,1.23
				v23.41c0,0.66-0.57,1.23-1.23,1.23h-5.36c-0.66,0-1.23-0.57-1.23-1.23V276.03z"/>
			<path d="M1082.2,256.66c0-0.66,0.57-1.23,1.23-1.23h5.45c0.66,0,1.23,0.57,1.23,1.23v42.82c0,0.66-0.57,1.23-1.23,1.23h-5.45
				c-0.66,0-1.23-0.57-1.23-1.23V256.66z"/>
			<path d="M1095.16,276.29c-0.4-0.83,0.18-1.49,1.1-1.49h4.66c0.4,0,1.05,0.31,1.19,0.79l3.86,11.59h0.04l6.59-12.43
				c0.13-0.26,0.44-0.57,1.05-0.57h0.53c0.57,0,0.83,0.26,1.05,0.57l6.54,12.43h0.04l3.86-11.59c0.26-0.7,0.79-0.79,1.49-0.79h4.22
				c0.92,0,1.49,0.66,1.19,1.49l-8.08,24.33c-0.13,0.4-0.53,0.7-1.19,0.7h-0.26c-0.53,0-0.83-0.26-1.05-0.57l-8.17-15.06h-0.04
				l-8.08,15.06c-0.18,0.31-0.53,0.57-1.05,0.57h-0.31c-0.57,0-0.97-0.31-1.1-0.7L1095.16,276.29z"/>
			<path d="M1146.15,284.33c2.59,0,4.7,0.7,4.7,0.7c0.04-3.29-0.97-4.48-3.38-4.48s-5.75,0.53-7.25,0.97
				c-0.92,0.26-1.36-0.31-1.49-1.19l-0.57-3.38c-0.18-0.97,0.31-1.41,0.92-1.62c0.53-0.18,4.66-1.23,8.78-1.23
				c8.08,0,9.97,4.22,9.97,11.24v14.05c0,0.66-0.57,1.23-1.23,1.23h-2.33c-0.44,0-0.79-0.18-1.1-0.92l-0.79-1.76
				c-1.49,1.36-3.86,3.29-7.91,3.29c-5.18,0-8.74-3.38-8.74-8.87C1135.82,287.89,1139.56,284.33,1146.15,284.33z M1146.28,295.83
				c2.06,0,4.08-1.76,4.48-2.5v-3.56c0,0-1.76-0.79-3.6-0.79c-2.5,0-4.22,1.41-4.22,3.47
				C1142.94,294.43,1144.3,295.83,1146.28,295.83z"/>
			<path d="M1164.85,276.03c0-0.7,0.57-1.23,1.23-1.23h5.31c0.66,0,1.23,0.53,1.23,1.23v12.74c0,3.43,1.76,5.58,4.7,5.58
				c2.72,0,4.79-2.5,5.18-4.83v-13.44c0-0.97,0.4-1.23,1.41-1.23h4.92c0.66,0,1.23,0.53,1.23,1.23v23.41c0,0.66-0.57,1.23-1.23,1.23
				h-2.37c-0.66,0-1.05-0.44-1.23-0.97l-0.79-2.15c-1.19,1.05-3.56,3.73-8.65,3.73c-8.04,0-10.94-6.15-10.94-12.74V276.03z"/>
			<path d="M1197.84,256.66c0-0.66,0.57-1.23,1.23-1.23h5.49c0.66,0,1.23,0.57,1.23,1.23v28.02l8.92-9.05
				c0.44-0.4,0.92-0.79,1.62-0.79h5.89c1.1,0,1.49,1.19,0.83,1.89l-9.62,9.84l11.51,12.34c0.66,0.7,0.26,1.8-0.83,1.8h-6.98
				c-0.4,0-0.92-0.26-1.1-0.53l-10.23-11.64v10.94c0,0.66-0.57,1.23-1.23,1.23h-5.49c-0.66,0-1.23-0.57-1.23-1.23V256.66z"/>
			<path d="M1240.18,274.18c6.68,0,12.08,5.05,12.08,12.03c0,0.44-0.04,1.27-0.13,1.76c-0.04,0.66-0.66,1.1-1.23,1.1h-16.56
				c0.18,2.64,2.46,5.62,6.19,5.62c2.02,0,3.86-0.79,5.05-1.62c0.66-0.4,1.23-0.53,1.67,0l2.64,3.03c0.44,0.44,0.57,1.19-0.04,1.67
				c-2.15,2.02-5.45,3.56-9.62,3.56c-7.77,0-13.26-6.15-13.26-13.57C1227,280.46,1232.49,274.18,1240.18,274.18z M1244.7,284.5
				c-0.18-2.37-2.28-4.39-4.7-4.39c-2.59,0-4.7,1.93-5.05,4.39H1244.7z"/>
			<path d="M1268.99,274.18c6.68,0,12.08,5.05,12.08,12.03c0,0.44-0.04,1.27-0.13,1.76c-0.04,0.66-0.66,1.1-1.23,1.1h-16.56
				c0.18,2.64,2.46,5.62,6.19,5.62c2.02,0,3.86-0.79,5.05-1.62c0.66-0.4,1.23-0.53,1.67,0l2.64,3.03c0.44,0.44,0.57,1.19-0.04,1.67
				c-2.15,2.02-5.45,3.56-9.62,3.56c-7.77,0-13.26-6.15-13.26-13.57C1255.77,280.46,1261.26,274.18,1268.99,274.18z M1273.51,284.5
				c-0.18-2.37-2.28-4.39-4.7-4.39c-2.59,0-4.7,1.93-5.05,4.39H1273.51z"/>
		</g>
	</g>
</g>
</svg>
