<?xml version="1.0" encoding="utf-8"?>
<!-- Generator: Adobe Illustrator 24.0.1, SVG Export Plug-In . SVG Version: 6.00 Build 0)  -->
<svg version="1.1" id="Layer_1" xmlns="http://www.w3.org/2000/svg" xmlns:xlink="http://www.w3.org/1999/xlink" x="0px" y="0px"
	 viewBox="0 0 1836.42 576.43" style="enable-background:new 0 0 1836.42 576.43;" xml:space="preserve">
<style type="text/css">
	.st0{clip-path:url(#SVGID_2_);}
	.st1{clip-path:url(#SVGID_4_);fill:#F2F2F2;}
	.st2{clip-path:url(#SVGID_6_);fill:none;stroke:#000000;stroke-width:7.9458;stroke-miterlimit:10;}
	.st3{clip-path:url(#SVGID_8_);fill:none;stroke:#000000;stroke-width:7.9458;stroke-miterlimit:10;}
	.st4{clip-path:url(#SVGID_10_);fill:#FFFFFF;}
	.st5{clip-path:url(#SVGID_12_);fill:none;stroke:#000000;stroke-width:1.9818;stroke-miterlimit:10;}
	.st6{clip-path:url(#SVGID_14_);fill:none;stroke:#000000;stroke-width:6.9456;stroke-miterlimit:10;}
	.st7{clip-path:url(#SVGID_16_);fill:none;stroke:#000000;stroke-width:6.9456;stroke-miterlimit:10;}
	.st8{clip-path:url(#SVGID_18_);fill:none;stroke:#000000;stroke-width:6.9456;stroke-miterlimit:10;}
	.st9{clip-path:url(#SVGID_20_);fill:none;stroke:#000000;stroke-width:6.9456;stroke-miterlimit:10;}
	.st10{clip-path:url(#SVGID_22_);fill:none;stroke:#000000;stroke-width:6.9456;stroke-miterlimit:10;}
	.st11{clip-path:url(#SVGID_24_);fill:none;stroke:#000000;stroke-width:6.9456;stroke-miterlimit:10;}
	.st12{clip-path:url(#SVGID_26_);fill:none;stroke:#000000;stroke-width:6.9456;stroke-miterlimit:10;}
	.st13{clip-path:url(#SVGID_28_);fill:none;stroke:#000000;stroke-width:6.9456;stroke-miterlimit:10;}
	.st14{clip-path:url(#SVGID_30_);fill:none;stroke:#000000;stroke-width:6.9456;stroke-miterlimit:10;}
	.st15{clip-path:url(#SVGID_32_);fill:none;stroke:#000000;stroke-width:6.9456;stroke-miterlimit:10;}
	.st16{clip-path:url(#SVGID_34_);fill:none;stroke:#000000;stroke-width:6.9456;stroke-miterlimit:10;}
	.st17{clip-path:url(#SVGID_36_);fill:none;stroke:#000000;stroke-width:6.9456;stroke-miterlimit:10;}
	.st18{clip-path:url(#SVGID_38_);fill:none;stroke:#000000;stroke-width:6.9456;stroke-miterlimit:10;}
	.st19{clip-path:url(#SVGID_40_);fill:none;stroke:#000000;stroke-width:6.9456;stroke-miterlimit:10;}
	.st20{clip-path:url(#SVGID_42_);fill:none;stroke:#000000;stroke-width:6.9456;stroke-miterlimit:10;}
	.st21{clip-path:url(#SVGID_44_);fill:none;stroke:#000000;stroke-width:6.9456;stroke-miterlimit:10;}
	.st22{clip-path:url(#SVGID_46_);fill:none;stroke:#000000;stroke-width:6.9456;stroke-miterlimit:10;}
	.st23{clip-path:url(#SVGID_48_);fill:none;stroke:#000000;stroke-width:6.9456;stroke-miterlimit:10;}
	.st24{clip-path:url(#SVGID_50_);fill:none;stroke:#000000;stroke-width:6.9456;stroke-miterlimit:10;}
	.st25{clip-path:url(#SVGID_52_);fill:none;stroke:#000000;stroke-width:6.9456;stroke-miterlimit:10;}
	.st26{clip-path:url(#SVGID_54_);fill:none;stroke:#000000;stroke-width:6.9456;stroke-miterlimit:10;}
	.st27{clip-path:url(#SVGID_56_);fill:none;stroke:#000000;stroke-width:6.9456;stroke-miterlimit:10;}
	.st28{clip-path:url(#SVGID_58_);fill:#004B15;}
	.st29{clip-path:url(#SVGID_60_);fill:#004B15;}
	.st30{clip-path:url(#SVGID_62_);fill:#004B15;}
	.st31{clip-path:url(#SVGID_64_);fill:#004B15;}
	.st32{clip-path:url(#SVGID_66_);fill:none;stroke:#000000;stroke-width:7.9458;stroke-miterlimit:10;}
	.st33{clip-path:url(#SVGID_68_);fill:none;stroke:#000000;stroke-width:7.9458;stroke-miterlimit:10;}
	.st34{clip-path:url(#SVGID_70_);fill:none;stroke:#000000;stroke-width:6.9456;stroke-miterlimit:10;}
	.st35{clip-path:url(#SVGID_72_);fill:#F2F2F2;}
	.st36{clip-path:url(#SVGID_74_);fill:none;stroke:#000000;stroke-width:7.9458;stroke-miterlimit:10;}
	.st37{clip-path:url(#SVGID_76_);fill:none;stroke:#000000;stroke-width:6.9456;stroke-miterlimit:10;}
	.st38{clip-path:url(#SVGID_78_);fill:none;stroke:#000000;stroke-width:7.9458;stroke-miterlimit:10;}
	.st39{clip-path:url(#SVGID_80_);fill:none;stroke:#000000;stroke-width:7.9458;stroke-miterlimit:10;}
	.st40{clip-path:url(#SVGID_82_);fill:none;stroke:#000000;stroke-width:7.9458;stroke-miterlimit:10;}
	.st41{clip-path:url(#SVGID_84_);fill:#F2F2F2;}
	.st42{clip-path:url(#SVGID_86_);fill:none;stroke:#000000;stroke-width:7.9458;stroke-miterlimit:10;}
	.st43{clip-path:url(#SVGID_88_);fill:#F2F2F2;}
	.st44{clip-path:url(#SVGID_90_);fill:none;stroke:#000000;stroke-width:7.9458;stroke-linecap:round;stroke-miterlimit:10;}
	.st45{clip-path:url(#SVGID_92_);fill:#C1272D;}
	.st46{clip-path:url(#SVGID_94_);fill:#C1272D;}
	.st47{clip-path:url(#SVGID_96_);}
	.st48{clip-path:url(#SVGID_98_);fill:#092096;}
	.st49{clip-path:url(#SVGID_100_);fill:none;stroke:#000000;stroke-width:7.9458;stroke-miterlimit:10;}
</style>
<g>
	<g>
		<path d="M699.17,491.81c0-1.21,1-2.34,2.34-2.34h28.79c15.06,0,27.42,12.23,27.42,27.04c0,15.19-12.35,27.54-27.29,27.54h-15.31
			v28.79c0,1.21-1.09,2.34-2.34,2.34h-11.27c-1.34,0-2.34-1.08-2.34-2.34L699.17,491.81L699.17,491.81z M729.3,529.15
			c6.84,0,12.6-5.51,12.6-12.73c0-6.72-5.76-11.89-12.6-11.89h-14.19v24.62H729.3z"/>
		<path d="M764.6,528.53c0-1.34,1.09-2.34,2.34-2.34h4.63c1.09,0,1.84,0.63,2.21,1.59l1.71,4.76c1.71-2.46,6.26-7.59,13.85-7.59
			c5.76,0,10.89,1.84,9.43,4.88l-4.55,7.97c-0.63,1.08-1.84,1.59-2.8,1.08c-0.38-0.13-2.21-0.75-3.55-0.75
			c-4.88,0-7.85,3.3-8.68,5.01v29.63c0,1.71-1.09,2.34-2.8,2.34h-9.43c-1.21,0-2.34-1.08-2.34-2.34v-44.23H764.6z"/>
		<path d="M827.28,524.98c12.6,0,22.91,9.56,22.91,22.78c0,0.88-0.13,2.46-0.25,3.3c-0.13,1.21-1.21,2.09-2.34,2.09h-31.34
			c0.38,5.01,4.67,10.64,11.77,10.64c3.8,0,7.34-1.46,9.56-3.05c1.21-0.75,2.34-0.96,3.17,0l5.01,5.76
			c0.88,0.88,1.09,2.21-0.13,3.17c-4.05,3.8-10.27,6.72-18.24,6.72c-14.69,0-25.12-11.64-25.12-25.71
			C802.29,536.87,812.72,524.98,827.28,524.98z M835.84,544.55c-0.38-4.55-4.3-8.35-8.93-8.35c-4.88,0-8.93,3.67-9.56,8.35H835.84z"
			/>
		<path d="M857.79,569.3l3.3-6.59c0.5-1.21,1.71-1.46,2.8-0.88c0,0,5.51,2.92,11.14,2.92c2.46,0,4.17-0.96,4.17-3.05
			c0-2.21-1.71-3.55-8.22-6.13c-9.43-3.67-13.85-8.68-13.85-16.15s5.51-14.44,17.99-14.44c7.22,0,12.48,2.09,15.06,3.8
			c1.09,0.75,1.71,2.09,1.09,3.3l-3.05,6.26c-0.63,1.08-1.96,1.21-2.92,0.88c0,0-5.51-2.59-10.18-2.59c-2.92,0-4.17,1.21-4.17,2.84
			c0,2.21,2.21,2.92,6.72,4.76c9.43,3.67,16.53,7.72,16.53,17.28c0,8.1-7.09,14.94-19.49,14.94c-8.1,0-13.73-2.59-16.27-4.55
			C857.79,571.26,857.29,570.3,857.79,569.3z"/>
		<path d="M903.94,500.36c0-4.67,3.67-8.43,8.35-8.43c4.76,0,8.55,3.8,8.55,8.43s-3.8,8.43-8.55,8.43
			C907.61,508.83,903.94,505.03,903.94,500.36z M905.07,528.53c0-1.34,1.09-2.34,2.34-2.34h10.18c1.21,0,2.34,0.96,2.34,2.34v44.32
			c0,1.21-1.09,2.34-2.34,2.34H907.4c-1.21,0-2.34-1.08-2.34-2.34V528.53z"/>
		<path d="M955.14,524.98c4.88,0,8.68,1.34,10.89,2.21v-35.39c0-1.21,1.09-2.34,2.34-2.34h10.39c1.21,0,2.34,1.08,2.34,2.34v81.04
			c0,1.21-1.09,2.34-2.34,2.34H974c-1.09,0-1.96-0.96-2.34-2.34l-1.21-3.8c0,0-5.76,7.34-16.02,7.34
			c-13.35,0-23.49-11.64-23.49-25.71C930.9,536.37,940.58,524.98,955.14,524.98z M956.23,563.16c6.51,0,9.43-5.01,10.27-7.97v-14.19
			c0,0-3.42-2.8-9.56-2.8c-6.84,0-11.89,5.63-11.89,12.48C945.04,557.53,949.76,563.16,956.23,563.16z"/>
		<path d="M1017.11,524.98c12.6,0,22.91,9.56,22.91,22.78c0,0.88-0.13,2.46-0.25,3.3c-0.13,1.21-1.21,2.09-2.34,2.09h-31.34
			c0.38,5.01,4.67,10.64,11.77,10.64c3.8,0,7.34-1.46,9.56-3.05c1.21-0.75,2.34-0.96,3.17,0l5.01,5.76
			c0.88,0.88,1.08,2.21-0.13,3.17c-4.05,3.8-10.27,6.72-18.24,6.72c-14.69,0-25.12-11.64-25.12-25.71
			C992.16,536.87,1002.55,524.98,1017.11,524.98z M1025.71,544.55c-0.38-4.55-4.3-8.35-8.93-8.35c-4.88,0-8.93,3.67-9.56,8.35
			H1025.71z"/>
		<path d="M1050.33,528.53c0-1.34,1.09-2.34,2.34-2.34h4.63c1.09,0,1.71,0.63,2.09,1.46l1.71,4.55c1.84-1.96,7.85-7.22,17.28-7.22
			c15.57,0,21.78,11.64,21.78,24.37v23.49c0,1.21-1.09,2.34-2.34,2.34h-10.06c-1.34,0-2.34-1.08-2.34-2.34V548.6
			c0-6.38-3.3-10.39-9.18-10.39c-6.38,0-10.27,4.42-11.52,7.72v26.96c0,1.71-0.75,2.34-3.05,2.34h-9.06c-1.21,0-2.34-1.08-2.34-2.34
			v-44.36H1050.33z"/>
		<path d="M1116.1,539.04h-4.17c-1.21,0-2.21-1.08-2.21-2.34v-8.22c0-1.34,1-2.34,2.21-2.34h4.17v-13.6c0-1.21,1.08-2.34,2.34-2.34
			l10.06-0.13c1.21,0,2.21,1.08,2.21,2.34v13.73h10.77c1.34,0,2.34,0.96,2.34,2.34v8.22c0,1.21-0.96,2.34-2.34,2.34h-10.77v19.57
			c0,3.42,1.84,3.92,3.8,3.92c2.09,0,4.67-0.88,6.01-1.34c1.34-0.5,2.34,0.13,2.71,1.34l2.46,7.72c0.5,1.21-0.13,2.46-1.34,2.92
			c-0.63,0.38-8.55,3.17-14.56,3.17c-9.43,0-13.6-5.88-13.6-15.82v-21.49H1116.1z"/>
	</g>
	<g id="Vector_Smart_Object_1_">
		<g>
			<g>
				<defs>
					<rect id="SVGID_1_" x="618.59" y="0.43" width="599.24" height="471.8"/>
				</defs>
				<clipPath id="SVGID_2_">
					<use xlink:href="#SVGID_1_"  style="overflow:visible;"/>
				</clipPath>
				<g class="st0">
					<g>
						<defs>
							<rect id="SVGID_3_" x="618.59" y="0.43" width="599.24" height="471.8"/>
						</defs>
						<clipPath id="SVGID_4_">
							<use xlink:href="#SVGID_3_"  style="overflow:visible;"/>
						</clipPath>
						<path class="st1" d="M1185.12,468.27h-531.6c-6.55,0-11.89-5.34-11.89-11.89v-248c0-6.55,5.34-11.89,11.89-11.89h531.6
							c6.55,0,11.89,5.34,11.89,11.89v248C1197.01,462.93,1191.71,468.23,1185.12,468.27"/>
					</g>
					<g>
						<defs>
							<rect id="SVGID_5_" x="618.59" y="0.43" width="599.24" height="471.8"/>
						</defs>
						<clipPath id="SVGID_6_">
							<use xlink:href="#SVGID_5_"  style="overflow:visible;"/>
						</clipPath>
						<path class="st2" d="M653.52,196.44h531.64c6.59,0,11.93,5.34,11.93,11.89v248c0,6.59-5.34,11.89-11.93,11.89H653.52
							c-6.59,0-11.89-5.34-11.89-11.89V208.37C641.63,201.78,646.92,196.44,653.52,196.44z"/>
					</g>
					<g>
						<defs>
							<rect id="SVGID_7_" x="618.59" y="0.43" width="599.24" height="471.8"/>
						</defs>
						<clipPath id="SVGID_8_">
							<use xlink:href="#SVGID_7_"  style="overflow:visible;"/>
						</clipPath>
						<path class="st3" d="M626.56,440.19h583.3c2.21,0,4.01,1.79,4.01,4.01v20.07c0,2.21-1.79,4.01-4.01,4.01h-583.3
							c-2.21,0-4.01-1.79-4.01-4.01v-20.07C622.6,441.98,624.39,440.19,626.56,440.19z"/>
					</g>
					<g>
						<defs>
							<rect id="SVGID_9_" x="618.59" y="0.43" width="599.24" height="471.8"/>
						</defs>
						<clipPath id="SVGID_10_">
							<use xlink:href="#SVGID_9_"  style="overflow:visible;"/>
						</clipPath>
						<rect x="650.72" y="274.81" class="st4" width="19.03" height="56.25"/>
					</g>
					<g>
						<defs>
							<rect id="SVGID_11_" x="618.59" y="0.43" width="599.24" height="471.8"/>
						</defs>
						<clipPath id="SVGID_12_">
							<use xlink:href="#SVGID_11_"  style="overflow:visible;"/>
						</clipPath>
						<rect x="650.72" y="274.81" class="st5" width="19.03" height="56.25"/>
					</g>
					<g>
						<defs>
							<rect id="SVGID_13_" x="618.59" y="0.43" width="599.24" height="471.8"/>
						</defs>
						<clipPath id="SVGID_14_">
							<use xlink:href="#SVGID_13_"  style="overflow:visible;"/>
						</clipPath>
						<path class="st6" d="M698,272.85h14.36c2.42,0,4.38,1.96,4.38,4.38v47.74c0,2.42-1.96,4.38-4.38,4.38H698
							c-2.42,0-4.38-1.96-4.38-4.38v-47.74C693.58,274.81,695.54,272.85,698,272.85z"/>
					</g>
					<g>
						<defs>
							<rect id="SVGID_15_" x="618.59" y="0.43" width="599.24" height="471.8"/>
						</defs>
						<clipPath id="SVGID_16_">
							<use xlink:href="#SVGID_15_"  style="overflow:visible;"/>
						</clipPath>
						<path class="st7" d="M653.06,272.85h14.36c2.42,0,4.38,1.96,4.38,4.38v47.74c0,2.42-1.96,4.38-4.38,4.38h-14.36
							c-2.42,0-4.38-1.96-4.38-4.38v-47.74C648.64,274.81,650.6,272.85,653.06,272.85z"/>
					</g>
					<g>
						<defs>
							<rect id="SVGID_17_" x="618.59" y="0.43" width="599.24" height="471.8"/>
						</defs>
						<clipPath id="SVGID_18_">
							<use xlink:href="#SVGID_17_"  style="overflow:visible;"/>
						</clipPath>
						<path class="st8" d="M742.95,272.85h14.36c2.42,0,4.38,1.96,4.38,4.38v47.74c0,2.42-1.96,4.38-4.38,4.38h-14.36
							c-2.42,0-4.38-1.96-4.38-4.38v-47.74C738.56,274.81,740.53,272.85,742.95,272.85z"/>
					</g>
					<g>
						<defs>
							<rect id="SVGID_19_" x="618.59" y="0.43" width="599.24" height="471.8"/>
						</defs>
						<clipPath id="SVGID_20_">
							<use xlink:href="#SVGID_19_"  style="overflow:visible;"/>
						</clipPath>
						<path class="st9" d="M787.89,272.85h14.36c2.42,0,4.38,1.96,4.38,4.38v47.74c0,2.42-1.96,4.38-4.38,4.38h-14.36
							c-2.42,0-4.38-1.96-4.38-4.38v-47.74C783.47,274.81,785.47,272.85,787.89,272.85z"/>
					</g>
					<g>
						<defs>
							<rect id="SVGID_21_" x="618.59" y="0.43" width="599.24" height="471.8"/>
						</defs>
						<clipPath id="SVGID_22_">
							<use xlink:href="#SVGID_21_"  style="overflow:visible;"/>
						</clipPath>
						<path class="st10" d="M842.47,272.85h14.36c2.42,0,4.38,1.96,4.38,4.38v47.74c0,2.42-1.96,4.38-4.38,4.38h-14.36
							c-2.42,0-4.38-1.96-4.38-4.38v-47.74C838.05,274.81,840.01,272.85,842.47,272.85z"/>
					</g>
					<g>
						<defs>
							<rect id="SVGID_23_" x="618.59" y="0.43" width="599.24" height="471.8"/>
						</defs>
						<clipPath id="SVGID_24_">
							<use xlink:href="#SVGID_23_"  style="overflow:visible;"/>
						</clipPath>
						<path class="st11" d="M908.32,272.85h14.36c2.42,0,4.42,1.96,4.42,4.38v47.74c0,2.42-1.96,4.38-4.42,4.38h-14.36
							c-2.42,0-4.38-1.96-4.38-4.38v-47.74C903.9,274.81,905.9,272.85,908.32,272.85z"/>
					</g>
					<g>
						<defs>
							<rect id="SVGID_25_" x="618.59" y="0.43" width="599.24" height="471.8"/>
						</defs>
						<clipPath id="SVGID_26_">
							<use xlink:href="#SVGID_25_"  style="overflow:visible;"/>
						</clipPath>
						<path class="st12" d="M971,272.85h14.36c2.42,0,4.38,1.96,4.38,4.38v47.74c0,2.42-1.96,4.38-4.38,4.38H971
							c-2.42,0-4.38-1.96-4.38-4.38v-47.74C966.62,274.81,968.58,272.85,971,272.85z"/>
					</g>
					<g>
						<defs>
							<rect id="SVGID_27_" x="618.59" y="0.43" width="599.24" height="471.8"/>
						</defs>
						<clipPath id="SVGID_28_">
							<use xlink:href="#SVGID_27_"  style="overflow:visible;"/>
						</clipPath>
						<path class="st13" d="M1033.39,272.85h14.36c2.42,0,4.38,1.96,4.38,4.38v47.74c0,2.42-1.96,4.38-4.38,4.38h-14.36
							c-2.42,0-4.38-1.96-4.38-4.38v-47.74C1028.96,274.81,1030.92,272.85,1033.39,272.85z"/>
					</g>
					<g>
						<defs>
							<rect id="SVGID_29_" x="618.59" y="0.43" width="599.24" height="471.8"/>
						</defs>
						<clipPath id="SVGID_30_">
							<use xlink:href="#SVGID_29_"  style="overflow:visible;"/>
						</clipPath>
						<path class="st14" d="M1079.16,272.85h14.36c2.42,0,4.38,1.96,4.38,4.38v47.74c0,2.42-1.96,4.38-4.38,4.38h-14.36
							c-2.42,0-4.38-1.96-4.38-4.38v-47.74C1074.78,274.81,1076.74,272.85,1079.16,272.85z"/>
					</g>
					<g>
						<defs>
							<rect id="SVGID_31_" x="618.59" y="0.43" width="599.24" height="471.8"/>
						</defs>
						<clipPath id="SVGID_32_">
							<use xlink:href="#SVGID_31_"  style="overflow:visible;"/>
						</clipPath>
						<path class="st15" d="M1121.9,272.85h14.36c2.42,0,4.42,1.96,4.42,4.38v47.74c0,2.42-1.96,4.38-4.42,4.38h-14.36
							c-2.42,0-4.38-1.96-4.38-4.38v-47.74C1117.51,274.81,1119.52,272.85,1121.9,272.85z"/>
					</g>
					<g>
						<defs>
							<rect id="SVGID_33_" x="618.59" y="0.43" width="599.24" height="471.8"/>
						</defs>
						<clipPath id="SVGID_34_">
							<use xlink:href="#SVGID_33_"  style="overflow:visible;"/>
						</clipPath>
						<path class="st16" d="M1167.22,272.85h14.36c2.42,0,4.42,1.96,4.42,4.38v47.74c0,2.42-1.96,4.38-4.42,4.38h-14.36
							c-2.42,0-4.38-1.96-4.38-4.38v-47.74C1162.83,274.81,1164.79,272.85,1167.22,272.85z"/>
					</g>
					<g>
						<defs>
							<rect id="SVGID_35_" x="618.59" y="0.43" width="599.24" height="471.8"/>
						</defs>
						<clipPath id="SVGID_36_">
							<use xlink:href="#SVGID_35_"  style="overflow:visible;"/>
						</clipPath>
						<path class="st17" d="M653.06,365.11h14.36c2.42,0,4.38,1.96,4.38,4.38v47.74c0,2.42-1.96,4.38-4.38,4.38h-14.36
							c-2.42,0-4.38-1.96-4.38-4.38v-47.74C648.64,367.07,650.6,365.11,653.06,365.11z"/>
					</g>
					<g>
						<defs>
							<rect id="SVGID_37_" x="618.59" y="0.43" width="599.24" height="471.8"/>
						</defs>
						<clipPath id="SVGID_38_">
							<use xlink:href="#SVGID_37_"  style="overflow:visible;"/>
						</clipPath>
						<path class="st18" d="M698.04,365.11h14.36c2.42,0,4.38,1.96,4.38,4.38v47.74c0,2.42-1.96,4.38-4.38,4.38h-14.36
							c-2.42,0-4.38-1.96-4.38-4.38v-47.74C693.62,367.07,695.58,365.11,698.04,365.11z"/>
					</g>
					<g>
						<defs>
							<rect id="SVGID_39_" x="618.59" y="0.43" width="599.24" height="471.8"/>
						</defs>
						<clipPath id="SVGID_40_">
							<use xlink:href="#SVGID_39_"  style="overflow:visible;"/>
						</clipPath>
						<path class="st19" d="M742.99,365.11h14.36c2.42,0,4.42,1.96,4.42,4.38v47.74c0,2.42-1.96,4.38-4.42,4.38h-14.36
							c-2.42,0-4.38-1.96-4.38-4.38v-47.74C738.61,367.07,740.57,365.11,742.99,365.11z"/>
					</g>
					<g>
						<defs>
							<rect id="SVGID_41_" x="618.59" y="0.43" width="599.24" height="471.8"/>
						</defs>
						<clipPath id="SVGID_42_">
							<use xlink:href="#SVGID_41_"  style="overflow:visible;"/>
						</clipPath>
						<path class="st20" d="M787.89,365.11h14.36c2.42,0,4.38,1.96,4.38,4.38v47.74c0,2.42-1.96,4.38-4.38,4.38h-14.36
							c-2.42,0-4.38-1.96-4.38-4.38v-47.74C783.47,367.07,785.47,365.11,787.89,365.11z"/>
					</g>
					<g>
						<defs>
							<rect id="SVGID_43_" x="618.59" y="0.43" width="599.24" height="471.8"/>
						</defs>
						<clipPath id="SVGID_44_">
							<use xlink:href="#SVGID_43_"  style="overflow:visible;"/>
						</clipPath>
						<path class="st21" d="M844.18,365.11h14.36c2.42,0,4.38,1.96,4.38,4.38v47.74c0,2.42-1.96,4.38-4.38,4.38h-14.36
							c-2.42,0-4.38-1.96-4.38-4.38v-47.74C839.8,367.07,841.76,365.11,844.18,365.11z"/>
					</g>
					<g>
						<defs>
							<rect id="SVGID_45_" x="618.59" y="0.43" width="599.24" height="471.8"/>
						</defs>
						<clipPath id="SVGID_46_">
							<use xlink:href="#SVGID_45_"  style="overflow:visible;"/>
						</clipPath>
						<path class="st22" d="M900.52,365.11h27.75c2.42,0,4.38,1.96,4.38,4.38v63.97c0,2.42-1.96,4.38-4.38,4.38h-27.75
							c-2.42,0-4.38-1.96-4.38-4.38v-63.97C896.1,367.07,898.06,365.11,900.52,365.11z"/>
					</g>
					<g>
						<defs>
							<rect id="SVGID_47_" x="618.59" y="0.43" width="599.24" height="471.8"/>
						</defs>
						<clipPath id="SVGID_48_">
							<use xlink:href="#SVGID_47_"  style="overflow:visible;"/>
						</clipPath>
						<path class="st23" d="M971,365.11h14.36c2.42,0,4.38,1.96,4.38,4.38v47.74c0,2.42-1.96,4.38-4.38,4.38H971
							c-2.42,0-4.38-1.96-4.38-4.38v-47.74C966.62,367.07,968.58,365.11,971,365.11z"/>
					</g>
					<g>
						<defs>
							<rect id="SVGID_49_" x="618.59" y="0.43" width="599.24" height="471.8"/>
						</defs>
						<clipPath id="SVGID_50_">
							<use xlink:href="#SVGID_49_"  style="overflow:visible;"/>
						</clipPath>
						<path class="st24" d="M1033.39,366.78h14.36c2.42,0,4.38,1.96,4.38,4.38v47.74c0,2.42-1.96,4.38-4.38,4.38h-14.36
							c-2.42,0-4.38-1.96-4.38-4.38v-47.7C1028.96,368.74,1030.92,366.78,1033.39,366.78z"/>
					</g>
					<g>
						<defs>
							<rect id="SVGID_51_" x="618.59" y="0.43" width="599.24" height="471.8"/>
						</defs>
						<clipPath id="SVGID_52_">
							<use xlink:href="#SVGID_51_"  style="overflow:visible;"/>
						</clipPath>
						<path class="st25" d="M1079.16,366.78h14.36c2.42,0,4.38,1.96,4.38,4.38v47.74c0,2.42-1.96,4.38-4.38,4.38h-14.36
							c-2.42,0-4.38-1.96-4.38-4.38v-47.7C1074.78,368.74,1076.74,366.78,1079.16,366.78z"/>
					</g>
					<g>
						<defs>
							<rect id="SVGID_53_" x="618.59" y="0.43" width="599.24" height="471.8"/>
						</defs>
						<clipPath id="SVGID_54_">
							<use xlink:href="#SVGID_53_"  style="overflow:visible;"/>
						</clipPath>
						<path class="st26" d="M1121.9,366.78h14.36c2.42,0,4.42,1.96,4.42,4.38v47.74c0,2.42-1.96,4.38-4.42,4.38h-14.36
							c-2.42,0-4.38-1.96-4.38-4.38v-47.7C1117.51,368.74,1119.52,366.78,1121.9,366.78z"/>
					</g>
					<g>
						<defs>
							<rect id="SVGID_55_" x="618.59" y="0.43" width="599.24" height="471.8"/>
						</defs>
						<clipPath id="SVGID_56_">
							<use xlink:href="#SVGID_55_"  style="overflow:visible;"/>
						</clipPath>
						<path class="st27" d="M1167.22,366.78h14.36c2.42,0,4.42,1.96,4.42,4.38v47.74c0,2.42-1.96,4.38-4.42,4.38h-14.36
							c-2.42,0-4.38-1.96-4.38-4.38v-47.7C1162.83,368.74,1164.79,366.78,1167.22,366.78z"/>
					</g>
					<g>
						<defs>
							<rect id="SVGID_57_" x="618.59" y="0.43" width="599.24" height="471.8"/>
						</defs>
						<clipPath id="SVGID_58_">
							<use xlink:href="#SVGID_57_"  style="overflow:visible;"/>
						</clipPath>
						<path class="st28" d="M653.52,412.1h46.45c6.59,0,11.89,5.34,11.89,11.89v32.34c0,6.55-5.34,11.89-11.89,11.89h-46.45
							c-6.55,0-11.89-5.34-11.89-11.89v-32.34C641.63,417.44,646.97,412.1,653.52,412.1"/>
					</g>
					<g>
						<defs>
							<rect id="SVGID_59_" x="618.59" y="0.43" width="599.24" height="471.8"/>
						</defs>
						<clipPath id="SVGID_60_">
							<use xlink:href="#SVGID_59_"  style="overflow:visible;"/>
						</clipPath>
						<path class="st29" d="M751.75,412.1h46.45c6.59,0,11.89,5.34,11.89,11.89v32.34c0,6.55-5.34,11.89-11.89,11.89h-46.45
							c-6.55,0-11.89-5.34-11.89-11.89v-32.34C739.86,417.44,745.2,412.1,751.75,412.1"/>
					</g>
					<g>
						<defs>
							<rect id="SVGID_61_" x="618.59" y="0.43" width="599.24" height="471.8"/>
						</defs>
						<clipPath id="SVGID_62_">
							<use xlink:href="#SVGID_61_"  style="overflow:visible;"/>
						</clipPath>
						<path class="st30" d="M1035.93,412.1h46.36c6.55,0,11.85,5.34,11.89,11.89v32.34c0,6.55-5.34,11.89-11.89,11.89h-46.36
							c-6.55,0-11.89-5.34-11.89-11.89v-32.34C1024.04,417.44,1029.34,412.1,1035.93,412.1"/>
					</g>
					<g>
						<defs>
							<rect id="SVGID_63_" x="618.59" y="0.43" width="599.24" height="471.8"/>
						</defs>
						<clipPath id="SVGID_64_">
							<use xlink:href="#SVGID_63_"  style="overflow:visible;"/>
						</clipPath>
						<path class="st31" d="M1134.16,412.1h46.45c6.59,0,11.89,5.34,11.89,11.89v32.34c0,6.55-5.34,11.89-11.89,11.89h-46.45
							c-6.55,0-11.89-5.34-11.89-11.89v-32.34C1122.27,417.44,1127.57,412.1,1134.16,412.1"/>
					</g>
					<g>
						<defs>
							<rect id="SVGID_65_" x="618.59" y="0.43" width="599.24" height="471.8"/>
						</defs>
						<clipPath id="SVGID_66_">
							<use xlink:href="#SVGID_65_"  style="overflow:visible;"/>
						</clipPath>
						<rect x="814.89" y="254.86" class="st32" width="18.44" height="183.03"/>
					</g>
					<g>
						<defs>
							<rect id="SVGID_67_" x="618.59" y="0.43" width="599.24" height="471.8"/>
						</defs>
						<clipPath id="SVGID_68_">
							<use xlink:href="#SVGID_67_"  style="overflow:visible;"/>
						</clipPath>
						<rect x="994.49" y="254.86" class="st33" width="18.44" height="183.03"/>
					</g>
					<g>
						<defs>
							<rect id="SVGID_69_" x="618.59" y="0.43" width="599.24" height="471.8"/>
						</defs>
						<clipPath id="SVGID_70_">
							<use xlink:href="#SVGID_69_"  style="overflow:visible;"/>
						</clipPath>
						<rect x="874.6" y="254.86" class="st34" width="18.9" height="183.03"/>
					</g>
					<g>
						<defs>
							<rect id="SVGID_71_" x="618.59" y="0.43" width="599.24" height="471.8"/>
						</defs>
						<clipPath id="SVGID_72_">
							<use xlink:href="#SVGID_71_"  style="overflow:visible;"/>
						</clipPath>
						<path class="st35" d="M1201.48,254.82H636.74c-3.17,0-5.76-2.59-5.76-5.76v-10.85c0-3.17,2.59-5.76,5.76-5.76h564.73
							c3.17,0,5.76,2.59,5.76,5.76v10.85C1207.23,252.23,1204.65,254.82,1201.48,254.82"/>
					</g>
					<g>
						<defs>
							<rect id="SVGID_73_" x="618.59" y="0.43" width="599.24" height="471.8"/>
						</defs>
						<clipPath id="SVGID_74_">
							<use xlink:href="#SVGID_73_"  style="overflow:visible;"/>
						</clipPath>
						<path class="st36" d="M636.74,232.37h564.73c3.17,0,5.76,2.59,5.76,5.76v10.89c0,3.17-2.59,5.76-5.76,5.76H636.74
							c-3.17,0-5.76-2.59-5.76-5.76v-10.89C630.98,234.96,633.57,232.37,636.74,232.37z"/>
					</g>
					<g>
						<defs>
							<rect id="SVGID_75_" x="618.59" y="0.43" width="599.24" height="471.8"/>
						</defs>
						<clipPath id="SVGID_76_">
							<use xlink:href="#SVGID_75_"  style="overflow:visible;"/>
						</clipPath>
						<rect x="937.49" y="254.86" class="st37" width="18.9" height="183.03"/>
					</g>
					<g>
						<defs>
							<rect id="SVGID_77_" x="618.59" y="0.43" width="599.24" height="471.8"/>
						</defs>
						<clipPath id="SVGID_78_">
							<use xlink:href="#SVGID_77_"  style="overflow:visible;"/>
						</clipPath>
						<path class="st38" d="M860.67,454.21H973.5c2.59,0,4.72,2.13,4.72,4.72v4.59c0,2.59-2.13,4.72-4.72,4.72H860.67
							c-2.59,0-4.72-2.13-4.72-4.72v-4.59C855.95,456.33,858.08,454.21,860.67,454.21z"/>
					</g>
					<g>
						<defs>
							<rect id="SVGID_79_" x="618.59" y="0.43" width="599.24" height="471.8"/>
						</defs>
						<clipPath id="SVGID_80_">
							<use xlink:href="#SVGID_79_"  style="overflow:visible;"/>
						</clipPath>
						<rect x="874.6" y="441.44" class="st39" width="81.79" height="12.81"/>
					</g>
					<g>
						<defs>
							<rect id="SVGID_81_" x="618.59" y="0.43" width="599.24" height="471.8"/>
						</defs>
						<clipPath id="SVGID_82_">
							<use xlink:href="#SVGID_81_"  style="overflow:visible;"/>
						</clipPath>
						<rect x="814.89" y="196.44" class="st40" width="198.05" height="33.18"/>
					</g>
					<g>
						<defs>
							<rect id="SVGID_83_" x="618.59" y="0.43" width="599.24" height="471.8"/>
						</defs>
						<clipPath id="SVGID_84_">
							<use xlink:href="#SVGID_83_"  style="overflow:visible;"/>
						</clipPath>
						<rect x="806.63" y="163.72" class="st41" width="214.41" height="32.72"/>
					</g>
					<g>
						<defs>
							<rect id="SVGID_85_" x="618.59" y="0.43" width="599.24" height="471.8"/>
						</defs>
						<clipPath id="SVGID_86_">
							<use xlink:href="#SVGID_85_"  style="overflow:visible;"/>
						</clipPath>
						<rect x="806.63" y="163.72" class="st42" width="214.41" height="32.72"/>
					</g>
					<g>
						<defs>
							<rect id="SVGID_87_" x="618.59" y="0.43" width="599.24" height="471.8"/>
						</defs>
						<clipPath id="SVGID_88_">
							<use xlink:href="#SVGID_87_"  style="overflow:visible;"/>
						</clipPath>
						<polygon class="st43" points="913.7,97.5 816.02,160.51 1011.35,160.51 						"/>
					</g>
					<g>
						<defs>
							<rect id="SVGID_89_" x="618.59" y="0.43" width="599.24" height="471.8"/>
						</defs>
						<clipPath id="SVGID_90_">
							<use xlink:href="#SVGID_89_"  style="overflow:visible;"/>
						</clipPath>
						<polygon class="st44" points="913.7,97.5 816.02,160.51 1011.35,160.51 						"/>
					</g>
					<g>
						<defs>
							<rect id="SVGID_91_" x="618.59" y="0.43" width="599.24" height="471.8"/>
						</defs>
						<clipPath id="SVGID_92_">
							<use xlink:href="#SVGID_91_"  style="overflow:visible;"/>
						</clipPath>
						<rect x="943.75" y="11.99" class="st45" width="30.05" height="11.02"/>
					</g>
					<g>
						<defs>
							<rect id="SVGID_93_" x="618.59" y="0.43" width="599.24" height="471.8"/>
						</defs>
						<clipPath id="SVGID_94_">
							<use xlink:href="#SVGID_93_"  style="overflow:visible;"/>
						</clipPath>
						<rect x="937.95" y="34.74" class="st46" width="34.89" height="8.64"/>
					</g>
					<g>
						<defs>
							<rect id="SVGID_95_" x="618.59" y="0.43" width="599.24" height="471.8"/>
						</defs>
						<clipPath id="SVGID_96_">
							<use xlink:href="#SVGID_95_"  style="overflow:visible;"/>
						</clipPath>
						<path class="st47" d="M914.04,102.42L914.04,102.42c-2.88,0-5.22-2.34-5.22-5.22V5.69c0-2.92,2.34-5.26,5.22-5.26
							s5.22,2.34,5.22,5.26v91.56C919.21,100.09,916.92,102.42,914.04,102.42"/>
					</g>
					<g>
						<defs>
							<rect id="SVGID_97_" x="618.59" y="0.43" width="599.24" height="471.8"/>
						</defs>
						<clipPath id="SVGID_98_">
							<use xlink:href="#SVGID_97_"  style="overflow:visible;"/>
						</clipPath>
						<rect x="916.79" y="12.95" class="st48" width="26.92" height="30.42"/>
					</g>
					<g>
						<defs>
							<rect id="SVGID_99_" x="618.59" y="0.43" width="599.24" height="471.8"/>
						</defs>
						<clipPath id="SVGID_100_">
							<use xlink:href="#SVGID_99_"  style="overflow:visible;"/>
						</clipPath>
						<path class="st49" d="M919.26,10.24h50.58c2.88,0,5.26,2.34,5.26,5.22v41.02c0,2.88-2.38,5.26-5.26,5.26h-50.58
							c-2.88,0-5.22-2.38-5.22-5.26V15.46C914,12.58,916.33,10.24,919.26,10.24z"/>
					</g>
				</g>
			</g>
		</g>
	</g>
</g>
</svg>
