<?xml version="1.0" encoding="utf-8"?>
<!-- Generator: Adobe Illustrator 24.0.1, SVG Export Plug-In . SVG Version: 6.00 Build 0)  -->
<svg version="1.1" id="Layer_1" xmlns="http://www.w3.org/2000/svg" xmlns:xlink="http://www.w3.org/1999/xlink" x="0px" y="0px"
	 viewBox="0 0 1836.42 576.43" style="enable-background:new 0 0 1836.42 576.43;" xml:space="preserve">
<style type="text/css">
	.st0{fill:none;stroke:#000000;stroke-width:12.4384;stroke-miterlimit:10;}
</style>
<g>
	<g>
		<line class="st0" x1="731.03" y1="374.59" x2="731.03" y2="477.83"/>
		<line class="st0" x1="1106.03" y1="374.59" x2="1106.03" y2="477.83"/>
		<line class="st0" x1="760.24" y1="400.71" x2="760.24" y2="477.83"/>
		<line class="st0" x1="786.35" y1="400.71" x2="786.35" y2="477.83"/>
		<line class="st0" x1="813.72" y1="400.71" x2="813.72" y2="477.83"/>
		<line class="st0" x1="839.83" y1="400.71" x2="839.83" y2="477.83"/>
		<line class="st0" x1="865.99" y1="400.71" x2="865.99" y2="477.83"/>
		<line class="st0" x1="892.1" y1="400.71" x2="892.1" y2="477.83"/>
		<line class="st0" x1="918.84" y1="400.71" x2="918.84" y2="477.83"/>
		<line class="st0" x1="946.21" y1="400.71" x2="946.21" y2="477.83"/>
		<line class="st0" x1="971.06" y1="400.71" x2="971.06" y2="477.83"/>
		<line class="st0" x1="998.44" y1="400.71" x2="998.44" y2="477.83"/>
		<line class="st0" x1="1023.92" y1="400.71" x2="1023.92" y2="477.83"/>
		<line class="st0" x1="1050.08" y1="400.71" x2="1050.08" y2="477.83"/>
		<line class="st0" x1="1077.45" y1="400.71" x2="1077.45" y2="477.83"/>
		<line class="st0" x1="718.58" y1="372.08" x2="1117.85" y2="372.08"/>
		<line class="st0" x1="748.42" y1="316.12" x2="1089.27" y2="316.12"/>
		<line class="st0" x1="762.13" y1="283.76" x2="1075.56" y2="283.76"/>
		<line class="st0" x1="762.13" y1="316.12" x2="762.13" y2="372.08"/>
		<line class="st0" x1="1076.82" y1="314.86" x2="1076.82" y2="370.86"/>
		<line class="st0" x1="778.74" y1="283.76" x2="778.74" y2="316.12"/>
		<line class="st0" x1="1059.38" y1="282.55" x2="1059.38" y2="314.86"/>
		<line class="st0" x1="880.28" y1="81.02" x2="957.4" y2="81.02"/>
		<line class="st0" x1="893.94" y1="134.51" x2="893.94" y2="81.02"/>
		<line class="st0" x1="918.84" y1="134.51" x2="918.84" y2="81.02"/>
		<line class="st0" x1="943.69" y1="134.51" x2="943.69" y2="81.02"/>
		<line class="st0" x1="864.1" y1="135.77" x2="973.58" y2="135.77"/>
		<line class="st0" x1="870.3" y1="168.08" x2="870.3" y2="134.51"/>
		<line class="st0" x1="967.33" y1="168.08" x2="967.33" y2="134.51"/>
		<path class="st0" d="M794.44,282.55c0-70.44,53.97-124.4,124.4-124.4s124.4,53.97,124.4,124.4"/>
		<path class="st0" d="M820.55,285.02c0-69.37,43.7-125.61,97.66-125.61c53.97,0,97.66,56.24,97.66,125.61"/>
		<path class="st0" d="M851.65,287.49c0-69.37,30.08-125.61,67.19-125.61s67.19,56.24,67.19,125.61"/>
		<path class="st0" d="M882.75,283.76c0-69.37,16.13-118.15,36.09-118.15s36.09,48.78,36.09,118.15"/>
		<line class="st0" x1="918.84" y1="283.76" x2="918.84" y2="159.41"/>
		<path class="st0" d="M941.22,78.55c0-12.35-10.03-22.38-22.38-22.38s-22.38,10.03-22.38,22.38"/>
		<path d="M928.24,56.8c0-3.92-4.36-5.81-4.36-5.81l-0.68-0.34c-0.29-0.29,2.42-9.3,3.15-14c0.34-2.03,1.11-1.31,1.94-1.4
			c0.82-0.05,0.82-1.16,0.39-4.36c0,0,0.34-1.07,0.24-1.65c-0.05-0.58-0.87-1.11-1.16-1.11c0,0,0.78-1.6,0.82-2.33
			c0.05-2.62-1.99-4.26-2.71-7.7c-0.34-1.55-2.23-8.19-5.28-6.69c0,0-0.82-0.97-0.29-1.7c0,0,0.92-0.92,0.78-2.52
			c-0.15-1.6-2.23-2.91-2.23-2.91v-1.6c0,0,1.6-0.39,1.16-0.63c-0.44-0.24-0.48-0.48-0.48-0.48s1.36-0.53,0.97-0.73
			c-0.39-0.19-1.11-0.19-1.11-0.19s-0.92-0.92-1.31-0.05c0,0-1.21-0.44-1.65-0.39c-0.44,0.05-0.05,0.73-0.05,0.73
			s-1.26-0.48-1.36-0.24c-0.05,0.24,1.36,1.6,1.36,1.6s-2.76,0.15-2.76,1.5c0,0,0.39,0.44,1.41-0.39c0,0-2.71,3.39-2.42,3.63
			c0.34,0.24,0.92,0,0.92,0s-1.36,2.03-0.78,2.47c0,0-0.87,3.05-0.39,3.34c0.39,0.19,0.87-0.39,1.16-0.68
			c0.92-0.92,1.41-0.29-0.24,1.26c-0.44,0.44-1.79,1.65-2.18,4.26c-0.39,2.57-0.68,2.52-0.97,2.96c-0.34,0.44-2.86,2.81-2.33,7.7
			c0.1,0.87,0.87,1.02,1.45,0.87l0.82,3.68l0.34,3.34c0,0-1.7,3.49-1.5,3.73c0.19,0.24,1.26,0.39,1.26,0.39s-0.34,2.66,0,2.66
			c0.29,0,1.41,0.39,1.41,0.05c0-0.29-0.05-3.68-0.05-3.68l2.86,11.53l-0.44,0.24c0,0-4.46,1.74-4.46,5.76c0,0,2.52-0.05,9.01-0.05
			C924.99,56.8,928.24,56.8,928.24,56.8"/>
		<line class="st0" x1="789.45" y1="369.6" x2="789.45" y2="338.5"/>
		<line class="st0" x1="818.08" y1="369.6" x2="818.08" y2="338.5"/>
		<line class="st0" x1="846.71" y1="369.6" x2="846.71" y2="338.5"/>
		<line class="st0" x1="875.29" y1="369.6" x2="875.29" y2="338.5"/>
		<line class="st0" x1="903.92" y1="369.6" x2="903.92" y2="338.5"/>
		<line class="st0" x1="932.5" y1="369.6" x2="932.5" y2="338.5"/>
		<line class="st0" x1="961.13" y1="369.6" x2="961.13" y2="338.5"/>
		<line class="st0" x1="989.71" y1="369.6" x2="989.71" y2="338.5"/>
		<line class="st0" x1="1019.6" y1="369.6" x2="1019.6" y2="338.5"/>
		<line class="st0" x1="1048.19" y1="369.6" x2="1048.19" y2="338.5"/>
	</g>
	<g>
		<path d="M781.02,564.88l3.78-6.49c0.82-1.45,2.62-1.45,3.58-0.73c0.53,0.29,9.01,6.49,15.84,6.49c5.43,0,9.54-3.58,9.54-8.09
			c0-5.33-4.51-9.01-13.32-12.6c-9.88-3.97-19.72-10.27-19.72-22.62c0-9.35,6.93-20.1,23.59-20.1c10.71,0,18.89,5.43,20.98,7.02
			c1.07,0.63,1.36,2.42,0.63,3.44l-3.97,5.96c-0.82,1.26-2.42,2.08-3.68,1.26c-0.82-0.53-8.82-5.76-14.58-5.76
			c-5.96,0-9.2,3.97-9.2,7.32c0,4.94,3.88,8.28,12.35,11.72c10.17,4.07,21.9,10.17,21.9,23.69c0,10.8-9.35,20.73-24.12,20.73
			c-13.23,0-20.98-6.2-23.06-8.19C780.58,567.06,780.05,566.53,781.02,564.88z"/>
		<path d="M856.49,532.18c10.8,0,19.62,8.19,19.62,19.47c0,0.73-0.1,2.08-0.19,2.81c-0.1,1.07-1.02,1.79-1.99,1.79H847.1
			c0.29,4.31,3.97,9.11,10.08,9.11c3.25,0,6.3-1.26,8.19-2.62c1.02-0.63,1.99-0.82,2.71,0l4.31,4.94c0.73,0.73,0.97,1.89-0.1,2.71
			c-3.44,3.25-8.82,5.76-15.6,5.76c-12.6,0-21.51-9.98-21.51-21.99C835.13,542.35,844.04,532.18,856.49,532.18z M863.86,548.94
			c-0.29-3.88-3.68-7.12-7.65-7.12c-4.21,0-7.65,3.15-8.19,7.12H863.86z"/>
		<path d="M884.93,535.23c0-1.16,0.97-1.99,1.99-1.99h3.97c0.97,0,1.45,0.53,1.79,1.26l1.45,3.88c1.55-1.7,6.69-6.2,14.78-6.2
			c13.32,0,18.65,9.98,18.65,20.88v20.1c0,1.07-0.92,1.99-1.99,1.99h-8.62c-1.16,0-1.99-0.92-1.99-1.99v-20.73
			c0-5.43-2.81-8.91-7.85-8.91c-5.43,0-8.82,3.78-9.83,6.59v23.06c0,1.45-0.63,1.99-2.62,1.99h-7.75c-1.07,0-1.99-0.92-1.99-1.99
			L884.93,535.23L884.93,535.23z"/>
		<path d="M953.09,548.6c4.21,0,7.65,1.16,7.65,1.16c0.1-5.33-1.55-7.22-5.43-7.22s-9.35,0.82-11.72,1.55
			c-1.45,0.44-2.23-0.53-2.42-1.89l-0.92-5.43c-0.34-1.55,0.53-2.33,1.45-2.62c0.82-0.29,7.56-1.99,14.24-1.99
			c13.13,0,16.13,6.83,16.13,18.21v22.77c0,1.07-0.92,1.99-1.99,1.99h-3.78c-0.73,0-1.26-0.29-1.79-1.45l-1.26-2.81
			c-2.42,2.18-6.3,5.33-12.79,5.33c-8.38,0-14.15-5.43-14.15-14.34C936.28,554.37,942.39,548.6,953.09,548.6z M953.29,567.3
			c3.34,0,6.59-2.81,7.22-4.07v-5.76c0,0-2.81-1.26-5.86-1.26c-4.07,0-6.83,2.33-6.83,5.67C947.81,564.98,950.04,567.3,953.29,567.3
			z"/>
		<path d="M986.32,544.24h-3.58c-1.02,0-1.89-0.92-1.89-1.99v-7.02c0-1.16,0.82-1.99,1.89-1.99h3.58v-11.63
			c0-1.07,0.97-1.99,1.99-1.99l8.57-0.1c1.07,0,1.89,0.92,1.89,1.99v11.72h9.2c1.16,0,1.99,0.82,1.99,1.99v7.02
			c0,1.07-0.82,1.99-1.99,1.99h-9.2v16.76c0,2.96,1.6,3.34,3.25,3.34c1.79,0,3.97-0.73,5.14-1.16c1.16-0.44,1.99,0.1,2.28,1.16
			l2.08,6.59c0.44,1.07-0.1,2.08-1.16,2.52c-0.53,0.29-7.32,2.71-12.45,2.71c-8.09,0-11.63-5.04-11.63-13.52v-18.41H986.32z"/>
		<path d="M1038.5,532.18c10.8,0,19.62,8.19,19.62,19.47c0,0.73-0.1,2.08-0.19,2.81c-0.1,1.07-1.02,1.79-1.99,1.79h-26.84
			c0.29,4.31,3.97,9.11,10.08,9.11c3.25,0,6.3-1.26,8.19-2.62c1.02-0.63,1.99-0.82,2.71,0l4.31,4.94c0.73,0.73,0.97,1.89-0.1,2.71
			c-3.44,3.25-8.82,5.76-15.6,5.76c-12.6,0-21.51-9.98-21.51-21.99C1017.13,542.35,1026.05,532.18,1038.5,532.18z M1045.86,548.94
			c-0.29-3.88-3.68-7.12-7.65-7.12c-4.21,0-7.65,3.15-8.19,7.12H1045.86z"/>
	</g>
</g>
</svg>
