<?xml version="1.0" encoding="utf-8"?>
<!-- Generator: Adobe Illustrator 18.0.0, SVG Export Plug-In . SVG Version: 6.00 Build 0)  -->
<!DOCTYPE svg PUBLIC "-//W3C//DTD SVG 1.1//EN" "http://www.w3.org/Graphics/SVG/1.1/DTD/svg11.dtd">
<svg version="1.1" id="Layer_1" xmlns="http://www.w3.org/2000/svg" xmlns:xlink="http://www.w3.org/1999/xlink" x="0px" y="0px"
	 viewBox="0 30 300 39.9" enable-background="new 0 30 300 39.9" xml:space="preserve">
<path d="M22.5,34.3c0-3.2-3-4.2-5.6-4v0.5c1.5,0,2.7,0.5,2.7,1.6c0,0.7-0.5,1.6-2,1.6c-1.2,0-3.5-0.7-5.4-1.3
	c-2.1-0.7-4-1.4-5.6-1.4c-3.2,0-5.6,2.4-5.6,5.3c0,2.4,1.8,3.2,2.5,3.5l0.2-0.4c-0.5-0.3-0.9-0.7-0.9-1.6c0-0.7,0.6-1.8,2.3-1.8
	c1.5,0,3.4,0.7,6,1.4c2.2,0.6,4.7,1.2,6,1.4v5l-2.5,2.1v0.2l2.5,2.2v6.9c-1.3,0.7-2.8,0.9-4,0.9c-2.4,0-4.6-0.6-6.4-2.6l6.7-3.2
	V39.4L5.1,43c0.9-2.2,2.6-3.6,4.3-4.7L9.3,38C4.4,39.3,0,43.8,0,49.3c0,6.6,5.4,11.5,11.5,11.5c6.6,0,10.8-5.2,10.7-10.6l-0.4,0
	c-1,2.1-2.4,4.1-4.2,5.1v-6.8l2.6-2.1l0-0.2L17.6,44v-5C20,39,22.5,37.4,22.5,34.3L22.5,34.3z M8.3,52.4l-2,1
	c-1.1-1.5-1.9-3.5-1.9-6.2c0-1.1,0.1-2.5,0.5-3.5l3.4-1.5L8.3,52.4L8.3,52.4z M25.6,56l-2.2,1.6l0.3,0.3l1-0.7l3.6,3.3l4.9-3.3
	l-0.2-0.3l-1.3,0.8l-1.6-1.6V44.9l1.3-1l2.8,2.3v9.9c0,6.2-1.4,7.2-4.2,8.2v0.4c4.6,0.2,8.8-1.4,8.8-9.3V44.8l1.5-1.2l-0.3-0.3
	l-1.3,1l-4-3.5l-4.7,3.5V30.9h-0.3l-5.8,3.9v0.3c0.6,0.4,1.6,0.6,1.6,2.5V56L25.6,56z M55.4,54.2l-4,3.1l-4.2-3.3v-1.9L55,47v-0.2
	l-3.8-5.9l-8.4,4.5V56l-1.7,1.3l0.3,0.3l1.5-1.2l5.5,4l7.4-5.8L55.4,54.2L55.4,54.2z M47.3,51.5v-8l0.3-0.2l3.6,5.6L47.3,51.5
	L47.3,51.5z M86.6,32.8c0-0.5-0.1-0.9-0.3-1.5h-0.4c-0.5,1.4-1.1,2.1-2.7,2.1c-1.4,0-2.5-0.9-3.1-1.5c0,0-4.7,5.4-4.7,5.4l0.4,0.4
	l1.3-1.5c1,0.8,1.7,1.5,4,1.6v13.6l-9.5-16.5c-0.7-1.2-2-3.1-4.3-3.1c-2.6,0-4.9,2.2-4.6,5.9h0.5c0.1-1,0.6-2.1,1.7-2.1
	c0.9,0,1.7,0.9,2.1,1.6v5.3c-3,0-4.9,1.4-4.9,3.8c0,1.2,0.6,3.3,2.7,3.7l0-0.4c-0.3-0.3-0.5-0.6-0.5-1.1c0-0.9,0.7-1.5,1.9-1.5
	c0.2,0,0.7,0,0.9,0.1V54c-3.5,0-6.1,1.9-6.1,5.2c0,3.1,2.7,4.6,5.5,4.4l0-0.4c-1.7-0.2-2.7-1-2.7-2.1c0-1.4,1-2.1,2.3-2.1
	c1.3,0,2.5,0.8,3.3,1.7l4.7-5.2l-0.4-0.4l-1.2,1.4c-1.8-1.6-2.8-2.2-4.9-2.5V37.6l13.2,22.9h0.9V37.7C84.3,37.6,86.6,35.7,86.6,32.8
	L86.6,32.8z M98.4,54.2l-4,3.1l-4.2-3.3v-1.9L98,47v-0.2l-3.8-5.9l-8.4,4.5V56L84,57.3l0.3,0.3l1.5-1.2l5.5,4l7.4-5.8L98.4,54.2
	L98.4,54.2z M90.3,51.5v-8l0.3-0.2l3.6,5.6L90.3,51.5L90.3,51.5z M125.1,42.6l-1.2,0.9l-3.1-2.6l-3.6,3.3l1.5,1.4v12.3l-4-2.5v-10
	l1.3-0.9l-3.8-3.5l-3.5,3.3l1.5,1.4v11.7l-0.5,0.3l-3.5-2.4v-9.8c0-2.3-1.1-2.9-2.5-3.8c-1.2-0.7-1.7-1.4-1.7-2.5
	c0-0.9,0.9-1.5,1.4-1.7c0,0,0-0.4,0-0.4c-1.2,0-4.7,1.3-4.8,4.5c0,1.6,0.7,2.3,1.6,3.1c0.8,0.8,1.6,1.5,1.6,2.9v9.4l-1.7,1.4
	l0.3,0.4l1.6-1.2l4.3,3.4l4.1-2.8l4.5,2.8l8.7-5V44.6l2.1-1.6L125.1,42.6L125.1,42.6z M155.4,33.6l-1.6,1.5l-3.6-3.2l-5.3,4v-3.7
	h-0.5l0.1,26.4c-0.5-0.1-1.9-0.4-3.1-0.6l-0.1-22.1c0-1.6-1.2-3.9-4.1-3.9c-3,0-4.9,2.3-4.9,4.6h0.5c0.2-1,0.7-1.8,1.6-1.8
	c1,0,1.9,0.6,1.9,2.8V44c-3,0.1-4.7,1.8-4.7,3.8c0,1.3,0.6,3.3,2.7,3.3l0.1-0.4c-0.7-0.3-0.9-0.7-0.9-1.1c0-0.9,0.9-1.3,2.1-1.3h0.6
	v10.1c-2.4,0.8-3.5,2.6-3.5,4.5c0,2.7,2.2,4.8,5.4,4.8c2.3,0,4.2-0.4,6.3-0.9c1.7-0.3,3.7-0.7,4.7-0.7c1.2,0,1.8,0.6,1.8,1.5
	c0,1.1-0.5,1.6-1.2,1.7l0.1,0.4c2.7-0.5,4.2-2.1,4.2-4.5c0-2.5-2.4-4-5-4c-1.4,0-4,0.4-6.1,0.9c-2.3,0.5-4.5,0.7-5.2,0.7
	c-1.1,0-2.5-0.5-2.5-2.1c0-1.4,1.1-2.4,3.9-2.4c1.5,0,3.2,0.2,5.1,0.7c2,0.4,3.7,1,5.4,1c2.4,0,4.5-0.9,4.5-4.3V35.6l1.9-1.6
	L155.4,33.6L155.4,33.6z M148.7,43.7c-0.4,0.5-1.1,0.9-1.9,0.9c-0.9,0-1.6-0.5-2-0.9v-7.3l1.7-1.1l2.3,2.1V43.7L148.7,43.7z
	 M148.7,48.5c-0.4-0.4-1.1-0.8-1.9-0.8s-1.6,0.5-2,0.8v-4.3c0.3,0.3,1.1,0.9,2,0.9s1.6-0.5,1.9-0.9V48.5L148.7,48.5z M148.7,56.2
	c0,1.3-0.9,2.6-2.6,2.6c-0.3,0-1,0-1.3-0.1v-9.5c0.4-0.4,1.1-0.9,2-0.9c0.8,0,1.5,0.5,1.9,0.9L148.7,56.2L148.7,56.2z M171,44.6
	l-5.3-3.8l-7.9,4.5V56l-1.6,1.3l0.2,0.3l1.3-1l5.2,3.8l8.1-4.9L171,44.6L171,44.6z M162.3,54.9V43.2l4.1,3v11.6L162.3,54.9
	L162.3,54.9z M186.5,41.3c0,0-0.3,0-0.3,0c-0.4,0.4-1,0.7-1.4,0.7c-0.6,0-1.4-0.4-1.8-0.9h-0.3l-2.8,3l-2.8-3l-4.8,3.3l0.2,0.4
	l1.3-0.9l1.7,1.8V56l-2.2,1.6l0.3,0.3l1-0.7l3.9,3.3l5.1-3.4l-0.2-0.3l-1.4,0.9l-1.9-1.7V44.5c0.8,0.9,1.8,1.7,2.9,1.7
	C185.1,46.1,186.3,43.7,186.5,41.3L186.5,41.3z M206.1,56.9l-5.6,3.6l-7.5-11.4l5.3-8.3l0.3,0c0.6,0.6,1.7,1.3,2.7,1.3
	c1.1,0,1.9-0.6,2.4-1.3c0,0,0.3,0,0.3,0c-0.2,3.3-2.4,5.2-4.1,5.2c-1.7,0-2.5-0.8-3.4-1.3l-0.5,0.7l8.2,12.1l1.6-1L206.1,56.9
	L206.1,56.9z M188.2,56l-2.2,1.6l0.3,0.3l1-0.7l3.6,3.3l4.9-3.3l-0.3-0.3l-1.2,0.8l-1.6-1.6V30.9h-0.3l-5.9,3.9v0.3
	c0.6,0.3,1.7,0.5,1.7,2.5L188.2,56L188.2,56z M233.2,34.3c0-3.2-3-4.2-5.6-4v0.5c1.5,0,2.7,0.5,2.7,1.6c0,0.7-0.5,1.6-2,1.6
	c-1.2,0-3.5-0.7-5.4-1.3c-2.1-0.7-4-1.4-5.6-1.4c-3.2,0-5.6,2.4-5.6,5.3c0,2.4,1.8,3.2,2.5,3.5l0.2-0.4c-0.5-0.3-0.9-0.7-0.9-1.6
	c0-0.7,0.6-1.8,2.3-1.8c1.5,0,3.4,0.7,6,1.4c2.2,0.6,4.7,1.2,6,1.4v5l-2.5,2.1v0.2l2.5,2.2v6.9c-1.3,0.7-2.8,0.9-4,0.9
	c-2.4,0-4.6-0.6-6.4-2.6l6.7-3.2V39.4l-8.2,3.7c0.9-2.2,2.6-3.6,4.3-4.7L220,38c-4.9,1.3-9.3,5.8-9.3,11.3c0,6.6,5.4,11.5,11.5,11.5
	c6.6,0,10.8-5.2,10.7-10.6l-0.4,0c-1,2.1-2.4,4.1-4.2,5.1v-6.8l2.6-2.1l0-0.2l-2.6-2.1v-5C230.7,39,233.2,37.4,233.2,34.3
	L233.2,34.3z M219,52.4l-2,1c-1.1-1.5-1.9-3.5-1.9-6.2c0-1.1,0.1-2.5,0.5-3.5l3.4-1.5L219,52.4L219,52.4z M238.8,32.8l-0.2,0
	l-3.3,2.8v0.2l2.8,3.1h0.3l3.3-2.7l0-0.2L238.8,32.8L238.8,32.8z M243.7,56.9l-1.2,0.8l-1.6-1.6V44.9l1.6-1.2l-0.3-0.4l-1.2,0.9
	l-2.8-3.4l-4.7,3.3l0.3,0.4l1.2-0.8l1.4,1.8v10.6l-2.1,1.6l0.2,0.3l1.1-0.8l3.6,3.3l4.9-3.3L243.7,56.9L243.7,56.9z M270.9,56.7
	l-1.2,0.8l-1.7-1.6V44.8l1.7-1.2l-0.3-0.4l-1.4,1.1l-3.7-3.5l-4.8,3.4l-3.7-3.4l-4.7,3.4l-2.9-3.4l-4.7,3.3l0.2,0.4l1.2-0.8l1.6,1.7
	v10.6l-1.3,1.3l3.7,3.1l3.6-3.3l-1.5-1.4v-11l1.4-0.9l2.5,2.3v9.9l-1.2,1.3l3.8,3.1l3.5-3.3l-1.5-1.4V44.7l1.2-0.8l2.7,2.3v9.7
	l-1.1,1.1l3.8,3.5l5-3.4L270.9,56.7L270.9,56.7z M285.1,54.2l-4,3.1l-4.2-3.3v-1.9l7.7-5.2v-0.2l-3.8-5.9l-8.4,4.5v11.1l5.6,4.1
	l7.4-5.8L285.1,54.2L285.1,54.2z M276.9,51.5v-8l0.3-0.2l3.6,5.6L276.9,51.5L276.9,51.5z M300,50l-3.1-2.4c2.1-1.8,2.9-4.3,2.9-5.9
	c0-0.2,0-0.7-0.1-1h-0.4c-0.3,0.9-0.9,1.6-2.2,1.6c-1.2,0-2.1-0.7-2.9-1.6l-7.3,4v5.9l2.7,2.1c-2.8,2.4-3.3,4.2-3.3,5.4
	c0,1.6,0.7,2.8,2.1,3.3l0.2-0.4c-0.3-0.3-0.7-0.5-0.7-1.2c0-0.5,0.7-1.3,1.9-1.3c1.6,0,2.6,1.1,3.1,1.7c0,0,7.1-4.2,7.1-4.2L300,50
	L300,50z M298.3,45.1c-1.1,1.9-3.6,3.8-5,4.9l-1.8-1.4v-5.8c0.7,1.6,2.4,2.9,4.3,2.9C296.8,45.7,297.4,45.6,298.3,45.1L298.3,45.1z
	 M295.4,58.1c-0.8-1.8-2.7-3.1-4.7-3.1c-0.5,0-1.8,0-3.1,0.8c0.7-1.2,2.9-3.6,5.7-5.2l2,1.6V58.1L295.4,58.1z"/>
</svg>
