<svg id="Layer_1" data-name="Layer 1" xmlns="http://www.w3.org/2000/svg" width="400" height="400" viewBox="0 0 400 400"><defs><style>.cls-1{fill:#fff;}.cls-2{fill:#231f20;}</style></defs><path class="cls-1" d="M46.74,3,45.56,396"/><polygon points="10.62 335.07 28.09 365.54 45.56 396 63.22 365.65 80.87 335.28 50.82 335.19 51.82 3.02 41.67 2.98 40.68 335.16 10.62 335.07"/><path class="cls-2" d="M122.85,113.78a.87.87,0,0,1,.93-.78h.83a.93.93,0,0,1,.87.52l11.35,24.34H137l11.35-24.34a.9.9,0,0,1,.88-.52H150a.87.87,0,0,1,.93.78l6.09,34.66a.89.89,0,0,1-.93,1.18h-4.69a1.11,1.11,0,0,1-1-.77l-3-19.55h-.15l-9,20.27a.87.87,0,0,1-.87.57h-.93a.92.92,0,0,1-.88-.57l-9.13-20.27h-.15l-3,19.55a1,1,0,0,1-.93.77H117.7a.93.93,0,0,1-1-1.18Z"/><path class="cls-2" d="M170.82,128.48a10.83,10.83,0,1,1-10.57,10.77A10.76,10.76,0,0,1,170.82,128.48Zm0,16.09a5.15,5.15,0,0,0,5-5.32,5,5,0,1,0-5,5.32Z"/><path class="cls-2" d="M186,130a1,1,0,0,1,1-1h2a.94.94,0,0,1,.92.67l.73,2a7.19,7.19,0,0,1,5.82-3.19c2.43,0,4.59.77,4,2.06l-1.91,3.35a.92.92,0,0,1-1.19.46,5.73,5.73,0,0,0-1.49-.3,4.18,4.18,0,0,0-3.67,2.11v12.48c0,.72-.46,1-1.18,1h-4a1,1,0,0,1-1-1Z"/><path class="cls-2" d="M212.39,128.48a9.46,9.46,0,0,1,9.65,9.59,13,13,0,0,1-.1,1.39,1,1,0,0,1-1,.88H207.75a4.92,4.92,0,0,0,4.95,4.48,7.2,7.2,0,0,0,4-1.28c.51-.31,1-.42,1.34,0l2.11,2.42a.85.85,0,0,1-.05,1.34,11.09,11.09,0,0,1-7.68,2.84,10.83,10.83,0,0,1-.06-21.66Zm3.61,8.25a3.84,3.84,0,0,0-3.76-3.51,4.06,4.06,0,0,0-4,3.51Z"/><path class="cls-2" d="M135.08,174.9a17.48,17.48,0,0,1,12.48,4.79,1,1,0,0,1,.05,1.45l-3.15,3.25a.83.83,0,0,1-1.29,0,12.17,12.17,0,0,0-7.94-3c-6.6,0-11.5,5.51-11.5,12a11.68,11.68,0,0,0,11.55,11.92,12.37,12.37,0,0,0,7.89-2.94,1,1,0,0,1,1.29,0l3.2,3.3a1,1,0,0,1,0,1.39,17.71,17.71,0,0,1-12.53,5,18.57,18.57,0,1,1,0-37.13Z"/><path class="cls-2" d="M161,190.37a10.83,10.83,0,1,1-10.57,10.78A10.76,10.76,0,0,1,161,190.37Zm0,16.09a5.14,5.14,0,0,0,4.95-5.31,5,5,0,1,0-4.95,5.31Z"/><path class="cls-2" d="M176.13,191.87a1,1,0,0,1,1-1H179a.87.87,0,0,1,.88.56l.72,2a9.4,9.4,0,0,1,6.91-3,8.16,8.16,0,0,1,6.71,3.2,10.48,10.48,0,0,1,7.27-3.2c6.6,0,9,4.9,9,10.32v9.85a1,1,0,0,1-1,1h-4.17a1,1,0,0,1-1-1V200.32c0-2.68-1.29-4.38-3.87-4.38a5.19,5.19,0,0,0-4.33,2.17s.05,1,.05,2v10.47a1,1,0,0,1-1,1H191.4a1,1,0,0,1-1-1V200.32c0-2.68-1.19-4.38-3.82-4.38a4.56,4.56,0,0,0-4.33,3.25v11.35a1,1,0,0,1-1,1h-4.18a1,1,0,0,1-1-1Z"/><path class="cls-2" d="M222.66,226c0,.62-.31,1-1.24,1h-4.13a1,1,0,0,1-1-1V191.87a1,1,0,0,1,1-1h2a.91.91,0,0,1,.87.62l.67,1.7a8.94,8.94,0,0,1,6.66-2.84c5.67,0,10,4.9,10,10.83A10.51,10.51,0,0,1,227.25,212a10.33,10.33,0,0,1-4.59-1.13Zm3.76-19.55a5.07,5.07,0,0,0,5-5.26c0-2.89-2-5.26-4.8-5.26a4.43,4.43,0,0,0-4.23,3.15v6.19A6.67,6.67,0,0,0,226.42,206.46Z"/><path class="cls-2" d="M251.08,190.37a9.45,9.45,0,0,1,9.64,9.59,13.18,13.18,0,0,1-.1,1.4,1,1,0,0,1-1,.87h-13.2a4.91,4.91,0,0,0,4.95,4.49,7.17,7.17,0,0,0,4-1.29c.52-.31,1-.41,1.34,0l2.12,2.42a.86.86,0,0,1-.06,1.35,11.13,11.13,0,0,1-7.68,2.83,10.83,10.83,0,0,1,0-21.66Zm3.61,8.25a3.85,3.85,0,0,0-3.77-3.5,4.06,4.06,0,0,0-4,3.5Z"/><path class="cls-2" d="M266.14,196.3h-1.75a1,1,0,0,1-.93-1v-3.45a.93.93,0,0,1,.93-1h1.75v-5.73a1,1,0,0,1,1-1l4.23-.05a1,1,0,0,1,.93,1v5.78h4.54a.94.94,0,0,1,1,1v3.45a1,1,0,0,1-1,1h-4.54v8.25c0,1.45.77,1.65,1.6,1.65a8.46,8.46,0,0,0,2.52-.56.8.8,0,0,1,1.14.56l1,3.25a.93.93,0,0,1-.57,1.24,19.3,19.3,0,0,1-6.14,1.34c-4,0-5.72-2.47-5.72-6.65Z"/><path class="cls-2" d="M282.39,180a3.51,3.51,0,0,1,3.5-3.55,3.56,3.56,0,1,1,0,7.11A3.52,3.52,0,0,1,282.39,180Zm.46,11.87a1,1,0,0,1,1-1h4.28a1,1,0,0,1,1,1v18.67a1,1,0,0,1-1,1h-4.28a1,1,0,0,1-1-1Z"/><path class="cls-2" d="M296.37,196.3h-1.76a1,1,0,0,1-.93-1v-3.45a.94.94,0,0,1,.93-1h1.76v-5.73a1,1,0,0,1,1-1l4.23-.05a1,1,0,0,1,.93,1v5.78H307a1,1,0,0,1,1,1v3.45a1,1,0,0,1-1,1H302.5v8.25c0,1.45.78,1.65,1.6,1.65a8.54,8.54,0,0,0,2.53-.56.79.79,0,0,1,1.13.56l1,3.25a.93.93,0,0,1-.56,1.24,19.3,19.3,0,0,1-6.14,1.34c-4,0-5.72-2.47-5.72-6.65Z"/><path class="cls-2" d="M312.61,180a3.52,3.52,0,0,1,3.51-3.55,3.56,3.56,0,1,1,0,7.11A3.53,3.53,0,0,1,312.61,180Zm.47,11.87a1,1,0,0,1,1-1h4.28a1,1,0,0,1,1,1v18.67a1,1,0,0,1-1,1h-4.28a1,1,0,0,1-1-1Z"/><path class="cls-2" d="M322.77,192.12c-.31-.67,0-1.23.73-1.23H328a.94.94,0,0,1,.93.56l4.18,9.6h.1l4.44-9.6c.25-.51.67-.56,1.23-.56h4c.77,0,1.08.56.72,1.23l-9.44,19.4a1,1,0,0,1-.88.51H333a1,1,0,0,1-.88-.51Z"/><path class="cls-2" d="M356,190.37a9.46,9.46,0,0,1,9.65,9.59,13.2,13.2,0,0,1-.11,1.4,1,1,0,0,1-1,.87H351.4a4.91,4.91,0,0,0,5,4.49,7.14,7.14,0,0,0,4-1.29c.52-.31,1-.41,1.34,0l2.12,2.42a.86.86,0,0,1-.05,1.35,11.14,11.14,0,0,1-7.69,2.83,10.83,10.83,0,0,1,0-21.66Zm3.61,8.25a3.84,3.84,0,0,0-3.76-3.5,4.06,4.06,0,0,0-4,3.5Z"/><path class="cls-2" d="M117,268.36l1.86-3.2a1.19,1.19,0,0,1,1.75-.36c.26.15,4.44,3.2,7.79,3.2,2.68,0,4.69-1.76,4.69-4,0-2.63-2.21-4.44-6.55-6.19-4.84-2-9.69-5.06-9.69-11.14,0-4.59,3.4-9.91,11.6-9.91a18.2,18.2,0,0,1,10.32,3.46,1.28,1.28,0,0,1,.31,1.7l-2,2.94a1.37,1.37,0,0,1-1.81.62c-.41-.26-4.33-2.84-7.17-2.84s-4.54,2-4.54,3.61c0,2.43,1.91,4.08,6.09,5.78,5,2,10.78,5,10.78,11.66,0,5.31-4.59,10.21-11.86,10.21a16.65,16.65,0,0,1-11.35-4C116.77,269.44,116.51,269.18,117,268.36Z"/><path class="cls-2" d="M145.75,258.2H144a1,1,0,0,1-.93-1v-3.46a.94.94,0,0,1,.93-1h1.75v-5.72a1,1,0,0,1,1-1L151,246a1,1,0,0,1,.93,1v5.77h4.54a1,1,0,0,1,1,1v3.46a1,1,0,0,1-1,1h-4.54v8.25c0,1.44.78,1.65,1.6,1.65a8.22,8.22,0,0,0,2.53-.57.8.8,0,0,1,1.13.57l1,3.25a.93.93,0,0,1-.56,1.24,19.59,19.59,0,0,1-6.14,1.34c-4,0-5.73-2.48-5.73-6.66Z"/><path class="cls-2" d="M169.22,260.36a13.29,13.29,0,0,1,3.77.57c0-2.63-.78-3.56-2.69-3.56a24.84,24.84,0,0,0-5.77.78c-.72.2-1.08-.26-1.19-.93l-.46-2.68a1,1,0,0,1,.72-1.29,27.32,27.32,0,0,1,7-1c6.45,0,7.95,3.35,7.95,9v11.19a1,1,0,0,1-1,1h-1.86c-.36,0-.62-.15-.88-.72l-.62-1.39a8.85,8.85,0,0,1-6.29,2.63c-4.12,0-7-2.68-7-7.07C161,263.2,164,260.36,169.22,260.36Zm.11,9.18a4.74,4.74,0,0,0,3.55-2V264.7a8,8,0,0,0-2.88-.62c-2,0-3.36,1.13-3.36,2.78A2.58,2.58,0,0,0,169.33,269.54Z"/><path class="cls-2" d="M185.57,258.2h-1.75a1,1,0,0,1-.93-1v-3.46a.94.94,0,0,1,.93-1h1.75v-5.72a1,1,0,0,1,1-1l4.23-.05a1,1,0,0,1,.93,1v5.77h4.54a1,1,0,0,1,1,1v3.46a1,1,0,0,1-1,1h-4.54v8.25c0,1.44.77,1.65,1.6,1.65a8.22,8.22,0,0,0,2.53-.57.8.8,0,0,1,1.13.57l1,3.25a.93.93,0,0,1-.57,1.24,19.51,19.51,0,0,1-6.13,1.34c-4,0-5.73-2.48-5.73-6.66Z"/><path class="cls-2" d="M211.26,252.27a9.45,9.45,0,0,1,9.64,9.59,13,13,0,0,1-.1,1.39,1,1,0,0,1-1,.88h-13.2a4.92,4.92,0,0,0,4.95,4.49,7.17,7.17,0,0,0,4-1.29c.52-.31,1-.42,1.34,0l2.11,2.42a.84.84,0,0,1,0,1.34,11.09,11.09,0,0,1-7.68,2.84,10.83,10.83,0,0,1-.05-21.66Zm3.61,8.25A3.86,3.86,0,0,0,211.1,257a4.07,4.07,0,0,0-4,3.51Z"/><path class="cls-2" d="M224.1,270.94l1.39-2.79a.79.79,0,0,1,1.19-.36,11.47,11.47,0,0,0,4.69,1.24c1,0,1.76-.41,1.76-1.29s-.72-1.5-3.46-2.58c-4-1.55-5.83-3.66-5.83-6.81s2.32-6.08,7.58-6.08a11.79,11.79,0,0,1,6.35,1.6,1.09,1.09,0,0,1,.46,1.39l-1.29,2.63a1,1,0,0,1-1.23.36,12.33,12.33,0,0,0-4.29-1.08c-1.23,0-1.75.51-1.75,1.18,0,.93.93,1.24,2.84,2,4,1.55,7,3.25,7,7.28,0,3.4-3,6.29-8.2,6.29a11.72,11.72,0,0,1-6.86-1.91A.89.89,0,0,1,224.1,270.94Z"/></svg>