<?xml version="1.0" encoding="utf-8"?>
<!-- Generator: Adobe Illustrator 24.1.0, SVG Export Plug-In . SVG Version: 6.00 Build 0)  -->
<svg version="1.1" id="Layer_1" xmlns="http://www.w3.org/2000/svg" xmlns:xlink="http://www.w3.org/1999/xlink" x="0px" y="0px"
	 viewBox="0 0 400 400" style="enable-background:new 0 0 400 400;" xml:space="preserve">
<style type="text/css">
	.st0{fill:#CCCBCB;stroke:#000000;stroke-width:4;stroke-miterlimit:10;}
</style>
<circle class="st0" cx="200" cy="200" r="193"/>
<g>
	<path d="M171.7,224c8.11,6,18,11.03,30.16,11.03c12.65,0,19.46-5.68,19.46-13.95c0-20.11-51.41-16.54-51.41-44.76
		c0-15.24,13.3-24.81,31.95-24.81c14.27,0,22.7,5.35,30,12.49l-7.14,7.95c-7.3-5.84-13.14-9.24-23.84-9.24
		c-10.87,0-17.68,5.19-17.68,13.3c0,17.84,51.41,14.43,51.41,44.11c0,15.57-13.95,26.11-34.38,26.11c-13.3,0-26.6-5.84-34.87-12.81
		L171.7,224z M196.35,130.43h9.73v26.11h-9.73V130.43z M206.08,241.52v28.06h-9.73v-28.06H206.08z"/>
</g>
</svg>
