<?xml version="1.0" encoding="utf-8"?>
<!-- Generator: Adobe Illustrator 24.1.0, SVG Export Plug-In . SVG Version: 6.00 Build 0)  -->
<svg version="1.1" id="Layer_1" xmlns="http://www.w3.org/2000/svg" xmlns:xlink="http://www.w3.org/1999/xlink" x="0px" y="0px"
	 viewBox="0 0 400 400" style="enable-background:new 0 0 400 400;" xml:space="preserve">
<style type="text/css">
	.st0{fill:#DDDDDD;}
</style>
<g id="al3dXD.tif">
	<g>
		<path d="M23.85,180.97c0.44-9.29-1-20.38,1.3-31.31c4.14-19.71,15.61-34.74,30.76-47.25c19.94-16.46,42.98-26.99,67.8-33.56
			c56.9-15.07,113.33-13.79,168.9,6.27c22.65,8.18,43.25,19.99,59.79,37.93c13.85,15.02,21.56,32.47,20.93,53.26
			c-0.3,10.02-0.47,20.08,0.03,30.08c1.29,25.97-9.51,46.39-28.38,63.21c-19.02,16.96-41.43,27.85-65.69,34.73
			c-61.44,17.43-122.35,16.11-182.11-7.38c-23.29-9.16-44.05-22.42-59.26-42.92c-9.25-12.48-14.24-26.48-14.08-42.16
			C23.9,195.47,23.85,189.08,23.85,180.97z"/>
		<path class="st0" d="M193.24,248.86c-30.03-0.19-64.43-5.5-96.88-20.27c-18.59-8.46-35.55-19.3-47.44-36.49
			c-13.18-19.04-13.19-40.74-0.14-59.85c12.14-17.78,29.51-29,48.59-37.81c29.48-13.61,60.76-19.42,93.05-20.29
			c35.41-0.95,69.92,3.79,102.83,17.44c19.94,8.28,38.28,19.08,51.93,36.33c10.83,13.68,15.77,29.05,11.32,46.43
			c-3.31,12.94-11.05,23.24-20.88,32.01c-17.71,15.81-38.76,25.32-61.25,32.04C249.66,245.77,224.35,248.83,193.24,248.86z"/>
		<path class="st0" d="M206.57,277.45c0-4.34-1.64-9.89,0.44-12.69c2.24-3.01,8.16-1,12.46-1.39c11.86-1.08,23.71-2.28,35.37-4.74
			c2.42-0.51,3.05,0.01,3,2.43c-0.13,6.82-0.14,13.65,0.01,20.46c0.05,2.14-0.63,3.1-2.71,3.52c-15.12,3.03-30.37,4.86-45.78,5.52
			c-2.45,0.11-3.31-0.62-3.16-3.11c0.2-3.33,0.05-6.67,0.05-10.01C206.37,277.45,206.47,277.45,206.57,277.45z"/>
		<path class="st0" d="M190.85,277.48c0,1.74,0,3.48,0,5.23c0,8.11,0,8.17-7.93,7.66c-13.48-0.88-26.87-2.48-40.13-5.14
			c-2.49-0.5-3.66-1.3-3.55-4.17c0.26-6.52,0.13-13.06,0.05-19.59c-0.03-2.2,0-3.45,3.02-2.85c14.83,2.96,29.81,4.79,44.96,5
			c2.72,0.04,3.89,0.93,3.65,3.85C190.64,270.79,190.85,274.14,190.85,277.48z"/>
		<path class="st0" d="M72.33,233.16c16.18,9.36,32.49,16.06,49.62,20.74c1.76,0.48,2.25,1.42,2.23,3.11
			c-0.06,6.97-0.08,13.93,0.01,20.9c0.03,2.12-0.78,2.49-2.6,1.91c-16.79-5.35-32.87-12.2-47.49-22.18
			c-1.19-0.81-1.81-1.69-1.8-3.18C72.36,247.67,72.33,240.89,72.33,233.16z"/>
		<path class="st0" d="M273.3,267.43c0-4.18-1.49-9.34,0.44-12.25c1.75-2.64,7.21-2.83,11.04-4.11
			c12.68-4.22,24.98-9.33,36.55-16.05c2.96-1.72,3.6-1.18,3.5,2.05c-0.17,5.36-0.15,10.74,0,16.1c0.06,2.27-0.6,3.73-2.55,5.01
			c-14.39,9.49-30,16.29-46.37,21.49c-2.39,0.76-3.1,0.2-2.99-2.25c0.15-3.33,0.04-6.67,0.04-10.01
			C273.08,267.43,273.19,267.43,273.3,267.43z"/>
		<path class="st0" d="M57.19,243.49c-10.41-11.3-17.08-22.93-17.55-37.57c5.31,5.77,10.85,11.19,16.82,16.16
			c0.77,0.64,0.73,1.53,0.73,2.4C57.19,230.4,57.19,236.32,57.19,243.49z"/>
		<path class="st0" d="M339.93,243.03c0-6.73,0.03-12.66-0.02-18.58c-0.01-1.28,0.43-2.2,1.4-2.99c5.71-4.7,10.98-9.86,15.74-15.76
			C359.26,214.52,351.07,232.57,339.93,243.03z"/>
		<path d="M72.68,157.01c0.86-12.61,7.99-24.46,18.64-34.34c16.64-15.44,36.92-23.79,58.61-29.21c15.3-3.83,30.89-5.38,46.62-5.74
			c6.04-0.14,9.74,2.72,9.83,7.47c0.09,4.7-3.59,7.72-9.57,7.78c-24.99,0.24-49.13,4.58-71.87,15.27
			c-11.69,5.49-22.29,12.53-30.11,23.11c-4.05,5.49-7.12,11.6-7.04,18.4c0.07,5.79-3.72,9.92-8.23,9.62
			C74.75,169.05,72.43,165.77,72.68,157.01z"/>
		<path d="M222.4,229.62c-2.18,0-4.37,0.05-6.55-0.01c-4.89-0.15-7.83-2.98-7.83-7.45c0-4.48,2.87-7.4,7.8-7.5
			c15.32-0.29,30.47-1.89,45.24-6.12c15.23-4.36,29.6-10.46,41.32-21.52c7.2-6.8,12.05-14.79,12.42-25.05
			c0.17-4.73,3.48-7.71,7.83-7.54c4.38,0.17,7.1,3.2,7.11,8.15c0.02,12.45-5.22,22.79-13.39,31.74
			c-13.15,14.42-30.1,22.52-48.42,28.08C253.11,226.89,237.88,229.1,222.4,229.62z"/>
	</g>
</g>
</svg>
