<?xml version="1.0" encoding="utf-8"?>
<!-- Generator: Adobe Illustrator 24.1.0, SVG Export Plug-In . SVG Version: 6.00 Build 0)  -->
<svg version="1.1" id="Layer_1" xmlns="http://www.w3.org/2000/svg" xmlns:xlink="http://www.w3.org/1999/xlink" x="0px" y="0px"
	 viewBox="0 0 400 400" style="enable-background:new 0 0 400 400;" xml:space="preserve">
<style type="text/css">
	.st0{fill:#FFFFFF;stroke:#000000;stroke-width:1.7984;stroke-miterlimit:10;}
	.st1{fill:#010101;}
	.st2{fill:#EC2526;}
	.st3{fill:#ED2224;}
	.st4{fill:#7F7C7C;}
	.st5{fill:#706D6D;}
</style>
<path class="st0" d="M317.84,280.72l-151.26,79.44c-5.25,2.76-11.81,0.72-14.57-4.54L22.41,108.82c-2.76-5.25-0.72-11.81,4.54-14.57
	L178.2,14.82c5.25-2.76,11.81-0.72,14.57,4.54l129.6,246.79C325.14,271.4,323.1,277.96,317.84,280.72z"/>
<path class="st1" d="M274.63,257.51c0.73-1.5,1.84-2.59,3.35-3.24c2.37-1.03,4.65-0.23,5.95,2.04c0.72,1.27,1.01,2.59,0.5,4.01
	c-0.49,1.36-1.47,2.28-2.7,2.95c-1.16,0.62-2.4,0.91-3.72,0.88c-0.05,0-0.09,0-0.14,0c-0.02,0-0.03,0.02-0.07,0.04
	c0.51,0.26,0.98,0.56,1.4,0.93c1.31,1.14,2.19,2.55,2.58,4.25c0.53,2.32-0.49,4.39-2.65,5.38c-1.3,0.59-2.65,0.94-4.09,0.71
	c-1.62-0.26-2.72-1.21-3.31-2.71c-0.93-2.36-0.67-4.66,0.51-6.88c0.03-0.05,0.07-0.09,0.11-0.13c-0.02-0.02-0.03-0.03-0.05-0.05
	c-0.17,0.1-0.33,0.21-0.5,0.31c-0.18,0.1-0.36,0.21-0.55,0.3c-1.99,0.88-4,0.98-5.93-0.11c-1.84-1.03-2.5-2.72-2.3-4.76
	c0.23-2.37,1.96-3.74,4.03-4.07c1.49-0.23,2.9-0.01,4.24,0.67c0.18,0.09,0.33,0.27,0.59,0.29c-0.66-1.33-1.38-2.57-2.29-3.71
	c-0.92-1.16-2.16-1.92-3.41-2.76c3.2-0.88,6.33-1.74,9.53-2.62c-0.62,1.33-1.14,2.64-1.24,4.08
	C274.37,254.71,274.43,256.11,274.63,257.51z"/>
<g>
	<path d="M266.68,247.81c-0.41,0.25-0.77,0.18-1.01-0.2l-1.25-1.67c-0.26-0.34-0.23-0.72,0.32-1.08c1.36-0.89,5.29-4.26,5.31-8.03
		c-0.45,0.47-1.88,1.48-3.38,1.89c-3.18,0.88-7.13-0.57-8.38-5.11c-1.1-4.01,1.27-8.18,5.18-9.26c4.99-1.37,8.67,1.92,9.98,6.69
		C276.01,240.32,269.17,246.17,266.68,247.81z M261.9,232.67c0.56,2.04,2.64,3.28,4.68,2.72c2.1-0.58,2.89-2.54,2.93-3.78
		c-0.59-2.16-2.43-4.36-5-3.65C262.5,228.51,261.35,230.67,261.9,232.67z"/>
</g>
<g>
	<path class="st1" d="M123.99,121.88c-0.73,1.5-1.84,2.59-3.35,3.24c-2.37,1.03-4.65,0.23-5.95-2.04c-0.72-1.27-1.01-2.59-0.5-4.01
		c0.49-1.36,1.47-2.28,2.7-2.95c1.16-0.62,2.4-0.91,3.72-0.88c0.05,0,0.09,0,0.14,0c0.02,0,0.03-0.02,0.07-0.04
		c-0.51-0.26-0.98-0.56-1.4-0.93c-1.31-1.14-2.19-2.55-2.58-4.25c-0.53-2.32,0.49-4.39,2.65-5.38c1.3-0.59,2.65-0.94,4.09-0.71
		c1.62,0.26,2.72,1.21,3.31,2.71c0.93,2.36,0.67,4.66-0.51,6.88c-0.03,0.05-0.07,0.09-0.11,0.13c0.02,0.02,0.03,0.03,0.05,0.05
		c0.17-0.1,0.33-0.21,0.5-0.31c0.18-0.1,0.36-0.21,0.55-0.3c1.99-0.88,4-0.98,5.93,0.11c1.84,1.03,2.5,2.72,2.3,4.76
		c-0.23,2.37-1.96,3.74-4.03,4.07c-1.49,0.23-2.9,0.01-4.24-0.67c-0.18-0.09-0.33-0.27-0.59-0.29c0.66,1.33,1.38,2.57,2.29,3.71
		c0.92,1.16,2.16,1.92,3.41,2.76c-3.2,0.88-6.33,1.74-9.53,2.62c0.62-1.33,1.14-2.64,1.24-4.08
		C124.24,124.67,124.19,123.27,123.99,121.88z"/>
	<path class="st1" d="M175.9,107.6c-0.73,1.5-1.84,2.59-3.35,3.24c-2.37,1.03-4.65,0.23-5.95-2.04c-0.72-1.27-1.01-2.59-0.5-4.01
		c0.49-1.36,1.47-2.28,2.7-2.95c1.16-0.62,2.4-0.91,3.72-0.88c0.05,0,0.09,0,0.14,0c0.02,0,0.03-0.02,0.07-0.04
		c-0.51-0.26-0.98-0.56-1.4-0.93c-1.31-1.14-2.19-2.55-2.58-4.25c-0.53-2.32,0.49-4.39,2.65-5.38c1.3-0.59,2.65-0.94,4.09-0.71
		c1.62,0.26,2.72,1.21,3.31,2.71c0.93,2.36,0.67,4.66-0.51,6.88c-0.03,0.05-0.07,0.09-0.11,0.13c0.02,0.02,0.03,0.03,0.05,0.05
		c0.17-0.1,0.33-0.21,0.5-0.31c0.18-0.1,0.36-0.21,0.55-0.3c1.99-0.88,4-0.98,5.93,0.11c1.84,1.03,2.5,2.72,2.3,4.76
		c-0.23,2.37-1.96,3.74-4.03,4.07c-1.49,0.23-2.9,0.01-4.24-0.67c-0.18-0.09-0.33-0.27-0.59-0.29c0.66,1.33,1.38,2.57,2.29,3.71
		c0.92,1.16,2.16,1.92,3.41,2.76c-3.2,0.88-6.33,1.74-9.53,2.62c0.62-1.33,1.14-2.64,1.24-4.08
		C176.16,110.39,176.1,108.99,175.9,107.6z"/>
	<path class="st1" d="M138.19,173.93c-0.73,1.5-1.84,2.59-3.35,3.24c-2.37,1.03-4.65,0.23-5.95-2.04c-0.72-1.27-1.01-2.59-0.5-4.01
		c0.49-1.36,1.47-2.28,2.7-2.95c1.16-0.62,2.4-0.91,3.72-0.88c0.05,0,0.09,0,0.14,0c0.02,0,0.03-0.02,0.07-0.04
		c-0.51-0.26-0.98-0.56-1.4-0.93c-1.31-1.14-2.19-2.55-2.58-4.25c-0.53-2.32,0.49-4.39,2.65-5.38c1.3-0.59,2.65-0.94,4.09-0.71
		c1.62,0.26,2.72,1.21,3.31,2.71c0.93,2.36,0.67,4.66-0.51,6.88c-0.03,0.05-0.07,0.09-0.11,0.13c0.02,0.02,0.03,0.03,0.05,0.05
		c0.17-0.1,0.33-0.21,0.5-0.31c0.18-0.1,0.36-0.21,0.55-0.3c1.99-0.88,4-0.98,5.93,0.11c1.84,1.03,2.5,2.72,2.3,4.76
		c-0.23,2.37-1.96,3.74-4.03,4.07c-1.49,0.23-2.9,0.01-4.24-0.67c-0.18-0.09-0.33-0.27-0.59-0.29c0.66,1.33,1.38,2.57,2.29,3.71
		c0.92,1.16,2.16,1.92,3.41,2.76c-3.2,0.88-6.33,1.74-9.53,2.62c0.62-1.33,1.14-2.64,1.24-4.08
		C138.45,176.72,138.39,175.32,138.19,173.93z"/>
	<path class="st1" d="M190.22,159.62c-0.73,1.5-1.84,2.59-3.35,3.24c-2.37,1.03-4.65,0.23-5.95-2.04c-0.72-1.27-1.01-2.59-0.5-4.01
		c0.49-1.36,1.47-2.28,2.7-2.95c1.16-0.62,2.4-0.91,3.72-0.88c0.05,0,0.09,0,0.14,0c0.02,0,0.03-0.02,0.07-0.04
		c-0.51-0.26-0.98-0.56-1.4-0.93c-1.31-1.14-2.19-2.55-2.58-4.25c-0.53-2.32,0.49-4.39,2.65-5.38c1.3-0.59,2.65-0.94,4.09-0.71
		c1.62,0.26,2.72,1.21,3.31,2.71c0.93,2.36,0.67,4.66-0.51,6.88c-0.03,0.05-0.07,0.09-0.11,0.13c0.02,0.02,0.03,0.03,0.05,0.05
		c0.17-0.1,0.33-0.21,0.5-0.31c0.18-0.1,0.36-0.21,0.55-0.3c1.99-0.88,4-0.98,5.93,0.11c1.84,1.03,2.5,2.72,2.3,4.76
		c-0.23,2.37-1.96,3.74-4.03,4.07c-1.49,0.23-2.9,0.01-4.24-0.67c-0.18-0.09-0.33-0.27-0.59-0.29c0.66,1.33,1.38,2.57,2.29,3.71
		c0.92,1.16,2.16,1.92,3.41,2.76c-3.2,0.88-6.33,1.74-9.53,2.62c0.62-1.33,1.14-2.64,1.24-4.08
		C190.47,162.41,190.42,161.01,190.22,159.62z"/>
	<path class="st1" d="M153.31,225.73c-0.73,1.5-1.84,2.59-3.35,3.24c-2.37,1.03-4.65,0.23-5.95-2.04c-0.72-1.27-1.01-2.59-0.5-4.01
		c0.49-1.36,1.47-2.28,2.7-2.95c1.16-0.62,2.4-0.91,3.72-0.88c0.05,0,0.09,0,0.14,0c0.02,0,0.03-0.02,0.07-0.04
		c-0.51-0.26-0.98-0.56-1.4-0.93c-1.31-1.14-2.19-2.55-2.58-4.25c-0.53-2.32,0.49-4.39,2.65-5.38c1.3-0.59,2.65-0.94,4.09-0.71
		c1.62,0.26,2.72,1.21,3.31,2.71c0.93,2.36,0.67,4.66-0.51,6.88c-0.03,0.05-0.07,0.09-0.11,0.13c0.02,0.02,0.03,0.03,0.05,0.05
		c0.17-0.1,0.33-0.21,0.5-0.31c0.18-0.1,0.36-0.21,0.55-0.3c1.99-0.88,4-0.98,5.93,0.11c1.84,1.03,2.5,2.72,2.3,4.76
		c-0.23,2.37-1.96,3.74-4.03,4.07c-1.49,0.23-2.9,0.01-4.24-0.67c-0.18-0.09-0.33-0.27-0.59-0.29c0.66,1.33,1.38,2.57,2.29,3.71
		c0.92,1.16,2.16,1.92,3.41,2.76c-3.2,0.88-6.33,1.74-9.53,2.62c0.62-1.33,1.14-2.64,1.24-4.08
		C153.57,228.52,153.51,227.12,153.31,225.73z"/>
	<path class="st1" d="M205.33,211.41c-0.73,1.5-1.84,2.59-3.35,3.24c-2.37,1.03-4.65,0.23-5.95-2.04c-0.72-1.27-1.01-2.59-0.5-4.01
		c0.49-1.36,1.47-2.28,2.7-2.95c1.16-0.62,2.4-0.91,3.72-0.88c0.05,0,0.09,0,0.14,0c0.02,0,0.03-0.02,0.07-0.04
		c-0.51-0.26-0.98-0.56-1.4-0.93c-1.31-1.14-2.19-2.55-2.58-4.25c-0.53-2.32,0.49-4.39,2.65-5.38c1.3-0.59,2.65-0.94,4.09-0.71
		c1.62,0.26,2.72,1.21,3.31,2.71c0.93,2.36,0.67,4.66-0.51,6.88c-0.03,0.05-0.07,0.09-0.11,0.13c0.02,0.02,0.03,0.03,0.05,0.05
		c0.17-0.1,0.33-0.21,0.5-0.31c0.18-0.1,0.36-0.21,0.55-0.3c1.99-0.88,4-0.98,5.93,0.11c1.84,1.03,2.5,2.72,2.3,4.76
		c-0.23,2.37-1.96,3.74-4.03,4.07c-1.49,0.23-2.9,0.01-4.24-0.67c-0.18-0.09-0.33-0.27-0.59-0.29c0.66,1.33,1.38,2.57,2.29,3.71
		c0.92,1.16,2.16,1.92,3.41,2.76c-3.2,0.88-6.33,1.74-9.53,2.62c0.62-1.33,1.14-2.64,1.24-4.08
		C205.59,214.21,205.53,212.81,205.33,211.41z"/>
</g>
<path class="st0" d="M328.43,308.29l-162.86,51.65c-5.66,1.79-11.75-1.37-13.55-7.02L67.76,87.21c-1.79-5.66,1.37-11.75,7.02-13.55
	l162.86-51.65c5.66-1.79,11.75,1.37,13.55,7.02l84.27,265.71C337.25,300.4,334.09,306.5,328.43,308.29z"/>
<g>
	<path class="st2" d="M85.65,90.14l-0.03-0.09c-1.51-0.28-4-1.39-4.78-3.85c-1.11-3.49,1.19-6.71,5-7.92
		c3.93-1.25,7.66,0.06,8.77,3.55c0.76,2.39-0.65,4.7-1.7,5.87l0.04,0.13c1.64,0.27,4.61,1.34,5.47,4.04
		c1.09,3.43-0.98,6.95-5.6,8.42c-4.5,1.43-8.21-0.27-9.3-3.69C82.64,93.86,84.91,90.86,85.65,90.14z M90.63,83.27
		c-0.48-1.51-2.14-2.26-3.77-1.74c-1.51,0.48-2.43,2.05-1.95,3.56c0.45,1.42,1.68,2.24,3.81,2.08
		C90.52,86.1,91.06,84.62,90.63,83.27z M91.85,97.06c1.73-0.55,2.9-2.2,2.35-3.93c-0.45-1.41-2.07-2.49-4.33-2.29
		c-1.96,1.14-2.66,2.95-2.21,4.37C88.22,96.94,90.16,97.6,91.85,97.06z"/>
</g>
<g>
	<path class="st1" d="M168.42,145.87c-0.92,1.39-2.16,2.32-3.74,2.78c-2.49,0.71-4.64-0.38-5.63-2.8c-0.55-1.35-0.66-2.7,0.02-4.04
		c0.66-1.28,1.75-2.07,3.06-2.57c1.23-0.47,2.5-0.59,3.8-0.39c0.05,0.01,0.09,0.01,0.14,0.01c0.02,0,0.03-0.01,0.08-0.03
		c-0.47-0.33-0.9-0.69-1.27-1.11c-1.15-1.3-1.84-2.81-2.01-4.55c-0.23-2.37,1.06-4.29,3.33-4.99c1.36-0.42,2.75-0.58,4.14-0.17
		c1.57,0.47,2.54,1.56,2.93,3.12c0.61,2.46,0.06,4.71-1.41,6.75c-0.03,0.05-0.08,0.08-0.12,0.12c0.02,0.02,0.03,0.04,0.05,0.06
		c0.18-0.08,0.35-0.17,0.53-0.24c0.19-0.08,0.38-0.16,0.58-0.22c2.09-0.61,4.09-0.45,5.87,0.88c1.69,1.26,2.12,3.03,1.66,5.02
		c-0.53,2.32-2.44,3.46-4.52,3.51c-1.51,0.04-2.88-0.37-4.12-1.22c-0.17-0.12-0.29-0.31-0.55-0.36c0.49,1.4,1.03,2.73,1.78,3.98
		c0.76,1.27,1.89,2.18,3.02,3.18c-3.29,0.46-6.5,0.9-9.79,1.36c0.78-1.24,1.48-2.47,1.76-3.89
		C168.31,148.67,168.44,147.28,168.42,145.87z"/>
	<path class="st1" d="M221.76,138.48c-0.92,1.39-2.16,2.32-3.74,2.78c-2.49,0.71-4.64-0.38-5.63-2.8c-0.55-1.35-0.66-2.7,0.02-4.04
		c0.66-1.28,1.75-2.07,3.06-2.57c1.23-0.47,2.5-0.59,3.8-0.39c0.05,0.01,0.09,0.01,0.14,0.01c0.02,0,0.03-0.01,0.08-0.03
		c-0.47-0.33-0.9-0.69-1.27-1.11c-1.15-1.3-1.84-2.81-2.01-4.55c-0.23-2.37,1.06-4.29,3.33-4.99c1.36-0.42,2.75-0.58,4.14-0.17
		c1.57,0.47,2.54,1.56,2.93,3.12c0.61,2.46,0.06,4.71-1.41,6.75c-0.03,0.05-0.08,0.08-0.12,0.12c0.02,0.02,0.03,0.04,0.05,0.06
		c0.18-0.08,0.35-0.17,0.53-0.24c0.19-0.08,0.38-0.16,0.58-0.22c2.09-0.61,4.09-0.45,5.87,0.88c1.69,1.26,2.12,3.03,1.66,5.02
		c-0.53,2.32-2.44,3.46-4.52,3.51c-1.51,0.04-2.88-0.37-4.12-1.22c-0.17-0.12-0.29-0.31-0.55-0.36c0.49,1.4,1.03,2.73,1.78,3.98
		c0.76,1.27,1.89,2.18,3.02,3.18c-3.29,0.46-6.5,0.9-9.79,1.36c0.78-1.24,1.48-2.47,1.76-3.89
		C221.65,141.28,221.78,139.88,221.76,138.48z"/>
	<path class="st1" d="M175.72,199.33c-0.92,1.39-2.16,2.32-3.74,2.78c-2.49,0.71-4.64-0.38-5.63-2.8c-0.55-1.35-0.66-2.7,0.02-4.04
		c0.66-1.28,1.75-2.07,3.06-2.57c1.23-0.47,2.5-0.59,3.8-0.39c0.05,0.01,0.09,0.01,0.14,0.01c0.02,0,0.03-0.01,0.08-0.03
		c-0.47-0.33-0.9-0.69-1.27-1.11c-1.15-1.3-1.84-2.81-2.01-4.55c-0.23-2.37,1.06-4.29,3.33-4.99c1.36-0.42,2.75-0.58,4.14-0.17
		c1.57,0.47,2.54,1.56,2.93,3.12c0.61,2.46,0.06,4.71-1.41,6.75c-0.03,0.05-0.08,0.08-0.12,0.12c0.02,0.02,0.03,0.04,0.05,0.06
		c0.18-0.08,0.35-0.17,0.53-0.24c0.19-0.08,0.38-0.16,0.58-0.22c2.09-0.61,4.09-0.45,5.87,0.88c1.69,1.26,2.12,3.03,1.66,5.02
		c-0.53,2.32-2.44,3.46-4.52,3.51c-1.51,0.04-2.88-0.37-4.12-1.22c-0.17-0.12-0.29-0.31-0.55-0.36c0.49,1.4,1.03,2.73,1.78,3.98
		c0.76,1.27,1.89,2.18,3.02,3.18c-3.29,0.46-6.5,0.9-9.79,1.36c0.78-1.24,1.48-2.47,1.76-3.89
		C175.62,202.13,175.74,200.73,175.72,199.33z"/>
	<path class="st1" d="M229.17,191.92c-0.92,1.39-2.16,2.32-3.74,2.78c-2.49,0.71-4.64-0.38-5.63-2.8c-0.55-1.35-0.66-2.7,0.02-4.04
		c0.66-1.28,1.75-2.07,3.06-2.57c1.23-0.47,2.5-0.59,3.8-0.39c0.05,0.01,0.09,0.01,0.14,0.01c0.02,0,0.03-0.01,0.08-0.03
		c-0.47-0.33-0.9-0.69-1.27-1.11c-1.15-1.3-1.84-2.81-2.01-4.55c-0.23-2.37,1.06-4.29,3.33-4.99c1.36-0.42,2.75-0.58,4.14-0.17
		c1.57,0.47,2.54,1.56,2.93,3.12c0.61,2.46,0.06,4.71-1.41,6.75c-0.03,0.05-0.08,0.08-0.12,0.12c0.02,0.02,0.03,0.04,0.05,0.06
		c0.18-0.08,0.35-0.17,0.53-0.24c0.19-0.08,0.38-0.16,0.58-0.22c2.09-0.61,4.09-0.45,5.87,0.88c1.69,1.26,2.12,3.03,1.66,5.02
		c-0.53,2.32-2.44,3.46-4.52,3.51c-1.51,0.04-2.88-0.37-4.12-1.22c-0.17-0.12-0.29-0.31-0.55-0.36c0.49,1.4,1.03,2.73,1.78,3.98
		c0.76,1.27,1.89,2.18,3.02,3.18c-3.29,0.46-6.5,0.9-9.79,1.36c0.78-1.24,1.48-2.47,1.76-3.89
		C229.06,194.72,229.18,193.33,229.17,191.92z"/>
	<path class="st1" d="M183.96,252.65c-0.92,1.39-2.16,2.32-3.74,2.78c-2.49,0.71-4.64-0.38-5.63-2.8c-0.55-1.35-0.66-2.7,0.02-4.04
		c0.66-1.28,1.75-2.07,3.06-2.57c1.23-0.47,2.5-0.59,3.8-0.39c0.05,0.01,0.09,0.01,0.14,0.01c0.02,0,0.03-0.01,0.08-0.03
		c-0.47-0.33-0.9-0.69-1.27-1.11c-1.15-1.3-1.84-2.81-2.01-4.55c-0.23-2.37,1.06-4.29,3.33-4.99c1.36-0.42,2.75-0.58,4.14-0.17
		c1.57,0.47,2.54,1.56,2.93,3.12c0.61,2.46,0.06,4.71-1.41,6.75c-0.03,0.05-0.08,0.08-0.12,0.12c0.02,0.02,0.03,0.04,0.05,0.06
		c0.18-0.08,0.35-0.17,0.53-0.24c0.19-0.08,0.38-0.16,0.58-0.22c2.09-0.61,4.09-0.45,5.87,0.88c1.69,1.26,2.12,3.03,1.66,5.02
		c-0.53,2.32-2.44,3.46-4.52,3.51c-1.51,0.04-2.88-0.37-4.12-1.22c-0.17-0.12-0.29-0.31-0.55-0.36c0.49,1.4,1.03,2.73,1.78,3.98
		c0.76,1.27,1.89,2.18,3.02,3.18c-3.29,0.46-6.5,0.9-9.79,1.36c0.78-1.24,1.48-2.47,1.76-3.89
		C183.85,255.45,183.98,254.06,183.96,252.65z"/>
	<path class="st1" d="M237.4,245.25c-0.92,1.39-2.16,2.32-3.74,2.78c-2.49,0.71-4.64-0.38-5.63-2.8c-0.55-1.35-0.66-2.7,0.02-4.04
		c0.66-1.28,1.75-2.07,3.06-2.57c1.23-0.47,2.5-0.59,3.8-0.39c0.05,0.01,0.09,0.01,0.14,0.01c0.02,0,0.03-0.01,0.08-0.03
		c-0.47-0.33-0.9-0.69-1.27-1.11c-1.15-1.3-1.84-2.81-2.01-4.55c-0.23-2.37,1.06-4.29,3.33-4.99c1.36-0.42,2.75-0.58,4.14-0.17
		c1.57,0.47,2.54,1.56,2.93,3.12c0.61,2.46,0.06,4.71-1.41,6.75c-0.03,0.05-0.08,0.08-0.12,0.12c0.02,0.02,0.03,0.04,0.05,0.06
		c0.18-0.08,0.35-0.17,0.53-0.24c0.19-0.08,0.38-0.16,0.58-0.22c2.09-0.61,4.09-0.45,5.87,0.88c1.69,1.26,2.12,3.03,1.66,5.02
		c-0.53,2.32-2.44,3.46-4.52,3.51c-1.51,0.04-2.88-0.37-4.12-1.22c-0.17-0.12-0.29-0.31-0.55-0.36c0.49,1.4,1.03,2.73,1.78,3.98
		c0.76,1.27,1.89,2.18,3.02,3.18c-3.29,0.46-6.5,0.9-9.79,1.36c0.78-1.24,1.48-2.47,1.76-3.89
		C237.29,248.05,237.42,246.65,237.4,245.25z"/>
</g>
<path class="st1" d="M296.47,264.02c0.78-1.47,1.94-2.52,3.47-3.11c2.41-0.94,4.66-0.06,5.87,2.27c0.67,1.29,0.91,2.63,0.35,4.02
	c-0.54,1.34-1.55,2.22-2.81,2.84c-1.18,0.58-2.43,0.82-3.75,0.74c-0.05,0-0.09,0-0.14,0c-0.02,0-0.03,0.02-0.07,0.04
	c0.5,0.28,0.96,0.6,1.36,0.98c1.27,1.19,2.09,2.63,2.42,4.34c0.45,2.33-0.65,4.37-2.85,5.28c-1.32,0.54-2.68,0.83-4.11,0.55
	c-1.61-0.32-2.67-1.32-3.21-2.83c-0.84-2.39-0.5-4.68,0.77-6.85c0.03-0.05,0.07-0.09,0.11-0.13c-0.02-0.02-0.03-0.03-0.05-0.05
	c-0.17,0.1-0.34,0.2-0.51,0.29c-0.18,0.1-0.37,0.2-0.56,0.28c-2.03,0.81-4.03,0.83-5.93-0.33c-1.8-1.1-2.39-2.82-2.12-4.85
	c0.31-2.36,2.1-3.67,4.18-3.91c1.5-0.18,2.9,0.1,4.22,0.83c0.18,0.1,0.32,0.28,0.58,0.31c-0.61-1.35-1.28-2.62-2.15-3.79
	c-0.88-1.19-2.08-2-3.3-2.89c3.23-0.76,6.39-1.5,9.62-2.26c-0.66,1.31-1.24,2.6-1.4,4.03C296.32,261.23,296.32,262.63,296.47,264.02
	z"/>
<g>
	<path d="M40.53,108.57l-0.05-0.09c-1.54-0.01-4.19-0.67-5.38-2.95c-1.7-3.24,0-6.81,3.53-8.67c3.65-1.92,7.55-1.29,9.26,1.96
		c1.17,2.22,0.18,4.75-0.65,6.08l0.06,0.12c1.67-0.02,4.78,0.51,6.09,3.02c1.67,3.18,0.26,7.01-4.03,9.27
		c-4.17,2.19-8.13,1.18-9.8-2C38.22,112.76,39.93,109.41,40.53,108.57z M44.23,100.93c-0.74-1.4-2.5-1.85-4.02-1.06
		c-1.4,0.74-2.03,2.44-1.29,3.85c0.69,1.31,2.04,1.91,4.11,1.38C44.62,103.74,44.88,102.19,44.23,100.93z M47.86,114.3
		c1.61-0.84,2.47-2.67,1.62-4.28c-0.69-1.31-2.48-2.09-4.66-1.5c-1.73,1.46-2.1,3.38-1.41,4.69
		C44.25,114.81,46.28,115.12,47.86,114.3z"/>
</g>
<path class="st1" d="M60.31,146.32c0-0.07,0-0.13,0.01-0.2c0.38-1.92,0.12-3.81-0.26-5.7c-0.04-0.2-0.09-0.4-0.13-0.64
	c-0.57,0.92-1.24,1.72-2.07,2.35c-1.73,1.31-3.64,1.94-5.8,1.31c-1.52-0.44-2.53-1.48-3.12-2.93c-0.72-1.78-0.64-3.6-0.32-5.44
	c0.21-1.25,0.65-2.44,1.02-3.64c0.92-2.98,1.46-6.04,1.75-9.14c0.05-0.52,0.05-0.53,0.5-0.25c3.11,1.96,6.49,3.27,10.03,4.21
	c2.14,0.57,4.04,1.64,5.5,3.39c0.16,0.19,0.26,0.44,0.47,0.59c0.03,0.05,0.05,0.1,0.08,0.15c0.06,0.23,0.17,0.43,0.32,0.61
	c0.03,0.05,0.05,0.1,0.08,0.15c0.23,0.55,0.39,1.11,0.43,1.71c0.07,1.17-0.23,2.24-0.87,3.21c-1.14,1.71-2.8,2.57-4.78,2.9
	c-0.45,0.08-0.91,0.11-1.34,0.1c-0.04,0.04-0.05,0.06-0.04,0.07c0.94,1.13,1.94,2.19,3.24,2.92c0.43,0.24,0.89,0.4,1.34,0.57
	c0.14,0.05,0.29,0.1,0.41,0.19c0.07,0.05,0.11,0.11,0,0.17c-2.05,1.07-4.1,2.15-6.15,3.22C60.51,146.26,60.43,146.34,60.31,146.32z"
	/>
<path class="st3" d="M102.15,129.93c-0.52-0.64-0.95-1.34-1.5-1.97c-1.5-1.73-3.28-3.14-5.15-4.45c-2.18-1.52-4.44-2.9-6.63-4.4
	c-1.34-0.92-2.59-1.92-3.51-3.28c-1.75-2.59-1.43-5.37,0.56-7.33c2.18-2.14,5.59-2.37,8.1-0.62c0.63,0.44,1.17,0.99,1.72,1.59
	c0.03-0.21,0.04-0.37,0.07-0.53c0.29-1.99,1.11-3.69,2.79-4.84c2.23-1.52,5.3-1.68,7.49,0.23c1.22,1.06,1.73,2.46,1.82,4.03
	c0.11,1.89-0.31,3.7-0.93,5.47c-0.7,1.99-1.58,3.9-2.35,5.86c-0.92,2.34-1.72,4.71-2.07,7.21c-0.12,0.86-0.17,1.72-0.18,2.58
	c0,0.17-0.02,0.33-0.17,0.44C102.18,129.91,102.16,129.92,102.15,129.93z"/>
<path class="st0" d="M269.54,360.87l-169.2-23.7c-5.88-0.82-10.01-6.31-9.19-12.18l38.67-276.06c0.82-5.88,6.31-10.01,12.18-9.19
	l169.2,23.7c5.88,0.82,10.01,6.31,9.19,12.18l-38.67,276.06C280.9,357.56,275.41,361.69,269.54,360.87z"/>
<path class="st1" d="M261.76,311.68c1.31-1.03,2.79-1.52,4.43-1.45c2.58,0.11,4.28,1.83,4.45,4.44c0.09,1.45-0.23,2.77-1.3,3.82
	c-1.03,1.01-2.32,1.41-3.72,1.46c-1.31,0.05-2.56-0.23-3.73-0.84c-0.04-0.02-0.09-0.04-0.13-0.06c-0.02-0.01-0.04,0-0.08,0.01
	c0.34,0.46,0.63,0.94,0.85,1.45c0.68,1.6,0.85,3.25,0.46,4.95c-0.53,2.32-2.36,3.74-4.74,3.68c-1.43-0.03-2.79-0.32-3.98-1.15
	c-1.35-0.94-1.92-2.28-1.79-3.89c0.2-2.53,1.43-4.49,3.47-5.96c0.05-0.03,0.1-0.05,0.15-0.07c-0.01-0.02-0.02-0.04-0.03-0.07
	c-0.19,0.02-0.39,0.05-0.58,0.06c-0.21,0.02-0.42,0.03-0.62,0.03c-2.18-0.08-4.03-0.87-5.29-2.69c-1.2-1.74-1.05-3.54,0.02-5.29
	c1.24-2.03,3.41-2.5,5.4-1.89c1.44,0.44,2.61,1.26,3.52,2.46c0.12,0.16,0.18,0.39,0.4,0.51c-0.02-1.49-0.11-2.92-0.43-4.34
	c-0.32-1.44-1.1-2.67-1.85-3.98c3.26,0.61,6.45,1.21,9.71,1.82c-1.14,0.93-2.18,1.88-2.91,3.13
	C262.75,309.06,262.19,310.34,261.76,311.68z"/>
<g>
	<path d="M258.86,299.48c-0.48,0.05-0.77-0.18-0.82-0.62l-0.39-2.05c-0.09-0.42,0.11-0.75,0.76-0.83c1.62-0.2,6.62-1.51,8.29-4.89
		c-0.61,0.22-2.34,0.5-3.87,0.22c-3.24-0.61-6.16-3.63-5.3-8.27c0.76-4.09,4.73-6.8,8.71-6.05c5.09,0.95,6.95,5.53,6.04,10.39
		C270.53,296.83,261.82,299.1,258.86,299.48z M261.19,283.78c-0.39,2.07,0.94,4.1,3.02,4.49c2.14,0.4,3.71-1.02,4.29-2.12
		c0.41-2.2-0.28-4.98-2.9-5.47C263.56,280.3,261.58,281.74,261.19,283.78z"/>
</g>
<g>
	<path class="st1" d="M185.74,123.77c-1.31,1.03-2.79,1.52-4.43,1.45c-2.58-0.11-4.28-1.83-4.45-4.44c-0.09-1.45,0.23-2.77,1.3-3.82
		c1.03-1.01,2.32-1.41,3.72-1.46c1.31-0.05,2.56,0.23,3.73,0.84c0.04,0.02,0.09,0.04,0.13,0.06c0.02,0.01,0.04,0,0.08-0.01
		c-0.34-0.46-0.63-0.94-0.85-1.45c-0.68-1.6-0.85-3.25-0.46-4.95c0.53-2.32,2.36-3.74,4.74-3.68c1.43,0.03,2.79,0.32,3.98,1.15
		c1.35,0.94,1.92,2.28,1.79,3.89c-0.2,2.53-1.43,4.49-3.47,5.96c-0.05,0.03-0.1,0.05-0.15,0.07c0.01,0.02,0.02,0.04,0.03,0.07
		c0.19-0.02,0.39-0.05,0.58-0.06c0.21-0.02,0.42-0.03,0.62-0.03c2.18,0.08,4.03,0.87,5.29,2.69c1.2,1.74,1.05,3.54-0.02,5.29
		c-1.24,2.03-3.41,2.5-5.4,1.89c-1.44-0.44-2.61-1.26-3.52-2.46c-0.12-0.16-0.18-0.39-0.4-0.51c0.02,1.49,0.11,2.92,0.43,4.34
		c0.32,1.44,1.1,2.67,1.85,3.98c-3.26-0.61-6.45-1.21-9.71-1.82c1.14-0.93,2.18-1.88,2.91-3.13
		C184.75,126.39,185.31,125.11,185.74,123.77z"/>
	<path class="st1" d="M238.67,133.67c-1.31,1.03-2.79,1.52-4.43,1.45c-2.58-0.11-4.28-1.83-4.45-4.44c-0.09-1.45,0.23-2.77,1.3-3.82
		c1.03-1.01,2.32-1.41,3.72-1.46c1.31-0.05,2.56,0.23,3.73,0.84c0.04,0.02,0.09,0.04,0.13,0.06c0.02,0.01,0.04,0,0.08-0.01
		c-0.34-0.46-0.63-0.94-0.85-1.45c-0.68-1.6-0.85-3.25-0.46-4.95c0.53-2.32,2.36-3.74,4.74-3.68c1.43,0.03,2.79,0.32,3.98,1.15
		c1.35,0.94,1.92,2.28,1.79,3.89c-0.2,2.53-1.43,4.49-3.47,5.96c-0.05,0.03-0.1,0.05-0.15,0.07c0.01,0.02,0.02,0.04,0.03,0.07
		c0.19-0.02,0.39-0.05,0.58-0.06c0.21-0.02,0.42-0.03,0.62-0.03c2.18,0.08,4.03,0.87,5.29,2.69c1.2,1.74,1.05,3.54-0.02,5.29
		c-1.24,2.03-3.41,2.5-5.4,1.89c-1.44-0.44-2.61-1.26-3.52-2.46c-0.12-0.16-0.18-0.39-0.4-0.51c0.02,1.49,0.11,2.92,0.43,4.34
		c0.32,1.44,1.1,2.67,1.85,3.98c-3.26-0.61-6.45-1.21-9.71-1.82c1.14-0.93,2.18-1.88,2.91-3.13
		C237.68,136.29,238.24,135.01,238.67,133.67z"/>
	<path class="st1" d="M175.72,176.79c-1.31,1.03-2.79,1.52-4.43,1.45c-2.58-0.11-4.28-1.83-4.45-4.44c-0.09-1.45,0.23-2.77,1.3-3.82
		c1.03-1.01,2.32-1.41,3.72-1.46c1.31-0.05,2.56,0.23,3.73,0.84c0.04,0.02,0.09,0.04,0.13,0.06c0.02,0.01,0.04,0,0.08-0.01
		c-0.34-0.46-0.63-0.94-0.85-1.45c-0.68-1.6-0.85-3.25-0.46-4.95c0.53-2.32,2.36-3.74,4.74-3.68c1.43,0.03,2.79,0.32,3.98,1.15
		c1.35,0.94,1.92,2.28,1.79,3.89c-0.2,2.53-1.43,4.49-3.47,5.96c-0.05,0.03-0.1,0.05-0.15,0.07c0.01,0.02,0.02,0.04,0.03,0.07
		c0.19-0.02,0.39-0.05,0.58-0.06c0.21-0.02,0.42-0.03,0.62-0.03c2.18,0.08,4.03,0.87,5.29,2.69c1.2,1.74,1.05,3.54-0.02,5.29
		c-1.24,2.03-3.41,2.5-5.4,1.89c-1.44-0.44-2.61-1.26-3.52-2.46c-0.12-0.16-0.18-0.39-0.4-0.51c0.02,1.49,0.11,2.92,0.43,4.34
		c0.32,1.44,1.1,2.67,1.85,3.98c-3.26-0.61-6.45-1.21-9.71-1.82c1.14-0.93,2.18-1.88,2.91-3.13
		C174.73,179.41,175.29,178.13,175.72,176.79z"/>
	<path class="st1" d="M228.75,186.71c-1.31,1.03-2.79,1.52-4.43,1.45c-2.58-0.11-4.28-1.83-4.45-4.44c-0.09-1.45,0.23-2.77,1.3-3.82
		c1.03-1.01,2.32-1.41,3.72-1.46c1.31-0.05,2.56,0.23,3.73,0.84c0.04,0.02,0.09,0.04,0.13,0.06c0.02,0.01,0.04,0,0.08-0.01
		c-0.34-0.46-0.63-0.94-0.85-1.45c-0.68-1.6-0.85-3.25-0.46-4.95c0.53-2.32,2.36-3.74,4.74-3.68c1.43,0.03,2.79,0.32,3.98,1.15
		c1.35,0.94,1.92,2.28,1.79,3.89c-0.2,2.53-1.43,4.49-3.47,5.96c-0.05,0.03-0.1,0.05-0.15,0.07c0.01,0.02,0.02,0.04,0.03,0.07
		c0.19-0.02,0.39-0.05,0.58-0.06c0.21-0.02,0.42-0.03,0.62-0.03c2.18,0.08,4.03,0.87,5.29,2.69c1.2,1.74,1.05,3.54-0.02,5.29
		c-1.24,2.03-3.41,2.5-5.4,1.89c-1.44-0.44-2.61-1.26-3.52-2.46c-0.12-0.16-0.18-0.39-0.4-0.51c0.02,1.49,0.11,2.92,0.43,4.34
		c0.32,1.44,1.1,2.67,1.85,3.98c-3.26-0.61-6.45-1.21-9.71-1.82c1.14-0.93,2.18-1.88,2.91-3.13
		C227.76,189.33,228.32,188.04,228.75,186.71z"/>
	<path class="st1" d="M166.62,229.97c-1.31,1.03-2.79,1.52-4.43,1.45c-2.58-0.11-4.28-1.83-4.45-4.44c-0.09-1.45,0.23-2.77,1.3-3.82
		c1.03-1.01,2.32-1.41,3.72-1.46c1.31-0.05,2.56,0.23,3.73,0.84c0.04,0.02,0.09,0.04,0.13,0.06c0.02,0.01,0.04,0,0.08-0.01
		c-0.34-0.46-0.63-0.94-0.85-1.45c-0.68-1.6-0.85-3.25-0.46-4.95c0.53-2.32,2.36-3.74,4.74-3.68c1.43,0.03,2.79,0.32,3.98,1.15
		c1.35,0.94,1.92,2.28,1.79,3.89c-0.2,2.53-1.43,4.49-3.47,5.96c-0.05,0.03-0.1,0.05-0.15,0.07c0.01,0.02,0.02,0.04,0.03,0.07
		c0.19-0.02,0.39-0.05,0.58-0.06c0.21-0.02,0.42-0.03,0.62-0.03c2.18,0.08,4.03,0.87,5.29,2.69c1.2,1.74,1.05,3.54-0.02,5.29
		c-1.24,2.03-3.41,2.5-5.4,1.89c-1.44-0.44-2.61-1.26-3.52-2.46c-0.12-0.16-0.18-0.39-0.4-0.51c0.02,1.49,0.11,2.92,0.43,4.34
		c0.32,1.44,1.1,2.67,1.85,3.98c-3.26-0.61-6.45-1.21-9.71-1.82c1.14-0.93,2.18-1.88,2.91-3.13
		C165.63,232.59,166.19,231.31,166.62,229.97z"/>
	<path class="st1" d="M219.65,239.89c-1.31,1.03-2.79,1.52-4.43,1.45c-2.58-0.11-4.28-1.83-4.45-4.44c-0.09-1.45,0.23-2.77,1.3-3.82
		c1.03-1.01,2.32-1.41,3.72-1.46c1.31-0.05,2.56,0.23,3.73,0.84c0.04,0.02,0.09,0.04,0.13,0.06c0.02,0.01,0.04,0,0.08-0.01
		c-0.34-0.46-0.63-0.94-0.85-1.45c-0.68-1.6-0.85-3.25-0.46-4.95c0.53-2.32,2.36-3.74,4.74-3.68c1.43,0.03,2.79,0.32,3.98,1.15
		c1.35,0.94,1.92,2.28,1.79,3.89c-0.2,2.53-1.43,4.49-3.47,5.96c-0.05,0.03-0.1,0.05-0.15,0.07c0.01,0.02,0.02,0.04,0.03,0.07
		c0.19-0.02,0.39-0.05,0.58-0.06c0.21-0.02,0.42-0.03,0.62-0.03c2.18,0.08,4.03,0.87,5.29,2.69c1.2,1.74,1.05,3.54-0.02,5.29
		c-1.24,2.03-3.41,2.5-5.4,1.89c-1.44-0.44-2.61-1.26-3.52-2.46c-0.12-0.16-0.18-0.39-0.4-0.51c0.02,1.49,0.11,2.92,0.43,4.34
		c0.32,1.44,1.1,2.67,1.85,3.98c-3.26-0.61-6.45-1.21-9.71-1.82c1.14-0.93,2.18-1.88,2.91-3.13
		C218.66,242.51,219.22,241.23,219.65,239.89z"/>
</g>
<path class="st3" d="M481.97,395.97c-1.71-4.29-2.83-8.8-4.66-13.05c-5.08-11.82-12.23-22.36-20.01-32.51
	c-9.05-11.81-18.83-23.03-27.99-34.75c-5.6-7.16-10.6-14.68-13.2-23.51c-4.96-16.83,1.46-31.13,15.44-38.23
	c15.29-7.77,33.93-3.21,44.38,10.4c2.64,3.44,4.6,7.26,6.52,11.43c0.48-1.05,0.86-1.9,1.26-2.74c4.91-10.12,12.17-17.86,23.13-21.17
	c14.49-4.38,31.2,0.04,39.66,13.92c4.73,7.76,5.07,16.09,2.88,24.64c-2.63,10.3-7.92,19.26-14.26,27.65
	c-7.12,9.42-15.05,18.18-22.49,27.34c-8.88,10.93-17.16,22.26-23.3,35.02c-2.1,4.37-3.8,8.9-5.35,13.48
	c-0.31,0.92-0.69,1.72-1.68,2.06C482.18,395.97,482.07,395.97,481.97,395.97z"/>
<g>
	<path class="st2" d="M320.37,289.57l0.03,0.09c1.51,0.28,4,1.39,4.78,3.85c1.11,3.49-1.19,6.71-5,7.92
		c-3.93,1.25-7.66-0.06-8.77-3.55c-0.76-2.39,0.65-4.7,1.7-5.87l-0.04-0.13c-1.64-0.28-4.61-1.34-5.47-4.04
		c-1.09-3.43,0.98-6.95,5.6-8.42c4.5-1.43,8.21,0.27,9.3,3.69C323.38,285.85,321.11,288.85,320.37,289.57z M314.16,282.65
		c-1.73,0.55-2.9,2.2-2.35,3.93c0.45,1.41,2.07,2.49,4.33,2.29c1.96-1.14,2.66-2.95,2.21-4.37
		C317.8,282.77,315.86,282.11,314.16,282.65z M315.39,296.44c0.48,1.51,2.14,2.26,3.77,1.74c1.51-0.48,2.43-2.05,1.95-3.56
		c-0.45-1.42-1.68-2.24-3.81-2.08C315.49,293.61,314.96,295.09,315.39,296.44z"/>
</g>
<path class="st1" d="M599.13,395.6c0.19-0.32,0.33-0.67,0.56-0.96c6.92-8.59,10.58-18.7,13.61-29.11c0.33-1.12,0.64-2.24,1-3.54
	c-5.28,3.09-10.67,5.32-16.5,6.28c-12.07,2-23.22,0.13-32.34-8.67c-6.41-6.18-8.76-13.99-7.9-22.8
	c1.05-10.74,6.24-19.62,12.62-27.96c4.34-5.68,9.64-10.45,14.65-15.49c12.38-12.47,23.1-26.27,32.64-41.01
	c1.59-2.46,1.65-2.48,3.14,0.08c10.41,17.91,23.8,33.28,39.01,47.28c9.19,8.46,15.87,18.77,18.54,31.29
	c0.29,1.38,0.13,2.84,0.78,4.15c0,0.32,0,0.65,0,0.97c-0.28,1.29-0.28,2.59,0,3.88c0,0.32,0,0.65,0,0.97
	c-0.31,3.33-0.94,6.55-2.33,9.64c-2.72,6.02-7.02,10.57-12.75,13.71c-10.15,5.56-20.7,5.46-31.43,1.92
	c-2.45-0.81-4.81-1.86-6.95-2.98c-0.31,0.07-0.42,0.15-0.39,0.26c1.75,8.08,3.93,16.01,8.51,23.04c1.5,2.31,3.39,4.32,5.21,6.37
	c0.57,0.65,1.16,1.28,1.56,2.05c0.23,0.44,0.28,0.85-0.44,0.84c-13.03-0.01-26.06,0-39.09-0.01
	C600.28,395.79,599.67,395.99,599.13,395.6z"/>
<path class="st4" d="M640.4,395.6c0.02,0.12,0.04,0.24,0.06,0.36c-13.8,0-27.6,0-41.4,0c0.02-0.12,0.04-0.24,0.07-0.37
	C612.89,395.6,626.64,395.6,640.4,395.6z"/>
<path class="st5" d="M678.96,339.99c-0.54-1.29-0.51-2.59,0-3.88C678.96,337.4,678.96,338.7,678.96,339.99z"/>
<path class="st3" d="M618.89,221.1c-3.18-5.64-6.34-11.02-9.63-16.32c-11.88-19.16-25.13-37.35-38.94-55.15
	c-0.64-0.83-0.95-1.38-0.16-2.44c17.09-22.94,33.47-46.37,48.29-70.86c0.11-0.18,0.25-0.34,0.46-0.63c2.1,3.51,4.13,6.95,6.21,10.37
	c12.9,21.25,27.06,41.63,42.44,61.15c0.52,0.67,0.93,1.11,0.17,2.02c-18.41,22.01-34.03,45.93-48.23,70.81
	C619.35,220.33,619.19,220.61,618.89,221.1z"/>
<path class="st0" d="M262.06,389.45L99.64,336.41c-5.64-1.84-8.75-7.97-6.91-13.61l86.53-264.99c1.84-5.64,7.97-8.75,13.61-6.91
	l162.41,53.03c5.64,1.84,8.75,7.97,6.91,13.61l-86.53,264.99C273.82,388.18,267.7,391.29,262.06,389.45z"/>
<path class="st1" d="M182.51,105.64c-1.44,0.85-2.96,1.14-4.58,0.86c-2.55-0.45-4.01-2.37-3.84-4.99c0.1-1.45,0.59-2.72,1.79-3.62
	c1.15-0.86,2.48-1.09,3.88-0.97c1.31,0.12,2.51,0.56,3.59,1.32c0.04,0.03,0.08,0.05,0.12,0.07c0.01,0.01,0.04,0,0.08,0.01
	c-0.28-0.5-0.5-1.01-0.65-1.55c-0.47-1.68-0.42-3.33,0.19-4.97c0.83-2.23,2.83-3.4,5.18-3.03c1.41,0.22,2.72,0.68,3.8,1.66
	c1.21,1.11,1.6,2.51,1.27,4.09c-0.53,2.48-2.01,4.26-4.22,5.45c-0.05,0.03-0.11,0.03-0.16,0.05c0.01,0.02,0.01,0.05,0.02,0.07
	c0.2,0,0.39,0,0.59,0.01c0.21,0.01,0.42,0.02,0.62,0.06c2.15,0.36,3.88,1.39,4.89,3.36c0.97,1.88,0.58,3.65-0.71,5.24
	c-1.49,1.85-3.7,2.04-5.6,1.17c-1.37-0.63-2.43-1.59-3.17-2.9c-0.1-0.18-0.13-0.41-0.33-0.56c-0.18,1.48-0.27,2.91-0.14,4.36
	c0.13,1.47,0.74,2.79,1.32,4.19c-3.15-1.03-6.24-2.04-9.39-3.07c1.25-0.77,2.41-1.58,3.29-2.72
	C181.18,108.11,181.9,106.91,182.51,105.64z"/>
<g>
	<path d="M202.21,61.7c0.48,0.02,0.74,0.28,0.74,0.73l0.12,2.08c0.03,0.43-0.2,0.73-0.86,0.72c-1.63-0.01-6.76,0.64-8.86,3.77
		c0.64-0.14,2.39-0.19,3.86,0.29c3.13,1.02,5.64,4.41,4.17,8.89c-1.29,3.95-5.57,6.12-9.43,4.86c-4.92-1.61-6.17-6.39-4.63-11.09
		C190.3,62.8,199.23,61.7,202.21,61.7z M197.85,76.96c0.66-2.01-0.4-4.19-2.41-4.84c-2.07-0.68-3.81,0.52-4.53,1.54
		c-0.7,2.13-0.38,4.98,2.16,5.81C195.06,80.1,197.21,78.93,197.85,76.96z"/>
</g>
<g>
	<path class="st1" d="M215.18,164.8c-1.44,0.85-2.96,1.14-4.58,0.86c-2.55-0.45-4.01-2.37-3.84-4.99c0.1-1.45,0.59-2.72,1.79-3.62
		c1.15-0.86,2.48-1.09,3.88-0.97c1.31,0.12,2.51,0.56,3.59,1.32c0.04,0.03,0.08,0.05,0.12,0.07c0.01,0.01,0.04,0,0.08,0.01
		c-0.28-0.5-0.5-1.01-0.65-1.55c-0.47-1.68-0.42-3.33,0.19-4.97c0.83-2.23,2.83-3.4,5.18-3.03c1.41,0.22,2.72,0.68,3.8,1.66
		c1.21,1.11,1.6,2.51,1.27,4.09c-0.53,2.48-2.01,4.26-4.22,5.45c-0.05,0.03-0.11,0.03-0.16,0.05c0.01,0.02,0.01,0.05,0.02,0.07
		c0.2,0,0.39,0,0.59,0.01c0.21,0.01,0.42,0.02,0.62,0.06c2.15,0.36,3.88,1.39,4.89,3.36c0.97,1.88,0.58,3.65-0.71,5.24
		c-1.49,1.85-3.7,2.04-5.6,1.17c-1.37-0.63-2.43-1.59-3.17-2.9c-0.1-0.18-0.13-0.41-0.33-0.56c-0.18,1.48-0.27,2.91-0.14,4.36
		c0.13,1.47,0.74,2.79,1.32,4.19c-3.15-1.03-6.24-2.04-9.39-3.07c1.25-0.77,2.41-1.58,3.29-2.72
		C213.85,167.27,214.58,166.07,215.18,164.8z"/>
	<path class="st1" d="M266.37,181.52c-1.44,0.85-2.96,1.14-4.58,0.86c-2.55-0.45-4.01-2.37-3.84-4.99c0.1-1.45,0.59-2.72,1.79-3.62
		c1.15-0.86,2.48-1.09,3.88-0.97c1.31,0.12,2.51,0.56,3.59,1.32c0.04,0.03,0.08,0.05,0.12,0.07c0.01,0.01,0.04,0,0.08,0.01
		c-0.28-0.5-0.5-1.01-0.65-1.55c-0.47-1.68-0.42-3.33,0.19-4.97c0.83-2.23,2.83-3.4,5.18-3.03c1.41,0.22,2.72,0.68,3.8,1.66
		c1.21,1.11,1.6,2.51,1.27,4.09c-0.53,2.48-2.01,4.26-4.22,5.45c-0.05,0.03-0.11,0.03-0.16,0.05c0.01,0.02,0.01,0.05,0.02,0.07
		c0.2,0,0.39,0,0.59,0.01c0.21,0.01,0.42,0.02,0.62,0.06c2.15,0.36,3.88,1.39,4.89,3.36c0.97,1.88,0.58,3.65-0.71,5.24
		c-1.49,1.85-3.7,2.04-5.6,1.17c-1.37-0.63-2.43-1.59-3.17-2.9c-0.1-0.18-0.13-0.41-0.33-0.56c-0.18,1.48-0.27,2.91-0.14,4.36
		c0.13,1.47,0.74,2.79,1.32,4.19c-3.15-1.03-6.24-2.04-9.39-3.07c1.25-0.77,2.41-1.58,3.29-2.72
		C265.04,183.99,265.76,182.79,266.37,181.52z"/>
	<path class="st1" d="M198.33,216.06c-1.44,0.85-2.96,1.14-4.58,0.86c-2.55-0.45-4.01-2.37-3.84-4.99c0.1-1.45,0.59-2.72,1.79-3.62
		c1.15-0.86,2.48-1.09,3.88-0.97c1.31,0.12,2.51,0.56,3.59,1.32c0.04,0.03,0.08,0.05,0.12,0.07c0.01,0.01,0.04,0,0.08,0.01
		c-0.28-0.5-0.5-1.01-0.65-1.55c-0.47-1.68-0.42-3.33,0.19-4.97c0.83-2.23,2.83-3.4,5.18-3.03c1.41,0.22,2.72,0.68,3.8,1.66
		c1.21,1.11,1.6,2.51,1.27,4.09c-0.53,2.48-2.01,4.26-4.22,5.45c-0.05,0.03-0.11,0.03-0.16,0.05c0.01,0.02,0.01,0.05,0.02,0.07
		c0.2,0,0.39,0,0.59,0.01c0.21,0.01,0.42,0.02,0.62,0.06c2.15,0.36,3.88,1.39,4.89,3.36c0.97,1.88,0.58,3.65-0.71,5.24
		c-1.49,1.85-3.7,2.04-5.6,1.17c-1.37-0.63-2.43-1.59-3.17-2.9c-0.1-0.18-0.13-0.41-0.33-0.56c-0.18,1.48-0.27,2.91-0.14,4.36
		c0.13,1.47,0.74,2.79,1.32,4.19c-3.15-1.03-6.24-2.04-9.39-3.07c1.25-0.77,2.41-1.58,3.29-2.72
		C197.01,218.53,197.73,217.33,198.33,216.06z"/>
	<path class="st1" d="M249.62,232.8c-1.44,0.85-2.96,1.14-4.58,0.86c-2.55-0.45-4.01-2.37-3.84-4.99c0.1-1.45,0.59-2.72,1.79-3.62
		c1.15-0.86,2.48-1.09,3.88-0.97c1.31,0.12,2.51,0.56,3.59,1.32c0.04,0.03,0.08,0.05,0.12,0.07c0.01,0.01,0.04,0,0.08,0.01
		c-0.28-0.5-0.5-1.01-0.65-1.55c-0.47-1.68-0.42-3.33,0.19-4.97c0.83-2.23,2.83-3.4,5.18-3.03c1.41,0.22,2.72,0.68,3.8,1.66
		c1.21,1.11,1.6,2.51,1.27,4.09c-0.53,2.48-2.01,4.26-4.22,5.45c-0.05,0.03-0.11,0.03-0.16,0.05c0.01,0.02,0.01,0.05,0.02,0.07
		c0.2,0,0.39,0,0.59,0.01c0.21,0.01,0.42,0.02,0.62,0.06c2.15,0.36,3.88,1.39,4.89,3.36c0.97,1.88,0.58,3.65-0.71,5.24
		c-1.49,1.85-3.7,2.04-5.6,1.17c-1.37-0.63-2.43-1.59-3.17-2.9c-0.1-0.18-0.13-0.41-0.33-0.56c-0.18,1.48-0.27,2.91-0.14,4.36
		c0.13,1.47,0.74,2.79,1.32,4.19c-3.15-1.03-6.24-2.04-9.39-3.07c1.25-0.77,2.41-1.58,3.29-2.72
		C248.29,235.27,249.02,234.08,249.62,232.8z"/>
	<path class="st1" d="M182.38,267.6c-1.44,0.85-2.96,1.14-4.58,0.86c-2.55-0.45-4.01-2.37-3.84-4.99c0.1-1.45,0.59-2.72,1.79-3.62
		c1.15-0.86,2.48-1.09,3.88-0.97c1.31,0.12,2.51,0.56,3.59,1.32c0.04,0.03,0.08,0.05,0.12,0.07c0.01,0.01,0.04,0,0.08,0.01
		c-0.28-0.5-0.5-1.01-0.65-1.55c-0.47-1.68-0.42-3.33,0.19-4.97c0.83-2.23,2.83-3.4,5.18-3.03c1.41,0.22,2.72,0.68,3.8,1.66
		c1.21,1.11,1.6,2.51,1.27,4.09c-0.53,2.48-2.01,4.26-4.22,5.45c-0.05,0.03-0.11,0.03-0.16,0.05c0.01,0.02,0.01,0.05,0.02,0.07
		c0.2,0,0.39,0,0.59,0.01c0.21,0.01,0.42,0.02,0.62,0.06c2.15,0.36,3.88,1.39,4.89,3.36c0.97,1.88,0.58,3.65-0.71,5.24
		c-1.49,1.85-3.7,2.04-5.6,1.17c-1.37-0.63-2.43-1.59-3.17-2.9c-0.1-0.18-0.13-0.41-0.33-0.56c-0.18,1.48-0.27,2.91-0.14,4.36
		c0.13,1.47,0.74,2.79,1.32,4.19c-3.15-1.03-6.24-2.04-9.39-3.07c1.25-0.77,2.41-1.58,3.29-2.72
		C181.05,270.07,181.78,268.88,182.38,267.6z"/>
	<path class="st1" d="M233.66,284.35c-1.44,0.85-2.96,1.14-4.58,0.86c-2.55-0.45-4.01-2.37-3.84-4.99c0.1-1.45,0.59-2.72,1.79-3.62
		c1.15-0.86,2.48-1.09,3.88-0.97c1.31,0.12,2.51,0.56,3.59,1.32c0.04,0.03,0.08,0.05,0.12,0.07c0.01,0.01,0.04,0,0.08,0.01
		c-0.28-0.5-0.5-1.01-0.65-1.55c-0.47-1.68-0.42-3.33,0.19-4.97c0.83-2.23,2.83-3.4,5.18-3.03c1.41,0.22,2.72,0.68,3.8,1.66
		c1.21,1.11,1.6,2.51,1.27,4.09c-0.53,2.48-2.01,4.26-4.22,5.45c-0.05,0.03-0.11,0.03-0.16,0.05c0.01,0.02,0.01,0.05,0.02,0.07
		c0.2,0,0.39,0,0.59,0.01c0.21,0.01,0.42,0.02,0.62,0.06c2.15,0.36,3.88,1.39,4.89,3.36c0.97,1.88,0.58,3.65-0.71,5.24
		c-1.49,1.85-3.7,2.04-5.6,1.17c-1.37-0.63-2.43-1.59-3.17-2.9c-0.1-0.18-0.13-0.41-0.33-0.56c-0.18,1.48-0.27,2.91-0.14,4.36
		c0.13,1.47,0.74,2.79,1.32,4.19c-3.15-1.03-6.24-2.04-9.39-3.07c1.25-0.77,2.41-1.58,3.29-2.72
		C232.34,286.82,233.06,285.62,233.66,284.35z"/>
</g>
<path class="st1" d="M271.62,330.67c1.44-0.85,2.96-1.14,4.58-0.86c2.55,0.45,4.01,2.37,3.84,4.99c-0.1,1.45-0.59,2.72-1.79,3.62
	c-1.15,0.86-2.48,1.09-3.88,0.97c-1.31-0.12-2.51-0.56-3.59-1.32c-0.04-0.03-0.08-0.05-0.12-0.07c-0.01-0.01-0.04,0-0.08-0.01
	c0.28,0.5,0.5,1.01,0.65,1.55c0.47,1.68,0.42,3.33-0.19,4.97c-0.83,2.23-2.83,3.4-5.18,3.03c-1.41-0.22-2.72-0.68-3.8-1.66
	c-1.21-1.11-1.6-2.51-1.27-4.09c0.53-2.48,2.01-4.26,4.22-5.45c0.05-0.03,0.11-0.03,0.16-0.05c-0.01-0.02-0.01-0.05-0.02-0.07
	c-0.2,0-0.39,0-0.59-0.01c-0.21-0.01-0.42-0.02-0.62-0.06c-2.15-0.36-3.88-1.39-4.89-3.36c-0.97-1.88-0.58-3.65,0.71-5.24
	c1.49-1.85,3.7-2.04,5.6-1.17c1.37,0.63,2.43,1.59,3.17,2.9c0.1,0.18,0.13,0.41,0.33,0.56c0.18-1.48,0.27-2.91,0.14-4.36
	c-0.13-1.47-0.74-2.79-1.32-4.19c3.15,1.03,6.24,2.04,9.39,3.07c-1.25,0.77-2.41,1.58-3.29,2.72
	C272.94,328.2,272.22,329.39,271.62,330.67z"/>
<g>
	<path d="M251.91,374.61c-0.48-0.02-0.74-0.28-0.73-0.72l-0.12-2.09c-0.04-0.43,0.2-0.73,0.86-0.72c1.63,0.01,6.76-0.63,8.86-3.77
		c-0.64,0.14-2.39,0.19-3.86-0.29c-3.13-1.02-5.64-4.41-4.17-8.89c1.29-3.95,5.57-6.12,9.43-4.87c4.92,1.61,6.17,6.38,4.63,11.09
		C263.82,373.5,254.89,374.61,251.91,374.61z M256.27,359.35c-0.66,2.01,0.4,4.19,2.41,4.84c2.07,0.68,3.81-0.52,4.53-1.54
		c0.7-2.13,0.38-4.97-2.16-5.8C259.06,356.2,256.91,357.37,256.27,359.35z"/>
</g>
<g>
	<path d="M153.09,48.71c0.48-0.07,0.78,0.14,0.85,0.58l0.48,2.03c0.11,0.42-0.07,0.76-0.72,0.87c-1.6,0.27-6.55,1.81-8.06,5.26
		c0.6-0.25,2.32-0.61,3.85-0.39c3.27,0.46,6.32,3.35,5.67,8.02c-0.58,4.12-4.41,7.01-8.43,6.44c-5.13-0.72-7.2-5.2-6.51-10.1
		C141.56,51.89,150.15,49.23,153.09,48.71z M151.48,64.5c0.29-2.09-1.13-4.05-3.22-4.35c-2.16-0.3-3.66,1.18-4.19,2.31
		c-0.31,2.22,0.5,4.96,3.15,5.33C149.28,68.09,151.19,66.56,151.48,64.5z"/>
</g>
<path class="st1" d="M138.73,101.49c0.04-0.05,0.07-0.11,0.12-0.16c1.43-1.34,2.32-3.03,3.11-4.78c0.08-0.19,0.17-0.38,0.26-0.6
	c-1,0.41-2.01,0.67-3.06,0.7c-2.17,0.05-4.09-0.55-5.47-2.32c-0.97-1.25-1.2-2.68-0.83-4.2c0.45-1.86,1.58-3.3,2.91-4.61
	c0.9-0.89,1.95-1.6,2.96-2.36c2.48-1.89,4.71-4.05,6.75-6.41c0.34-0.39,0.35-0.39,0.55,0.09c1.39,3.4,3.37,6.44,5.7,9.27
	c1.41,1.71,2.33,3.69,2.49,5.96c0.02,0.25-0.05,0.5,0.04,0.75c-0.01,0.06-0.02,0.11-0.02,0.17c-0.08,0.22-0.11,0.45-0.1,0.68
	c-0.01,0.06-0.02,0.11-0.02,0.17c-0.14,0.58-0.33,1.13-0.65,1.64c-0.63,0.99-1.49,1.69-2.58,2.1c-1.92,0.73-3.77,0.45-5.57-0.44
	c-0.41-0.2-0.8-0.44-1.15-0.7c-0.06,0-0.08,0.02-0.08,0.04c0.11,1.46,0.3,2.91,0.93,4.26c0.21,0.44,0.49,0.84,0.76,1.25
	c0.08,0.13,0.17,0.25,0.22,0.4c0.03,0.08,0.03,0.16-0.1,0.14c-2.29-0.32-4.58-0.64-6.87-0.97
	C138.93,101.55,138.82,101.57,138.73,101.49z"/>
<g>
</g>
<g>
</g>
<g>
</g>
<g>
</g>
<g>
</g>
<g>
</g>
<g>
</g>
<g>
</g>
<g>
</g>
<g>
</g>
<g>
</g>
</svg>
