<?xml version="1.0" encoding="utf-8"?>
<!-- Generator: Adobe Illustrator 24.1.0, SVG Export Plug-In . SVG Version: 6.00 Build 0)  -->
<svg version="1.1" id="Layer_1" xmlns="http://www.w3.org/2000/svg" xmlns:xlink="http://www.w3.org/1999/xlink" x="0px" y="0px"
	 viewBox="0 0 400 400" style="enable-background:new 0 0 400 400;" xml:space="preserve">
<style type="text/css">
	.st0{fill:#FFFFFF;stroke:#000000;stroke-width:1.7984;stroke-miterlimit:10;}
	.st1{fill:#010101;}
</style>
<path class="st0" d="M294.59,332.84l-168.2,29.99c-5.84,1.04-11.48-2.89-12.52-8.73L64.94,79.68c-1.04-5.84,2.89-11.48,8.73-12.52
	l168.2-29.99c5.84-1.04,11.48,2.89,12.52,8.73l48.93,274.43C304.36,326.17,300.43,331.8,294.59,332.84z"/>
<path class="st1" d="M271.93,288.49c0.93-1.39,2.18-2.31,3.76-2.75c2.49-0.69,4.64,0.41,5.61,2.84c0.54,1.35,0.65,2.71-0.05,4.04
	c-0.67,1.28-1.77,2.05-3.08,2.55c-1.23,0.46-2.5,0.57-3.8,0.36c-0.05-0.01-0.09-0.01-0.14-0.01c-0.02,0-0.03,0.01-0.08,0.03
	c0.47,0.33,0.89,0.69,1.26,1.11c1.14,1.31,1.82,2.83,1.97,4.56c0.21,2.37-1.09,4.28-3.37,4.97c-1.37,0.41-2.75,0.56-4.14,0.14
	c-1.57-0.48-2.53-1.58-2.91-3.14c-0.6-2.47-0.03-4.71,1.45-6.74c0.03-0.05,0.08-0.08,0.12-0.12c-0.01-0.02-0.03-0.04-0.04-0.06
	c-0.18,0.08-0.35,0.17-0.54,0.24c-0.19,0.08-0.39,0.16-0.58,0.22c-2.1,0.6-4.1,0.42-5.86-0.92c-1.68-1.28-2.1-3.04-1.62-5.04
	c0.55-2.31,2.46-3.44,4.55-3.48c1.51-0.03,2.88,0.39,4.11,1.25c0.17,0.12,0.29,0.31,0.54,0.36c-0.48-1.41-1.01-2.74-1.76-3.99
	c-0.75-1.27-1.87-2.2-3-3.21c3.29-0.43,6.51-0.86,9.8-1.29c-0.79,1.23-1.49,2.46-1.79,3.88
	C272.06,285.69,271.92,287.09,271.93,288.49z"/>
<g>
	<path d="M265.39,277.8c-0.44,0.19-0.79,0.07-0.98-0.34l-1.01-1.83c-0.21-0.37-0.13-0.75,0.46-1.03c1.47-0.69,5.83-3.49,6.37-7.22
		c-0.51,0.4-2.07,1.2-3.61,1.41c-3.27,0.43-6.99-1.54-7.6-6.22c-0.54-4.12,2.38-7.93,6.4-8.46c5.13-0.67,8.32,3.1,8.97,8
		C275.66,271.66,268.08,276.51,265.39,277.8z M262.73,262.15c0.27,2.09,2.17,3.61,4.26,3.33c2.16-0.28,3.21-2.12,3.42-3.34
		c-0.29-2.22-1.81-4.65-4.46-4.3C263.9,258.11,262.46,260.09,262.73,262.15z"/>
</g>
<g>
	<path class="st1" d="M141.34,133.47c-0.93,1.39-2.18,2.31-3.76,2.75c-2.49,0.69-4.64-0.41-5.61-2.84
		c-0.54-1.35-0.65-2.71,0.05-4.04c0.67-1.28,1.77-2.05,3.08-2.55c1.23-0.46,2.5-0.57,3.8-0.36c0.05,0.01,0.09,0.01,0.14,0.01
		c0.02,0,0.03-0.01,0.08-0.03c-0.47-0.33-0.89-0.69-1.26-1.11c-1.14-1.31-1.82-2.83-1.97-4.56c-0.21-2.37,1.09-4.28,3.37-4.97
		c1.37-0.41,2.75-0.56,4.14-0.14c1.57,0.48,2.53,1.58,2.91,3.14c0.6,2.47,0.03,4.71-1.45,6.74c-0.03,0.05-0.08,0.08-0.12,0.12
		c0.01,0.02,0.03,0.04,0.04,0.06c0.18-0.08,0.35-0.17,0.54-0.24c0.19-0.08,0.39-0.16,0.58-0.22c2.1-0.6,4.1-0.42,5.86,0.92
		c1.68,1.28,2.1,3.04,1.62,5.04c-0.55,2.31-2.46,3.44-4.55,3.48c-1.51,0.03-2.88-0.39-4.11-1.25c-0.17-0.12-0.29-0.31-0.54-0.36
		c0.48,1.41,1.01,2.74,1.76,3.99c0.75,1.27,1.87,2.2,3,3.21c-3.29,0.43-6.51,0.86-9.8,1.29c0.79-1.23,1.49-2.46,1.79-3.88
		C141.21,136.27,141.34,134.87,141.34,133.47z"/>
	<path class="st1" d="M194.72,126.45c-0.93,1.39-2.18,2.31-3.76,2.75c-2.49,0.69-4.64-0.41-5.61-2.84
		c-0.54-1.35-0.65-2.71,0.05-4.04c0.67-1.28,1.77-2.05,3.08-2.55c1.23-0.46,2.5-0.57,3.8-0.36c0.05,0.01,0.09,0.01,0.14,0.01
		c0.02,0,0.03-0.01,0.08-0.03c-0.47-0.33-0.89-0.69-1.26-1.11c-1.14-1.31-1.82-2.83-1.97-4.56c-0.21-2.37,1.09-4.28,3.37-4.97
		c1.37-0.41,2.75-0.56,4.14-0.14c1.57,0.48,2.53,1.58,2.91,3.14c0.6,2.47,0.03,4.71-1.45,6.74c-0.03,0.05-0.08,0.08-0.12,0.12
		c0.01,0.02,0.03,0.04,0.04,0.06c0.18-0.08,0.35-0.17,0.54-0.24c0.19-0.08,0.39-0.16,0.58-0.22c2.1-0.6,4.1-0.42,5.86,0.92
		c1.68,1.28,2.1,3.04,1.62,5.04c-0.55,2.31-2.46,3.44-4.55,3.48c-1.51,0.03-2.88-0.39-4.11-1.25c-0.17-0.12-0.29-0.31-0.54-0.36
		c0.48,1.41,1.01,2.74,1.76,3.99c0.75,1.27,1.87,2.2,3,3.21c-3.29,0.43-6.51,0.86-9.8,1.29c0.79-1.23,1.49-2.46,1.79-3.88
		C194.6,129.25,194.73,127.86,194.72,126.45z"/>
	<path class="st1" d="M148.26,186.97c-0.93,1.39-2.18,2.31-3.76,2.75c-2.49,0.69-4.64-0.41-5.61-2.84
		c-0.54-1.35-0.65-2.71,0.05-4.04c0.67-1.28,1.77-2.05,3.08-2.55c1.23-0.46,2.5-0.57,3.8-0.36c0.05,0.01,0.09,0.01,0.14,0.01
		c0.02,0,0.03-0.01,0.08-0.03c-0.47-0.33-0.89-0.69-1.26-1.11c-1.14-1.31-1.82-2.83-1.97-4.56c-0.21-2.37,1.09-4.28,3.37-4.97
		c1.37-0.41,2.75-0.56,4.14-0.14c1.57,0.48,2.53,1.58,2.91,3.14c0.6,2.47,0.03,4.71-1.45,6.74c-0.03,0.05-0.08,0.08-0.12,0.12
		c0.01,0.02,0.03,0.04,0.04,0.06c0.18-0.08,0.35-0.17,0.54-0.24c0.19-0.08,0.39-0.16,0.58-0.22c2.1-0.6,4.1-0.42,5.86,0.92
		c1.68,1.28,2.1,3.04,1.62,5.04c-0.55,2.31-2.46,3.44-4.55,3.48c-1.51,0.03-2.88-0.39-4.11-1.25c-0.17-0.12-0.29-0.31-0.54-0.36
		c0.48,1.41,1.01,2.74,1.76,3.99c0.75,1.27,1.87,2.2,3,3.21c-3.29,0.43-6.51,0.86-9.8,1.29c0.79-1.23,1.49-2.46,1.79-3.88
		C148.14,189.77,148.27,188.38,148.26,186.97z"/>
	<path class="st1" d="M201.76,179.94c-0.93,1.39-2.18,2.31-3.76,2.75c-2.49,0.69-4.64-0.41-5.61-2.84
		c-0.54-1.35-0.65-2.71,0.05-4.04c0.67-1.28,1.77-2.05,3.08-2.55c1.23-0.46,2.5-0.57,3.8-0.36c0.05,0.01,0.09,0.01,0.14,0.01
		c0.02,0,0.03-0.01,0.08-0.03c-0.47-0.33-0.89-0.69-1.26-1.11c-1.14-1.31-1.82-2.83-1.97-4.56c-0.21-2.37,1.09-4.28,3.37-4.97
		c1.37-0.41,2.75-0.56,4.14-0.14c1.57,0.48,2.53,1.58,2.91,3.14c0.6,2.47,0.03,4.71-1.45,6.74c-0.03,0.05-0.08,0.08-0.12,0.12
		c0.01,0.02,0.03,0.04,0.04,0.06c0.18-0.08,0.35-0.17,0.54-0.24c0.19-0.08,0.39-0.16,0.58-0.22c2.1-0.6,4.1-0.42,5.86,0.92
		c1.68,1.28,2.1,3.04,1.62,5.04c-0.55,2.31-2.46,3.44-4.55,3.48c-1.51,0.03-2.88-0.39-4.11-1.25c-0.17-0.12-0.29-0.31-0.54-0.36
		c0.48,1.41,1.01,2.74,1.76,3.99c0.75,1.27,1.87,2.2,3,3.21c-3.29,0.43-6.51,0.86-9.8,1.29c0.79-1.23,1.49-2.46,1.79-3.88
		C201.63,182.74,201.76,181.35,201.76,179.94z"/>
	<path class="st1" d="M156.12,240.36c-0.93,1.39-2.18,2.31-3.76,2.75c-2.49,0.69-4.64-0.41-5.61-2.84
		c-0.54-1.35-0.65-2.71,0.05-4.04c0.67-1.28,1.77-2.05,3.08-2.55c1.23-0.46,2.5-0.57,3.8-0.36c0.05,0.01,0.09,0.01,0.14,0.01
		c0.02,0,0.03-0.01,0.08-0.03c-0.47-0.33-0.89-0.69-1.26-1.11c-1.14-1.31-1.82-2.83-1.97-4.56c-0.21-2.37,1.09-4.28,3.37-4.97
		c1.37-0.41,2.75-0.56,4.14-0.14c1.57,0.48,2.53,1.58,2.91,3.14c0.6,2.47,0.03,4.71-1.45,6.74c-0.03,0.05-0.08,0.08-0.12,0.12
		c0.01,0.02,0.03,0.04,0.04,0.06c0.18-0.08,0.35-0.17,0.54-0.24c0.19-0.08,0.39-0.16,0.58-0.22c2.1-0.6,4.1-0.42,5.86,0.92
		c1.68,1.28,2.1,3.04,1.62,5.04c-0.55,2.31-2.46,3.44-4.55,3.48c-1.51,0.03-2.88-0.39-4.11-1.25c-0.17-0.12-0.29-0.31-0.54-0.36
		c0.48,1.41,1.01,2.74,1.76,3.99c0.75,1.27,1.87,2.2,3,3.21c-3.29,0.43-6.51,0.86-9.8,1.29c0.79-1.23,1.49-2.46,1.79-3.88
		C156,243.16,156.13,241.76,156.12,240.36z"/>
	<path class="st1" d="M209.62,233.32c-0.93,1.39-2.18,2.31-3.76,2.75c-2.49,0.69-4.64-0.41-5.61-2.84
		c-0.54-1.35-0.65-2.71,0.05-4.04c0.67-1.28,1.77-2.05,3.08-2.55c1.23-0.46,2.5-0.57,3.8-0.36c0.05,0.01,0.09,0.01,0.14,0.01
		c0.02,0,0.03-0.01,0.08-0.03c-0.47-0.33-0.89-0.69-1.26-1.11c-1.14-1.31-1.82-2.83-1.97-4.56c-0.21-2.37,1.09-4.28,3.37-4.97
		c1.37-0.41,2.75-0.56,4.14-0.14c1.57,0.48,2.53,1.58,2.91,3.14c0.6,2.47,0.03,4.71-1.45,6.74c-0.03,0.05-0.08,0.08-0.12,0.12
		c0.01,0.02,0.03,0.04,0.04,0.06c0.18-0.08,0.35-0.17,0.54-0.24c0.19-0.08,0.39-0.16,0.58-0.22c2.1-0.6,4.1-0.42,5.86,0.92
		c1.68,1.28,2.1,3.04,1.62,5.04c-0.55,2.31-2.46,3.44-4.55,3.48c-1.51,0.03-2.88-0.39-4.11-1.25c-0.17-0.12-0.29-0.31-0.54-0.36
		c0.48,1.41,1.01,2.74,1.76,3.99c0.75,1.27,1.87,2.2,3,3.21c-3.29,0.43-6.51,0.86-9.8,1.29c0.79-1.23,1.49-2.46,1.79-3.88
		C209.49,236.12,209.62,234.73,209.62,233.32z"/>
</g>
<path class="st0" d="M296.35,362.33H125.5c-5.93,0-10.79-4.86-10.79-10.79V72.78c0-5.93,4.86-10.79,10.79-10.79h170.85
	c5.93,0,10.79,4.86,10.79,10.79v278.76C307.14,357.47,302.29,362.33,296.35,362.33z"/>
<path class="st1" d="M132.63,117.24c-1.1,1.26-2.46,2.01-4.09,2.24c-2.56,0.36-4.55-1.01-5.19-3.55c-0.36-1.41-0.29-2.77,0.58-4
	c0.83-1.18,2.02-1.81,3.39-2.12c1.28-0.3,2.56-0.24,3.82,0.14c0.05,0.01,0.09,0.03,0.14,0.03c0.02,0,0.03-0.01,0.08-0.02
	c-0.42-0.39-0.79-0.8-1.1-1.27c-0.96-1.45-1.44-3.04-1.36-4.78c0.1-2.37,1.64-4.11,3.99-4.49c1.41-0.23,2.8-0.2,4.13,0.4
	c1.5,0.68,2.3,1.89,2.47,3.49c0.27,2.52-0.59,4.67-2.32,6.49c-0.04,0.04-0.09,0.07-0.14,0.1c0.01,0.02,0.02,0.04,0.04,0.06
	c0.19-0.06,0.37-0.12,0.56-0.17c0.2-0.05,0.4-0.11,0.61-0.14c2.16-0.32,4.12,0.12,5.69,1.68c1.5,1.48,1.68,3.29,0.95,5.2
	c-0.84,2.22-2.89,3.09-4.96,2.85c-1.5-0.17-2.8-0.76-3.91-1.78c-0.15-0.14-0.25-0.35-0.49-0.43c0.29,1.46,0.65,2.85,1.22,4.18
	c0.58,1.36,1.57,2.42,2.55,3.57c-3.32,0-6.56,0-9.88,0c0.95-1.12,1.8-2.25,2.28-3.61C132.14,120,132.46,118.63,132.63,117.24z"/>
<g>
	<path d="M137.73,69.35c0.46-0.13,0.79,0.03,0.92,0.46l0.76,1.95c0.16,0.4,0.03,0.76-0.59,0.96c-1.55,0.49-6.23,2.7-7.25,6.33
		c0.56-0.33,2.21-0.92,3.76-0.92c3.3,0,6.73,2.44,6.73,7.16c0,4.15-3.4,7.55-7.45,7.55c-5.18,0-7.85-4.15-7.85-9.1
		C126.75,74.09,134.89,70.27,137.73,69.35z M138.32,85.21c0-2.11-1.68-3.86-3.79-3.86c-2.18,0-3.46,1.68-3.82,2.87
		c0,2.24,1.19,4.85,3.86,4.85C136.64,89.06,138.32,87.28,138.32,85.21z"/>
</g>
<g>
	<path class="st1" d="M182.06,163.33c-1.1,1.26-2.46,2.01-4.09,2.24c-2.56,0.36-4.55-1.01-5.19-3.55c-0.36-1.41-0.29-2.77,0.58-4
		c0.83-1.18,2.02-1.81,3.39-2.12c1.28-0.3,2.56-0.24,3.82,0.14c0.05,0.01,0.09,0.03,0.14,0.03c0.02,0,0.03-0.01,0.08-0.02
		c-0.42-0.39-0.79-0.8-1.1-1.27c-0.96-1.45-1.44-3.04-1.36-4.78c0.1-2.37,1.64-4.11,3.99-4.49c1.41-0.23,2.8-0.2,4.13,0.4
		c1.5,0.68,2.3,1.89,2.47,3.49c0.27,2.52-0.59,4.67-2.32,6.49c-0.04,0.04-0.09,0.07-0.14,0.1c0.01,0.02,0.02,0.04,0.04,0.06
		c0.19-0.06,0.37-0.12,0.56-0.17c0.2-0.05,0.4-0.11,0.61-0.14c2.16-0.32,4.12,0.12,5.69,1.68c1.5,1.48,1.68,3.29,0.95,5.2
		c-0.84,2.22-2.89,3.09-4.96,2.85c-1.5-0.17-2.8-0.76-3.91-1.78c-0.15-0.14-0.25-0.35-0.49-0.43c0.29,1.46,0.65,2.85,1.22,4.18
		c0.58,1.36,1.57,2.42,2.55,3.57c-3.32,0-6.56,0-9.88,0c0.95-1.12,1.8-2.25,2.28-3.61C181.56,166.09,181.88,164.73,182.06,163.33z"
		/>
	<path class="st1" d="M235.9,163.33c-1.1,1.26-2.46,2.01-4.09,2.24c-2.56,0.36-4.55-1.01-5.19-3.55c-0.36-1.41-0.29-2.77,0.58-4
		c0.83-1.18,2.02-1.81,3.39-2.12c1.28-0.3,2.56-0.24,3.82,0.14c0.05,0.01,0.09,0.03,0.14,0.03c0.02,0,0.03-0.01,0.08-0.02
		c-0.42-0.39-0.79-0.8-1.1-1.27c-0.96-1.45-1.44-3.04-1.36-4.78c0.1-2.37,1.64-4.11,3.99-4.49c1.41-0.23,2.8-0.2,4.13,0.4
		c1.5,0.68,2.3,1.89,2.47,3.49c0.27,2.52-0.59,4.67-2.32,6.49c-0.04,0.04-0.09,0.07-0.14,0.1c0.01,0.02,0.02,0.04,0.04,0.06
		c0.19-0.06,0.37-0.12,0.56-0.17c0.2-0.05,0.4-0.11,0.61-0.14c2.16-0.32,4.12,0.12,5.69,1.68c1.5,1.48,1.68,3.29,0.95,5.2
		c-0.84,2.22-2.89,3.09-4.96,2.85c-1.5-0.17-2.8-0.76-3.91-1.78c-0.15-0.14-0.25-0.35-0.49-0.43c0.29,1.46,0.65,2.85,1.22,4.18
		c0.58,1.36,1.57,2.42,2.55,3.57c-3.32,0-6.56,0-9.88,0c0.95-1.12,1.8-2.25,2.28-3.61C235.41,166.09,235.73,164.73,235.9,163.33z"/>
	<path class="st1" d="M181.95,217.29c-1.1,1.26-2.46,2.01-4.09,2.24c-2.56,0.36-4.55-1.01-5.19-3.55c-0.36-1.41-0.29-2.77,0.58-4
		c0.83-1.18,2.02-1.81,3.39-2.12c1.28-0.3,2.56-0.24,3.82,0.14c0.05,0.01,0.09,0.03,0.14,0.03c0.02,0,0.03-0.01,0.08-0.02
		c-0.42-0.39-0.79-0.8-1.1-1.27c-0.96-1.45-1.44-3.04-1.36-4.78c0.1-2.37,1.64-4.11,3.99-4.49c1.41-0.23,2.8-0.2,4.13,0.4
		c1.5,0.68,2.3,1.89,2.47,3.49c0.27,2.52-0.59,4.67-2.32,6.49c-0.04,0.04-0.09,0.07-0.14,0.1c0.01,0.02,0.02,0.04,0.04,0.06
		c0.19-0.06,0.37-0.12,0.56-0.17c0.2-0.05,0.4-0.11,0.61-0.14c2.16-0.32,4.12,0.12,5.69,1.68c1.5,1.48,1.68,3.29,0.95,5.2
		c-0.84,2.22-2.89,3.09-4.96,2.85c-1.5-0.17-2.8-0.76-3.91-1.77c-0.15-0.14-0.25-0.35-0.49-0.43c0.29,1.46,0.65,2.85,1.22,4.18
		c0.58,1.36,1.57,2.42,2.55,3.57c-3.32,0-6.56,0-9.88,0c0.95-1.12,1.8-2.25,2.28-3.61C181.46,220.05,181.77,218.68,181.95,217.29z"
		/>
	<path class="st1" d="M235.9,217.29c-1.1,1.26-2.46,2.01-4.09,2.24c-2.56,0.36-4.55-1.01-5.19-3.55c-0.36-1.41-0.29-2.77,0.58-4
		c0.83-1.18,2.02-1.81,3.39-2.12c1.28-0.3,2.56-0.24,3.82,0.14c0.05,0.01,0.09,0.03,0.14,0.03c0.02,0,0.03-0.01,0.08-0.02
		c-0.42-0.39-0.79-0.8-1.1-1.27c-0.96-1.45-1.44-3.04-1.36-4.78c0.1-2.37,1.64-4.11,3.99-4.49c1.41-0.23,2.8-0.2,4.13,0.4
		c1.5,0.68,2.3,1.89,2.47,3.49c0.27,2.52-0.59,4.67-2.32,6.49c-0.04,0.04-0.09,0.07-0.14,0.1c0.01,0.02,0.02,0.04,0.04,0.06
		c0.19-0.06,0.37-0.12,0.56-0.17c0.2-0.05,0.4-0.11,0.61-0.14c2.16-0.32,4.12,0.12,5.69,1.68c1.5,1.48,1.68,3.29,0.95,5.2
		c-0.84,2.22-2.89,3.09-4.96,2.85c-1.5-0.17-2.8-0.76-3.91-1.77c-0.15-0.14-0.25-0.35-0.49-0.43c0.29,1.46,0.65,2.85,1.22,4.18
		c0.58,1.36,1.57,2.42,2.55,3.57c-3.32,0-6.56,0-9.88,0c0.95-1.12,1.8-2.25,2.28-3.61C235.41,220.05,235.73,218.68,235.9,217.29z"/>
	<path class="st1" d="M182.79,271.24c-1.1,1.26-2.46,2.01-4.09,2.24c-2.56,0.36-4.55-1.01-5.19-3.55c-0.36-1.41-0.29-2.77,0.58-4
		c0.83-1.18,2.02-1.81,3.39-2.12c1.28-0.3,2.56-0.24,3.82,0.14c0.05,0.01,0.09,0.03,0.14,0.03c0.02,0,0.03-0.01,0.08-0.02
		c-0.42-0.39-0.79-0.8-1.1-1.27c-0.96-1.45-1.44-3.04-1.36-4.78c0.1-2.37,1.64-4.11,3.99-4.49c1.41-0.23,2.8-0.2,4.13,0.4
		c1.5,0.68,2.3,1.89,2.47,3.49c0.27,2.52-0.59,4.67-2.32,6.49c-0.04,0.04-0.09,0.07-0.14,0.1c0.01,0.02,0.02,0.04,0.04,0.06
		c0.19-0.06,0.37-0.12,0.56-0.17c0.2-0.05,0.4-0.11,0.61-0.14c2.16-0.32,4.12,0.12,5.69,1.68c1.5,1.48,1.68,3.29,0.95,5.2
		c-0.84,2.22-2.89,3.09-4.96,2.85c-1.5-0.17-2.8-0.76-3.91-1.77c-0.15-0.14-0.25-0.35-0.49-0.43c0.29,1.46,0.65,2.85,1.22,4.18
		c0.58,1.36,1.57,2.42,2.55,3.57c-3.32,0-6.56,0-9.88,0c0.95-1.12,1.8-2.25,2.28-3.61C182.29,274,182.61,272.63,182.79,271.24z"/>
	<path class="st1" d="M236.74,271.24c-1.1,1.26-2.46,2.01-4.09,2.24c-2.56,0.36-4.55-1.01-5.19-3.55c-0.36-1.41-0.29-2.77,0.58-4
		c0.83-1.18,2.02-1.81,3.39-2.12c1.28-0.3,2.56-0.24,3.82,0.14c0.05,0.01,0.09,0.03,0.14,0.03c0.02,0,0.03-0.01,0.08-0.02
		c-0.42-0.39-0.79-0.8-1.1-1.27c-0.96-1.45-1.44-3.04-1.36-4.78c0.1-2.37,1.64-4.11,3.99-4.49c1.41-0.23,2.8-0.2,4.13,0.4
		c1.5,0.68,2.3,1.89,2.47,3.49c0.27,2.52-0.59,4.67-2.32,6.49c-0.04,0.04-0.09,0.07-0.14,0.1c0.01,0.02,0.02,0.04,0.04,0.06
		c0.19-0.06,0.37-0.12,0.56-0.17c0.2-0.05,0.4-0.11,0.61-0.14c2.16-0.32,4.12,0.12,5.69,1.68c1.5,1.48,1.68,3.29,0.95,5.2
		c-0.84,2.22-2.89,3.09-4.96,2.85c-1.5-0.17-2.8-0.76-3.91-1.77c-0.15-0.14-0.25-0.35-0.49-0.43c0.29,1.46,0.65,2.85,1.22,4.18
		c0.58,1.36,1.57,2.42,2.55,3.57c-3.32,0-6.56,0-9.88,0c0.95-1.12,1.8-2.25,2.28-3.61C236.25,274,236.56,272.63,236.74,271.24z"/>
</g>
<path class="st1" d="M287.19,303.49c1.1-1.26,2.46-2.01,4.09-2.24c2.56-0.36,4.55,1.01,5.19,3.55c0.36,1.41,0.29,2.77-0.58,4
	c-0.83,1.18-2.02,1.81-3.39,2.12c-1.28,0.3-2.56,0.24-3.82-0.14c-0.05-0.01-0.09-0.03-0.14-0.03c-0.02,0-0.03,0.01-0.08,0.02
	c0.42,0.39,0.79,0.8,1.1,1.27c0.96,1.45,1.44,3.04,1.36,4.78c-0.1,2.37-1.64,4.11-3.99,4.49c-1.41,0.23-2.8,0.2-4.13-0.4
	c-1.5-0.68-2.3-1.89-2.47-3.49c-0.27-2.52,0.59-4.67,2.32-6.49c0.04-0.04,0.09-0.07,0.14-0.1c-0.01-0.02-0.02-0.04-0.04-0.06
	c-0.19,0.06-0.37,0.12-0.56,0.17c-0.2,0.05-0.4,0.11-0.61,0.14c-2.16,0.32-4.12-0.12-5.69-1.68c-1.5-1.48-1.68-3.29-0.95-5.2
	c0.84-2.22,2.89-3.09,4.96-2.85c1.5,0.17,2.8,0.76,3.91,1.78c0.15,0.14,0.25,0.35,0.49,0.43c-0.29-1.46-0.65-2.85-1.22-4.18
	c-0.58-1.36-1.57-2.42-2.55-3.57c3.32,0,6.56,0,9.88,0c-0.95,1.12-1.8,2.25-2.28,3.61C287.69,300.73,287.37,302.09,287.19,303.49z"
	/>
<g>
	<path d="M282.1,351.37c-0.46,0.13-0.79-0.03-0.92-0.46l-0.76-1.95c-0.17-0.4-0.03-0.76,0.59-0.96c1.55-0.49,6.23-2.7,7.25-6.33
		c-0.56,0.33-2.21,0.92-3.76,0.92c-3.3,0-6.73-2.44-6.73-7.16c0-4.16,3.4-7.55,7.45-7.55c5.18,0,7.85,4.16,7.85,9.1
		C293.08,346.63,284.93,350.45,282.1,351.37z M281.5,335.51c0,2.11,1.68,3.86,3.79,3.86c2.18,0,3.46-1.68,3.83-2.87
		c0-2.24-1.19-4.85-3.86-4.85C283.19,331.66,281.5,333.44,281.5,335.51z"/>
</g>
<g>
	<path d="M87,72.25c0.43-0.21,0.78-0.11,0.99,0.29l1.09,1.78c0.23,0.36,0.17,0.74-0.42,1.05c-1.44,0.76-5.66,3.76-6.03,7.51
		c0.49-0.42,2.01-1.3,3.54-1.57c3.25-0.58,7.05,1.22,7.88,5.86c0.73,4.09-2.02,8.03-6.01,8.74c-5.1,0.91-8.46-2.71-9.32-7.58
		C77.02,78.85,84.37,73.66,87,72.25z M90.37,87.76c-0.37-2.08-2.33-3.5-4.41-3.13c-2.14,0.38-3.11,2.26-3.26,3.5
		c0.39,2.21,2.02,4.56,4.65,4.09C89.39,91.86,90.73,89.81,90.37,87.76z"/>
</g>
<path class="st1" d="M89.74,126.88c0.02-0.06,0.04-0.13,0.07-0.19c0.94-1.72,1.27-3.6,1.47-5.51c0.02-0.21,0.04-0.41,0.07-0.65
	c-0.83,0.71-1.7,1.26-2.69,1.61c-2.05,0.73-4.05,0.75-5.92-0.51c-1.31-0.88-1.97-2.17-2.09-3.74c-0.15-1.91,0.48-3.62,1.33-5.28
	c0.58-1.13,1.36-2.13,2.08-3.16c1.78-2.57,3.22-5.31,4.43-8.18c0.2-0.48,0.21-0.48,0.55-0.08c2.38,2.81,5.2,5.08,8.29,7.05
	c1.87,1.19,3.36,2.79,4.22,4.89c0.09,0.23,0.11,0.49,0.27,0.7c0.01,0.06,0.02,0.11,0.03,0.17c-0.01,0.23,0.03,0.46,0.12,0.68
	c0.01,0.06,0.02,0.11,0.03,0.17c0.05,0.59,0.04,1.17-0.11,1.76c-0.29,1.14-0.9,2.07-1.8,2.79c-1.6,1.29-3.45,1.6-5.43,1.31
	c-0.45-0.06-0.9-0.17-1.31-0.3c-0.05,0.02-0.07,0.04-0.06,0.06c0.56,1.36,1.19,2.68,2.21,3.76c0.33,0.36,0.73,0.65,1.11,0.95
	c0.12,0.1,0.24,0.19,0.34,0.31c0.05,0.07,0.07,0.14-0.05,0.16c-2.28,0.41-4.56,0.81-6.83,1.22
	C89.94,126.88,89.84,126.93,89.74,126.88z"/>
</svg>
