<?xml version="1.0" encoding="utf-8"?>
<!-- Generator: Adobe Illustrator 24.1.0, SVG Export Plug-In . SVG Version: 6.00 Build 0)  -->
<svg version="1.1" id="Layer_1" xmlns="http://www.w3.org/2000/svg" xmlns:xlink="http://www.w3.org/1999/xlink" x="0px" y="0px"
	 viewBox="0 0 400 400" style="enable-background:new 0 0 400 400;" xml:space="preserve">
<style type="text/css">
	.st0{fill:#FFFFFF;stroke:#000000;stroke-width:1.7984;stroke-miterlimit:10;}
	.st1{fill:#010101;}
	.st2{fill:#EC2526;}
	.st3{fill:#ED2224;}
	.st4{fill:#7F7C7C;}
	.st5{fill:#706D6D;}
	.st6{fill:#FFFFFF;stroke:#000000;stroke-width:2.1286;stroke-miterlimit:10;}
</style>
<path class="st0" d="M343.26,219.49L221.72,339.57c-4.22,4.17-11.09,4.13-15.26-0.09L10.54,141.19c-4.17-4.22-4.13-11.09,0.09-15.26
	L132.17,5.85c4.22-4.17,11.09-4.13,15.26,0.09l195.92,198.29C347.52,208.46,347.48,215.32,343.26,219.49z"/>
<g>
	<path d="M27.8,135.67l-0.07-0.07c-1.47,0.43-4.2,0.58-6.01-1.25c-2.57-2.6-1.99-6.52,0.85-9.32c2.93-2.9,6.85-3.43,9.43-0.83
		c1.76,1.78,1.56,4.49,1.15,6l0.09,0.09c1.59-0.5,4.72-0.9,6.71,1.11c2.53,2.56,2.29,6.64-1.16,10.04c-3.35,3.31-7.44,3.5-9.96,0.94
		C26.82,140.35,27.47,136.65,27.8,135.67z M29.11,127.28c-1.11-1.13-2.93-1.04-4.15,0.16c-1.13,1.11-1.23,2.93-0.12,4.06
		c1.04,1.06,2.51,1.23,4.33,0.12C30.31,129.85,30.11,128.29,29.11,127.28z M36.48,139.01c1.29-1.27,1.58-3.28,0.31-4.57
		c-1.04-1.06-2.98-1.28-4.9-0.08c-1.22,1.9-1.03,3.84,0.02,4.9C33.18,140.55,35.21,140.26,36.48,139.01z"/>
</g>
<path class="st0" d="M343.84,279.72l-151.26,79.44c-5.25,2.76-11.81,0.72-14.57-4.54l-129.6-246.8c-2.76-5.25-0.72-11.81,4.54-14.57
	L204.2,13.82c5.25-2.76,11.81-0.72,14.57,4.54l129.6,246.79C351.14,270.4,349.1,276.96,343.84,279.72z"/>
<path class="st1" d="M300.63,256.51c0.73-1.5,1.84-2.59,3.35-3.24c2.37-1.03,4.65-0.23,5.95,2.04c0.72,1.27,1.01,2.59,0.5,4.01
	c-0.49,1.36-1.47,2.28-2.7,2.95c-1.16,0.62-2.4,0.91-3.72,0.88c-0.05,0-0.09,0-0.14,0c-0.02,0-0.03,0.02-0.07,0.04
	c0.51,0.26,0.98,0.56,1.4,0.93c1.31,1.14,2.19,2.55,2.58,4.25c0.53,2.32-0.49,4.39-2.65,5.38c-1.3,0.59-2.65,0.94-4.09,0.71
	c-1.62-0.26-2.72-1.21-3.31-2.71c-0.93-2.36-0.67-4.66,0.51-6.88c0.03-0.05,0.07-0.09,0.11-0.13c-0.02-0.02-0.03-0.03-0.05-0.05
	c-0.17,0.1-0.33,0.21-0.5,0.31c-0.18,0.1-0.36,0.21-0.55,0.3c-1.99,0.88-4,0.98-5.93-0.11c-1.84-1.03-2.5-2.72-2.3-4.76
	c0.23-2.37,1.96-3.74,4.03-4.07c1.49-0.23,2.9-0.01,4.24,0.67c0.18,0.09,0.33,0.27,0.59,0.29c-0.66-1.33-1.38-2.57-2.29-3.71
	c-0.92-1.16-2.16-1.92-3.41-2.76c3.2-0.88,6.33-1.74,9.53-2.62c-0.62,1.33-1.14,2.64-1.24,4.08
	C300.37,253.71,300.43,255.11,300.63,256.51z"/>
<g>
	<path d="M292.68,246.81c-0.41,0.25-0.77,0.18-1.01-0.2l-1.25-1.67c-0.26-0.34-0.23-0.72,0.32-1.08c1.36-0.89,5.29-4.26,5.31-8.03
		c-0.45,0.47-1.88,1.48-3.38,1.89c-3.18,0.88-7.13-0.57-8.38-5.11c-1.1-4.01,1.27-8.18,5.18-9.26c4.99-1.37,8.67,1.92,9.98,6.69
		C302.01,239.32,295.17,245.17,292.68,246.81z M287.9,231.67c0.56,2.04,2.64,3.28,4.68,2.72c2.1-0.58,2.89-2.54,2.93-3.78
		c-0.59-2.16-2.43-4.36-5-3.65C288.5,227.51,287.35,229.67,287.9,231.67z"/>
</g>
<g>
	<path class="st1" d="M149.99,120.88c-0.73,1.5-1.84,2.59-3.35,3.24c-2.37,1.03-4.65,0.23-5.95-2.04c-0.72-1.27-1.01-2.59-0.5-4.01
		c0.49-1.36,1.47-2.28,2.7-2.95c1.16-0.62,2.4-0.91,3.72-0.88c0.05,0,0.09,0,0.14,0c0.02,0,0.03-0.02,0.07-0.04
		c-0.51-0.26-0.98-0.56-1.4-0.93c-1.31-1.14-2.19-2.55-2.58-4.25c-0.53-2.32,0.49-4.39,2.65-5.38c1.3-0.59,2.65-0.94,4.09-0.71
		c1.62,0.26,2.72,1.21,3.31,2.71c0.93,2.36,0.67,4.66-0.51,6.88c-0.03,0.05-0.07,0.09-0.11,0.13c0.02,0.02,0.03,0.03,0.05,0.05
		c0.17-0.1,0.33-0.21,0.5-0.31c0.18-0.1,0.36-0.21,0.55-0.3c1.99-0.88,4-0.98,5.93,0.11c1.84,1.03,2.5,2.72,2.3,4.76
		c-0.23,2.37-1.96,3.74-4.03,4.07c-1.49,0.23-2.9,0.01-4.24-0.67c-0.18-0.09-0.33-0.27-0.59-0.29c0.66,1.33,1.38,2.57,2.29,3.71
		c0.92,1.16,2.16,1.92,3.41,2.76c-3.2,0.88-6.33,1.74-9.53,2.62c0.62-1.33,1.14-2.64,1.24-4.08
		C150.24,123.67,150.19,122.27,149.99,120.88z"/>
	<path class="st1" d="M201.9,106.6c-0.73,1.5-1.84,2.59-3.35,3.24c-2.37,1.03-4.65,0.23-5.95-2.04c-0.72-1.27-1.01-2.59-0.5-4.01
		c0.49-1.36,1.47-2.28,2.7-2.95c1.16-0.62,2.4-0.91,3.72-0.88c0.05,0,0.09,0,0.14,0c0.02,0,0.03-0.02,0.07-0.04
		c-0.51-0.26-0.98-0.56-1.4-0.93c-1.31-1.14-2.19-2.55-2.58-4.25c-0.53-2.32,0.49-4.39,2.65-5.38c1.3-0.59,2.65-0.94,4.09-0.71
		c1.62,0.26,2.72,1.21,3.31,2.71c0.93,2.36,0.67,4.66-0.51,6.88c-0.03,0.05-0.07,0.09-0.11,0.13c0.02,0.02,0.03,0.03,0.05,0.05
		c0.17-0.1,0.33-0.21,0.5-0.31c0.18-0.1,0.36-0.21,0.55-0.3c1.99-0.88,4-0.98,5.93,0.11c1.84,1.03,2.5,2.72,2.3,4.76
		c-0.23,2.37-1.96,3.74-4.03,4.07c-1.49,0.23-2.9,0.01-4.24-0.67c-0.18-0.09-0.33-0.27-0.59-0.29c0.66,1.33,1.38,2.57,2.29,3.71
		c0.92,1.16,2.16,1.92,3.41,2.76c-3.2,0.88-6.33,1.74-9.53,2.62c0.62-1.33,1.14-2.64,1.24-4.08
		C202.16,109.39,202.1,107.99,201.9,106.6z"/>
	<path class="st1" d="M164.19,172.93c-0.73,1.5-1.84,2.59-3.35,3.24c-2.37,1.03-4.65,0.23-5.95-2.04c-0.72-1.27-1.01-2.59-0.5-4.01
		c0.49-1.36,1.47-2.28,2.7-2.95c1.16-0.62,2.4-0.91,3.72-0.88c0.05,0,0.09,0,0.14,0c0.02,0,0.03-0.02,0.07-0.04
		c-0.51-0.26-0.98-0.56-1.4-0.93c-1.31-1.14-2.19-2.55-2.58-4.25c-0.53-2.32,0.49-4.39,2.65-5.38c1.3-0.59,2.65-0.94,4.09-0.71
		c1.62,0.26,2.72,1.21,3.31,2.71c0.93,2.36,0.67,4.66-0.51,6.88c-0.03,0.05-0.07,0.09-0.11,0.13c0.02,0.02,0.03,0.03,0.05,0.05
		c0.17-0.1,0.33-0.21,0.5-0.31c0.18-0.1,0.36-0.21,0.55-0.3c1.99-0.88,4-0.98,5.93,0.11c1.84,1.03,2.5,2.72,2.3,4.76
		c-0.23,2.37-1.96,3.74-4.03,4.07c-1.49,0.23-2.9,0.01-4.24-0.67c-0.18-0.09-0.33-0.27-0.59-0.29c0.66,1.33,1.38,2.57,2.29,3.71
		c0.92,1.16,2.16,1.92,3.41,2.76c-3.2,0.88-6.33,1.74-9.53,2.62c0.62-1.33,1.14-2.64,1.24-4.08
		C164.45,175.72,164.39,174.32,164.19,172.93z"/>
	<path class="st1" d="M216.22,158.62c-0.73,1.5-1.84,2.59-3.35,3.24c-2.37,1.03-4.65,0.23-5.95-2.04c-0.72-1.27-1.01-2.59-0.5-4.01
		c0.49-1.36,1.47-2.28,2.7-2.95c1.16-0.62,2.4-0.91,3.72-0.88c0.05,0,0.09,0,0.14,0c0.02,0,0.03-0.02,0.07-0.04
		c-0.51-0.26-0.98-0.56-1.4-0.93c-1.31-1.14-2.19-2.55-2.58-4.25c-0.53-2.32,0.49-4.39,2.65-5.38c1.3-0.59,2.65-0.94,4.09-0.71
		c1.62,0.26,2.72,1.21,3.31,2.71c0.93,2.36,0.67,4.66-0.51,6.88c-0.03,0.05-0.07,0.09-0.11,0.13c0.02,0.02,0.03,0.03,0.05,0.05
		c0.17-0.1,0.33-0.21,0.5-0.31c0.18-0.1,0.36-0.21,0.55-0.3c1.99-0.88,4-0.98,5.93,0.11c1.84,1.03,2.5,2.72,2.3,4.76
		c-0.23,2.37-1.96,3.74-4.03,4.07c-1.49,0.23-2.9,0.01-4.24-0.67c-0.18-0.09-0.33-0.27-0.59-0.29c0.66,1.33,1.38,2.57,2.29,3.71
		c0.92,1.16,2.16,1.92,3.41,2.76c-3.2,0.88-6.33,1.74-9.53,2.62c0.62-1.33,1.14-2.64,1.24-4.08
		C216.47,161.41,216.42,160.01,216.22,158.62z"/>
	<path class="st1" d="M179.31,224.73c-0.73,1.5-1.84,2.59-3.35,3.24c-2.37,1.03-4.65,0.23-5.95-2.04c-0.72-1.27-1.01-2.59-0.5-4.01
		c0.49-1.36,1.47-2.28,2.7-2.95c1.16-0.62,2.4-0.91,3.72-0.88c0.05,0,0.09,0,0.14,0c0.02,0,0.03-0.02,0.07-0.04
		c-0.51-0.26-0.98-0.56-1.4-0.93c-1.31-1.14-2.19-2.55-2.58-4.25c-0.53-2.32,0.49-4.39,2.65-5.38c1.3-0.59,2.65-0.94,4.09-0.71
		c1.62,0.26,2.72,1.21,3.31,2.71c0.93,2.36,0.67,4.66-0.51,6.88c-0.03,0.05-0.07,0.09-0.11,0.13c0.02,0.02,0.03,0.03,0.05,0.05
		c0.17-0.1,0.33-0.21,0.5-0.31c0.18-0.1,0.36-0.21,0.55-0.3c1.99-0.88,4-0.98,5.93,0.11c1.84,1.03,2.5,2.72,2.3,4.76
		c-0.23,2.37-1.96,3.74-4.03,4.07c-1.49,0.23-2.9,0.01-4.24-0.67c-0.18-0.09-0.33-0.27-0.59-0.29c0.66,1.33,1.38,2.57,2.29,3.71
		c0.92,1.16,2.16,1.92,3.41,2.76c-3.2,0.88-6.33,1.74-9.53,2.62c0.62-1.33,1.14-2.64,1.24-4.08
		C179.57,227.52,179.51,226.12,179.31,224.73z"/>
	<path class="st1" d="M231.33,210.41c-0.73,1.5-1.84,2.59-3.35,3.24c-2.37,1.03-4.65,0.23-5.95-2.04c-0.72-1.27-1.01-2.59-0.5-4.01
		c0.49-1.36,1.47-2.28,2.7-2.95c1.16-0.62,2.4-0.91,3.72-0.88c0.05,0,0.09,0,0.14,0c0.02,0,0.03-0.02,0.07-0.04
		c-0.51-0.26-0.98-0.56-1.4-0.93c-1.31-1.14-2.19-2.55-2.58-4.25c-0.53-2.32,0.49-4.39,2.65-5.38c1.3-0.59,2.65-0.94,4.09-0.71
		c1.62,0.26,2.72,1.21,3.31,2.71c0.93,2.36,0.67,4.66-0.51,6.88c-0.03,0.05-0.07,0.09-0.11,0.13c0.02,0.02,0.03,0.03,0.05,0.05
		c0.17-0.1,0.33-0.21,0.5-0.31c0.18-0.1,0.36-0.21,0.55-0.3c1.99-0.88,4-0.98,5.93,0.11c1.84,1.03,2.5,2.72,2.3,4.76
		c-0.23,2.37-1.96,3.74-4.03,4.07c-1.49,0.23-2.9,0.01-4.24-0.67c-0.18-0.09-0.33-0.27-0.59-0.29c0.66,1.33,1.38,2.57,2.29,3.71
		c0.92,1.16,2.16,1.92,3.41,2.76c-3.2,0.88-6.33,1.74-9.53,2.62c0.62-1.33,1.14-2.64,1.24-4.08
		C231.59,213.21,231.53,211.81,231.33,210.41z"/>
</g>
<path class="st0" d="M354.43,307.29l-162.86,51.65c-5.66,1.79-11.75-1.37-13.55-7.02L93.76,86.21c-1.79-5.66,1.37-11.75,7.02-13.55
	l162.86-51.65c5.66-1.79,11.75,1.37,13.55,7.02l84.27,265.71C363.25,299.4,360.09,305.5,354.43,307.29z"/>
<g>
	<path class="st2" d="M111.65,89.14l-0.03-0.09c-1.51-0.28-4-1.39-4.78-3.85c-1.11-3.49,1.19-6.71,5-7.92
		c3.93-1.25,7.66,0.06,8.77,3.55c0.76,2.39-0.65,4.7-1.7,5.87l0.04,0.13c1.64,0.27,4.61,1.34,5.47,4.04
		c1.09,3.43-0.98,6.95-5.6,8.42c-4.5,1.43-8.21-0.27-9.3-3.69C108.64,92.86,110.91,89.86,111.65,89.14z M116.63,82.27
		c-0.48-1.51-2.14-2.26-3.77-1.74c-1.51,0.48-2.43,2.05-1.95,3.56c0.45,1.42,1.68,2.24,3.81,2.08
		C116.52,85.1,117.06,83.62,116.63,82.27z M117.85,96.06c1.73-0.55,2.9-2.2,2.35-3.93c-0.45-1.41-2.07-2.49-4.33-2.29
		c-1.96,1.14-2.66,2.95-2.21,4.37C114.22,95.94,116.16,96.6,117.85,96.06z"/>
</g>
<g>
	<path class="st1" d="M194.42,144.87c-0.92,1.39-2.16,2.32-3.74,2.78c-2.49,0.71-4.64-0.38-5.63-2.8c-0.55-1.35-0.66-2.7,0.02-4.04
		c0.66-1.28,1.75-2.07,3.06-2.57c1.23-0.47,2.5-0.59,3.8-0.39c0.05,0.01,0.09,0.01,0.14,0.01c0.02,0,0.03-0.01,0.08-0.03
		c-0.47-0.33-0.9-0.69-1.27-1.11c-1.15-1.3-1.84-2.81-2.01-4.55c-0.23-2.37,1.06-4.29,3.33-4.99c1.36-0.42,2.75-0.58,4.14-0.17
		c1.57,0.47,2.54,1.56,2.93,3.12c0.61,2.46,0.06,4.71-1.41,6.75c-0.03,0.05-0.08,0.08-0.12,0.12c0.02,0.02,0.03,0.04,0.05,0.06
		c0.18-0.08,0.35-0.17,0.53-0.24c0.19-0.08,0.38-0.16,0.58-0.22c2.09-0.61,4.09-0.45,5.87,0.88c1.69,1.26,2.12,3.03,1.66,5.02
		c-0.53,2.32-2.44,3.46-4.52,3.51c-1.51,0.04-2.88-0.37-4.12-1.22c-0.17-0.12-0.29-0.31-0.55-0.36c0.49,1.4,1.03,2.73,1.78,3.98
		c0.76,1.27,1.89,2.18,3.02,3.18c-3.29,0.46-6.5,0.9-9.79,1.36c0.78-1.24,1.48-2.47,1.76-3.89
		C194.31,147.67,194.44,146.28,194.42,144.87z"/>
	<path class="st1" d="M247.76,137.48c-0.92,1.39-2.16,2.32-3.74,2.78c-2.49,0.71-4.64-0.38-5.63-2.8c-0.55-1.35-0.66-2.7,0.02-4.04
		c0.66-1.28,1.75-2.07,3.06-2.57c1.23-0.47,2.5-0.59,3.8-0.39c0.05,0.01,0.09,0.01,0.14,0.01c0.02,0,0.03-0.01,0.08-0.03
		c-0.47-0.33-0.9-0.69-1.27-1.11c-1.15-1.3-1.84-2.81-2.01-4.55c-0.23-2.37,1.06-4.29,3.33-4.99c1.36-0.42,2.75-0.58,4.14-0.17
		c1.57,0.47,2.54,1.56,2.93,3.12c0.61,2.46,0.06,4.71-1.41,6.75c-0.03,0.05-0.08,0.08-0.12,0.12c0.02,0.02,0.03,0.04,0.05,0.06
		c0.18-0.08,0.35-0.17,0.53-0.24c0.19-0.08,0.38-0.16,0.58-0.22c2.09-0.61,4.09-0.45,5.87,0.88c1.69,1.26,2.12,3.03,1.66,5.02
		c-0.53,2.32-2.44,3.46-4.52,3.51c-1.51,0.04-2.88-0.37-4.12-1.22c-0.17-0.12-0.29-0.31-0.55-0.36c0.49,1.4,1.03,2.73,1.78,3.98
		c0.76,1.27,1.89,2.18,3.02,3.18c-3.29,0.46-6.5,0.9-9.79,1.36c0.78-1.24,1.48-2.47,1.76-3.89
		C247.65,140.28,247.78,138.88,247.76,137.48z"/>
	<path class="st1" d="M201.72,198.33c-0.92,1.39-2.16,2.32-3.74,2.78c-2.49,0.71-4.64-0.38-5.63-2.8c-0.55-1.35-0.66-2.7,0.02-4.04
		c0.66-1.28,1.75-2.07,3.06-2.57c1.23-0.47,2.5-0.59,3.8-0.39c0.05,0.01,0.09,0.01,0.14,0.01c0.02,0,0.03-0.01,0.08-0.03
		c-0.47-0.33-0.9-0.69-1.27-1.11c-1.15-1.3-1.84-2.81-2.01-4.55c-0.23-2.37,1.06-4.29,3.33-4.99c1.36-0.42,2.75-0.58,4.14-0.17
		c1.57,0.47,2.54,1.56,2.93,3.12c0.61,2.46,0.06,4.71-1.41,6.75c-0.03,0.05-0.08,0.08-0.12,0.12c0.02,0.02,0.03,0.04,0.05,0.06
		c0.18-0.08,0.35-0.17,0.53-0.24c0.19-0.08,0.38-0.16,0.58-0.22c2.09-0.61,4.09-0.45,5.87,0.88c1.69,1.26,2.12,3.03,1.66,5.02
		c-0.53,2.32-2.44,3.46-4.52,3.51c-1.51,0.04-2.88-0.37-4.12-1.22c-0.17-0.12-0.29-0.31-0.55-0.36c0.49,1.4,1.03,2.73,1.78,3.98
		c0.76,1.27,1.89,2.18,3.02,3.18c-3.29,0.46-6.5,0.9-9.79,1.36c0.78-1.24,1.48-2.47,1.76-3.89
		C201.62,201.13,201.74,199.73,201.72,198.33z"/>
	<path class="st1" d="M255.17,190.92c-0.92,1.39-2.16,2.32-3.74,2.78c-2.49,0.71-4.64-0.38-5.63-2.8c-0.55-1.35-0.66-2.7,0.02-4.04
		c0.66-1.28,1.75-2.07,3.06-2.57c1.23-0.47,2.5-0.59,3.8-0.39c0.05,0.01,0.09,0.01,0.14,0.01c0.02,0,0.03-0.01,0.08-0.03
		c-0.47-0.33-0.9-0.69-1.27-1.11c-1.15-1.3-1.84-2.81-2.01-4.55c-0.23-2.37,1.06-4.29,3.33-4.99c1.36-0.42,2.75-0.58,4.14-0.17
		c1.57,0.47,2.54,1.56,2.93,3.12c0.61,2.46,0.06,4.71-1.41,6.75c-0.03,0.05-0.08,0.08-0.12,0.12c0.02,0.02,0.03,0.04,0.05,0.06
		c0.18-0.08,0.35-0.17,0.53-0.24c0.19-0.08,0.38-0.16,0.58-0.22c2.09-0.61,4.09-0.45,5.87,0.88c1.69,1.26,2.12,3.03,1.66,5.02
		c-0.53,2.32-2.44,3.46-4.52,3.51c-1.51,0.04-2.88-0.37-4.12-1.22c-0.17-0.12-0.29-0.31-0.55-0.36c0.49,1.4,1.03,2.73,1.78,3.98
		c0.76,1.27,1.89,2.18,3.02,3.18c-3.29,0.46-6.5,0.9-9.79,1.36c0.78-1.24,1.48-2.47,1.76-3.89
		C255.06,193.72,255.18,192.33,255.17,190.92z"/>
	<path class="st1" d="M209.96,251.65c-0.92,1.39-2.16,2.32-3.74,2.78c-2.49,0.71-4.64-0.38-5.63-2.8c-0.55-1.35-0.66-2.7,0.02-4.04
		c0.66-1.28,1.75-2.07,3.06-2.57c1.23-0.47,2.5-0.59,3.8-0.39c0.05,0.01,0.09,0.01,0.14,0.01c0.02,0,0.03-0.01,0.08-0.03
		c-0.47-0.33-0.9-0.69-1.27-1.11c-1.15-1.3-1.84-2.81-2.01-4.55c-0.23-2.37,1.06-4.29,3.33-4.99c1.36-0.42,2.75-0.58,4.14-0.17
		c1.57,0.47,2.54,1.56,2.93,3.12c0.61,2.46,0.06,4.71-1.41,6.75c-0.03,0.05-0.08,0.08-0.12,0.12c0.02,0.02,0.03,0.04,0.05,0.06
		c0.18-0.08,0.35-0.17,0.53-0.24c0.19-0.08,0.38-0.16,0.58-0.22c2.09-0.61,4.09-0.45,5.87,0.88c1.69,1.26,2.12,3.03,1.66,5.02
		c-0.53,2.32-2.44,3.46-4.52,3.51c-1.51,0.04-2.88-0.37-4.12-1.22c-0.17-0.12-0.29-0.31-0.55-0.36c0.49,1.4,1.03,2.73,1.78,3.98
		c0.76,1.27,1.89,2.18,3.02,3.18c-3.29,0.46-6.5,0.9-9.79,1.36c0.78-1.24,1.48-2.47,1.76-3.89
		C209.85,254.45,209.98,253.06,209.96,251.65z"/>
	<path class="st1" d="M263.4,244.25c-0.92,1.39-2.16,2.32-3.74,2.78c-2.49,0.71-4.64-0.38-5.63-2.8c-0.55-1.35-0.66-2.7,0.02-4.04
		c0.66-1.28,1.75-2.07,3.06-2.57c1.23-0.47,2.5-0.59,3.8-0.39c0.05,0.01,0.09,0.01,0.14,0.01c0.02,0,0.03-0.01,0.08-0.03
		c-0.47-0.33-0.9-0.69-1.27-1.11c-1.15-1.3-1.84-2.81-2.01-4.55c-0.23-2.37,1.06-4.29,3.33-4.99c1.36-0.42,2.75-0.58,4.14-0.17
		c1.57,0.47,2.54,1.56,2.93,3.12c0.61,2.46,0.06,4.71-1.41,6.75c-0.03,0.05-0.08,0.08-0.12,0.12c0.02,0.02,0.03,0.04,0.05,0.06
		c0.18-0.08,0.35-0.17,0.53-0.24c0.19-0.08,0.38-0.16,0.58-0.22c2.09-0.61,4.09-0.45,5.87,0.88c1.69,1.26,2.12,3.03,1.66,5.02
		c-0.53,2.32-2.44,3.46-4.52,3.51c-1.51,0.04-2.88-0.37-4.12-1.22c-0.17-0.12-0.29-0.31-0.55-0.36c0.49,1.4,1.03,2.73,1.78,3.98
		c0.76,1.27,1.89,2.18,3.02,3.18c-3.29,0.46-6.5,0.9-9.79,1.36c0.78-1.24,1.48-2.47,1.76-3.89
		C263.29,247.05,263.42,245.65,263.4,244.25z"/>
</g>
<path class="st1" d="M322.47,263.02c0.78-1.47,1.94-2.52,3.47-3.11c2.41-0.94,4.66-0.06,5.87,2.27c0.67,1.29,0.91,2.63,0.35,4.02
	c-0.54,1.34-1.55,2.22-2.81,2.84c-1.18,0.58-2.43,0.82-3.75,0.74c-0.05,0-0.09,0-0.14,0c-0.02,0-0.03,0.02-0.07,0.04
	c0.5,0.28,0.96,0.6,1.36,0.98c1.27,1.19,2.09,2.63,2.42,4.34c0.45,2.33-0.65,4.37-2.85,5.28c-1.32,0.54-2.68,0.83-4.11,0.55
	c-1.61-0.32-2.67-1.32-3.21-2.83c-0.84-2.39-0.5-4.68,0.77-6.85c0.03-0.05,0.07-0.09,0.11-0.13c-0.02-0.02-0.03-0.03-0.05-0.05
	c-0.17,0.1-0.34,0.2-0.51,0.29c-0.18,0.1-0.37,0.2-0.56,0.28c-2.03,0.81-4.03,0.83-5.93-0.33c-1.8-1.1-2.39-2.82-2.12-4.85
	c0.31-2.36,2.1-3.67,4.18-3.91c1.5-0.18,2.9,0.1,4.22,0.83c0.18,0.1,0.32,0.28,0.58,0.31c-0.61-1.35-1.28-2.62-2.15-3.79
	c-0.88-1.19-2.08-2-3.3-2.89c3.23-0.76,6.39-1.5,9.62-2.26c-0.66,1.31-1.24,2.6-1.4,4.03C322.32,260.23,322.32,261.63,322.47,263.02
	z"/>
<g>
	<path d="M66.53,107.57l-0.05-0.09c-1.54-0.01-4.19-0.67-5.38-2.95c-1.7-3.24,0-6.81,3.53-8.67c3.65-1.92,7.55-1.29,9.26,1.96
		c1.17,2.22,0.18,4.75-0.65,6.08l0.06,0.12c1.67-0.02,4.78,0.51,6.09,3.02c1.67,3.18,0.26,7.01-4.03,9.27
		c-4.17,2.19-8.13,1.18-9.8-2C64.22,111.76,65.93,108.41,66.53,107.57z M70.23,99.93c-0.74-1.4-2.5-1.85-4.02-1.06
		c-1.4,0.74-2.03,2.44-1.29,3.85c0.69,1.31,2.04,1.91,4.11,1.38C70.62,102.74,70.88,101.19,70.23,99.93z M73.86,113.3
		c1.61-0.84,2.47-2.67,1.62-4.28c-0.69-1.31-2.48-2.09-4.66-1.5c-1.73,1.46-2.1,3.38-1.41,4.69
		C70.25,113.81,72.28,114.12,73.86,113.3z"/>
</g>
<path class="st1" d="M86.31,145.32c0-0.07,0-0.13,0.01-0.2c0.38-1.92,0.12-3.81-0.26-5.7c-0.04-0.2-0.09-0.4-0.13-0.64
	c-0.57,0.92-1.24,1.72-2.07,2.35c-1.73,1.31-3.64,1.94-5.8,1.31c-1.52-0.44-2.53-1.48-3.12-2.93c-0.72-1.78-0.64-3.6-0.32-5.44
	c0.21-1.25,0.65-2.44,1.02-3.64c0.92-2.98,1.46-6.04,1.75-9.14c0.05-0.52,0.05-0.53,0.5-0.25c3.11,1.96,6.49,3.27,10.03,4.21
	c2.14,0.57,4.04,1.64,5.5,3.39c0.16,0.19,0.26,0.44,0.47,0.59c0.03,0.05,0.05,0.1,0.08,0.15c0.06,0.23,0.17,0.43,0.32,0.61
	c0.03,0.05,0.05,0.1,0.08,0.15c0.23,0.55,0.39,1.11,0.43,1.71c0.07,1.17-0.23,2.24-0.87,3.21c-1.14,1.71-2.8,2.57-4.78,2.9
	c-0.45,0.08-0.91,0.11-1.34,0.1c-0.04,0.04-0.05,0.06-0.04,0.07c0.94,1.13,1.94,2.19,3.24,2.92c0.43,0.24,0.89,0.4,1.34,0.57
	c0.14,0.05,0.29,0.1,0.41,0.19c0.07,0.05,0.11,0.11,0,0.17c-2.05,1.07-4.1,2.15-6.15,3.22C86.51,145.26,86.43,145.34,86.31,145.32z"
	/>
<path class="st3" d="M128.15,128.93c-0.52-0.64-0.95-1.34-1.5-1.97c-1.5-1.73-3.28-3.14-5.15-4.45c-2.18-1.52-4.44-2.9-6.63-4.4
	c-1.34-0.92-2.59-1.92-3.51-3.28c-1.75-2.59-1.43-5.37,0.56-7.33c2.18-2.14,5.59-2.37,8.1-0.62c0.63,0.44,1.17,0.99,1.72,1.59
	c0.03-0.21,0.04-0.37,0.07-0.53c0.29-1.99,1.11-3.69,2.79-4.84c2.23-1.52,5.3-1.68,7.49,0.23c1.22,1.06,1.73,2.46,1.82,4.03
	c0.11,1.89-0.31,3.7-0.93,5.47c-0.7,1.99-1.58,3.9-2.35,5.86c-0.92,2.34-1.72,4.71-2.07,7.21c-0.12,0.86-0.17,1.72-0.18,2.58
	c0,0.17-0.02,0.33-0.17,0.44C128.18,128.91,128.16,128.92,128.15,128.93z"/>
<path class="st0" d="M295.54,359.87l-169.2-23.7c-5.88-0.82-10.01-6.31-9.19-12.18l38.67-276.06c0.82-5.88,6.31-10.01,12.18-9.19
	l169.2,23.7c5.88,0.82,10.01,6.31,9.19,12.18l-38.67,276.06C306.9,356.56,301.41,360.69,295.54,359.87z"/>
<path class="st1" d="M287.76,310.68c1.31-1.03,2.79-1.52,4.43-1.45c2.58,0.11,4.28,1.83,4.45,4.44c0.09,1.45-0.23,2.77-1.3,3.82
	c-1.03,1.01-2.32,1.41-3.72,1.46c-1.31,0.05-2.56-0.23-3.73-0.84c-0.04-0.02-0.09-0.04-0.13-0.06c-0.02-0.01-0.04,0-0.08,0.01
	c0.34,0.46,0.63,0.94,0.85,1.45c0.68,1.6,0.85,3.25,0.46,4.95c-0.53,2.32-2.36,3.74-4.74,3.68c-1.43-0.03-2.79-0.32-3.98-1.15
	c-1.35-0.94-1.92-2.28-1.79-3.89c0.2-2.53,1.43-4.49,3.47-5.96c0.05-0.03,0.1-0.05,0.15-0.07c-0.01-0.02-0.02-0.04-0.03-0.07
	c-0.19,0.02-0.39,0.05-0.58,0.06c-0.21,0.02-0.42,0.03-0.62,0.03c-2.18-0.08-4.03-0.87-5.29-2.69c-1.2-1.74-1.05-3.54,0.02-5.29
	c1.24-2.03,3.41-2.5,5.4-1.89c1.44,0.44,2.61,1.26,3.52,2.46c0.12,0.16,0.18,0.39,0.4,0.51c-0.02-1.49-0.11-2.92-0.43-4.34
	c-0.32-1.44-1.1-2.67-1.85-3.98c3.26,0.61,6.45,1.21,9.71,1.82c-1.14,0.93-2.18,1.88-2.91,3.13
	C288.75,308.06,288.19,309.34,287.76,310.68z"/>
<g>
	<path d="M284.86,298.48c-0.48,0.05-0.77-0.18-0.82-0.62l-0.39-2.05c-0.09-0.42,0.11-0.75,0.76-0.83c1.62-0.2,6.62-1.51,8.29-4.89
		c-0.61,0.22-2.34,0.5-3.87,0.22c-3.24-0.61-6.16-3.63-5.3-8.27c0.76-4.09,4.73-6.8,8.71-6.05c5.09,0.95,6.95,5.53,6.04,10.39
		C296.53,295.83,287.82,298.1,284.86,298.48z M287.19,282.78c-0.39,2.07,0.94,4.1,3.02,4.49c2.14,0.4,3.71-1.02,4.29-2.12
		c0.41-2.2-0.28-4.98-2.9-5.47C289.56,279.3,287.58,280.74,287.19,282.78z"/>
</g>
<g>
	<path class="st1" d="M211.74,122.77c-1.31,1.03-2.79,1.52-4.43,1.45c-2.58-0.11-4.28-1.83-4.45-4.44c-0.09-1.45,0.23-2.77,1.3-3.82
		c1.03-1.01,2.32-1.41,3.72-1.46c1.31-0.05,2.56,0.23,3.73,0.84c0.04,0.02,0.09,0.04,0.13,0.06c0.02,0.01,0.04,0,0.08-0.01
		c-0.34-0.46-0.63-0.94-0.85-1.45c-0.68-1.6-0.85-3.25-0.46-4.95c0.53-2.32,2.36-3.74,4.74-3.68c1.43,0.03,2.79,0.32,3.98,1.15
		c1.35,0.94,1.92,2.28,1.79,3.89c-0.2,2.53-1.43,4.49-3.47,5.96c-0.05,0.03-0.1,0.05-0.15,0.07c0.01,0.02,0.02,0.04,0.03,0.07
		c0.19-0.02,0.39-0.05,0.58-0.06c0.21-0.02,0.42-0.03,0.62-0.03c2.18,0.08,4.03,0.87,5.29,2.69c1.2,1.74,1.05,3.54-0.02,5.29
		c-1.24,2.03-3.41,2.5-5.4,1.89c-1.44-0.44-2.61-1.26-3.52-2.46c-0.12-0.16-0.18-0.39-0.4-0.51c0.02,1.49,0.11,2.92,0.43,4.34
		c0.32,1.44,1.1,2.67,1.85,3.98c-3.26-0.61-6.45-1.21-9.71-1.82c1.14-0.93,2.18-1.88,2.91-3.13
		C210.75,125.39,211.31,124.11,211.74,122.77z"/>
	<path class="st1" d="M264.67,132.67c-1.31,1.03-2.79,1.52-4.43,1.45c-2.58-0.11-4.28-1.83-4.45-4.44c-0.09-1.45,0.23-2.77,1.3-3.82
		c1.03-1.01,2.32-1.41,3.72-1.46c1.31-0.05,2.56,0.23,3.73,0.84c0.04,0.02,0.09,0.04,0.13,0.06c0.02,0.01,0.04,0,0.08-0.01
		c-0.34-0.46-0.63-0.94-0.85-1.45c-0.68-1.6-0.85-3.25-0.46-4.95c0.53-2.32,2.36-3.74,4.74-3.68c1.43,0.03,2.79,0.32,3.98,1.15
		c1.35,0.94,1.92,2.28,1.79,3.89c-0.2,2.53-1.43,4.49-3.47,5.96c-0.05,0.03-0.1,0.05-0.15,0.07c0.01,0.02,0.02,0.04,0.03,0.07
		c0.19-0.02,0.39-0.05,0.58-0.06c0.21-0.02,0.42-0.03,0.62-0.03c2.18,0.08,4.03,0.87,5.29,2.69c1.2,1.74,1.05,3.54-0.02,5.29
		c-1.24,2.03-3.41,2.5-5.4,1.89c-1.44-0.44-2.61-1.26-3.52-2.46c-0.12-0.16-0.18-0.39-0.4-0.51c0.02,1.49,0.11,2.92,0.43,4.34
		c0.32,1.44,1.1,2.67,1.85,3.98c-3.26-0.61-6.45-1.21-9.71-1.82c1.14-0.93,2.18-1.88,2.91-3.13
		C263.68,135.29,264.24,134.01,264.67,132.67z"/>
	<path class="st1" d="M201.72,175.79c-1.31,1.03-2.79,1.52-4.43,1.45c-2.58-0.11-4.28-1.83-4.45-4.44c-0.09-1.45,0.23-2.77,1.3-3.82
		c1.03-1.01,2.32-1.41,3.72-1.46c1.31-0.05,2.56,0.23,3.73,0.84c0.04,0.02,0.09,0.04,0.13,0.06c0.02,0.01,0.04,0,0.08-0.01
		c-0.34-0.46-0.63-0.94-0.85-1.45c-0.68-1.6-0.85-3.25-0.46-4.95c0.53-2.32,2.36-3.74,4.74-3.68c1.43,0.03,2.79,0.32,3.98,1.15
		c1.35,0.94,1.92,2.28,1.79,3.89c-0.2,2.53-1.43,4.49-3.47,5.96c-0.05,0.03-0.1,0.05-0.15,0.07c0.01,0.02,0.02,0.04,0.03,0.07
		c0.19-0.02,0.39-0.05,0.58-0.06c0.21-0.02,0.42-0.03,0.62-0.03c2.18,0.08,4.03,0.87,5.29,2.69c1.2,1.74,1.05,3.54-0.02,5.29
		c-1.24,2.03-3.41,2.5-5.4,1.89c-1.44-0.44-2.61-1.26-3.52-2.46c-0.12-0.16-0.18-0.39-0.4-0.51c0.02,1.49,0.11,2.92,0.43,4.34
		c0.32,1.44,1.1,2.67,1.85,3.98c-3.26-0.61-6.45-1.21-9.71-1.82c1.14-0.93,2.18-1.88,2.91-3.13
		C200.73,178.41,201.29,177.13,201.72,175.79z"/>
	<path class="st1" d="M254.75,185.71c-1.31,1.03-2.79,1.52-4.43,1.45c-2.58-0.11-4.28-1.83-4.45-4.44c-0.09-1.45,0.23-2.77,1.3-3.82
		c1.03-1.01,2.32-1.41,3.72-1.46c1.31-0.05,2.56,0.23,3.73,0.84c0.04,0.02,0.09,0.04,0.13,0.06c0.02,0.01,0.04,0,0.08-0.01
		c-0.34-0.46-0.63-0.94-0.85-1.45c-0.68-1.6-0.85-3.25-0.46-4.95c0.53-2.32,2.36-3.74,4.74-3.68c1.43,0.03,2.79,0.32,3.98,1.15
		c1.35,0.94,1.92,2.28,1.79,3.89c-0.2,2.53-1.43,4.49-3.47,5.96c-0.05,0.03-0.1,0.05-0.15,0.07c0.01,0.02,0.02,0.04,0.03,0.07
		c0.19-0.02,0.39-0.05,0.58-0.06c0.21-0.02,0.42-0.03,0.62-0.03c2.18,0.08,4.03,0.87,5.29,2.69c1.2,1.74,1.05,3.54-0.02,5.29
		c-1.24,2.03-3.41,2.5-5.4,1.89c-1.44-0.44-2.61-1.26-3.52-2.46c-0.12-0.16-0.18-0.39-0.4-0.51c0.02,1.49,0.11,2.92,0.43,4.34
		c0.32,1.44,1.1,2.67,1.85,3.98c-3.26-0.61-6.45-1.21-9.71-1.82c1.14-0.93,2.18-1.88,2.91-3.13
		C253.76,188.33,254.32,187.04,254.75,185.71z"/>
	<path class="st1" d="M192.62,228.97c-1.31,1.03-2.79,1.52-4.43,1.45c-2.58-0.11-4.28-1.83-4.45-4.44c-0.09-1.45,0.23-2.77,1.3-3.82
		c1.03-1.01,2.32-1.41,3.72-1.46c1.31-0.05,2.56,0.23,3.73,0.84c0.04,0.02,0.09,0.04,0.13,0.06c0.02,0.01,0.04,0,0.08-0.01
		c-0.34-0.46-0.63-0.94-0.85-1.45c-0.68-1.6-0.85-3.25-0.46-4.95c0.53-2.32,2.36-3.74,4.74-3.68c1.43,0.03,2.79,0.32,3.98,1.15
		c1.35,0.94,1.92,2.28,1.79,3.89c-0.2,2.53-1.43,4.49-3.47,5.96c-0.05,0.03-0.1,0.05-0.15,0.07c0.01,0.02,0.02,0.04,0.03,0.07
		c0.19-0.02,0.39-0.05,0.58-0.06c0.21-0.02,0.42-0.03,0.62-0.03c2.18,0.08,4.03,0.87,5.29,2.69c1.2,1.74,1.05,3.54-0.02,5.29
		c-1.24,2.03-3.41,2.5-5.4,1.89c-1.44-0.44-2.61-1.26-3.52-2.46c-0.12-0.16-0.18-0.39-0.4-0.51c0.02,1.49,0.11,2.92,0.43,4.34
		c0.32,1.44,1.1,2.67,1.85,3.98c-3.26-0.61-6.45-1.21-9.71-1.82c1.14-0.93,2.18-1.88,2.91-3.13
		C191.63,231.59,192.19,230.31,192.62,228.97z"/>
	<path class="st1" d="M245.65,238.89c-1.31,1.03-2.79,1.52-4.43,1.45c-2.58-0.11-4.28-1.83-4.45-4.44c-0.09-1.45,0.23-2.77,1.3-3.82
		c1.03-1.01,2.32-1.41,3.72-1.46c1.31-0.05,2.56,0.23,3.73,0.84c0.04,0.02,0.09,0.04,0.13,0.06c0.02,0.01,0.04,0,0.08-0.01
		c-0.34-0.46-0.63-0.94-0.85-1.45c-0.68-1.6-0.85-3.25-0.46-4.95c0.53-2.32,2.36-3.74,4.74-3.68c1.43,0.03,2.79,0.32,3.98,1.15
		c1.35,0.94,1.92,2.28,1.79,3.89c-0.2,2.53-1.43,4.49-3.47,5.96c-0.05,0.03-0.1,0.05-0.15,0.07c0.01,0.02,0.02,0.04,0.03,0.07
		c0.19-0.02,0.39-0.05,0.58-0.06c0.21-0.02,0.42-0.03,0.62-0.03c2.18,0.08,4.03,0.87,5.29,2.69c1.2,1.74,1.05,3.54-0.02,5.29
		c-1.24,2.03-3.41,2.5-5.4,1.89c-1.44-0.44-2.61-1.26-3.52-2.46c-0.12-0.16-0.18-0.39-0.4-0.51c0.02,1.49,0.11,2.92,0.43,4.34
		c0.32,1.44,1.1,2.67,1.85,3.98c-3.26-0.61-6.45-1.21-9.71-1.82c1.14-0.93,2.18-1.88,2.91-3.13
		C244.66,241.51,245.22,240.23,245.65,238.89z"/>
</g>
<g>
	<path class="st2" d="M346.37,288.57l0.03,0.09c1.51,0.28,4,1.39,4.78,3.85c1.11,3.49-1.19,6.71-5,7.92
		c-3.93,1.25-7.66-0.06-8.77-3.55c-0.76-2.39,0.65-4.7,1.7-5.87l-0.04-0.13c-1.64-0.28-4.61-1.34-5.47-4.04
		c-1.09-3.43,0.98-6.95,5.6-8.42c4.5-1.43,8.21,0.27,9.3,3.69C349.38,284.85,347.11,287.85,346.37,288.57z M340.16,281.65
		c-1.73,0.55-2.9,2.2-2.35,3.93c0.45,1.41,2.07,2.49,4.33,2.29c1.96-1.14,2.66-2.95,2.21-4.37
		C343.8,281.77,341.86,281.11,340.16,281.65z M341.39,295.44c0.48,1.51,2.14,2.26,3.77,1.74c1.51-0.48,2.43-2.05,1.95-3.56
		c-0.45-1.42-1.68-2.24-3.81-2.08C341.49,292.61,340.96,294.09,341.39,295.44z"/>
</g>
<path class="st1" d="M599.13,395.6c0.19-0.32,0.33-0.67,0.56-0.96c6.92-8.59,10.58-18.7,13.61-29.11c0.33-1.12,0.64-2.24,1-3.54
	c-5.28,3.09-10.67,5.32-16.5,6.28c-12.07,2-23.22,0.13-32.34-8.67c-6.41-6.18-8.76-13.99-7.9-22.8
	c1.05-10.74,6.24-19.62,12.62-27.96c4.34-5.68,9.64-10.45,14.65-15.49c12.38-12.47,23.1-26.27,32.64-41.01
	c1.59-2.46,1.65-2.48,3.14,0.08c10.41,17.91,23.8,33.28,39.01,47.28c9.19,8.46,15.87,18.77,18.54,31.29
	c0.29,1.38,0.13,2.84,0.78,4.15c0,0.32,0,0.65,0,0.97c-0.28,1.29-0.28,2.59,0,3.88c0,0.32,0,0.65,0,0.97
	c-0.31,3.33-0.94,6.55-2.33,9.64c-2.72,6.02-7.02,10.57-12.75,13.71c-10.15,5.56-20.7,5.46-31.43,1.92
	c-2.45-0.81-4.81-1.86-6.95-2.98c-0.31,0.07-0.42,0.15-0.39,0.26c1.75,8.08,3.93,16.01,8.51,23.04c1.5,2.31,3.39,4.32,5.21,6.37
	c0.57,0.65,1.16,1.28,1.56,2.05c0.23,0.44,0.28,0.85-0.44,0.84c-13.03-0.01-26.06,0-39.09-0.01
	C600.28,395.79,599.67,395.99,599.13,395.6z"/>
<path class="st4" d="M640.4,395.6c0.02,0.12,0.04,0.24,0.06,0.36c-13.8,0-27.6,0-41.4,0c0.02-0.12,0.04-0.24,0.07-0.37
	C612.89,395.6,626.64,395.6,640.4,395.6z"/>
<path class="st5" d="M678.96,339.99c-0.54-1.29-0.51-2.59,0-3.88C678.96,337.4,678.96,338.7,678.96,339.99z"/>
<path class="st3" d="M618.89,221.1c-3.18-5.64-6.34-11.02-9.63-16.32c-11.88-19.16-25.13-37.35-38.94-55.15
	c-0.64-0.83-0.95-1.38-0.16-2.44c17.09-22.94,33.47-46.37,48.29-70.86c0.11-0.18,0.25-0.34,0.46-0.63c2.1,3.51,4.13,6.95,6.21,10.37
	c12.9,21.25,27.06,41.63,42.44,61.15c0.52,0.67,0.93,1.11,0.17,2.02c-18.41,22.01-34.03,45.93-48.23,70.81
	C619.35,220.33,619.19,220.61,618.89,221.1z"/>
<path class="st0" d="M288.06,388.45l-162.41-53.03c-5.64-1.84-8.75-7.97-6.91-13.61l86.53-264.99c1.84-5.64,7.97-8.75,13.61-6.91
	l162.41,53.03c5.64,1.84,8.75,7.97,6.91,13.61l-86.53,264.99C299.82,387.18,293.7,390.29,288.06,388.45z"/>
<path class="st1" d="M53.08,158.69c0.08,1.67-0.38,3.15-1.39,4.45c-1.59,2.04-3.97,2.43-6.2,1.06c-1.24-0.77-2.13-1.79-2.36-3.28
	c-0.22-1.42,0.2-2.7,0.96-3.88c0.72-1.1,1.67-1.95,2.84-2.55c0.04-0.02,0.08-0.05,0.12-0.07c0.01-0.01,0.02-0.03,0.04-0.07
	c-0.57,0.01-1.13-0.03-1.67-0.15c-1.7-0.37-3.14-1.19-4.3-2.49c-1.58-1.78-1.67-4.09-0.25-6c0.85-1.14,1.88-2.09,3.25-2.58
	c1.55-0.55,2.97-0.24,4.21,0.79c1.95,1.63,2.83,3.77,2.84,6.28c0,0.06-0.02,0.11-0.03,0.17c0.02,0.01,0.05,0.01,0.07,0.02
	c0.1-0.17,0.19-0.34,0.29-0.51c0.11-0.18,0.21-0.36,0.34-0.52c1.33-1.73,3.04-2.78,5.26-2.75c2.11,0.02,3.49,1.2,4.3,3.08
	c0.94,2.18,0.07,4.23-1.59,5.5c-1.2,0.92-2.54,1.4-4.05,1.44c-0.2,0.01-0.42-0.08-0.65,0.03c1.22,0.85,2.45,1.6,3.78,2.16
	c1.36,0.57,2.81,0.65,4.32,0.79c-2.39,2.31-4.72,4.56-7.11,6.87c-0.1-1.46-0.26-2.87-0.87-4.18
	C54.65,161.02,53.93,159.82,53.08,158.69z"/>
<g>
	<path d="M228.21,60.7c0.48,0.02,0.74,0.28,0.74,0.73l0.12,2.08c0.03,0.43-0.2,0.73-0.86,0.72c-1.63-0.01-6.76,0.64-8.86,3.77
		c0.64-0.14,2.39-0.19,3.86,0.29c3.13,1.02,5.64,4.41,4.17,8.89c-1.29,3.95-5.57,6.12-9.43,4.86c-4.92-1.61-6.17-6.39-4.63-11.09
		C216.3,61.8,225.23,60.7,228.21,60.7z M223.85,75.96c0.66-2.01-0.4-4.19-2.41-4.84c-2.07-0.68-3.81,0.52-4.53,1.54
		c-0.7,2.13-0.38,4.98,2.16,5.81C221.06,79.1,223.21,77.93,223.85,75.96z"/>
</g>
<g>
	<path class="st1" d="M241.18,163.8c-1.44,0.85-2.96,1.14-4.58,0.86c-2.55-0.45-4.01-2.37-3.84-4.99c0.1-1.45,0.59-2.72,1.79-3.62
		c1.15-0.86,2.48-1.09,3.88-0.97c1.31,0.12,2.51,0.56,3.59,1.32c0.04,0.03,0.08,0.05,0.12,0.07c0.01,0.01,0.04,0,0.08,0.01
		c-0.28-0.5-0.5-1.01-0.65-1.55c-0.47-1.68-0.42-3.33,0.19-4.97c0.83-2.23,2.83-3.4,5.18-3.03c1.41,0.22,2.72,0.68,3.8,1.66
		c1.21,1.11,1.6,2.51,1.27,4.09c-0.53,2.48-2.01,4.26-4.22,5.45c-0.05,0.03-0.11,0.03-0.16,0.05c0.01,0.02,0.01,0.05,0.02,0.07
		c0.2,0,0.39,0,0.59,0.01c0.21,0.01,0.42,0.02,0.62,0.06c2.15,0.36,3.88,1.39,4.89,3.36c0.97,1.88,0.58,3.65-0.71,5.24
		c-1.49,1.85-3.7,2.04-5.6,1.17c-1.37-0.63-2.43-1.59-3.17-2.9c-0.1-0.18-0.13-0.41-0.33-0.56c-0.18,1.48-0.27,2.91-0.14,4.36
		c0.13,1.47,0.74,2.79,1.32,4.19c-3.15-1.03-6.24-2.04-9.39-3.07c1.25-0.77,2.41-1.58,3.29-2.72
		C239.85,166.27,240.58,165.07,241.18,163.8z"/>
	<path class="st1" d="M292.37,180.52c-1.44,0.85-2.96,1.14-4.58,0.86c-2.55-0.45-4.01-2.37-3.84-4.99c0.1-1.45,0.59-2.72,1.79-3.62
		c1.15-0.86,2.48-1.09,3.88-0.97c1.31,0.12,2.51,0.56,3.59,1.32c0.04,0.03,0.08,0.05,0.12,0.07c0.01,0.01,0.04,0,0.08,0.01
		c-0.28-0.5-0.5-1.01-0.65-1.55c-0.47-1.68-0.42-3.33,0.19-4.97c0.83-2.23,2.83-3.4,5.18-3.03c1.41,0.22,2.72,0.68,3.8,1.66
		c1.21,1.11,1.6,2.51,1.27,4.09c-0.53,2.48-2.01,4.26-4.22,5.45c-0.05,0.03-0.11,0.03-0.16,0.05c0.01,0.02,0.01,0.05,0.02,0.07
		c0.2,0,0.39,0,0.59,0.01c0.21,0.01,0.42,0.02,0.62,0.06c2.15,0.36,3.88,1.39,4.89,3.36c0.97,1.88,0.58,3.65-0.71,5.24
		c-1.49,1.85-3.7,2.04-5.6,1.17c-1.37-0.63-2.43-1.59-3.17-2.9c-0.1-0.18-0.13-0.41-0.33-0.56c-0.18,1.48-0.27,2.91-0.14,4.36
		c0.13,1.47,0.74,2.79,1.32,4.19c-3.15-1.03-6.24-2.04-9.39-3.07c1.25-0.77,2.41-1.58,3.29-2.72
		C291.04,182.99,291.76,181.79,292.37,180.52z"/>
	<path class="st1" d="M224.33,215.06c-1.44,0.85-2.96,1.14-4.58,0.86c-2.55-0.45-4.01-2.37-3.84-4.99c0.1-1.45,0.59-2.72,1.79-3.62
		c1.15-0.86,2.48-1.09,3.88-0.97c1.31,0.12,2.51,0.56,3.59,1.32c0.04,0.03,0.08,0.05,0.12,0.07c0.01,0.01,0.04,0,0.08,0.01
		c-0.28-0.5-0.5-1.01-0.65-1.55c-0.47-1.68-0.42-3.33,0.19-4.97c0.83-2.23,2.83-3.4,5.18-3.03c1.41,0.22,2.72,0.68,3.8,1.66
		c1.21,1.11,1.6,2.51,1.27,4.09c-0.53,2.48-2.01,4.26-4.22,5.45c-0.05,0.03-0.11,0.03-0.16,0.05c0.01,0.02,0.01,0.05,0.02,0.07
		c0.2,0,0.39,0,0.59,0.01c0.21,0.01,0.42,0.02,0.62,0.06c2.15,0.36,3.88,1.39,4.89,3.36c0.97,1.88,0.58,3.65-0.71,5.24
		c-1.49,1.85-3.7,2.04-5.6,1.17c-1.37-0.63-2.43-1.59-3.17-2.9c-0.1-0.18-0.13-0.41-0.33-0.56c-0.18,1.48-0.27,2.91-0.14,4.36
		c0.13,1.47,0.74,2.79,1.32,4.19c-3.15-1.03-6.24-2.04-9.39-3.07c1.25-0.77,2.41-1.58,3.29-2.72
		C223.01,217.53,223.73,216.33,224.33,215.06z"/>
	<path class="st1" d="M275.62,231.8c-1.44,0.85-2.96,1.14-4.58,0.86c-2.55-0.45-4.01-2.37-3.84-4.99c0.1-1.45,0.59-2.72,1.79-3.62
		c1.15-0.86,2.48-1.09,3.88-0.97c1.31,0.12,2.51,0.56,3.59,1.32c0.04,0.03,0.08,0.05,0.12,0.07c0.01,0.01,0.04,0,0.08,0.01
		c-0.28-0.5-0.5-1.01-0.65-1.55c-0.47-1.68-0.42-3.33,0.19-4.97c0.83-2.23,2.83-3.4,5.18-3.03c1.41,0.22,2.72,0.68,3.8,1.66
		c1.21,1.11,1.6,2.51,1.27,4.09c-0.53,2.48-2.01,4.26-4.22,5.45c-0.05,0.03-0.11,0.03-0.16,0.05c0.01,0.02,0.01,0.05,0.02,0.07
		c0.2,0,0.39,0,0.59,0.01c0.21,0.01,0.42,0.02,0.62,0.06c2.15,0.36,3.88,1.39,4.89,3.36c0.97,1.88,0.58,3.65-0.71,5.24
		c-1.49,1.85-3.7,2.04-5.6,1.17c-1.37-0.63-2.43-1.59-3.17-2.9c-0.1-0.18-0.13-0.41-0.33-0.56c-0.18,1.48-0.27,2.91-0.14,4.36
		c0.13,1.47,0.74,2.79,1.32,4.19c-3.15-1.03-6.24-2.04-9.39-3.07c1.25-0.77,2.41-1.58,3.29-2.72
		C274.29,234.27,275.02,233.08,275.62,231.8z"/>
	<path class="st1" d="M208.38,266.6c-1.44,0.85-2.96,1.14-4.58,0.86c-2.55-0.45-4.01-2.37-3.84-4.99c0.1-1.45,0.59-2.72,1.79-3.62
		c1.15-0.86,2.48-1.09,3.88-0.97c1.31,0.12,2.51,0.56,3.59,1.32c0.04,0.03,0.08,0.05,0.12,0.07c0.01,0.01,0.04,0,0.08,0.01
		c-0.28-0.5-0.5-1.01-0.65-1.55c-0.47-1.68-0.42-3.33,0.19-4.97c0.83-2.23,2.83-3.4,5.18-3.03c1.41,0.22,2.72,0.68,3.8,1.66
		c1.21,1.11,1.6,2.51,1.27,4.09c-0.53,2.48-2.01,4.26-4.22,5.45c-0.05,0.03-0.11,0.03-0.16,0.05c0.01,0.02,0.01,0.05,0.02,0.07
		c0.2,0,0.39,0,0.59,0.01c0.21,0.01,0.42,0.02,0.62,0.06c2.15,0.36,3.88,1.39,4.89,3.36c0.97,1.88,0.58,3.65-0.71,5.24
		c-1.49,1.85-3.7,2.04-5.6,1.17c-1.37-0.63-2.43-1.59-3.17-2.9c-0.1-0.18-0.13-0.41-0.33-0.56c-0.18,1.48-0.27,2.91-0.14,4.36
		c0.13,1.47,0.74,2.79,1.32,4.19c-3.15-1.03-6.24-2.04-9.39-3.07c1.25-0.77,2.41-1.58,3.29-2.72
		C207.05,269.07,207.78,267.88,208.38,266.6z"/>
	<path class="st1" d="M259.66,283.35c-1.44,0.85-2.96,1.14-4.58,0.86c-2.55-0.45-4.01-2.37-3.84-4.99c0.1-1.45,0.59-2.72,1.79-3.62
		c1.15-0.86,2.48-1.09,3.88-0.97c1.31,0.12,2.51,0.56,3.59,1.32c0.04,0.03,0.08,0.05,0.12,0.07c0.01,0.01,0.04,0,0.08,0.01
		c-0.28-0.5-0.5-1.01-0.65-1.55c-0.47-1.68-0.42-3.33,0.19-4.97c0.83-2.23,2.83-3.4,5.18-3.03c1.41,0.22,2.72,0.68,3.8,1.66
		c1.21,1.11,1.6,2.51,1.27,4.09c-0.53,2.48-2.01,4.26-4.22,5.45c-0.05,0.03-0.11,0.03-0.16,0.05c0.01,0.02,0.01,0.05,0.02,0.07
		c0.2,0,0.39,0,0.59,0.01c0.21,0.01,0.42,0.02,0.62,0.06c2.15,0.36,3.88,1.39,4.89,3.36c0.97,1.88,0.58,3.65-0.71,5.24
		c-1.49,1.85-3.7,2.04-5.6,1.17c-1.37-0.63-2.43-1.59-3.17-2.9c-0.1-0.18-0.13-0.41-0.33-0.56c-0.18,1.48-0.27,2.91-0.14,4.36
		c0.13,1.47,0.74,2.79,1.32,4.19c-3.15-1.03-6.24-2.04-9.39-3.07c1.25-0.77,2.41-1.58,3.29-2.72
		C258.34,285.82,259.06,284.62,259.66,283.35z"/>
</g>
<path class="st1" d="M297.62,329.67c1.44-0.85,2.96-1.14,4.58-0.86c2.55,0.45,4.01,2.37,3.84,4.99c-0.1,1.45-0.59,2.72-1.79,3.62
	c-1.15,0.86-2.48,1.09-3.88,0.97c-1.31-0.12-2.51-0.56-3.59-1.32c-0.04-0.03-0.08-0.05-0.12-0.07c-0.01-0.01-0.04,0-0.08-0.01
	c0.28,0.5,0.5,1.01,0.65,1.55c0.47,1.68,0.42,3.33-0.19,4.97c-0.83,2.23-2.83,3.4-5.18,3.03c-1.41-0.22-2.72-0.68-3.8-1.66
	c-1.21-1.11-1.6-2.51-1.27-4.09c0.53-2.48,2.01-4.26,4.22-5.45c0.05-0.03,0.11-0.03,0.16-0.05c-0.01-0.02-0.01-0.05-0.02-0.07
	c-0.2,0-0.39,0-0.59-0.01c-0.21-0.01-0.42-0.02-0.62-0.06c-2.15-0.36-3.88-1.39-4.89-3.36c-0.97-1.88-0.58-3.65,0.71-5.24
	c1.49-1.85,3.7-2.04,5.6-1.17c1.37,0.63,2.43,1.59,3.17,2.9c0.1,0.18,0.13,0.41,0.33,0.56c0.18-1.48,0.27-2.91,0.14-4.36
	c-0.13-1.47-0.74-2.79-1.32-4.19c3.15,1.03,6.24,2.04,9.39,3.07c-1.25,0.77-2.41,1.58-3.29,2.72
	C298.94,327.2,298.22,328.39,297.62,329.67z"/>
<g>
	<path d="M277.91,373.61c-0.48-0.02-0.74-0.28-0.73-0.72l-0.12-2.09c-0.04-0.43,0.2-0.73,0.86-0.72c1.63,0.01,6.76-0.63,8.86-3.77
		c-0.64,0.14-2.39,0.19-3.86-0.29c-3.13-1.02-5.64-4.41-4.17-8.89c1.29-3.95,5.57-6.12,9.43-4.87c4.92,1.61,6.17,6.38,4.63,11.09
		C289.82,372.5,280.89,373.61,277.91,373.61z M282.27,358.35c-0.66,2.01,0.4,4.19,2.41,4.84c2.07,0.68,3.81-0.52,4.53-1.54
		c0.7-2.13,0.38-4.97-2.16-5.8C285.06,355.2,282.91,356.37,282.27,358.35z"/>
</g>
<g>
	<path d="M179.09,47.71c0.48-0.07,0.78,0.14,0.85,0.58l0.48,2.03c0.11,0.42-0.07,0.76-0.72,0.87c-1.6,0.27-6.55,1.81-8.06,5.26
		c0.6-0.25,2.32-0.61,3.85-0.39c3.27,0.46,6.32,3.35,5.67,8.02c-0.58,4.12-4.41,7.01-8.43,6.44c-5.13-0.72-7.2-5.2-6.51-10.1
		C167.56,50.89,176.15,48.23,179.09,47.71z M177.48,63.5c0.29-2.09-1.13-4.05-3.22-4.35c-2.16-0.3-3.66,1.18-4.19,2.31
		c-0.31,2.22,0.5,4.96,3.15,5.33C175.28,67.09,177.19,65.56,177.48,63.5z"/>
</g>
<path class="st1" d="M164.73,100.49c0.04-0.05,0.07-0.11,0.12-0.16c1.43-1.34,2.32-3.03,3.11-4.78c0.08-0.19,0.17-0.38,0.26-0.6
	c-1,0.41-2.01,0.67-3.06,0.7c-2.17,0.05-4.09-0.55-5.47-2.32c-0.97-1.25-1.2-2.68-0.83-4.2c0.45-1.86,1.58-3.3,2.91-4.61
	c0.9-0.89,1.95-1.6,2.96-2.36c2.48-1.89,4.71-4.05,6.75-6.41c0.34-0.39,0.35-0.39,0.55,0.09c1.39,3.4,3.37,6.44,5.7,9.27
	c1.41,1.71,2.33,3.69,2.49,5.96c0.02,0.25-0.05,0.5,0.04,0.75c-0.01,0.06-0.02,0.11-0.02,0.17c-0.08,0.22-0.11,0.45-0.1,0.68
	c-0.01,0.06-0.02,0.11-0.02,0.17c-0.14,0.58-0.33,1.13-0.65,1.64c-0.63,0.99-1.49,1.69-2.58,2.1c-1.92,0.73-3.77,0.45-5.57-0.44
	c-0.41-0.2-0.8-0.44-1.15-0.7c-0.06,0-0.08,0.02-0.08,0.04c0.11,1.46,0.3,2.91,0.93,4.26c0.21,0.44,0.49,0.84,0.76,1.25
	c0.08,0.13,0.17,0.25,0.22,0.4c0.03,0.08,0.03,0.16-0.1,0.14c-2.29-0.32-4.58-0.64-6.87-0.97
	C164.93,100.55,164.82,100.57,164.73,100.49z"/>
<g>
	<path class="st6" d="M286.71-35.61L86.63-6.35c-6.95,1.02-13.47-3.84-14.49-10.79L24.4-343.59c-1.02-6.95,3.84-13.47,10.79-14.49
		l200.09-29.26c6.95-1.02,13.47,3.84,14.49,10.79l47.75,326.46C298.52-43.15,293.67-36.63,286.71-35.61z"/>
	<g>
		<path d="M43.3-329.45l1.48-2.03c0.32-0.39,0.66-0.37,1.01-0.12c0.51,0.4,1.26,0.91,2.37,0.74c1.3-0.2,2.52-1.47,2.17-3.78
			l-2.36-15.79c-0.05-0.34,0.17-0.68,0.54-0.73l3.15-0.47c0.37-0.06,0.68,0.2,0.73,0.54l2.36,15.79c0.69,4.65-2.02,7.79-5.93,8.38
			c-2.91,0.43-4.78-1.07-5.45-1.68C43.15-328.84,43.13-329.18,43.3-329.45z"/>
	</g>
	<path class="st3" d="M164-175.21c-0.7-1.2-1.23-2.48-1.96-3.66c-2.03-3.28-4.61-6.08-7.37-8.75c-3.21-3.1-6.6-5.99-9.83-9.06
		c-1.98-1.87-3.79-3.88-4.95-6.38c-2.21-4.77-0.95-9.29,2.88-12.01c4.19-2.98,9.91-2.45,13.61,1.12c0.94,0.9,1.68,1.95,2.44,3.1
		c0.1-0.33,0.17-0.6,0.25-0.87c1.01-3.22,2.81-5.83,5.92-7.3c4.1-1.94,9.25-1.37,12.37,2.37c1.75,2.09,2.21,4.54,1.95,7.17
		c-0.32,3.17-1.49,6.06-3,8.82c-1.69,3.11-3.65,6.05-5.45,9.1c-2.15,3.63-4.1,7.36-5.35,11.41c-0.43,1.39-0.73,2.8-0.99,4.23
		c-0.05,0.29-0.13,0.54-0.41,0.69C164.07-175.22,164.04-175.22,164-175.21z"/>
	<path class="st3" d="M266.69-106.05c0.49,0.84,0.86,1.75,1.38,2.58c1.43,2.31,3.25,4.28,5.19,6.16c2.26,2.18,4.65,4.22,6.93,6.38
		c1.39,1.32,2.67,2.73,3.49,4.49c1.56,3.36,0.67,6.54-2.03,8.46c-2.95,2.1-6.98,1.73-9.59-0.79c-0.66-0.64-1.19-1.37-1.72-2.18
		c-0.07,0.23-0.12,0.42-0.18,0.61c-0.71,2.27-1.98,4.11-4.17,5.14c-2.89,1.37-6.51,0.97-8.71-1.67c-1.23-1.47-1.56-3.2-1.37-5.05
		c0.23-2.23,1.05-4.27,2.11-6.22c1.19-2.19,2.57-4.26,3.84-6.41c1.51-2.56,2.89-5.18,3.77-8.04c0.3-0.98,0.52-1.98,0.7-2.98
		c0.04-0.2,0.09-0.38,0.29-0.48C266.65-106.04,266.67-106.05,266.69-106.05z"/>
	<g>
		<path class="st2" d="M283.34-69.7l-7.04,24.07c-0.07,0.22-0.21,0.41-0.51,0.45l-0.33,0.05c-0.33,0.05-0.49-0.1-0.62-0.28
			l-13.68-20.98c-0.27-0.41-0.06-0.88,0.44-0.96l2.91-0.43c0.5-0.08,0.77,0.09,1.07,0.52l2.18,3.37l10-1.5l1.1-3.86
			c0.08-0.36,0.33-0.73,0.87-0.81l2.91-0.44C283.14-70.56,283.48-70.17,283.34-69.7z M269.95-60.42l4.45,6.86l0.1-0.01l2.18-7.85
			L269.95-60.42z"/>
	</g>
	<path class="st6" d="M284.85-33.67L82.64-34.3c-7.02-0.02-12.75-5.79-12.73-12.81l1.03-329.93c0.02-7.02,5.79-12.75,12.81-12.73
		l202.21,0.63c7.02,0.02,12.75,5.79,12.73,12.81L297.66-46.4C297.64-39.37,291.88-33.64,284.85-33.67z"/>
	<path class="st3" d="M93.98-320.52c-0.36-0.91-0.6-1.86-0.98-2.75c-1.07-2.49-2.58-4.72-4.22-6.86c-1.91-2.49-3.97-4.86-5.91-7.33
		c-1.18-1.51-2.24-3.1-2.78-4.96c-1.05-3.55,0.31-6.57,3.26-8.07c3.23-1.64,7.16-0.68,9.37,2.2c0.56,0.73,0.97,1.53,1.38,2.41
		c0.1-0.22,0.18-0.4,0.27-0.58c1.04-2.14,2.57-3.77,4.88-4.47c3.06-0.92,6.58,0.01,8.37,2.94c1,1.64,1.07,3.39,0.61,5.2
		c-0.55,2.17-1.67,4.06-3.01,5.83c-1.5,1.99-3.18,3.84-4.75,5.77c-1.87,2.31-3.62,4.7-4.92,7.39c-0.44,0.92-0.8,1.88-1.13,2.85
		c-0.07,0.2-0.15,0.36-0.35,0.44C94.03-320.52,94.01-320.52,93.98-320.52z"/>
	<path class="st1" d="M52.93-301.42c-1.04,1.68-2.49,2.82-4.34,3.4c-2.92,0.92-5.51-0.3-6.75-3.14c-0.69-1.58-0.87-3.18-0.1-4.78
		c0.74-1.54,2.01-2.5,3.55-3.13c1.44-0.59,2.94-0.78,4.49-0.58c0.06,0.01,0.11,0.01,0.17,0.01c0.02,0,0.04-0.02,0.09-0.04
		c-0.57-0.37-1.08-0.78-1.53-1.27c-1.4-1.5-2.26-3.27-2.52-5.32c-0.34-2.79,1.12-5.11,3.79-6.01c1.6-0.54,3.23-0.77,4.9-0.33
		c1.88,0.5,3.05,1.76,3.56,3.6c0.8,2.89,0.22,5.57-1.45,8.03c-0.04,0.05-0.09,0.1-0.14,0.14c0.02,0.02,0.04,0.04,0.06,0.06
		c0.21-0.1,0.41-0.21,0.62-0.31c0.22-0.1,0.45-0.21,0.68-0.28c2.46-0.79,4.83-0.66,6.97,0.86c2.04,1.44,2.6,3.51,2.12,5.89
		c-0.56,2.76-2.77,4.16-5.24,4.29c-1.78,0.09-3.42-0.34-4.91-1.32c-0.2-0.13-0.36-0.36-0.66-0.41c0.62,1.65,1.31,3.2,2.24,4.65
		c0.94,1.47,2.3,2.53,3.67,3.67c-3.88,0.64-7.67,1.27-11.54,1.91c0.89-1.49,1.67-2.97,1.97-4.65
		C52.89-298.1,52.99-299.75,52.93-301.42z"/>
	<g>
		<path class="st2" d="M82.89-358.92l10.52-22.77c0.1-0.2,0.27-0.37,0.58-0.37h0.34c0.34,0,0.47,0.17,0.58,0.37l10.42,22.77
			c0.2,0.44-0.07,0.88-0.57,0.88h-2.94c-0.51,0-0.74-0.2-0.98-0.68l-1.66-3.65H89.05l-1.66,3.65c-0.14,0.34-0.44,0.68-0.98,0.68
			h-2.94C82.96-358.04,82.69-358.48,82.89-358.92z M97.51-366.13l-3.38-7.44h-0.1l-3.32,7.44H97.51z"/>
	</g>
	<path class="st3" d="M184.13-189.87c-0.51-1.29-0.85-2.64-1.4-3.91c-1.52-3.54-3.66-6.7-6-9.74c-2.71-3.54-5.64-6.9-8.39-10.41
		c-1.68-2.15-3.17-4.4-3.95-7.04c-1.49-5.04,0.44-9.33,4.63-11.45c4.58-2.33,10.17-0.96,13.3,3.12c0.79,1.03,1.38,2.18,1.95,3.42
		c0.15-0.32,0.26-0.57,0.38-0.82c1.47-3.03,3.65-5.35,6.93-6.34c4.34-1.31,9.35,0.01,11.88,4.17c1.42,2.33,1.52,4.82,0.86,7.38
		c-0.79,3.09-2.37,5.77-4.27,8.28c-2.13,2.82-4.51,5.45-6.74,8.19c-2.66,3.27-5.14,6.67-6.98,10.49c-0.63,1.31-1.14,2.67-1.6,4.04
		c-0.09,0.28-0.21,0.52-0.5,0.62C184.19-189.87,184.16-189.87,184.13-189.87z"/>
	<path class="st3" d="M275.46-106.29c0.36,0.91,0.6,1.86,0.98,2.75c1.07,2.49,2.58,4.72,4.22,6.86c1.91,2.49,3.97,4.86,5.91,7.33
		c1.18,1.51,2.24,3.1,2.78,4.96c1.05,3.55-0.31,6.57-3.26,8.07c-3.23,1.64-7.16,0.68-9.37-2.2c-0.56-0.73-0.97-1.53-1.38-2.41
		c-0.1,0.22-0.18,0.4-0.27,0.58c-1.04,2.14-2.57,3.77-4.88,4.47c-3.06,0.92-6.58-0.01-8.37-2.94c-1-1.64-1.07-3.39-0.61-5.2
		c0.55-2.17,1.67-4.06,3.01-5.83c1.5-1.99,3.18-3.84,4.75-5.77c1.87-2.31,3.62-4.7,4.92-7.39c0.44-0.92,0.8-1.88,1.13-2.85
		c0.07-0.2,0.15-0.36,0.35-0.44C275.42-106.29,275.44-106.29,275.46-106.29z"/>
	<g>
		<path class="st2" d="M286.55-67.88l-10.52,22.77c-0.1,0.2-0.27,0.37-0.58,0.37h-0.34c-0.34,0-0.47-0.17-0.57-0.37l-10.42-22.77
			c-0.2-0.44,0.07-0.88,0.58-0.88h2.94c0.51,0,0.74,0.2,0.98,0.68l1.66,3.65h10.11l1.66-3.65c0.13-0.34,0.44-0.68,0.98-0.68h2.94
			C286.49-68.76,286.76-68.32,286.55-67.88z M271.94-60.68l3.38,7.44h0.1l3.32-7.44H271.94z"/>
	</g>
</g>
<path class="st1" d="M208.76,101.56c-1.44,0.85-2.96,1.14-4.58,0.86c-2.55-0.45-4.01-2.37-3.84-4.99c0.1-1.45,0.59-2.72,1.79-3.62
	c1.15-0.86,2.48-1.09,3.88-0.97c1.31,0.12,2.51,0.56,3.59,1.32c0.04,0.03,0.08,0.05,0.12,0.07c0.01,0.01,0.04,0,0.08,0.01
	c-0.28-0.5-0.5-1.01-0.65-1.55c-0.47-1.68-0.42-3.33,0.19-4.97c0.83-2.23,2.83-3.4,5.18-3.03c1.41,0.22,2.72,0.68,3.8,1.66
	c1.21,1.11,1.6,2.51,1.27,4.09c-0.53,2.48-2.01,4.26-4.22,5.45c-0.05,0.03-0.11,0.03-0.16,0.05c0.01,0.02,0.01,0.05,0.02,0.07
	c0.2,0,0.39,0,0.59,0.01c0.21,0.01,0.42,0.02,0.62,0.06c2.15,0.36,3.88,1.39,4.89,3.36c0.97,1.88,0.58,3.65-0.71,5.24
	c-1.49,1.85-3.7,2.04-5.6,1.17c-1.37-0.63-2.43-1.59-3.17-2.9c-0.1-0.18-0.13-0.41-0.33-0.56c-0.18,1.48-0.27,2.91-0.14,4.36
	c0.13,1.47,0.74,2.79,1.32,4.19c-3.15-1.03-6.24-2.04-9.39-3.07c1.25-0.77,2.41-1.58,3.29-2.72
	C207.43,104.04,208.16,102.84,208.76,101.56z"/>
</svg>
