<?xml version="1.0" encoding="utf-8"?>
<!-- Generator: Adobe Illustrator 24.1.0, SVG Export Plug-In . SVG Version: 6.00 Build 0)  -->
<svg version="1.1" id="Layer_1" xmlns="http://www.w3.org/2000/svg" xmlns:xlink="http://www.w3.org/1999/xlink" x="0px" y="0px"
	 viewBox="0 0 400 400" style="enable-background:new 0 0 400 400;" xml:space="preserve">
<style type="text/css">
	.st0{fill:#010101;}
	.st1{fill:#7F7C7C;}
	.st2{fill:#706D6D;}
	.st3{fill:#ED2224;}
	.st4{fill:#FFFFFF;stroke:#000000;stroke-width:1.7171;stroke-miterlimit:10;}
	.st5{fill:#EC2526;}
	.st6{fill:#020202;}
</style>
<path class="st0" d="M599.13,395.6c0.19-0.32,0.33-0.67,0.56-0.96c6.92-8.59,10.58-18.7,13.61-29.11c0.33-1.12,0.64-2.24,1-3.54
	c-5.28,3.09-10.67,5.32-16.5,6.28c-12.07,2-23.22,0.13-32.34-8.67c-6.41-6.18-8.76-13.99-7.9-22.8
	c1.05-10.74,6.24-19.62,12.62-27.96c4.34-5.68,9.64-10.45,14.65-15.49c12.38-12.47,23.1-26.27,32.64-41.01
	c1.59-2.46,1.65-2.48,3.14,0.08c10.41,17.91,23.8,33.28,39.01,47.28c9.19,8.46,15.87,18.77,18.54,31.29
	c0.29,1.38,0.13,2.84,0.78,4.15c0,0.32,0,0.65,0,0.97c-0.28,1.29-0.28,2.59,0,3.88c0,0.32,0,0.65,0,0.97
	c-0.31,3.33-0.94,6.55-2.33,9.64c-2.72,6.02-7.02,10.57-12.75,13.71c-10.15,5.56-20.7,5.46-31.43,1.92
	c-2.45-0.81-4.81-1.86-6.95-2.98c-0.31,0.07-0.42,0.15-0.39,0.26c1.75,8.08,3.93,16.01,8.51,23.04c1.5,2.31,3.39,4.32,5.21,6.37
	c0.57,0.65,1.16,1.28,1.56,2.05c0.23,0.44,0.28,0.85-0.44,0.84c-13.03-0.01-26.06,0-39.09-0.01
	C600.28,395.79,599.67,395.99,599.13,395.6z"/>
<path class="st1" d="M640.4,395.6c0.02,0.12,0.04,0.24,0.06,0.36c-13.8,0-27.6,0-41.4,0c0.02-0.12,0.04-0.24,0.07-0.37
	C612.89,395.6,626.64,395.6,640.4,395.6z"/>
<path class="st2" d="M678.96,339.99c-0.54-1.29-0.51-2.59,0-3.88C678.96,337.4,678.96,338.7,678.96,339.99z"/>
<path class="st3" d="M618.89,221.1c-3.18-5.64-6.34-11.02-9.63-16.32c-11.88-19.16-25.13-37.35-38.94-55.15
	c-0.64-0.83-0.95-1.38-0.16-2.44c17.09-22.94,33.47-46.37,48.29-70.86c0.11-0.18,0.25-0.34,0.46-0.63c2.1,3.51,4.13,6.95,6.21,10.37
	c12.9,21.25,27.06,41.63,42.44,61.15c0.52,0.67,0.93,1.11,0.17,2.02c-18.41,22.01-34.03,45.93-48.23,70.81
	C619.35,220.33,619.19,220.61,618.89,221.1z"/>
<g>
	<path class="st4" d="M260.5,346.47L101.7,383.79c-5.52,1.3-11.09-2.16-12.39-7.67L28.43,117.03c-1.3-5.52,2.16-11.09,7.67-12.39
		L194.9,67.32c5.52-1.3,11.09,2.16,12.39,7.67l60.89,259.09C269.47,339.6,266.01,345.17,260.5,346.47z"/>
	<path class="st3" d="M57.08,157.07c-0.45-0.64-0.82-1.34-1.29-1.98c-1.31-1.76-2.91-3.22-4.6-4.59c-1.97-1.6-4.03-3.07-6.01-4.65
		c-1.21-0.96-2.33-2.01-3.11-3.37c-1.48-2.59-0.99-5.21,1.05-6.94c2.23-1.89,5.49-1.87,7.76-0.03c0.57,0.47,1.05,1.02,1.53,1.63
		c0.04-0.19,0.07-0.35,0.1-0.5c0.41-1.87,1.31-3.44,3-4.42c2.23-1.3,5.17-1.23,7.12,0.74c1.09,1.1,1.47,2.46,1.45,3.97
		c-0.03,1.81-0.55,3.5-1.27,5.14c-0.81,1.84-1.78,3.6-2.65,5.41c-1.04,2.16-1.96,4.36-2.48,6.72c-0.18,0.81-0.28,1.62-0.35,2.44
		c-0.02,0.17-0.05,0.31-0.2,0.41C57.12,157.06,57.1,157.07,57.08,157.07z"/>
	<g>
		<path class="st5" d="M37.75,116.59l-2.22,1.06c-0.23,0.11-0.53,0.01-0.61-0.22l-0.47-1.26c-0.08-0.21-0.06-0.38,0.02-0.51
			l3.06-4.12l1.86-0.44c0.27-0.06,0.54,0.13,0.6,0.39l4.06,17.04c0.06,0.27-0.09,0.55-0.36,0.62l-2.28,0.54
			c-0.29,0.07-0.56-0.12-0.62-0.38L37.75,116.59z"/>
		<path class="st5" d="M46.02,119.05c-1.39-5.81,0.23-9.87,4.47-10.88c4.25-1.01,7.52,1.88,8.9,7.7c1.39,5.81-0.23,9.87-4.47,10.88
			S47.4,124.86,46.02,119.05z M55.92,116.69c-0.94-3.93-2.63-5.88-4.68-5.39c-2.04,0.49-2.68,3-1.74,6.92
			c0.94,3.95,2.63,5.88,4.68,5.39C56.22,123.13,56.86,120.65,55.92,116.69z"/>
	</g>
	<path class="st3" d="M152.25,242.73c-0.64-0.91-1.16-1.91-1.83-2.81c-1.86-2.49-4.13-4.57-6.53-6.52c-2.79-2.27-5.72-4.36-8.53-6.6
		c-1.72-1.37-3.31-2.86-4.42-4.79c-2.11-3.68-1.4-7.4,1.49-9.85c3.16-2.68,7.8-2.66,11.02-0.04c0.81,0.66,1.49,1.45,2.17,2.32
		c0.05-0.27,0.09-0.5,0.14-0.71c0.59-2.66,1.86-4.88,4.25-6.27c3.16-1.84,7.34-1.74,10.1,1.05c1.55,1.56,2.09,3.5,2.06,5.63
		c-0.04,2.57-0.78,4.97-1.8,7.3c-1.15,2.61-2.52,5.12-3.76,7.69c-1.48,3.07-2.79,6.19-3.51,9.54c-0.25,1.15-0.39,2.3-0.5,3.47
		c-0.02,0.23-0.07,0.44-0.28,0.58C152.3,242.72,152.27,242.72,152.25,242.73z"/>
	<path class="st3" d="M239.55,291.24c0.45,0.64,0.82,1.34,1.29,1.98c1.31,1.76,2.91,3.22,4.6,4.59c1.97,1.6,4.03,3.07,6.01,4.65
		c1.21,0.96,2.33,2.01,3.11,3.37c1.48,2.59,0.99,5.21-1.05,6.94c-2.23,1.89-5.49,1.87-7.76,0.03c-0.57-0.47-1.05-1.02-1.53-1.63
		c-0.04,0.19-0.07,0.35-0.1,0.5c-0.41,1.87-1.31,3.44-3,4.42c-2.23,1.3-5.17,1.23-7.12-0.74c-1.09-1.1-1.47-2.46-1.45-3.97
		c0.03-1.81,0.55-3.5,1.27-5.14c0.81-1.84,1.78-3.6,2.65-5.41c1.04-2.16,1.96-4.36,2.48-6.72c0.18-0.81,0.28-1.62,0.35-2.44
		c0.02-0.17,0.05-0.31,0.2-0.41C239.51,291.24,239.53,291.24,239.55,291.24z"/>
	<g>
		<path class="st5" d="M255.43,319.3l-4,19.83c-0.04,0.18-0.14,0.34-0.38,0.4l-0.27,0.06c-0.27,0.06-0.4-0.04-0.52-0.18
			l-12.43-15.91c-0.24-0.31-0.11-0.7,0.29-0.8l2.31-0.55c0.4-0.09,0.62,0.02,0.9,0.35l1.98,2.56l7.94-1.89l0.62-3.18
			c0.04-0.29,0.22-0.61,0.64-0.71l2.31-0.55C255.22,318.62,255.51,318.92,255.43,319.3z M245.32,327.68l4.04,5.21l0.08-0.02
			l1.21-6.46L245.32,327.68z"/>
	</g>
</g>
<path class="st3" d="M153.61,240.89c-0.64-0.92-1.15-1.91-1.81-2.82c-1.85-2.5-4.11-4.59-6.5-6.55c-2.78-2.28-5.7-4.38-8.5-6.64
	c-1.71-1.38-3.3-2.87-4.4-4.81c-2.09-3.69-1.37-7.41,1.53-9.85c3.17-2.67,7.81-2.62,11.02,0.01c0.81,0.66,1.48,1.46,2.16,2.33
	c0.06-0.27,0.1-0.5,0.15-0.71c0.6-2.65,1.88-4.87,4.28-6.25c3.17-1.83,7.34-1.71,10.1,1.09c1.54,1.57,2.08,3.51,2.03,5.64
	c-0.05,2.57-0.81,4.97-1.84,7.29c-1.16,2.61-2.54,5.11-3.79,7.67c-1.49,3.06-2.81,6.18-3.56,9.52c-0.25,1.14-0.4,2.3-0.52,3.47
	c-0.02,0.23-0.07,0.44-0.28,0.58C153.66,240.87,153.64,240.88,153.61,240.89z"/>
<path class="st3" d="M240.71,289.76c0.45,0.65,0.81,1.35,1.28,1.98c1.3,1.76,2.89,3.23,4.58,4.61c1.96,1.61,4.01,3.09,5.99,4.67
	c1.21,0.97,2.33,2.02,3.1,3.39c1.47,2.6,0.96,5.22-1.08,6.94c-2.23,1.88-5.5,1.85-7.76,0c-0.57-0.47-1.04-1.03-1.52-1.64
	c-0.04,0.19-0.07,0.35-0.1,0.5c-0.42,1.87-1.33,3.43-3.01,4.4c-2.23,1.29-5.17,1.2-7.11-0.77c-1.09-1.1-1.46-2.47-1.43-3.97
	c0.04-1.81,0.57-3.5,1.29-5.14c0.81-1.84,1.79-3.6,2.67-5.4c1.05-2.16,1.98-4.35,2.5-6.71c0.18-0.81,0.28-1.62,0.37-2.44
	c0.02-0.17,0.05-0.31,0.2-0.41C240.67,289.77,240.69,289.77,240.71,289.76z"/>
<g>
	<path class="st5" d="M256.47,317.89l-4.08,19.81c-0.04,0.18-0.14,0.34-0.38,0.4l-0.27,0.06c-0.27,0.06-0.4-0.05-0.52-0.19
		l-12.36-15.97c-0.24-0.31-0.11-0.7,0.29-0.8l2.31-0.54c0.4-0.09,0.62,0.02,0.89,0.35l1.97,2.56l7.94-1.86l0.63-3.17
		c0.04-0.29,0.22-0.61,0.65-0.71l2.31-0.54C256.26,317.22,256.55,317.51,256.47,317.89z M246.32,326.24l4.02,5.22l0.08-0.02
		l1.24-6.45L246.32,326.24z"/>
</g>
<path class="st4" d="M260.05,346.77L97.43,359.51c-5.65,0.44-10.63-3.82-11.08-9.47L65.56,84.71c-0.44-5.65,3.82-10.63,9.47-11.08
	L237.65,60.9c5.65-0.44,10.63,3.82,11.08,9.47l20.79,265.33C269.96,341.35,265.7,346.33,260.05,346.77z"/>
<path class="st3" d="M87.79,128.65c-0.35-0.7-0.6-1.45-0.97-2.15c-1.03-1.93-2.38-3.62-3.84-5.24c-1.7-1.88-3.51-3.65-5.23-5.51
	c-1.05-1.14-2-2.34-2.56-3.81c-1.07-2.79-0.18-5.3,2.09-6.7c2.49-1.53,5.71-1.01,7.67,1.15c0.5,0.55,0.88,1.17,1.26,1.85
	c0.07-0.19,0.12-0.33,0.18-0.48c0.69-1.79,1.82-3.2,3.63-3.91c2.4-0.94,5.29-0.43,6.92,1.81c0.91,1.25,1.08,2.66,0.83,4.14
	c-0.3,1.78-1.08,3.38-2.04,4.89c-1.08,1.7-2.3,3.29-3.44,4.95c-1.36,1.98-2.6,4.01-3.47,6.26c-0.3,0.77-0.52,1.56-0.72,2.36
	c-0.04,0.16-0.09,0.3-0.26,0.37C87.83,128.64,87.81,128.65,87.79,128.65z"/>
<g>
	<path class="st5" d="M79.86,96.51l1.3-1.56c0.28-0.3,0.55-0.26,0.82-0.04c0.38,0.35,0.97,0.8,1.87,0.72
		c1.06-0.09,2.1-1.05,1.95-2.92l-1.05-12.83c-0.02-0.27,0.18-0.53,0.48-0.56l2.56-0.21c0.3-0.02,0.54,0.2,0.56,0.47l1.05,12.83
		c0.31,3.78-2.04,6.16-5.23,6.42c-2.37,0.19-3.79-1.11-4.3-1.65C79.71,96.99,79.72,96.72,79.86,96.51z"/>
</g>
<path class="st3" d="M168.83,227.78c-0.5-1-0.85-2.06-1.38-3.05c-1.46-2.75-3.38-5.15-5.46-7.44c-2.41-2.67-4.99-5.18-7.43-7.82
	c-1.49-1.62-2.84-3.33-3.64-5.4c-1.52-3.96-0.26-7.53,2.97-9.51c3.53-2.17,8.11-1.44,10.9,1.64c0.7,0.78,1.25,1.66,1.79,2.62
	c0.1-0.26,0.17-0.48,0.25-0.68c0.98-2.54,2.58-4.54,5.16-5.55c3.41-1.34,7.52-0.6,9.83,2.57c1.29,1.78,1.54,3.78,1.18,5.88
	c-0.43,2.53-1.53,4.79-2.89,6.94c-1.53,2.41-3.27,4.67-4.88,7.03c-1.92,2.81-3.7,5.7-4.92,8.89c-0.42,1.09-0.74,2.22-1.03,3.35
	c-0.06,0.23-0.13,0.43-0.36,0.53C168.88,227.78,168.85,227.78,168.83,227.78z"/>
<path class="st3" d="M247.74,289c0.35,0.7,0.6,1.45,0.97,2.15c1.03,1.93,2.38,3.62,3.84,5.24c1.7,1.88,3.51,3.65,5.23,5.51
	c1.05,1.14,2,2.34,2.56,3.81c1.07,2.79,0.18,5.3-2.09,6.7c-2.49,1.53-5.71,1.01-7.67-1.15c-0.5-0.55-0.88-1.17-1.26-1.85
	c-0.07,0.19-0.12,0.33-0.18,0.48c-0.69,1.79-1.82,3.2-3.63,3.91c-2.4,0.94-5.29,0.43-6.92-1.81c-0.91-1.25-1.08-2.66-0.83-4.14
	c0.3-1.78,1.08-3.38,2.04-4.89c1.08-1.7,2.3-3.29,3.44-4.95c1.36-1.98,2.6-4.01,3.47-6.26c0.3-0.77,0.52-1.56,0.72-2.36
	c0.04-0.16,0.09-0.3,0.26-0.37C247.71,289,247.72,289,247.74,289z"/>
<g>
	<path class="st5" d="M259.18,319.15l-6.97,18.99c-0.07,0.17-0.19,0.32-0.44,0.34l-0.27,0.02c-0.27,0.02-0.39-0.1-0.49-0.26
		l-9.87-17.62c-0.19-0.34,0-0.71,0.4-0.74l2.37-0.19c0.41-0.03,0.61,0.11,0.83,0.48l1.57,2.83l8.13-0.66l1.09-3.04
		c0.09-0.28,0.31-0.57,0.74-0.61l2.37-0.19C259.06,318.45,259.31,318.78,259.18,319.15z M247.9,325.9l3.21,5.76l0.08-0.01l2.18-6.2
		L247.9,325.9z"/>
</g>
<g>
	<path class="st4" d="M256.42,345.79L93.96,331.08c-5.64-0.51-9.84-5.55-9.33-11.19l24.01-265.06c0.51-5.64,5.55-9.84,11.19-9.33
		l162.46,14.71c5.64,0.51,9.84,5.55,9.33,11.19l-24.01,265.06C267.1,342.1,262.06,346.3,256.42,345.79z"/>
	<path class="st3" d="M123.18,101.87c-0.23-0.75-0.35-1.53-0.6-2.28c-0.69-2.08-1.74-3.97-2.91-5.81c-1.36-2.14-2.85-4.18-4.23-6.31
		c-0.84-1.3-1.58-2.65-1.89-4.18c-0.59-2.93,0.71-5.26,3.18-6.25c2.71-1.09,5.8-0.04,7.37,2.42c0.4,0.62,0.67,1.3,0.94,2.03
		c0.1-0.17,0.17-0.31,0.25-0.45c0.98-1.64,2.33-2.85,4.24-3.25c2.52-0.53,5.29,0.47,6.52,2.95c0.69,1.39,0.62,2.8,0.12,4.22
		c-0.6,1.71-1.63,3.15-2.83,4.48c-1.35,1.49-2.82,2.86-4.22,4.3c-1.67,1.72-3.24,3.52-4.47,5.59c-0.42,0.71-0.78,1.45-1.11,2.21
		c-0.07,0.15-0.14,0.28-0.32,0.33C123.22,101.87,123.2,101.87,123.18,101.87z"/>
	<g>
		<path class="st5" d="M127.19,50.77c5.44,0.48,9.4,5.23,8.93,10.67c-0.32,3.7-2.76,6.77-6.06,8.23l2.93,5.65
			c0.21,0.4-0.07,0.82-0.51,0.78l-2.88-0.25c-0.11-0.01-0.34-0.14-0.41-0.31l-2.48-5.17c-0.44,0.02-0.9,0-1.23-0.03
			c-5.44-0.47-9.38-5.17-8.9-10.61C117.06,54.29,121.76,50.29,127.19,50.77z M125.79,66.8c3.42,0.3,6.5-2.25,6.8-5.68
			c0.3-3.42-2.28-6.53-5.7-6.83c-3.42-0.3-6.47,2.31-6.77,5.74C119.81,63.46,122.37,66.51,125.79,66.8z"/>
	</g>
	<path class="st3" d="M186.44,213.19c-0.32-1.07-0.5-2.18-0.85-3.24c-0.98-2.95-2.47-5.64-4.13-8.25c-1.93-3.03-4.05-5.94-6.01-8.96
		c-1.2-1.84-2.24-3.76-2.68-5.94c-0.84-4.16,1.01-7.46,4.52-8.88c3.84-1.55,8.24-0.06,10.47,3.44c0.56,0.88,0.95,1.85,1.33,2.89
		c0.14-0.24,0.25-0.44,0.36-0.63c1.39-2.33,3.31-4.04,6.01-4.61c3.58-0.75,7.51,0.67,9.26,4.19c0.98,1.97,0.88,3.98,0.18,5.99
		c-0.85,2.42-2.31,4.47-4.02,6.36c-1.91,2.12-4.01,4.06-5.99,6.11c-2.37,2.44-4.6,5-6.35,7.94c-0.6,1.01-1.1,2.06-1.57,3.13
		c-0.09,0.22-0.2,0.4-0.45,0.46C186.5,213.19,186.47,213.19,186.44,213.19z"/>
	<path class="st3" d="M253.97,286.77c0.23,0.75,0.35,1.53,0.6,2.28c0.69,2.08,1.74,3.97,2.91,5.81c1.36,2.14,2.85,4.18,4.23,6.31
		c0.84,1.3,1.58,2.65,1.89,4.18c0.59,2.93-0.71,5.26-3.18,6.25c-2.71,1.09-5.8,0.04-7.37-2.42c-0.4-0.62-0.67-1.3-0.94-2.03
		c-0.1,0.17-0.17,0.31-0.25,0.45c-0.98,1.64-2.33,2.85-4.24,3.25c-2.52,0.53-5.29-0.47-6.52-2.95c-0.69-1.39-0.62-2.8-0.12-4.22
		c0.6-1.71,1.63-3.15,2.83-4.48c1.35-1.49,2.82-2.86,4.22-4.3c1.67-1.72,3.24-3.52,4.47-5.59c0.42-0.71,0.78-1.45,1.11-2.21
		c0.07-0.15,0.14-0.28,0.32-0.33C253.94,286.77,253.96,286.77,253.97,286.77z"/>
	<g>
		<path class="st5" d="M249.89,338.67c-5.44-0.47-9.4-5.23-8.93-10.67c0.32-3.7,2.75-6.77,6.06-8.23l-2.93-5.65
			c-0.21-0.4,0.07-0.82,0.51-0.78l2.88,0.25c0.11,0.01,0.34,0.14,0.41,0.31l2.48,5.17c0.44-0.02,0.9,0,1.23,0.03
			c5.44,0.48,9.38,5.18,8.91,10.61C260.03,335.15,255.33,339.15,249.89,338.67z M251.29,322.64c-3.42-0.3-6.5,2.25-6.79,5.68
			c-0.3,3.42,2.28,6.53,5.7,6.83c3.42,0.3,6.47-2.31,6.77-5.74C257.27,325.98,254.72,322.94,251.29,322.64z"/>
	</g>
</g>
<path class="st3" d="M188.37,210.7c-0.32-1.07-0.49-2.18-0.83-3.24c-0.96-2.96-2.45-5.65-4.1-8.27c-1.92-3.04-4.02-5.96-5.97-8.98
	c-1.19-1.85-2.22-3.77-2.66-5.95c-0.82-4.16,1.04-7.46,4.56-8.86c3.85-1.53,8.24-0.02,10.45,3.49c0.56,0.89,0.95,1.85,1.32,2.89
	c0.14-0.24,0.25-0.44,0.36-0.63c1.4-2.33,3.32-4.03,6.04-4.58c3.58-0.73,7.51,0.7,9.24,4.23c0.97,1.97,0.86,3.98,0.15,5.99
	c-0.86,2.42-2.33,4.46-4.05,6.34c-1.92,2.11-4.03,4.04-6.02,6.08c-2.38,2.43-4.62,4.98-6.38,7.91c-0.6,1.01-1.11,2.06-1.59,3.13
	c-0.1,0.22-0.2,0.4-0.45,0.46C188.42,210.7,188.39,210.7,188.37,210.7z"/>
<path class="st3" d="M255.55,284.59c0.22,0.75,0.34,1.54,0.59,2.28c0.68,2.08,1.72,3.98,2.89,5.82c1.35,2.14,2.83,4.2,4.2,6.33
	c0.84,1.3,1.57,2.65,1.87,4.19c0.58,2.93-0.73,5.25-3.21,6.24c-2.71,1.08-5.8,0.01-7.36-2.46c-0.39-0.62-0.67-1.3-0.93-2.04
	c-0.1,0.17-0.17,0.31-0.26,0.44c-0.99,1.64-2.34,2.84-4.25,3.23c-2.52,0.52-5.29-0.49-6.51-2.98c-0.68-1.39-0.61-2.81-0.1-4.22
	c0.61-1.7,1.64-3.14,2.85-4.46c1.35-1.49,2.84-2.85,4.24-4.28c1.68-1.71,3.26-3.51,4.5-5.57c0.42-0.71,0.78-1.45,1.12-2.2
	c0.07-0.15,0.14-0.28,0.32-0.32C255.52,284.59,255.54,284.59,255.55,284.59z"/>
<g>
	<path class="st5" d="M261.62,316.26l-10.13,17.51c-0.1,0.16-0.25,0.28-0.49,0.26l-0.27-0.02c-0.27-0.03-0.37-0.17-0.43-0.34
		l-6.68-19.05c-0.13-0.37,0.12-0.7,0.53-0.66l2.36,0.22c0.41,0.04,0.58,0.22,0.74,0.62l1.06,3.06l8.12,0.75l1.6-2.81
		c0.13-0.26,0.4-0.51,0.84-0.47l2.36,0.22C261.63,315.55,261.82,315.93,261.62,316.26z M249.35,320.97l2.17,6.23l0.08,0.01
		l3.21-5.73L249.35,320.97z"/>
</g>
<path class="st4" d="M255.89,344.79L97.58,305.5c-5.5-1.37-8.88-6.98-7.52-12.48l64.12-258.31c1.37-5.5,6.98-8.88,12.48-7.52
	l158.32,39.3c5.5,1.37,8.88,6.98,7.52,12.48l-64.12,258.31C267.01,342.77,261.39,346.16,255.89,344.79z"/>
<path class="st3" d="M161.38,83.41c-0.11-0.78-0.11-1.57-0.24-2.35c-0.36-2.16-1.12-4.19-1.99-6.19c-1.02-2.32-2.18-4.57-3.22-6.88
	c-0.64-1.41-1.16-2.86-1.23-4.42c-0.14-2.98,1.5-5.09,4.1-5.7c2.84-0.66,5.74,0.84,6.92,3.52c0.3,0.68,0.47,1.39,0.61,2.15
	c0.12-0.15,0.22-0.28,0.32-0.4c1.22-1.48,2.74-2.46,4.68-2.56c2.57-0.14,5.16,1.27,5.99,3.91c0.47,1.47,0.19,2.86-0.52,4.19
	c-0.85,1.6-2.09,2.86-3.48,3.99c-1.56,1.27-3.22,2.4-4.83,3.61c-1.91,1.45-3.74,2.99-5.27,4.85c-0.52,0.64-0.99,1.32-1.43,2.01
	c-0.09,0.14-0.18,0.26-0.36,0.27C161.42,83.42,161.4,83.42,161.38,83.41z"/>
<g>
	<path class="st5" d="M166.69,34.56c0.08-0.34,0.42-0.57,0.79-0.48l2.33,0.57c0.34,0.08,0.56,0.45,0.48,0.79l-1.75,7.16l8.52-5.89
		c0.14-0.11,0.33-0.2,0.57-0.14l2.65,0.65c0.5,0.12,0.63,0.74,0.19,1.06l-8.82,6.1l5.25,10.69c0.18,0.41-0.17,0.94-0.7,0.81
		l-2.89-0.71c-0.26-0.06-0.4-0.21-0.43-0.3l-4.83-10.23l-1.98,8.08c-0.08,0.35-0.45,0.57-0.79,0.48l-2.33-0.57
		c-0.37-0.09-0.56-0.45-0.48-0.79L166.69,34.56z"/>
</g>
<path class="st3" d="M206.94,203.07c-0.15-1.11-0.16-2.23-0.34-3.33c-0.51-3.07-1.59-5.95-2.83-8.78c-1.45-3.29-3.1-6.49-4.57-9.77
	c-0.9-2-1.64-4.05-1.75-6.28c-0.2-4.24,2.13-7.22,5.82-8.09c4.04-0.94,8.15,1.2,9.82,4.99c0.42,0.96,0.66,1.97,0.87,3.06
	c0.17-0.22,0.31-0.4,0.45-0.57c1.73-2.09,3.88-3.49,6.65-3.64c3.65-0.19,7.32,1.8,8.51,5.55c0.66,2.09,0.26,4.07-0.74,5.95
	c-1.21,2.27-2.97,4.07-4.94,5.67c-2.21,1.8-4.58,3.4-6.85,5.12c-2.71,2.06-5.31,4.24-7.48,6.88c-0.74,0.91-1.4,1.87-2.03,2.86
	c-0.13,0.2-0.26,0.36-0.51,0.39C206.99,203.09,206.97,203.08,206.94,203.07z"/>
<path class="st3" d="M262.47,286.09c0.11,0.78,0.11,1.57,0.24,2.35c0.36,2.16,1.12,4.19,1.99,6.19c1.02,2.32,2.18,4.57,3.22,6.88
	c0.64,1.41,1.16,2.86,1.23,4.42c0.14,2.98-1.5,5.09-4.1,5.7c-2.84,0.66-5.74-0.84-6.92-3.52c-0.3-0.68-0.47-1.39-0.61-2.15
	c-0.12,0.15-0.22,0.28-0.32,0.4c-1.22,1.48-2.74,2.46-4.68,2.56c-2.57,0.14-5.16-1.27-5.99-3.91c-0.47-1.47-0.19-2.86,0.52-4.19
	c0.85-1.6,2.09-2.86,3.48-3.99c1.56-1.27,3.22-2.4,4.83-3.61c1.91-1.45,3.74-2.99,5.27-4.85c0.52-0.64,0.99-1.32,1.43-2.01
	c0.09-0.14,0.18-0.26,0.36-0.27C262.44,286.08,262.45,286.08,262.47,286.09z"/>
<g>
	<path class="st5" d="M257.16,334.94c-0.08,0.34-0.42,0.57-0.79,0.48l-2.33-0.57c-0.34-0.08-0.56-0.45-0.48-0.79l1.75-7.16
		l-8.52,5.89c-0.14,0.11-0.33,0.2-0.57,0.14l-2.65-0.65c-0.5-0.12-0.63-0.74-0.19-1.06l8.82-6.1l-5.25-10.69
		c-0.18-0.41,0.17-0.94,0.71-0.81l2.89,0.71c0.26,0.07,0.4,0.21,0.43,0.3l4.83,10.23l1.98-8.08c0.09-0.34,0.45-0.56,0.79-0.48
		l2.33,0.57c0.37,0.09,0.56,0.45,0.48,0.79L257.16,334.94z"/>
</g>
<path class="st3" d="M209.04,201.42c-0.15-1.11-0.16-2.23-0.34-3.33c-0.51-3.07-1.58-5.95-2.83-8.78c-1.45-3.29-3.09-6.49-4.57-9.77
	c-0.9-2-1.64-4.05-1.75-6.28c-0.2-4.24,2.13-7.22,5.82-8.09c4.04-0.94,8.15,1.2,9.82,5c0.42,0.96,0.66,1.97,0.87,3.06
	c0.17-0.22,0.31-0.4,0.45-0.57c1.73-2.09,3.88-3.49,6.65-3.64c3.65-0.19,7.32,1.8,8.51,5.55c0.66,2.09,0.26,4.07-0.74,5.95
	c-1.21,2.27-2.97,4.06-4.94,5.67c-2.21,1.8-4.58,3.4-6.85,5.12c-2.71,2.06-5.31,4.24-7.48,6.88c-0.74,0.91-1.4,1.87-2.03,2.86
	c-0.13,0.2-0.26,0.36-0.51,0.39C209.09,201.43,209.07,201.42,209.04,201.42z"/>
<path class="st3" d="M264.56,284.44c0.11,0.78,0.11,1.57,0.24,2.35c0.36,2.16,1.12,4.19,1.99,6.19c1.02,2.32,2.18,4.57,3.22,6.88
	c0.64,1.41,1.16,2.86,1.23,4.42c0.14,2.98-1.5,5.09-4.1,5.7c-2.84,0.66-5.74-0.84-6.92-3.52c-0.3-0.68-0.47-1.39-0.61-2.15
	c-0.12,0.15-0.22,0.28-0.32,0.4c-1.22,1.48-2.74,2.46-4.68,2.56c-2.57,0.14-5.16-1.27-5.99-3.91c-0.47-1.48-0.19-2.86,0.52-4.19
	c0.85-1.6,2.09-2.86,3.48-3.99c1.56-1.27,3.23-2.4,4.83-3.61c1.91-1.45,3.74-2.98,5.27-4.85c0.52-0.64,0.99-1.32,1.43-2.01
	c0.09-0.14,0.18-0.26,0.36-0.27C264.52,284.43,264.54,284.43,264.56,284.44z"/>
<g>
	<path class="st5" d="M265.88,316.66l-12.61,15.81c-0.12,0.14-0.28,0.24-0.52,0.18l-0.27-0.06c-0.26-0.07-0.34-0.22-0.38-0.4
		l-3.79-19.83c-0.08-0.38,0.22-0.68,0.62-0.58l2.3,0.56c0.4,0.1,0.54,0.3,0.64,0.72l0.6,3.18l7.92,1.94l2-2.54
		c0.17-0.24,0.47-0.45,0.9-0.34l2.31,0.57C265.99,315.96,266.12,316.35,265.88,316.66z M253.04,319.5l1.22,6.48l0.08,0.02l4.03-5.19
		L253.04,319.5z"/>
</g>
<path class="st4" d="M255.99,344.03l-150.76-62.28c-5.24-2.16-7.75-8.22-5.59-13.46L201.26,22.31c2.16-5.24,8.22-7.75,13.46-5.59
	L365.48,79c5.24,2.16,7.75,8.22,5.59,13.46L269.44,338.44C267.28,343.67,261.22,346.19,255.99,344.03z"/>
<path class="st3" d="M201.19,71.54c0.01-0.79,0.12-1.57,0.11-2.36c-0.04-2.19-0.48-4.31-1.06-6.41c-0.66-2.44-1.48-4.84-2.17-7.28
	c-0.42-1.49-0.72-3-0.56-4.55c0.3-2.97,2.24-4.81,4.9-5.03c2.91-0.24,5.55,1.68,6.32,4.5c0.19,0.71,0.26,1.44,0.29,2.22
	c0.14-0.13,0.26-0.24,0.38-0.35c1.43-1.28,3.07-2.03,5.01-1.84c2.57,0.25,4.91,2.02,5.35,4.75c0.24,1.53-0.24,2.86-1.14,4.07
	c-1.08,1.45-2.49,2.52-4.03,3.44c-1.73,1.03-3.54,1.89-5.31,2.86c-2.1,1.15-4.14,2.4-5.93,4.01c-0.61,0.55-1.17,1.16-1.71,1.78
	c-0.11,0.13-0.22,0.23-0.4,0.22C201.22,71.56,201.2,71.55,201.19,71.54z"/>
<g>
	<path class="st5" d="M204.65,39.48l14.81-13.78c0.14-0.12,0.32-0.2,0.54-0.1l0.25,0.1c0.25,0.1,0.3,0.27,0.31,0.45l0.82,20.18
		c0.02,0.39-0.32,0.64-0.7,0.48l-2.2-0.9c-0.38-0.16-0.49-0.38-0.53-0.8l-0.12-3.23l-7.55-3.09l-2.35,2.22
		c-0.2,0.21-0.54,0.37-0.94,0.21l-2.2-0.9C204.43,40.16,204.36,39.75,204.65,39.48z M217.76,38.57l-0.25-6.59l-0.07-0.03l-4.75,4.54
		L217.76,38.57z"/>
</g>
<path class="st3" d="M228.54,196.63c0.01-1.12,0.17-2.23,0.15-3.35c-0.06-3.11-0.69-6.12-1.5-9.1c-0.94-3.47-2.1-6.88-3.08-10.34
	c-0.6-2.11-1.03-4.25-0.8-6.47c0.43-4.22,3.18-6.83,6.95-7.14c4.13-0.34,7.88,2.39,8.97,6.39c0.28,1.01,0.36,2.05,0.41,3.15
	c0.2-0.19,0.37-0.35,0.53-0.5c2.02-1.82,4.36-2.88,7.11-2.62c3.64,0.35,6.97,2.87,7.6,6.75c0.35,2.17-0.34,4.06-1.61,5.78
	c-1.53,2.06-3.54,3.58-5.72,4.88c-2.46,1.46-5.03,2.69-7.53,4.05c-2.99,1.63-5.88,3.41-8.42,5.7c-0.87,0.79-1.66,1.64-2.43,2.53
	c-0.15,0.18-0.31,0.32-0.56,0.31C228.59,196.64,228.57,196.63,228.54,196.63z"/>
<path class="st3" d="M271.18,286.94c-0.01,0.79-0.12,1.57-0.11,2.36c0.04,2.19,0.48,4.31,1.06,6.41c0.66,2.44,1.48,4.84,2.17,7.28
	c0.42,1.49,0.72,3,0.56,4.55c-0.3,2.97-2.24,4.81-4.9,5.03c-2.91,0.24-5.55-1.68-6.32-4.5c-0.19-0.71-0.26-1.44-0.29-2.22
	c-0.14,0.13-0.26,0.24-0.38,0.35c-1.43,1.28-3.07,2.03-5.01,1.84c-2.57-0.25-4.91-2.02-5.35-4.75c-0.24-1.53,0.24-2.86,1.14-4.07
	c1.08-1.45,2.49-2.52,4.03-3.44c1.73-1.03,3.54-1.89,5.31-2.86c2.1-1.15,4.14-2.4,5.93-4.01c0.61-0.55,1.17-1.16,1.71-1.78
	c0.11-0.13,0.22-0.23,0.4-0.22C271.14,286.93,271.16,286.93,271.18,286.94z"/>
<g>
	<path class="st5" d="M267.72,319l-14.81,13.78c-0.14,0.12-0.32,0.2-0.54,0.1l-0.25-0.1c-0.25-0.1-0.3-0.27-0.32-0.45l-0.82-20.18
		c-0.02-0.39,0.32-0.63,0.7-0.48l2.2,0.9c0.38,0.16,0.49,0.38,0.53,0.8l0.12,3.23l7.55,3.09l2.35-2.22
		c0.21-0.21,0.54-0.37,0.94-0.21l2.2,0.9C267.94,318.32,268,318.73,267.72,319z M254.61,319.91l0.25,6.59l0.08,0.03l4.75-4.54
		L254.61,319.91z"/>
</g>
<path class="st6" d="M78.31-24.19c-1.44,0.85-2.96,1.14-4.58,0.86c-2.55-0.45-4.01-2.37-3.84-4.99c0.1-1.45,0.59-2.72,1.79-3.62
	c1.15-0.86,2.48-1.09,3.88-0.97c1.31,0.12,2.51,0.56,3.59,1.32c0.04,0.03,0.08,0.05,0.12,0.07c0.01,0.01,0.04,0,0.08,0.01
	c-0.28-0.5-0.5-1.01-0.65-1.55c-0.47-1.68-0.42-3.33,0.19-4.97c0.83-2.23,2.83-3.4,5.18-3.03c1.41,0.22,2.72,0.68,3.8,1.66
	c1.21,1.11,1.6,2.51,1.27,4.09c-0.53,2.48-2.01,4.26-4.22,5.45c-0.05,0.03-0.11,0.03-0.16,0.05c0.01,0.02,0.01,0.05,0.02,0.07
	c0.2,0,0.39,0,0.59,0.01c0.21,0.01,0.42,0.02,0.62,0.06c2.15,0.36,3.88,1.39,4.89,3.36c0.97,1.88,0.58,3.65-0.71,5.24
	c-1.49,1.85-3.7,2.04-5.6,1.17c-1.37-0.63-2.43-1.59-3.17-2.9c-0.1-0.18-0.13-0.41-0.33-0.56c-0.18,1.48-0.27,2.91-0.14,4.36
	c0.13,1.47,0.74,2.79,1.32,4.19c-3.15-1.03-6.24-2.04-9.39-3.07c1.25-0.77,2.41-1.58,3.29-2.72C76.98-21.71,77.71-22.91,78.31-24.19
	z"/>
<g>
</g>
<g>
</g>
<g>
</g>
<g>
</g>
<g>
</g>
<g>
</g>
<g>
</g>
<g>
</g>
<g>
</g>
<g>
</g>
<g>
</g>
</svg>
