<?xml version="1.0" encoding="utf-8"?>
<!-- Generator: Adobe Illustrator 24.1.0, SVG Export Plug-In . SVG Version: 6.00 Build 0)  -->
<svg version="1.1" id="Layer_1" xmlns="http://www.w3.org/2000/svg" xmlns:xlink="http://www.w3.org/1999/xlink" x="0px" y="0px"
	 viewBox="0 0 400 400" style="enable-background:new 0 0 400 400;" xml:space="preserve">
<style type="text/css">
	.st0{fill:#7F7C7C;}
	.st1{fill:#706D6D;}
	.st2{fill:#ED2224;}
	.st3{fill:#EC2526;}
	.st4{fill:#FFFFFF;stroke:#000000;stroke-width:1.7171;stroke-miterlimit:10;}
	.st5{fill:#020202;}
	.st6{fill:#010101;}
</style>
<path class="st0" d="M640.4,395.6c0.02,0.12,0.04,0.24,0.06,0.36c-13.8,0-27.6,0-41.4,0c0.02-0.12,0.04-0.24,0.07-0.37
	C612.89,395.6,626.64,395.6,640.4,395.6z"/>
<path class="st1" d="M678.96,339.99c-0.54-1.29-0.51-2.59,0-3.88C678.96,337.4,678.96,338.7,678.96,339.99z"/>
<g>
	<path class="st2" d="M196.3,249.46c-0.93-0.62-1.77-1.36-2.72-1.95c-2.64-1.65-5.51-2.76-8.45-3.7c-3.42-1.1-6.91-1.98-10.34-3.05
		c-2.1-0.65-4.12-1.46-5.86-2.85c-3.3-2.66-4-6.39-2.2-9.72c1.97-3.65,6.3-5.31,10.25-4.04c1,0.32,1.91,0.81,2.87,1.37
		c-0.05-0.28-0.09-0.5-0.13-0.72c-0.42-2.69-0.04-5.22,1.68-7.39c2.28-2.86,6.2-4.29,9.79-2.69c2.01,0.89,3.22,2.5,3.96,4.5
		c0.9,2.41,1.08,4.92,0.97,7.46c-0.12,2.85-0.49,5.68-0.71,8.53c-0.26,3.39-0.35,6.78,0.19,10.16c0.18,1.16,0.47,2.29,0.79,3.42
		c0.06,0.23,0.1,0.44-0.05,0.64C196.34,249.43,196.32,249.45,196.3,249.46z"/>
	<path class="st2" d="M295.26,262.92c0.66,0.43,1.25,0.96,1.92,1.37c1.86,1.16,3.88,1.94,5.95,2.61c2.41,0.77,4.87,1.4,7.29,2.15
		c1.48,0.46,2.91,1.03,4.13,2.01c2.33,1.87,2.81,4.5,1.55,6.85c-1.39,2.57-4.44,3.74-7.22,2.85c-0.7-0.23-1.35-0.57-2.02-0.97
		c0.03,0.19,0.06,0.35,0.09,0.51c0.3,1.89,0.03,3.68-1.18,5.2c-1.6,2.02-4.37,3.02-6.9,1.9c-1.41-0.63-2.27-1.76-2.79-3.17
		c-0.63-1.7-0.76-3.46-0.68-5.25c0.08-2.01,0.34-4,0.5-6.01c0.18-2.39,0.24-4.78-0.14-7.16c-0.13-0.82-0.33-1.61-0.56-2.41
		c-0.05-0.16-0.07-0.31,0.03-0.45C295.23,262.94,295.25,262.93,295.26,262.92z"/>
	<g>
		<path class="st3" d="M320.26,283.29l3.48,19.92c0.03,0.18-0.01,0.37-0.21,0.51l-0.22,0.16c-0.22,0.16-0.39,0.11-0.55,0.02
			l-17.36-10.31c-0.34-0.2-0.36-0.61-0.02-0.85l1.95-1.35c0.34-0.23,0.59-0.21,0.96,0l2.78,1.66l6.71-4.65l-0.58-3.18
			c-0.07-0.29-0.02-0.65,0.34-0.9l1.95-1.35C319.81,282.74,320.19,282.91,320.26,283.29z M313.88,294.78l5.66,3.38l0.07-0.05
			l-1.22-6.46L313.88,294.78z"/>
	</g>
	<path class="st4" d="M334.2,308.84l-146.57,71.6c-5.09,2.49-11.29,0.36-13.78-4.73L57.03,136.57c-2.49-5.09-0.36-11.29,4.73-13.78
		l146.57-71.6c5.09-2.49,11.29-0.36,13.78,4.73l116.82,239.14C341.42,300.15,339.29,306.35,334.2,308.84z"/>
	<g>
		<path d="M72.03,145.1l-0.5-20.22c0-0.18,0.06-0.37,0.28-0.47l0.24-0.12c0.25-0.12,0.4-0.05,0.55,0.06l15.65,12.76
			c0.3,0.25,0.26,0.66-0.1,0.84L86.03,139c-0.37,0.18-0.61,0.12-0.95-0.14l-2.5-2.05l-7.32,3.6l0.1,3.23
			c0.02,0.29-0.08,0.65-0.47,0.84l-2.13,1.05C72.4,145.72,72.04,145.5,72.03,145.1z M80.04,134.69l-5.1-4.18l-0.07,0.04l0.25,6.57
			L80.04,134.69z"/>
	</g>
	<path class="st2" d="M205.64,231.69c-0.83-0.75-1.55-1.61-2.4-2.33c-2.36-2.02-5.04-3.54-7.81-4.91c-3.22-1.59-6.54-2.98-9.78-4.55
		c-1.98-0.95-3.86-2.05-5.37-3.69c-2.87-3.12-3.01-6.91-0.73-9.94c2.49-3.32,7.01-4.32,10.73-2.48c0.94,0.46,1.77,1.08,2.63,1.78
		c-0.01-0.28-0.02-0.5-0.02-0.73c-0.02-2.72,0.73-5.17,2.76-7.06c2.68-2.5,6.77-3.32,10.09-1.22c1.85,1.18,2.82,2.95,3.26,5.04
		c0.53,2.51,0.34,5.02-0.14,7.52c-0.54,2.8-1.32,5.55-1.96,8.33c-0.76,3.32-1.35,6.66-1.31,10.08c0.01,1.17,0.13,2.33,0.28,3.5
		c0.03,0.23,0.03,0.45-0.14,0.63C205.68,231.66,205.66,231.67,205.64,231.69z"/>
	<path class="st2" d="M301.52,259.62c0.58,0.53,1.09,1.13,1.69,1.64c1.67,1.42,3.55,2.49,5.5,3.46c2.27,1.12,4.61,2.1,6.89,3.2
		c1.39,0.67,2.72,1.44,3.78,2.6c2.02,2.2,2.12,4.86,0.52,7c-1.75,2.34-4.94,3.04-7.56,1.75c-0.66-0.33-1.25-0.76-1.85-1.25
		c0.01,0.2,0.01,0.36,0.01,0.51c0.01,1.92-0.52,3.64-1.94,4.97c-1.88,1.76-4.77,2.34-7.1,0.86c-1.31-0.83-1.98-2.08-2.29-3.55
		c-0.37-1.77-0.24-3.54,0.1-5.29c0.38-1.97,0.93-3.91,1.38-5.87c0.53-2.34,0.95-4.69,0.92-7.1c-0.01-0.83-0.09-1.64-0.2-2.46
		c-0.02-0.16-0.02-0.32,0.1-0.44C301.49,259.64,301.51,259.63,301.52,259.62z"/>
	<g>
		<path class="st3" d="M323.24,283.46l0.5,20.22c0,0.18-0.06,0.37-0.28,0.47l-0.25,0.12c-0.25,0.12-0.4,0.05-0.55-0.06l-15.65-12.76
			c-0.3-0.25-0.26-0.66,0.1-0.84l2.13-1.05c0.37-0.18,0.61-0.12,0.95,0.14l2.5,2.05l7.32-3.6l-0.1-3.23
			c-0.02-0.29,0.08-0.65,0.47-0.84l2.13-1.05C322.87,282.85,323.22,283.07,323.24,283.46z M315.23,293.88l5.1,4.18l0.07-0.04
			l-0.25-6.57L315.23,293.88z"/>
	</g>
	<path class="st4" d="M330.46,309.26l-156.5,46.01c-5.44,1.6-11.19-1.54-12.79-6.98L86.11,92.95c-1.6-5.44,1.54-11.19,6.98-12.79
		l156.5-46.01c5.44-1.6,11.19,1.54,12.79,6.98l75.06,255.34C339.04,301.91,335.9,307.66,330.46,309.26z"/>
	<g>
		<path d="M99.89,103.18l2.9-20.02c0.03-0.18,0.12-0.35,0.36-0.42l0.26-0.08c0.26-0.08,0.41,0.02,0.53,0.16l13.29,15.21
			c0.26,0.29,0.15,0.7-0.24,0.81l-2.28,0.68c-0.39,0.12-0.62,0.01-0.91-0.3l-2.12-2.44l-7.82,2.33l-0.44,3.21
			c-0.03,0.29-0.18,0.62-0.6,0.75l-2.28,0.68C100.15,103.84,99.84,103.56,99.89,103.18z M109.53,94.25l-4.33-4.98l-0.08,0.02
			l-0.85,6.52L109.53,94.25z"/>
	</g>
	<path class="st2" d="M216.66,211.64c-0.69-0.88-1.26-1.84-1.98-2.7c-1.99-2.39-4.37-4.34-6.88-6.15c-2.91-2.11-5.95-4.04-8.88-6.12
		c-1.79-1.27-3.47-2.67-4.68-4.54c-2.31-3.56-1.81-7.31,0.94-9.92c3.01-2.85,7.64-3.08,11-0.65c0.85,0.62,1.57,1.37,2.3,2.2
		c0.04-0.28,0.07-0.5,0.1-0.72c0.44-2.68,1.59-4.97,3.9-6.5c3.06-2.01,7.23-2.14,10.15,0.49c1.63,1.47,2.28,3.38,2.37,5.51
		c0.1,2.57-0.51,5.01-1.4,7.39c-1,2.67-2.23,5.25-3.33,7.88c-1.3,3.14-2.44,6.34-2.98,9.72c-0.19,1.16-0.27,2.32-0.31,3.49
		c-0.01,0.24-0.04,0.45-0.25,0.59C216.71,211.63,216.68,211.63,216.66,211.64z"/>
	<path class="st2" d="M306.5,255.26c0.49,0.62,0.89,1.3,1.39,1.9c1.4,1.68,3.08,3.05,4.84,4.33c2.05,1.49,4.19,2.84,6.25,4.31
		c1.26,0.9,2.44,1.88,3.29,3.2c1.63,2.51,1.27,5.15-0.66,6.99c-2.12,2.01-5.38,2.17-7.75,0.46c-0.6-0.43-1.1-0.96-1.62-1.55
		c-0.03,0.2-0.05,0.35-0.07,0.51c-0.31,1.89-1.12,3.5-2.75,4.58c-2.15,1.42-5.09,1.51-7.15-0.35c-1.15-1.04-1.61-2.38-1.67-3.88
		c-0.07-1.81,0.36-3.53,0.99-5.2c0.7-1.88,1.57-3.7,2.34-5.55c0.92-2.21,1.72-4.46,2.1-6.84c0.13-0.82,0.19-1.64,0.22-2.46
		c0.01-0.17,0.03-0.31,0.17-0.42C306.47,255.28,306.48,255.27,306.5,255.26z"/>
	<g>
		<path class="st3" d="M321.78,305.04c-5.23,1.56-10.67-1.41-12.22-6.64c-1.06-3.56,0.08-7.31,2.61-9.88l-4.8-4.18
			c-0.34-0.3-0.23-0.79,0.19-0.91l2.77-0.82c0.1-0.03,0.37,0,0.5,0.14l4.21,3.9c0.4-0.18,0.84-0.33,1.15-0.43
			c5.23-1.56,10.62,1.37,12.18,6.6C329.91,298.03,327.01,303.48,321.78,305.04z M317.19,289.61c-3.29,0.98-5.21,4.48-4.23,7.78
			c0.98,3.29,4.52,5.23,7.81,4.25c3.29-0.98,5.17-4.53,4.19-7.82C323.98,290.52,320.48,288.63,317.19,289.61z"/>
	</g>
	<path class="st2" d="M217.53,208.62c-0.69-0.88-1.25-1.85-1.97-2.71c-1.98-2.4-4.35-4.36-6.85-6.18c-2.9-2.12-5.93-4.07-8.85-6.16
		c-1.79-1.28-3.45-2.69-4.66-4.56c-2.29-3.57-1.77-7.32,0.99-9.92c3.02-2.84,7.65-3.05,11-0.6c0.85,0.62,1.56,1.37,2.29,2.21
		c0.04-0.28,0.07-0.5,0.11-0.72c0.45-2.68,1.61-4.97,3.93-6.48c3.07-2,7.24-2.11,10.14,0.54c1.62,1.48,2.27,3.39,2.34,5.52
		c0.09,2.57-0.53,5-1.43,7.38c-1.01,2.67-2.26,5.24-3.36,7.87c-1.32,3.14-2.47,6.33-3.03,9.7c-0.19,1.16-0.28,2.32-0.33,3.49
		c-0.01,0.24-0.04,0.45-0.25,0.59C217.58,208.61,217.56,208.61,217.53,208.62z"/>
	<path class="st2" d="M307.17,252.66c0.48,0.62,0.88,1.3,1.38,1.91c1.4,1.69,3.07,3.07,4.82,4.36c2.04,1.5,4.18,2.86,6.23,4.34
		c1.26,0.9,2.43,1.89,3.28,3.21c1.61,2.51,1.25,5.16-0.7,6.98c-2.13,2-5.39,2.15-7.75,0.42c-0.6-0.44-1.1-0.97-1.61-1.56
		c-0.03,0.2-0.05,0.35-0.08,0.51c-0.32,1.89-1.14,3.5-2.77,4.56c-2.16,1.41-5.1,1.48-7.14-0.38c-1.14-1.04-1.6-2.39-1.65-3.89
		c-0.06-1.81,0.37-3.52,1.01-5.2c0.71-1.88,1.59-3.69,2.37-5.54c0.93-2.21,1.74-4.46,2.13-6.84c0.13-0.81,0.2-1.64,0.23-2.46
		c0.01-0.17,0.03-0.31,0.18-0.42C307.14,252.67,307.15,252.66,307.17,252.66z"/>
	<g>
		<path class="st3" d="M324.45,279.88l-2.99,20c-0.03,0.18-0.12,0.35-0.36,0.42l-0.26,0.08c-0.26,0.08-0.4-0.03-0.53-0.16
			l-13.22-15.27c-0.26-0.29-0.15-0.7,0.25-0.81l2.28-0.67c0.39-0.11,0.62-0.01,0.91,0.3l2.11,2.45l7.83-2.29l0.46-3.2
			c0.03-0.29,0.19-0.62,0.61-0.75l2.28-0.67C324.2,279.22,324.51,279.5,324.45,279.88z M314.77,288.77l4.3,4.99l0.08-0.02l0.88-6.51
			L314.77,288.77z"/>
	</g>
	<path class="st4" d="M329.6,308.52l-161.68,21.62c-5.62,0.75-10.83-3.23-11.58-8.85L121.07,57.5c-0.75-5.62,3.23-10.83,8.85-11.58
		L291.6,24.3c5.62-0.75,10.83,3.23,11.58,8.85l35.28,263.8C339.2,302.56,335.22,307.77,329.6,308.52z"/>
	<g>
		<path class="st3" d="M133.53,70.31l5.92-19.34c0.06-0.17,0.18-0.33,0.42-0.36l0.27-0.04c0.27-0.04,0.4,0.08,0.5,0.24l10.82,17.05
			c0.21,0.33,0.04,0.71-0.36,0.77l-2.35,0.32c-0.41,0.06-0.62-0.08-0.86-0.43l-1.72-2.74l-8.08,1.11l-0.93,3.1
			c-0.07,0.29-0.28,0.59-0.71,0.65l-2.35,0.32C133.69,71,133.42,70.68,133.53,70.31z M144.42,62.95l-3.52-5.58l-0.08,0.01
			l-1.83,6.31L144.42,62.95z"/>
	</g>
	<path class="st2" d="M232.01,194.7c-0.55-0.97-0.97-2.01-1.54-2.97c-1.61-2.66-3.66-4.95-5.86-7.13c-2.56-2.53-5.26-4.9-7.84-7.4
		c-1.58-1.53-3.02-3.17-3.93-5.2c-1.74-3.87-0.67-7.5,2.44-9.66c3.41-2.36,8.02-1.88,10.97,1.04c0.75,0.74,1.34,1.59,1.93,2.52
		c0.08-0.27,0.14-0.48,0.21-0.7c0.84-2.59,2.33-4.67,4.84-5.83c3.33-1.52,7.47-1.01,9.95,2.03c1.39,1.7,1.74,3.69,1.5,5.81
		c-0.29,2.55-1.27,4.87-2.51,7.09c-1.4,2.49-3.01,4.85-4.49,7.28c-1.77,2.91-3.38,5.89-4.43,9.15c-0.36,1.12-0.62,2.26-0.84,3.4
		c-0.04,0.23-0.11,0.44-0.33,0.55C232.06,194.7,232.03,194.7,232.01,194.7z"/>
	<path class="st2" d="M314.15,251.51c0.39,0.68,0.68,1.42,1.09,2.09c1.13,1.88,2.58,3.49,4.13,5.02c1.8,1.78,3.71,3.45,5.52,5.21
		c1.11,1.08,2.13,2.23,2.77,3.66c1.22,2.72,0.47,5.28-1.72,6.8c-2.4,1.66-5.65,1.33-7.73-0.73c-0.53-0.52-0.94-1.12-1.36-1.78
		c-0.06,0.19-0.1,0.34-0.15,0.49c-0.59,1.82-1.64,3.29-3.41,4.1c-2.34,1.07-5.26,0.71-7.01-1.43c-0.98-1.2-1.23-2.6-1.06-4.09
		c0.21-1.8,0.89-3.43,1.77-4.99c0.98-1.75,2.12-3.41,3.16-5.13c1.25-2.05,2.38-4.15,3.12-6.44c0.25-0.79,0.44-1.59,0.59-2.4
		c0.03-0.16,0.08-0.31,0.24-0.39C314.12,251.51,314.14,251.51,314.15,251.51z"/>
	<g>
		<path class="st3" d="M327.17,298.89c0.05,0.35-0.18,0.69-0.56,0.74l-2.38,0.33c-0.35,0.05-0.69-0.21-0.74-0.56l-1-7.3l-5.76,8.61
			c-0.09,0.15-0.23,0.31-0.48,0.34l-2.7,0.37c-0.51,0.07-0.86-0.46-0.57-0.91l5.97-8.91l-8.81-8.02c-0.32-0.31-0.18-0.94,0.36-1.01
			l2.95-0.4c0.27-0.04,0.45,0.05,0.51,0.12l8.25,7.74l-1.13-8.24c-0.05-0.35,0.21-0.69,0.56-0.74l2.38-0.33
			c0.38-0.05,0.69,0.21,0.74,0.56L327.17,298.89z"/>
	</g>
	<path class="st2" d="M233.35,192.39c-0.55-0.97-0.96-2.01-1.54-2.97c-1.6-2.66-3.66-4.95-5.86-7.13c-2.55-2.53-5.26-4.9-7.84-7.4
		c-1.58-1.53-3.02-3.17-3.93-5.2c-1.74-3.87-0.67-7.5,2.44-9.66c3.41-2.36,8.02-1.88,10.97,1.04c0.75,0.74,1.34,1.59,1.93,2.52
		c0.08-0.27,0.14-0.48,0.21-0.7c0.84-2.58,2.33-4.67,4.85-5.83c3.33-1.52,7.47-1.01,9.95,2.03c1.39,1.7,1.74,3.69,1.5,5.81
		c-0.29,2.55-1.27,4.87-2.51,7.09c-1.4,2.49-3.01,4.85-4.49,7.28c-1.77,2.91-3.38,5.89-4.43,9.15c-0.36,1.12-0.62,2.26-0.84,3.4
		c-0.04,0.23-0.11,0.44-0.33,0.55C233.4,192.38,233.38,192.39,233.35,192.39z"/>
	<path class="st2" d="M315.49,249.21c0.39,0.68,0.68,1.42,1.09,2.09c1.13,1.88,2.58,3.49,4.13,5.02c1.8,1.78,3.71,3.45,5.52,5.21
		c1.11,1.08,2.13,2.23,2.77,3.66c1.22,2.72,0.47,5.28-1.72,6.8c-2.4,1.66-5.65,1.32-7.73-0.73c-0.53-0.52-0.94-1.12-1.36-1.78
		c-0.06,0.19-0.1,0.34-0.15,0.49c-0.59,1.82-1.64,3.29-3.41,4.1c-2.34,1.07-5.26,0.71-7.01-1.43c-0.98-1.2-1.23-2.6-1.05-4.09
		c0.21-1.8,0.89-3.43,1.77-4.99c0.98-1.75,2.12-3.41,3.16-5.13c1.25-2.05,2.38-4.15,3.12-6.44c0.25-0.79,0.44-1.59,0.59-2.4
		c0.03-0.16,0.08-0.31,0.24-0.39C315.45,249.21,315.47,249.21,315.49,249.21z"/>
	<g>
		<path class="st3" d="M328.55,278.69l-5.92,19.34c-0.06,0.17-0.18,0.33-0.42,0.36l-0.27,0.04c-0.27,0.04-0.4-0.08-0.5-0.24
			l-10.81-17.05c-0.21-0.33-0.04-0.71,0.36-0.76l2.35-0.32c0.41-0.06,0.62,0.08,0.86,0.43l1.72,2.74l8.08-1.11l0.93-3.1
			c0.07-0.29,0.28-0.59,0.71-0.65l2.35-0.32C328.4,277.99,328.67,278.31,328.55,278.69z M317.66,286.04l3.52,5.58l0.08-0.01
			l1.84-6.31L317.66,286.04z"/>
	</g>
	<path class="st4" d="M329.41,307.77l-163.1-2.53c-5.67-0.09-10.23-4.8-10.14-10.46l4.14-266.11c0.09-5.67,4.8-10.23,10.46-10.14
		l163.1,2.53c5.67,0.09,10.23,4.8,10.14,10.46l-4.14,266.11C339.78,303.3,335.08,307.86,329.41,307.77z"/>
	<path class="st2" d="M178.33,74.49c-0.28-0.73-0.46-1.5-0.77-2.23c-0.84-2.02-2.03-3.83-3.34-5.58c-1.52-2.03-3.16-3.96-4.69-5.97
		c-0.94-1.23-1.77-2.52-2.2-4.03c-0.81-2.87,0.31-5.3,2.71-6.48c2.62-1.29,5.78-0.47,7.53,1.86c0.44,0.59,0.77,1.25,1.08,1.96
		c0.08-0.18,0.15-0.32,0.22-0.46c0.86-1.71,2.11-3.01,3.98-3.55c2.48-0.71,5.31,0.07,6.72,2.45c0.79,1.33,0.83,2.75,0.44,4.2
		c-0.47,1.75-1.39,3.26-2.49,4.68c-1.23,1.59-2.6,3.06-3.89,4.61c-1.53,1.84-2.97,3.75-4.04,5.91c-0.37,0.74-0.67,1.51-0.94,2.28
		c-0.06,0.16-0.12,0.29-0.29,0.35C178.36,74.49,178.34,74.49,178.33,74.49z"/>
	<g>
		<path class="st3" d="M169.76,43.4l8.71-18.25c0.08-0.16,0.22-0.3,0.47-0.29l0.27,0c0.27,0,0.38,0.14,0.46,0.31l8.17,18.46
			c0.16,0.36-0.06,0.71-0.47,0.7l-2.37-0.03c-0.41-0.01-0.6-0.17-0.78-0.56l-1.3-2.96l-8.16-0.1l-1.37,2.93
			c-0.11,0.27-0.36,0.54-0.8,0.54l-2.37-0.03C169.81,44.11,169.6,43.75,169.76,43.4z M181.62,37.73l-2.65-6.04l-0.08,0l-2.75,5.97
			L181.62,37.73z"/>
	</g>
	<path class="st2" d="M249.73,180.77c-0.4-1.04-0.66-2.13-1.09-3.17c-1.19-2.87-2.89-5.44-4.74-7.92c-2.15-2.88-4.48-5.62-6.66-8.48
		c-1.33-1.75-2.52-3.58-3.12-5.72c-1.15-4.08,0.45-7.52,3.85-9.19c3.72-1.83,8.21-0.67,10.69,2.65c0.63,0.84,1.09,1.77,1.54,2.78
		c0.12-0.25,0.21-0.46,0.31-0.66c1.22-2.43,2.99-4.28,5.65-5.05c3.52-1.01,7.54,0.1,9.54,3.48c1.12,1.89,1.18,3.9,0.62,5.96
		c-0.67,2.48-1.97,4.63-3.53,6.64c-1.75,2.26-3.69,4.35-5.52,6.54c-2.18,2.61-4.21,5.33-5.74,8.39c-0.52,1.05-0.94,2.14-1.33,3.24
		c-0.08,0.22-0.17,0.41-0.41,0.49C249.78,180.77,249.75,180.77,249.73,180.77z"/>
	<path class="st2" d="M322.57,249.1c0.28,0.73,0.46,1.5,0.77,2.23c0.84,2.02,2.03,3.83,3.34,5.58c1.52,2.03,3.16,3.96,4.69,5.97
		c0.94,1.23,1.77,2.52,2.2,4.03c0.81,2.87-0.31,5.3-2.71,6.48c-2.62,1.29-5.78,0.47-7.53-1.86c-0.44-0.59-0.77-1.25-1.08-1.96
		c-0.08,0.18-0.15,0.32-0.22,0.46c-0.86,1.71-2.11,3.01-3.98,3.55c-2.48,0.71-5.31-0.07-6.72-2.45c-0.79-1.33-0.83-2.75-0.44-4.2
		c0.47-1.75,1.39-3.26,2.49-4.68c1.23-1.59,2.6-3.06,3.89-4.61c1.53-1.84,2.97-3.75,4.04-5.91c0.37-0.74,0.67-1.51,0.94-2.28
		c0.06-0.16,0.12-0.29,0.29-0.35C322.53,249.1,322.55,249.1,322.57,249.1z"/>
	<g>
		<path class="st3" d="M331.13,280.19l-8.71,18.25c-0.08,0.16-0.22,0.3-0.47,0.29l-0.27,0c-0.27,0-0.38-0.14-0.46-0.31l-8.17-18.46
			c-0.16-0.36,0.06-0.71,0.47-0.7l2.37,0.03c0.41,0,0.6,0.17,0.78,0.56l1.3,2.96l8.16,0.1l1.37-2.93c0.11-0.27,0.36-0.54,0.8-0.54
			l2.37,0.03C331.08,279.48,331.29,279.83,331.13,280.19z M319.27,285.85l2.65,6.04l0.08,0l2.75-5.97L319.27,285.85z"/>
	</g>
	<path class="st5" d="M88.33,160.43c-0.45,1.61-1.35,2.87-2.72,3.79c-2.15,1.44-4.54,1.06-6.22-0.95c-0.93-1.12-1.45-2.37-1.21-3.85
		c0.24-1.42,1.04-2.5,2.13-3.38c1.03-0.82,2.2-1.33,3.51-1.53c0.05-0.01,0.09-0.02,0.14-0.03c0.01,0,0.03-0.03,0.06-0.05
		c-0.55-0.17-1.06-0.38-1.54-0.67c-1.5-0.89-2.6-2.12-3.3-3.72c-0.94-2.19-0.3-4.41,1.65-5.77c1.17-0.82,2.44-1.39,3.89-1.43
		c1.64-0.03,2.89,0.71,3.74,2.08c1.33,2.16,1.49,4.47,0.72,6.86c-0.02,0.06-0.06,0.1-0.08,0.15c0.02,0.01,0.04,0.03,0.06,0.04
		c0.14-0.14,0.28-0.27,0.43-0.4c0.16-0.14,0.32-0.28,0.49-0.39c1.8-1.23,3.77-1.68,5.86-0.95c2,0.69,2.94,2.24,3.11,4.28
		c0.2,2.37-1.27,4.03-3.24,4.72c-1.43,0.49-2.86,0.53-4.3,0.09c-0.2-0.06-0.38-0.21-0.63-0.18c0.89,1.19,1.82,2.29,2.91,3.25
		c1.11,0.97,2.46,1.51,3.85,2.12c-2.99,1.43-5.92,2.84-8.91,4.27c0.37-1.42,0.65-2.81,0.5-4.24
		C89.09,163.14,88.79,161.77,88.33,160.43z"/>
	<path class="st6" d="M114.09,130.35c0.01-0.06,0.02-0.13,0.04-0.19c0.7-1.84,0.77-3.77,0.71-5.71c-0.01-0.21-0.02-0.42-0.02-0.66
		c-0.73,0.82-1.52,1.49-2.46,1.98c-1.94,1.01-3.94,1.3-5.98,0.31c-1.43-0.7-2.26-1.9-2.6-3.44c-0.41-1.89-0.02-3.68,0.6-5.46
		c0.43-1.21,1.06-2.31,1.64-3.45c1.42-2.81,2.48-5.75,3.29-8.78c0.13-0.51,0.14-0.51,0.54-0.16c2.76,2.47,5.89,4.35,9.25,5.89
		c2.03,0.93,3.74,2.32,4.88,4.3c0.13,0.22,0.18,0.48,0.36,0.66c0.02,0.06,0.04,0.11,0.05,0.17c0.02,0.24,0.1,0.46,0.21,0.66
		c0.02,0.06,0.04,0.11,0.05,0.17c0.13,0.58,0.2,1.17,0.14,1.77c-0.13,1.17-0.61,2.19-1.41,3.04c-1.42,1.51-3.22,2.07-5.24,2.06
		c-0.46,0-0.92-0.05-1.35-0.12c-0.05,0.03-0.06,0.05-0.05,0.07c0.74,1.28,1.55,2.51,2.72,3.45c0.38,0.31,0.81,0.55,1.24,0.8
		c0.13,0.08,0.27,0.15,0.38,0.26c0.06,0.06,0.09,0.13-0.03,0.17c-2.22,0.72-4.43,1.44-6.65,2.16
		C114.3,130.31,114.2,130.38,114.09,130.35z"/>
	<path class="st2" d="M146.48,98.63c-0.7-0.92-1.38-1.8-2.09-2.67c-2.56-3.12-5.33-6.03-8.2-8.86c-0.13-0.13-0.2-0.22-0.09-0.43
		c2.49-4.47,4.84-9.01,6.89-13.7c0.02-0.03,0.04-0.07,0.07-0.12c0.45,0.57,0.9,1.13,1.34,1.69c2.79,3.46,5.78,6.74,8.96,9.84
		c0.11,0.11,0.19,0.17,0.08,0.35c-2.75,4.33-4.95,8.94-6.88,13.69C146.54,98.48,146.52,98.53,146.48,98.63z"/>
</g>
<g>
</g>
<g>
</g>
<g>
</g>
<g>
</g>
<g>
</g>
<g>
</g>
<g>
</g>
<g>
</g>
<g>
</g>
<g>
</g>
<g>
</g>
</svg>
