<?xml version="1.0" encoding="utf-8"?>
<!-- Generator: Adobe Illustrator 24.1.0, SVG Export Plug-In . SVG Version: 6.00 Build 0)  -->
<svg version="1.1" id="Layer_1" xmlns="http://www.w3.org/2000/svg" xmlns:xlink="http://www.w3.org/1999/xlink" x="0px" y="0px"
	 viewBox="0 0 400 400" style="enable-background:new 0 0 400 400;" xml:space="preserve">
<style type="text/css">
	.st0{fill:#FFFFFF;stroke:#000000;stroke-width:1.7984;stroke-miterlimit:10;}
	.st1{fill:#010101;}
	.st2{fill:#ED2224;}
	.st3{fill:#7F7C7C;}
	.st4{fill:#706D6D;}
	.st5{fill:#C12826;}
	.st6{fill:#FFFFFF;}
	.st7{fill:#F8F8F7;}
	.st8{fill:#FBFBFB;}
</style>
<path class="st0" d="M-48.41,144.84l-168.2,29.99c-5.84,1.04-11.48-2.89-12.52-8.73l-48.93-274.43c-1.04-5.84,2.89-11.48,8.73-12.52
	l168.2-29.99c5.84-1.04,11.48,2.89,12.52,8.73l48.93,274.43C-38.64,138.17-42.57,143.8-48.41,144.84z"/>
<path class="st1" d="M-71.07,100.49c0.93-1.39,2.18-2.31,3.76-2.75c2.49-0.69,4.64,0.41,5.61,2.84c0.54,1.35,0.65,2.71-0.05,4.04
	c-0.67,1.28-1.77,2.05-3.08,2.55c-1.23,0.46-2.5,0.57-3.8,0.36c-0.05-0.01-0.09-0.01-0.14-0.01c-0.02,0-0.03,0.01-0.08,0.03
	c0.47,0.33,0.89,0.69,1.26,1.11c1.14,1.31,1.82,2.83,1.97,4.56c0.21,2.37-1.09,4.28-3.37,4.97c-1.37,0.41-2.75,0.56-4.14,0.14
	c-1.57-0.48-2.53-1.58-2.91-3.14c-0.6-2.47-0.03-4.71,1.45-6.74c0.03-0.05,0.08-0.08,0.12-0.12c-0.01-0.02-0.03-0.04-0.04-0.06
	c-0.18,0.08-0.35,0.17-0.54,0.24c-0.19,0.08-0.39,0.16-0.58,0.22c-2.1,0.6-4.1,0.42-5.86-0.92c-1.68-1.28-2.1-3.04-1.62-5.04
	c0.55-2.31,2.46-3.44,4.55-3.48c1.51-0.03,2.88,0.39,4.11,1.25c0.17,0.12,0.29,0.31,0.54,0.36c-0.48-1.41-1.01-2.74-1.76-3.99
	c-0.75-1.27-1.87-2.2-3-3.21c3.29-0.43,6.51-0.86,9.8-1.29c-0.79,1.23-1.49,2.46-1.79,3.88C-70.94,97.69-71.08,99.09-71.07,100.49z"
	/>
<g>
	<path d="M-77.61,89.8c-0.44,0.19-0.79,0.07-0.98-0.34l-1.01-1.83c-0.21-0.37-0.13-0.75,0.46-1.03c1.47-0.69,5.83-3.49,6.37-7.22
		c-0.51,0.4-2.07,1.2-3.61,1.41c-3.27,0.43-6.99-1.54-7.6-6.22c-0.54-4.12,2.38-7.93,6.4-8.46c5.13-0.67,8.32,3.1,8.97,8
		C-67.34,83.66-74.92,88.51-77.61,89.8z M-80.27,74.15c0.27,2.09,2.17,3.61,4.26,3.33c2.16-0.28,3.21-2.12,3.42-3.34
		c-0.29-2.22-1.81-4.65-4.46-4.3C-79.1,70.11-80.54,72.09-80.27,74.15z"/>
</g>
<g>
	<path class="st1" d="M-201.66-54.53c-0.93,1.39-2.18,2.31-3.76,2.75c-2.49,0.69-4.64-0.41-5.61-2.84
		c-0.54-1.35-0.65-2.71,0.05-4.04c0.67-1.28,1.77-2.05,3.08-2.55c1.23-0.46,2.5-0.57,3.8-0.36c0.05,0.01,0.09,0.01,0.14,0.01
		c0.02,0,0.03-0.01,0.08-0.03c-0.47-0.33-0.89-0.69-1.26-1.11c-1.14-1.31-1.82-2.83-1.97-4.56c-0.21-2.37,1.09-4.28,3.37-4.97
		c1.37-0.41,2.75-0.56,4.14-0.14c1.57,0.48,2.53,1.58,2.91,3.14c0.6,2.47,0.03,4.71-1.45,6.74c-0.03,0.05-0.08,0.08-0.12,0.12
		c0.01,0.02,0.03,0.04,0.04,0.06c0.18-0.08,0.35-0.17,0.54-0.24c0.19-0.08,0.39-0.16,0.58-0.22c2.1-0.6,4.1-0.42,5.86,0.92
		c1.68,1.28,2.1,3.04,1.62,5.04c-0.55,2.31-2.46,3.44-4.55,3.48c-1.51,0.03-2.88-0.39-4.11-1.25c-0.17-0.12-0.29-0.31-0.54-0.36
		c0.48,1.41,1.01,2.74,1.76,3.99c0.75,1.27,1.87,2.2,3,3.21c-3.29,0.43-6.51,0.86-9.8,1.29c0.79-1.23,1.49-2.46,1.79-3.88
		C-201.79-51.73-201.66-53.13-201.66-54.53z"/>
	<path class="st1" d="M-148.28-61.55c-0.93,1.39-2.18,2.31-3.76,2.75c-2.49,0.69-4.64-0.41-5.61-2.84
		c-0.54-1.35-0.65-2.71,0.05-4.04c0.67-1.28,1.77-2.05,3.08-2.55c1.23-0.46,2.5-0.57,3.8-0.36c0.05,0.01,0.09,0.01,0.14,0.01
		c0.02,0,0.03-0.01,0.08-0.03c-0.47-0.33-0.89-0.69-1.26-1.11c-1.14-1.31-1.82-2.83-1.97-4.56c-0.21-2.37,1.09-4.28,3.37-4.97
		c1.37-0.41,2.75-0.56,4.14-0.14c1.57,0.48,2.53,1.58,2.91,3.14c0.6,2.47,0.03,4.71-1.45,6.74c-0.03,0.05-0.08,0.08-0.12,0.12
		c0.01,0.02,0.03,0.04,0.04,0.06c0.18-0.08,0.35-0.17,0.54-0.24c0.19-0.08,0.39-0.16,0.58-0.22c2.1-0.6,4.1-0.42,5.86,0.92
		c1.68,1.28,2.1,3.04,1.62,5.04c-0.55,2.31-2.46,3.44-4.55,3.48c-1.51,0.03-2.88-0.39-4.11-1.25c-0.17-0.12-0.29-0.31-0.54-0.36
		c0.48,1.41,1.01,2.74,1.76,3.99c0.75,1.27,1.87,2.2,3,3.21c-3.29,0.43-6.51,0.86-9.8,1.29c0.79-1.23,1.49-2.46,1.79-3.88
		C-148.4-58.75-148.27-60.14-148.28-61.55z"/>
	<path class="st1" d="M-194.74-1.03c-0.93,1.39-2.18,2.31-3.76,2.75c-2.49,0.69-4.64-0.41-5.61-2.84c-0.54-1.35-0.65-2.71,0.05-4.04
		c0.67-1.28,1.77-2.05,3.08-2.55c1.23-0.46,2.5-0.57,3.8-0.36c0.05,0.01,0.09,0.01,0.14,0.01c0.02,0,0.03-0.01,0.08-0.03
		c-0.47-0.33-0.89-0.69-1.26-1.11c-1.14-1.31-1.82-2.83-1.97-4.56c-0.21-2.37,1.09-4.28,3.37-4.97c1.37-0.41,2.75-0.56,4.14-0.14
		c1.57,0.48,2.53,1.58,2.91,3.14c0.6,2.47,0.03,4.71-1.45,6.74c-0.03,0.05-0.08,0.08-0.12,0.12c0.01,0.02,0.03,0.04,0.04,0.06
		c0.18-0.08,0.35-0.17,0.54-0.24c0.19-0.08,0.39-0.16,0.58-0.22c2.1-0.6,4.1-0.42,5.86,0.92c1.68,1.28,2.1,3.04,1.62,5.04
		c-0.55,2.31-2.46,3.44-4.55,3.48c-1.51,0.03-2.88-0.39-4.11-1.25c-0.17-0.12-0.29-0.31-0.54-0.36c0.48,1.41,1.01,2.74,1.76,3.99
		c0.75,1.27,1.87,2.2,3,3.21c-3.29,0.43-6.51,0.86-9.8,1.29c0.79-1.23,1.49-2.46,1.79-3.88C-194.86,1.77-194.73,0.38-194.74-1.03z"
		/>
	<path class="st1" d="M-141.24-8.06c-0.93,1.39-2.18,2.31-3.76,2.75c-2.49,0.69-4.64-0.41-5.61-2.84c-0.54-1.35-0.65-2.71,0.05-4.04
		c0.67-1.28,1.77-2.05,3.08-2.55c1.23-0.46,2.5-0.57,3.8-0.36c0.05,0.01,0.09,0.01,0.14,0.01c0.02,0,0.03-0.01,0.08-0.03
		c-0.47-0.33-0.89-0.69-1.26-1.11c-1.14-1.31-1.82-2.83-1.97-4.56c-0.21-2.37,1.09-4.28,3.37-4.97c1.37-0.41,2.75-0.56,4.14-0.14
		c1.57,0.48,2.53,1.58,2.91,3.14c0.6,2.47,0.03,4.71-1.45,6.74c-0.03,0.05-0.08,0.08-0.12,0.12c0.01,0.02,0.03,0.04,0.04,0.06
		c0.18-0.08,0.35-0.17,0.54-0.24c0.19-0.08,0.39-0.16,0.58-0.22c2.1-0.6,4.1-0.42,5.86,0.92c1.68,1.28,2.1,3.04,1.62,5.04
		c-0.55,2.31-2.46,3.44-4.55,3.48c-1.51,0.03-2.88-0.39-4.11-1.25c-0.17-0.12-0.29-0.31-0.54-0.36c0.48,1.41,1.01,2.74,1.76,3.99
		c0.75,1.27,1.87,2.2,3,3.21c-3.29,0.43-6.51,0.86-9.8,1.29c0.79-1.23,1.49-2.46,1.79-3.88C-141.37-5.26-141.24-6.65-141.24-8.06z"
		/>
	<path class="st1" d="M-186.88,52.36c-0.93,1.39-2.18,2.31-3.76,2.75c-2.49,0.69-4.64-0.41-5.61-2.84
		c-0.54-1.35-0.65-2.71,0.05-4.04c0.67-1.28,1.77-2.05,3.08-2.55c1.23-0.46,2.5-0.57,3.8-0.36c0.05,0.01,0.09,0.01,0.14,0.01
		c0.02,0,0.03-0.01,0.08-0.03c-0.47-0.33-0.89-0.69-1.26-1.11c-1.14-1.31-1.82-2.83-1.97-4.56c-0.21-2.37,1.09-4.28,3.37-4.97
		c1.37-0.41,2.75-0.56,4.14-0.14c1.57,0.48,2.53,1.58,2.91,3.14c0.6,2.47,0.03,4.71-1.45,6.74c-0.03,0.05-0.08,0.08-0.12,0.12
		c0.01,0.02,0.03,0.04,0.04,0.06c0.18-0.08,0.35-0.17,0.54-0.24c0.19-0.08,0.39-0.16,0.58-0.22c2.1-0.6,4.1-0.42,5.86,0.92
		c1.68,1.28,2.1,3.04,1.62,5.04c-0.55,2.31-2.46,3.44-4.55,3.48c-1.51,0.03-2.88-0.39-4.11-1.25c-0.17-0.12-0.29-0.31-0.54-0.36
		c0.48,1.41,1.01,2.74,1.76,3.99c0.75,1.27,1.87,2.2,3,3.21c-3.29,0.43-6.51,0.86-9.8,1.29c0.79-1.23,1.49-2.46,1.79-3.88
		C-187,55.16-186.87,53.76-186.88,52.36z"/>
	<path class="st1" d="M-133.38,45.32c-0.93,1.39-2.18,2.31-3.76,2.75c-2.49,0.69-4.64-0.41-5.61-2.84
		c-0.54-1.35-0.65-2.71,0.05-4.04c0.67-1.28,1.77-2.05,3.08-2.55c1.23-0.46,2.5-0.57,3.8-0.36c0.05,0.01,0.09,0.01,0.14,0.01
		c0.02,0,0.03-0.01,0.08-0.03c-0.47-0.33-0.89-0.69-1.26-1.11c-1.14-1.31-1.82-2.83-1.97-4.56c-0.21-2.37,1.09-4.28,3.37-4.97
		c1.37-0.41,2.75-0.56,4.14-0.14c1.57,0.48,2.53,1.58,2.91,3.14c0.6,2.47,0.03,4.71-1.45,6.74c-0.03,0.05-0.08,0.08-0.12,0.12
		c0.01,0.02,0.03,0.04,0.04,0.06c0.18-0.08,0.35-0.17,0.54-0.24c0.19-0.08,0.39-0.16,0.58-0.22c2.1-0.6,4.1-0.42,5.86,0.92
		c1.68,1.28,2.1,3.04,1.62,5.04c-0.55,2.31-2.46,3.44-4.55,3.48c-1.51,0.03-2.88-0.39-4.11-1.25c-0.17-0.12-0.29-0.31-0.54-0.36
		c0.48,1.41,1.01,2.74,1.76,3.99c0.75,1.27,1.87,2.2,3,3.21c-3.29,0.43-6.51,0.86-9.8,1.29c0.79-1.23,1.49-2.46,1.79-3.88
		C-133.51,48.12-133.38,46.73-133.38,45.32z"/>
</g>
<path class="st2" d="M481.97,395.97c-1.71-4.29-2.83-8.8-4.66-13.05c-5.08-11.82-12.23-22.36-20.01-32.51
	c-9.05-11.81-18.83-23.03-27.99-34.75c-5.6-7.16-10.6-14.68-13.2-23.51c-4.96-16.83,1.46-31.13,15.44-38.23
	c15.29-7.77,33.93-3.21,44.38,10.4c2.64,3.44,4.6,7.26,6.52,11.43c0.48-1.05,0.86-1.9,1.26-2.74c4.91-10.12,12.17-17.86,23.13-21.17
	c14.49-4.38,31.2,0.04,39.66,13.92c4.73,7.76,5.07,16.09,2.88,24.64c-2.63,10.3-7.92,19.26-14.26,27.65
	c-7.12,9.42-15.05,18.18-22.49,27.34c-8.88,10.93-17.16,22.26-23.3,35.02c-2.1,4.37-3.8,8.9-5.35,13.48
	c-0.31,0.92-0.69,1.72-1.68,2.06C482.18,395.97,482.07,395.97,481.97,395.97z"/>
<path class="st1" d="M599.13,395.6c0.19-0.32,0.33-0.67,0.56-0.96c6.92-8.59,10.58-18.7,13.61-29.11c0.33-1.12,0.64-2.24,1-3.54
	c-5.28,3.09-10.67,5.32-16.5,6.28c-12.07,2-23.22,0.13-32.34-8.67c-6.41-6.18-8.76-13.99-7.9-22.8
	c1.05-10.74,6.24-19.62,12.62-27.96c4.34-5.68,9.64-10.45,14.65-15.49c12.38-12.47,23.1-26.27,32.64-41.01
	c1.59-2.46,1.65-2.48,3.14,0.08c10.41,17.91,23.8,33.28,39.01,47.28c9.19,8.46,15.87,18.77,18.54,31.29
	c0.29,1.38,0.13,2.84,0.78,4.15c0,0.32,0,0.65,0,0.97c-0.28,1.29-0.28,2.59,0,3.88c0,0.32,0,0.65,0,0.97
	c-0.31,3.33-0.94,6.55-2.33,9.64c-2.72,6.02-7.02,10.57-12.75,13.71c-10.15,5.56-20.7,5.46-31.43,1.92
	c-2.45-0.81-4.81-1.86-6.95-2.98c-0.31,0.07-0.42,0.15-0.39,0.26c1.75,8.08,3.93,16.01,8.51,23.04c1.5,2.31,3.39,4.32,5.21,6.37
	c0.57,0.65,1.16,1.28,1.56,2.05c0.23,0.44,0.28,0.85-0.44,0.84c-13.03-0.01-26.06,0-39.09-0.01
	C600.28,395.79,599.67,395.99,599.13,395.6z"/>
<path class="st3" d="M640.4,395.6c0.02,0.12,0.04,0.24,0.06,0.36c-13.8,0-27.6,0-41.4,0c0.02-0.12,0.04-0.24,0.07-0.37
	C612.89,395.6,626.64,395.6,640.4,395.6z"/>
<path class="st4" d="M678.96,339.99c-0.54-1.29-0.51-2.59,0-3.88C678.96,337.4,678.96,338.7,678.96,339.99z"/>
<path class="st2" d="M618.89,221.1c-3.18-5.64-6.34-11.02-9.63-16.32c-11.88-19.16-25.13-37.35-38.94-55.15
	c-0.64-0.83-0.95-1.38-0.16-2.44c17.09-22.94,33.47-46.37,48.29-70.86c0.11-0.18,0.25-0.34,0.46-0.63c2.1,3.51,4.13,6.95,6.21,10.37
	c12.9,21.25,27.06,41.63,42.44,61.15c0.52,0.67,0.93,1.11,0.17,2.02c-18.41,22.01-34.03,45.93-48.23,70.81
	C619.35,220.33,619.19,220.61,618.89,221.1z"/>
<path class="st0" d="M-46.65,174.33H-217.5c-5.93,0-10.79-4.86-10.79-10.79v-278.76c0-5.93,4.86-10.79,10.79-10.79h170.85
	c5.93,0,10.79,4.86,10.79,10.79v278.76C-35.86,169.47-40.71,174.33-46.65,174.33z"/>
<path class="st1" d="M-210.37-70.76c-1.1,1.26-2.46,2.01-4.09,2.24c-2.56,0.36-4.55-1.01-5.19-3.55c-0.36-1.41-0.29-2.77,0.58-4
	c0.83-1.18,2.02-1.81,3.39-2.12c1.28-0.3,2.56-0.24,3.82,0.14c0.05,0.01,0.09,0.03,0.14,0.03c0.02,0,0.03-0.01,0.08-0.02
	c-0.42-0.39-0.79-0.8-1.1-1.27c-0.96-1.45-1.44-3.04-1.36-4.78c0.1-2.37,1.64-4.11,3.99-4.49c1.41-0.23,2.8-0.2,4.13,0.4
	c1.5,0.68,2.3,1.89,2.47,3.49c0.27,2.52-0.59,4.67-2.32,6.49c-0.04,0.04-0.09,0.07-0.14,0.1c0.01,0.02,0.02,0.04,0.04,0.06
	c0.19-0.06,0.37-0.12,0.56-0.17c0.2-0.05,0.4-0.11,0.61-0.14c2.16-0.32,4.12,0.12,5.69,1.68c1.5,1.48,1.68,3.29,0.95,5.2
	c-0.84,2.22-2.89,3.09-4.96,2.85c-1.5-0.17-2.8-0.76-3.91-1.78c-0.15-0.14-0.25-0.35-0.49-0.43c0.29,1.46,0.65,2.85,1.22,4.18
	c0.58,1.36,1.57,2.42,2.55,3.57c-3.32,0-6.56,0-9.88,0c0.95-1.12,1.8-2.25,2.28-3.61C-210.86-68-210.54-69.37-210.37-70.76z"/>
<g>
	<path d="M-205.27-118.65c0.46-0.13,0.79,0.03,0.92,0.46l0.76,1.95c0.16,0.4,0.03,0.76-0.59,0.96c-1.55,0.49-6.23,2.7-7.25,6.33
		c0.56-0.33,2.21-0.92,3.76-0.92c3.3,0,6.73,2.44,6.73,7.16c0,4.15-3.4,7.55-7.45,7.55c-5.18,0-7.85-4.15-7.85-9.1
		C-216.25-113.91-208.11-117.73-205.27-118.65z M-204.68-102.79c0-2.11-1.68-3.86-3.79-3.86c-2.18,0-3.46,1.68-3.82,2.87
		c0,2.24,1.19,4.85,3.86,4.85C-206.36-98.94-204.68-100.72-204.68-102.79z"/>
</g>
<g>
	<path class="st1" d="M-160.94-24.67c-1.1,1.26-2.46,2.01-4.09,2.24c-2.56,0.36-4.55-1.01-5.19-3.55c-0.36-1.41-0.29-2.77,0.58-4
		c0.83-1.18,2.02-1.81,3.39-2.12c1.28-0.3,2.56-0.24,3.82,0.14c0.05,0.01,0.09,0.03,0.14,0.03c0.02,0,0.03-0.01,0.08-0.02
		c-0.42-0.39-0.79-0.8-1.1-1.27c-0.96-1.45-1.44-3.04-1.36-4.78c0.1-2.37,1.64-4.11,3.99-4.49c1.41-0.23,2.8-0.2,4.13,0.4
		c1.5,0.68,2.3,1.89,2.47,3.49c0.27,2.52-0.59,4.67-2.32,6.49c-0.04,0.04-0.09,0.07-0.14,0.1c0.01,0.02,0.02,0.04,0.04,0.06
		c0.19-0.06,0.37-0.12,0.56-0.17c0.2-0.05,0.4-0.11,0.61-0.14c2.16-0.32,4.12,0.12,5.69,1.68c1.5,1.48,1.68,3.29,0.95,5.2
		c-0.84,2.22-2.89,3.09-4.96,2.85c-1.5-0.17-2.8-0.76-3.91-1.78c-0.15-0.14-0.25-0.35-0.49-0.43c0.29,1.46,0.65,2.85,1.22,4.18
		c0.58,1.36,1.57,2.42,2.55,3.57c-3.32,0-6.56,0-9.88,0c0.95-1.12,1.8-2.25,2.28-3.61C-161.44-21.91-161.12-23.27-160.94-24.67z"/>
	<path class="st1" d="M-107.1-24.67c-1.1,1.26-2.46,2.01-4.09,2.24c-2.56,0.36-4.55-1.01-5.19-3.55c-0.36-1.41-0.29-2.77,0.58-4
		c0.83-1.18,2.02-1.81,3.39-2.12c1.28-0.3,2.56-0.24,3.82,0.14c0.05,0.01,0.09,0.03,0.14,0.03c0.02,0,0.03-0.01,0.08-0.02
		c-0.42-0.39-0.79-0.8-1.1-1.27c-0.96-1.45-1.44-3.04-1.36-4.78c0.1-2.37,1.64-4.11,3.99-4.49c1.41-0.23,2.8-0.2,4.13,0.4
		c1.5,0.68,2.3,1.89,2.47,3.49c0.27,2.52-0.59,4.67-2.32,6.49c-0.04,0.04-0.09,0.07-0.14,0.1c0.01,0.02,0.02,0.04,0.04,0.06
		c0.19-0.06,0.37-0.12,0.56-0.17c0.2-0.05,0.4-0.11,0.61-0.14c2.16-0.32,4.12,0.12,5.69,1.68c1.5,1.48,1.68,3.29,0.95,5.2
		c-0.84,2.22-2.89,3.09-4.96,2.85c-1.5-0.17-2.8-0.76-3.91-1.78c-0.15-0.14-0.25-0.35-0.49-0.43c0.29,1.46,0.65,2.85,1.22,4.18
		c0.58,1.36,1.57,2.42,2.55,3.57c-3.32,0-6.56,0-9.88,0c0.95-1.12,1.8-2.25,2.28-3.61C-107.59-21.91-107.27-23.27-107.1-24.67z"/>
	<path class="st1" d="M-161.05,29.29c-1.1,1.26-2.46,2.01-4.09,2.24c-2.56,0.36-4.55-1.01-5.19-3.55c-0.36-1.41-0.29-2.77,0.58-4
		c0.83-1.18,2.02-1.81,3.39-2.12c1.28-0.3,2.56-0.24,3.82,0.14c0.05,0.01,0.09,0.03,0.14,0.03c0.02,0,0.03-0.01,0.08-0.02
		c-0.42-0.39-0.79-0.8-1.1-1.27c-0.96-1.45-1.44-3.04-1.36-4.78c0.1-2.37,1.64-4.11,3.99-4.49c1.41-0.23,2.8-0.2,4.13,0.4
		c1.5,0.68,2.3,1.89,2.47,3.49c0.27,2.52-0.59,4.67-2.32,6.49c-0.04,0.04-0.09,0.07-0.14,0.1c0.01,0.02,0.02,0.04,0.04,0.06
		c0.19-0.06,0.37-0.12,0.56-0.17c0.2-0.05,0.4-0.11,0.61-0.14c2.16-0.32,4.12,0.12,5.69,1.68c1.5,1.48,1.68,3.29,0.95,5.2
		c-0.84,2.22-2.89,3.09-4.96,2.85c-1.5-0.17-2.8-0.76-3.91-1.78c-0.15-0.14-0.25-0.35-0.49-0.43c0.29,1.46,0.65,2.85,1.22,4.18
		c0.58,1.36,1.57,2.42,2.55,3.57c-3.32,0-6.56,0-9.88,0c0.95-1.12,1.8-2.25,2.28-3.61C-161.54,32.05-161.23,30.68-161.05,29.29z"/>
	<path class="st1" d="M-107.1,29.29c-1.1,1.26-2.46,2.01-4.09,2.24c-2.56,0.36-4.55-1.01-5.19-3.55c-0.36-1.41-0.29-2.77,0.58-4
		c0.83-1.18,2.02-1.81,3.39-2.12c1.28-0.3,2.56-0.24,3.82,0.14c0.05,0.01,0.09,0.03,0.14,0.03c0.02,0,0.03-0.01,0.08-0.02
		c-0.42-0.39-0.79-0.8-1.1-1.27c-0.96-1.45-1.44-3.04-1.36-4.78c0.1-2.37,1.64-4.11,3.99-4.49c1.41-0.23,2.8-0.2,4.13,0.4
		c1.5,0.68,2.3,1.89,2.47,3.49c0.27,2.52-0.59,4.67-2.32,6.49c-0.04,0.04-0.09,0.07-0.14,0.1c0.01,0.02,0.02,0.04,0.04,0.06
		c0.19-0.06,0.37-0.12,0.56-0.17c0.2-0.05,0.4-0.11,0.61-0.14c2.16-0.32,4.12,0.12,5.69,1.68c1.5,1.48,1.68,3.29,0.95,5.2
		c-0.84,2.22-2.89,3.09-4.96,2.85c-1.5-0.17-2.8-0.76-3.91-1.78c-0.15-0.14-0.25-0.35-0.49-0.43c0.29,1.46,0.65,2.85,1.22,4.18
		c0.58,1.36,1.57,2.42,2.55,3.57c-3.32,0-6.56,0-9.88,0c0.95-1.12,1.8-2.25,2.28-3.61C-107.59,32.05-107.27,30.68-107.1,29.29z"/>
	<path class="st1" d="M-160.21,83.24c-1.1,1.26-2.46,2.01-4.09,2.24c-2.56,0.36-4.55-1.01-5.19-3.55c-0.36-1.41-0.29-2.77,0.58-4
		c0.83-1.18,2.02-1.81,3.39-2.12c1.28-0.3,2.56-0.24,3.82,0.14c0.05,0.01,0.09,0.03,0.14,0.03c0.02,0,0.03-0.01,0.08-0.02
		c-0.42-0.39-0.79-0.8-1.1-1.27c-0.96-1.45-1.44-3.04-1.36-4.78c0.1-2.37,1.64-4.11,3.99-4.49c1.41-0.23,2.8-0.2,4.13,0.4
		c1.5,0.68,2.3,1.89,2.47,3.49c0.27,2.52-0.59,4.67-2.32,6.49c-0.04,0.04-0.09,0.07-0.14,0.1c0.01,0.02,0.02,0.04,0.04,0.06
		c0.19-0.06,0.37-0.12,0.56-0.17c0.2-0.05,0.4-0.11,0.61-0.14c2.16-0.32,4.12,0.12,5.69,1.68c1.5,1.48,1.68,3.29,0.95,5.2
		c-0.84,2.22-2.89,3.09-4.96,2.85c-1.5-0.17-2.8-0.76-3.91-1.78c-0.15-0.14-0.25-0.35-0.49-0.43c0.29,1.46,0.65,2.85,1.22,4.18
		c0.58,1.36,1.57,2.42,2.55,3.57c-3.32,0-6.56,0-9.88,0c0.95-1.12,1.8-2.25,2.28-3.61C-160.71,86-160.39,84.63-160.21,83.24z"/>
	<path class="st1" d="M-106.26,83.24c-1.1,1.26-2.46,2.01-4.09,2.24c-2.56,0.36-4.55-1.01-5.19-3.55c-0.36-1.41-0.29-2.77,0.58-4
		c0.83-1.18,2.02-1.81,3.39-2.12c1.28-0.3,2.56-0.24,3.82,0.14c0.05,0.01,0.09,0.03,0.14,0.03c0.02,0,0.03-0.01,0.08-0.02
		c-0.42-0.39-0.79-0.8-1.1-1.27c-0.96-1.45-1.44-3.04-1.36-4.78c0.1-2.37,1.64-4.11,3.99-4.49c1.41-0.23,2.8-0.2,4.13,0.4
		c1.5,0.68,2.3,1.89,2.47,3.49c0.27,2.52-0.59,4.67-2.32,6.49c-0.04,0.04-0.09,0.07-0.14,0.1c0.01,0.02,0.02,0.04,0.04,0.06
		c0.19-0.06,0.37-0.12,0.56-0.17c0.2-0.05,0.4-0.11,0.61-0.14c2.16-0.32,4.12,0.12,5.69,1.68c1.5,1.48,1.68,3.29,0.95,5.2
		c-0.84,2.22-2.89,3.09-4.96,2.85c-1.5-0.17-2.8-0.76-3.91-1.78c-0.15-0.14-0.25-0.35-0.49-0.43c0.29,1.46,0.65,2.85,1.22,4.18
		c0.58,1.36,1.57,2.42,2.55,3.57c-3.32,0-6.56,0-9.88,0c0.95-1.12,1.8-2.25,2.28-3.61C-106.75,86-106.44,84.63-106.26,83.24z"/>
</g>
<path class="st1" d="M-55.81,115.49c1.1-1.26,2.46-2.01,4.09-2.24c2.56-0.36,4.55,1.01,5.19,3.55c0.36,1.41,0.29,2.77-0.58,4
	c-0.83,1.18-2.02,1.81-3.39,2.12c-1.28,0.3-2.56,0.24-3.82-0.14c-0.05-0.01-0.09-0.03-0.14-0.03c-0.02,0-0.03,0.01-0.08,0.02
	c0.42,0.39,0.79,0.8,1.1,1.27c0.96,1.45,1.44,3.04,1.36,4.78c-0.1,2.37-1.64,4.11-3.99,4.49c-1.41,0.23-2.8,0.2-4.13-0.4
	c-1.5-0.68-2.3-1.89-2.47-3.49c-0.27-2.52,0.59-4.67,2.32-6.49c0.04-0.04,0.09-0.07,0.14-0.1c-0.01-0.02-0.02-0.04-0.04-0.06
	c-0.19,0.06-0.37,0.12-0.56,0.17c-0.2,0.05-0.4,0.11-0.61,0.14c-2.16,0.32-4.12-0.12-5.69-1.68c-1.5-1.48-1.68-3.29-0.95-5.2
	c0.84-2.22,2.89-3.09,4.96-2.85c1.5,0.17,2.8,0.76,3.91,1.78c0.15,0.14,0.25,0.35,0.49,0.43c-0.29-1.46-0.65-2.85-1.22-4.18
	c-0.58-1.36-1.57-2.42-2.55-3.57c3.32,0,6.56,0,9.88,0c-0.95,1.12-1.8,2.25-2.28,3.61C-55.31,112.73-55.63,114.09-55.81,115.49z"/>
<g>
	<path d="M-60.9,163.37c-0.46,0.13-0.79-0.03-0.92-0.46l-0.76-1.95c-0.17-0.4-0.03-0.76,0.59-0.96c1.55-0.49,6.23-2.7,7.25-6.33
		c-0.56,0.33-2.21,0.92-3.76,0.92c-3.3,0-6.73-2.44-6.73-7.16c0-4.16,3.4-7.55,7.45-7.55c5.18,0,7.85,4.16,7.85,9.1
		C-49.92,158.63-58.07,162.45-60.9,163.37z M-61.5,147.51c0,2.11,1.68,3.86,3.79,3.86c2.18,0,3.46-1.68,3.83-2.87
		c0-2.24-1.19-4.85-3.86-4.85C-59.81,143.66-61.5,145.44-61.5,147.51z"/>
</g>
<g>
	<path d="M-256-115.75c0.43-0.21,0.78-0.11,0.99,0.29l1.09,1.78c0.23,0.36,0.17,0.74-0.42,1.05c-1.44,0.76-5.66,3.76-6.03,7.51
		c0.49-0.42,2.01-1.3,3.54-1.57c3.25-0.58,7.05,1.22,7.88,5.86c0.73,4.09-2.02,8.03-6.01,8.74c-5.1,0.91-8.46-2.71-9.32-7.58
		C-265.98-109.15-258.63-114.34-256-115.75z M-252.63-100.24c-0.37-2.08-2.33-3.5-4.41-3.13c-2.14,0.38-3.11,2.26-3.26,3.5
		c0.39,2.21,2.02,4.56,4.65,4.09C-253.61-96.14-252.27-98.19-252.63-100.24z"/>
</g>
<path class="st1" d="M-253.26-61.12c0.02-0.06,0.04-0.13,0.07-0.19c0.94-1.72,1.27-3.6,1.47-5.51c0.02-0.21,0.04-0.41,0.07-0.65
	c-0.83,0.71-1.7,1.26-2.69,1.61c-2.05,0.73-4.05,0.75-5.92-0.51c-1.31-0.88-1.97-2.17-2.09-3.74c-0.15-1.91,0.48-3.62,1.33-5.28
	c0.58-1.13,1.36-2.13,2.08-3.16c1.78-2.57,3.22-5.31,4.43-8.18c0.2-0.48,0.21-0.48,0.55-0.08c2.38,2.81,5.2,5.08,8.29,7.05
	c1.87,1.19,3.36,2.79,4.22,4.89c0.09,0.23,0.11,0.49,0.27,0.7c0.01,0.06,0.02,0.11,0.03,0.17c-0.01,0.23,0.03,0.46,0.12,0.68
	c0.01,0.06,0.02,0.11,0.03,0.17c0.05,0.59,0.04,1.17-0.11,1.76c-0.29,1.14-0.9,2.07-1.8,2.79c-1.6,1.29-3.45,1.6-5.43,1.31
	c-0.45-0.06-0.9-0.17-1.31-0.3c-0.05,0.02-0.07,0.04-0.06,0.06c0.56,1.36,1.19,2.68,2.21,3.76c0.33,0.36,0.73,0.65,1.11,0.95
	c0.12,0.1,0.24,0.19,0.34,0.31c0.05,0.07,0.07,0.14-0.05,0.16c-2.28,0.41-4.56,0.81-6.83,1.22
	C-253.06-61.12-253.16-61.07-253.26-61.12z"/>
<g id="_x35_5VIjV.tif">
	<g>
		<path class="st1" d="M341.48,80.66c0.17,10.59-5.24,19.96-14.12,27.73c-40.03,35-80.01,70.05-120.05,105.04
			c-48.27,42.18-96.53,84.37-144.94,126.39c-3.34,2.9-4.1,5.43-3.43,9.67c1.44,9.18-2.47,16.23-10.69,20.4
			c-8.13,4.12-15.45,1.97-21.75-4.21c-5.91-5.79-11.76-11.65-17.59-17.52c-6.08-6.11-7.45-13.42-4.13-21.15
			c3.27-7.61,10.09-11.26,17.88-10.42c6.93,0.75,10.53-2.18,14.65-6.87c75.94-86.64,152.04-173.14,228.09-259.69
			c12.66-14.41,29.81-19.35,46.06-13.12C328.24,43.36,341.6,62.13,341.48,80.66z"/>
		<path class="st5" d="M281.08,203.72c-0.28-32.23,25.01-57.68,57.47-57.85c32.24-0.17,58.09,25.26,58.28,57.34
			c0.19,31.72-25.9,57.97-57.77,58.13C307.08,261.52,281.35,235.95,281.08,203.72z"/>
		<path class="st6" d="M328.62,79.59c0.53,9.07-3.88,15.66-10.39,21.38c-37.07,32.55-74.1,65.17-111.13,97.77
			c-8.43,7.42-16.92,14.76-25.18,22.37c-3.06,2.82-5.09,3.81-8.43,0.11c-5.93-6.57-12.31-12.76-18.79-18.81
			c-2.88-2.69-2.4-4.27,0-6.98c40.6-45.74,81.01-91.65,121.66-137.34c9.24-10.39,20.55-12.82,31.93-8.02
			C320.38,55.15,328.68,67.21,328.62,79.59z"/>
		<path class="st6" d="M167.83,233.61c-1.51,0.8-3.22,1.34-4.46,2.42c-33.11,28.93-66.25,57.84-99.2,86.96
			c-7.05,6.23-7.87-2.33-11.35-4.27c-3.35-1.86-4.51-4.1-1-8.02c29.1-32.57,57.95-65.37,86.73-98.22c2.87-3.28,4.58-4.54,8.06-0.61
			c5.27,5.96,11.2,11.33,16.83,16.97C164.48,229.88,165.43,231,167.83,233.61z"/>
		<path class="st7" d="M33.47,335.17c1.44-1.71,2.99-3.11,4.01-4.83c3.6-6.06,6.42-4.07,10.46-0.01c3.77,3.78,4.67,6.1-0.21,9.28
			c-3.68,2.4-6.3,5.01-1.31,9.2c2.95,2.48,2.11,5.82-0.61,8.46c-2.82,2.73-5.88,2.68-8.59,0.11c-5.74-5.46-11.28-11.13-16.91-16.7
			c-3.25-3.22-5.07-6.74-1.15-10.56c3.52-3.44,6.89-1.96,9.97,0.99C30.38,332.32,31.67,333.5,33.47,335.17z"/>
		<path class="st6" d="M328.2,247.69c-13.97-1.76-32.2-19.57-34.13-32.85c-0.54-3.68,0.53-5.24,4.29-6
			c24.09-4.84,38.77-19.7,44.39-43.34c1.33-5.61,3.72-6.09,8.26-4.58c15.94,5.32,26.31,15.72,30.78,32.2
			c1.14,4.21-0.1,5.12-3.49,5.86c-24.65,5.43-39.18,21.1-44.97,45.2C332.44,247.92,330.86,248.31,328.2,247.69z"/>
		<path class="st8" d="M382.45,212.27c-3.5,17.28-13.43,28.7-29.83,34.55c-2.07,0.74-4.65,2.28-6.46,0.31
			c-1.41-1.54-0.03-3.78,0.59-5.74C352.07,224.65,366.61,212.57,382.45,212.27z"/>
		<path class="st8" d="M295.91,192.36c2.06-13.51,17.92-29.15,31.38-31.74c4.6-0.88,4.87,0.62,4.15,4.41
			c-2.47,13-17.75,28.48-30.89,30.99C297.46,196.6,294.21,197.25,295.91,192.36z"/>
	</g>
</g>
<g>
</g>
<g>
</g>
<g>
</g>
<g>
</g>
<g>
</g>
<g>
</g>
<g>
</g>
<g>
</g>
<g>
</g>
<g>
</g>
<g>
</g>
</svg>
