<?xml version="1.0" encoding="utf-8"?>
<!-- Generator: Adobe Illustrator 24.1.0, SVG Export Plug-In . SVG Version: 6.00 Build 0)  -->
<svg version="1.1" id="Layer_1" xmlns="http://www.w3.org/2000/svg" xmlns:xlink="http://www.w3.org/1999/xlink" x="0px" y="0px"
	 viewBox="0 0 400 400" style="enable-background:new 0 0 400 400;" xml:space="preserve">
<style type="text/css">
	.st0{fill:#FFFFFF;stroke:#000000;stroke-width:1.7984;stroke-miterlimit:10;}
	.st1{fill:#010101;}
	.st2{fill:#ED2224;}
	.st3{fill:#7F7C7C;}
	.st4{fill:#706D6D;}
	.st5{fill:#C12826;}
	.st6{fill:#FFFFFF;}
	.st7{fill:#F8F8F7;}
	.st8{fill:#FBFBFB;}
</style>
<g id="_x35_5VIjV.tif">
	<g>
		<path class="st1" d="M341.48,80.66c0.17,10.59-5.24,19.96-14.12,27.73c-40.03,35-80.01,70.05-120.05,105.04
			c-48.27,42.18-96.53,84.37-144.94,126.39c-3.34,2.9-4.1,5.43-3.43,9.67c1.44,9.18-2.47,16.23-10.69,20.4
			c-8.13,4.12-15.45,1.97-21.75-4.21c-5.91-5.79-11.76-11.65-17.59-17.52c-6.08-6.11-7.45-13.42-4.13-21.15
			c3.27-7.61,10.09-11.26,17.88-10.42c6.93,0.75,10.53-2.18,14.65-6.87c75.94-86.64,152.04-173.14,228.09-259.69
			c12.66-14.41,29.81-19.35,46.06-13.12C328.24,43.36,341.6,62.13,341.48,80.66z"/>
		<path class="st5" d="M281.08,203.72c-0.28-32.23,25.01-57.68,57.47-57.85c32.24-0.17,58.09,25.26,58.28,57.34
			c0.19,31.72-25.9,57.97-57.77,58.13C307.08,261.52,281.35,235.95,281.08,203.72z"/>
		<path class="st6" d="M328.62,79.59c0.53,9.07-3.88,15.66-10.39,21.38c-37.07,32.55-74.1,65.17-111.13,97.77
			c-8.43,7.42-16.92,14.76-25.18,22.37c-3.06,2.82-5.09,3.81-8.43,0.11c-5.93-6.57-12.31-12.76-18.79-18.81
			c-2.88-2.69-2.4-4.27,0-6.98c40.6-45.74,81.01-91.65,121.66-137.34c9.24-10.39,20.55-12.82,31.93-8.02
			C320.38,55.15,328.68,67.21,328.62,79.59z"/>
		<path class="st6" d="M167.83,233.61c-1.51,0.8-3.22,1.34-4.46,2.42c-33.11,28.93-66.25,57.84-99.2,86.96
			c-7.05,6.23-7.87-2.33-11.35-4.27c-3.35-1.86-4.51-4.1-1-8.02c29.1-32.57,57.95-65.37,86.73-98.22c2.87-3.28,4.58-4.54,8.06-0.61
			c5.27,5.96,11.2,11.33,16.83,16.97C164.48,229.88,165.43,231,167.83,233.61z"/>
		<path class="st7" d="M33.47,335.17c1.44-1.71,2.99-3.11,4.01-4.83c3.6-6.06,6.42-4.07,10.46-0.01c3.77,3.78,4.67,6.1-0.21,9.28
			c-3.68,2.4-6.3,5.01-1.31,9.2c2.95,2.48,2.11,5.82-0.61,8.46c-2.82,2.73-5.88,2.68-8.59,0.11c-5.74-5.46-11.28-11.13-16.91-16.7
			c-3.25-3.22-5.07-6.74-1.15-10.56c3.52-3.44,6.89-1.96,9.97,0.99C30.38,332.32,31.67,333.5,33.47,335.17z"/>
		<path class="st6" d="M328.2,247.69c-13.97-1.76-32.2-19.57-34.13-32.85c-0.54-3.68,0.53-5.24,4.29-6
			c24.09-4.84,38.77-19.7,44.39-43.34c1.33-5.61,3.72-6.09,8.26-4.58c15.94,5.32,26.31,15.72,30.78,32.2
			c1.14,4.21-0.1,5.12-3.49,5.86c-24.65,5.43-39.18,21.1-44.97,45.2C332.44,247.92,330.86,248.31,328.2,247.69z"/>
		<path class="st8" d="M382.45,212.27c-3.5,17.28-13.43,28.7-29.83,34.55c-2.07,0.74-4.65,2.28-6.46,0.31
			c-1.41-1.54-0.03-3.78,0.59-5.74C352.07,224.65,366.61,212.57,382.45,212.27z"/>
		<path class="st8" d="M295.91,192.36c2.06-13.51,17.92-29.15,31.38-31.74c4.6-0.88,4.87,0.62,4.15,4.41
			c-2.47,13-17.75,28.48-30.89,30.99C297.46,196.6,294.21,197.25,295.91,192.36z"/>
	</g>
</g>
</svg>
