<?xml version="1.0" encoding="utf-8"?>
<!-- Generator: Adobe Illustrator 24.1.0, SVG Export Plug-In . SVG Version: 6.00 Build 0)  -->
<svg version="1.1" id="Layer_1" xmlns="http://www.w3.org/2000/svg" xmlns:xlink="http://www.w3.org/1999/xlink" x="0px" y="0px"
	 viewBox="0 0 400 400" style="enable-background:new 0 0 400 400;" xml:space="preserve">
<style type="text/css">
	.st0{fill:#FFFFFF;}
	.st1{fill:#F16062;}
	.st2{fill:#5F68B0;}
</style>
<g>
	<g>
		<circle class="st0" cx="99.9" cy="200" r="35.9"/>
		<path d="M99.9,164.4c19.7,0,35.7,16,35.7,35.6s-16,35.6-35.7,35.6s-35.6-16-35.6-35.6S80.2,164.4,99.9,164.4 M99.9,163.9
			c-19.9,0-36.1,16.2-36.1,36.1s16.2,36.1,36.1,36.1S136,219.9,136,200S119.8,163.9,99.9,163.9L99.9,163.9z"/>
	</g>
	<g>
		<ellipse class="st0" cx="187.6" cy="200" rx="35.9" ry="35.9"/>
		<path d="M187.6,164.4c19.7,0,35.7,16,35.7,35.6s-16,35.6-35.6,35.6S152,219.7,152,200S167.9,164.4,187.6,164.4 M187.6,163.9
			c-19.9,0-36.1,16.2-36.1,36.1s16.2,36.1,36.1,36.1s36.1-16.2,36.1-36.1S207.5,163.9,187.6,163.9L187.6,163.9z"/>
	</g>
	<g>
		<path class="st0" d="M275.3,235.9c-19.8,0-35.9-16.1-35.9-35.9s16.1-35.9,35.9-35.9s35.9,16.1,35.9,35.9S295.1,235.9,275.3,235.9z
			"/>
		<path d="M275.3,164.4c19.7,0,35.7,16,35.7,35.6s-16,35.6-35.6,35.6s-35.6-16-35.6-35.6S255.7,164.4,275.3,164.4 M275.3,163.9
			c-19.9,0-36.1,16.2-36.1,36.1s16.2,36.1,36.1,36.1s36.1-16.2,36.1-36.1S295.3,163.9,275.3,163.9L275.3,163.9z"/>
	</g>
	<g>
		<circle class="st1" cx="99.9" cy="104.5" r="35.9"/>
		<path d="M99.9,68.8c19.7,0,35.7,16,35.7,35.7s-16,35.7-35.7,35.7s-35.7-16-35.7-35.7S80.2,68.8,99.9,68.8 M99.9,68.4
			c-19.9,0-36.1,16.2-36.1,36.1s16.2,36.1,36.1,36.1s36.1-16.2,36.1-36.1S119.8,68.4,99.9,68.4L99.9,68.4z"/>
	</g>
	<g>
		
			<ellipse transform="matrix(0.9239 -0.3827 0.3827 0.9239 -25.7054 79.753)" class="st1" cx="187.6" cy="104.5" rx="35.9" ry="35.9"/>
		<path d="M187.6,68.8c19.7,0,35.7,16,35.7,35.7s-16,35.7-35.6,35.7s-35.6-16-35.6-35.7S167.9,68.8,187.6,68.8 M187.6,68.4
			c-19.9,0-36.1,16.2-36.1,36.1s16.2,36.1,36.1,36.1s36.1-16.2,36.1-36.1S207.5,68.4,187.6,68.4L187.6,68.4z"/>
	</g>
	<g>
		<path class="st1" d="M275.3,140.4c-19.8,0-35.9-16.1-35.9-35.9s16.1-35.9,35.9-35.9s35.9,16.1,35.9,35.9S295.1,140.4,275.3,140.4z
			"/>
		<path d="M275.3,68.8c19.7,0,35.7,16,35.7,35.7s-16,35.7-35.6,35.7s-35.6-16-35.6-35.7S255.7,68.8,275.3,68.8 M275.3,68.4
			c-19.9,0-36.1,16.2-36.1,36.1s16.2,36.1,36.1,36.1s36.1-16.2,36.1-36.1S295.3,68.4,275.3,68.4L275.3,68.4z"/>
	</g>
	<g>
		<path class="st2" d="M99.9,331.4c-19.8,0-35.9-16.1-35.9-35.9s16.1-35.9,35.9-35.9s35.9,16.1,35.9,35.9
			C135.8,315.3,119.7,331.4,99.9,331.4z"/>
		<path d="M99.9,259.9c19.7,0,35.7,16,35.7,35.6s-16,35.6-35.7,35.6s-35.7-16-35.7-35.6S80.2,259.9,99.9,259.9 M99.9,259.4
			c-19.9,0-36.1,16.2-36.1,36.1s16.2,36.1,36.1,36.1s36.1-16.2,36.1-36.1C136,275.6,119.8,259.4,99.9,259.4L99.9,259.4z"/>
	</g>
	<g>
		<path class="st0" d="M187.6,331.4c-19.8,0-35.9-16.1-35.9-35.9s16.1-35.9,35.9-35.9s35.9,16.1,35.9,35.9S207.4,331.4,187.6,331.4z
			"/>
		<path d="M187.6,259.9c19.7,0,35.7,16,35.7,35.6s-16,35.6-35.6,35.6s-35.6-16-35.6-35.6S167.9,259.9,187.6,259.9 M187.6,259.4
			c-19.9,0-36.1,16.2-36.1,36.1s16.2,36.1,36.1,36.1s36.1-16.2,36.1-36.1C223.7,275.6,207.5,259.4,187.6,259.4L187.6,259.4z"/>
	</g>
	<g>
		<path class="st0" d="M275.3,331.4c-19.8,0-35.9-16.1-35.9-35.9s16.1-35.9,35.9-35.9s35.9,16.1,35.9,35.9S295.1,331.4,275.3,331.4z
			"/>
		<path d="M275.3,259.9c19.7,0,35.6,16,35.6,35.6s-16,35.6-35.6,35.6s-35.6-16-35.6-35.6S255.7,259.9,275.3,259.9 M275.3,259.4
			c-19.9,0-36.1,16.2-36.1,36.1s16.2,36.1,36.1,36.1s36.1-16.2,36.1-36.1C311.4,275.6,295.3,259.4,275.3,259.4L275.3,259.4z"/>
	</g>
	<g>
		<circle class="st0" cx="363.1" cy="200" r="35.9"/>
		<path d="M363.1,164.4c19.7,0,35.6,16,35.6,35.6s-16,35.6-35.6,35.6s-35.6-16-35.6-35.6S343.4,164.4,363.1,164.4 M363.1,163.9
			c-19.9,0-36.1,16.2-36.1,36.1s16.2,36.1,36.1,36.1s36.1-16.2,36.1-36.1S383,163.9,363.1,163.9L363.1,163.9z"/>
	</g>
	<g>
		<path d="M2,221.3v-42.6h13.1c7.7,0,12.4,3.9,12.4,10.5c0,4.8-3,8.6-7.2,9.4v0.4c5.8,0.6,9.4,4.8,9.4,10.6
			c0,7.4-5.4,11.8-14.5,11.8H2z M6,197.5h7.3c6.6,0,10-2.7,10-7.6c0-4.8-3.3-7.6-9.1-7.6H6C6,182.3,6,197.5,6,197.5z M14.6,217.7
			c7.1,0,11-2.9,11-8.4s-3.8-8.3-11.2-8.3H6v16.8H14.6z"/>
	</g>
	<g>
		<path d="M5.8,112.9c0.6,5.1,4.6,8.3,10.6,8.3c6.1,0,10.1-3.3,10.1-8.4c0-4.1-2.7-6.6-8.8-8.2l-3.3-0.9c-8-2.1-11.5-5.7-11.5-11.8
			c0-6.9,5.4-11.5,13.6-11.5c7.7,0,13.1,4.5,13.5,11.3h-4c-0.6-4.8-4.1-7.6-9.4-7.6c-5.9,0-9.4,2.9-9.4,7.8c0,4,2.5,6.3,8.4,7.9
			l3.5,0.9c8.3,2.2,11.7,5.7,11.7,12.1c0,7.3-5.6,12.1-14.2,12.1c-8.5,0-14.1-4.6-14.6-12H5.8z"/>
	</g>
	<g>
		<path d="M16.2,317.9c-9.5,0-15.3-6.9-15.3-18.7v-7.1c0-11.8,5.8-18.7,15.3-18.7s15.3,6.9,15.3,18.7v7.1
			C31.5,311,25.6,317.9,16.2,317.9z M27.5,299.2v-7.1c0-9.5-4.3-14.9-11.3-14.9s-11.3,5.5-11.3,14.9v7.1c0,9.5,4.3,14.9,11.3,14.9
			S27.5,308.7,27.5,299.2z"/>
	</g>
</g>
</svg>
