<?xml version="1.0" encoding="utf-8"?>
<!-- Generator: Adobe Illustrator 24.1.0, SVG Export Plug-In . SVG Version: 6.00 Build 0)  -->
<svg version="1.1" id="Layer_1" xmlns="http://www.w3.org/2000/svg" xmlns:xlink="http://www.w3.org/1999/xlink" x="0px" y="0px"
	 viewBox="0 0 400 400" style="enable-background:new 0 0 400 400;" xml:space="preserve">
<style type="text/css">
	.st0{fill:#FFFFFF;}
	.st1{fill:#F7941E;}
	.st2{fill:#FCBA73;}
	.st3{fill:#FDC68B;}
	.st4{fill:#FECC97;}
	.st5{fill:#FECD98;}
	.st6{fill:#FDC890;}
	.st7{fill:#DC7D27;}
</style>
<g>
	<g>
		<rect x="50" y="57" class="st0" width="300" height="200"/>
		<g>
			<path d="M350,255.5c-2.69,0-5.39,0-8.08,0c-7.26,0-14.53,0-21.79,0c-10.77,0-21.54,0-32.3,0c-13.14,0-26.27,0-39.41,0
				c-14.34,0-28.68,0-43.02,0c-14.57,0-29.14,0-43.72,0c-13.49,0-26.99,0-40.48,0c-11.44,0-22.89,0-34.33,0c-8.23,0-16.46,0-24.69,0
				c-3.85,0-7.82-0.27-11.67,0c-0.17,0.01-0.34,0-0.51,0c0.5,0.5,1,1,1.5,1.5c0-6.68,0-13.36,0-20.04c0-15.93,0-31.85,0-47.78
				c0-19.24,0-38.49,0-57.73c0-16.63,0-33.25,0-49.88c0-5.5,0-11,0-16.5c0-2.51,0.29-5.23,0-7.74c-0.01-0.11,0-0.23,0-0.34
				c-0.5,0.5-1,1-1.5,1.5c2.69,0,5.39,0,8.08,0c7.26,0,14.53,0,21.79,0c10.77,0,21.54,0,32.3,0c13.14,0,26.27,0,39.41,0
				c14.34,0,28.68,0,43.02,0c14.57,0,29.14,0,43.72,0c13.49,0,26.99,0,40.48,0c11.44,0,22.89,0,34.33,0c8.23,0,16.46,0,24.69,0
				c3.85,0,7.82,0.27,11.67,0c0.17-0.01,0.34,0,0.51,0c-0.5-0.5-1-1-1.5-1.5c0,6.68,0,13.36,0,20.04c0,15.93,0,31.85,0,47.78
				c0,19.24,0,38.49,0,57.73c0,16.63,0,33.25,0,49.88c0,8.06-0.25,16.17,0,24.24c0,0.11,0,0.23,0,0.34c0,1.93,3,1.93,3,0
				c0-6.68,0-13.36,0-20.04c0-15.93,0-31.85,0-47.78c0-19.24,0-38.49,0-57.73c0-16.63,0-33.25,0-49.88c0-8.06,0.25-16.17,0-24.24
				c0-0.11,0-0.23,0-0.34c0-0.81-0.69-1.5-1.5-1.5c-2.69,0-5.39,0-8.08,0c-7.26,0-14.53,0-21.79,0c-10.77,0-21.54,0-32.3,0
				c-13.14,0-26.27,0-39.41,0c-14.34,0-28.68,0-43.02,0c-14.57,0-29.14,0-43.72,0c-13.49,0-26.99,0-40.48,0
				c-11.44,0-22.89,0-34.33,0c-8.23,0-16.46,0-24.69,0c-3.89,0-7.78-0.07-11.67,0c-0.17,0-0.34,0-0.51,0c-0.81,0-1.5,0.69-1.5,1.5
				c0,6.68,0,13.36,0,20.04c0,15.93,0,31.85,0,47.78c0,19.24,0,38.49,0,57.73c0,16.63,0,33.25,0,49.88c0,8.06-0.25,16.17,0,24.24
				c0,0.11,0,0.23,0,0.34c0,0.81,0.69,1.5,1.5,1.5c2.69,0,5.39,0,8.08,0c7.26,0,14.53,0,21.79,0c10.77,0,21.54,0,32.3,0
				c13.14,0,26.27,0,39.41,0c14.34,0,28.68,0,43.02,0c14.57,0,29.14,0,43.72,0c13.49,0,26.99,0,40.48,0c11.44,0,22.89,0,34.33,0
				c8.23,0,16.46,0,24.69,0c3.89,0,7.78,0.07,11.67,0c0.17,0,0.34,0,0.51,0C351.93,258.5,351.93,255.5,350,255.5z"/>
		</g>
	</g>
	<g>
		<rect x="148.5" y="145.5" class="st0" width="104" height="104"/>
		<g>
			<path d="M252.5,248c-3.46,0-6.91,0-10.37,0c-8.26,0-16.52,0-24.78,0c-10.03,0-20.06,0-30.09,0c-8.64,0-17.28,0-25.92,0
				c-2.86,0-5.72,0-8.59,0c-1.31,0-2.78-0.19-4.08,0c-0.06,0.01-0.12,0-0.18,0c0.5,0.5,1,1,1.5,1.5c0-3.46,0-6.91,0-10.37
				c0-8.26,0-16.52,0-24.78c0-10.03,0-20.06,0-30.09c0-8.64,0-17.28,0-25.92c0-2.86,0-5.72,0-8.59c0-1.31,0.19-2.78,0-4.08
				c-0.01-0.06,0-0.12,0-0.18c-0.5,0.5-1,1-1.5,1.5c3.46,0,6.91,0,10.37,0c8.26,0,16.52,0,24.78,0c10.03,0,20.06,0,30.09,0
				c8.64,0,17.28,0,25.92,0c2.86,0,5.72,0,8.59,0c1.31,0,2.78,0.19,4.08,0c0.06-0.01,0.12,0,0.18,0c-0.5-0.5-1-1-1.5-1.5
				c0,3.46,0,6.91,0,10.37c0,8.26,0,16.52,0,24.78c0,10.03,0,20.06,0,30.09c0,8.64,0,17.28,0,25.92c0,4.21-0.18,8.46,0,12.66
				c0,0.06,0,0.12,0,0.18c0,1.93,3,1.93,3,0c0-3.46,0-6.91,0-10.37c0-8.26,0-16.52,0-24.78c0-10.03,0-20.06,0-30.09
				c0-8.64,0-17.28,0-25.92c0-4.21,0.18-8.46,0-12.66c0-0.06,0-0.12,0-0.18c0-0.81-0.69-1.5-1.5-1.5c-3.46,0-6.91,0-10.37,0
				c-8.26,0-16.52,0-24.78,0c-10.03,0-20.06,0-30.09,0c-8.64,0-17.28,0-25.92,0c-4.21,0-8.46-0.18-12.66,0c-0.06,0-0.12,0-0.18,0
				c-0.81,0-1.5,0.69-1.5,1.5c0,3.46,0,6.91,0,10.37c0,8.26,0,16.52,0,24.78c0,10.03,0,20.06,0,30.09c0,8.64,0,17.28,0,25.92
				c0,4.21-0.18,8.46,0,12.66c0,0.06,0,0.12,0,0.18c0,0.81,0.69,1.5,1.5,1.5c3.46,0,6.91,0,10.37,0c8.26,0,16.52,0,24.78,0
				c10.03,0,20.06,0,30.09,0c8.64,0,17.28,0,25.92,0c4.21,0,8.46,0.18,12.66,0c0.06,0,0.12,0,0.18,0
				C254.43,251,254.43,248,252.5,248z"/>
		</g>
	</g>
	<g id="amzjTc.tif">
		<g>
			<path class="st1" d="M242.26,200.5c-10.96-4.03-21.91-8.05-32.87-12.08c-1.09-0.4-1.26-0.76-0.86-1.84
				c0.81-2.22,1.63-4.43,2.44-6.64c0.28-0.77,0.68-0.99,1.44-0.81c5.28,1.24,10.22,0.41,14.86-2.37c3.78-2.27,7.56-4.52,11.33-6.8
				c0.34-0.21,0.51-0.26,0.74,0.16c4.28,7.77,5.73,16.03,4.3,24.79c-0.21,1.28-0.5,2.54-0.85,3.78c-0.03,0.1-0.08,0.2,0.03,0.28
				c-0.04,0.12-0.09,0.24-0.13,0.35c-0.13,0.09-0.17,0.2-0.13,0.35C242.47,199.95,242.36,200.23,242.26,200.5z"/>
			<path class="st1" d="M240.88,204.27c-0.53,0.54-0.73,1.28-1.08,1.92c-4.53,8.4-11.28,14.24-20.17,17.66
				c-0.46,0.18-0.57,0.07-0.71-0.36c-1.5-4.47-2.95-8.96-4.57-13.4c-1.71-4.68-4.87-8.15-9.3-10.45c-0.86-0.44-1.02-0.81-0.69-1.71
				c0.81-2.22,1.63-4.43,2.44-6.65c0.35-0.95,0.74-1.14,1.67-0.8c10.8,3.97,21.6,7.94,32.4,11.91c0.21,0.08,0.43,0.14,0.57,0.34
				c-0.09,0.24-0.17,0.47-0.26,0.71c-0.13,0.09-0.17,0.2-0.13,0.35C241,203.95,240.94,204.11,240.88,204.27z"/>
			<path class="st1" d="M218.5,152.92c-2.62,7.13-5.24,14.26-7.86,21.39c-0.4,1.09-0.91,1.27-1.9,0.71
				c-3.92-2.22-6.52-5.49-7.94-9.75c-1.36-4.08-2.74-8.15-4.14-12.21c-0.18-0.52-0.13-0.72,0.45-0.87
				c6.35-1.62,12.7-1.61,19.05,0.02c0.15,0.04,0.3,0.18,0.46,0.02c0.16,0.06,0.31,0.12,0.47,0.17c0.04,0.11,0.15,0.12,0.24,0.16
				c0.12,0.03,0.22,0.12,0.35,0.06C217.95,152.72,218.22,152.82,218.5,152.92z"/>
			<path class="st1" d="M222.38,154.34c0.57,0.52,1.32,0.74,1.98,1.1c5.29,2.85,9.64,6.75,13.08,11.67c0.14,0.19,0.43,0.37,0,0.63
				c-4.22,2.5-8.38,5.1-12.66,7.5c-3.51,1.97-7.34,2.35-11.29,1.57c-0.83-0.16-1.12-0.71-0.81-1.54c2.64-7.19,5.28-14.38,7.93-21.58
				c0.35,0.13,0.71,0.26,1.06,0.39c0.09,0.13,0.2,0.17,0.35,0.13C222.14,154.26,222.26,154.3,222.38,154.34z"/>
			<path class="st2" d="M217.67,152.61c-0.14,0.11-0.27,0.03-0.4-0.03c-0.03-0.04-0.03-0.06-0.01-0.08
				c0.02-0.02,0.04-0.02,0.05-0.02C217.44,152.53,217.56,152.57,217.67,152.61z"/>
			<path class="st3" d="M222.03,154.21c-0.18,0.13-0.29,0.06-0.35-0.13C221.79,154.13,221.91,154.17,222.03,154.21z"/>
			<path class="st4" d="M242.57,199.68c-0.1-0.17-0.09-0.3,0.13-0.35C242.65,199.44,242.61,199.56,242.57,199.68z"/>
			<path class="st5" d="M241.05,203.79c-0.13-0.18-0.06-0.29,0.13-0.35C241.14,203.56,241.1,203.68,241.05,203.79z"/>
			<path class="st6" d="M217.32,152.49c-0.01,0.03-0.03,0.07-0.04,0.1c-0.1-0.03-0.2-0.05-0.19-0.19
				C217.16,152.43,217.24,152.46,217.32,152.49z"/>
			<path class="st1" d="M188.49,180.74c-5.37-1.97-10.73-3.96-16.12-5.9c-0.66-0.24-0.63-0.48-0.4-1.01
				c3.52-8.01,9.08-14.15,16.77-18.35c1.54-0.84,3.15-1.54,4.79-2.18c0.4-0.15,0.54-0.11,0.69,0.32c1.5,4.47,2.95,8.96,4.57,13.39
				c1.72,4.73,4.91,8.23,9.38,10.54c0.8,0.42,0.97,0.81,0.66,1.67c-0.81,2.22-1.63,4.43-2.44,6.64c-0.36,0.96-0.77,1.16-1.72,0.8
				C199.27,184.7,193.88,182.72,188.49,180.74z"/>
			<path class="st1" d="M187.74,182.87c5.35,1.97,10.7,3.93,16.05,5.9c1.09,0.4,1.25,0.76,0.86,1.84c-0.81,2.19-1.61,4.39-2.42,6.58
				c-0.3,0.81-0.69,1.02-1.55,0.82c-5.35-1.25-10.34-0.34-15.02,2.49c-3.68,2.23-7.38,4.42-11.05,6.65
				c-0.45,0.27-0.62,0.23-0.87-0.23c-3.89-7.11-5.42-14.69-4.52-22.76c0.26-2.29,0.76-4.52,1.43-6.72c0.29-0.96,0.18-0.79,0.98-0.5
				C177.01,178.92,182.38,180.9,187.74,182.87z"/>
			<path class="st1" d="M196.63,212.43c-1.29,3.51-2.58,7.01-3.86,10.52c-0.14,0.38-0.25,0.53-0.69,0.34
				c-6.7-2.87-12.17-7.25-16.36-13.22c-0.25-0.36-0.25-0.52,0.14-0.75c4.02-2.38,8-4.84,12.04-7.17c3.63-2.09,7.56-2.62,11.67-1.82
				c0.95,0.19,1.24,0.72,0.9,1.64C199.19,205.46,197.91,208.94,196.63,212.43z"/>
			<path class="st1" d="M198.75,213.2c1.27-3.47,2.55-6.94,3.82-10.4c0.38-1.04,0.91-1.21,1.88-0.66c3.86,2.22,6.47,5.44,7.88,9.66
				c1.37,4.1,2.75,8.19,4.17,12.27c0.22,0.63,0.06,0.78-0.53,0.93c-6.7,1.68-13.37,1.61-20.01-0.36c-1.28-0.38-1.28-0.38-0.83-1.62
				C196.34,219.74,197.54,216.47,198.75,213.2z"/>
		</g>
	</g>
	<g>
		<path class="st0" d="M165,241c48,0,70,0,70,0"/>
		<g>
			<path class="st7" d="M165,245.5c14.86,0,29.72,0,44.59,0c7.39,0,14.77,0,22.16,0c1.08,0,2.17,0,3.25,0c2.35,0,4.61-2.07,4.5-4.5
				c-0.11-2.44-1.98-4.5-4.5-4.5c-3.44,0-6.87,0-10.31,0c-10.56,0-21.13,0-31.69,0c-9.33,0-18.67,0-28,0c-2.35,0-4.61,2.07-4.5,4.5
				C160.61,243.44,162.48,245.5,165,245.5L165,245.5z"/>
		</g>
	</g>
</g>
<g>
</g>
<g>
</g>
<g>
</g>
<g>
</g>
<g>
</g>
<g>
</g>
<g>
</g>
<g>
</g>
<g>
</g>
<g>
</g>
<g>
</g>
</svg>
