<?xml version="1.0" encoding="utf-8"?>
<!-- Generator: Adobe Illustrator 24.1.0, SVG Export Plug-In . SVG Version: 6.00 Build 0)  -->
<svg version="1.1" id="Layer_1" xmlns="http://www.w3.org/2000/svg" xmlns:xlink="http://www.w3.org/1999/xlink" x="0px" y="0px"
	 viewBox="0 0 400 400" style="enable-background:new 0 0 400 400;" xml:space="preserve">
<style type="text/css">
	.st0{fill:#FFFFFF;stroke:#000000;stroke-width:1.7984;stroke-miterlimit:10;}
	.st1{fill:#010101;}
	.st2{fill:#ED2224;}
	.st3{fill:#7F7C7C;}
	.st4{fill:#706D6D;}
</style>
<path d="M52.21,68.58c-5.86-16.63-2.33-29.05,9.89-33.35s22.76,3.17,28.61,19.8c5.86,16.63,2.33,29.05-9.89,33.35
	C68.6,92.68,58.07,85.2,52.21,68.58z M80.7,58.54c-3.96-11.24-9.57-16.43-15.45-14.36c-5.88,2.07-7,9.63-3.04,20.87
	c3.99,11.31,9.57,16.43,15.45,14.36C83.55,77.34,84.69,69.86,80.7,58.54z"/>
<path d="M252.62,68.64l-6.64,3.01c-0.68,0.31-1.57,0.02-1.8-0.66l-1.31-3.71c-0.22-0.6-0.16-1.11,0.09-1.49l9.33-11.92l5.54-1.22
	c0.79-0.17,1.58,0.39,1.75,1.16l10.93,49.93c0.17,0.78-0.31,1.62-1.1,1.79l-6.8,1.5c-0.87,0.19-1.66-0.37-1.83-1.15L252.62,68.64z"
	/>
<path d="M122.08,233.87c0.16-8.33-0.09-24.92-0.32-33.85c0.05-3.94-0.64-7.38-2.34-9.49c-2.25-2.8-6.7-3.94-11.25-0.28
	c-3.03,2.43-3.92,6.63-4.12,9.35c-0.1,0.9-0.8,1.46-1.7,1.37l-5.43-0.55c-0.68-0.07-1.41-0.71-1.37-1.57c0,0,0.02-10.05,7.53-16.09
	c9.03-7.25,18.64-5.65,24.04,1.07c3.25,4.04,3.54,8.01,3.88,13.48c0.34,5.98,0.25,15.68,0.26,22.54l13.64-10.96
	c0.63-0.51,1.65-0.4,2.15,0.22l3.45,4.29c0.5,0.62,0.38,1.64-0.25,2.15l-24.88,19.99c-0.69,0.56-1.65,0.4-2.15-0.22L122.08,233.87z"
	/>
<path d="M144.47,142.17l4.89-2.95c0.85-0.47,1.56-0.31,2.06,0.46c0.17,0.37,3.96,5.33,8.79,6.4c4.27,0.95,9.06-1.2,10.02-5.52
	c0.91-4.08-2.07-8.62-9.19-10.2l-4.43-0.98c-0.87-0.19-1.36-0.96-1.15-1.9l1.1-4.95c0.23-1.02,0.9-1.45,1.85-1.24l4.43,0.98
	c6.48,1.44,10.52-1.05,11.41-5.05c0.96-4.32-2.04-8.03-6.07-8.93c-4.11-0.91-7.13,0.73-8.82,2c-0.69,0.51-1.58,0.39-2.15-0.4
	l-3.07-4.47c-0.51-0.69-0.22-1.62,0.45-2.04c0,0,7.54-5.58,16.4-3.61c9.17,2.03,15.61,9.31,13.66,18.11
	c-1.34,6.05-6.94,9.58-10.86,10.44l-0.05,0.24c3.37,2.39,8.28,7.93,6.73,14.92c-1.97,8.87-10.67,13.7-21.58,11.28
	c-9.88-2.19-13.61-8.21-14.9-10.64C143.61,143.46,143.88,142.62,144.47,142.17z"/>
<path d="M210.17,192.91l2.47-6.16l40.11-21.63c0.31-0.13,0.78-0.2,1.31,0.01l4.06,1.63c0.75,0.3,1.19,1.17,0.86,1.98l-12.69,31.6
	l6.01,2.41c0.83,0.33,1.19,1.17,0.89,1.91l-1.85,4.6c-0.3,0.74-1.17,1.17-1.99,0.84l-6.01-2.41l-3.74,9.52
	c-0.3,0.74-1.24,1.14-1.99,0.84l-6.24-2.5c-0.75-0.3-1.16-1.24-0.86-1.98l3.75-9.35l-23.23-9.32
	C210.21,194.56,209.88,193.65,210.17,192.91z M237.66,196.61l7.15-17.8l-22.18,11.77L237.66,196.61z"/>
<path d="M44.38,370.78l1.89-5.32c0.3-0.68,0.88-1.15,1.71-0.93c0.43,0.14,6.49,1.8,11.36-0.6c4.94-2.44,6.47-8.12,4.23-12.65
	c-2.2-4.46-7.03-6.55-12.76-3.71l-11.18,5.52c-1.45,0.72-2.93-0.25-3.49-1.41l-10.47-21.21c-0.36-0.72-0.09-1.65,0.7-2.05
	l22.95-11.34c0.8-0.39,1.7-0.03,2.05,0.69l2.41,4.89c0.35,0.72,0.09,1.65-0.7,2.05l-16.12,7.96l4.72,9.56l6.25-3.09
	c10.31-5.09,19.86-1.67,24.51,7.75c4.44,8.99,0.58,20.2-9.44,25.15c-7.77,3.84-14.37,2.36-17.25,1.1
	C44.26,372.54,43.94,372.07,44.38,370.78z"/>
<path d="M142.28,302.06c1.01-0.6,1.9-0.43,2.48,0.48l3.03,4.05c0.64,0.82,0.56,1.75-0.8,2.61c-3.36,2.15-13.06,10.32-13.19,19.43
	c1.12-1.13,4.65-3.57,8.33-4.57c7.82-2.12,17.49,1.36,20.48,12.36c2.63,9.69-3.27,19.8-12.89,22.41
	c-12.27,3.33-21.23-4.64-24.36-16.17C119.25,320.2,136.14,306.04,142.28,302.06z M153.72,338.67c-1.34-4.92-6.43-7.92-11.43-6.56
	c-5.16,1.4-7.14,6.15-7.25,9.15c1.42,5.23,5.88,10.54,12.21,8.82C152.18,348.75,155.04,343.52,153.72,338.67z"/>
<path d="M208.98,303l24.04-41.54l-21.33-1.51c-0.81-0.06-1.48-0.83-1.43-1.62l0.39-5.56c0.06-0.79,0.83-1.46,1.64-1.4l33.61,2.39
	c0.81,0.06,1.48,0.82,1.43,1.62l-0.04,0.56L219.71,304c-0.66,1.23-1.52,2.05-2.9,1.95l-5.98-0.42c-0.97-0.07-2-0.38-1.91-1.65
	L208.98,303z"/>
<path d="M324.48,122.04l-0.12-0.21c-3.76,0.1-10.3-1.25-13.39-6.68c-4.39-7.73-0.47-16.57,8.05-21.4
	c8.81-4.99,18.42-3.81,22.81,3.91c3.01,5.29,0.77,11.52-1.17,14.83l0.16,0.28c4.08-0.2,11.73,0.81,15.13,6.79
	c4.31,7.59,1.11,17.04-9.25,22.91c-10.08,5.71-19.84,3.61-24.15-3.98C319.11,132.44,323.06,124.14,324.48,122.04z M342.82,135.3
	c3.88-2.2,5.86-6.73,3.69-10.56c-1.78-3.13-6.21-4.86-11.52-3.22c-4.13,3.72-4.92,8.4-3.14,11.53
	C334.02,136.88,339.01,137.46,342.82,135.3z M333.01,103.13c-1.9-3.34-6.25-4.28-9.92-2.2c-3.38,1.92-4.81,6.13-2.91,9.47
	c1.78,3.13,5.14,4.45,10.17,2.98C334.17,109.93,334.71,106.12,333.01,103.13z"/>
<path d="M288.32,313.46c3.98,0.33,16.66-0.27,22.35-7.49c-1.58,0.22-5.88,0.02-9.4-1.43c-7.49-3.08-13.02-11.78-8.65-22.41
	c3.85-9.36,14.72-13.84,23.93-10.05c11.76,4.84,13.98,16.7,9.39,27.84c-8.92,21.7-30.97,22.7-38.27,22.13
	c-1.17-0.13-1.77-0.81-1.67-1.9l0.08-5.09C286.07,314.02,286.71,313.32,288.32,313.46z M317.41,295.11
	c2.08-5.05,1.8-12.03-4.27-14.53c-4.72-1.94-10.19,0.5-12.12,5.18c-1.96,4.76,0.24,10.26,5.04,12.24
	C311,300.04,315.48,297.45,317.41,295.11z"/>
</svg>
