<?xml version="1.0" encoding="utf-8"?>
<!-- Generator: Adobe Illustrator 24.1.0, SVG Export Plug-In . SVG Version: 6.00 Build 0)  -->
<svg version="1.1" id="Layer_1" xmlns="http://www.w3.org/2000/svg" xmlns:xlink="http://www.w3.org/1999/xlink" x="0px" y="0px"
	 viewBox="0 0 1744 119" style="enable-background:new 0 0 1744 119;" xml:space="preserve">
<style type="text/css">
	.st0{fill:#FFFFFF;}
	.st1{fill:#FF6060;}
	.st2{fill:#0077FF;}
</style>
<a xlink:href="https://jhkforecasts.com" >
	<rect x="18" y="40" class="st0" width="256" height="42"/>
</a>
<a xlink:href="https://projects.jhkforecasts.com/presidential-forecast/" >
	<rect x="1434" y="47" class="st0" width="114" height="27"/>
</a>
<a xlink:href="https://projects.jhkforecasts.com/democratic_primary/" >
	<g>
		<rect x="1243" y="32" class="st0" width="110" height="56"/>
		<a xlink:href="https://projects.jhkforecasts.com/democratic_primary/" >
			<g>
				<path d="M1243,33.6c0-0.2,0.2-0.5,0.4-0.5h5.5c4.6,0,8.4,3.8,8.4,8.4c0,4.7-3.8,8.4-8.4,8.4h-5.5c-0.2,0-0.4-0.2-0.4-0.5V33.6z
					 M1248.6,47.6c3.5,0,6.1-2.6,6.1-6.1c0-3.5-2.6-6.1-6.1-6.1h-3.2v12.2C1245.4,47.6,1248.6,47.6,1248.6,47.6z"/>
				<path d="M1263.9,40.1c2.5,0,4.4,1.9,4.4,4.4c0,0.2,0,0.5-0.1,0.7c0,0.2-0.2,0.4-0.4,0.4h-6.5c0.1,1.3,1.2,2.6,2.8,2.6
					c0.9,0,1.7-0.4,2.1-0.7c0.3-0.2,0.5-0.3,0.7,0l0.7,0.9c0.2,0.2,0.2,0.4-0.1,0.6c-0.7,0.6-1.9,1.2-3.6,1.2c-2.9,0-4.8-2.3-4.8-5
					C1259.1,42.4,1261,40.1,1263.9,40.1z M1266,44c-0.1-1.2-1-2.1-2.2-2.1c-1.3,0-2.3,0.9-2.4,2.1H1266z"/>
				<path d="M1270.6,40.8c0-0.2,0.2-0.5,0.5-0.5h0.7c0.2,0,0.3,0.1,0.4,0.3l0.3,0.8c0.2-0.2,1.3-1.3,3.2-1.3c1.4,0,2.4,0.5,3.1,1.5
					c0.3-0.3,1.7-1.5,3.5-1.5c2.9,0,4,2.1,4,4.6v4.8c0,0.2-0.2,0.5-0.5,0.5h-1.3c-0.3,0-0.5-0.2-0.5-0.5v-4.9c0-1.5-0.7-2.4-2-2.4
					c-1.5,0-2.3,1-2.5,1.2c0.1,0.2,0.1,0.7,0.1,1.2v5c0,0.2-0.2,0.5-0.5,0.5h-1.3c-0.3,0-0.5-0.2-0.5-0.5v-4.9c0-1.5-0.7-2.4-2-2.4
					c-1.4,0-2.3,1.1-2.4,1.4v5.9c0,0.2-0.2,0.5-0.5,0.5h-1.3c-0.2,0-0.5-0.2-0.5-0.5L1270.6,40.8L1270.6,40.8z"/>
				<path d="M1293.2,40.1c2.7,0,4.8,2.3,4.8,5c0,2.8-2.2,5.1-4.8,5.1s-4.8-2.3-4.8-5.1C1288.4,42.4,1290.5,40.1,1293.2,40.1z
					 M1293.2,48.1c1.5,0,2.7-1.3,2.7-3c0-1.6-1.2-2.9-2.7-2.9s-2.7,1.3-2.7,2.9C1290.5,46.7,1291.7,48.1,1293.2,48.1z"/>
				<path d="M1304.8,40.1c1.5,0,2.6,0.6,3.5,1.7c0.2,0.2,0.1,0.5-0.1,0.7l-0.8,0.7c-0.3,0.3-0.5,0.1-0.7-0.1
					c-0.4-0.5-1.1-0.9-1.9-0.9c-1.6,0-2.8,1.3-2.8,3c0,1.7,1.2,3,2.8,3c1.2,0,1.7-0.6,2.2-1.1c0.2-0.2,0.4-0.2,0.7,0l0.7,0.5
					c0.2,0.2,0.3,0.4,0.2,0.7c-0.8,1.2-2.1,2-3.7,2c-2.7,0-5-2.1-5-5C1299.7,42.3,1302.1,40.1,1304.8,40.1z"/>
				<path d="M1310.9,40.8c0-0.2,0.2-0.5,0.5-0.5h0.7c0.2,0,0.4,0.1,0.4,0.3l0.3,0.8c0.2-0.2,1.1-1.4,2.8-1.4c0.9,0,2,0.2,1.8,0.9
					l-0.6,1.2c-0.1,0.3-0.4,0.3-0.6,0.2c-0.1-0.1-0.5-0.2-0.8-0.2c-1.4,0-2.1,1-2.2,1.2v6.1c0,0.4-0.3,0.5-0.7,0.5h-1.2
					c-0.2,0-0.5-0.2-0.5-0.5L1310.9,40.8L1310.9,40.8z"/>
				<path d="M1322.1,43.8c1,0,1.9,0.3,1.9,0.3c0-1.5-0.3-2.1-1.5-2.1c-1.1,0-2.2,0.3-2.7,0.4c-0.3,0.1-0.5-0.1-0.5-0.4l-0.2-0.9
					c-0.1-0.3,0.1-0.5,0.3-0.5c0.2-0.1,1.5-0.5,3.3-0.5c3.1,0,3.4,1.9,3.4,4.3v5.1c0,0.2-0.2,0.5-0.5,0.5h-0.7
					c-0.2,0-0.3-0.1-0.4-0.3l-0.2-0.7c-0.5,0.5-1.5,1.2-2.9,1.2c-1.8,0-3.1-1.2-3.1-3.2C1318.2,45.2,1319.6,43.8,1322.1,43.8z
					 M1321.8,48.4c1,0,1.9-0.7,2.2-1.2v-1.5c-0.1-0.1-0.8-0.4-1.7-0.4c-1.2,0-1.9,0.6-1.9,1.6C1320.3,47.8,1320.9,48.4,1321.8,48.4z
					"/>
				<path d="M1329.7,42.3h-1c-0.3,0-0.5-0.2-0.5-0.5v-1.1c0-0.3,0.2-0.5,0.5-0.5h1v-2.7c0-0.2,0.2-0.5,0.5-0.5l1.4,0
					c0.2,0,0.4,0.2,0.4,0.5v2.7h2.4c0.3,0,0.5,0.2,0.5,0.5v1.1c0,0.2-0.2,0.5-0.5,0.5h-2.4V47c0,0.8,0.3,1,0.8,1
					c0.5,0,1.2-0.3,1.5-0.4c0.3-0.1,0.5,0,0.6,0.2l0.4,1.1c0.1,0.3,0,0.5-0.2,0.6c-0.2,0.1-1.7,0.7-2.8,0.7c-1.9,0-2.4-1.2-2.4-2.9
					L1329.7,42.3L1329.7,42.3z"/>
				<path d="M1337.1,35c0-0.8,0.6-1.4,1.4-1.4c0.8,0,1.4,0.6,1.4,1.4c0,0.8-0.6,1.4-1.4,1.4C1337.7,36.4,1337.1,35.8,1337.1,35z
					 M1337.4,40.8c0-0.2,0.2-0.5,0.5-0.5h1.4c0.2,0,0.5,0.2,0.5,0.5v8.7c0,0.2-0.2,0.5-0.5,0.5h-1.4c-0.2,0-0.5-0.2-0.5-0.5V40.8z"
					/>
				<path d="M1347.1,40.1c1.5,0,2.6,0.6,3.5,1.7c0.2,0.2,0.1,0.5-0.1,0.7l-0.8,0.7c-0.3,0.3-0.5,0.1-0.7-0.1
					c-0.4-0.5-1.1-0.9-1.9-0.9c-1.6,0-2.8,1.3-2.8,3c0,1.7,1.2,3,2.8,3c1.2,0,1.7-0.6,2.2-1.1c0.2-0.2,0.4-0.2,0.7,0l0.7,0.5
					c0.2,0.2,0.3,0.4,0.2,0.7c-0.8,1.2-2.1,2-3.7,2c-2.7,0-5-2.1-5-5C1342.1,42.3,1344.4,40.1,1347.1,40.1z"/>
				<path d="M1260.8,62.3c0-0.2,0.2-0.5,0.5-0.5h5.5c2.9,0,5.4,2.4,5.4,5.3c0,3-2.4,5.4-5.3,5.4h-3.5v5.6c0,0.2-0.2,0.5-0.5,0.5
					h-1.6c-0.3,0-0.5-0.2-0.5-0.5V62.3z M1266.6,70.2c1.7,0,3.1-1.3,3.1-3.1c0-1.6-1.4-2.9-3.1-2.9h-3.3v5.9H1266.6z"/>
				<path d="M1273.8,69.6c0-0.2,0.2-0.5,0.5-0.5h0.7c0.2,0,0.4,0.1,0.4,0.3l0.3,0.8c0.2-0.2,1.1-1.4,2.8-1.4c0.9,0,2,0.2,1.8,0.9
					l-0.6,1.2c-0.1,0.3-0.4,0.3-0.6,0.2c-0.1-0.1-0.5-0.2-0.8-0.2c-1.4,0-2.1,1-2.2,1.2v6.1c0,0.4-0.3,0.5-0.7,0.5h-1.2
					c-0.2,0-0.5-0.2-0.5-0.5L1273.8,69.6L1273.8,69.6z"/>
				<path d="M1281.6,63.8c0-0.8,0.6-1.4,1.4-1.4c0.8,0,1.4,0.6,1.4,1.4c0,0.8-0.6,1.4-1.4,1.4C1282.2,65.2,1281.6,64.6,1281.6,63.8z
					 M1281.8,69.6c0-0.2,0.2-0.5,0.5-0.5h1.4c0.2,0,0.5,0.2,0.5,0.5v8.7c0,0.2-0.2,0.5-0.5,0.5h-1.4c-0.2,0-0.5-0.2-0.5-0.5V69.6z"
					/>
				<path d="M1287.2,69.6c0-0.2,0.2-0.5,0.5-0.5h0.7c0.2,0,0.3,0.1,0.4,0.3l0.3,0.8c0.2-0.2,1.3-1.3,3.2-1.3c1.4,0,2.4,0.6,3.1,1.5
					c0.3-0.3,1.7-1.5,3.5-1.5c2.9,0,4,2.1,4,4.6v4.8c0,0.2-0.2,0.5-0.5,0.5h-1.3c-0.3,0-0.5-0.2-0.5-0.5v-4.9c0-1.5-0.7-2.4-2-2.4
					c-1.5,0-2.3,1-2.5,1.2c0.1,0.2,0.1,0.7,0.1,1.2v5c0,0.2-0.2,0.5-0.5,0.5h-1.3c-0.3,0-0.5-0.2-0.5-0.5v-4.9c0-1.5-0.7-2.4-2-2.4
					c-1.4,0-2.3,1.1-2.4,1.4v5.9c0,0.2-0.2,0.5-0.5,0.5h-1.3c-0.2,0-0.5-0.2-0.5-0.5L1287.2,69.6L1287.2,69.6z"/>
				<path d="M1308.9,72.6c1,0,1.9,0.3,1.9,0.3c0-1.5-0.3-2.1-1.5-2.1c-1.1,0-2.2,0.3-2.7,0.4c-0.3,0.1-0.5-0.1-0.5-0.4l-0.2-0.9
					c-0.1-0.3,0.1-0.5,0.3-0.6c0.2-0.1,1.5-0.6,3.3-0.6c3.1,0,3.4,1.9,3.4,4.3v5.1c0,0.2-0.2,0.5-0.5,0.5h-0.7
					c-0.2,0-0.3-0.1-0.4-0.3l-0.2-0.7c-0.5,0.5-1.5,1.2-2.9,1.2c-1.8,0-3.1-1.2-3.1-3.2C1305,74,1306.4,72.6,1308.9,72.6z
					 M1308.6,77.2c1,0,1.9-0.7,2.2-1.2v-1.5c-0.1-0.1-0.8-0.4-1.7-0.4c-1.2,0-1.9,0.6-1.9,1.6C1307.1,76.6,1307.7,77.2,1308.6,77.2z
					"/>
				<path d="M1315.9,69.6c0-0.2,0.2-0.5,0.5-0.5h0.7c0.2,0,0.4,0.1,0.4,0.3l0.3,0.8c0.2-0.2,1.1-1.4,2.8-1.4c0.9,0,2,0.2,1.8,0.9
					l-0.6,1.2c-0.1,0.3-0.4,0.3-0.6,0.2c-0.1-0.1-0.5-0.2-0.8-0.2c-1.4,0-2.1,1-2.2,1.2v6.1c0,0.4-0.3,0.5-0.7,0.5h-1.2
					c-0.2,0-0.5-0.2-0.5-0.5L1315.9,69.6L1315.9,69.6z"/>
				<path d="M1322.9,69.7c-0.1-0.3,0.1-0.6,0.4-0.6h1.6c0.1,0,0.3,0.1,0.4,0.3l3,6.4h0l2.9-6.4c0.1-0.2,0.3-0.3,0.5-0.3h1.4
					c0.4,0,0.6,0.3,0.4,0.6l-7.3,15.9c-0.1,0.1-0.2,0.3-0.4,0.3h-1.4c-0.4,0-0.6-0.3-0.4-0.7l3.2-6.9L1322.9,69.7z"/>
			</g>
		</a>
	</g>
	<a xlink:href="https://projects.jhkforecasts.com/presidential-forecast/" >
		<g>
			<path d="M1437.7,51.4c0-0.2,0.2-0.5,0.5-0.5h5.5c2.9,0,5.4,2.4,5.4,5.3c0,3-2.4,5.4-5.3,5.4h-3.5v5.6c0,0.2-0.2,0.5-0.5,0.5h-1.6
				c-0.3,0-0.5-0.2-0.5-0.5V51.4z M1443.5,59.3c1.7,0,3.1-1.3,3.1-3.1c0-1.6-1.4-2.9-3.1-2.9h-3.3v6H1443.5z"/>
			<path d="M1450.6,58.6c0-0.2,0.2-0.5,0.5-0.5h0.7c0.2,0,0.4,0.1,0.4,0.3l0.3,0.8c0.2-0.2,1.1-1.4,2.8-1.4c0.9,0,2,0.2,1.8,0.9
				l-0.6,1.2c-0.1,0.3-0.4,0.3-0.6,0.2c-0.1-0.1-0.5-0.2-0.8-0.2c-1.4,0-2.1,1-2.2,1.2v6.1c0,0.4-0.3,0.5-0.7,0.5h-1.2
				c-0.2,0-0.5-0.2-0.5-0.5L1450.6,58.6L1450.6,58.6z"/>
			<path d="M1462.7,57.9c2.5,0,4.4,1.9,4.4,4.4c0,0.2,0,0.5-0.1,0.7c0,0.2-0.2,0.4-0.4,0.4h-6.5c0.1,1.3,1.2,2.6,2.8,2.6
				c0.9,0,1.7-0.4,2.1-0.7c0.3-0.2,0.5-0.3,0.7,0l0.7,0.9c0.2,0.2,0.2,0.4-0.1,0.6c-0.7,0.6-1.9,1.2-3.6,1.2c-2.9,0-4.8-2.3-4.8-5
				C1457.9,60.3,1459.8,57.9,1462.7,57.9z M1464.9,61.9c-0.1-1.2-1-2.1-2.2-2.1c-1.3,0-2.3,0.9-2.4,2.1H1464.9z"/>
			<path d="M1468.9,66.5l0.5-0.9c0.1-0.2,0.4-0.3,0.6-0.1c0,0,1.1,0.6,2.2,0.6c0.7,0,1.2-0.3,1.2-0.8c0-0.7-0.5-1-1.8-1.6
				c-1.5-0.7-2.7-1.6-2.7-3.1c0-1.2,1-2.6,3.3-2.6c1.3,0,2.3,0.4,2.8,0.7c0.2,0.1,0.3,0.5,0.2,0.7l-0.4,0.8
				c-0.1,0.2-0.4,0.3-0.6,0.2c0,0-1.1-0.5-2-0.5c-0.8,0-1.1,0.4-1.1,0.7c0,0.6,0.6,0.9,1.5,1.3c1.8,0.8,3.2,1.5,3.2,3.3
				c0,1.5-1.4,2.8-3.6,2.8c-1.6,0-2.7-0.6-3.2-1C1468.9,66.9,1468.8,66.7,1468.9,66.5z"/>
			<path d="M1477.8,52.9c0-0.8,0.6-1.4,1.4-1.4c0.8,0,1.4,0.6,1.4,1.4c0,0.8-0.6,1.4-1.4,1.4C1478.4,54.3,1477.8,53.6,1477.8,52.9z
				 M1478,58.6c0-0.2,0.2-0.5,0.5-0.5h1.4c0.2,0,0.5,0.2,0.5,0.5v8.7c0,0.2-0.2,0.5-0.5,0.5h-1.4c-0.2,0-0.5-0.2-0.5-0.5V58.6z"/>
			<path d="M1487.5,57.9c1.2,0,2.1,0.5,2.3,0.5v-7c0-0.2,0.2-0.5,0.5-0.5h1.4c0.2,0,0.5,0.2,0.5,0.5v15.9c0,0.2-0.2,0.5-0.5,0.5
				h-0.7c-0.2,0-0.4-0.2-0.4-0.4l-0.2-0.7c0,0-1.2,1.3-3.1,1.3c-2.5,0-4.5-2.3-4.5-5C1482.7,60.2,1484.8,57.9,1487.5,57.9z
				 M1487.5,66c1.5,0,2.2-1.2,2.3-1.4v-3.9c0,0-0.8-0.6-2.1-0.6c-1.6,0-2.7,1.3-2.7,3C1485,64.6,1486,66,1487.5,66z"/>
			<path d="M1499.3,57.9c2.5,0,4.4,1.9,4.4,4.4c0,0.2,0,0.5-0.1,0.7c0,0.2-0.2,0.4-0.4,0.4h-6.5c0.1,1.3,1.2,2.6,2.8,2.6
				c0.9,0,1.7-0.4,2.1-0.7c0.3-0.2,0.5-0.3,0.7,0l0.7,0.9c0.2,0.2,0.2,0.4-0.1,0.6c-0.7,0.6-1.9,1.2-3.6,1.2c-2.9,0-4.8-2.3-4.8-5
				C1494.5,60.3,1496.4,57.9,1499.3,57.9z M1501.5,61.9c-0.1-1.2-1-2.1-2.2-2.1c-1.3,0-2.3,0.9-2.4,2.1H1501.5z"/>
			<path d="M1506,58.6c0-0.2,0.2-0.5,0.5-0.5h0.7c0.2,0,0.3,0.1,0.4,0.3l0.3,0.8c0.2-0.2,1.4-1.3,3.4-1.3c2.9,0,4,2.1,4,4.6v4.8
				c0,0.2-0.2,0.5-0.5,0.5h-1.4c-0.3,0-0.5-0.2-0.5-0.5v-4.9c0-1.5-0.7-2.4-2-2.4c-1.5,0-2.5,1.1-2.7,1.4v5.9c0,0.3-0.1,0.5-0.6,0.5
				h-1.2c-0.2,0-0.5-0.2-0.5-0.5V58.6z"/>
			<path d="M1518.8,60.2h-1c-0.3,0-0.5-0.2-0.5-0.5v-1.1c0-0.3,0.2-0.5,0.5-0.5h1v-2.7c0-0.2,0.2-0.5,0.5-0.5l1.4,0
				c0.2,0,0.4,0.2,0.4,0.5v2.7h2.4c0.3,0,0.5,0.2,0.5,0.5v1.1c0,0.2-0.2,0.5-0.5,0.5h-2.4v4.7c0,0.8,0.3,1,0.8,1
				c0.5,0,1.2-0.3,1.5-0.4c0.3-0.1,0.5,0,0.6,0.2l0.4,1.1c0.1,0.3,0,0.5-0.2,0.6c-0.2,0.1-1.7,0.7-2.8,0.7c-1.9,0-2.4-1.2-2.4-2.9
				L1518.8,60.2L1518.8,60.2z"/>
			<path d="M1526.2,52.9c0-0.8,0.6-1.4,1.4-1.4c0.8,0,1.4,0.6,1.4,1.4c0,0.8-0.6,1.4-1.4,1.4C1526.8,54.3,1526.2,53.6,1526.2,52.9z
				 M1526.4,58.6c0-0.2,0.2-0.5,0.5-0.5h1.4c0.2,0,0.5,0.2,0.5,0.5v8.7c0,0.2-0.2,0.5-0.5,0.5h-1.4c-0.2,0-0.5-0.2-0.5-0.5V58.6z"/>
			<path d="M1535,61.7c1,0,1.9,0.3,1.9,0.3c0-1.5-0.3-2.1-1.5-2.1c-1.1,0-2.2,0.3-2.7,0.4c-0.3,0.1-0.5-0.1-0.5-0.4L1532,59
				c-0.1-0.3,0.1-0.5,0.3-0.5c0.2-0.1,1.5-0.5,3.3-0.5c3.1,0,3.4,1.9,3.4,4.3v5.1c0,0.2-0.2,0.5-0.5,0.5h-0.7
				c-0.2,0-0.3-0.1-0.4-0.3l-0.2-0.7c-0.5,0.5-1.5,1.2-2.9,1.2c-1.8,0-3.1-1.2-3.1-3.2C1531.2,63,1532.5,61.7,1535,61.7z
				 M1534.7,66.3c1,0,1.9-0.7,2.2-1.2v-1.5c-0.1-0.1-0.8-0.4-1.7-0.4c-1.2,0-1.9,0.6-1.9,1.6C1533.2,65.6,1533.8,66.3,1534.7,66.3z"
				/>
			<path d="M1542,51.4c0-0.2,0.2-0.5,0.5-0.5h1.4c0.2,0,0.5,0.2,0.5,0.5v15.9c0,0.2-0.2,0.5-0.5,0.5h-1.4c-0.2,0-0.5-0.2-0.5-0.5
				V51.4z"/>
		</g>
	</a>
	<a xlink:href="https://projects.jhkforecasts.com/senate-forecast/" >
		<g>
			<a xlink:href="https://projects.jhkforecasts.com/senate-forecast/" >
				<rect x="1649" y="49" class="st0" width="71" height="23"/>
			</a>
			<a xlink:href="https://projects.jhkforecasts.com/senate-forecast/" >
				<g>
					<path d="M1652.8,65.5c0.2-0.3,0.4-0.7,0.6-1s0.6-0.4,0.8-0.2c0.1,0.1,2,1.7,3.8,1.7c1.7,0,2.7-1,2.7-2.2c0-1.4-1.2-2.3-3.6-3.3
						c-2.4-1-4.4-2.3-4.4-5.1c0-1.9,1.4-4.4,5.3-4.4c2.4,0,4.2,1.2,4.4,1.4c0.2,0.1,0.4,0.5,0.1,0.8c-0.2,0.3-0.4,0.6-0.6,0.9
						c-0.2,0.3-0.5,0.5-0.8,0.2c-0.2-0.1-1.8-1.2-3.2-1.2c-2,0-2.7,1.3-2.7,2.2c0,1.4,1.1,2.2,3.1,3c2.8,1.1,5.2,2.5,5.2,5.4
						c0,2.5-2.2,4.5-5.3,4.5c-2.9,0-4.8-1.5-5.2-1.9C1652.7,66.1,1652.6,65.9,1652.8,65.5z"/>
					<path d="M1670.1,58.1c2.5,0,4.4,1.9,4.4,4.4c0,0.2,0,0.5-0.1,0.7c0,0.2-0.2,0.4-0.4,0.4h-6.5c0.1,1.3,1.2,2.6,2.8,2.6
						c0.9,0,1.7-0.4,2.1-0.7c0.3-0.2,0.5-0.3,0.7,0l0.7,0.9c0.2,0.2,0.2,0.4-0.1,0.6c-0.7,0.6-1.9,1.2-3.6,1.2c-2.9,0-4.8-2.3-4.8-5
						C1665.3,60.4,1667.2,58.1,1670.1,58.1z M1672.3,62c-0.1-1.2-1-2.1-2.2-2.1c-1.3,0-2.3,0.9-2.4,2.1H1672.3z"/>
					<path d="M1676.8,58.8c0-0.2,0.2-0.5,0.5-0.5h0.7c0.2,0,0.3,0.1,0.4,0.3l0.3,0.8c0.2-0.2,1.4-1.3,3.4-1.3c2.9,0,4,2.1,4,4.6v4.8
						c0,0.2-0.2,0.5-0.5,0.5h-1.4c-0.3,0-0.5-0.2-0.5-0.5v-4.9c0-1.5-0.7-2.4-2-2.4c-1.5,0-2.5,1.1-2.7,1.4v5.9
						c0,0.3-0.1,0.5-0.6,0.5h-1.2c-0.2,0-0.5-0.2-0.5-0.5V58.8z"/>
					<path d="M1692.2,61.8c1,0,1.9,0.3,1.9,0.3c0-1.5-0.3-2.1-1.5-2.1c-1.1,0-2.2,0.3-2.7,0.4c-0.3,0.1-0.5-0.1-0.5-0.4l-0.2-0.9
						c-0.1-0.3,0.1-0.5,0.3-0.5c0.2-0.1,1.5-0.5,3.3-0.5c3.1,0,3.4,1.9,3.4,4.3v5.1c0,0.2-0.2,0.5-0.5,0.5h-0.7
						c-0.2,0-0.3-0.1-0.4-0.3l-0.2-0.7c-0.5,0.5-1.5,1.2-2.9,1.2c-1.8,0-3.1-1.2-3.1-3.2C1688.3,63.2,1689.7,61.8,1692.2,61.8z
						 M1691.9,66.4c1,0,1.9-0.7,2.2-1.2v-1.5c-0.1-0.1-0.8-0.4-1.7-0.4c-1.2,0-1.9,0.6-1.9,1.6C1690.4,65.8,1691,66.4,1691.9,66.4z"
						/>
					<path d="M1699.8,60.3h-1c-0.3,0-0.5-0.2-0.5-0.5v-1.1c0-0.3,0.2-0.5,0.5-0.5h1v-2.7c0-0.2,0.2-0.5,0.5-0.5l1.4,0
						c0.2,0,0.4,0.2,0.4,0.5v2.7h2.4c0.3,0,0.5,0.2,0.5,0.5v1.1c0,0.2-0.2,0.5-0.5,0.5h-2.4v4.8c0,0.8,0.3,1,0.8,1
						c0.5,0,1.2-0.3,1.5-0.4c0.3-0.1,0.5,0,0.6,0.2l0.4,1.1c0.1,0.3,0,0.5-0.2,0.6c-0.2,0.1-1.7,0.7-2.8,0.7c-1.9,0-2.4-1.2-2.4-2.9
						L1699.8,60.3L1699.8,60.3z"/>
					<path d="M1711.6,58.1c2.5,0,4.4,1.9,4.4,4.4c0,0.2,0,0.5-0.1,0.7c0,0.2-0.2,0.4-0.4,0.4h-6.5c0.1,1.3,1.2,2.6,2.8,2.6
						c0.9,0,1.7-0.4,2.1-0.7c0.3-0.2,0.5-0.3,0.7,0l0.7,0.9c0.2,0.2,0.2,0.4-0.1,0.6c-0.7,0.6-1.9,1.2-3.6,1.2c-2.9,0-4.8-2.3-4.8-5
						C1706.8,60.4,1708.7,58.1,1711.6,58.1z M1713.8,62c-0.1-1.2-1-2.1-2.2-2.1c-1.3,0-2.3,0.9-2.4,2.1H1713.8z"/>
				</g>
			</a>
		</g>
		<a xlink:href="https://jhkforecasts.com" >
			<path d="M23.2,70.3l2.2-2.2c0.5-0.4,0.9-0.3,1.3,0c0.5,0.6,1.4,1.3,2.8,1.3c1.6,0,3.4-1.3,3.4-4.2V45.4c0-0.4,0.3-0.8,0.8-0.8h4
				c0.5,0,0.8,0.4,0.8,0.8v19.9c0,5.8-3.9,9.2-8.8,9.2c-3.7,0-5.7-2.2-6.4-3.1C22.9,71,23,70.6,23.2,70.3z"/>
		</a>
		<a xlink:href="https://jhkforecasts.com" >
			<path d="M45.2,45.4c0-0.4,0.4-0.8,0.8-0.8h3.9c0.5,0,0.8,0.4,0.8,0.8v11.2h13.7V45.4c0-0.4,0.3-0.8,0.8-0.8h3.9
				c0.4,0,0.8,0.4,0.8,0.8v27.9c0,0.4-0.4,0.8-0.8,0.8h-3.9c-0.5,0-0.8-0.4-0.8-0.8V61.6H50.7v11.6c0,0.4-0.3,0.8-0.8,0.8H46
				c-0.4,0-0.8-0.4-0.8-0.8C45.2,73.2,45.2,45.4,45.2,45.4z"/>
		</a>
		<a xlink:href="https://jhkforecasts.com" >
			<path d="M77.6,45.6c0-0.5,0.4-1,1-1h3.7c0.6,0,1,0.5,1,1v11.4l10.6-12c0.2-0.2,0.4-0.4,0.8-0.4h4.2c0.8,0,1.2,0.9,0.7,1.5
				l-11,12.4l11.8,14.1c0.4,0.6,0.1,1.5-0.8,1.5h-4.6c-0.4,0-0.7-0.2-0.8-0.3l-11-13.6V73c0,0.6-0.5,1-1,1h-3.7c-0.6,0-1-0.5-1-1
				V45.6z"/>
		</a>
		<a xlink:href="https://jhkforecasts.com" >
			<path d="M114.5,45.4c0-0.4,0.3-0.8,0.8-0.8h17.1c0.5,0,0.8,0.4,0.8,0.8v3.5c0,0.4-0.3,0.8-0.8,0.8h-12.5v7.9h10.4
				c0.4,0,0.8,0.4,0.8,0.8v3.5c0,0.4-0.4,0.8-0.8,0.8h-10.4v10.7c0,0.4-0.4,0.8-0.8,0.8h-3.9c-0.5,0-0.8-0.4-0.8-0.8V45.4z"/>
		</a>
		<a xlink:href="https://jhkforecasts.com" >
			<path d="M142.8,56.8c4.8,0,8.6,4,8.6,8.8c0,4.8-3.9,8.9-8.6,8.9c-4.8,0-8.6-4-8.6-8.9C134.1,60.8,138,56.8,142.8,56.8z
				 M142.8,69.9c2.2,0,4-1.9,4-4.3c0-2.4-1.8-4.2-4-4.2c-2.3,0-4,1.9-4,4.2C138.7,68,140.5,69.9,142.8,69.9z"/>
		</a>
		<a xlink:href="https://jhkforecasts.com" >
			<path d="M155.1,58c0-0.5,0.4-0.8,0.8-0.8h1.6c0.4,0,0.6,0.2,0.8,0.5l0.6,1.6c0.6-0.8,2.1-2.6,4.8-2.6c2,0,3.8,0.6,3.2,1.7
				l-1.6,2.7c-0.2,0.4-0.6,0.5-1,0.4c-0.1,0-0.8-0.2-1.2-0.2c-1.7,0-2.7,1.1-3,1.7v10.2c0,0.6-0.4,0.8-1,0.8h-3.2
				c-0.4,0-0.8-0.4-0.8-0.8L155.1,58L155.1,58z"/>
		</a>
		<a xlink:href="https://jhkforecasts.com" >
			<path d="M176.7,56.8c4.3,0,7.9,3.3,7.9,7.8c0,0.3,0,0.8-0.1,1.1c0,0.4-0.4,0.7-0.8,0.7h-10.8c0.1,1.7,1.6,3.7,4,3.7
				c1.3,0,2.5-0.5,3.3-1.1c0.4-0.2,0.8-0.3,1.1,0l1.7,2c0.3,0.3,0.4,0.8,0,1.1c-1.4,1.3-3.5,2.3-6.3,2.3c-5.1,0-8.6-4-8.6-8.8
				C168.1,60.8,171.7,56.8,176.7,56.8z M179.6,63.5c-0.1-1.6-1.5-2.9-3.1-2.9c-1.7,0-3.1,1.3-3.3,2.9H179.6z"/>
		</a>
		<a xlink:href="https://jhkforecasts.com" >
			<path d="M195.7,56.8c2.6,0,4.6,1,6.2,3c0.3,0.4,0.2,0.9-0.2,1.2l-1.9,1.8c-0.4,0.3-0.8,0.1-1.1-0.1c-0.7-0.8-1.7-1.3-2.9-1.3
				c-2.3,0-4.1,1.9-4.1,4.3c0,2.4,1.8,4.3,4.1,4.3c1.8,0,2.6-0.9,3.4-1.6c0.3-0.3,0.7-0.4,1.1-0.1l1.8,1.6c0.4,0.3,0.6,0.8,0.3,1.2
				c-1.4,2.2-3.7,3.5-6.6,3.5c-4.8,0-8.9-3.8-8.9-8.8C186.8,60.6,191,56.8,195.7,56.8z"/>
		</a>
		<a xlink:href="https://jhkforecasts.com" >
			<path d="M211.5,63.4c1.7,0,3.1,0.5,3.1,0.5c0-2.2-0.6-2.9-2.2-2.9s-3.8,0.3-4.7,0.6c-0.6,0.2-0.9-0.2-1-0.8l-0.4-2.2
				c-0.1-0.6,0.2-0.9,0.6-1c0.3-0.1,3-0.8,5.7-0.8c5.3,0,6.5,2.7,6.5,7.3v9.1c0,0.4-0.4,0.8-0.8,0.8h-1.5c-0.3,0-0.5-0.1-0.7-0.6
				l-0.5-1.1c-1,0.9-2.5,2.2-5.1,2.2c-3.4,0-5.7-2.2-5.7-5.8C204.8,65.7,207.2,63.4,211.5,63.4z M211.6,70.9c1.4,0,2.6-1.1,2.9-1.6
				v-2.3c0,0-1.1-0.5-2.4-0.5c-1.6,0-2.7,0.9-2.7,2.3C209.4,69.9,210.3,70.9,211.6,70.9z"/>
		</a>
		<a xlink:href="https://jhkforecasts.com" >
			<path d="M223.1,72l1.1-2.3c0.2-0.4,0.6-0.5,1-0.3c0,0,1.9,1,3.8,1c0.8,0,1.4-0.3,1.4-1.1c0-0.8-0.6-1.2-2.8-2.1
				c-3.2-1.3-4.8-3-4.8-5.6s1.9-5,6.2-5c2.5,0,4.3,0.7,5.2,1.3c0.4,0.2,0.6,0.7,0.4,1.1l-1.1,2.2c-0.2,0.4-0.7,0.4-1,0.3
				c0,0-1.9-0.9-3.5-0.9c-1,0-1.4,0.4-1.4,1c0,0.8,0.8,1,2.3,1.6c3.2,1.3,5.7,2.6,5.7,5.9c0,2.8-2.4,5.1-6.7,5.1
				c-2.8,0-4.7-0.9-5.6-1.6C223.1,72.7,222.9,72.3,223.1,72z"/>
		</a>
		<a xlink:href="https://jhkforecasts.com" >
			<path d="M240.2,61.6h-1.4c-0.4,0-0.8-0.4-0.8-0.8V58c0-0.5,0.3-0.8,0.8-0.8h1.4v-4.7c0-0.4,0.4-0.8,0.8-0.8l3.4,0
				c0.4,0,0.8,0.4,0.8,0.8v4.7h3.7c0.5,0,0.8,0.3,0.8,0.8v2.8c0,0.4-0.3,0.8-0.8,0.8h-3.7v6.7c0,1.2,0.6,1.3,1.3,1.3
				c0.7,0,1.6-0.3,2.1-0.5c0.5-0.2,0.8,0,0.9,0.5l0.8,2.7c0.2,0.4,0,0.8-0.5,1c-0.2,0.1-2.9,1.1-5,1.1c-3.2,0-4.7-2-4.7-5.4
				L240.2,61.6L240.2,61.6z"/>
		</a>
		<a xlink:href="https://jhkforecasts.com" >
			<path d="M252.9,72l1.1-2.3c0.2-0.4,0.6-0.5,1-0.3c0,0,1.9,1,3.8,1c0.8,0,1.4-0.3,1.4-1.1c0-0.8-0.6-1.2-2.8-2.1
				c-3.2-1.3-4.8-3-4.8-5.6s1.9-5,6.2-5c2.5,0,4.3,0.7,5.2,1.3c0.4,0.2,0.6,0.7,0.4,1.1l-1,2.2c-0.2,0.4-0.7,0.4-1,0.3
				c0,0-1.9-0.9-3.5-0.9c-1,0-1.4,0.4-1.4,1c0,0.8,0.8,1,2.3,1.6c3.2,1.3,5.7,2.6,5.7,5.9c0,2.8-2.4,5.1-6.7,5.1
				c-2.8,0-4.7-0.9-5.6-1.6C252.9,72.7,252.7,72.3,252.9,72z"/>
		</a>
	</a>
</a>
<a xlink:href="https://projects.jhkforecasts.com/2020-elections/" >
	<g>
		<path class="st1" d="M1173.5,55.8h-44.4c-4.8,0-8.6-3.9-8.6-8.6V17c0-4.8,3.9-8.6,8.6-8.6h44.4c4.8,0,8.6,3.9,8.6,8.6v30.2
			C1182.1,51.9,1178.3,55.8,1173.5,55.8z"/>
		<g>
			<path class="st0" d="M1133.5,42.1c2.2-2.7,6.5-8.3,8.8-11.3c1.1-1.3,1.7-2.6,1.7-3.8c0-1.5-1.2-3.1-3.6-3.1c-1.6,0-3,1.2-3.8,2
				c-0.3,0.3-0.6,0.3-0.9,0l-1.6-1.6c-0.2-0.2-0.3-0.6,0-0.9c0,0,2.6-3.3,6.7-3.3c4.8,0,7.6,3.1,7.6,6.7c0,2.2-1,3.6-2.3,5.5
				c-1.5,2.1-4,5.3-5.8,7.5h7.3c0.3,0,0.6,0.3,0.6,0.6v2.3c0,0.3-0.3,0.6-0.6,0.6h-13.3c-0.4,0-0.6-0.3-0.6-0.6L1133.5,42.1
				L1133.5,42.1z"/>
			<path class="st0" d="M1152.1,32.1c0-7.4,3.1-11.9,8.5-11.9s8.5,4.4,8.5,11.9s-3.1,11.9-8.5,11.9
				C1155.2,43.9,1152.1,39.5,1152.1,32.1z M1164.7,32.1c0-5-1.5-7.9-4.1-7.9c-2.6,0-4.1,2.8-4.1,7.9c0,5,1.5,7.9,4.1,7.9
				C1163.2,39.9,1164.7,37.1,1164.7,32.1z"/>
		</g>
		<path class="st2" d="M1206.9,103.2h-44.4c-4.8,0-8.6-3.9-8.6-8.6V64.4c0-4.8,3.9-8.6,8.6-8.6h44.4c4.8,0,8.6,3.9,8.6,8.6v30.2
			C1215.6,99.3,1211.7,103.2,1206.9,103.2z"/>
		<g>
			<path class="st0" d="M1166.9,89.6c2.2-2.7,6.5-8.3,8.8-11.3c1.1-1.3,1.7-2.6,1.7-3.8c0-1.5-1.2-3.1-3.6-3.1c-1.6,0-3,1.2-3.8,2
				c-0.3,0.3-0.6,0.3-0.9,0l-1.6-1.6c-0.2-0.2-0.3-0.6,0-0.9c0,0,2.6-3.3,6.7-3.3c4.8,0,7.6,3.1,7.6,6.7c0,2.2-1,3.6-2.3,5.5
				c-1.5,2.1-4,5.3-5.8,7.5h7.3c0.3,0,0.6,0.3,0.6,0.6v2.3c0,0.3-0.3,0.6-0.6,0.6h-13.3c-0.4,0-0.6-0.3-0.6-0.6L1166.9,89.6
				L1166.9,89.6z"/>
			<path class="st0" d="M1185.5,79.5c0-7.4,3.1-11.9,8.5-11.9s8.5,4.4,8.5,11.9s-3.1,11.9-8.5,11.9S1185.5,86.9,1185.5,79.5z
				 M1198.1,79.5c0-5-1.5-7.9-4.1-7.9c-2.6,0-4.1,2.8-4.1,7.9c0,5,1.5,7.9,4.1,7.9C1196.6,87.3,1198.1,84.5,1198.1,79.5z"/>
		</g>
	</g>
</a>
</svg>
