<svg id="Layer_1" data-name="Layer 1" xmlns="http://www.w3.org/2000/svg" viewBox="0 0 1744 119"><defs><style>.cls-1{fill:#fc474e;}.cls-2{fill:#fff;}.cls-3{fill:#36aeff;}</style></defs><rect class="cls-1" x="1120.49" y="8.34" width="61.64" height="47.42" rx="8.63"/><path class="cls-2" d="M1124.88,47c3.32-4,9.65-12.26,13-16.73,1.56-1.91,2.57-3.87,2.57-5.58,0-2.26-1.71-4.57-5.33-4.57-2.41,0-4.47,1.71-5.62,3a.91.91,0,0,1-1.36,0l-2.41-2.41a1,1,0,0,1,0-1.3s3.92-4.93,9.89-4.93c7.19,0,11.21,4.57,11.21,10,0,3.27-1.41,5.33-3.37,8.14-2.16,3.06-6,7.79-8.64,11.15h10.85a1,1,0,0,1,1,1v3.46a1,1,0,0,1-1,1h-19.79a1,1,0,0,1-1-1Z"/><path class="cls-2" d="M1152.41,32.05c0-11,4.62-17.59,12.66-17.59s12.66,6.58,12.66,17.59-4.62,17.58-12.66,17.58S1152.41,43.05,1152.41,32.05Zm18.74,0c0-7.44-2.21-11.66-6.08-11.66S1159,24.61,1159,32.05s2.21,11.65,6.08,11.65S1171.15,39.53,1171.15,32.05Z"/><rect class="cls-3" x="1156.86" y="55.17" width="61.64" height="45.83" rx="7.4"/><path class="cls-2" d="M1161.25,93.06c3.32-4,9.65-12.26,13-16.73,1.56-1.91,2.57-3.87,2.57-5.58,0-2.26-1.71-4.57-5.33-4.57-2.41,0-4.47,1.71-5.62,3a.92.92,0,0,1-1.36,0l-2.41-2.41a1,1,0,0,1,0-1.3S1166,60.5,1172,60.5c7.19,0,11.21,4.57,11.21,10,0,3.26-1.41,5.32-3.37,8.14-2.16,3.06-6,7.78-8.64,11.15H1182a1,1,0,0,1,1,.95v3.47a1,1,0,0,1-1,1h-19.79a1,1,0,0,1-1-1Z"/><path class="cls-2" d="M1188.78,78.08c0-11,4.62-17.58,12.66-17.58s12.66,6.58,12.66,17.58-4.62,17.59-12.66,17.59S1188.78,89.09,1188.78,78.08Zm18.74,0c0-7.43-2.21-11.65-6.08-11.65s-6.08,4.22-6.08,11.65,2.21,11.66,6.08,11.66S1207.52,85.57,1207.52,78.08Z"/><rect class="cls-2" x="1238" width="504" height="119"/><path d="M1243,33.56a.45.45,0,0,1,.43-.46H1249a8.4,8.4,0,1,1,0,16.8h-5.52a.45.45,0,0,1-.43-.46Zm5.62,14.06a5.92,5.92,0,0,0,6.09-6.14,5.9,5.9,0,0,0-6.09-6.1h-3.17V47.62Z"/><path d="M1263.86,40.06a4.32,4.32,0,0,1,4.41,4.44c0,.17,0,.48,0,.65a.45.45,0,0,1-.44.41h-6.53a2.78,2.78,0,0,0,2.76,2.56,4.11,4.11,0,0,0,2.14-.69c.29-.17.46-.27.65,0l.67.92c.17.19.24.38,0,.62a5.49,5.49,0,0,1-3.55,1.2,4.8,4.8,0,0,1-4.82-5A4.82,4.82,0,0,1,1263.86,40.06Zm2.18,4a2.26,2.26,0,0,0-2.21-2.13,2.43,2.43,0,0,0-2.45,2.13Z"/><path d="M1270.58,40.76a.47.47,0,0,1,.45-.46h.67a.41.41,0,0,1,.41.29l.27.81a4.47,4.47,0,0,1,3.16-1.34,3.55,3.55,0,0,1,3.1,1.54,5.31,5.31,0,0,1,3.48-1.54c2.93,0,4,2.06,4,4.56v4.82a.46.46,0,0,1-.46.46h-1.34a.46.46,0,0,1-.45-.46V44.52c0-1.51-.7-2.37-2-2.37a3.48,3.48,0,0,0-2.47,1.17,6.69,6.69,0,0,1,.07,1.16v5a.47.47,0,0,1-.45.46h-1.28a.46.46,0,0,1-.45-.46V44.52c0-1.53-.7-2.37-2-2.37a2.74,2.74,0,0,0-2.38,1.44v5.85a.47.47,0,0,1-.45.46H1271a.47.47,0,0,1-.45-.46Z"/><path d="M1293.21,40.06a5,5,0,1,1-4.85,5A5,5,0,0,1,1293.21,40.06Zm0,8a2.86,2.86,0,0,0,2.71-3,2.72,2.72,0,1,0-5.42,0A2.86,2.86,0,0,0,1293.21,48.08Z"/><path d="M1304.78,40.06a4.27,4.27,0,0,1,3.48,1.7.48.48,0,0,1-.1.68l-.79.72c-.29.26-.46.07-.65-.1a2.67,2.67,0,0,0-1.92-.91A3,3,0,1,0,1307,47a.45.45,0,0,1,.65,0l.64.53c.24.19.34.43.17.67a4.25,4.25,0,0,1-3.72,2,5,5,0,0,1-5-5A5.1,5.1,0,0,1,1304.78,40.06Z"/><path d="M1310.87,40.76a.48.48,0,0,1,.46-.46h.69a.45.45,0,0,1,.41.34l.27.81a3.39,3.39,0,0,1,2.8-1.39c.92,0,2,.24,1.76.89l-.58,1.17a.41.41,0,0,1-.58.22,2.19,2.19,0,0,0-.81-.17,2.52,2.52,0,0,0-2.16,1.18v6.09c0,.41-.27.46-.65.46h-1.15a.48.48,0,0,1-.46-.46Z"/><path d="M1322.08,43.83a6.89,6.89,0,0,1,1.9.29c0-1.52-.27-2.12-1.49-2.12a9.84,9.84,0,0,0-2.69.44c-.29.07-.46-.12-.53-.39l-.19-.89a.43.43,0,0,1,.31-.55,10,10,0,0,1,3.31-.55c3.08,0,3.36,1.87,3.36,4.27v5.11a.47.47,0,0,1-.45.46h-.67c-.22,0-.32-.1-.41-.34l-.24-.64a4.17,4.17,0,0,1-3,1.22,3,3,0,0,1-3.1-3.22C1318.24,45.17,1319.63,43.83,1322.08,43.83Zm-.29,4.61a2.84,2.84,0,0,0,2.16-1.2V45.7a3.54,3.54,0,0,0-1.68-.38c-1.15,0-1.94.6-1.94,1.58A1.44,1.44,0,0,0,1321.79,48.44Z"/><path d="M1329.71,42.29h-1a.45.45,0,0,1-.45-.45V40.76a.44.44,0,0,1,.45-.46h1V37.64a.48.48,0,0,1,.46-.46l1.37,0a.44.44,0,0,1,.43.45V40.3h2.45a.44.44,0,0,1,.45.46v1.08a.45.45,0,0,1-.45.45H1332V47c0,.82.31,1,.77,1a3.81,3.81,0,0,0,1.46-.43.36.36,0,0,1,.55.22l.43,1.05a.4.4,0,0,1-.21.58,7.46,7.46,0,0,1-2.81.72c-1.9,0-2.45-1.15-2.45-2.86Z"/><path d="M1337.13,35a1.38,1.38,0,0,1,1.37-1.42,1.41,1.41,0,1,1,0,2.81A1.38,1.38,0,0,1,1337.13,35Zm.26,5.76a.48.48,0,0,1,.46-.46h1.37a.47.47,0,0,1,.45.46v8.68a.47.47,0,0,1-.45.46h-1.37a.48.48,0,0,1-.46-.46Z"/><path d="M1347.11,40.06a4.26,4.26,0,0,1,3.48,1.7.48.48,0,0,1-.09.68l-.8.72c-.28.26-.45.07-.65-.1a2.65,2.65,0,0,0-1.92-.91,3,3,0,1,0,2.21,4.82.45.45,0,0,1,.65,0l.65.53c.24.19.34.43.17.67a4.26,4.26,0,0,1-3.72,2,5,5,0,0,1-5-5A5.11,5.11,0,0,1,1347.11,40.06Z"/><path d="M1260.84,62.35a.46.46,0,0,1,.46-.45h5.47a5.35,5.35,0,1,1,0,10.7h-3.48v5.64a.48.48,0,0,1-.46.46h-1.56a.47.47,0,0,1-.46-.46Zm5.79,7.9a3.06,3.06,0,0,0,3-3.07,3,3,0,0,0-3-2.88h-3.31v6Z"/><path d="M1273.76,69.56a.47.47,0,0,1,.45-.46h.7a.45.45,0,0,1,.41.34l.26.81a3.43,3.43,0,0,1,2.81-1.39c.91,0,2,.24,1.75.89l-.58,1.17a.4.4,0,0,1-.57.22,2.3,2.3,0,0,0-.82-.17,2.54,2.54,0,0,0-2.16,1.18v6.09c0,.41-.26.46-.65.46h-1.15a.47.47,0,0,1-.45-.46Z"/><path d="M1281.56,63.79a1.37,1.37,0,0,1,1.36-1.41,1.41,1.41,0,1,1,0,2.81A1.38,1.38,0,0,1,1281.56,63.79Zm.26,5.77a.48.48,0,0,1,.46-.46h1.36a.48.48,0,0,1,.46.46v8.68a.48.48,0,0,1-.46.46h-1.36a.48.48,0,0,1-.46-.46Z"/><path d="M1287.22,69.56a.48.48,0,0,1,.46-.46h.67a.43.43,0,0,1,.41.29l.26.81a4.5,4.5,0,0,1,3.17-1.34,3.54,3.54,0,0,1,3.09,1.54,5.34,5.34,0,0,1,3.48-1.54c2.93,0,4,2.06,4,4.56v4.82a.46.46,0,0,1-.45.46h-1.35a.46.46,0,0,1-.45-.46V73.32c0-1.51-.7-2.37-2-2.37a3.49,3.49,0,0,0-2.48,1.17,6.48,6.48,0,0,1,.08,1.16v5a.48.48,0,0,1-.46.46h-1.27a.46.46,0,0,1-.46-.46V73.32c0-1.53-.69-2.37-2-2.37a2.72,2.72,0,0,0-2.37,1.44v5.85a.48.48,0,0,1-.46.46h-1.34a.48.48,0,0,1-.46-.46Z"/><path d="M1308.87,72.63a6.78,6.78,0,0,1,1.89.29c0-1.52-.26-2.12-1.48-2.12a9.84,9.84,0,0,0-2.69.44c-.29.07-.46-.12-.53-.39l-.19-.89a.42.42,0,0,1,.31-.55,10,10,0,0,1,3.31-.55c3.07,0,3.36,1.87,3.36,4.27v5.11a.47.47,0,0,1-.45.46h-.68c-.21,0-.31-.1-.4-.34l-.24-.64a4.18,4.18,0,0,1-3,1.22,3,3,0,0,1-3.09-3.22C1305,74,1306.42,72.63,1308.87,72.63Zm-.29,4.61a2.84,2.84,0,0,0,2.16-1.2V74.5a3.58,3.58,0,0,0-1.68-.38c-1.15,0-1.94.6-1.94,1.58A1.44,1.44,0,0,0,1308.58,77.24Z"/><path d="M1315.88,69.56a.47.47,0,0,1,.45-.46h.7a.45.45,0,0,1,.41.34l.26.81a3.43,3.43,0,0,1,2.81-1.39c.91,0,2,.24,1.75.89l-.58,1.17a.4.4,0,0,1-.57.22,2.3,2.3,0,0,0-.82-.17,2.54,2.54,0,0,0-2.16,1.18v6.09c0,.41-.26.46-.65.46h-1.15a.47.47,0,0,1-.45-.46Z"/><path d="M1323,69.72a.42.42,0,0,1,.41-.62H1325a.52.52,0,0,1,.4.26l3,6.39h0l2.89-6.39a.48.48,0,0,1,.5-.26h1.37a.41.41,0,0,1,.41.62l-7.35,15.89a.46.46,0,0,1-.41.29h-1.44a.43.43,0,0,1-.41-.65l3.22-6.89Z"/><path d="M1437.72,51.44a.46.46,0,0,1,.46-.46h5.47a5.35,5.35,0,1,1,0,10.7h-3.48v5.64a.47.47,0,0,1-.45.46h-1.56a.46.46,0,0,1-.46-.46Zm5.78,7.89a3.05,3.05,0,0,0,3-3.07,3,3,0,0,0-3-2.88h-3.31v5.95Z"/><path d="M1450.63,58.64a.48.48,0,0,1,.46-.46h.69a.45.45,0,0,1,.41.34l.27.81a3.39,3.39,0,0,1,2.8-1.39c.92,0,2,.24,1.76.89l-.58,1.17a.4.4,0,0,1-.57.22,2.3,2.3,0,0,0-.82-.17,2.52,2.52,0,0,0-2.16,1.18v6.09c0,.41-.27.46-.65.46h-1.15a.48.48,0,0,1-.46-.46Z"/><path d="M1462.73,57.94a4.32,4.32,0,0,1,4.42,4.44c0,.17,0,.48-.05.65a.45.45,0,0,1-.43.41h-6.53A2.78,2.78,0,0,0,1462.9,66a4.1,4.1,0,0,0,2.13-.69c.29-.17.46-.27.65,0l.67.92a.37.37,0,0,1,0,.62,5.54,5.54,0,0,1-3.56,1.2,5,5,0,0,1,0-10.08Zm2.18,4a2.26,2.26,0,0,0-2.2-2.13,2.42,2.42,0,0,0-2.45,2.13Z"/><path d="M1468.87,66.53l.51-.93a.4.4,0,0,1,.6-.12,5,5,0,0,0,2.23.62c.72,0,1.17-.29,1.17-.82s-.52-1-1.84-1.56c-1.49-.64-2.74-1.56-2.74-3.14,0-1.2,1-2.64,3.29-2.64a5.41,5.41,0,0,1,2.83.74.53.53,0,0,1,.19.7l-.43.82a.51.51,0,0,1-.62.19,5.47,5.47,0,0,0-2-.51c-.82,0-1.08.36-1.08.72,0,.63.6.89,1.53,1.3,1.76.77,3.2,1.51,3.2,3.31,0,1.49-1.42,2.81-3.56,2.81a5.07,5.07,0,0,1-3.16-1A.42.42,0,0,1,1468.87,66.53Z"/><path d="M1477.78,52.88a1.38,1.38,0,0,1,1.36-1.42,1.41,1.41,0,1,1,0,2.81A1.37,1.37,0,0,1,1477.78,52.88Zm.26,5.76a.48.48,0,0,1,.46-.46h1.37a.48.48,0,0,1,.45.46v8.68a.48.48,0,0,1-.45.46h-1.37a.48.48,0,0,1-.46-.46Z"/><path d="M1487.47,57.94a5.83,5.83,0,0,1,2.31.53v-7a.47.47,0,0,1,.45-.46h1.39a.47.47,0,0,1,.46.46V67.32a.47.47,0,0,1-.46.46h-.72c-.21,0-.36-.17-.43-.41l-.19-.69a4.29,4.29,0,0,1-3,1.34,4.76,4.76,0,0,1-4.49-5A4.85,4.85,0,0,1,1487.47,57.94Zm0,8a2.6,2.6,0,0,0,2.28-1.44V60.6a4,4,0,0,0-2.09-.57A2.78,2.78,0,0,0,1485,63,2.72,2.72,0,0,0,1487.52,66Z"/><path d="M1499.3,57.94a4.32,4.32,0,0,1,4.42,4.44,4.74,4.74,0,0,1,0,.65.44.44,0,0,1-.43.41h-6.53a2.78,2.78,0,0,0,2.76,2.56,4.11,4.11,0,0,0,2.14-.69c.29-.17.45-.27.65,0l.67.92c.17.19.24.38,0,.62a5.51,5.51,0,0,1-3.55,1.2,5,5,0,0,1,0-10.08Zm2.19,4a2.26,2.26,0,0,0-2.21-2.13,2.43,2.43,0,0,0-2.45,2.13Z"/><path d="M1506,58.64a.48.48,0,0,1,.46-.46h.7a.39.39,0,0,1,.38.29l.29.81a4.93,4.93,0,0,1,3.36-1.34c2.93,0,4,2.06,4,4.56v4.82a.48.48,0,0,1-.46.46h-1.37a.46.46,0,0,1-.45-.46V62.4c0-1.53-.75-2.37-2-2.37a3.16,3.16,0,0,0-2.66,1.44v5.85c0,.32-.14.46-.55.46h-1.25a.48.48,0,0,1-.46-.46Z"/><path d="M1518.77,60.17h-1a.46.46,0,0,1-.46-.45V58.64a.45.45,0,0,1,.46-.46h1V55.52a.47.47,0,0,1,.45-.46l1.37,0a.44.44,0,0,1,.43.45v2.69h2.45a.44.44,0,0,1,.46.46v1.08a.45.45,0,0,1-.46.45H1521v4.75c0,.82.32,1,.77,1a3.81,3.81,0,0,0,1.47-.43c.31-.14.45,0,.55.22l.43,1a.4.4,0,0,1-.22.58,7.4,7.4,0,0,1-2.8.72c-1.9,0-2.45-1.15-2.45-2.86Z"/><path d="M1526.18,52.88a1.38,1.38,0,0,1,1.37-1.42,1.41,1.41,0,1,1,0,2.81A1.38,1.38,0,0,1,1526.18,52.88Zm.27,5.76a.47.47,0,0,1,.45-.46h1.37a.48.48,0,0,1,.46.46v8.68a.48.48,0,0,1-.46.46h-1.37a.47.47,0,0,1-.45-.46Z"/><path d="M1535,61.71a6.89,6.89,0,0,1,1.9.29c0-1.52-.27-2.12-1.49-2.12a10,10,0,0,0-2.69.44c-.29.07-.46-.12-.53-.39L1532,59a.43.43,0,0,1,.31-.55,10,10,0,0,1,3.32-.55c3.07,0,3.36,1.87,3.36,4.27v5.11a.48.48,0,0,1-.46.46h-.67c-.22,0-.31-.1-.41-.34l-.24-.64a4.15,4.15,0,0,1-3,1.22,3,3,0,0,1-3.1-3.22C1531.15,63.05,1532.54,61.71,1535,61.71Zm-.29,4.61a2.83,2.83,0,0,0,2.16-1.2V63.58a3.54,3.54,0,0,0-1.68-.38c-1.15,0-1.94.6-1.94,1.58A1.45,1.45,0,0,0,1534.7,66.32Z"/><path d="M1542,51.44a.48.48,0,0,1,.46-.46h1.36a.48.48,0,0,1,.46.46V67.32a.48.48,0,0,1-.46.46h-1.36a.48.48,0,0,1-.46-.46Z"/><path d="M1652.81,65.48c.21-.32.41-.68.62-1a.55.55,0,0,1,.82-.19,7,7,0,0,0,3.84,1.66c1.65,0,2.71-1,2.71-2.24,0-1.44-1.25-2.35-3.62-3.33s-4.37-2.31-4.37-5.09c0-1.87,1.44-4.44,5.25-4.44a8.1,8.1,0,0,1,4.44,1.42.56.56,0,0,1,.15.81l-.6.91a.56.56,0,0,1-.84.24A7.48,7.48,0,0,0,1658,53c-2,0-2.71,1.28-2.71,2.16,0,1.37,1,2.21,3,3,2.79,1.13,5.16,2.45,5.16,5.37,0,2.5-2.23,4.54-5.35,4.54a7.78,7.78,0,0,1-5.16-1.9C1652.74,66.05,1652.57,65.88,1652.81,65.48Z"/><path d="M1670.11,58.06a4.32,4.32,0,0,1,4.42,4.44c0,.17,0,.48,0,.65a.44.44,0,0,1-.43.41h-6.53a2.78,2.78,0,0,0,2.76,2.56,4.14,4.14,0,0,0,2.14-.69c.28-.17.45-.27.64,0l.68.92a.37.37,0,0,1,0,.62,5.54,5.54,0,0,1-3.55,1.2,5,5,0,0,1,0-10.08Zm2.19,4a2.28,2.28,0,0,0-2.21-2.13,2.42,2.42,0,0,0-2.45,2.13Z"/><path d="M1676.83,58.76a.48.48,0,0,1,.46-.46h.69a.4.4,0,0,1,.39.29l.29.81a4.87,4.87,0,0,1,3.35-1.34c2.93,0,4,2.06,4,4.56v4.82a.47.47,0,0,1-.45.46h-1.37a.47.47,0,0,1-.46-.46V62.52c0-1.53-.74-2.37-2-2.37a3.16,3.16,0,0,0-2.66,1.44v5.85c0,.32-.15.46-.55.46h-1.25a.48.48,0,0,1-.46-.46Z"/><path d="M1692.17,61.83a6.78,6.78,0,0,1,1.89.29c0-1.52-.26-2.12-1.48-2.12a9.84,9.84,0,0,0-2.69.44c-.29.07-.46-.12-.53-.39l-.19-.89a.42.42,0,0,1,.31-.55,10,10,0,0,1,3.31-.55c3.07,0,3.36,1.87,3.36,4.27v5.11a.47.47,0,0,1-.45.46H1695c-.21,0-.31-.1-.4-.34l-.24-.64a4.18,4.18,0,0,1-3,1.22,3,3,0,0,1-3.09-3.22C1688.33,63.17,1689.72,61.83,1692.17,61.83Zm-.29,4.61a2.84,2.84,0,0,0,2.16-1.2V63.7a3.58,3.58,0,0,0-1.68-.38c-1.15,0-1.94.6-1.94,1.58A1.44,1.44,0,0,0,1691.88,66.44Z"/><path d="M1699.8,60.29h-1a.46.46,0,0,1-.46-.45V58.76a.45.45,0,0,1,.46-.46h1V55.64a.47.47,0,0,1,.45-.46l1.37,0a.44.44,0,0,1,.43.45V58.3h2.45a.44.44,0,0,1,.46.46v1.08a.45.45,0,0,1-.46.45h-2.45V65c0,.82.32,1,.77,1a3.81,3.81,0,0,0,1.47-.43c.31-.14.45,0,.55.22l.43,1a.4.4,0,0,1-.22.58,7.4,7.4,0,0,1-2.8.72c-1.9,0-2.45-1.15-2.45-2.86Z"/><path d="M1711.58,58.06A4.32,4.32,0,0,1,1716,62.5a4.74,4.74,0,0,1,0,.65.44.44,0,0,1-.43.41H1709a2.78,2.78,0,0,0,2.76,2.56,4.11,4.11,0,0,0,2.14-.69c.29-.17.45-.27.65,0l.67.92c.17.19.24.38,0,.62a5.51,5.51,0,0,1-3.55,1.2,5,5,0,0,1,0-10.08Zm2.19,4a2.26,2.26,0,0,0-2.21-2.13,2.42,2.42,0,0,0-2.45,2.13Z"/><path d="M23.22,70.32l2.19-2.23a.8.8,0,0,1,1.26,0,3.66,3.66,0,0,0,2.78,1.34c1.64,0,3.36-1.34,3.36-4.25V45.36a.8.8,0,0,1,.8-.8h4a.8.8,0,0,1,.8.8V65.22c0,5.85-3.91,9.22-8.84,9.22a8.1,8.1,0,0,1-6.4-3.07A.89.89,0,0,1,23.22,70.32Z"/><path d="M45.23,45.36a.83.83,0,0,1,.8-.8H50a.8.8,0,0,1,.8.8V56.51H64.46V45.36a.8.8,0,0,1,.8-.8h3.88a.83.83,0,0,1,.8.8V73.22a.83.83,0,0,1-.8.8H65.26a.8.8,0,0,1-.8-.8V61.6H50.75V73.22a.8.8,0,0,1-.8.8H46a.83.83,0,0,1-.8-.8Z"/><path d="M77.6,45.57a1,1,0,0,1,1-1h3.7a1,1,0,0,1,1,1V56.93L93.93,45a1,1,0,0,1,.8-.42h4.21a.89.89,0,0,1,.67,1.51l-11,12.38,11.78,14.1A.92.92,0,0,1,99.65,74H95.06a.88.88,0,0,1-.75-.3l-11-13.55V73a1,1,0,0,1-1,1h-3.7a1,1,0,0,1-1-1Z"/><path d="M114.47,45.36a.8.8,0,0,1,.8-.8H132.4a.8.8,0,0,1,.8.8v3.45a.8.8,0,0,1-.8.8H119.94v7.91h10.4a.83.83,0,0,1,.8.8v3.45a.83.83,0,0,1-.8.8h-10.4V73.22a.83.83,0,0,1-.8.8h-3.87a.8.8,0,0,1-.8-.8Z"/><path d="M142.75,56.76a8.84,8.84,0,1,1-8.62,8.8A8.78,8.78,0,0,1,142.75,56.76Zm0,13.14a4.2,4.2,0,0,0,4-4.34,4.05,4.05,0,1,0-4,4.34Z"/><path d="M155.13,58a.8.8,0,0,1,.8-.8h1.6a.79.79,0,0,1,.76.55l.58,1.64a5.89,5.89,0,0,1,4.76-2.61c2,0,3.75.64,3.24,1.69l-1.56,2.73a.74.74,0,0,1-1,.38,4.75,4.75,0,0,0-1.23-.25,3.39,3.39,0,0,0-3,1.73V73.22c0,.59-.38.8-1,.8h-3.24a.83.83,0,0,1-.8-.8Z"/><path d="M176.68,56.76a7.73,7.73,0,0,1,7.87,7.83,8.75,8.75,0,0,1-.09,1.14.81.81,0,0,1-.8.71H172.89a4,4,0,0,0,4,3.67,5.82,5.82,0,0,0,3.28-1.06c.42-.25.8-.33,1.1,0L183,71a.7.7,0,0,1,0,1.1,9.07,9.07,0,0,1-6.27,2.31,8.84,8.84,0,0,1,0-17.68Zm2.94,6.74a3.13,3.13,0,0,0-3.07-2.86,3.31,3.31,0,0,0-3.28,2.86Z"/><path d="M195.74,56.76a7.72,7.72,0,0,1,6.23,3,.8.8,0,0,1-.21,1.18l-1.93,1.85c-.38.34-.76.13-1.06-.12a3.94,3.94,0,0,0-2.9-1.35,4.22,4.22,0,0,0-4.12,4.29,4.17,4.17,0,0,0,4.08,4.3,4.39,4.39,0,0,0,3.37-1.6.78.78,0,0,1,1.05-.13l1.81,1.56c.42.33.59.75.29,1.17a7.48,7.48,0,0,1-6.65,3.54,8.88,8.88,0,0,1-8.92-8.84A9,9,0,0,1,195.74,56.76Z"/><path d="M211.53,63.37a10.89,10.89,0,0,1,3.07.46c0-2.14-.63-2.9-2.19-2.9a20.5,20.5,0,0,0-4.71.63c-.59.17-.89-.21-1-.76l-.38-2.18a.84.84,0,0,1,.59-1.06,22.87,22.87,0,0,1,5.72-.8c5.26,0,6.49,2.74,6.49,7.33v9.13a.83.83,0,0,1-.8.8h-1.52c-.29,0-.5-.13-.71-.59l-.51-1.14a7.2,7.2,0,0,1-5.13,2.15,5.38,5.38,0,0,1-5.69-5.77C204.79,65.69,207.24,63.37,211.53,63.37Zm.08,7.49a3.9,3.9,0,0,0,2.91-1.64V66.91a6.57,6.57,0,0,0-2.36-.51c-1.64,0-2.74.93-2.74,2.27A2.1,2.1,0,0,0,211.61,70.86Z"/><path d="M223.06,72l1.14-2.27a.64.64,0,0,1,1-.3,9.34,9.34,0,0,0,3.82,1c.85,0,1.44-.33,1.44-1s-.59-1.22-2.82-2.1c-3.24-1.27-4.76-3-4.76-5.56s1.89-5,6.19-5a9.64,9.64,0,0,1,5.17,1.31.9.9,0,0,1,.38,1.14l-1.05,2.14a.81.81,0,0,1-1,.3,9.89,9.89,0,0,0-3.49-.89c-1,0-1.43.42-1.43,1,0,.76.75,1,2.31,1.64,3.24,1.26,5.68,2.65,5.68,5.94,0,2.77-2.44,5.13-6.69,5.13a9.5,9.5,0,0,1-5.6-1.56A.72.72,0,0,1,223.06,72Z"/><path d="M240.19,61.6h-1.43a.79.79,0,0,1-.76-.8V58a.77.77,0,0,1,.76-.8h1.43V52.51a.83.83,0,0,1,.8-.8l3.45,0a.79.79,0,0,1,.76.8v4.71h3.7a.77.77,0,0,1,.8.8V60.8a.79.79,0,0,1-.8.8h-3.7v6.74c0,1.18.63,1.34,1.3,1.34a6.81,6.81,0,0,0,2.07-.46.65.65,0,0,1,.92.46l.84,2.66a.76.76,0,0,1-.46,1,16.11,16.11,0,0,1-5,1.09c-3.24,0-4.67-2-4.67-5.43Z"/><path d="M252.9,72,254,69.73a.64.64,0,0,1,1-.3,9.36,9.36,0,0,0,3.83,1c.84,0,1.43-.33,1.43-1s-.59-1.22-2.82-2.1c-3.24-1.27-4.76-3-4.76-5.56s1.9-5,6.19-5a9.64,9.64,0,0,1,5.17,1.31.9.9,0,0,1,.38,1.14l-1.05,2.14a.81.81,0,0,1-1,.3,9.89,9.89,0,0,0-3.49-.89c-1,0-1.43.42-1.43,1,0,.76.76,1,2.31,1.64,3.24,1.26,5.68,2.65,5.68,5.94,0,2.77-2.44,5.13-6.69,5.13a9.5,9.5,0,0,1-5.6-1.56A.72.72,0,0,1,252.9,72Z"/></svg>