<?xml version="1.0" encoding="utf-8"?>
<!-- Generator: Adobe Illustrator 24.1.0, SVG Export Plug-In . SVG Version: 6.00 Build 0)  -->
<svg version="1.1" id="Layer_1" xmlns="http://www.w3.org/2000/svg" xmlns:xlink="http://www.w3.org/1999/xlink" x="0px" y="0px"
	 viewBox="0 0 400 400" style="enable-background:new 0 0 400 400;" xml:space="preserve">
<style type="text/css">
	.st0{fill:#FFFFFF;stroke:#000000;stroke-width:1.7984;stroke-miterlimit:10;}
	.st1{fill:#010101;}
	.st2{fill:#EC2526;}
	.st3{fill:#ED2224;}
	.st4{fill:#7F7C7C;}
	.st5{fill:#706D6D;}
</style>
<path class="st0" d="M-94.16,83.72l-151.26,79.44c-5.25,2.76-11.81,0.72-14.57-4.54l-129.6-246.79c-2.76-5.25-0.72-11.81,4.54-14.57
	l151.26-79.44c5.25-2.76,11.81-0.72,14.57,4.54l129.6,246.79C-86.86,74.4-88.9,80.96-94.16,83.72z"/>
<path class="st1" d="M-137.37,60.51c0.73-1.5,1.84-2.59,3.35-3.24c2.37-1.03,4.65-0.23,5.95,2.04c0.72,1.27,1.01,2.59,0.5,4.01
	c-0.49,1.36-1.47,2.28-2.7,2.95c-1.16,0.62-2.4,0.91-3.72,0.88c-0.05,0-0.09,0-0.14,0c-0.02,0-0.03,0.02-0.07,0.04
	c0.51,0.26,0.98,0.56,1.4,0.93c1.31,1.14,2.19,2.55,2.58,4.25c0.53,2.32-0.49,4.39-2.65,5.38c-1.3,0.59-2.65,0.94-4.09,0.71
	c-1.62-0.26-2.72-1.21-3.31-2.71c-0.93-2.36-0.67-4.66,0.51-6.88c0.03-0.05,0.07-0.09,0.11-0.13c-0.02-0.02-0.03-0.03-0.05-0.05
	c-0.17,0.1-0.33,0.21-0.5,0.31c-0.18,0.1-0.36,0.21-0.55,0.3c-1.99,0.88-4,0.98-5.93-0.11c-1.84-1.03-2.5-2.72-2.3-4.76
	c0.23-2.37,1.96-3.74,4.03-4.07c1.49-0.23,2.9-0.01,4.24,0.67c0.18,0.09,0.33,0.27,0.59,0.29c-0.66-1.33-1.38-2.57-2.29-3.71
	c-0.92-1.16-2.16-1.92-3.41-2.76c3.2-0.88,6.33-1.74,9.53-2.62c-0.62,1.33-1.14,2.64-1.24,4.08
	C-137.63,57.71-137.57,59.11-137.37,60.51z"/>
<g>
	<path d="M-145.32,50.81c-0.41,0.25-0.77,0.18-1.01-0.2l-1.25-1.67c-0.26-0.34-0.23-0.72,0.32-1.08c1.36-0.89,5.29-4.26,5.31-8.03
		c-0.45,0.47-1.88,1.48-3.38,1.89c-3.18,0.88-7.13-0.57-8.38-5.11c-1.1-4.01,1.27-8.18,5.18-9.26c4.99-1.37,8.67,1.92,9.98,6.69
		C-135.99,43.32-142.83,49.17-145.32,50.81z M-150.1,35.68c0.56,2.04,2.64,3.27,4.68,2.72c2.1-0.58,2.89-2.54,2.93-3.78
		c-0.59-2.16-2.43-4.36-5-3.65C-149.5,31.51-150.65,33.67-150.1,35.68z"/>
</g>
<g>
	<path class="st1" d="M-288.01-75.12c-0.73,1.5-1.84,2.59-3.35,3.24c-2.37,1.03-4.65,0.23-5.95-2.04c-0.72-1.27-1.01-2.59-0.5-4.01
		c0.49-1.36,1.47-2.28,2.7-2.95c1.16-0.62,2.4-0.91,3.72-0.88c0.05,0,0.09,0,0.14,0c0.02,0,0.03-0.02,0.07-0.04
		c-0.51-0.26-0.98-0.56-1.4-0.93c-1.31-1.14-2.19-2.55-2.58-4.25c-0.53-2.32,0.49-4.39,2.65-5.38c1.3-0.59,2.65-0.94,4.09-0.71
		c1.62,0.26,2.72,1.21,3.31,2.71c0.93,2.36,0.67,4.66-0.51,6.88c-0.03,0.05-0.07,0.09-0.11,0.13c0.02,0.02,0.03,0.03,0.05,0.05
		c0.17-0.1,0.33-0.21,0.5-0.31c0.18-0.1,0.36-0.21,0.55-0.3c1.99-0.88,4-0.98,5.93,0.11c1.84,1.03,2.5,2.72,2.3,4.76
		c-0.23,2.37-1.96,3.74-4.03,4.07c-1.49,0.23-2.9,0.01-4.24-0.67c-0.18-0.09-0.33-0.27-0.59-0.29c0.66,1.33,1.38,2.57,2.29,3.71
		c0.92,1.16,2.16,1.92,3.41,2.76c-3.2,0.88-6.33,1.74-9.53,2.62c0.62-1.33,1.14-2.64,1.24-4.08
		C-287.76-72.33-287.81-73.73-288.01-75.12z"/>
	<path class="st1" d="M-236.1-89.4c-0.73,1.5-1.84,2.59-3.35,3.24c-2.37,1.03-4.65,0.23-5.95-2.04c-0.72-1.27-1.01-2.59-0.5-4.01
		c0.49-1.36,1.47-2.28,2.7-2.95c1.16-0.62,2.4-0.91,3.72-0.88c0.05,0,0.09,0,0.14,0c0.02,0,0.03-0.02,0.07-0.04
		c-0.51-0.26-0.98-0.56-1.4-0.93c-1.31-1.14-2.19-2.55-2.58-4.25c-0.53-2.32,0.49-4.39,2.65-5.38c1.3-0.59,2.65-0.94,4.09-0.71
		c1.62,0.26,2.72,1.21,3.31,2.71c0.93,2.36,0.67,4.66-0.51,6.88c-0.03,0.05-0.07,0.09-0.11,0.13c0.02,0.02,0.03,0.03,0.05,0.05
		c0.17-0.1,0.33-0.21,0.5-0.31c0.18-0.1,0.36-0.21,0.55-0.3c1.99-0.88,4-0.98,5.93,0.11c1.84,1.03,2.5,2.72,2.3,4.76
		c-0.23,2.37-1.96,3.74-4.03,4.07c-1.49,0.23-2.9,0.01-4.24-0.67c-0.18-0.09-0.33-0.27-0.59-0.29c0.66,1.33,1.38,2.57,2.29,3.71
		c0.92,1.16,2.16,1.92,3.41,2.76c-3.2,0.88-6.33,1.74-9.53,2.62c0.62-1.33,1.14-2.64,1.24-4.08
		C-235.84-86.61-235.9-88.01-236.1-89.4z"/>
	<path class="st1" d="M-273.81-23.07c-0.73,1.5-1.84,2.59-3.35,3.24c-2.37,1.03-4.65,0.23-5.95-2.04c-0.72-1.27-1.01-2.59-0.5-4.01
		c0.49-1.36,1.47-2.28,2.7-2.95c1.16-0.62,2.4-0.91,3.72-0.88c0.05,0,0.09,0,0.14,0c0.02,0,0.03-0.02,0.07-0.04
		c-0.51-0.26-0.98-0.56-1.4-0.93c-1.31-1.14-2.19-2.55-2.58-4.25c-0.53-2.32,0.49-4.39,2.65-5.38c1.3-0.59,2.65-0.94,4.09-0.71
		c1.62,0.26,2.72,1.21,3.31,2.71c0.93,2.36,0.67,4.66-0.51,6.88c-0.03,0.05-0.07,0.09-0.11,0.13c0.02,0.02,0.03,0.03,0.05,0.05
		c0.17-0.1,0.33-0.21,0.5-0.31c0.18-0.1,0.36-0.21,0.55-0.3c1.99-0.88,4-0.98,5.93,0.11c1.84,1.03,2.5,2.72,2.3,4.76
		c-0.23,2.37-1.96,3.74-4.03,4.07c-1.49,0.23-2.9,0.01-4.24-0.67c-0.18-0.09-0.33-0.27-0.59-0.29c0.66,1.33,1.38,2.57,2.29,3.71
		c0.92,1.16,2.16,1.92,3.41,2.76c-3.2,0.88-6.33,1.74-9.53,2.62c0.62-1.33,1.14-2.64,1.24-4.08
		C-273.55-20.28-273.61-21.68-273.81-23.07z"/>
	<path class="st1" d="M-221.78-37.38c-0.73,1.5-1.84,2.59-3.35,3.24c-2.37,1.03-4.65,0.23-5.95-2.04c-0.72-1.27-1.01-2.59-0.5-4.01
		c0.49-1.36,1.47-2.28,2.7-2.95c1.16-0.62,2.4-0.91,3.72-0.88c0.05,0,0.09,0,0.14,0c0.02,0,0.03-0.02,0.07-0.04
		c-0.51-0.26-0.98-0.56-1.4-0.93c-1.31-1.14-2.19-2.55-2.58-4.25c-0.53-2.32,0.49-4.39,2.65-5.38c1.3-0.59,2.65-0.94,4.09-0.71
		c1.62,0.26,2.72,1.21,3.31,2.71c0.93,2.36,0.67,4.66-0.51,6.88c-0.03,0.05-0.07,0.09-0.11,0.13c0.02,0.02,0.03,0.03,0.05,0.05
		c0.17-0.1,0.33-0.21,0.5-0.31c0.18-0.1,0.36-0.21,0.55-0.3c1.99-0.88,4-0.98,5.93,0.11c1.84,1.03,2.5,2.72,2.3,4.76
		c-0.23,2.37-1.96,3.74-4.03,4.07c-1.49,0.23-2.9,0.01-4.24-0.67c-0.18-0.09-0.33-0.27-0.59-0.29c0.66,1.33,1.38,2.57,2.29,3.71
		c0.92,1.16,2.16,1.92,3.41,2.76c-3.2,0.88-6.33,1.74-9.53,2.62c0.62-1.33,1.14-2.64,1.24-4.08
		C-221.53-34.59-221.58-35.99-221.78-37.38z"/>
	<path class="st1" d="M-258.69,28.73c-0.73,1.5-1.84,2.59-3.35,3.24c-2.37,1.03-4.65,0.23-5.95-2.04c-0.72-1.27-1.01-2.59-0.5-4.01
		c0.49-1.36,1.47-2.28,2.7-2.95c1.16-0.62,2.4-0.91,3.72-0.88c0.05,0,0.09,0,0.14,0c0.02,0,0.03-0.02,0.07-0.04
		c-0.51-0.26-0.98-0.56-1.4-0.93c-1.31-1.14-2.19-2.55-2.58-4.25c-0.53-2.32,0.49-4.39,2.65-5.38c1.3-0.59,2.65-0.94,4.09-0.71
		c1.62,0.26,2.72,1.21,3.31,2.71c0.93,2.36,0.67,4.66-0.51,6.88c-0.03,0.05-0.07,0.09-0.11,0.13c0.02,0.02,0.03,0.03,0.05,0.05
		c0.17-0.1,0.33-0.21,0.5-0.31c0.18-0.1,0.36-0.21,0.55-0.3c1.99-0.88,4-0.98,5.93,0.11c1.84,1.03,2.5,2.72,2.3,4.76
		c-0.23,2.37-1.96,3.74-4.03,4.07c-1.49,0.23-2.9,0.01-4.24-0.67c-0.18-0.09-0.33-0.27-0.59-0.29c0.66,1.33,1.38,2.57,2.29,3.71
		c0.92,1.16,2.16,1.92,3.41,2.76c-3.2,0.88-6.33,1.74-9.53,2.62c0.62-1.33,1.14-2.64,1.24-4.08
		C-258.43,31.52-258.49,30.12-258.69,28.73z"/>
	<path class="st1" d="M-206.67,14.41c-0.73,1.5-1.84,2.59-3.35,3.24c-2.37,1.03-4.65,0.23-5.95-2.04c-0.72-1.27-1.01-2.59-0.5-4.01
		c0.49-1.36,1.47-2.28,2.7-2.95c1.16-0.62,2.4-0.91,3.72-0.88c0.05,0,0.09,0,0.14,0c0.02,0,0.03-0.02,0.07-0.04
		c-0.51-0.26-0.98-0.56-1.4-0.93c-1.31-1.14-2.19-2.55-2.58-4.25c-0.53-2.32,0.49-4.39,2.65-5.38c1.3-0.59,2.65-0.94,4.09-0.71
		c1.62,0.26,2.72,1.21,3.31,2.71c0.93,2.36,0.67,4.66-0.51,6.88c-0.03,0.05-0.07,0.09-0.11,0.13c0.02,0.02,0.03,0.03,0.05,0.05
		c0.17-0.1,0.33-0.21,0.5-0.31c0.18-0.1,0.36-0.21,0.55-0.3c1.99-0.88,4-0.98,5.93,0.11c1.84,1.03,2.5,2.72,2.3,4.76
		c-0.23,2.37-1.96,3.74-4.03,4.07c-1.49,0.23-2.9,0.01-4.24-0.67c-0.18-0.09-0.33-0.27-0.59-0.29c0.66,1.33,1.38,2.57,2.29,3.71
		c0.92,1.16,2.16,1.92,3.41,2.76c-3.2,0.88-6.33,1.74-9.53,2.62c0.62-1.33,1.14-2.64,1.24-4.08
		C-206.41,17.21-206.47,15.81-206.67,14.41z"/>
</g>
<path class="st0" d="M-83.57,111.29l-162.86,51.65c-5.66,1.79-11.75-1.37-13.55-7.02l-84.27-265.71
	c-1.79-5.66,1.37-11.75,7.02-13.55l162.86-51.65c5.66-1.79,11.75,1.37,13.55,7.02l84.27,265.71
	C-74.75,103.4-77.91,109.5-83.57,111.29z"/>
<g>
	<path class="st2" d="M-326.35-106.86l-0.03-0.09c-1.51-0.28-4-1.39-4.78-3.85c-1.11-3.49,1.19-6.71,5-7.92
		c3.93-1.25,7.66,0.06,8.77,3.55c0.76,2.39-0.65,4.7-1.7,5.87l0.04,0.13c1.64,0.27,4.61,1.34,5.47,4.04
		c1.09,3.43-0.98,6.95-5.6,8.42c-4.5,1.43-8.21-0.27-9.3-3.69C-329.36-103.14-327.09-106.14-326.35-106.86z M-321.37-113.73
		c-0.48-1.51-2.14-2.26-3.77-1.74c-1.51,0.48-2.43,2.05-1.95,3.56c0.45,1.42,1.68,2.24,3.81,2.08
		C-321.48-110.9-320.94-112.38-321.37-113.73z M-320.15-99.94c1.73-0.55,2.9-2.2,2.35-3.93c-0.45-1.41-2.07-2.49-4.33-2.29
		c-1.96,1.14-2.66,2.95-2.21,4.37C-323.78-100.06-321.84-99.4-320.15-99.94z"/>
</g>
<g>
	<path class="st1" d="M-243.58-51.13c-0.92,1.39-2.16,2.32-3.74,2.78c-2.49,0.71-4.64-0.38-5.63-2.8c-0.55-1.35-0.66-2.7,0.02-4.04
		c0.66-1.28,1.75-2.07,3.06-2.57c1.23-0.47,2.5-0.59,3.8-0.39c0.05,0.01,0.09,0.01,0.14,0.01c0.02,0,0.03-0.01,0.08-0.03
		c-0.47-0.33-0.9-0.69-1.27-1.11c-1.15-1.3-1.84-2.81-2.01-4.55c-0.23-2.37,1.06-4.29,3.33-4.99c1.36-0.42,2.75-0.58,4.14-0.17
		c1.57,0.47,2.54,1.56,2.93,3.12c0.61,2.46,0.06,4.71-1.41,6.75c-0.03,0.05-0.08,0.08-0.12,0.12c0.02,0.02,0.03,0.04,0.05,0.06
		c0.18-0.08,0.35-0.17,0.53-0.24c0.19-0.08,0.38-0.16,0.58-0.22c2.09-0.61,4.09-0.45,5.87,0.88c1.69,1.26,2.12,3.03,1.66,5.02
		c-0.53,2.32-2.44,3.46-4.52,3.51c-1.51,0.04-2.88-0.37-4.12-1.22c-0.17-0.12-0.29-0.31-0.55-0.36c0.49,1.4,1.03,2.73,1.78,3.98
		c0.76,1.27,1.89,2.18,3.02,3.18c-3.29,0.46-6.5,0.9-9.79,1.36c0.78-1.24,1.48-2.47,1.76-3.89
		C-243.69-48.33-243.56-49.72-243.58-51.13z"/>
	<path class="st1" d="M-190.24-58.52c-0.92,1.39-2.16,2.32-3.74,2.78c-2.49,0.71-4.64-0.38-5.63-2.8c-0.55-1.35-0.66-2.7,0.02-4.04
		c0.66-1.28,1.75-2.07,3.06-2.57c1.23-0.47,2.5-0.59,3.8-0.39c0.05,0.01,0.09,0.01,0.14,0.01c0.02,0,0.03-0.01,0.08-0.03
		c-0.47-0.33-0.9-0.69-1.27-1.11c-1.15-1.3-1.84-2.81-2.01-4.55c-0.23-2.37,1.06-4.29,3.33-4.99c1.36-0.42,2.75-0.58,4.14-0.17
		c1.57,0.47,2.54,1.56,2.93,3.12c0.61,2.46,0.06,4.71-1.41,6.75c-0.03,0.05-0.08,0.08-0.12,0.12c0.02,0.02,0.03,0.04,0.05,0.06
		c0.18-0.08,0.35-0.17,0.53-0.24c0.19-0.08,0.38-0.16,0.58-0.22c2.09-0.61,4.09-0.45,5.87,0.88c1.69,1.26,2.12,3.03,1.66,5.02
		c-0.53,2.32-2.44,3.46-4.52,3.51c-1.51,0.04-2.88-0.37-4.12-1.22c-0.17-0.12-0.29-0.31-0.55-0.36c0.49,1.4,1.03,2.73,1.78,3.98
		c0.76,1.27,1.89,2.18,3.02,3.18c-3.29,0.46-6.5,0.9-9.79,1.36c0.78-1.24,1.48-2.47,1.76-3.89
		C-190.35-55.72-190.22-57.12-190.24-58.52z"/>
	<path class="st1" d="M-236.28,2.33c-0.92,1.39-2.16,2.32-3.74,2.78c-2.49,0.71-4.64-0.38-5.63-2.8c-0.55-1.35-0.66-2.7,0.02-4.04
		c0.66-1.28,1.75-2.07,3.06-2.57c1.23-0.47,2.5-0.59,3.8-0.39c0.05,0.01,0.09,0.01,0.14,0.01c0.02,0,0.03-0.01,0.08-0.03
		c-0.47-0.33-0.9-0.69-1.27-1.11c-1.15-1.3-1.84-2.81-2.01-4.55c-0.23-2.37,1.06-4.29,3.33-4.99c1.36-0.42,2.75-0.58,4.14-0.17
		c1.57,0.47,2.54,1.56,2.93,3.12c0.61,2.46,0.06,4.71-1.41,6.75c-0.03,0.05-0.08,0.08-0.12,0.12c0.02,0.02,0.03,0.04,0.05,0.06
		c0.18-0.08,0.35-0.17,0.53-0.24c0.19-0.08,0.38-0.16,0.58-0.22c2.09-0.61,4.09-0.45,5.87,0.88c1.69,1.26,2.12,3.03,1.66,5.02
		c-0.53,2.32-2.44,3.46-4.52,3.51c-1.51,0.04-2.88-0.37-4.12-1.22c-0.17-0.12-0.29-0.31-0.55-0.36c0.49,1.4,1.03,2.73,1.78,3.98
		c0.76,1.27,1.89,2.18,3.02,3.18c-3.29,0.46-6.5,0.9-9.79,1.36c0.78-1.24,1.48-2.47,1.76-3.89C-236.38,5.13-236.26,3.73-236.28,2.33
		z"/>
	<path class="st1" d="M-182.83-5.08c-0.92,1.39-2.16,2.32-3.74,2.78c-2.49,0.71-4.64-0.38-5.63-2.8c-0.55-1.35-0.66-2.7,0.02-4.04
		c0.66-1.28,1.75-2.07,3.06-2.57c1.23-0.47,2.5-0.59,3.8-0.39c0.05,0.01,0.09,0.01,0.14,0.01c0.02,0,0.03-0.01,0.08-0.03
		c-0.47-0.33-0.9-0.69-1.27-1.11c-1.15-1.3-1.84-2.81-2.01-4.55c-0.23-2.37,1.06-4.29,3.33-4.99c1.36-0.42,2.75-0.58,4.14-0.17
		c1.57,0.47,2.54,1.56,2.93,3.12c0.61,2.46,0.06,4.71-1.41,6.75c-0.03,0.05-0.08,0.08-0.12,0.12c0.02,0.02,0.03,0.04,0.05,0.06
		c0.18-0.08,0.35-0.17,0.53-0.24c0.19-0.08,0.38-0.16,0.58-0.22c2.09-0.61,4.09-0.45,5.87,0.88c1.69,1.26,2.12,3.03,1.66,5.02
		c-0.53,2.32-2.44,3.46-4.52,3.51c-1.51,0.04-2.88-0.37-4.12-1.22c-0.17-0.12-0.29-0.31-0.55-0.36c0.49,1.4,1.03,2.73,1.78,3.98
		c0.76,1.27,1.89,2.18,3.02,3.18c-3.29,0.46-6.5,0.9-9.79,1.36c0.78-1.24,1.48-2.47,1.76-3.89C-182.94-2.28-182.82-3.67-182.83-5.08
		z"/>
	<path class="st1" d="M-228.04,55.65c-0.92,1.39-2.16,2.32-3.74,2.78c-2.49,0.71-4.64-0.38-5.63-2.8c-0.55-1.35-0.66-2.7,0.02-4.04
		c0.66-1.28,1.75-2.07,3.06-2.57c1.23-0.47,2.5-0.59,3.8-0.39c0.05,0.01,0.09,0.01,0.14,0.01c0.02,0,0.03-0.01,0.08-0.03
		c-0.47-0.33-0.9-0.69-1.27-1.11c-1.15-1.3-1.84-2.81-2.01-4.55c-0.23-2.37,1.06-4.29,3.33-4.99c1.36-0.42,2.75-0.58,4.14-0.17
		c1.57,0.47,2.54,1.56,2.93,3.12c0.61,2.46,0.06,4.71-1.41,6.75c-0.03,0.05-0.08,0.08-0.12,0.12c0.02,0.02,0.03,0.04,0.05,0.06
		c0.18-0.08,0.35-0.17,0.53-0.24c0.19-0.08,0.38-0.16,0.58-0.22c2.09-0.61,4.09-0.45,5.87,0.88c1.69,1.26,2.12,3.03,1.66,5.02
		c-0.53,2.32-2.44,3.46-4.52,3.51c-1.51,0.04-2.88-0.37-4.12-1.22c-0.17-0.12-0.29-0.31-0.55-0.36c0.49,1.4,1.03,2.73,1.78,3.98
		c0.76,1.27,1.89,2.18,3.02,3.18c-3.29,0.46-6.5,0.9-9.79,1.36c0.78-1.24,1.48-2.47,1.76-3.89
		C-228.15,58.45-228.02,57.06-228.04,55.65z"/>
	<path class="st1" d="M-174.6,48.25c-0.92,1.39-2.16,2.32-3.74,2.78c-2.49,0.71-4.64-0.38-5.63-2.8c-0.55-1.35-0.66-2.7,0.02-4.04
		c0.66-1.28,1.75-2.07,3.06-2.57c1.23-0.47,2.5-0.59,3.8-0.39c0.05,0.01,0.09,0.01,0.14,0.01c0.02,0,0.03-0.01,0.08-0.03
		c-0.47-0.33-0.9-0.69-1.27-1.11c-1.15-1.3-1.84-2.81-2.01-4.55c-0.23-2.37,1.06-4.29,3.33-4.99c1.36-0.42,2.75-0.58,4.14-0.17
		c1.57,0.47,2.54,1.56,2.93,3.12c0.61,2.46,0.06,4.71-1.41,6.75c-0.03,0.05-0.08,0.08-0.12,0.12c0.02,0.02,0.03,0.04,0.05,0.06
		c0.18-0.08,0.35-0.17,0.53-0.24c0.19-0.08,0.38-0.16,0.58-0.22c2.09-0.61,4.09-0.45,5.87,0.88c1.69,1.26,2.12,3.03,1.66,5.02
		c-0.53,2.32-2.44,3.46-4.52,3.51c-1.51,0.04-2.88-0.37-4.12-1.22c-0.17-0.12-0.29-0.31-0.55-0.36c0.49,1.4,1.03,2.73,1.78,3.98
		c0.76,1.27,1.89,2.18,3.02,3.18c-3.29,0.46-6.5,0.9-9.79,1.36c0.78-1.24,1.48-2.47,1.76-3.89
		C-174.71,51.05-174.58,49.65-174.6,48.25z"/>
</g>
<path class="st1" d="M-115.53,67.02c0.78-1.47,1.94-2.52,3.47-3.11c2.41-0.94,4.66-0.06,5.87,2.27c0.67,1.29,0.91,2.63,0.35,4.02
	c-0.54,1.34-1.55,2.22-2.81,2.84c-1.18,0.58-2.43,0.82-3.75,0.74c-0.05,0-0.09,0-0.14,0c-0.02,0-0.03,0.02-0.07,0.04
	c0.5,0.28,0.96,0.6,1.36,0.98c1.27,1.19,2.09,2.63,2.42,4.34c0.45,2.33-0.65,4.37-2.85,5.28c-1.32,0.54-2.68,0.83-4.11,0.55
	c-1.61-0.32-2.67-1.32-3.21-2.83c-0.84-2.39-0.5-4.68,0.77-6.85c0.03-0.05,0.07-0.09,0.11-0.13c-0.02-0.02-0.03-0.03-0.05-0.05
	c-0.17,0.1-0.34,0.2-0.51,0.29c-0.18,0.1-0.37,0.2-0.56,0.28c-2.03,0.81-4.03,0.83-5.93-0.33c-1.8-1.1-2.39-2.82-2.12-4.85
	c0.31-2.36,2.1-3.67,4.18-3.91c1.5-0.18,2.9,0.1,4.22,0.83c0.18,0.1,0.32,0.28,0.58,0.31c-0.61-1.35-1.28-2.62-2.15-3.79
	c-0.88-1.19-2.08-2-3.3-2.89c3.23-0.76,6.39-1.5,9.62-2.26c-0.66,1.31-1.24,2.6-1.4,4.03C-115.68,64.23-115.68,65.63-115.53,67.02z"
	/>
<g>
	<path d="M-371.47-88.43l-0.05-0.09c-1.54-0.01-4.19-0.67-5.38-2.95c-1.7-3.24,0-6.81,3.53-8.67c3.65-1.92,7.55-1.29,9.26,1.96
		c1.17,2.22,0.18,4.75-0.65,6.08l0.06,0.12c1.67-0.02,4.78,0.51,6.09,3.02c1.67,3.18,0.26,7.01-4.03,9.27
		c-4.17,2.19-8.13,1.18-9.8-2C-373.78-84.24-372.07-87.59-371.47-88.43z M-367.77-96.07c-0.74-1.4-2.5-1.85-4.02-1.06
		c-1.4,0.74-2.03,2.44-1.29,3.85c0.69,1.31,2.04,1.91,4.11,1.38C-367.38-93.26-367.12-94.81-367.77-96.07z M-364.14-82.7
		c1.61-0.84,2.47-2.67,1.62-4.28c-0.69-1.31-2.48-2.09-4.66-1.5c-1.73,1.46-2.1,3.38-1.41,4.69
		C-367.75-82.19-365.72-81.88-364.14-82.7z"/>
</g>
<path class="st1" d="M-351.69-50.68c0-0.07,0-0.13,0.01-0.2c0.38-1.92,0.12-3.81-0.26-5.7c-0.04-0.2-0.09-0.4-0.13-0.64
	c-0.57,0.92-1.24,1.72-2.07,2.35c-1.73,1.31-3.64,1.94-5.8,1.31c-1.52-0.44-2.53-1.48-3.12-2.93c-0.72-1.77-0.64-3.6-0.32-5.44
	c0.21-1.25,0.65-2.44,1.02-3.64c0.92-2.98,1.46-6.04,1.75-9.14c0.05-0.52,0.05-0.53,0.5-0.25c3.11,1.96,6.49,3.27,10.03,4.21
	c2.14,0.57,4.04,1.64,5.5,3.39c0.16,0.19,0.26,0.44,0.47,0.59c0.03,0.05,0.05,0.1,0.08,0.15c0.06,0.23,0.17,0.43,0.32,0.61
	c0.03,0.05,0.05,0.1,0.08,0.15c0.23,0.55,0.39,1.11,0.43,1.71c0.07,1.17-0.23,2.24-0.87,3.21c-1.14,1.71-2.8,2.57-4.78,2.9
	c-0.45,0.08-0.91,0.11-1.34,0.1c-0.04,0.04-0.05,0.06-0.04,0.07c0.94,1.13,1.94,2.19,3.24,2.92c0.43,0.24,0.89,0.4,1.34,0.57
	c0.14,0.05,0.29,0.1,0.41,0.19c0.07,0.05,0.11,0.11,0,0.17c-2.05,1.07-4.1,2.15-6.15,3.22C-351.49-50.74-351.57-50.66-351.69-50.68z
	"/>
<path class="st3" d="M-309.85-67.07c-0.52-0.64-0.95-1.34-1.49-1.97c-1.5-1.73-3.28-3.14-5.15-4.45c-2.18-1.52-4.44-2.9-6.63-4.4
	c-1.34-0.92-2.59-1.92-3.51-3.28c-1.75-2.59-1.43-5.37,0.56-7.33c2.18-2.14,5.59-2.37,8.1-0.62c0.63,0.44,1.17,0.99,1.72,1.59
	c0.03-0.21,0.04-0.37,0.07-0.53c0.29-1.99,1.11-3.69,2.79-4.84c2.23-1.52,5.3-1.68,7.49,0.23c1.22,1.06,1.73,2.46,1.82,4.03
	c0.11,1.89-0.31,3.7-0.93,5.47c-0.7,1.99-1.58,3.9-2.35,5.86c-0.92,2.34-1.72,4.71-2.07,7.21c-0.12,0.86-0.17,1.72-0.18,2.58
	c0,0.17-0.02,0.33-0.17,0.44C-309.82-67.09-309.84-67.08-309.85-67.07z"/>
<path class="st0" d="M-142.46,163.87l-169.2-23.7c-5.88-0.82-10.01-6.31-9.19-12.18l38.67-276.06c0.82-5.88,6.31-10.01,12.18-9.19
	l169.2,23.7c5.88,0.82,10.01,6.31,9.19,12.18l-38.67,276.06C-131.1,160.56-136.59,164.69-142.46,163.87z"/>
<path class="st1" d="M-150.24,114.68c1.31-1.03,2.79-1.52,4.43-1.45c2.58,0.11,4.28,1.83,4.45,4.44c0.09,1.45-0.23,2.77-1.3,3.82
	c-1.03,1.01-2.32,1.41-3.72,1.46c-1.31,0.05-2.56-0.23-3.73-0.84c-0.04-0.02-0.09-0.04-0.13-0.06c-0.02-0.01-0.04,0-0.08,0.01
	c0.34,0.46,0.63,0.94,0.85,1.45c0.68,1.6,0.85,3.25,0.46,4.95c-0.53,2.32-2.36,3.74-4.74,3.68c-1.43-0.03-2.79-0.32-3.98-1.15
	c-1.35-0.94-1.92-2.28-1.79-3.89c0.2-2.53,1.43-4.49,3.47-5.96c0.05-0.03,0.1-0.05,0.15-0.07c-0.01-0.02-0.02-0.04-0.03-0.07
	c-0.19,0.02-0.39,0.05-0.58,0.06c-0.21,0.02-0.42,0.03-0.62,0.03c-2.18-0.08-4.03-0.87-5.29-2.69c-1.2-1.74-1.05-3.54,0.02-5.29
	c1.24-2.03,3.41-2.5,5.4-1.89c1.44,0.44,2.61,1.26,3.52,2.46c0.12,0.16,0.18,0.39,0.4,0.51c-0.02-1.49-0.11-2.92-0.43-4.34
	c-0.32-1.44-1.1-2.67-1.85-3.98c3.26,0.61,6.45,1.21,9.71,1.82c-1.14,0.93-2.18,1.88-2.91,3.13
	C-149.25,112.06-149.81,113.34-150.24,114.68z"/>
<g>
	<path d="M-153.14,102.48c-0.48,0.05-0.77-0.18-0.82-0.62l-0.39-2.05c-0.09-0.42,0.11-0.75,0.76-0.83c1.61-0.2,6.62-1.51,8.29-4.89
		c-0.61,0.22-2.34,0.5-3.86,0.22c-3.24-0.61-6.16-3.63-5.3-8.27c0.76-4.08,4.73-6.8,8.71-6.05c5.09,0.95,6.95,5.53,6.04,10.39
		C-141.47,99.83-150.18,102.1-153.14,102.48z M-150.81,86.78c-0.39,2.07,0.94,4.1,3.02,4.49c2.14,0.4,3.71-1.02,4.29-2.12
		c0.41-2.2-0.28-4.98-2.9-5.47C-148.44,83.3-150.42,84.74-150.81,86.78z"/>
</g>
<g>
	<path class="st1" d="M-226.26-73.23c-1.31,1.03-2.79,1.52-4.43,1.45c-2.58-0.11-4.28-1.83-4.45-4.44c-0.09-1.45,0.23-2.77,1.3-3.82
		c1.03-1.01,2.32-1.41,3.72-1.46c1.31-0.05,2.56,0.23,3.73,0.84c0.04,0.02,0.09,0.04,0.13,0.06c0.02,0.01,0.04,0,0.08-0.01
		c-0.34-0.46-0.63-0.94-0.85-1.45c-0.68-1.6-0.85-3.25-0.46-4.95c0.53-2.32,2.36-3.74,4.74-3.68c1.43,0.03,2.79,0.32,3.98,1.15
		c1.35,0.94,1.92,2.28,1.79,3.89c-0.2,2.53-1.43,4.49-3.47,5.96c-0.05,0.03-0.1,0.05-0.15,0.07c0.01,0.02,0.02,0.04,0.03,0.07
		c0.19-0.02,0.39-0.05,0.58-0.06c0.21-0.02,0.42-0.03,0.62-0.03c2.18,0.08,4.03,0.87,5.29,2.69c1.2,1.74,1.05,3.54-0.02,5.29
		c-1.24,2.03-3.41,2.5-5.4,1.89c-1.44-0.44-2.61-1.26-3.52-2.46c-0.12-0.16-0.18-0.39-0.4-0.51c0.02,1.49,0.11,2.92,0.43,4.34
		c0.32,1.44,1.1,2.67,1.85,3.98c-3.26-0.61-6.45-1.21-9.71-1.82c1.14-0.93,2.18-1.88,2.91-3.13
		C-227.25-70.61-226.69-71.89-226.26-73.23z"/>
	<path class="st1" d="M-173.33-63.33c-1.31,1.03-2.79,1.52-4.43,1.45c-2.58-0.11-4.28-1.83-4.45-4.44c-0.09-1.45,0.23-2.77,1.3-3.82
		c1.03-1.01,2.32-1.41,3.72-1.46c1.31-0.05,2.56,0.23,3.73,0.84c0.04,0.02,0.09,0.04,0.13,0.06c0.02,0.01,0.04,0,0.08-0.01
		c-0.34-0.46-0.63-0.94-0.85-1.45c-0.68-1.6-0.85-3.25-0.46-4.95c0.53-2.32,2.36-3.74,4.74-3.68c1.43,0.03,2.79,0.32,3.98,1.15
		c1.35,0.94,1.92,2.28,1.79,3.89c-0.2,2.53-1.43,4.49-3.47,5.96c-0.05,0.03-0.1,0.05-0.15,0.07c0.01,0.02,0.02,0.04,0.03,0.07
		c0.19-0.02,0.39-0.05,0.58-0.06c0.21-0.02,0.42-0.03,0.62-0.03c2.18,0.08,4.03,0.87,5.29,2.69c1.2,1.74,1.05,3.54-0.02,5.29
		c-1.24,2.03-3.41,2.5-5.4,1.89c-1.44-0.44-2.61-1.26-3.52-2.46c-0.12-0.16-0.18-0.39-0.4-0.51c0.02,1.49,0.11,2.92,0.43,4.34
		c0.32,1.44,1.1,2.67,1.85,3.98c-3.26-0.61-6.45-1.21-9.71-1.82c1.14-0.93,2.18-1.88,2.91-3.13
		C-174.32-60.71-173.76-61.99-173.33-63.33z"/>
	<path class="st1" d="M-236.28-20.21c-1.31,1.03-2.79,1.52-4.43,1.45c-2.58-0.11-4.28-1.83-4.45-4.44c-0.09-1.45,0.23-2.77,1.3-3.82
		c1.03-1.01,2.32-1.41,3.72-1.46c1.31-0.05,2.56,0.23,3.73,0.84c0.04,0.02,0.09,0.04,0.13,0.06c0.02,0.01,0.04,0,0.08-0.01
		c-0.34-0.46-0.63-0.94-0.85-1.45c-0.68-1.6-0.85-3.25-0.46-4.95c0.53-2.32,2.36-3.74,4.74-3.68c1.43,0.03,2.79,0.32,3.98,1.15
		c1.35,0.94,1.92,2.28,1.79,3.89c-0.2,2.53-1.43,4.49-3.47,5.96c-0.05,0.03-0.1,0.05-0.15,0.07c0.01,0.02,0.02,0.04,0.03,0.07
		c0.19-0.02,0.39-0.05,0.58-0.06c0.21-0.02,0.42-0.03,0.62-0.03c2.18,0.08,4.03,0.87,5.29,2.69c1.2,1.74,1.05,3.54-0.02,5.29
		c-1.24,2.03-3.41,2.5-5.4,1.89c-1.44-0.44-2.61-1.26-3.52-2.46c-0.12-0.16-0.18-0.39-0.4-0.51c0.02,1.49,0.11,2.92,0.43,4.34
		c0.32,1.44,1.1,2.67,1.85,3.98c-3.26-0.61-6.45-1.21-9.71-1.82c1.14-0.93,2.18-1.88,2.91-3.13
		C-237.27-17.59-236.71-18.87-236.28-20.21z"/>
	<path class="st1" d="M-183.25-10.3c-1.31,1.03-2.79,1.52-4.43,1.45c-2.58-0.11-4.28-1.83-4.45-4.44c-0.09-1.45,0.23-2.77,1.3-3.82
		c1.03-1.01,2.32-1.41,3.72-1.46c1.31-0.05,2.56,0.23,3.73,0.84c0.04,0.02,0.09,0.04,0.13,0.06c0.02,0.01,0.04,0,0.08-0.01
		c-0.34-0.46-0.63-0.94-0.85-1.45c-0.68-1.6-0.85-3.25-0.46-4.95c0.53-2.32,2.36-3.74,4.74-3.68c1.43,0.03,2.79,0.32,3.98,1.15
		c1.35,0.94,1.92,2.28,1.79,3.89c-0.2,2.53-1.43,4.49-3.47,5.96c-0.05,0.03-0.1,0.05-0.15,0.07c0.01,0.02,0.02,0.04,0.03,0.07
		c0.19-0.02,0.39-0.05,0.58-0.06c0.21-0.02,0.42-0.03,0.62-0.03c2.18,0.08,4.03,0.87,5.29,2.69c1.2,1.74,1.05,3.54-0.02,5.29
		c-1.24,2.03-3.41,2.5-5.4,1.89c-1.44-0.44-2.61-1.26-3.52-2.46c-0.12-0.16-0.18-0.39-0.4-0.51c0.02,1.49,0.11,2.92,0.43,4.34
		c0.32,1.44,1.1,2.67,1.85,3.98c-3.26-0.61-6.45-1.21-9.71-1.82c1.14-0.93,2.18-1.88,2.91-3.13
		C-184.24-7.67-183.68-8.96-183.25-10.3z"/>
	<path class="st1" d="M-245.38,32.97c-1.31,1.03-2.79,1.52-4.43,1.45c-2.58-0.11-4.28-1.83-4.45-4.44c-0.09-1.45,0.23-2.77,1.3-3.82
		c1.03-1.01,2.32-1.41,3.72-1.46c1.31-0.05,2.56,0.23,3.73,0.84c0.04,0.02,0.09,0.04,0.13,0.06c0.02,0.01,0.04,0,0.08-0.01
		c-0.34-0.46-0.63-0.94-0.85-1.45c-0.68-1.6-0.85-3.25-0.46-4.95c0.53-2.32,2.36-3.74,4.74-3.68c1.43,0.03,2.79,0.32,3.98,1.15
		c1.35,0.94,1.92,2.28,1.79,3.89c-0.2,2.53-1.43,4.49-3.47,5.96c-0.05,0.03-0.1,0.05-0.15,0.07c0.01,0.02,0.02,0.04,0.03,0.07
		c0.19-0.02,0.39-0.05,0.58-0.06c0.21-0.02,0.42-0.03,0.62-0.03c2.18,0.08,4.03,0.87,5.29,2.69c1.2,1.74,1.05,3.54-0.02,5.29
		c-1.24,2.03-3.41,2.5-5.4,1.89c-1.44-0.44-2.61-1.26-3.52-2.46c-0.12-0.16-0.18-0.39-0.4-0.51c0.02,1.49,0.11,2.92,0.43,4.34
		c0.32,1.44,1.1,2.67,1.85,3.98c-3.26-0.61-6.45-1.21-9.71-1.82c1.14-0.93,2.18-1.88,2.91-3.13
		C-246.37,35.59-245.81,34.31-245.38,32.97z"/>
	<path class="st1" d="M-192.35,42.89c-1.31,1.03-2.79,1.52-4.43,1.45c-2.58-0.11-4.28-1.83-4.45-4.44c-0.09-1.45,0.23-2.77,1.3-3.82
		c1.03-1.01,2.32-1.41,3.72-1.46c1.31-0.05,2.56,0.23,3.73,0.84c0.04,0.02,0.09,0.04,0.13,0.06c0.02,0.01,0.04,0,0.08-0.01
		c-0.34-0.46-0.63-0.94-0.85-1.45c-0.68-1.6-0.85-3.25-0.46-4.95c0.53-2.32,2.36-3.74,4.74-3.68c1.43,0.03,2.79,0.32,3.98,1.15
		c1.35,0.94,1.92,2.28,1.79,3.89c-0.2,2.53-1.43,4.49-3.47,5.96c-0.05,0.03-0.1,0.05-0.15,0.07c0.01,0.02,0.02,0.04,0.03,0.07
		c0.19-0.02,0.39-0.05,0.58-0.06c0.21-0.02,0.42-0.03,0.62-0.03c2.18,0.08,4.03,0.87,5.29,2.69c1.2,1.74,1.05,3.54-0.02,5.29
		c-1.24,2.03-3.41,2.5-5.4,1.89c-1.44-0.44-2.61-1.26-3.52-2.46c-0.12-0.16-0.18-0.39-0.4-0.51c0.02,1.49,0.11,2.92,0.43,4.34
		c0.32,1.44,1.1,2.67,1.85,3.98c-3.26-0.61-6.45-1.21-9.71-1.82c1.14-0.93,2.18-1.88,2.91-3.13
		C-193.34,45.51-192.78,44.23-192.35,42.89z"/>
</g>
<path class="st3" d="M481.97,395.97c-1.71-4.29-2.83-8.8-4.66-13.05c-5.08-11.82-12.23-22.36-20.01-32.51
	c-9.05-11.81-18.83-23.03-27.99-34.75c-5.6-7.16-10.6-14.68-13.2-23.51c-4.96-16.83,1.46-31.13,15.44-38.23
	c15.29-7.77,33.93-3.21,44.38,10.4c2.64,3.44,4.6,7.26,6.52,11.43c0.48-1.05,0.86-1.9,1.26-2.74c4.91-10.12,12.17-17.86,23.13-21.17
	c14.49-4.38,31.2,0.04,39.66,13.92c4.73,7.76,5.07,16.09,2.88,24.64c-2.63,10.3-7.92,19.26-14.26,27.65
	c-7.12,9.42-15.05,18.18-22.49,27.34c-8.88,10.93-17.16,22.26-23.3,35.02c-2.1,4.37-3.8,8.9-5.35,13.48
	c-0.31,0.92-0.69,1.72-1.68,2.06C482.18,395.97,482.07,395.97,481.97,395.97z"/>
<g>
	<path class="st2" d="M-91.63,92.57l0.03,0.09c1.51,0.28,4,1.39,4.78,3.85c1.11,3.49-1.19,6.71-5,7.92
		c-3.93,1.25-7.66-0.06-8.77-3.55c-0.76-2.39,0.65-4.7,1.7-5.87l-0.04-0.13c-1.64-0.27-4.61-1.34-5.47-4.04
		c-1.09-3.43,0.98-6.95,5.6-8.42c4.5-1.43,8.21,0.27,9.3,3.69C-88.62,88.85-90.89,91.85-91.63,92.57z M-97.84,85.65
		c-1.73,0.55-2.9,2.2-2.35,3.93c0.45,1.41,2.07,2.49,4.33,2.29c1.96-1.14,2.66-2.95,2.21-4.37C-94.2,85.77-96.14,85.11-97.84,85.65z
		 M-96.61,99.44c0.48,1.51,2.14,2.26,3.77,1.74c1.51-0.48,2.43-2.05,1.95-3.56c-0.45-1.41-1.68-2.24-3.81-2.08
		C-96.51,96.61-97.04,98.09-96.61,99.44z"/>
</g>
<path class="st1" d="M599.13,395.6c0.19-0.32,0.33-0.67,0.56-0.96c6.92-8.59,10.58-18.7,13.61-29.11c0.33-1.12,0.64-2.24,1-3.54
	c-5.28,3.09-10.67,5.32-16.5,6.28c-12.07,2-23.22,0.13-32.34-8.67c-6.41-6.18-8.76-13.99-7.9-22.8
	c1.05-10.74,6.24-19.62,12.62-27.96c4.34-5.68,9.64-10.45,14.65-15.49c12.38-12.47,23.1-26.27,32.64-41.01
	c1.59-2.46,1.65-2.48,3.14,0.08c10.41,17.91,23.8,33.28,39.01,47.28c9.19,8.46,15.87,18.77,18.54,31.29
	c0.29,1.38,0.13,2.84,0.78,4.15c0,0.32,0,0.65,0,0.97c-0.28,1.29-0.28,2.59,0,3.88c0,0.32,0,0.65,0,0.97
	c-0.31,3.33-0.94,6.55-2.33,9.64c-2.72,6.02-7.02,10.57-12.75,13.71c-10.15,5.56-20.7,5.46-31.43,1.92
	c-2.45-0.81-4.81-1.86-6.95-2.98c-0.31,0.07-0.42,0.15-0.39,0.26c1.75,8.08,3.93,16.01,8.51,23.04c1.5,2.31,3.39,4.32,5.21,6.37
	c0.57,0.65,1.16,1.28,1.56,2.05c0.23,0.44,0.28,0.85-0.44,0.84c-13.03-0.01-26.06,0-39.09-0.01
	C600.28,395.79,599.67,395.99,599.13,395.6z"/>
<path class="st4" d="M640.4,395.6c0.02,0.12,0.04,0.24,0.06,0.36c-13.8,0-27.6,0-41.4,0c0.02-0.12,0.04-0.24,0.07-0.37
	C612.89,395.6,626.64,395.6,640.4,395.6z"/>
<path class="st5" d="M678.96,339.99c-0.54-1.29-0.51-2.59,0-3.88C678.96,337.4,678.96,338.7,678.96,339.99z"/>
<path class="st3" d="M618.89,221.1c-3.18-5.64-6.34-11.02-9.63-16.32c-11.88-19.16-25.13-37.35-38.94-55.15
	c-0.64-0.83-0.95-1.38-0.16-2.44c17.09-22.94,33.47-46.37,48.29-70.86c0.11-0.18,0.25-0.34,0.46-0.63c2.1,3.51,4.13,6.95,6.21,10.37
	c12.9,21.25,27.06,41.63,42.44,61.15c0.52,0.67,0.93,1.11,0.17,2.02c-18.41,22.01-34.03,45.93-48.23,70.81
	C619.35,220.33,619.19,220.61,618.89,221.1z"/>
<path class="st0" d="M-149.94,192.45l-162.41-53.03c-5.64-1.84-8.75-7.97-6.91-13.61l86.53-264.99c1.84-5.64,7.97-8.75,13.61-6.91
	l162.41,53.03c5.64,1.84,8.75,7.97,6.91,13.61l-86.53,264.99C-138.18,191.18-144.3,194.29-149.94,192.45z"/>
<path class="st1" d="M-229.49-91.36c-1.44,0.85-2.96,1.14-4.58,0.86c-2.55-0.45-4.01-2.37-3.84-4.99c0.1-1.45,0.59-2.72,1.79-3.62
	c1.15-0.86,2.48-1.09,3.88-0.97c1.31,0.12,2.51,0.56,3.59,1.32c0.04,0.03,0.08,0.05,0.12,0.07c0.01,0.01,0.04,0,0.08,0.01
	c-0.28-0.5-0.5-1.01-0.65-1.55c-0.47-1.68-0.42-3.33,0.19-4.97c0.83-2.23,2.83-3.4,5.18-3.03c1.41,0.22,2.72,0.68,3.8,1.66
	c1.21,1.11,1.6,2.51,1.27,4.09c-0.53,2.48-2.01,4.26-4.22,5.45c-0.05,0.03-0.11,0.03-0.16,0.05c0.01,0.02,0.01,0.05,0.02,0.07
	c0.2,0,0.39,0,0.59,0.01c0.21,0.01,0.42,0.02,0.62,0.06c2.15,0.36,3.88,1.39,4.89,3.36c0.97,1.88,0.58,3.65-0.71,5.24
	c-1.49,1.85-3.7,2.04-5.6,1.17c-1.37-0.63-2.43-1.59-3.17-2.9c-0.1-0.18-0.13-0.41-0.33-0.56c-0.18,1.48-0.27,2.91-0.14,4.36
	c0.13,1.47,0.74,2.79,1.32,4.19c-3.15-1.03-6.24-2.04-9.39-3.07c1.25-0.77,2.41-1.58,3.29-2.72
	C-230.82-88.89-230.1-90.09-229.49-91.36z"/>
<g>
	<path d="M-209.79-135.3c0.48,0.02,0.74,0.28,0.74,0.73l0.12,2.08c0.03,0.43-0.2,0.73-0.86,0.72c-1.63-0.01-6.76,0.64-8.86,3.77
		c0.64-0.14,2.39-0.19,3.86,0.29c3.13,1.02,5.64,4.41,4.17,8.89c-1.29,3.95-5.57,6.12-9.43,4.86c-4.92-1.61-6.17-6.39-4.63-11.09
		C-221.7-134.2-212.77-135.3-209.79-135.3z M-214.15-120.04c0.66-2.01-0.4-4.19-2.41-4.84c-2.07-0.68-3.81,0.52-4.53,1.54
		c-0.7,2.13-0.38,4.98,2.16,5.81C-216.94-116.9-214.79-118.07-214.15-120.04z"/>
</g>
<g>
	<path class="st1" d="M-196.82-32.2c-1.44,0.85-2.96,1.14-4.58,0.86c-2.55-0.45-4.01-2.37-3.84-4.99c0.1-1.45,0.59-2.72,1.79-3.62
		c1.15-0.86,2.48-1.09,3.88-0.97c1.31,0.12,2.51,0.56,3.59,1.32c0.04,0.03,0.08,0.05,0.12,0.07c0.01,0.01,0.04,0,0.08,0.01
		c-0.28-0.5-0.5-1.01-0.65-1.55c-0.47-1.68-0.42-3.33,0.19-4.97c0.83-2.23,2.83-3.4,5.18-3.03c1.41,0.22,2.72,0.68,3.8,1.66
		c1.21,1.11,1.6,2.51,1.27,4.09c-0.53,2.48-2.01,4.26-4.22,5.45c-0.05,0.03-0.11,0.03-0.16,0.05c0.01,0.02,0.01,0.05,0.02,0.07
		c0.2,0,0.39,0,0.59,0.01c0.21,0.01,0.42,0.02,0.62,0.06c2.15,0.36,3.88,1.39,4.89,3.36c0.97,1.88,0.58,3.65-0.71,5.24
		c-1.49,1.85-3.7,2.04-5.6,1.17c-1.37-0.63-2.43-1.59-3.17-2.9c-0.1-0.18-0.13-0.41-0.33-0.56c-0.18,1.48-0.27,2.91-0.14,4.36
		c0.13,1.47,0.74,2.79,1.32,4.19c-3.15-1.03-6.24-2.04-9.39-3.07c1.25-0.77,2.41-1.58,3.29-2.72
		C-198.15-29.73-197.42-30.93-196.82-32.2z"/>
	<path class="st1" d="M-145.63-15.48c-1.44,0.85-2.96,1.14-4.58,0.86c-2.55-0.45-4.01-2.37-3.84-4.99c0.1-1.45,0.59-2.72,1.79-3.62
		c1.15-0.86,2.48-1.09,3.88-0.97c1.31,0.12,2.51,0.56,3.59,1.32c0.04,0.03,0.08,0.05,0.12,0.07c0.01,0.01,0.04,0,0.08,0.01
		c-0.28-0.5-0.5-1.01-0.65-1.55c-0.47-1.68-0.42-3.33,0.19-4.97c0.83-2.23,2.83-3.4,5.18-3.03c1.41,0.22,2.72,0.68,3.8,1.66
		c1.21,1.11,1.6,2.51,1.27,4.09c-0.53,2.48-2.01,4.26-4.22,5.45c-0.05,0.03-0.11,0.03-0.16,0.05c0.01,0.02,0.01,0.05,0.02,0.07
		c0.2,0,0.39,0,0.59,0.01c0.21,0.01,0.42,0.02,0.62,0.06c2.15,0.36,3.88,1.39,4.89,3.36c0.97,1.88,0.58,3.65-0.71,5.24
		c-1.49,1.85-3.7,2.04-5.6,1.17c-1.37-0.63-2.43-1.59-3.17-2.9c-0.1-0.18-0.13-0.41-0.33-0.56c-0.18,1.48-0.27,2.91-0.14,4.36
		c0.13,1.47,0.74,2.79,1.32,4.19c-3.15-1.03-6.24-2.04-9.39-3.07c1.25-0.77,2.41-1.58,3.29-2.72
		C-146.96-13.01-146.24-14.21-145.63-15.48z"/>
	<path class="st1" d="M-213.67,19.06c-1.44,0.85-2.96,1.14-4.58,0.86c-2.55-0.45-4.01-2.37-3.84-4.99c0.1-1.45,0.59-2.72,1.79-3.62
		c1.15-0.86,2.48-1.09,3.88-0.97c1.31,0.12,2.51,0.56,3.59,1.32c0.04,0.03,0.08,0.05,0.12,0.07c0.01,0.01,0.04,0,0.08,0.01
		c-0.28-0.5-0.5-1.01-0.65-1.55c-0.47-1.68-0.42-3.33,0.19-4.97c0.83-2.23,2.83-3.4,5.18-3.03c1.41,0.22,2.72,0.68,3.8,1.66
		c1.21,1.11,1.6,2.51,1.27,4.09c-0.53,2.48-2.01,4.26-4.22,5.45c-0.05,0.03-0.11,0.03-0.16,0.05c0.01,0.02,0.01,0.05,0.02,0.07
		c0.2,0,0.39,0,0.59,0.01c0.21,0.01,0.42,0.02,0.62,0.06c2.15,0.36,3.88,1.39,4.89,3.36c0.97,1.88,0.58,3.65-0.71,5.24
		c-1.49,1.85-3.7,2.04-5.6,1.17c-1.37-0.63-2.43-1.59-3.17-2.9c-0.1-0.18-0.13-0.41-0.33-0.56c-0.18,1.48-0.27,2.91-0.14,4.36
		c0.13,1.47,0.74,2.79,1.32,4.19c-3.15-1.03-6.24-2.04-9.39-3.07c1.25-0.77,2.41-1.58,3.29-2.72
		C-214.99,21.53-214.27,20.33-213.67,19.06z"/>
	<path class="st1" d="M-162.38,35.8c-1.44,0.85-2.96,1.14-4.58,0.86c-2.55-0.45-4.01-2.37-3.84-4.99c0.1-1.45,0.59-2.72,1.79-3.62
		c1.15-0.86,2.48-1.09,3.88-0.97c1.31,0.12,2.51,0.56,3.59,1.32c0.04,0.03,0.08,0.05,0.12,0.07c0.01,0.01,0.04,0,0.08,0.01
		c-0.28-0.5-0.5-1.01-0.65-1.55c-0.47-1.68-0.42-3.33,0.19-4.97c0.83-2.23,2.83-3.4,5.18-3.03c1.41,0.22,2.72,0.68,3.8,1.66
		c1.21,1.11,1.6,2.51,1.27,4.09c-0.53,2.48-2.01,4.26-4.22,5.45c-0.05,0.03-0.11,0.03-0.16,0.05c0.01,0.02,0.01,0.05,0.02,0.07
		c0.2,0,0.39,0,0.59,0.01c0.21,0.01,0.42,0.02,0.62,0.06c2.15,0.36,3.88,1.39,4.89,3.36c0.97,1.88,0.58,3.65-0.71,5.24
		c-1.49,1.85-3.7,2.04-5.6,1.17c-1.37-0.63-2.43-1.59-3.17-2.9c-0.1-0.18-0.13-0.41-0.33-0.56c-0.18,1.48-0.27,2.91-0.14,4.36
		c0.13,1.47,0.74,2.79,1.32,4.19c-3.15-1.03-6.24-2.04-9.39-3.07c1.25-0.77,2.41-1.58,3.29-2.72
		C-163.71,38.27-162.98,37.08-162.38,35.8z"/>
	<path class="st1" d="M-229.62,70.6c-1.44,0.85-2.96,1.14-4.58,0.86c-2.55-0.45-4.01-2.37-3.84-4.99c0.1-1.45,0.59-2.72,1.79-3.62
		c1.15-0.86,2.48-1.09,3.88-0.97c1.31,0.12,2.51,0.56,3.59,1.32c0.04,0.03,0.08,0.05,0.12,0.07c0.01,0.01,0.04,0,0.08,0.01
		c-0.28-0.5-0.5-1.01-0.65-1.55c-0.47-1.68-0.42-3.33,0.19-4.97c0.83-2.23,2.83-3.4,5.18-3.03c1.41,0.22,2.72,0.68,3.8,1.66
		c1.21,1.11,1.6,2.51,1.27,4.09c-0.53,2.48-2.01,4.26-4.22,5.45c-0.05,0.03-0.11,0.03-0.16,0.05c0.01,0.02,0.01,0.05,0.02,0.07
		c0.2,0,0.39,0,0.59,0.01c0.21,0.01,0.42,0.02,0.62,0.06c2.15,0.36,3.88,1.39,4.89,3.36c0.97,1.88,0.58,3.65-0.71,5.24
		c-1.49,1.85-3.7,2.04-5.6,1.17c-1.37-0.63-2.43-1.59-3.17-2.9c-0.1-0.18-0.13-0.41-0.33-0.56c-0.18,1.48-0.27,2.91-0.14,4.36
		c0.13,1.47,0.74,2.79,1.32,4.19c-3.15-1.03-6.24-2.04-9.39-3.07c1.25-0.77,2.41-1.58,3.29-2.72
		C-230.95,73.07-230.22,71.88-229.62,70.6z"/>
	<path class="st1" d="M-178.34,87.35c-1.44,0.85-2.96,1.14-4.58,0.86c-2.55-0.45-4.01-2.37-3.84-4.99c0.1-1.45,0.59-2.72,1.79-3.62
		c1.15-0.86,2.48-1.09,3.88-0.97c1.31,0.12,2.51,0.56,3.59,1.32c0.04,0.03,0.08,0.05,0.12,0.07c0.01,0.01,0.04,0,0.08,0.01
		c-0.28-0.5-0.5-1.01-0.65-1.55c-0.47-1.68-0.42-3.33,0.19-4.97c0.83-2.23,2.83-3.4,5.18-3.03c1.41,0.22,2.72,0.68,3.8,1.66
		c1.21,1.11,1.6,2.51,1.27,4.09c-0.53,2.48-2.01,4.26-4.22,5.45c-0.05,0.03-0.11,0.03-0.16,0.05c0.01,0.02,0.01,0.05,0.02,0.07
		c0.2,0,0.39,0,0.59,0.01c0.21,0.01,0.42,0.02,0.62,0.06c2.15,0.36,3.88,1.39,4.89,3.36c0.97,1.88,0.58,3.65-0.71,5.24
		c-1.49,1.85-3.7,2.04-5.6,1.17c-1.37-0.63-2.43-1.59-3.17-2.9c-0.1-0.18-0.13-0.41-0.33-0.56c-0.18,1.48-0.27,2.91-0.14,4.36
		c0.13,1.47,0.74,2.79,1.32,4.19c-3.15-1.03-6.24-2.04-9.39-3.07c1.25-0.77,2.41-1.58,3.29-2.72
		C-179.66,89.82-178.94,88.62-178.34,87.35z"/>
</g>
<path class="st1" d="M-140.38,133.67c1.44-0.85,2.96-1.14,4.58-0.86c2.55,0.45,4.01,2.37,3.84,4.99c-0.1,1.45-0.59,2.72-1.79,3.62
	c-1.15,0.86-2.48,1.09-3.88,0.97c-1.31-0.12-2.51-0.56-3.59-1.32c-0.04-0.03-0.08-0.05-0.12-0.07c-0.01-0.01-0.04,0-0.08-0.01
	c0.28,0.5,0.5,1.01,0.65,1.55c0.47,1.68,0.42,3.33-0.19,4.97c-0.83,2.23-2.83,3.4-5.18,3.03c-1.41-0.22-2.72-0.68-3.8-1.66
	c-1.21-1.11-1.6-2.51-1.27-4.09c0.53-2.48,2.01-4.26,4.22-5.45c0.05-0.03,0.11-0.03,0.16-0.05c-0.01-0.02-0.01-0.05-0.02-0.07
	c-0.2,0-0.39,0-0.59-0.01c-0.21-0.01-0.42-0.02-0.62-0.06c-2.15-0.36-3.88-1.39-4.89-3.36c-0.97-1.88-0.58-3.65,0.71-5.24
	c1.49-1.85,3.7-2.04,5.6-1.17c1.37,0.63,2.43,1.59,3.17,2.9c0.1,0.18,0.13,0.41,0.33,0.56c0.18-1.48,0.27-2.91,0.14-4.36
	c-0.13-1.47-0.74-2.79-1.32-4.19c3.15,1.03,6.24,2.04,9.39,3.07c-1.25,0.77-2.41,1.58-3.29,2.72
	C-139.06,131.2-139.78,132.39-140.38,133.67z"/>
<g>
	<path d="M-160.09,177.61c-0.48-0.02-0.74-0.28-0.73-0.72l-0.12-2.08c-0.03-0.43,0.2-0.73,0.86-0.73c1.63,0.01,6.76-0.63,8.86-3.77
		c-0.64,0.14-2.39,0.19-3.86-0.29c-3.13-1.02-5.64-4.41-4.17-8.89c1.29-3.95,5.57-6.12,9.43-4.87c4.92,1.61,6.17,6.39,4.63,11.09
		C-148.18,176.5-157.11,177.61-160.09,177.61z M-155.73,162.35c-0.66,2.01,0.4,4.19,2.41,4.84c2.07,0.68,3.81-0.52,4.53-1.54
		c0.7-2.13,0.38-4.98-2.16-5.8C-152.94,159.2-155.09,160.37-155.73,162.35z"/>
</g>
<g>
	<path d="M-258.91-148.29c0.48-0.07,0.78,0.14,0.85,0.58l0.48,2.03c0.11,0.42-0.07,0.76-0.72,0.87c-1.6,0.27-6.55,1.81-8.06,5.26
		c0.6-0.25,2.32-0.61,3.85-0.39c3.27,0.46,6.32,3.35,5.67,8.02c-0.58,4.12-4.41,7.01-8.43,6.44c-5.13-0.72-7.2-5.2-6.51-10.1
		C-270.44-145.11-261.85-147.77-258.91-148.29z M-260.52-132.5c0.29-2.09-1.13-4.05-3.22-4.35c-2.16-0.3-3.66,1.18-4.19,2.31
		c-0.31,2.22,0.5,4.96,3.15,5.33C-262.72-128.91-260.81-130.44-260.52-132.5z"/>
</g>
<path class="st1" d="M-273.27-95.51c0.04-0.05,0.07-0.11,0.12-0.16c1.43-1.34,2.32-3.03,3.11-4.78c0.08-0.19,0.17-0.38,0.26-0.6
	c-1,0.41-2.01,0.67-3.06,0.7c-2.17,0.05-4.09-0.55-5.47-2.32c-0.97-1.25-1.2-2.68-0.83-4.2c0.45-1.86,1.58-3.3,2.91-4.61
	c0.9-0.89,1.95-1.6,2.96-2.36c2.48-1.89,4.71-4.05,6.75-6.41c0.34-0.39,0.35-0.39,0.55,0.09c1.39,3.4,3.37,6.44,5.7,9.27
	c1.41,1.71,2.33,3.69,2.49,5.96c0.02,0.25-0.05,0.5,0.04,0.75c-0.01,0.06-0.02,0.11-0.02,0.17c-0.08,0.22-0.11,0.45-0.1,0.68
	c-0.01,0.06-0.02,0.11-0.02,0.17c-0.14,0.58-0.33,1.13-0.65,1.64c-0.63,0.99-1.49,1.69-2.58,2.1c-1.92,0.73-3.77,0.45-5.57-0.44
	c-0.41-0.2-0.8-0.44-1.15-0.7c-0.06,0-0.08,0.02-0.08,0.04c0.11,1.46,0.3,2.91,0.93,4.26c0.21,0.44,0.49,0.84,0.76,1.25
	c0.08,0.13,0.17,0.25,0.22,0.4c0.03,0.08,0.03,0.16-0.1,0.14c-2.29-0.32-4.58-0.64-6.87-0.97
	C-273.07-95.45-273.18-95.43-273.27-95.51z"/>
<g>
	<g>
		<g>
			<path d="M315.91,85.45c0,4.56,0,9.12,0,13.68c0,10.91,0,21.81,0,32.72c0,13.19,0,26.37,0,39.56c0,11.43,0,22.86,0,34.28
				c0,5.51-0.2,11.05,0,16.56c0,0.08,0,0.16,0,0.24c0,2.2,3.43,2.21,3.43,0c0-4.56,0-9.12,0-13.68c0-10.91,0-21.81,0-32.72
				c0-13.19,0-26.37,0-39.56c0-11.43,0-22.86,0-34.28c0-5.51,0.2-11.05,0-16.56c0-0.08,0-0.16,0-0.24
				C319.34,83.24,315.91,83.24,315.91,85.45L315.91,85.45z"/>
		</g>
	</g>
	<g>
		<g>
			<path d="M83.24,87.5c3.87-2.28,7.74-4.55,11.61-6.83c9.29-5.46,18.58-10.93,27.87-16.39c11.2-6.59,22.39-13.17,33.59-19.76
				c9.68-5.69,19.36-11.39,29.04-17.08c3.2-1.88,6.39-3.76,9.59-5.64c1.5-0.88,3.18-1.66,4.58-2.7c0.06-0.04,0.13-0.08,0.2-0.12
				c-0.58,0-1.15,0-1.73,0c3.95,2.28,7.9,4.56,11.86,6.84c9.45,5.45,18.9,10.91,28.35,16.36c11.43,6.59,22.85,13.19,34.28,19.78
				c9.9,5.71,19.81,11.43,29.71,17.14c3.24,1.87,6.48,3.74,9.72,5.61c1.51,0.87,3.03,1.96,4.63,2.67c0.07,0.03,0.14,0.08,0.21,0.12
				c0-0.99,0-1.97,0-2.96c-3.87,2.28-7.74,4.55-11.61,6.83c-9.29,5.46-18.58,10.93-27.87,16.39c-11.2,6.59-22.39,13.17-33.59,19.76
				c-9.68,5.69-19.36,11.39-29.04,17.08c-3.2,1.88-6.39,3.76-9.59,5.64c-1.5,0.88-3.18,1.66-4.58,2.7c-0.06,0.04-0.13,0.08-0.2,0.12
				c0.58,0,1.15,0,1.73,0c-3.95-2.28-7.9-4.56-11.86-6.84c-9.45-5.45-18.9-10.91-28.35-16.36c-11.43-6.59-22.85-13.19-34.28-19.78
				c-9.9-5.71-19.81-11.43-29.71-17.14c-4.77-2.75-9.49-5.68-14.35-8.28c-0.07-0.04-0.14-0.08-0.21-0.12
				c-1.91-1.1-3.64,1.86-1.73,2.96c3.95,2.28,7.9,4.56,11.86,6.84c9.45,5.45,18.9,10.91,28.35,16.36
				c11.43,6.59,22.85,13.19,34.28,19.78c9.9,5.71,19.81,11.43,29.71,17.14c4.77,2.75,9.49,5.68,14.35,8.28
				c0.07,0.04,0.14,0.08,0.21,0.12c0.53,0.31,1.2,0.31,1.73,0c3.87-2.28,7.74-4.55,11.61-6.83c9.29-5.46,18.58-10.93,27.87-16.39
				c11.2-6.59,22.39-13.17,33.59-19.76c9.68-5.69,19.36-11.39,29.04-17.08c4.71-2.77,9.55-5.41,14.17-8.34
				c0.06-0.04,0.13-0.08,0.2-0.12c1.1-0.65,1.12-2.31,0-2.96c-3.95-2.28-7.9-4.56-11.86-6.84c-9.45-5.45-18.9-10.91-28.35-16.36
				c-11.43-6.59-22.85-13.19-34.28-19.78c-9.9-5.71-19.81-11.43-29.71-17.14c-4.77-2.75-9.49-5.68-14.35-8.28
				c-0.07-0.04-0.14-0.08-0.21-0.12c-0.53-0.31-1.2-0.31-1.73,0c-3.87,2.28-7.74,4.55-11.61,6.83
				c-9.29,5.46-18.58,10.93-27.87,16.39c-11.2,6.59-22.39,13.17-33.59,19.76c-9.68,5.69-19.36,11.39-29.04,17.08
				c-4.71,2.77-9.55,5.41-14.17,8.34c-0.06,0.04-0.13,0.08-0.2,0.12C79.61,85.66,81.34,88.62,83.24,87.5z"/>
		</g>
	</g>
	<g>
		<g>
			<path d="M198.29,155.11c0,4.52,0,9.03,0,13.55c0,10.84,0,21.68,0,32.52c0,13.06,0,26.13,0,39.19c0,11.29,0,22.59,0,33.88
				c0,3.74,0,7.49,0,11.23c0,1.73-0.17,3.55,0,5.27c0.01,0.08,0,0.16,0,0.24c0.86-0.49,1.72-0.99,2.58-1.48
				c-3.9-2.24-7.81-4.47-11.71-6.71c-9.37-5.37-18.75-10.74-28.12-16.11c-11.34-6.49-22.67-12.99-34.01-19.48
				c-9.79-5.61-19.58-11.22-29.37-16.83c-3.21-1.84-6.41-3.67-9.62-5.51c-1.5-0.86-3.01-1.93-4.6-2.63
				c-0.07-0.03-0.13-0.08-0.2-0.11c0.28,0.49,0.57,0.99,0.85,1.48c0-4.56,0-9.12,0-13.68c0-10.91,0-21.81,0-32.72
				c0-13.19,0-26.37,0-39.56c0-11.43,0-22.86,0-34.28c0-5.51,0.2-11.05,0-16.56c0-0.08,0-0.16,0-0.24c0-2.2-3.43-2.21-3.43,0
				c0,4.56,0,9.12,0,13.68c0,10.91,0,21.81,0,32.72c0,13.19,0,26.37,0,39.56c0,11.43,0,22.86,0,34.28c0,5.51-0.2,11.05,0,16.56
				c0,0.08,0,0.16,0,0.24c0,0.6,0.33,1.18,0.85,1.48c3.9,2.24,7.81,4.47,11.71,6.71c9.37,5.37,18.75,10.74,28.12,16.11
				c11.34,6.49,22.67,12.99,34.01,19.48c9.79,5.61,19.58,11.22,29.37,16.83c4.73,2.71,9.4,5.59,14.21,8.14
				c0.07,0.04,0.13,0.08,0.2,0.11c1.12,0.64,2.58-0.17,2.58-1.48c0-4.52,0-9.03,0-13.55c0-10.84,0-21.68,0-32.52
				c0-13.06,0-26.13,0-39.19c0-11.29,0-22.59,0-33.88c0-5.49,0.19-11.02,0-16.51c0-0.08,0-0.16,0-0.24
				C201.71,152.9,198.29,152.9,198.29,155.11L198.29,155.11z"/>
		</g>
	</g>
	<g>
		<path d="M317.05,223.62L199.43,291L317.05,223.62z"/>
		<g>
			<path d="M316.19,222.15c-3.9,2.24-7.81,4.47-11.71,6.71c-9.37,5.37-18.75,10.74-28.12,16.11c-11.34,6.49-22.67,12.99-34.01,19.48
				c-9.79,5.61-19.58,11.22-29.37,16.83c-4.73,2.71-9.59,5.26-14.21,8.14c-0.06,0.04-0.13,0.08-0.2,0.11
				c-1.91,1.1-0.19,4.06,1.73,2.96c3.9-2.24,7.81-4.47,11.71-6.71c9.37-5.37,18.75-10.74,28.12-16.11
				c11.34-6.49,22.67-12.99,34.01-19.48c9.79-5.61,19.58-11.22,29.37-16.83c4.73-2.71,9.59-5.26,14.21-8.14
				c0.06-0.04,0.13-0.08,0.2-0.11C319.83,224.01,318.1,221.05,316.19,222.15c-3.9,2.24-7.81,4.47-11.71,6.71
				c-9.37,5.37-18.75,10.74-28.12,16.11c-11.34,6.49-22.67,12.99-34.01,19.48c-9.79,5.61-19.58,11.22-29.37,16.83
				c-4.73,2.71-9.59,5.26-14.21,8.14c-0.06,0.04-0.13,0.08-0.2,0.11c-1.91,1.1-0.19,4.06,1.73,2.96c3.9-2.24,7.81-4.47,11.71-6.71
				c9.37-5.37,18.75-10.74,28.12-16.11c11.34-6.49,22.67-12.99,34.01-19.48c9.79-5.61,19.58-11.22,29.37-16.83
				c4.73-2.71,9.59-5.26,14.21-8.14c0.06-0.04,0.13-0.08,0.2-0.11C319.83,224.01,318.1,221.05,316.19,222.15z"/>
		</g>
	</g>
	<ellipse cx="132.62" cy="86.59" rx="13.13" ry="9.14"/>
	<ellipse transform="matrix(0.9119 -0.4103 0.4103 0.9119 -45.0888 55.5706)" cx="106.93" cy="132.84" rx="10.28" ry="13.13"/>
	<ellipse transform="matrix(0.9119 -0.4103 0.4103 0.9119 -86.2792 93.2008)" cx="174.01" cy="247.62" rx="10.28" ry="13.13"/>
	<ellipse cx="200" cy="125.42" rx="13.13" ry="9.14"/>
	<ellipse cx="233.12" cy="107.14" rx="13.13" ry="9.14"/>
	<ellipse cx="166.88" cy="68.32" rx="13.13" ry="9.14"/>
	<ellipse cx="200" cy="47.76" rx="13.13" ry="9.14"/>
	<ellipse cx="266.23" cy="86.59" rx="13.13" ry="9.14"/>
	<ellipse transform="matrix(0.9119 -0.4103 0.4103 0.9119 -54.6764 86.1899)" cx="173.48" cy="170.49" rx="10.28" ry="13.13"/>
	<ellipse transform="matrix(0.9119 -0.4103 0.4103 0.9119 -76.6403 61.4954)" cx="104.96" cy="209.31" rx="10.28" ry="13.13"/>
	<ellipse transform="matrix(0.5878 -0.809 0.809 0.5878 -49.3161 326.3957)" cx="295.67" cy="211.6" rx="13.13" ry="10.28"/>
	<ellipse transform="matrix(0.5878 -0.809 0.809 0.5878 -43.3572 255.8706)" cx="229.43" cy="170.49" rx="13.13" ry="10.28"/>
	<ellipse transform="matrix(0.5878 -0.809 0.809 0.5878 -49.3161 326.3957)" cx="295.67" cy="211.6" rx="13.13" ry="10.28"/>
</g>
<g>
</g>
<g>
</g>
<g>
</g>
<g>
</g>
<g>
</g>
<g>
</g>
<g>
</g>
<g>
</g>
<g>
</g>
<g>
</g>
<g>
</g>
</svg>
