<?xml version="1.0" encoding="utf-8"?>
<!-- Generator: Adobe Illustrator 24.1.0, SVG Export Plug-In . SVG Version: 6.00 Build 0)  -->
<svg version="1.1" id="Layer_1" xmlns="http://www.w3.org/2000/svg" xmlns:xlink="http://www.w3.org/1999/xlink" x="0px" y="0px"
	 viewBox="0 0 285.15 336.74" style="enable-background:new 0 0 285.15 336.74;" xml:space="preserve">
<style type="text/css">
	.st0{fill:#020202;}
	.st1{fill:#010101;}
	.st2{fill:#FFFFFF;stroke:#010101;stroke-width:1.6355;stroke-miterlimit:10;}
	.st3{fill:#EA2B28;}
	.st4{fill:#EC2727;}
	.st5{fill:none;}
</style>
<path class="st0" d="M204.22,215.45c0.66-1.36,1.67-2.36,3.05-2.95c2.16-0.94,4.23-0.21,5.41,1.86c0.65,1.15,0.92,2.36,0.45,3.65
	c-0.45,1.24-1.34,2.07-2.46,2.68c-1.05,0.56-2.18,0.83-3.38,0.8c-0.05,0-0.08,0-0.13,0c-0.02,0-0.03,0.02-0.06,0.04
	c0.46,0.24,0.89,0.51,1.27,0.85c1.19,1.04,1.99,2.32,2.35,3.87c0.48,2.11-0.45,3.99-2.41,4.89c-1.18,0.54-2.41,0.85-3.72,0.65
	c-1.47-0.24-2.47-1.1-3.01-2.46c-0.85-2.15-0.61-4.24,0.46-6.26c0.03-0.05,0.06-0.08,0.1-0.12c-0.02-0.02-0.03-0.03-0.05-0.05
	c-0.15,0.09-0.3,0.19-0.45,0.28c-0.16,0.09-0.33,0.19-0.5,0.27c-1.81,0.8-3.64,0.89-5.39-0.1c-1.67-0.94-2.27-2.47-2.09-4.33
	c0.21-2.16,1.78-3.4,3.67-3.7c1.36-0.21,2.64-0.01,3.86,0.61c0.16,0.08,0.3,0.25,0.54,0.26c-0.6-1.21-1.26-2.34-2.08-3.37
	c-0.84-1.05-1.96-1.75-3.1-2.51c2.91-0.8,5.76-1.58,8.67-2.38c-0.56,1.21-1.04,2.4-1.13,3.71
	C203.98,212.9,204.04,214.17,204.22,215.45z"/>
<g>
	<path class="st1" d="M196.99,206.62c-0.37,0.23-0.7,0.16-0.92-0.18l-1.14-1.52c-0.24-0.31-0.21-0.65,0.29-0.98
		c1.24-0.81,4.81-3.87,4.83-7.3c-0.41,0.43-1.71,1.35-3.07,1.72c-2.89,0.8-6.48-0.52-7.62-4.65c-1-3.65,1.15-7.44,4.71-8.42
		c4.54-1.25,7.88,1.75,9.08,6.08C205.47,199.81,199.25,205.13,196.99,206.62z M192.64,192.85c0.51,1.86,2.4,2.98,4.26,2.47
		c1.91-0.53,2.63-2.31,2.66-3.44c-0.54-1.96-2.21-3.97-4.55-3.32C193.19,189.07,192.14,191.04,192.64,192.85z"/>
</g>
<g>
	<path class="st0" d="M67.22,92.1c-0.66,1.36-1.67,2.36-3.05,2.95c-2.16,0.94-4.23,0.21-5.41-1.86c-0.65-1.15-0.92-2.36-0.45-3.65
		c0.45-1.24,1.34-2.07,2.46-2.68c1.05-0.56,2.18-0.83,3.38-0.8c0.05,0,0.08,0,0.13,0c0.02,0,0.03-0.02,0.06-0.04
		c-0.46-0.24-0.89-0.51-1.27-0.85c-1.19-1.04-1.99-2.32-2.35-3.87c-0.48-2.11,0.45-3.99,2.41-4.89c1.18-0.54,2.41-0.85,3.72-0.65
		c1.47,0.24,2.47,1.1,3.01,2.46c0.85,2.15,0.61,4.24-0.46,6.26c-0.03,0.05-0.06,0.08-0.1,0.12c0.02,0.02,0.03,0.03,0.05,0.05
		c0.15-0.09,0.3-0.19,0.45-0.28c0.16-0.09,0.33-0.19,0.5-0.27c1.81-0.8,3.64-0.89,5.39,0.1c1.67,0.94,2.27,2.47,2.09,4.33
		c-0.21,2.16-1.78,3.4-3.67,3.7c-1.36,0.21-2.64,0.01-3.86-0.61c-0.16-0.08-0.3-0.25-0.54-0.26c0.6,1.21,1.26,2.34,2.08,3.37
		c0.84,1.05,1.96,1.75,3.1,2.51c-2.91,0.8-5.76,1.58-8.67,2.38c0.56-1.21,1.04-2.4,1.13-3.71C67.45,94.64,67.4,93.36,67.22,92.1z"/>
	<path class="st0" d="M114.43,79.11c-0.66,1.36-1.67,2.36-3.05,2.95c-2.16,0.94-4.23,0.21-5.41-1.86c-0.65-1.15-0.92-2.36-0.45-3.65
		c0.45-1.24,1.34-2.07,2.46-2.68c1.05-0.56,2.18-0.83,3.38-0.8c0.05,0,0.08,0,0.13,0c0.02,0,0.03-0.02,0.06-0.04
		c-0.46-0.24-0.89-0.51-1.27-0.85c-1.19-1.04-1.99-2.32-2.35-3.87c-0.48-2.11,0.45-3.99,2.41-4.89c1.18-0.54,2.41-0.85,3.72-0.65
		c1.47,0.24,2.47,1.1,3.01,2.46c0.85,2.15,0.61,4.24-0.46,6.26c-0.03,0.05-0.06,0.08-0.1,0.12c0.02,0.02,0.03,0.03,0.05,0.05
		c0.15-0.09,0.3-0.19,0.45-0.28c0.16-0.09,0.33-0.19,0.5-0.27c1.81-0.8,3.64-0.89,5.39,0.1c1.67,0.94,2.27,2.47,2.09,4.33
		c-0.21,2.16-1.78,3.4-3.67,3.7c-1.36,0.21-2.64,0.01-3.86-0.61c-0.16-0.08-0.3-0.25-0.54-0.26c0.6,1.21,1.26,2.34,2.08,3.37
		c0.84,1.05,1.96,1.75,3.1,2.51c-2.91,0.8-5.76,1.58-8.67,2.38c0.56-1.21,1.04-2.4,1.13-3.71
		C114.67,81.65,114.61,80.38,114.43,79.11z"/>
	<path class="st0" d="M80.13,139.43c-0.66,1.36-1.67,2.36-3.05,2.95c-2.16,0.94-4.23,0.21-5.41-1.86c-0.65-1.15-0.92-2.36-0.45-3.65
		c0.45-1.24,1.34-2.07,2.46-2.68c1.05-0.56,2.18-0.83,3.38-0.8c0.05,0,0.08,0,0.13,0c0.02,0,0.03-0.02,0.06-0.04
		c-0.46-0.24-0.89-0.51-1.27-0.85c-1.19-1.04-1.99-2.32-2.35-3.87c-0.48-2.11,0.45-3.99,2.41-4.89c1.18-0.54,2.41-0.85,3.72-0.65
		c1.47,0.24,2.47,1.1,3.01,2.46c0.85,2.15,0.61,4.24-0.46,6.26c-0.03,0.05-0.06,0.08-0.1,0.12c0.02,0.02,0.03,0.03,0.05,0.05
		c0.15-0.09,0.3-0.19,0.45-0.28c0.16-0.09,0.33-0.19,0.5-0.27c1.81-0.8,3.64-0.89,5.39,0.1c1.67,0.94,2.27,2.47,2.09,4.33
		c-0.21,2.16-1.78,3.4-3.67,3.7c-1.36,0.21-2.64,0.01-3.86-0.61c-0.16-0.08-0.3-0.25-0.54-0.26c0.6,1.21,1.26,2.34,2.08,3.37
		c0.84,1.05,1.96,1.75,3.1,2.51c-2.91,0.8-5.76,1.58-8.67,2.38c0.56-1.21,1.04-2.4,1.13-3.71C80.37,141.97,80.32,140.7,80.13,139.43
		z"/>
	<path class="st0" d="M127.45,126.42c-0.66,1.36-1.67,2.36-3.05,2.95c-2.16,0.94-4.23,0.21-5.41-1.86
		c-0.65-1.15-0.92-2.36-0.45-3.65c0.45-1.24,1.34-2.07,2.46-2.68c1.05-0.56,2.18-0.83,3.38-0.8c0.05,0,0.08,0,0.13,0
		c0.02,0,0.03-0.02,0.06-0.04c-0.46-0.24-0.89-0.51-1.27-0.85c-1.19-1.04-1.99-2.32-2.35-3.87c-0.48-2.11,0.45-3.99,2.41-4.89
		c1.18-0.54,2.41-0.85,3.72-0.65c1.47,0.24,2.47,1.1,3.01,2.46c0.85,2.15,0.61,4.24-0.46,6.26c-0.03,0.05-0.06,0.08-0.1,0.12
		c0.02,0.02,0.03,0.03,0.05,0.05c0.15-0.09,0.3-0.19,0.45-0.28c0.16-0.09,0.33-0.19,0.5-0.27c1.81-0.8,3.64-0.89,5.39,0.1
		c1.67,0.94,2.27,2.47,2.09,4.33c-0.21,2.16-1.78,3.4-3.67,3.7c-1.36,0.21-2.64,0.01-3.86-0.61c-0.16-0.08-0.3-0.25-0.54-0.26
		c0.6,1.21,1.26,2.34,2.08,3.37c0.84,1.05,1.96,1.75,3.1,2.51c-2.91,0.8-5.76,1.58-8.67,2.38c0.56-1.21,1.04-2.4,1.13-3.71
		C127.68,128.96,127.63,127.68,127.45,126.42z"/>
	<path class="st0" d="M93.89,186.54c-0.66,1.36-1.67,2.36-3.05,2.95c-2.16,0.94-4.23,0.21-5.41-1.86c-0.65-1.15-0.92-2.36-0.45-3.65
		c0.45-1.24,1.34-2.07,2.46-2.68c1.05-0.56,2.18-0.83,3.38-0.8c0.05,0,0.08,0,0.13,0c0.02,0,0.03-0.02,0.06-0.04
		c-0.46-0.24-0.89-0.51-1.27-0.85c-1.19-1.04-1.99-2.32-2.35-3.87c-0.48-2.11,0.45-3.99,2.41-4.89c1.18-0.54,2.41-0.85,3.72-0.65
		c1.47,0.24,2.47,1.1,3.01,2.46c0.85,2.15,0.61,4.24-0.46,6.26c-0.03,0.05-0.06,0.08-0.1,0.12c0.02,0.02,0.03,0.03,0.05,0.05
		c0.15-0.09,0.3-0.19,0.45-0.28c0.16-0.09,0.33-0.19,0.5-0.27c1.81-0.8,3.64-0.89,5.39,0.1c1.67,0.94,2.27,2.47,2.09,4.33
		c-0.21,2.16-1.78,3.4-3.67,3.7c-1.36,0.21-2.64,0.01-3.86-0.61c-0.16-0.08-0.3-0.25-0.54-0.26c0.6,1.21,1.26,2.34,2.08,3.37
		c0.84,1.05,1.96,1.75,3.1,2.51c-2.91,0.8-5.76,1.58-8.67,2.38c0.56-1.21,1.04-2.4,1.13-3.71
		C94.12,189.08,94.07,187.81,93.89,186.54z"/>
	<path class="st0" d="M141.19,173.52c-0.66,1.36-1.67,2.36-3.05,2.95c-2.16,0.94-4.23,0.21-5.41-1.86
		c-0.65-1.15-0.92-2.36-0.45-3.65c0.45-1.24,1.34-2.07,2.46-2.68c1.05-0.56,2.18-0.83,3.38-0.8c0.05,0,0.08,0,0.13,0
		c0.02,0,0.03-0.02,0.06-0.04c-0.46-0.24-0.89-0.51-1.27-0.85c-1.19-1.04-1.99-2.32-2.35-3.87c-0.48-2.11,0.45-3.99,2.41-4.89
		c1.18-0.54,2.41-0.85,3.72-0.65c1.47,0.24,2.47,1.1,3.01,2.46c0.85,2.15,0.61,4.24-0.46,6.26c-0.03,0.05-0.06,0.08-0.1,0.12
		c0.02,0.02,0.03,0.03,0.05,0.05c0.15-0.09,0.3-0.19,0.45-0.28c0.16-0.09,0.33-0.19,0.5-0.27c1.81-0.8,3.64-0.89,5.39,0.1
		c1.67,0.94,2.27,2.47,2.09,4.33c-0.21,2.16-1.78,3.4-3.67,3.7c-1.36,0.21-2.64,0.01-3.86-0.61c-0.16-0.08-0.3-0.25-0.54-0.26
		c0.6,1.21,1.26,2.34,2.08,3.37c0.84,1.05,1.96,1.75,3.1,2.51c-2.91,0.8-5.76,1.58-8.67,2.38c0.56-1.21,1.04-2.4,1.13-3.71
		C141.43,176.07,141.38,174.79,141.19,173.52z"/>
</g>
<path class="st2" d="M253.15,261.63L105.03,308.6c-5.15,1.63-10.69-1.25-12.32-6.38L16.08,60.57c-1.63-5.15,1.25-10.69,6.38-12.32
	L170.58,1.27c5.15-1.63,10.69,1.25,12.32,6.38l76.64,241.65C261.17,254.45,258.29,260,253.15,261.63z"/>
<g>
	<path class="st3" d="M32.35,63.23l-0.03-0.08c-1.37-0.25-3.64-1.26-4.35-3.5c-1.01-3.17,1.08-6.1,4.55-7.2
		c3.57-1.14,6.97,0.05,7.98,3.23c0.69,2.17-0.59,4.27-1.55,5.34l0.04,0.12c1.49,0.25,4.19,1.22,4.97,3.67
		c0.99,3.12-0.89,6.32-5.09,7.66c-4.09,1.3-7.47-0.25-8.46-3.36C29.62,66.62,31.68,63.89,32.35,63.23z M36.88,56.99
		c-0.44-1.37-1.95-2.06-3.43-1.58c-1.37,0.44-2.21,1.86-1.77,3.24c0.41,1.29,1.53,2.04,3.46,1.89
		C36.78,59.56,37.27,58.21,36.88,56.99z M37.99,69.53c1.57-0.5,2.64-2,2.14-3.57c-0.41-1.28-1.88-2.26-3.94-2.08
		c-1.78,1.04-2.42,2.68-2.01,3.97C34.69,69.42,36.45,70.02,37.99,69.53z"/>
</g>
<g>
	<path class="st0" d="M107.63,113.92c-0.84,1.26-1.96,2.11-3.4,2.53c-2.26,0.65-4.22-0.35-5.12-2.55c-0.5-1.23-0.6-2.46,0.02-3.67
		c0.6-1.16,1.59-1.88,2.78-2.34c1.12-0.43,2.27-0.54,3.46-0.35c0.05,0.01,0.08,0.01,0.13,0.01c0.02,0,0.03-0.01,0.07-0.03
		c-0.43-0.3-0.82-0.63-1.15-1.01c-1.05-1.18-1.67-2.56-1.83-4.14c-0.21-2.16,0.96-3.9,3.03-4.54c1.24-0.38,2.5-0.53,3.77-0.15
		c1.43,0.43,2.31,1.42,2.66,2.84c0.55,2.24,0.05,4.28-1.28,6.14c-0.03,0.05-0.07,0.07-0.11,0.11c0.02,0.02,0.03,0.04,0.05,0.05
		c0.16-0.07,0.32-0.15,0.48-0.22c0.17-0.07,0.35-0.15,0.53-0.2c1.9-0.55,3.72-0.41,5.34,0.8c1.54,1.15,1.93,2.76,1.51,4.57
		c-0.48,2.11-2.22,3.15-4.11,3.19c-1.37,0.04-2.62-0.34-3.75-1.11c-0.15-0.11-0.26-0.28-0.5-0.33c0.45,1.27,0.94,2.48,1.62,3.62
		c0.69,1.15,1.72,1.98,2.75,2.89c-2.99,0.42-5.91,0.82-8.9,1.24c0.71-1.13,1.35-2.25,1.6-3.54
		C107.53,116.46,107.64,115.2,107.63,113.92z"/>
	<path class="st0" d="M156.14,107.2c-0.84,1.26-1.96,2.11-3.4,2.53c-2.26,0.65-4.22-0.35-5.12-2.55c-0.5-1.23-0.6-2.46,0.02-3.67
		c0.6-1.16,1.59-1.88,2.78-2.34c1.12-0.43,2.27-0.54,3.46-0.35c0.05,0.01,0.08,0.01,0.13,0.01c0.02,0,0.03-0.01,0.07-0.03
		c-0.43-0.3-0.82-0.63-1.15-1.01c-1.05-1.18-1.67-2.56-1.83-4.14c-0.21-2.16,0.96-3.9,3.03-4.54c1.24-0.38,2.5-0.53,3.77-0.15
		c1.43,0.43,2.31,1.42,2.66,2.84c0.55,2.24,0.05,4.28-1.28,6.14c-0.03,0.05-0.07,0.07-0.11,0.11c0.02,0.02,0.03,0.04,0.05,0.05
		c0.16-0.07,0.32-0.15,0.48-0.22c0.17-0.07,0.35-0.15,0.53-0.2c1.9-0.55,3.72-0.41,5.34,0.8c1.54,1.15,1.93,2.76,1.51,4.57
		c-0.48,2.11-2.22,3.15-4.11,3.19c-1.37,0.04-2.62-0.34-3.75-1.11c-0.15-0.11-0.26-0.28-0.5-0.33c0.45,1.27,0.94,2.48,1.62,3.62
		c0.69,1.15,1.72,1.98,2.75,2.89c-2.99,0.42-5.91,0.82-8.9,1.24c0.71-1.13,1.35-2.25,1.6-3.54
		C156.04,109.74,156.15,108.47,156.14,107.2z"/>
	<path class="st0" d="M114.27,162.53c-0.84,1.26-1.96,2.11-3.4,2.53c-2.26,0.65-4.22-0.35-5.12-2.55c-0.5-1.23-0.6-2.46,0.02-3.67
		c0.6-1.16,1.59-1.88,2.78-2.34c1.12-0.43,2.27-0.54,3.46-0.35c0.05,0.01,0.08,0.01,0.13,0.01c0.02,0,0.03-0.01,0.07-0.03
		c-0.43-0.3-0.82-0.63-1.15-1.01c-1.05-1.18-1.67-2.56-1.83-4.14c-0.21-2.16,0.96-3.9,3.03-4.54c1.24-0.38,2.5-0.53,3.77-0.15
		c1.43,0.43,2.31,1.42,2.66,2.84c0.55,2.24,0.05,4.28-1.28,6.14c-0.03,0.05-0.07,0.07-0.11,0.11c0.02,0.02,0.03,0.04,0.05,0.05
		c0.16-0.07,0.32-0.15,0.48-0.22c0.17-0.07,0.35-0.15,0.53-0.2c1.9-0.55,3.72-0.41,5.34,0.8c1.54,1.15,1.93,2.76,1.51,4.57
		c-0.48,2.11-2.22,3.15-4.11,3.19c-1.37,0.04-2.62-0.34-3.75-1.11c-0.15-0.11-0.26-0.28-0.5-0.33c0.45,1.27,0.94,2.48,1.62,3.62
		c0.69,1.15,1.72,1.98,2.75,2.89c-2.99,0.42-5.91,0.82-8.9,1.24c0.71-1.13,1.35-2.25,1.6-3.54
		C114.17,165.08,114.28,163.81,114.27,162.53z"/>
	<path class="st0" d="M162.87,155.8c-0.84,1.26-1.96,2.11-3.4,2.53c-2.26,0.65-4.22-0.35-5.12-2.55c-0.5-1.23-0.6-2.46,0.02-3.67
		c0.6-1.16,1.59-1.88,2.78-2.34c1.12-0.43,2.27-0.54,3.46-0.35c0.05,0.01,0.08,0.01,0.13,0.01c0.02,0,0.03-0.01,0.07-0.03
		c-0.43-0.3-0.82-0.63-1.15-1.01c-1.05-1.18-1.67-2.56-1.83-4.14c-0.21-2.16,0.96-3.9,3.03-4.54c1.24-0.38,2.5-0.53,3.77-0.15
		c1.43,0.43,2.31,1.42,2.66,2.84c0.55,2.24,0.05,4.28-1.28,6.14c-0.03,0.05-0.07,0.07-0.11,0.11c0.02,0.02,0.03,0.04,0.05,0.05
		c0.16-0.07,0.32-0.15,0.48-0.22c0.17-0.07,0.35-0.15,0.53-0.2c1.9-0.55,3.72-0.41,5.34,0.8c1.54,1.15,1.93,2.76,1.51,4.57
		c-0.48,2.11-2.22,3.15-4.11,3.19c-1.37,0.04-2.62-0.34-3.75-1.11c-0.15-0.11-0.26-0.28-0.5-0.33c0.45,1.27,0.94,2.48,1.62,3.62
		c0.69,1.15,1.72,1.98,2.75,2.89c-2.99,0.42-5.91,0.82-8.9,1.24c0.71-1.13,1.35-2.25,1.6-3.54
		C162.77,158.34,162.88,157.08,162.87,155.8z"/>
	<path class="st0" d="M121.76,211.03c-0.84,1.26-1.96,2.11-3.4,2.53c-2.26,0.65-4.22-0.35-5.12-2.55c-0.5-1.23-0.6-2.46,0.02-3.67
		c0.6-1.16,1.59-1.88,2.78-2.34c1.12-0.43,2.27-0.54,3.46-0.35c0.05,0.01,0.08,0.01,0.13,0.01c0.02,0,0.03-0.01,0.07-0.03
		c-0.43-0.3-0.82-0.63-1.15-1.01c-1.05-1.18-1.67-2.56-1.83-4.14c-0.21-2.16,0.96-3.9,3.03-4.54c1.24-0.38,2.5-0.53,3.77-0.15
		c1.43,0.43,2.31,1.42,2.66,2.84c0.55,2.24,0.05,4.28-1.28,6.14c-0.03,0.05-0.07,0.07-0.11,0.11c0.02,0.02,0.03,0.04,0.05,0.05
		c0.16-0.07,0.32-0.15,0.48-0.22c0.17-0.07,0.35-0.15,0.53-0.2c1.9-0.55,3.72-0.41,5.34,0.8c1.54,1.15,1.93,2.76,1.51,4.57
		c-0.48,2.11-2.22,3.15-4.11,3.19c-1.37,0.04-2.62-0.34-3.75-1.11c-0.15-0.11-0.26-0.28-0.5-0.33c0.45,1.27,0.94,2.48,1.62,3.62
		c0.69,1.15,1.72,1.98,2.75,2.89c-2.99,0.42-5.91,0.82-8.9,1.24c0.71-1.13,1.35-2.25,1.6-3.54
		C121.66,213.57,121.78,212.31,121.76,211.03z"/>
	<path class="st0" d="M170.36,204.3c-0.84,1.26-1.96,2.11-3.4,2.53c-2.26,0.65-4.22-0.35-5.12-2.55c-0.5-1.23-0.6-2.46,0.02-3.67
		c0.6-1.16,1.59-1.88,2.78-2.34c1.12-0.43,2.27-0.54,3.46-0.35c0.05,0.01,0.08,0.01,0.13,0.01c0.02,0,0.03-0.01,0.07-0.03
		c-0.43-0.3-0.82-0.63-1.15-1.01c-1.05-1.18-1.67-2.56-1.83-4.14c-0.21-2.16,0.96-3.9,3.03-4.54c1.24-0.38,2.5-0.53,3.77-0.15
		c1.43,0.43,2.31,1.42,2.66,2.84c0.55,2.24,0.05,4.28-1.28,6.14c-0.03,0.05-0.07,0.07-0.11,0.11c0.02,0.02,0.03,0.04,0.05,0.05
		c0.16-0.07,0.32-0.15,0.48-0.22c0.17-0.07,0.35-0.15,0.53-0.2c1.9-0.55,3.72-0.41,5.34,0.8c1.54,1.15,1.93,2.76,1.51,4.57
		c-0.48,2.11-2.22,3.15-4.11,3.19c-1.37,0.04-2.62-0.34-3.75-1.11c-0.15-0.11-0.26-0.28-0.5-0.33c0.45,1.27,0.94,2.48,1.62,3.62
		c0.69,1.15,1.72,1.98,2.75,2.89c-2.99,0.42-5.91,0.82-8.9,1.24c0.71-1.13,1.35-2.25,1.6-3.54
		C170.26,206.84,170.38,205.57,170.36,204.3z"/>
</g>
<path class="st0" d="M224.08,221.37c0.71-1.34,1.76-2.29,3.16-2.83c2.19-0.85,4.24-0.05,5.34,2.06c0.61,1.17,0.83,2.39,0.32,3.66
	c-0.49,1.22-1.41,2.02-2.56,2.58c-1.07,0.53-2.21,0.75-3.41,0.67c-0.05,0-0.08,0-0.13,0c-0.02,0-0.03,0.02-0.06,0.04
	c0.45,0.25,0.87,0.55,1.24,0.89c1.15,1.08,1.9,2.39,2.2,3.95c0.41,2.12-0.59,3.97-2.59,4.8c-1.2,0.49-2.44,0.75-3.74,0.5
	c-1.46-0.29-2.43-1.2-2.92-2.57c-0.76-2.17-0.45-4.26,0.7-6.23c0.03-0.05,0.06-0.08,0.1-0.12c-0.02-0.02-0.03-0.03-0.05-0.05
	c-0.15,0.09-0.31,0.18-0.46,0.26c-0.16,0.09-0.34,0.18-0.51,0.25c-1.85,0.74-3.67,0.75-5.39-0.3c-1.64-1-2.17-2.56-1.93-4.41
	c0.28-2.15,1.91-3.34,3.8-3.56c1.36-0.16,2.64,0.09,3.84,0.75c0.16,0.09,0.29,0.25,0.53,0.28c-0.55-1.23-1.16-2.38-1.96-3.45
	c-0.8-1.08-1.89-1.82-3-2.63c2.94-0.69,5.81-1.36,8.75-2.06c-0.6,1.19-1.13,2.36-1.27,3.67
	C223.94,218.83,223.94,220.1,224.08,221.37z"/>
<path class="st4" d="M47.36,99.42c-0.47-0.58-0.86-1.22-1.36-1.79c-1.36-1.57-2.98-2.86-4.68-4.05c-1.98-1.38-4.04-2.64-6.03-4
	c-1.22-0.84-2.36-1.75-3.19-2.98c-1.59-2.36-1.3-4.88,0.51-6.67c1.98-1.95,5.08-2.16,7.37-0.56c0.57,0.4,1.06,0.9,1.56,1.45
	c0.03-0.19,0.04-0.34,0.06-0.48c0.26-1.81,1.01-3.36,2.54-4.4c2.03-1.38,4.82-1.53,6.81,0.21c1.11,0.96,1.57,2.24,1.66,3.67
	c0.1,1.72-0.28,3.36-0.85,4.97c-0.64,1.81-1.44,3.55-2.14,5.33c-0.84,2.13-1.56,4.28-1.88,6.56c-0.11,0.78-0.15,1.56-0.16,2.35
	c0,0.15-0.02,0.3-0.15,0.4C47.39,99.4,47.37,99.41,47.36,99.42z"/>
<path class="st2" d="M199.59,309.44L45.71,287.89c-5.35-0.75-9.1-5.74-8.36-11.08L72.52,25.76c0.75-5.35,5.74-9.1,11.08-8.36
	l153.88,21.55c5.35,0.75,9.1,5.74,8.36,11.08l-35.17,251.06C209.92,306.43,204.93,310.19,199.59,309.44z"/>
<path class="st0" d="M192.51,264.71c1.19-0.94,2.54-1.38,4.03-1.32c2.35,0.1,3.89,1.66,4.05,4.04c0.08,1.32-0.21,2.52-1.18,3.47
	c-0.94,0.92-2.11,1.28-3.38,1.33c-1.19,0.05-2.33-0.21-3.39-0.76c-0.04-0.02-0.08-0.04-0.12-0.05c-0.02-0.01-0.04,0-0.07,0.01
	c0.31,0.42,0.57,0.85,0.77,1.32c0.62,1.46,0.77,2.96,0.42,4.5c-0.48,2.11-2.15,3.4-4.31,3.35c-1.3-0.03-2.54-0.29-3.62-1.05
	c-1.23-0.85-1.75-2.07-1.63-3.54c0.18-2.3,1.3-4.08,3.16-5.42c0.05-0.03,0.09-0.05,0.14-0.06c-0.01-0.02-0.02-0.04-0.03-0.06
	c-0.17,0.02-0.35,0.05-0.53,0.05c-0.19,0.02-0.38,0.03-0.56,0.03c-1.98-0.07-3.67-0.79-4.81-2.45c-1.09-1.58-0.95-3.22,0.02-4.81
	c1.13-1.85,3.1-2.27,4.91-1.72c1.31,0.4,2.37,1.15,3.2,2.24c0.11,0.15,0.16,0.35,0.36,0.46c-0.02-1.36-0.1-2.66-0.39-3.95
	c-0.29-1.31-1-2.43-1.68-3.62c2.96,0.55,5.87,1.1,8.83,1.66c-1.04,0.85-1.98,1.71-2.65,2.85
	C193.41,262.33,192.9,263.49,192.51,264.71z"/>
<g>
	<path class="st1" d="M189.88,253.61c-0.44,0.05-0.7-0.16-0.75-0.56l-0.35-1.86c-0.08-0.38,0.1-0.68,0.69-0.75
		c1.47-0.18,6.02-1.37,7.54-4.45c-0.55,0.2-2.13,0.45-3.52,0.2c-2.95-0.55-5.6-3.3-4.82-7.52c0.69-3.72,4.3-6.18,7.92-5.5
		c4.63,0.86,6.32,5.03,5.49,9.45C200.49,251.2,192.57,253.27,189.88,253.61z M191.99,239.34c-0.35,1.88,0.85,3.73,2.75,4.08
		c1.95,0.36,3.37-0.93,3.9-1.93c0.37-2-0.25-4.53-2.64-4.97C194.15,236.17,192.35,237.48,191.99,239.34z"/>
</g>
<g>
	<path class="st0" d="M123.38,93.82c-1.19,0.94-2.54,1.38-4.03,1.32c-2.35-0.1-3.89-1.66-4.05-4.04c-0.08-1.32,0.21-2.52,1.18-3.47
		c0.94-0.92,2.11-1.28,3.38-1.33c1.19-0.05,2.33,0.21,3.39,0.76c0.04,0.02,0.08,0.04,0.12,0.05c0.02,0.01,0.04,0,0.07-0.01
		c-0.31-0.42-0.57-0.85-0.77-1.32c-0.62-1.46-0.77-2.96-0.42-4.5c0.48-2.11,2.15-3.4,4.31-3.35c1.3,0.03,2.54,0.29,3.62,1.05
		c1.23,0.85,1.75,2.07,1.63,3.54c-0.18,2.3-1.3,4.08-3.16,5.42c-0.05,0.03-0.09,0.05-0.14,0.06c0.01,0.02,0.02,0.04,0.03,0.06
		c0.17-0.02,0.35-0.05,0.53-0.05c0.19-0.02,0.38-0.03,0.56-0.03c1.98,0.07,3.67,0.79,4.81,2.45c1.09,1.58,0.95,3.22-0.02,4.81
		c-1.13,1.85-3.1,2.27-4.91,1.72c-1.31-0.4-2.37-1.15-3.2-2.24c-0.11-0.15-0.16-0.35-0.36-0.46c0.02,1.36,0.1,2.66,0.39,3.95
		c0.29,1.31,1,2.43,1.68,3.62c-2.96-0.55-5.87-1.1-8.83-1.66c1.04-0.85,1.98-1.71,2.65-2.85C122.48,96.2,122.99,95.04,123.38,93.82z
		"/>
	<path class="st0" d="M171.51,102.82c-1.19,0.94-2.54,1.38-4.03,1.32c-2.35-0.1-3.89-1.66-4.05-4.04c-0.08-1.32,0.21-2.52,1.18-3.47
		c0.94-0.92,2.11-1.28,3.38-1.33c1.19-0.05,2.33,0.21,3.39,0.76c0.04,0.02,0.08,0.04,0.12,0.05c0.02,0.01,0.04,0,0.07-0.01
		c-0.31-0.42-0.57-0.85-0.77-1.32c-0.62-1.46-0.77-2.96-0.42-4.5c0.48-2.11,2.15-3.4,4.31-3.35c1.3,0.03,2.54,0.29,3.62,1.05
		c1.23,0.85,1.75,2.07,1.63,3.54c-0.18,2.3-1.3,4.08-3.16,5.42c-0.05,0.03-0.09,0.05-0.14,0.06c0.01,0.02,0.02,0.04,0.03,0.06
		c0.17-0.02,0.35-0.05,0.53-0.05c0.19-0.02,0.38-0.03,0.56-0.03c1.98,0.07,3.67,0.79,4.81,2.45c1.09,1.58,0.95,3.22-0.02,4.81
		c-1.13,1.85-3.1,2.27-4.91,1.72c-1.31-0.4-2.37-1.15-3.2-2.24c-0.11-0.15-0.16-0.35-0.36-0.46c0.02,1.36,0.1,2.66,0.39,3.95
		c0.29,1.31,1,2.43,1.68,3.62c-2.96-0.55-5.87-1.1-8.83-1.66c1.04-0.85,1.98-1.71,2.65-2.85
		C170.61,105.2,171.12,104.04,171.51,102.82z"/>
	<path class="st0" d="M114.27,142.04c-1.19,0.94-2.54,1.38-4.03,1.32c-2.35-0.1-3.89-1.66-4.05-4.04c-0.08-1.32,0.21-2.52,1.18-3.47
		c0.94-0.92,2.11-1.28,3.38-1.33c1.19-0.05,2.33,0.21,3.39,0.76c0.04,0.02,0.08,0.04,0.12,0.05c0.02,0.01,0.04,0,0.07-0.01
		c-0.31-0.42-0.57-0.85-0.77-1.32c-0.62-1.46-0.77-2.96-0.42-4.5c0.48-2.11,2.15-3.4,4.31-3.35c1.3,0.03,2.54,0.29,3.62,1.05
		c1.23,0.85,1.75,2.07,1.63,3.54c-0.18,2.3-1.3,4.08-3.16,5.42c-0.05,0.03-0.09,0.05-0.14,0.06c0.01,0.02,0.02,0.04,0.03,0.06
		c0.17-0.02,0.35-0.05,0.53-0.05c0.19-0.02,0.38-0.03,0.56-0.03c1.98,0.07,3.67,0.79,4.81,2.45c1.09,1.58,0.95,3.22-0.02,4.81
		c-1.13,1.85-3.1,2.27-4.91,1.72c-1.31-0.4-2.37-1.15-3.2-2.24c-0.11-0.15-0.16-0.35-0.36-0.46c0.02,1.36,0.1,2.66,0.39,3.95
		c0.29,1.31,1,2.43,1.68,3.62c-2.96-0.55-5.87-1.1-8.83-1.66c1.04-0.85,1.98-1.71,2.65-2.85
		C113.37,144.42,113.87,143.25,114.27,142.04z"/>
	<path class="st0" d="M162.49,151.06c-1.19,0.94-2.54,1.38-4.03,1.32c-2.35-0.1-3.89-1.66-4.05-4.04c-0.08-1.32,0.21-2.52,1.18-3.47
		c0.94-0.92,2.11-1.28,3.38-1.33c1.19-0.05,2.33,0.21,3.39,0.76c0.04,0.02,0.08,0.04,0.12,0.05c0.02,0.01,0.04,0,0.07-0.01
		c-0.31-0.42-0.57-0.85-0.77-1.32c-0.62-1.46-0.77-2.96-0.42-4.5c0.48-2.11,2.15-3.4,4.31-3.35c1.3,0.03,2.54,0.29,3.62,1.05
		c1.23,0.85,1.75,2.07,1.63,3.54c-0.18,2.3-1.3,4.08-3.16,5.42c-0.05,0.03-0.09,0.05-0.14,0.06c0.01,0.02,0.02,0.04,0.03,0.06
		c0.17-0.02,0.35-0.05,0.53-0.05c0.19-0.02,0.38-0.03,0.56-0.03c1.98,0.07,3.67,0.79,4.81,2.45c1.09,1.58,0.95,3.22-0.02,4.81
		c-1.13,1.85-3.1,2.27-4.91,1.72c-1.31-0.4-2.37-1.15-3.2-2.24c-0.11-0.15-0.16-0.35-0.36-0.46c0.02,1.36,0.1,2.66,0.39,3.95
		c0.29,1.31,1,2.43,1.68,3.62c-2.96-0.55-5.87-1.1-8.83-1.66c1.04-0.85,1.98-1.71,2.65-2.85
		C161.59,153.44,162.1,152.27,162.49,151.06z"/>
	<path class="st0" d="M105.99,190.4c-1.19,0.94-2.54,1.38-4.03,1.32c-2.35-0.1-3.89-1.66-4.05-4.04c-0.08-1.32,0.21-2.52,1.18-3.47
		c0.94-0.92,2.11-1.28,3.38-1.33c1.19-0.05,2.33,0.21,3.39,0.76c0.04,0.02,0.08,0.04,0.12,0.05c0.02,0.01,0.04,0,0.07-0.01
		c-0.31-0.42-0.57-0.85-0.77-1.32c-0.62-1.46-0.77-2.96-0.42-4.5c0.48-2.11,2.15-3.4,4.31-3.35c1.3,0.03,2.54,0.29,3.62,1.05
		c1.23,0.85,1.75,2.07,1.63,3.54c-0.18,2.3-1.3,4.08-3.16,5.42c-0.05,0.03-0.09,0.05-0.14,0.06c0.01,0.02,0.02,0.04,0.03,0.06
		c0.17-0.02,0.35-0.05,0.53-0.05c0.19-0.02,0.38-0.03,0.56-0.03c1.98,0.07,3.67,0.79,4.81,2.45c1.09,1.58,0.95,3.22-0.02,4.81
		c-1.13,1.85-3.1,2.27-4.91,1.72c-1.31-0.4-2.37-1.15-3.2-2.24c-0.11-0.15-0.16-0.35-0.36-0.46c0.02,1.36,0.1,2.66,0.39,3.95
		c0.29,1.31,1,2.43,1.68,3.62c-2.96-0.55-5.87-1.1-8.83-1.66c1.04-0.85,1.98-1.71,2.65-2.85
		C105.09,192.78,105.6,191.62,105.99,190.4z"/>
	<path class="st0" d="M154.22,199.42c-1.19,0.94-2.54,1.38-4.03,1.32c-2.35-0.1-3.89-1.66-4.05-4.04c-0.08-1.32,0.21-2.52,1.18-3.47
		c0.94-0.92,2.11-1.28,3.38-1.33c1.19-0.05,2.33,0.21,3.39,0.76c0.04,0.02,0.08,0.04,0.12,0.05c0.02,0.01,0.04,0,0.07-0.01
		c-0.31-0.42-0.57-0.85-0.77-1.32c-0.62-1.46-0.77-2.96-0.42-4.5c0.48-2.11,2.15-3.4,4.31-3.35c1.3,0.03,2.54,0.29,3.62,1.05
		c1.23,0.85,1.75,2.07,1.63,3.54c-0.18,2.3-1.3,4.08-3.16,5.42c-0.05,0.03-0.09,0.05-0.14,0.06c0.01,0.02,0.02,0.04,0.03,0.06
		c0.17-0.02,0.35-0.05,0.53-0.05c0.19-0.02,0.38-0.03,0.56-0.03c1.98,0.07,3.67,0.79,4.81,2.45c1.09,1.58,0.95,3.22-0.02,4.81
		c-1.13,1.85-3.1,2.27-4.91,1.72c-1.31-0.4-2.37-1.15-3.2-2.24c-0.11-0.15-0.16-0.35-0.36-0.46c0.02,1.36,0.1,2.66,0.39,3.95
		c0.29,1.31,1,2.43,1.68,3.62c-2.96-0.55-5.87-1.1-8.83-1.66c1.04-0.85,1.98-1.71,2.65-2.85
		C153.32,201.8,153.83,200.64,154.22,199.42z"/>
</g>
<g>
	<path class="st3" d="M245.82,244.6l0.03,0.08c1.37,0.25,3.64,1.26,4.35,3.5c1.01,3.17-1.08,6.1-4.55,7.2
		c-3.57,1.14-6.97-0.05-7.98-3.23c-0.69-2.17,0.59-4.27,1.55-5.34l-0.04-0.12c-1.49-0.25-4.19-1.22-4.97-3.67
		c-0.99-3.12,0.89-6.32,5.09-7.66c4.09-1.3,7.47,0.25,8.46,3.36C248.55,241.22,246.49,243.95,245.82,244.6z M240.17,238.31
		c-1.57,0.5-2.64,2-2.14,3.57c0.41,1.28,1.88,2.26,3.94,2.08c1.78-1.04,2.42-2.68,2.01-3.97
		C243.48,238.42,241.71,237.82,240.17,238.31z M241.29,250.85c0.44,1.37,1.95,2.06,3.43,1.58c1.37-0.44,2.21-1.86,1.77-3.24
		c-0.41-1.29-1.53-2.04-3.46-1.89C241.38,248.28,240.9,249.62,241.29,250.85z"/>
</g>
<path class="st2" d="M192.79,335.44L45.08,287.2c-5.13-1.67-7.96-7.25-6.28-12.38l78.69-240.99c1.67-5.13,7.25-7.96,12.38-6.28
	l147.7,48.23c5.13,1.67,7.96,7.25,6.28,12.38l-78.69,240.99C203.48,334.28,197.92,337.11,192.79,335.44z"/>
<path class="st0" d="M120.44,77.33c-1.31,0.77-2.69,1.04-4.17,0.78c-2.32-0.41-3.65-2.16-3.49-4.54c0.09-1.32,0.54-2.47,1.63-3.29
	c1.05-0.78,2.26-0.99,3.53-0.88c1.19,0.11,2.28,0.51,3.26,1.2c0.04,0.03,0.07,0.05,0.11,0.06c0.01,0.01,0.04,0,0.07,0.01
	c-0.25-0.45-0.45-0.92-0.59-1.41c-0.43-1.53-0.38-3.03,0.17-4.52c0.75-2.03,2.57-3.09,4.71-2.76c1.28,0.2,2.47,0.62,3.46,1.51
	c1.1,1.01,1.46,2.28,1.15,3.72c-0.48,2.26-1.83,3.87-3.84,4.96c-0.05,0.03-0.1,0.03-0.15,0.05c0.01,0.02,0.01,0.05,0.02,0.06
	c0.18,0,0.35,0,0.54,0.01c0.19,0.01,0.38,0.02,0.56,0.05c1.96,0.33,3.53,1.26,4.45,3.06c0.88,1.71,0.53,3.32-0.65,4.77
	c-1.36,1.68-3.36,1.86-5.09,1.06c-1.25-0.57-2.21-1.45-2.88-2.64c-0.09-0.16-0.12-0.37-0.3-0.51c-0.16,1.35-0.25,2.65-0.13,3.97
	c0.12,1.34,0.67,2.54,1.2,3.81c-2.86-0.94-5.67-1.86-8.54-2.79c1.14-0.7,2.19-1.44,2.99-2.47
	C119.23,79.58,119.89,78.48,120.44,77.33z"/>
<path class="st0" d="M150.15,131.13c-1.31,0.77-2.69,1.04-4.17,0.78c-2.32-0.41-3.65-2.16-3.49-4.54c0.09-1.32,0.54-2.47,1.63-3.29
	c1.05-0.78,2.26-0.99,3.53-0.88c1.19,0.11,2.28,0.51,3.26,1.2c0.04,0.03,0.07,0.05,0.11,0.06c0.01,0.01,0.04,0,0.07,0.01
	c-0.25-0.45-0.45-0.92-0.59-1.41c-0.43-1.53-0.38-3.03,0.17-4.52c0.75-2.03,2.57-3.09,4.71-2.76c1.28,0.2,2.47,0.62,3.46,1.51
	c1.1,1.01,1.46,2.28,1.15,3.72c-0.48,2.26-1.83,3.87-3.84,4.96c-0.05,0.03-0.1,0.03-0.15,0.05c0.01,0.02,0.01,0.05,0.02,0.06
	c0.18,0,0.35,0,0.54,0.01c0.19,0.01,0.38,0.02,0.56,0.05c1.96,0.33,3.53,1.26,4.45,3.06c0.88,1.71,0.53,3.32-0.65,4.77
	c-1.36,1.68-3.36,1.86-5.09,1.06c-1.25-0.57-2.21-1.45-2.88-2.64c-0.09-0.16-0.12-0.37-0.3-0.51c-0.16,1.35-0.25,2.65-0.13,3.97
	c0.12,1.34,0.67,2.54,1.2,3.81c-2.86-0.94-5.67-1.86-8.54-2.79c1.14-0.7,2.19-1.44,2.99-2.47
	C148.94,133.38,149.61,132.29,150.15,131.13z"/>
<path class="st0" d="M196.71,146.34c-1.31,0.77-2.69,1.04-4.17,0.78c-2.32-0.41-3.65-2.16-3.49-4.54c0.09-1.32,0.54-2.47,1.63-3.29
	c1.05-0.78,2.26-0.99,3.53-0.88c1.19,0.11,2.28,0.51,3.26,1.2c0.04,0.03,0.07,0.05,0.11,0.06c0.01,0.01,0.04,0,0.07,0.01
	c-0.25-0.45-0.45-0.92-0.59-1.41c-0.43-1.53-0.38-3.03,0.17-4.52c0.75-2.03,2.57-3.09,4.71-2.76c1.28,0.2,2.47,0.62,3.46,1.51
	c1.1,1.01,1.46,2.28,1.15,3.72c-0.48,2.26-1.83,3.87-3.84,4.96c-0.05,0.03-0.1,0.03-0.15,0.05c0.01,0.02,0.01,0.05,0.02,0.06
	c0.18,0,0.35,0,0.54,0.01c0.19,0.01,0.38,0.02,0.56,0.05c1.96,0.33,3.53,1.26,4.45,3.06c0.88,1.71,0.53,3.32-0.65,4.77
	c-1.36,1.68-3.36,1.86-5.09,1.06c-1.25-0.57-2.21-1.45-2.88-2.64c-0.09-0.16-0.12-0.37-0.3-0.51c-0.16,1.35-0.25,2.65-0.13,3.97
	c0.12,1.34,0.67,2.54,1.2,3.81c-2.86-0.94-5.67-1.86-8.54-2.79c1.14-0.7,2.19-1.44,2.99-2.47
	C195.5,148.58,196.15,147.49,196.71,146.34z"/>
<path class="st0" d="M134.83,177.75c-1.31,0.77-2.69,1.04-4.17,0.78c-2.32-0.41-3.65-2.16-3.49-4.54c0.09-1.32,0.54-2.47,1.63-3.29
	c1.05-0.78,2.26-0.99,3.53-0.88c1.19,0.11,2.28,0.51,3.26,1.2c0.04,0.03,0.07,0.05,0.11,0.06c0.01,0.01,0.04,0,0.07,0.01
	c-0.25-0.45-0.45-0.92-0.59-1.41c-0.43-1.53-0.38-3.03,0.17-4.52c0.75-2.03,2.57-3.09,4.71-2.76c1.28,0.2,2.47,0.62,3.46,1.51
	c1.1,1.01,1.46,2.28,1.15,3.72c-0.48,2.26-1.83,3.87-3.84,4.96c-0.05,0.03-0.1,0.03-0.15,0.05c0.01,0.02,0.01,0.05,0.02,0.06
	c0.18,0,0.35,0,0.54,0.01c0.19,0.01,0.38,0.02,0.56,0.05c1.96,0.33,3.53,1.26,4.45,3.06c0.88,1.71,0.53,3.32-0.65,4.77
	c-1.36,1.68-3.36,1.86-5.09,1.06c-1.25-0.57-2.21-1.45-2.88-2.64c-0.09-0.16-0.12-0.37-0.3-0.51c-0.16,1.35-0.25,2.65-0.13,3.97
	c0.12,1.34,0.67,2.54,1.2,3.81c-2.86-0.94-5.67-1.86-8.54-2.79c1.14-0.7,2.19-1.44,2.99-2.47C133.63,180,134.28,178.9,134.83,177.75
	z"/>
<path class="st0" d="M181.47,192.97c-1.31,0.77-2.69,1.04-4.17,0.78c-2.32-0.41-3.65-2.16-3.49-4.54c0.09-1.32,0.54-2.47,1.63-3.29
	c1.05-0.78,2.26-0.99,3.53-0.88c1.19,0.11,2.28,0.51,3.26,1.2c0.04,0.03,0.07,0.05,0.11,0.06c0.01,0.01,0.04,0,0.07,0.01
	c-0.25-0.45-0.45-0.92-0.59-1.41c-0.43-1.53-0.38-3.03,0.17-4.52c0.75-2.03,2.57-3.09,4.71-2.76c1.28,0.2,2.47,0.62,3.46,1.51
	c1.1,1.01,1.46,2.28,1.15,3.72c-0.48,2.26-1.83,3.87-3.84,4.96c-0.05,0.03-0.1,0.03-0.15,0.05c0.01,0.02,0.01,0.05,0.02,0.06
	c0.18,0,0.35,0,0.54,0.01c0.19,0.01,0.38,0.02,0.56,0.05c1.96,0.33,3.53,1.26,4.45,3.06c0.88,1.71,0.53,3.32-0.65,4.77
	c-1.36,1.68-3.36,1.86-5.09,1.06c-1.25-0.57-2.21-1.45-2.88-2.64c-0.09-0.16-0.12-0.37-0.3-0.51c-0.16,1.35-0.25,2.65-0.13,3.97
	c0.12,1.34,0.67,2.54,1.2,3.81c-2.86-0.94-5.67-1.86-8.54-2.79c1.14-0.7,2.19-1.44,2.99-2.47
	C180.26,195.22,180.93,194.14,181.47,192.97z"/>
<path class="st0" d="M120.32,222.84c-1.31,0.77-2.69,1.04-4.17,0.78c-2.32-0.41-3.65-2.16-3.49-4.54c0.09-1.32,0.54-2.47,1.63-3.29
	c1.05-0.78,2.26-0.99,3.53-0.88c1.19,0.11,2.28,0.51,3.26,1.2c0.04,0.03,0.07,0.05,0.11,0.06c0.01,0.01,0.04,0,0.07,0.01
	c-0.25-0.45-0.45-0.92-0.59-1.41c-0.43-1.53-0.38-3.03,0.17-4.52c0.75-2.03,2.57-3.09,4.71-2.76c1.28,0.2,2.47,0.62,3.46,1.51
	c1.1,1.01,1.46,2.28,1.15,3.72c-0.48,2.26-1.83,3.87-3.84,4.96c-0.05,0.03-0.1,0.03-0.15,0.05c0.01,0.02,0.01,0.05,0.02,0.06
	c0.18,0,0.35,0,0.54,0.01c0.19,0.01,0.38,0.02,0.56,0.05c1.96,0.33,3.53,1.26,4.45,3.06c0.88,1.71,0.53,3.32-0.65,4.77
	c-1.36,1.68-3.36,1.86-5.09,1.06c-1.25-0.57-2.21-1.45-2.88-2.64c-0.09-0.16-0.12-0.37-0.3-0.51c-0.16,1.35-0.25,2.65-0.13,3.97
	c0.12,1.34,0.67,2.54,1.2,3.81c-2.86-0.94-5.67-1.86-8.54-2.79c1.14-0.7,2.19-1.44,2.99-2.47
	C119.11,225.08,119.78,224,120.32,222.84z"/>
<path class="st0" d="M166.96,238.07c-1.31,0.77-2.69,1.04-4.17,0.78c-2.32-0.41-3.65-2.16-3.49-4.54c0.09-1.32,0.54-2.47,1.63-3.29
	c1.05-0.78,2.26-0.99,3.53-0.88c1.19,0.11,2.28,0.51,3.26,1.2c0.04,0.03,0.07,0.05,0.11,0.06c0.01,0.01,0.04,0,0.07,0.01
	c-0.25-0.45-0.45-0.92-0.59-1.41c-0.43-1.53-0.38-3.03,0.17-4.52c0.75-2.03,2.57-3.09,4.71-2.76c1.28,0.2,2.47,0.62,3.46,1.51
	c1.1,1.01,1.46,2.28,1.15,3.72c-0.48,2.26-1.83,3.87-3.84,4.96c-0.05,0.03-0.1,0.03-0.15,0.05c0.01,0.02,0.01,0.05,0.02,0.06
	c0.18,0,0.35,0,0.54,0.01c0.19,0.01,0.38,0.02,0.56,0.05c1.96,0.33,3.53,1.26,4.45,3.06c0.88,1.71,0.53,3.32-0.65,4.77
	c-1.36,1.68-3.36,1.86-5.09,1.06c-1.25-0.57-2.21-1.45-2.88-2.64c-0.09-0.16-0.12-0.37-0.3-0.51c-0.16,1.35-0.25,2.65-0.13,3.97
	c0.12,1.34,0.67,2.54,1.2,3.81c-2.86-0.94-5.67-1.86-8.54-2.79c1.14-0.7,2.19-1.44,2.99-2.47
	C165.76,240.32,166.41,239.22,166.96,238.07z"/>
<path class="st0" d="M201.48,281.98c1.31-0.77,2.69-1.04,4.17-0.78c2.32,0.41,3.65,2.16,3.49,4.54c-0.09,1.32-0.54,2.47-1.63,3.29
	c-1.05,0.78-2.26,0.99-3.53,0.88c-1.19-0.11-2.28-0.51-3.26-1.2c-0.04-0.03-0.07-0.05-0.11-0.06c-0.01-0.01-0.04,0-0.07-0.01
	c0.25,0.45,0.45,0.92,0.59,1.41c0.43,1.53,0.38,3.03-0.17,4.52c-0.75,2.03-2.57,3.09-4.71,2.76c-1.28-0.2-2.47-0.62-3.46-1.51
	c-1.1-1.01-1.46-2.28-1.15-3.72c0.48-2.26,1.83-3.87,3.84-4.96c0.05-0.03,0.1-0.03,0.15-0.05c-0.01-0.02-0.01-0.05-0.02-0.06
	c-0.18,0-0.35,0-0.54-0.01c-0.19-0.01-0.38-0.02-0.56-0.05c-1.96-0.33-3.53-1.26-4.45-3.06c-0.88-1.71-0.53-3.32,0.65-4.77
	c1.36-1.68,3.36-1.86,5.09-1.06c1.25,0.57,2.21,1.45,2.88,2.64c0.09,0.16,0.12,0.37,0.3,0.51c0.16-1.35,0.25-2.65,0.13-3.97
	c-0.12-1.34-0.67-2.54-1.2-3.81c2.86,0.94,5.67,1.86,8.54,2.79c-1.14,0.7-2.19,1.44-2.99,2.47
	C202.68,279.73,202.03,280.82,201.48,281.98z"/>
<g>
	<path class="st1" d="M93.69,25.56c0.44-0.06,0.71,0.13,0.77,0.53l0.44,1.85c0.1,0.38-0.06,0.69-0.65,0.79
		c-1.46,0.25-5.96,1.65-7.33,4.78c0.55-0.23,2.11-0.55,3.5-0.35c2.97,0.42,5.75,3.05,5.16,7.29c-0.53,3.75-4.01,6.38-7.67,5.86
		c-4.67-0.65-6.55-4.73-5.92-9.19C83.2,28.45,91.01,26.03,93.69,25.56z M92.22,39.92c0.26-1.9-1.03-3.68-2.93-3.96
		c-1.96-0.27-3.33,1.07-3.81,2.1c-0.28,2.02,0.45,4.51,2.86,4.85C90.22,43.18,91.96,41.79,92.22,39.92z"/>
</g>
<path class="st0" d="M80.63,73.56c0.04-0.05,0.06-0.1,0.11-0.15c1.3-1.22,2.11-2.76,2.83-4.35c0.07-0.17,0.15-0.35,0.24-0.55
	c-0.91,0.37-1.83,0.61-2.78,0.64c-1.97,0.05-3.72-0.5-4.97-2.11c-0.88-1.14-1.09-2.44-0.75-3.82c0.41-1.69,1.44-3,2.65-4.19
	c0.82-0.81,1.77-1.46,2.69-2.15c2.26-1.72,4.28-3.68,6.14-5.83c0.31-0.35,0.32-0.35,0.5,0.08c1.26,3.09,3.06,5.86,5.18,8.43
	c1.28,1.56,2.12,3.36,2.26,5.42c0.02,0.23-0.05,0.45,0.04,0.68c-0.01,0.05-0.02,0.1-0.02,0.15c-0.07,0.2-0.1,0.41-0.09,0.62
	c-0.01,0.05-0.02,0.1-0.02,0.15c-0.13,0.53-0.3,1.03-0.59,1.49c-0.57,0.9-1.36,1.54-2.35,1.91c-1.75,0.66-3.43,0.41-5.07-0.4
	c-0.37-0.18-0.73-0.4-1.05-0.64c-0.05,0-0.07,0.02-0.07,0.04c0.1,1.33,0.27,2.65,0.85,3.87c0.19,0.4,0.45,0.76,0.69,1.14
	c0.07,0.12,0.15,0.23,0.2,0.36c0.03,0.07,0.03,0.15-0.09,0.13c-2.08-0.29-4.17-0.58-6.25-0.88C80.81,73.61,80.71,73.63,80.63,73.56z
	"/>
<path class="st0" d="M103.51,263.09c-1.31,0.77-2.69,1.04-4.17,0.78c-2.32-0.41-3.65-2.16-3.49-4.54c0.09-1.32,0.54-2.47,1.63-3.29
	c1.05-0.78,2.26-0.99,3.53-0.88c1.19,0.11,2.28,0.51,3.26,1.2c0.04,0.03,0.07,0.05,0.11,0.06c0.01,0.01,0.04,0,0.07,0.01
	c-0.25-0.45-0.45-0.92-0.59-1.41c-0.43-1.53-0.38-3.03,0.17-4.52c0.75-2.03,2.57-3.09,4.71-2.76c1.28,0.2,2.47,0.62,3.46,1.51
	c1.1,1.01,1.46,2.28,1.15,3.72c-0.48,2.26-1.83,3.87-3.84,4.96c-0.05,0.03-0.1,0.03-0.15,0.05c0.01,0.02,0.01,0.05,0.02,0.06
	c0.18,0,0.35,0,0.54,0.01c0.19,0.01,0.38,0.02,0.56,0.05c1.96,0.33,3.53,1.26,4.45,3.06c0.88,1.71,0.53,3.32-0.65,4.77
	c-1.36,1.68-3.36,1.86-5.09,1.06c-1.25-0.57-2.21-1.45-2.88-2.64c-0.09-0.16-0.12-0.37-0.3-0.51c-0.16,1.35-0.25,2.65-0.13,3.97
	c0.12,1.34,0.67,2.54,1.2,3.81c-2.86-0.94-5.67-1.86-8.54-2.79c1.14-0.7,2.19-1.44,2.99-2.47
	C102.31,265.34,102.96,264.25,103.51,263.09z"/>
<path class="st0" d="M150.15,278.32c-1.31,0.77-2.69,1.04-4.17,0.78c-2.32-0.41-3.65-2.16-3.49-4.54c0.09-1.32,0.54-2.47,1.63-3.29
	c1.05-0.78,2.26-0.99,3.53-0.88c1.19,0.11,2.28,0.51,3.26,1.2c0.04,0.03,0.07,0.05,0.11,0.06c0.01,0.01,0.04,0,0.07,0.01
	c-0.25-0.45-0.45-0.92-0.59-1.41c-0.43-1.53-0.38-3.03,0.17-4.52c0.75-2.03,2.57-3.09,4.71-2.76c1.28,0.2,2.47,0.62,3.46,1.51
	c1.1,1.01,1.46,2.28,1.15,3.72c-0.48,2.26-1.83,3.87-3.84,4.96c-0.05,0.03-0.1,0.03-0.15,0.05c0.01,0.02,0.01,0.05,0.02,0.06
	c0.18,0,0.35,0,0.54,0.01c0.19,0.01,0.38,0.02,0.56,0.05c1.96,0.33,3.53,1.26,4.45,3.06c0.88,1.71,0.53,3.32-0.65,4.77
	c-1.36,1.68-3.36,1.86-5.09,1.06c-1.25-0.57-2.21-1.45-2.88-2.64c-0.09-0.16-0.12-0.37-0.3-0.51c-0.16,1.35-0.25,2.65-0.13,3.97
	c0.12,1.34,0.67,2.54,1.2,3.81c-2.86-0.94-5.67-1.86-8.54-2.79c1.14-0.7,2.19-1.44,2.99-2.47
	C148.94,280.56,149.61,279.48,150.15,278.32z"/>
<path class="st0" d="M163.93,162.51c-1.31,0.77-2.69,1.04-4.17,0.78c-2.32-0.41-3.65-2.16-3.49-4.54c0.09-1.32,0.54-2.47,1.63-3.29
	c1.05-0.78,2.26-0.99,3.53-0.88c1.19,0.11,2.28,0.51,3.26,1.2c0.04,0.03,0.07,0.05,0.11,0.06c0.01,0.01,0.04,0,0.07,0.01
	c-0.25-0.45-0.45-0.92-0.59-1.41c-0.43-1.53-0.38-3.03,0.17-4.52c0.75-2.03,2.57-3.09,4.71-2.76c1.28,0.2,2.47,0.62,3.46,1.51
	c1.1,1.01,1.46,2.28,1.15,3.72c-0.48,2.26-1.83,3.87-3.84,4.96c-0.05,0.03-0.1,0.03-0.15,0.05c0.01,0.02,0.01,0.05,0.02,0.06
	c0.18,0,0.35,0,0.54,0.01c0.19,0.01,0.38,0.02,0.56,0.05c1.96,0.33,3.53,1.26,4.45,3.06c0.88,1.71,0.53,3.32-0.65,4.77
	c-1.36,1.68-3.36,1.86-5.09,1.06c-1.25-0.57-2.21-1.45-2.88-2.64c-0.09-0.16-0.12-0.37-0.3-0.51c-0.16,1.35-0.25,2.65-0.13,3.97
	c0.12,1.34,0.67,2.54,1.2,3.81c-2.86-0.94-5.67-1.86-8.54-2.79c1.14-0.7,2.19-1.44,2.99-2.47
	C162.72,164.75,163.39,163.67,163.93,162.51z"/>
<path class="st0" d="M135.23,248.65c-1.31,0.77-2.69,1.04-4.17,0.78c-2.32-0.41-3.65-2.16-3.49-4.54c0.09-1.32,0.54-2.47,1.63-3.29
	c1.05-0.78,2.26-0.99,3.53-0.88c1.19,0.11,2.28,0.51,3.26,1.2c0.04,0.03,0.07,0.05,0.11,0.06c0.01,0.01,0.04,0,0.07,0.01
	c-0.25-0.45-0.45-0.92-0.59-1.41c-0.43-1.53-0.38-3.03,0.17-4.52c0.75-2.03,2.57-3.09,4.71-2.76c1.28,0.2,2.47,0.62,3.46,1.51
	c1.1,1.01,1.46,2.28,1.15,3.72c-0.48,2.26-1.83,3.87-3.84,4.96c-0.05,0.03-0.1,0.03-0.15,0.05c0.01,0.02,0.01,0.05,0.02,0.06
	c0.18,0,0.35,0,0.54,0.01c0.19,0.01,0.38,0.02,0.56,0.05c1.96,0.33,3.53,1.26,4.45,3.06c0.88,1.71,0.53,3.32-0.65,4.77
	c-1.36,1.68-3.36,1.86-5.09,1.06c-1.25-0.57-2.21-1.45-2.88-2.64c-0.09-0.16-0.12-0.37-0.3-0.51c-0.16,1.35-0.25,2.65-0.13,3.97
	c0.12,1.34,0.67,2.54,1.2,3.81c-2.86-0.94-5.67-1.86-8.54-2.79c1.14-0.7,2.19-1.44,2.99-2.47
	C134.03,250.9,134.69,249.81,135.23,248.65z"/>
<g>
	<rect x="0" y="28.68" class="st5" width="2.97" height="10.11"/>
</g>
<g>
	<path class="st1" d="M125.4,39.92l-2.8-0.34c-0.29-0.03-0.52-0.31-0.46-0.59l0.32-1.51c0.05-0.25,0.17-0.4,0.33-0.48l5.5-2.11
		l2.07,0.71c0.3,0.1,0.44,0.45,0.34,0.75l-6.56,19.01c-0.1,0.3-0.43,0.48-0.73,0.38l-2.55-0.88c-0.33-0.11-0.47-0.46-0.37-0.76
		L125.4,39.92z"/>
	<path class="st1" d="M131.91,47.39c2.24-6.49,6.3-9.43,11.04-7.79c4.74,1.63,6.12,6.45,3.89,12.94c-2.24,6.49-6.3,9.43-11.04,7.79
		C131.06,58.7,129.67,53.88,131.91,47.39z M142.95,51.2c1.51-4.38,1.07-7.32-1.21-8.11s-4.44,1.25-5.95,5.63
		c-1.52,4.41-1.07,7.32,1.21,8.11C139.28,57.62,141.43,55.61,142.95,51.2z"/>
</g>
<g>
	<path class="st1" d="M196.43,322.85l2.8,0.34c0.29,0.03,0.52,0.31,0.46,0.59l-0.32,1.51c-0.05,0.25-0.17,0.4-0.33,0.48l-5.5,2.11
		l-2.07-0.71c-0.3-0.1-0.44-0.45-0.34-0.75l6.56-19.01c0.1-0.3,0.43-0.48,0.73-0.38l2.55,0.88c0.33,0.11,0.47,0.46,0.37,0.76
		L196.43,322.85z"/>
	<path class="st1" d="M189.93,315.37c-2.24,6.49-6.3,9.43-11.04,7.79c-4.74-1.63-6.13-6.45-3.89-12.94
		c2.24-6.49,6.3-9.43,11.04-7.79C190.78,304.06,192.17,308.88,189.93,315.37z M178.89,311.56c-1.51,4.38-1.07,7.32,1.21,8.11
		s4.44-1.25,5.95-5.63c1.52-4.41,1.07-7.32-1.21-8.11C182.56,305.14,180.41,307.15,178.89,311.56z"/>
</g>
<g>
</g>
<g>
</g>
<g>
</g>
<g>
</g>
<g>
</g>
<g>
</g>
<g>
</g>
<g>
</g>
<g>
</g>
<g>
</g>
<g>
</g>
<g>
</g>
<g>
</g>
<g>
</g>
<g>
</g>
</svg>
